G04*
G04 #@! TF.GenerationSoftware,Altium Limited,Altium Designer,24.6.1 (21)*
G04*
G04 Layer_Physical_Order=1*
G04 Layer_Color=3394611*
%FSLAX25Y25*%
%MOIN*%
G70*
G04*
G04 #@! TF.SameCoordinates,2EFCF5D3-F3DF-4BA1-BCA7-63EA5DCA57C7*
G04*
G04*
G04 #@! TF.FilePolarity,Positive*
G04*
G01*
G75*
%ADD10C,0.00394*%
%ADD12R,0.03937X0.23622*%
%ADD13R,0.26911X0.02940*%
%ADD14R,0.27326X0.02973*%
%ADD15C,0.09843*%
G36*
X187685Y10808D02*
X189012Y10544D01*
X190262Y10026D01*
X191388Y9274D01*
X192345Y8317D01*
X193097Y7192D01*
X193614Y5941D01*
X193878Y4614D01*
X193878Y3937D01*
X193878Y3937D01*
X193878Y3937D01*
X193879Y-196850D01*
X193879Y-197527D01*
X193615Y-198855D01*
X193097Y-200105D01*
X192345Y-201231D01*
X191388Y-202188D01*
X190263Y-202940D01*
X189012Y-203458D01*
X187685Y-203722D01*
X187008D01*
X-187009Y-203721D01*
X-187009Y-203721D01*
X-187010Y-203721D01*
X-187685Y-203722D01*
X-189012Y-203458D01*
X-190263Y-202940D01*
X-191388Y-202188D01*
X-192345Y-201231D01*
X-193097Y-200105D01*
X-193615Y-198855D01*
X-193879Y-197527D01*
Y-196850D01*
X-193878Y3938D01*
X-193878Y3938D01*
X-193878Y3939D01*
X-193879Y4614D01*
X-193615Y5941D01*
X-193097Y7192D01*
X-192345Y8317D01*
X-191388Y9274D01*
X-190263Y10026D01*
X-189012Y10544D01*
X-187685Y10808D01*
X-187008D01*
X187008Y10808D01*
X187685Y10808D01*
D02*
G37*
%LPC*%
G36*
X25346Y1615D02*
X25152Y1577D01*
X24954Y1577D01*
X23317Y1254D01*
X23134Y1179D01*
X22939Y1140D01*
X21396Y504D01*
X21231Y394D01*
X21048Y318D01*
X19659Y-607D01*
X19519Y-747D01*
X19355Y-857D01*
X18173Y-2036D01*
X18063Y-2201D01*
X17923Y-2341D01*
X16995Y-3728D01*
X16919Y-3911D01*
X16808Y-4075D01*
X16169Y-5617D01*
X16130Y-5812D01*
X16055Y-5994D01*
X15728Y-7632D01*
X15728Y-7829D01*
X15690Y-8024D01*
X15690Y-8858D01*
X15690Y-21063D01*
Y-21897D01*
X15728Y-22091D01*
Y-22288D01*
X16054Y-23924D01*
X16129Y-24106D01*
X16168Y-24300D01*
X16806Y-25841D01*
X16916Y-26005D01*
X16992Y-26188D01*
X17918Y-27574D01*
X18058Y-27714D01*
X18168Y-27878D01*
X19347Y-29057D01*
X19511Y-29167D01*
X19651Y-29307D01*
X21037Y-30233D01*
X21220Y-30309D01*
X21384Y-30419D01*
X22925Y-31057D01*
X22960Y-31064D01*
X22883Y-31851D01*
X21784D01*
X21590Y-31890D01*
X21393D01*
X19758Y-32215D01*
X19575Y-32291D01*
X19381Y-32329D01*
X17841Y-32967D01*
X17676Y-33077D01*
X17494Y-33153D01*
X16107Y-34079D01*
X15967Y-34219D01*
X15803Y-34329D01*
X14624Y-35508D01*
X14514Y-35672D01*
X14374Y-35812D01*
X13448Y-37198D01*
X13419Y-37267D01*
X13118Y-37381D01*
X12826Y-37381D01*
X12525Y-37267D01*
X12497Y-37198D01*
X11570Y-35812D01*
X11431Y-35672D01*
X11321Y-35508D01*
X10142Y-34329D01*
X9978Y-34219D01*
X9838Y-34079D01*
X8451Y-33153D01*
X8269Y-33077D01*
X8104Y-32967D01*
X6564Y-32329D01*
X6370Y-32291D01*
X6187Y-32215D01*
X4552Y-31890D01*
X4354D01*
X4160Y-31851D01*
X-4200D01*
X-4394Y-31890D01*
X-4591D01*
X-6227Y-32215D01*
X-6409Y-32291D01*
X-6603Y-32329D01*
X-8144Y-32967D01*
X-8308Y-33077D01*
X-8491Y-33153D01*
X-9877Y-34079D01*
X-10017Y-34219D01*
X-10181Y-34329D01*
X-11360Y-35508D01*
X-11470Y-35672D01*
X-11610Y-35812D01*
X-12536Y-37198D01*
X-12565Y-37267D01*
X-12866Y-37381D01*
X-13158Y-37381D01*
X-13459Y-37267D01*
X-13487Y-37198D01*
X-14414Y-35812D01*
X-14554Y-35672D01*
X-14663Y-35508D01*
X-15842Y-34329D01*
X-16007Y-34219D01*
X-16147Y-34079D01*
X-17533Y-33153D01*
X-17716Y-33077D01*
X-17880Y-32967D01*
X-19420Y-32329D01*
X-19614Y-32291D01*
X-19797Y-32215D01*
X-21432Y-31890D01*
X-21630D01*
X-21824Y-31851D01*
X-22913D01*
X-22990Y-31064D01*
X-22979Y-31062D01*
X-21436Y-30425D01*
X-21271Y-30315D01*
X-21088Y-30240D01*
X-19699Y-29314D01*
X-19559Y-29174D01*
X-19394Y-29064D01*
X-18213Y-27885D01*
X-18102Y-27720D01*
X-17962Y-27581D01*
X-17034Y-26193D01*
X-16958Y-26010D01*
X-16848Y-25846D01*
X-16208Y-24304D01*
X-16170Y-24110D01*
X-16094Y-23927D01*
X-15768Y-22290D01*
X-15768Y-22092D01*
X-15729Y-21898D01*
X-15729Y-21063D01*
X-15729Y-8858D01*
X-15729Y-8858D01*
X-15729Y-8025D01*
X-15768Y-7831D01*
Y-7633D01*
X-16093Y-5998D01*
X-16169Y-5815D01*
X-16207Y-5621D01*
X-16845Y-4081D01*
X-16955Y-3916D01*
X-17031Y-3734D01*
X-17957Y-2347D01*
X-18097Y-2207D01*
X-18207Y-2043D01*
X-19386Y-864D01*
X-19550Y-754D01*
X-19690Y-614D01*
X-21077Y312D01*
X-21259Y388D01*
X-21424Y497D01*
X-22964Y1135D01*
X-23158Y1174D01*
X-23341Y1250D01*
X-24976Y1575D01*
X-25174Y1575D01*
X-25368Y1613D01*
X-26202Y1613D01*
X-45015Y1613D01*
X-45017Y1613D01*
X-45019Y1613D01*
X-45852Y1612D01*
X-46045Y1573D01*
X-46243Y1573D01*
X-47876Y1245D01*
X-48058Y1169D01*
X-48252Y1130D01*
X-49789Y491D01*
X-49953Y381D01*
X-50136Y305D01*
X-51520Y-622D01*
X-51659Y-761D01*
X-51823Y-871D01*
X-53000Y-2050D01*
X-53109Y-2214D01*
X-53249Y-2354D01*
X-54173Y-3739D01*
X-54199Y-3802D01*
X-54511Y-3920D01*
X-54793Y-3918D01*
X-55093Y-3802D01*
X-55121Y-3734D01*
X-56048Y-2347D01*
X-56187Y-2208D01*
X-56297Y-2043D01*
X-57476Y-864D01*
X-57641Y-754D01*
X-57780Y-615D01*
X-59167Y312D01*
X-59349Y387D01*
X-59514Y497D01*
X-61054Y1135D01*
X-61248Y1174D01*
X-61431Y1249D01*
X-63066Y1575D01*
X-63264D01*
X-63458Y1613D01*
X-64291Y1613D01*
X-64291Y1613D01*
X-83091Y1613D01*
X-83924Y1613D01*
X-84118Y1575D01*
X-84316D01*
X-85951Y1249D01*
X-86134Y1174D01*
X-86328Y1135D01*
X-87868Y497D01*
X-88033Y387D01*
X-88215Y312D01*
X-89601Y-615D01*
X-89741Y-754D01*
X-89906Y-864D01*
X-91085Y-2043D01*
X-91194Y-2208D01*
X-91334Y-2347D01*
X-92261Y-3734D01*
X-92289Y-3803D01*
X-92590Y-3916D01*
X-92882D01*
X-93183Y-3803D01*
X-93212Y-3734D01*
X-94138Y-2347D01*
X-94278Y-2208D01*
X-94388Y-2043D01*
X-95567Y-864D01*
X-95731Y-754D01*
X-95871Y-615D01*
X-97257Y312D01*
X-97440Y387D01*
X-97604Y497D01*
X-99145Y1135D01*
X-99339Y1174D01*
X-99521Y1249D01*
X-101157Y1575D01*
X-101354D01*
X-101548Y1613D01*
X-102382Y1613D01*
X-102382Y1613D01*
X-121181Y1613D01*
X-122015Y1613D01*
X-122209Y1575D01*
X-122406D01*
X-124042Y1249D01*
X-124224Y1174D01*
X-124418Y1135D01*
X-125959Y497D01*
X-126123Y387D01*
X-126306Y312D01*
X-127692Y-615D01*
X-127832Y-754D01*
X-127996Y-864D01*
X-129175Y-2043D01*
X-129285Y-2208D01*
X-129425Y-2347D01*
X-130351Y-3734D01*
X-130380Y-3803D01*
X-130681Y-3916D01*
X-130973D01*
X-131274Y-3803D01*
X-131302Y-3734D01*
X-132229Y-2347D01*
X-132369Y-2208D01*
X-132478Y-2043D01*
X-133657Y-864D01*
X-133822Y-754D01*
X-133961Y-615D01*
X-135348Y312D01*
X-135530Y387D01*
X-135695Y497D01*
X-137235Y1135D01*
X-137429Y1174D01*
X-137612Y1249D01*
X-139247Y1575D01*
X-139445D01*
X-139639Y1613D01*
X-140472Y1613D01*
X-140472Y1613D01*
X-159272Y1613D01*
X-160105Y1613D01*
X-160299Y1575D01*
X-160497D01*
X-162132Y1249D01*
X-162315Y1174D01*
X-162509Y1135D01*
X-164049Y497D01*
X-164214Y387D01*
X-164396Y312D01*
X-165783Y-615D01*
X-165922Y-754D01*
X-166087Y-864D01*
X-167266Y-2043D01*
X-167376Y-2208D01*
X-167515Y-2347D01*
X-168442Y-3734D01*
X-168517Y-3916D01*
X-168627Y-4081D01*
X-169265Y-5621D01*
X-169304Y-5815D01*
X-169379Y-5998D01*
X-169705Y-7633D01*
Y-7831D01*
X-169743Y-8025D01*
X-169743Y-8858D01*
X-169743Y-21063D01*
Y-21897D01*
X-169705Y-22091D01*
Y-22288D01*
X-169379Y-23924D01*
X-169304Y-24106D01*
X-169265Y-24300D01*
X-168627Y-25841D01*
X-168517Y-26005D01*
X-168442Y-26188D01*
X-167515Y-27574D01*
X-167376Y-27714D01*
X-167266Y-27878D01*
X-166087Y-29057D01*
X-165922Y-29167D01*
X-165783Y-29307D01*
X-164396Y-30233D01*
X-164214Y-30309D01*
X-164049Y-30419D01*
X-162509Y-31057D01*
X-162315Y-31095D01*
X-162132Y-31171D01*
X-161525Y-31291D01*
Y-32094D01*
X-162132Y-32215D01*
X-162315Y-32291D01*
X-162509Y-32329D01*
X-164049Y-32967D01*
X-164214Y-33077D01*
X-164396Y-33153D01*
X-165783Y-34079D01*
X-165922Y-34219D01*
X-166087Y-34329D01*
X-167266Y-35508D01*
X-167376Y-35672D01*
X-167515Y-35812D01*
X-168442Y-37198D01*
X-168517Y-37381D01*
X-168627Y-37545D01*
X-169265Y-39086D01*
X-169304Y-39280D01*
X-169379Y-39462D01*
X-169705Y-41098D01*
Y-41295D01*
X-169743Y-41489D01*
Y-42323D01*
Y-54528D01*
Y-55361D01*
X-169705Y-55555D01*
Y-55753D01*
X-169379Y-57388D01*
X-169304Y-57571D01*
X-169265Y-57765D01*
X-168627Y-59305D01*
X-168517Y-59469D01*
X-168442Y-59652D01*
X-167515Y-61039D01*
X-167376Y-61178D01*
X-167266Y-61343D01*
X-166087Y-62522D01*
X-165922Y-62631D01*
X-165783Y-62771D01*
X-164668Y-63516D01*
X-164609Y-63678D01*
Y-64274D01*
X-164668Y-64437D01*
X-165783Y-65181D01*
X-165922Y-65321D01*
X-166087Y-65431D01*
X-167266Y-66610D01*
X-167376Y-66774D01*
X-167515Y-66914D01*
X-168442Y-68301D01*
X-168517Y-68483D01*
X-168627Y-68648D01*
X-169265Y-70188D01*
X-169304Y-70382D01*
X-169379Y-70565D01*
X-169705Y-72200D01*
Y-72398D01*
X-169743Y-72592D01*
Y-73425D01*
Y-85630D01*
Y-86464D01*
X-169705Y-86658D01*
Y-86855D01*
X-169379Y-88490D01*
X-169304Y-88673D01*
X-169265Y-88867D01*
X-168627Y-90408D01*
X-168517Y-90572D01*
X-168442Y-90754D01*
X-167515Y-92141D01*
X-167376Y-92281D01*
X-167266Y-92445D01*
X-166087Y-93624D01*
X-165922Y-93734D01*
X-165783Y-93874D01*
X-164669Y-94618D01*
X-164609Y-94781D01*
Y-95377D01*
X-164669Y-95539D01*
X-165783Y-96284D01*
X-165922Y-96424D01*
X-166087Y-96534D01*
X-167266Y-97712D01*
X-167376Y-97877D01*
X-167515Y-98017D01*
X-168442Y-99403D01*
X-168517Y-99586D01*
X-168627Y-99750D01*
X-169265Y-101291D01*
X-169304Y-101484D01*
X-169379Y-101667D01*
X-169705Y-103302D01*
Y-103500D01*
X-169743Y-103694D01*
Y-104528D01*
Y-116732D01*
Y-117566D01*
X-169705Y-117760D01*
Y-117957D01*
X-169379Y-119593D01*
X-169304Y-119775D01*
X-169265Y-119969D01*
X-168627Y-121510D01*
X-168517Y-121674D01*
X-168442Y-121857D01*
X-167515Y-123243D01*
X-167376Y-123383D01*
X-167266Y-123547D01*
X-166087Y-124726D01*
X-165922Y-124836D01*
X-165783Y-124976D01*
X-164669Y-125720D01*
X-164609Y-125883D01*
Y-126479D01*
X-164669Y-126642D01*
X-165783Y-127386D01*
X-165922Y-127526D01*
X-166087Y-127636D01*
X-167266Y-128815D01*
X-167376Y-128979D01*
X-167515Y-129119D01*
X-168442Y-130505D01*
X-168517Y-130688D01*
X-168627Y-130852D01*
X-169265Y-132393D01*
X-169304Y-132587D01*
X-169379Y-132769D01*
X-169705Y-134405D01*
Y-134602D01*
X-169743Y-134796D01*
Y-135630D01*
Y-147835D01*
Y-148668D01*
X-169705Y-148862D01*
Y-149060D01*
X-169379Y-150695D01*
X-169304Y-150878D01*
X-169265Y-151072D01*
X-168627Y-152612D01*
X-168517Y-152777D01*
X-168442Y-152959D01*
X-167515Y-154346D01*
X-167376Y-154485D01*
X-167266Y-154650D01*
X-166087Y-155829D01*
X-165922Y-155939D01*
X-165783Y-156078D01*
X-164669Y-156823D01*
X-164609Y-156985D01*
Y-157581D01*
X-164669Y-157744D01*
X-165783Y-158489D01*
X-165922Y-158628D01*
X-166087Y-158738D01*
X-167266Y-159917D01*
X-167376Y-160082D01*
X-167515Y-160221D01*
X-168442Y-161608D01*
X-168517Y-161790D01*
X-168627Y-161955D01*
X-169265Y-163495D01*
X-169304Y-163689D01*
X-169379Y-163872D01*
X-169705Y-165507D01*
Y-165705D01*
X-169743Y-165899D01*
Y-166732D01*
Y-178937D01*
Y-179771D01*
X-169705Y-179965D01*
Y-180162D01*
X-169379Y-181798D01*
X-169304Y-181980D01*
X-169265Y-182174D01*
X-168627Y-183715D01*
X-168517Y-183879D01*
X-168442Y-184062D01*
X-167515Y-185448D01*
X-167376Y-185588D01*
X-167266Y-185752D01*
X-166087Y-186931D01*
X-165922Y-187041D01*
X-165783Y-187181D01*
X-164396Y-188107D01*
X-164214Y-188183D01*
X-164049Y-188293D01*
X-162509Y-188931D01*
X-162315Y-188969D01*
X-162132Y-189045D01*
X-160497Y-189370D01*
X-160299D01*
X-160105Y-189409D01*
X-151745D01*
X-151551Y-189370D01*
X-151354D01*
X-149718Y-189045D01*
X-149536Y-188969D01*
X-149342Y-188931D01*
X-147801Y-188293D01*
X-147637Y-188183D01*
X-147454Y-188107D01*
X-146068Y-187181D01*
X-145928Y-187041D01*
X-145764Y-186931D01*
X-144585Y-185752D01*
X-144475Y-185588D01*
X-144335Y-185448D01*
X-143409Y-184062D01*
X-143380Y-183992D01*
X-143079Y-183879D01*
X-142787Y-183879D01*
X-142486Y-183992D01*
X-142457Y-184062D01*
X-141531Y-185448D01*
X-141391Y-185588D01*
X-141281Y-185752D01*
X-140103Y-186931D01*
X-139938Y-187041D01*
X-139798Y-187181D01*
X-138412Y-188107D01*
X-138229Y-188183D01*
X-138065Y-188293D01*
X-136524Y-188931D01*
X-136331Y-188969D01*
X-136148Y-189045D01*
X-134513Y-189370D01*
X-134315D01*
X-134121Y-189409D01*
X-125761D01*
X-125567Y-189370D01*
X-125369D01*
X-123734Y-189045D01*
X-123551Y-188969D01*
X-123357Y-188931D01*
X-121817Y-188293D01*
X-121653Y-188183D01*
X-121470Y-188107D01*
X-120084Y-187181D01*
X-119944Y-187041D01*
X-119779Y-186931D01*
X-118600Y-185752D01*
X-118491Y-185588D01*
X-118351Y-185448D01*
X-117424Y-184062D01*
X-117396Y-183992D01*
X-117095Y-183879D01*
X-116803Y-183879D01*
X-116502Y-183992D01*
X-116473Y-184062D01*
X-115547Y-185448D01*
X-115407Y-185588D01*
X-115297Y-185752D01*
X-114118Y-186931D01*
X-113954Y-187041D01*
X-113814Y-187181D01*
X-112428Y-188107D01*
X-112245Y-188183D01*
X-112081Y-188293D01*
X-110540Y-188931D01*
X-110346Y-188969D01*
X-110164Y-189045D01*
X-108528Y-189370D01*
X-108331D01*
X-108137Y-189409D01*
X-99777D01*
X-99583Y-189370D01*
X-99385D01*
X-97750Y-189045D01*
X-97567Y-188969D01*
X-97373Y-188931D01*
X-95833Y-188293D01*
X-95668Y-188183D01*
X-95486Y-188107D01*
X-94099Y-187181D01*
X-93960Y-187041D01*
X-93795Y-186931D01*
X-92616Y-185752D01*
X-92506Y-185588D01*
X-92367Y-185448D01*
X-91440Y-184062D01*
X-91412Y-183992D01*
X-91110Y-183879D01*
X-90819Y-183879D01*
X-90518Y-183992D01*
X-90489Y-184062D01*
X-89563Y-185448D01*
X-89423Y-185588D01*
X-89313Y-185752D01*
X-88134Y-186931D01*
X-87970Y-187041D01*
X-87830Y-187181D01*
X-86444Y-188107D01*
X-86261Y-188183D01*
X-86097Y-188293D01*
X-84556Y-188931D01*
X-84362Y-188969D01*
X-84180Y-189045D01*
X-82544Y-189370D01*
X-82346D01*
X-82153Y-189409D01*
X-81319Y-189409D01*
X-74626Y-189409D01*
X-73792Y-189409D01*
X-73598Y-189370D01*
X-73401D01*
X-71765Y-189045D01*
X-71583Y-188969D01*
X-71389Y-188931D01*
X-69848Y-188293D01*
X-69684Y-188183D01*
X-69501Y-188107D01*
X-68115Y-187181D01*
X-67975Y-187041D01*
X-67811Y-186931D01*
X-66632Y-185752D01*
X-66522Y-185588D01*
X-66382Y-185448D01*
X-65456Y-184062D01*
X-65427Y-183992D01*
X-65126Y-183879D01*
X-64834D01*
X-64533Y-183992D01*
X-64505Y-184062D01*
X-63578Y-185448D01*
X-63438Y-185588D01*
X-63329Y-185752D01*
X-62150Y-186931D01*
X-61985Y-187041D01*
X-61846Y-187181D01*
X-60459Y-188107D01*
X-60277Y-188183D01*
X-60112Y-188293D01*
X-58572Y-188931D01*
X-58378Y-188969D01*
X-58195Y-189045D01*
X-56560Y-189370D01*
X-56362D01*
X-56168Y-189409D01*
X56129D01*
X56323Y-189370D01*
X56520D01*
X58156Y-189045D01*
X58338Y-188969D01*
X58532Y-188931D01*
X60073Y-188293D01*
X60237Y-188183D01*
X60420Y-188107D01*
X61806Y-187181D01*
X61946Y-187041D01*
X62110Y-186931D01*
X63289Y-185752D01*
X63399Y-185588D01*
X63539Y-185448D01*
X64465Y-184062D01*
X64494Y-183992D01*
X64795Y-183879D01*
X65087Y-183879D01*
X65388Y-183992D01*
X65417Y-184062D01*
X66343Y-185448D01*
X66483Y-185588D01*
X66593Y-185752D01*
X67772Y-186931D01*
X67936Y-187041D01*
X68076Y-187181D01*
X69462Y-188107D01*
X69645Y-188183D01*
X69809Y-188293D01*
X71350Y-188931D01*
X71543Y-188969D01*
X71726Y-189045D01*
X73361Y-189370D01*
X73559D01*
X73753Y-189409D01*
X74587Y-189409D01*
X81279Y-189409D01*
X82113Y-189409D01*
X82307Y-189370D01*
X82505D01*
X84140Y-189045D01*
X84323Y-188969D01*
X84517Y-188931D01*
X86057Y-188293D01*
X86221Y-188183D01*
X86404Y-188107D01*
X87790Y-187181D01*
X87930Y-187041D01*
X88095Y-186931D01*
X89274Y-185752D01*
X89383Y-185588D01*
X89523Y-185448D01*
X90450Y-184062D01*
X90478Y-183992D01*
X90779Y-183879D01*
X91071D01*
X91372Y-183992D01*
X91401Y-184062D01*
X92327Y-185448D01*
X92467Y-185588D01*
X92577Y-185752D01*
X93756Y-186931D01*
X93920Y-187041D01*
X94060Y-187181D01*
X95446Y-188107D01*
X95629Y-188183D01*
X95793Y-188293D01*
X97334Y-188931D01*
X97528Y-188969D01*
X97710Y-189045D01*
X99346Y-189370D01*
X99543D01*
X99737Y-189409D01*
X108098D01*
X108291Y-189370D01*
X108489D01*
X110124Y-189045D01*
X110307Y-188969D01*
X110501Y-188931D01*
X112041Y-188293D01*
X112206Y-188183D01*
X112388Y-188107D01*
X113775Y-187181D01*
X113915Y-187041D01*
X114079Y-186931D01*
X115258Y-185752D01*
X115368Y-185588D01*
X115507Y-185448D01*
X116434Y-184062D01*
X116462Y-183992D01*
X116764Y-183879D01*
X117055Y-183879D01*
X117356Y-183992D01*
X117385Y-184062D01*
X118311Y-185448D01*
X118451Y-185588D01*
X118561Y-185752D01*
X119740Y-186931D01*
X119904Y-187041D01*
X120044Y-187181D01*
X121431Y-188107D01*
X121613Y-188183D01*
X121778Y-188293D01*
X123318Y-188931D01*
X123512Y-188969D01*
X123695Y-189045D01*
X125330Y-189370D01*
X125528D01*
X125721Y-189409D01*
X134082D01*
X134276Y-189370D01*
X134473D01*
X136109Y-189045D01*
X136291Y-188969D01*
X136485Y-188931D01*
X138026Y-188293D01*
X138190Y-188183D01*
X138373Y-188107D01*
X139759Y-187181D01*
X139899Y-187041D01*
X140063Y-186931D01*
X141242Y-185752D01*
X141352Y-185588D01*
X141492Y-185448D01*
X142418Y-184062D01*
X142447Y-183992D01*
X142748Y-183879D01*
X143040Y-183879D01*
X143341Y-183992D01*
X143369Y-184062D01*
X144296Y-185448D01*
X144436Y-185588D01*
X144545Y-185752D01*
X145724Y-186931D01*
X145889Y-187041D01*
X146028Y-187181D01*
X147415Y-188107D01*
X147598Y-188183D01*
X147762Y-188293D01*
X149302Y-188931D01*
X149496Y-188969D01*
X149679Y-189045D01*
X151314Y-189370D01*
X151512D01*
X151706Y-189409D01*
X160066D01*
X160260Y-189370D01*
X160458D01*
X162093Y-189045D01*
X162276Y-188969D01*
X162469Y-188931D01*
X164010Y-188293D01*
X164174Y-188183D01*
X164357Y-188107D01*
X165743Y-187181D01*
X165883Y-187041D01*
X166047Y-186931D01*
X167226Y-185752D01*
X167336Y-185588D01*
X167476Y-185448D01*
X168402Y-184062D01*
X168478Y-183879D01*
X168588Y-183715D01*
X169226Y-182174D01*
X169264Y-181980D01*
X169340Y-181798D01*
X169665Y-180162D01*
Y-179965D01*
X169704Y-179771D01*
Y-178937D01*
Y-166732D01*
Y-165899D01*
X169665Y-165705D01*
Y-165507D01*
X169340Y-163872D01*
X169264Y-163689D01*
X169226Y-163495D01*
X168588Y-161955D01*
X168478Y-161790D01*
X168402Y-161608D01*
X167476Y-160221D01*
X167336Y-160082D01*
X167226Y-159917D01*
X166047Y-158738D01*
X165883Y-158628D01*
X165743Y-158489D01*
X164629Y-157744D01*
X164569Y-157581D01*
Y-156985D01*
X164629Y-156823D01*
X165743Y-156078D01*
X165883Y-155939D01*
X166047Y-155829D01*
X167226Y-154650D01*
X167336Y-154485D01*
X167476Y-154346D01*
X168402Y-152959D01*
X168478Y-152777D01*
X168588Y-152612D01*
X169226Y-151072D01*
X169264Y-150878D01*
X169340Y-150695D01*
X169665Y-149060D01*
Y-148862D01*
X169704Y-148668D01*
Y-147835D01*
Y-135630D01*
Y-134796D01*
X169665Y-134602D01*
Y-134405D01*
X169340Y-132769D01*
X169264Y-132587D01*
X169226Y-132393D01*
X168588Y-130852D01*
X168478Y-130688D01*
X168402Y-130505D01*
X167476Y-129119D01*
X167336Y-128979D01*
X167226Y-128815D01*
X166047Y-127636D01*
X165883Y-127526D01*
X165743Y-127386D01*
X164629Y-126642D01*
X164569Y-126479D01*
Y-125883D01*
X164629Y-125720D01*
X165743Y-124976D01*
X165883Y-124836D01*
X166047Y-124726D01*
X167226Y-123547D01*
X167336Y-123383D01*
X167476Y-123243D01*
X168402Y-121857D01*
X168478Y-121674D01*
X168588Y-121510D01*
X169226Y-119969D01*
X169264Y-119775D01*
X169340Y-119593D01*
X169665Y-117957D01*
Y-117760D01*
X169704Y-117566D01*
Y-116732D01*
Y-104528D01*
Y-103694D01*
X169665Y-103500D01*
Y-103302D01*
X169340Y-101667D01*
X169264Y-101484D01*
X169226Y-101291D01*
X168588Y-99750D01*
X168478Y-99586D01*
X168402Y-99403D01*
X167476Y-98017D01*
X167336Y-97877D01*
X167226Y-97712D01*
X166047Y-96534D01*
X165883Y-96424D01*
X165743Y-96284D01*
X164629Y-95539D01*
X164569Y-95377D01*
X164569Y-94781D01*
X164629Y-94618D01*
X165743Y-93874D01*
X165883Y-93734D01*
X166047Y-93624D01*
X167226Y-92445D01*
X167336Y-92281D01*
X167476Y-92141D01*
X168402Y-90754D01*
X168478Y-90572D01*
X168588Y-90408D01*
X169226Y-88867D01*
X169264Y-88673D01*
X169340Y-88490D01*
X169665Y-86855D01*
Y-86658D01*
X169704Y-86464D01*
Y-85630D01*
X169704Y-73425D01*
X169704Y-73425D01*
X169704Y-72592D01*
X169665Y-72398D01*
Y-72200D01*
X169340Y-70565D01*
X169264Y-70382D01*
X169226Y-70188D01*
X168588Y-68648D01*
X168478Y-68483D01*
X168402Y-68301D01*
X167476Y-66914D01*
X167336Y-66774D01*
X167226Y-66610D01*
X166047Y-65431D01*
X165883Y-65321D01*
X165743Y-65181D01*
X164629Y-64437D01*
X164569Y-64274D01*
Y-63678D01*
X164629Y-63516D01*
X165743Y-62771D01*
X165883Y-62631D01*
X166047Y-62522D01*
X167226Y-61343D01*
X167336Y-61178D01*
X167476Y-61039D01*
X168402Y-59652D01*
X168478Y-59469D01*
X168588Y-59305D01*
X169226Y-57765D01*
X169264Y-57571D01*
X169340Y-57388D01*
X169665Y-55753D01*
Y-55555D01*
X169704Y-55361D01*
Y-54528D01*
X169704Y-42323D01*
Y-41489D01*
X169665Y-41295D01*
Y-41098D01*
X169340Y-39462D01*
X169264Y-39280D01*
X169226Y-39086D01*
X168588Y-37545D01*
X168478Y-37381D01*
X168402Y-37198D01*
X167476Y-35812D01*
X167336Y-35672D01*
X167226Y-35508D01*
X166047Y-34329D01*
X165883Y-34219D01*
X165743Y-34079D01*
X164357Y-33153D01*
X164174Y-33077D01*
X164010Y-32967D01*
X162469Y-32329D01*
X162276Y-32291D01*
X162093Y-32215D01*
X161486Y-32094D01*
Y-31291D01*
X162093Y-31171D01*
X162276Y-31095D01*
X162469Y-31057D01*
X164010Y-30419D01*
X164174Y-30309D01*
X164357Y-30233D01*
X165743Y-29307D01*
X165883Y-29167D01*
X166047Y-29057D01*
X167226Y-27878D01*
X167336Y-27714D01*
X167476Y-27574D01*
X168402Y-26188D01*
X168478Y-26005D01*
X168588Y-25840D01*
X169226Y-24300D01*
X169264Y-24106D01*
X169340Y-23924D01*
X169665Y-22288D01*
Y-22091D01*
X169704Y-21897D01*
Y-21063D01*
X169704Y-8858D01*
X169704Y-8025D01*
X169665Y-7831D01*
Y-7633D01*
X169340Y-5998D01*
X169264Y-5815D01*
X169226Y-5621D01*
X168588Y-4081D01*
X168478Y-3916D01*
X168402Y-3734D01*
X167476Y-2347D01*
X167336Y-2208D01*
X167226Y-2043D01*
X166047Y-864D01*
X165883Y-754D01*
X165743Y-615D01*
X164357Y312D01*
X164174Y387D01*
X164010Y497D01*
X162469Y1135D01*
X162276Y1174D01*
X162093Y1249D01*
X160458Y1575D01*
X160260D01*
X160066Y1613D01*
X159232Y1613D01*
X159232Y1613D01*
X140433Y1613D01*
X139599Y1613D01*
X139406Y1575D01*
X139208D01*
X137573Y1249D01*
X137390Y1174D01*
X137196Y1135D01*
X135655Y497D01*
X135491Y387D01*
X135309Y312D01*
X133922Y-615D01*
X133782Y-754D01*
X133618Y-864D01*
X132439Y-2043D01*
X132329Y-2208D01*
X132189Y-2347D01*
X131263Y-3734D01*
X131234Y-3803D01*
X130933Y-3916D01*
X130641D01*
X130340Y-3803D01*
X130312Y-3734D01*
X129385Y-2347D01*
X129246Y-2208D01*
X129136Y-2043D01*
X127957Y-864D01*
X127792Y-754D01*
X127653Y-615D01*
X126266Y312D01*
X126084Y387D01*
X125919Y497D01*
X124379Y1135D01*
X124185Y1174D01*
X124002Y1249D01*
X122367Y1575D01*
X122169D01*
X121975Y1613D01*
X121142Y1613D01*
X121142Y1613D01*
X102342Y1613D01*
X101509Y1613D01*
X101315Y1575D01*
X101117D01*
X99482Y1249D01*
X99299Y1174D01*
X99105Y1135D01*
X97565Y497D01*
X97401Y387D01*
X97218Y312D01*
X95832Y-615D01*
X95692Y-754D01*
X95527Y-864D01*
X94348Y-2043D01*
X94239Y-2208D01*
X94099Y-2347D01*
X93173Y-3734D01*
X93144Y-3803D01*
X92843Y-3916D01*
X92551D01*
X92250Y-3803D01*
X92221Y-3734D01*
X91295Y-2347D01*
X91155Y-2208D01*
X91045Y-2043D01*
X89866Y-864D01*
X89702Y-754D01*
X89562Y-615D01*
X88176Y312D01*
X87993Y387D01*
X87829Y497D01*
X86288Y1135D01*
X86094Y1174D01*
X85912Y1249D01*
X84276Y1575D01*
X84079D01*
X83885Y1613D01*
X83051Y1613D01*
X83051Y1613D01*
X64252Y1613D01*
X63418Y1613D01*
X63224Y1575D01*
X63027D01*
X61391Y1249D01*
X61209Y1174D01*
X61015Y1135D01*
X59474Y497D01*
X59310Y387D01*
X59127Y312D01*
X57741Y-615D01*
X57601Y-754D01*
X57437Y-864D01*
X56258Y-2043D01*
X56148Y-2208D01*
X56008Y-2347D01*
X55082Y-3734D01*
X55053Y-3803D01*
X54752Y-3916D01*
X54460D01*
X54159Y-3803D01*
X54131Y-3734D01*
X53204Y-2347D01*
X53065Y-2208D01*
X52955Y-2043D01*
X51776Y-864D01*
X51611Y-754D01*
X51472Y-615D01*
X50085Y312D01*
X49902Y387D01*
X49738Y497D01*
X48198Y1135D01*
X48004Y1174D01*
X47821Y1249D01*
X46186Y1575D01*
X45988D01*
X45794Y1613D01*
X44961Y1613D01*
X44961Y1613D01*
X26181Y1613D01*
X25346Y1615D01*
D02*
G37*
G36*
X185765Y-12205D02*
X184314D01*
X182912Y-12580D01*
X181655Y-13306D01*
X180629Y-14332D01*
X179903Y-15589D01*
X179528Y-16991D01*
Y-18442D01*
X179903Y-19844D01*
X180629Y-21101D01*
X181655Y-22127D01*
X182912Y-22853D01*
X184314Y-23228D01*
X185765D01*
X187167Y-22853D01*
X188424Y-22127D01*
X189450Y-21101D01*
X190176Y-19844D01*
X190551Y-18442D01*
Y-16991D01*
X190176Y-15589D01*
X189450Y-14332D01*
X188424Y-13306D01*
X187167Y-12580D01*
X185765Y-12205D01*
D02*
G37*
G36*
X-184314D02*
X-185765D01*
X-187167Y-12580D01*
X-188424Y-13306D01*
X-189450Y-14332D01*
X-190176Y-15589D01*
X-190551Y-16991D01*
Y-18442D01*
X-190176Y-19844D01*
X-189450Y-21101D01*
X-188424Y-22127D01*
X-187167Y-22853D01*
X-185765Y-23228D01*
X-184314D01*
X-182912Y-22853D01*
X-181655Y-22127D01*
X-180629Y-21101D01*
X-179903Y-19844D01*
X-179528Y-18442D01*
Y-16991D01*
X-179903Y-15589D01*
X-180629Y-14332D01*
X-181655Y-13306D01*
X-182912Y-12580D01*
X-184314Y-12205D01*
D02*
G37*
G36*
X11811Y-5266D02*
X-11811D01*
X-12263Y-5454D01*
X-12450Y-5906D01*
Y-13780D01*
Y-25591D01*
X-12263Y-26043D01*
X-11811Y-26230D01*
X11811D01*
X12263Y-26043D01*
X12450Y-25591D01*
Y-13780D01*
Y-5906D01*
X12263Y-5454D01*
X11811Y-5266D01*
D02*
G37*
G36*
X185765Y-155905D02*
X184314D01*
X182912Y-156281D01*
X181655Y-157007D01*
X180629Y-158033D01*
X179903Y-159290D01*
X179528Y-160692D01*
Y-162143D01*
X179903Y-163545D01*
X180629Y-164802D01*
X181655Y-165828D01*
X182912Y-166553D01*
X184314Y-166929D01*
X185765D01*
X187167Y-166553D01*
X188424Y-165828D01*
X189450Y-164802D01*
X190176Y-163545D01*
X190551Y-162143D01*
Y-160692D01*
X190176Y-159290D01*
X189450Y-158033D01*
X188424Y-157007D01*
X187167Y-156281D01*
X185765Y-155905D01*
D02*
G37*
G36*
X-184314D02*
X-185765D01*
X-187167Y-156281D01*
X-188424Y-157007D01*
X-189450Y-158033D01*
X-190176Y-159290D01*
X-190551Y-160692D01*
Y-162143D01*
X-190176Y-163545D01*
X-189450Y-164802D01*
X-188424Y-165828D01*
X-187167Y-166553D01*
X-185765Y-166929D01*
X-184314D01*
X-182912Y-166553D01*
X-181655Y-165828D01*
X-180629Y-164802D01*
X-179903Y-163545D01*
X-179528Y-162143D01*
Y-160692D01*
X-179903Y-159290D01*
X-180629Y-158033D01*
X-181655Y-157007D01*
X-182912Y-156281D01*
X-184314Y-155905D01*
D02*
G37*
%LPD*%
G36*
X130933Y-26005D02*
X131234Y-26118D01*
X131263Y-26188D01*
X132189Y-27574D01*
X132329Y-27714D01*
X132439Y-27878D01*
X133618Y-29057D01*
X133782Y-29167D01*
X133922Y-29307D01*
X135309Y-30233D01*
X135491Y-30309D01*
X135655Y-30419D01*
X137196Y-31057D01*
X137390Y-31095D01*
X137573Y-31171D01*
X139208Y-31496D01*
X139406D01*
X139599Y-31535D01*
X149261D01*
X149339Y-32322D01*
X149302Y-32329D01*
X147762Y-32967D01*
X147598Y-33077D01*
X147415Y-33153D01*
X146028Y-34079D01*
X145889Y-34219D01*
X145724Y-34329D01*
X144545Y-35508D01*
X144436Y-35672D01*
X144296Y-35812D01*
X143369Y-37198D01*
X143341Y-37267D01*
X143040Y-37381D01*
X142748Y-37381D01*
X142447Y-37267D01*
X142418Y-37198D01*
X141492Y-35812D01*
X141352Y-35672D01*
X141242Y-35508D01*
X140063Y-34329D01*
X139899Y-34219D01*
X139759Y-34079D01*
X138373Y-33153D01*
X138190Y-33077D01*
X138026Y-32967D01*
X136485Y-32329D01*
X136291Y-32291D01*
X136109Y-32215D01*
X134473Y-31890D01*
X134276D01*
X134082Y-31851D01*
X125721D01*
X125528Y-31890D01*
X125330D01*
X123695Y-32215D01*
X123512Y-32291D01*
X123318Y-32329D01*
X121778Y-32967D01*
X121613Y-33077D01*
X121431Y-33153D01*
X120044Y-34079D01*
X119904Y-34219D01*
X119740Y-34329D01*
X118561Y-35508D01*
X118451Y-35672D01*
X118311Y-35812D01*
X117385Y-37198D01*
X117357Y-37267D01*
X117055Y-37381D01*
X116764Y-37381D01*
X116462Y-37267D01*
X116434Y-37198D01*
X115507Y-35812D01*
X115368Y-35672D01*
X115258Y-35508D01*
X114079Y-34329D01*
X113915Y-34219D01*
X113775Y-34079D01*
X112388Y-33153D01*
X112206Y-33077D01*
X112041Y-32967D01*
X110501Y-32329D01*
X110465Y-32322D01*
X110542Y-31535D01*
X121975D01*
X122169Y-31496D01*
X122367D01*
X124002Y-31171D01*
X124185Y-31095D01*
X124379Y-31057D01*
X125919Y-30419D01*
X126084Y-30309D01*
X126266Y-30233D01*
X127653Y-29307D01*
X127792Y-29167D01*
X127957Y-29057D01*
X129136Y-27878D01*
X129246Y-27714D01*
X129385Y-27574D01*
X130312Y-26188D01*
X130340Y-26118D01*
X130641Y-26005D01*
X130933Y-26005D01*
D02*
G37*
G36*
X-54500D02*
X-54199Y-26118D01*
X-54170Y-26188D01*
X-53244Y-27574D01*
X-53104Y-27714D01*
X-52994Y-27878D01*
X-51815Y-29057D01*
X-51651Y-29167D01*
X-51511Y-29307D01*
X-50125Y-30233D01*
X-49942Y-30309D01*
X-49778Y-30419D01*
X-48237Y-31057D01*
X-48201Y-31064D01*
X-48278Y-31851D01*
X-55335Y-31851D01*
X-55335Y-31851D01*
X-56168D01*
X-56362Y-31890D01*
X-56560D01*
X-58195Y-32215D01*
X-58378Y-32291D01*
X-58572Y-32329D01*
X-60112Y-32967D01*
X-60277Y-33077D01*
X-60459Y-33153D01*
X-61846Y-34079D01*
X-61985Y-34219D01*
X-62150Y-34329D01*
X-63329Y-35508D01*
X-63438Y-35672D01*
X-63578Y-35812D01*
X-64505Y-37198D01*
X-64533Y-37267D01*
X-64834Y-37381D01*
X-65126Y-37381D01*
X-65427Y-37268D01*
X-65456Y-37198D01*
X-66382Y-35812D01*
X-66522Y-35672D01*
X-66632Y-35508D01*
X-67811Y-34329D01*
X-67975Y-34219D01*
X-68115Y-34079D01*
X-69501Y-33153D01*
X-69684Y-33077D01*
X-69848Y-32967D01*
X-71389Y-32329D01*
X-71425Y-32322D01*
X-71348Y-31535D01*
X-63458D01*
X-63264Y-31496D01*
X-63066D01*
X-61431Y-31171D01*
X-61248Y-31095D01*
X-61054Y-31057D01*
X-59514Y-30419D01*
X-59349Y-30309D01*
X-59167Y-30233D01*
X-57780Y-29307D01*
X-57641Y-29167D01*
X-57476Y-29057D01*
X-56297Y-27878D01*
X-56187Y-27714D01*
X-56048Y-27574D01*
X-55121Y-26188D01*
X-55093Y-26118D01*
X-54791Y-26005D01*
X-54500Y-26005D01*
D02*
G37*
G36*
X-130681D02*
X-130380Y-26118D01*
X-130351Y-26188D01*
X-129425Y-27574D01*
X-129285Y-27714D01*
X-129175Y-27878D01*
X-127996Y-29057D01*
X-127832Y-29167D01*
X-127692Y-29307D01*
X-126306Y-30233D01*
X-126123Y-30309D01*
X-125959Y-30419D01*
X-124418Y-31057D01*
X-124224Y-31095D01*
X-124042Y-31171D01*
X-122406Y-31496D01*
X-122209D01*
X-122015Y-31535D01*
X-110582D01*
X-110504Y-32322D01*
X-110540Y-32329D01*
X-112081Y-32967D01*
X-112245Y-33077D01*
X-112428Y-33153D01*
X-113814Y-34079D01*
X-113954Y-34219D01*
X-114118Y-34329D01*
X-115297Y-35508D01*
X-115407Y-35672D01*
X-115547Y-35812D01*
X-116473Y-37198D01*
X-116502Y-37267D01*
X-116803Y-37381D01*
X-117095Y-37381D01*
X-117396Y-37267D01*
X-117424Y-37198D01*
X-118351Y-35812D01*
X-118491Y-35672D01*
X-118600Y-35508D01*
X-119779Y-34329D01*
X-119944Y-34219D01*
X-120084Y-34079D01*
X-121470Y-33153D01*
X-121653Y-33077D01*
X-121817Y-32967D01*
X-123357Y-32329D01*
X-123551Y-32291D01*
X-123734Y-32215D01*
X-125369Y-31890D01*
X-125567D01*
X-125761Y-31851D01*
X-134121D01*
X-134315Y-31890D01*
X-134513D01*
X-136148Y-32215D01*
X-136331Y-32291D01*
X-136524Y-32329D01*
X-138065Y-32967D01*
X-138229Y-33077D01*
X-138412Y-33153D01*
X-139798Y-34079D01*
X-139938Y-34219D01*
X-140103Y-34329D01*
X-141281Y-35508D01*
X-141391Y-35672D01*
X-141531Y-35812D01*
X-142457Y-37198D01*
X-142486Y-37267D01*
X-142787Y-37381D01*
X-143079Y-37381D01*
X-143380Y-37267D01*
X-143409Y-37198D01*
X-144335Y-35812D01*
X-144475Y-35672D01*
X-144585Y-35508D01*
X-145764Y-34329D01*
X-145928Y-34219D01*
X-146068Y-34079D01*
X-147454Y-33153D01*
X-147637Y-33077D01*
X-147801Y-32967D01*
X-149342Y-32329D01*
X-149378Y-32322D01*
X-149300Y-31535D01*
X-139639D01*
X-139445Y-31496D01*
X-139247D01*
X-137612Y-31171D01*
X-137429Y-31095D01*
X-137235Y-31057D01*
X-135695Y-30419D01*
X-135530Y-30309D01*
X-135348Y-30233D01*
X-133961Y-29307D01*
X-133822Y-29167D01*
X-133657Y-29057D01*
X-132478Y-27878D01*
X-132369Y-27714D01*
X-132229Y-27574D01*
X-131302Y-26188D01*
X-131274Y-26118D01*
X-130973Y-26005D01*
X-130681Y-26005D01*
D02*
G37*
G36*
X92843D02*
X93144Y-26118D01*
X93173Y-26188D01*
X94099Y-27574D01*
X94239Y-27714D01*
X94348Y-27878D01*
X95527Y-29057D01*
X95692Y-29167D01*
X95832Y-29307D01*
X97218Y-30233D01*
X97401Y-30309D01*
X97565Y-30419D01*
X99105Y-31057D01*
X99299Y-31095D01*
X99331Y-31108D01*
X99346Y-31890D01*
X97710Y-32215D01*
X97528Y-32291D01*
X97334Y-32329D01*
X95793Y-32967D01*
X95629Y-33077D01*
X95446Y-33153D01*
X94060Y-34079D01*
X93920Y-34219D01*
X93756Y-34329D01*
X92577Y-35508D01*
X92467Y-35672D01*
X92327Y-35812D01*
X91401Y-37198D01*
X91372Y-37267D01*
X91071Y-37381D01*
X90779Y-37381D01*
X90478Y-37268D01*
X90450Y-37198D01*
X89523Y-35812D01*
X89383Y-35672D01*
X89274Y-35508D01*
X88095Y-34329D01*
X87930Y-34219D01*
X87790Y-34079D01*
X86404Y-33153D01*
X86221Y-33077D01*
X86057Y-32967D01*
X84517Y-32329D01*
X84323Y-32291D01*
X84291Y-32278D01*
X84276Y-31496D01*
X85912Y-31171D01*
X86094Y-31095D01*
X86288Y-31057D01*
X87829Y-30419D01*
X87993Y-30309D01*
X88176Y-30233D01*
X89562Y-29307D01*
X89702Y-29167D01*
X89866Y-29057D01*
X91045Y-27878D01*
X91155Y-27714D01*
X91295Y-27574D01*
X92221Y-26188D01*
X92250Y-26118D01*
X92551Y-26005D01*
X92843Y-26005D01*
D02*
G37*
G36*
X-92590D02*
X-92289Y-26118D01*
X-92261Y-26188D01*
X-91334Y-27574D01*
X-91194Y-27714D01*
X-91085Y-27878D01*
X-89906Y-29057D01*
X-89741Y-29167D01*
X-89601Y-29307D01*
X-88215Y-30233D01*
X-88032Y-30309D01*
X-87868Y-30419D01*
X-86328Y-31057D01*
X-86134Y-31095D01*
X-85951Y-31171D01*
X-84316Y-31496D01*
X-84330Y-32278D01*
X-84362Y-32291D01*
X-84556Y-32329D01*
X-86097Y-32967D01*
X-86261Y-33077D01*
X-86444Y-33153D01*
X-87830Y-34079D01*
X-87970Y-34219D01*
X-88134Y-34329D01*
X-89313Y-35508D01*
X-89423Y-35672D01*
X-89563Y-35812D01*
X-90489Y-37198D01*
X-90518Y-37267D01*
X-90819Y-37381D01*
X-91110Y-37381D01*
X-91412Y-37267D01*
X-91440Y-37198D01*
X-92367Y-35812D01*
X-92506Y-35672D01*
X-92616Y-35508D01*
X-93795Y-34329D01*
X-93960Y-34219D01*
X-94099Y-34079D01*
X-95486Y-33153D01*
X-95668Y-33077D01*
X-95833Y-32967D01*
X-97373Y-32329D01*
X-97567Y-32291D01*
X-97750Y-32215D01*
X-99385Y-31890D01*
X-99371Y-31108D01*
X-99339Y-31095D01*
X-99145Y-31057D01*
X-97604Y-30419D01*
X-97440Y-30309D01*
X-97257Y-30233D01*
X-95871Y-29307D01*
X-95731Y-29167D01*
X-95567Y-29057D01*
X-94388Y-27878D01*
X-94278Y-27714D01*
X-94138Y-27574D01*
X-93212Y-26188D01*
X-93183Y-26118D01*
X-92882Y-26005D01*
X-92590Y-26005D01*
D02*
G37*
G36*
X-32551Y-32322D02*
X-32588Y-32329D01*
X-34128Y-32967D01*
X-34292Y-33077D01*
X-34475Y-33153D01*
X-35861Y-34079D01*
X-36001Y-34219D01*
X-36165Y-34329D01*
X-37345Y-35508D01*
X-37454Y-35672D01*
X-37594Y-35812D01*
X-38520Y-37198D01*
X-38549Y-37267D01*
X-38850Y-37381D01*
X-39142D01*
X-39443Y-37267D01*
X-39472Y-37198D01*
X-40398Y-35812D01*
X-40538Y-35672D01*
X-40648Y-35508D01*
X-41827Y-34329D01*
X-41991Y-34219D01*
X-42131Y-34079D01*
X-43517Y-33153D01*
X-43700Y-33077D01*
X-43864Y-32967D01*
X-45405Y-32329D01*
X-45441Y-32322D01*
X-45364Y-31535D01*
X-32629D01*
X-32551Y-32322D01*
D02*
G37*
G36*
X45031Y-31615D02*
X44746Y-32586D01*
X43825Y-32967D01*
X43660Y-33077D01*
X43478Y-33153D01*
X42091Y-34079D01*
X41952Y-34219D01*
X41787Y-34329D01*
X40608Y-35508D01*
X40499Y-35672D01*
X40359Y-35812D01*
X39432Y-37198D01*
X39404Y-37267D01*
X39103Y-37381D01*
X38811Y-37381D01*
X38510Y-37267D01*
X38481Y-37198D01*
X37555Y-35812D01*
X37415Y-35672D01*
X37305Y-35508D01*
X36126Y-34329D01*
X35962Y-34219D01*
X35822Y-34079D01*
X34436Y-33153D01*
X34253Y-33077D01*
X34089Y-32967D01*
X32548Y-32329D01*
X32512Y-32322D01*
X32589Y-31535D01*
X44976Y-31535D01*
X45031Y-31615D01*
D02*
G37*
G36*
X54754Y-26003D02*
X55054Y-26119D01*
X55082Y-26188D01*
X56008Y-27574D01*
X56148Y-27714D01*
X56258Y-27878D01*
X57437Y-29057D01*
X57601Y-29167D01*
X57741Y-29307D01*
X59127Y-30233D01*
X59310Y-30309D01*
X59474Y-30419D01*
X61015Y-31057D01*
X61209Y-31095D01*
X61391Y-31171D01*
X63027Y-31496D01*
X63224D01*
X63418Y-31535D01*
X71308D01*
X71386Y-32322D01*
X71350Y-32329D01*
X69809Y-32967D01*
X69645Y-33077D01*
X69462Y-33153D01*
X68076Y-34079D01*
X67936Y-34219D01*
X67772Y-34329D01*
X66593Y-35508D01*
X66483Y-35672D01*
X66343Y-35812D01*
X65417Y-37198D01*
X65388Y-37268D01*
X65087Y-37381D01*
X64795Y-37381D01*
X64494Y-37268D01*
X64465Y-37198D01*
X63539Y-35812D01*
X63399Y-35672D01*
X63289Y-35508D01*
X62110Y-34329D01*
X61946Y-34219D01*
X61806Y-34079D01*
X60420Y-33153D01*
X60237Y-33077D01*
X60073Y-32967D01*
X58532Y-32329D01*
X58338Y-32291D01*
X58156Y-32215D01*
X56520Y-31890D01*
X56323D01*
X56129Y-31851D01*
X55295Y-31851D01*
X55295Y-31851D01*
X48240Y-31851D01*
X48231Y-31821D01*
X48167Y-31061D01*
X48212Y-31052D01*
X49750Y-30412D01*
X49914Y-30302D01*
X50096Y-30227D01*
X51480Y-29300D01*
X51620Y-29160D01*
X51784Y-29050D01*
X52960Y-27872D01*
X53070Y-27707D01*
X53209Y-27567D01*
X54134Y-26182D01*
X54160Y-26119D01*
X54471Y-26001D01*
X54754Y-26003D01*
D02*
G37*
G36*
X117055Y-59469D02*
X117356Y-59583D01*
X117385Y-59652D01*
X118311Y-61039D01*
X118451Y-61178D01*
X118561Y-61343D01*
X119740Y-62522D01*
X119904Y-62631D01*
X120044Y-62771D01*
X121158Y-63516D01*
X121218Y-63678D01*
Y-64274D01*
X121158Y-64437D01*
X120044Y-65181D01*
X119904Y-65321D01*
X119740Y-65431D01*
X118561Y-66610D01*
X118451Y-66774D01*
X118311Y-66914D01*
X117385Y-68301D01*
X117356Y-68370D01*
X117055Y-68483D01*
X116764D01*
X116462Y-68370D01*
X116434Y-68301D01*
X115507Y-66914D01*
X115368Y-66774D01*
X115258Y-66610D01*
X114079Y-65431D01*
X113915Y-65321D01*
X113775Y-65181D01*
X112661Y-64437D01*
X112601Y-64274D01*
Y-63678D01*
X112661Y-63516D01*
X113775Y-62771D01*
X113915Y-62631D01*
X114079Y-62522D01*
X115258Y-61343D01*
X115368Y-61178D01*
X115507Y-61039D01*
X116434Y-59652D01*
X116462Y-59583D01*
X116764Y-59469D01*
X117055D01*
D02*
G37*
G36*
X-38549Y-59583D02*
X-38520Y-59652D01*
X-37594Y-61039D01*
X-37454Y-61178D01*
X-37345Y-61343D01*
X-36165Y-62522D01*
X-36001Y-62631D01*
X-35861Y-62771D01*
X-34747Y-63516D01*
X-34687Y-63678D01*
Y-64274D01*
X-34747Y-64437D01*
X-35861Y-65181D01*
X-36001Y-65321D01*
X-36165Y-65431D01*
X-37345Y-66610D01*
X-37454Y-66774D01*
X-37594Y-66914D01*
X-38520Y-68301D01*
X-38549Y-68370D01*
X-38850Y-68483D01*
X-39142D01*
X-39443Y-68370D01*
X-39472Y-68301D01*
X-40398Y-66914D01*
X-40538Y-66774D01*
X-40648Y-66610D01*
X-41827Y-65431D01*
X-41991Y-65321D01*
X-42131Y-65181D01*
X-43245Y-64437D01*
X-43305Y-64274D01*
Y-63678D01*
X-43245Y-63516D01*
X-42131Y-62771D01*
X-41991Y-62631D01*
X-41827Y-62522D01*
X-40648Y-61343D01*
X-40538Y-61178D01*
X-40398Y-61039D01*
X-39472Y-59652D01*
X-39443Y-59583D01*
X-39142Y-59469D01*
X-38850Y-59469D01*
X-38549Y-59583D01*
D02*
G37*
G36*
X-142787Y-59469D02*
X-142486Y-59583D01*
X-142457Y-59652D01*
X-141531Y-61039D01*
X-141391Y-61178D01*
X-141281Y-61343D01*
X-140103Y-62522D01*
X-139938Y-62631D01*
X-139798Y-62771D01*
X-138684Y-63516D01*
X-138624Y-63678D01*
Y-64274D01*
X-138684Y-64437D01*
X-139798Y-65181D01*
X-139938Y-65321D01*
X-140103Y-65431D01*
X-141281Y-66610D01*
X-141391Y-66774D01*
X-141531Y-66914D01*
X-142457Y-68301D01*
X-142486Y-68370D01*
X-142787Y-68483D01*
X-143079Y-68483D01*
X-143380Y-68370D01*
X-143409Y-68301D01*
X-144335Y-66914D01*
X-144475Y-66774D01*
X-144585Y-66610D01*
X-145764Y-65431D01*
X-145928Y-65321D01*
X-146068Y-65181D01*
X-147182Y-64437D01*
X-147242Y-64274D01*
Y-63678D01*
X-147182Y-63516D01*
X-146068Y-62771D01*
X-145928Y-62631D01*
X-145764Y-62522D01*
X-144585Y-61343D01*
X-144475Y-61178D01*
X-144335Y-61039D01*
X-143409Y-59652D01*
X-143380Y-59583D01*
X-143079Y-59469D01*
X-142787D01*
D02*
G37*
G36*
X13419Y-59583D02*
X13448Y-59652D01*
X14374Y-61039D01*
X14514Y-61178D01*
X14624Y-61343D01*
X15803Y-62522D01*
X15967Y-62631D01*
X16107Y-62771D01*
X17221Y-63516D01*
X17281Y-63678D01*
Y-64274D01*
X17221Y-64437D01*
X16107Y-65181D01*
X15967Y-65321D01*
X15803Y-65431D01*
X14624Y-66610D01*
X14514Y-66774D01*
X14374Y-66914D01*
X13448Y-68301D01*
X13419Y-68370D01*
X13118Y-68483D01*
X12826D01*
X12525Y-68370D01*
X12497Y-68301D01*
X11570Y-66914D01*
X11431Y-66774D01*
X11321Y-66610D01*
X10142Y-65431D01*
X9977Y-65321D01*
X9838Y-65181D01*
X8724Y-64437D01*
X8664Y-64274D01*
X8664Y-63678D01*
X8724Y-63516D01*
X9838Y-62771D01*
X9978Y-62631D01*
X10142Y-62522D01*
X11321Y-61343D01*
X11431Y-61178D01*
X11570Y-61039D01*
X12497Y-59652D01*
X12525Y-59583D01*
X12826Y-59469D01*
X13118Y-59469D01*
X13419Y-59583D01*
D02*
G37*
G36*
X65087Y-59469D02*
X65388Y-59583D01*
X65417Y-59652D01*
X66343Y-61039D01*
X66483Y-61178D01*
X66593Y-61343D01*
X67772Y-62522D01*
X67936Y-62631D01*
X68076Y-62771D01*
X69190Y-63516D01*
X69250Y-63678D01*
X69250Y-64274D01*
X69190Y-64437D01*
X68076Y-65181D01*
X67936Y-65321D01*
X67772Y-65431D01*
X66593Y-66610D01*
X66483Y-66774D01*
X66343Y-66914D01*
X65417Y-68301D01*
X65388Y-68370D01*
X65087Y-68483D01*
X64795Y-68483D01*
X64494Y-68370D01*
X64465Y-68301D01*
X63539Y-66914D01*
X63399Y-66774D01*
X63289Y-66610D01*
X62110Y-65431D01*
X61946Y-65321D01*
X61806Y-65181D01*
X60692Y-64437D01*
X60632Y-64274D01*
Y-63678D01*
X60692Y-63516D01*
X61806Y-62771D01*
X61946Y-62631D01*
X62110Y-62522D01*
X63289Y-61343D01*
X63399Y-61178D01*
X63539Y-61039D01*
X64465Y-59652D01*
X64494Y-59583D01*
X64795Y-59469D01*
X65087D01*
D02*
G37*
G36*
X-64834Y-59469D02*
X-64533Y-59583D01*
X-64505Y-59652D01*
X-63578Y-61039D01*
X-63438Y-61178D01*
X-63329Y-61343D01*
X-62150Y-62522D01*
X-61985Y-62631D01*
X-61846Y-62771D01*
X-60731Y-63516D01*
X-60672Y-63678D01*
Y-64274D01*
X-60731Y-64437D01*
X-61846Y-65181D01*
X-61985Y-65321D01*
X-62150Y-65431D01*
X-63329Y-66610D01*
X-63438Y-66774D01*
X-63578Y-66914D01*
X-64505Y-68301D01*
X-64533Y-68370D01*
X-64834Y-68483D01*
X-65126Y-68483D01*
X-65427Y-68370D01*
X-65456Y-68301D01*
X-66382Y-66914D01*
X-66522Y-66774D01*
X-66632Y-66610D01*
X-67811Y-65431D01*
X-67975Y-65321D01*
X-68115Y-65181D01*
X-69229Y-64437D01*
X-69289Y-64274D01*
Y-63678D01*
X-69229Y-63516D01*
X-68115Y-62771D01*
X-67975Y-62631D01*
X-67811Y-62522D01*
X-66632Y-61343D01*
X-66522Y-61178D01*
X-66382Y-61039D01*
X-65456Y-59652D01*
X-65427Y-59583D01*
X-65126Y-59469D01*
X-64834Y-59469D01*
D02*
G37*
G36*
X-90819D02*
X-90518Y-59583D01*
X-90489Y-59652D01*
X-89563Y-61039D01*
X-89423Y-61178D01*
X-89313Y-61343D01*
X-88134Y-62522D01*
X-87970Y-62631D01*
X-87830Y-62771D01*
X-86716Y-63516D01*
X-86656Y-63678D01*
Y-64274D01*
X-86716Y-64437D01*
X-87830Y-65181D01*
X-87970Y-65321D01*
X-88134Y-65431D01*
X-89313Y-66610D01*
X-89423Y-66774D01*
X-89563Y-66914D01*
X-90489Y-68301D01*
X-90518Y-68370D01*
X-90819Y-68483D01*
X-91110Y-68483D01*
X-91412Y-68370D01*
X-91440Y-68301D01*
X-92367Y-66914D01*
X-92506Y-66774D01*
X-92616Y-66610D01*
X-93795Y-65431D01*
X-93960Y-65321D01*
X-94099Y-65181D01*
X-95214Y-64437D01*
X-95273Y-64274D01*
X-95273Y-63678D01*
X-95214Y-63516D01*
X-94099Y-62771D01*
X-93960Y-62631D01*
X-93795Y-62522D01*
X-92616Y-61343D01*
X-92506Y-61178D01*
X-92367Y-61039D01*
X-91440Y-59652D01*
X-91412Y-59583D01*
X-91110Y-59469D01*
X-90819D01*
D02*
G37*
G36*
X143040D02*
X143341Y-59583D01*
X143369Y-59652D01*
X144296Y-61039D01*
X144436Y-61178D01*
X144545Y-61343D01*
X145724Y-62522D01*
X145889Y-62631D01*
X146028Y-62771D01*
X147143Y-63516D01*
X147203Y-63678D01*
Y-64274D01*
X147143Y-64437D01*
X146028Y-65181D01*
X145889Y-65321D01*
X145724Y-65431D01*
X144545Y-66610D01*
X144436Y-66774D01*
X144296Y-66914D01*
X143369Y-68301D01*
X143341Y-68370D01*
X143040Y-68483D01*
X142748Y-68483D01*
X142447Y-68370D01*
X142418Y-68301D01*
X141492Y-66914D01*
X141352Y-66774D01*
X141242Y-66610D01*
X140063Y-65431D01*
X139899Y-65321D01*
X139759Y-65181D01*
X138645Y-64437D01*
X138585Y-64274D01*
X138585Y-63678D01*
X138645Y-63516D01*
X139759Y-62771D01*
X139899Y-62631D01*
X140063Y-62522D01*
X141242Y-61343D01*
X141352Y-61178D01*
X141492Y-61039D01*
X142418Y-59652D01*
X142447Y-59583D01*
X142748Y-59469D01*
X143040D01*
D02*
G37*
G36*
X91071Y-59469D02*
X91372Y-59583D01*
X91401Y-59652D01*
X92327Y-61039D01*
X92467Y-61178D01*
X92577Y-61343D01*
X93756Y-62522D01*
X93920Y-62631D01*
X94060Y-62771D01*
X95174Y-63516D01*
X95234Y-63678D01*
Y-64274D01*
X95174Y-64437D01*
X94060Y-65181D01*
X93920Y-65321D01*
X93756Y-65431D01*
X92577Y-66610D01*
X92467Y-66774D01*
X92327Y-66914D01*
X91401Y-68301D01*
X91372Y-68370D01*
X91071Y-68483D01*
X90779Y-68483D01*
X90478Y-68370D01*
X90450Y-68301D01*
X89523Y-66914D01*
X89383Y-66774D01*
X89274Y-66610D01*
X88095Y-65431D01*
X87930Y-65321D01*
X87790Y-65181D01*
X86676Y-64437D01*
X86616Y-64274D01*
X86616Y-63678D01*
X86676Y-63516D01*
X87790Y-62771D01*
X87930Y-62631D01*
X88095Y-62522D01*
X89274Y-61343D01*
X89383Y-61178D01*
X89523Y-61039D01*
X90450Y-59652D01*
X90478Y-59583D01*
X90779Y-59469D01*
X91071Y-59469D01*
D02*
G37*
G36*
X-116803Y-59469D02*
X-116502Y-59583D01*
X-116473Y-59652D01*
X-115547Y-61039D01*
X-115407Y-61178D01*
X-115297Y-61343D01*
X-114118Y-62522D01*
X-113954Y-62631D01*
X-113814Y-62771D01*
X-112700Y-63516D01*
X-112640Y-63678D01*
X-112640Y-64274D01*
X-112700Y-64437D01*
X-113814Y-65181D01*
X-113954Y-65321D01*
X-114118Y-65431D01*
X-115297Y-66610D01*
X-115407Y-66774D01*
X-115547Y-66914D01*
X-116473Y-68301D01*
X-116502Y-68370D01*
X-116803Y-68483D01*
X-117095Y-68483D01*
X-117396Y-68370D01*
X-117424Y-68301D01*
X-118351Y-66914D01*
X-118491Y-66774D01*
X-118600Y-66610D01*
X-119779Y-65431D01*
X-119944Y-65321D01*
X-120084Y-65181D01*
X-121198Y-64437D01*
X-121258Y-64274D01*
X-121258Y-63678D01*
X-121198Y-63516D01*
X-120084Y-62771D01*
X-119944Y-62631D01*
X-119779Y-62522D01*
X-118600Y-61343D01*
X-118491Y-61178D01*
X-118351Y-61039D01*
X-117424Y-59652D01*
X-117396Y-59583D01*
X-117095Y-59469D01*
X-116803D01*
D02*
G37*
G36*
X-12565Y-59583D02*
X-12536Y-59652D01*
X-11610Y-61039D01*
X-11470Y-61178D01*
X-11360Y-61343D01*
X-10181Y-62522D01*
X-10017Y-62631D01*
X-9877Y-62771D01*
X-8763Y-63516D01*
X-8703Y-63678D01*
Y-64274D01*
X-8763Y-64437D01*
X-9877Y-65181D01*
X-10017Y-65321D01*
X-10181Y-65431D01*
X-11360Y-66610D01*
X-11470Y-66774D01*
X-11610Y-66914D01*
X-12536Y-68301D01*
X-12565Y-68370D01*
X-12866Y-68483D01*
X-13158Y-68483D01*
X-13459Y-68370D01*
X-13487Y-68301D01*
X-14414Y-66914D01*
X-14554Y-66774D01*
X-14663Y-66610D01*
X-15842Y-65431D01*
X-16007Y-65321D01*
X-16147Y-65181D01*
X-17261Y-64437D01*
X-17321Y-64274D01*
Y-63678D01*
X-17261Y-63516D01*
X-16147Y-62771D01*
X-16007Y-62631D01*
X-15842Y-62522D01*
X-14663Y-61343D01*
X-14554Y-61178D01*
X-14414Y-61039D01*
X-13487Y-59652D01*
X-13459Y-59583D01*
X-13158Y-59469D01*
X-12866Y-59469D01*
X-12565Y-59583D01*
D02*
G37*
G36*
X39103Y-59469D02*
X39404Y-59583D01*
X39432Y-59652D01*
X40359Y-61039D01*
X40499Y-61178D01*
X40608Y-61343D01*
X41787Y-62522D01*
X41952Y-62631D01*
X42091Y-62771D01*
X43206Y-63516D01*
X43266Y-63678D01*
Y-64274D01*
X43206Y-64437D01*
X42091Y-65181D01*
X41952Y-65321D01*
X41787Y-65431D01*
X40608Y-66610D01*
X40499Y-66774D01*
X40359Y-66914D01*
X39432Y-68301D01*
X39404Y-68370D01*
X39103Y-68483D01*
X38811Y-68483D01*
X38510Y-68370D01*
X38481Y-68301D01*
X37555Y-66914D01*
X37415Y-66774D01*
X37305Y-66610D01*
X36126Y-65431D01*
X35962Y-65321D01*
X35822Y-65181D01*
X34708Y-64437D01*
X34648Y-64274D01*
Y-63678D01*
X34708Y-63516D01*
X35822Y-62771D01*
X35962Y-62631D01*
X36126Y-62522D01*
X37305Y-61343D01*
X37415Y-61178D01*
X37555Y-61039D01*
X38481Y-59652D01*
X38510Y-59583D01*
X38811Y-59469D01*
X39103D01*
D02*
G37*
G36*
X-90819Y-90572D02*
X-90518Y-90685D01*
X-90489Y-90754D01*
X-89563Y-92141D01*
X-89423Y-92281D01*
X-89313Y-92445D01*
X-88134Y-93624D01*
X-87970Y-93734D01*
X-87830Y-93874D01*
X-86716Y-94618D01*
X-86656Y-94781D01*
X-86656Y-95377D01*
X-86716Y-95539D01*
X-87830Y-96284D01*
X-87970Y-96424D01*
X-88134Y-96534D01*
X-89313Y-97712D01*
X-89423Y-97877D01*
X-89563Y-98017D01*
X-90489Y-99403D01*
X-90518Y-99472D01*
X-90819Y-99586D01*
X-91110D01*
X-91412Y-99472D01*
X-91440Y-99403D01*
X-92367Y-98017D01*
X-92506Y-97877D01*
X-92616Y-97712D01*
X-93795Y-96534D01*
X-93960Y-96424D01*
X-94099Y-96284D01*
X-95213Y-95539D01*
X-95273Y-95377D01*
Y-94781D01*
X-95213Y-94618D01*
X-94099Y-93874D01*
X-93959Y-93734D01*
X-93795Y-93624D01*
X-92616Y-92445D01*
X-92506Y-92281D01*
X-92367Y-92141D01*
X-91440Y-90754D01*
X-91412Y-90685D01*
X-91110Y-90572D01*
X-90819D01*
D02*
G37*
G36*
X91071D02*
X91372Y-90685D01*
X91401Y-90754D01*
X92327Y-92141D01*
X92467Y-92281D01*
X92577Y-92445D01*
X93756Y-93624D01*
X93920Y-93734D01*
X94060Y-93874D01*
X95174Y-94618D01*
X95234Y-94781D01*
Y-95377D01*
X95174Y-95539D01*
X94060Y-96284D01*
X93920Y-96424D01*
X93756Y-96534D01*
X92577Y-97712D01*
X92467Y-97877D01*
X92327Y-98017D01*
X91401Y-99403D01*
X91372Y-99472D01*
X91071Y-99586D01*
X90779Y-99586D01*
X90478Y-99472D01*
X90450Y-99403D01*
X89523Y-98017D01*
X89383Y-97877D01*
X89274Y-97712D01*
X88095Y-96534D01*
X87930Y-96424D01*
X87790Y-96284D01*
X86676Y-95539D01*
X86616Y-95377D01*
Y-94781D01*
X86676Y-94618D01*
X87790Y-93874D01*
X87930Y-93734D01*
X88095Y-93624D01*
X89274Y-92445D01*
X89383Y-92281D01*
X89523Y-92141D01*
X90450Y-90754D01*
X90478Y-90685D01*
X90779Y-90572D01*
X91071Y-90572D01*
D02*
G37*
G36*
X-64834D02*
X-64533Y-90685D01*
X-64505Y-90754D01*
X-63578Y-92141D01*
X-63438Y-92281D01*
X-63329Y-92445D01*
X-62150Y-93624D01*
X-61985Y-93734D01*
X-61846Y-93874D01*
X-60731Y-94618D01*
X-60672Y-94781D01*
Y-95377D01*
X-60731Y-95539D01*
X-61846Y-96284D01*
X-61985Y-96424D01*
X-62150Y-96534D01*
X-63329Y-97712D01*
X-63438Y-97877D01*
X-63578Y-98017D01*
X-64505Y-99403D01*
X-64533Y-99472D01*
X-64834Y-99586D01*
X-65126Y-99586D01*
X-65427Y-99472D01*
X-65456Y-99403D01*
X-66382Y-98017D01*
X-66522Y-97877D01*
X-66632Y-97712D01*
X-67811Y-96534D01*
X-67975Y-96424D01*
X-68115Y-96284D01*
X-69229Y-95539D01*
X-69289Y-95377D01*
Y-94781D01*
X-69229Y-94618D01*
X-68115Y-93874D01*
X-67975Y-93734D01*
X-67811Y-93624D01*
X-66632Y-92445D01*
X-66522Y-92281D01*
X-66382Y-92141D01*
X-65456Y-90754D01*
X-65427Y-90685D01*
X-65126Y-90572D01*
X-64834Y-90572D01*
D02*
G37*
G36*
X143040D02*
X143341Y-90685D01*
X143369Y-90754D01*
X144296Y-92141D01*
X144436Y-92281D01*
X144545Y-92445D01*
X145724Y-93624D01*
X145889Y-93734D01*
X146028Y-93874D01*
X147143Y-94618D01*
X147203Y-94781D01*
Y-95377D01*
X147143Y-95539D01*
X146028Y-96284D01*
X145889Y-96424D01*
X145724Y-96534D01*
X144545Y-97712D01*
X144436Y-97877D01*
X144296Y-98017D01*
X143369Y-99403D01*
X143341Y-99472D01*
X143040Y-99586D01*
X142748Y-99586D01*
X142447Y-99472D01*
X142418Y-99403D01*
X141492Y-98017D01*
X141352Y-97877D01*
X141242Y-97712D01*
X140063Y-96534D01*
X139899Y-96424D01*
X139759Y-96284D01*
X138645Y-95539D01*
X138585Y-95377D01*
X138585Y-94781D01*
X138645Y-94618D01*
X139759Y-93874D01*
X139899Y-93734D01*
X140063Y-93624D01*
X141242Y-92445D01*
X141352Y-92281D01*
X141492Y-92141D01*
X142418Y-90754D01*
X142447Y-90685D01*
X142748Y-90572D01*
X143040D01*
D02*
G37*
G36*
X117055D02*
X117356Y-90685D01*
X117385Y-90754D01*
X118311Y-92141D01*
X118451Y-92281D01*
X118561Y-92445D01*
X119740Y-93624D01*
X119904Y-93734D01*
X120044Y-93874D01*
X121158Y-94618D01*
X121218Y-94781D01*
Y-95377D01*
X121158Y-95539D01*
X120044Y-96284D01*
X119904Y-96424D01*
X119740Y-96534D01*
X118561Y-97712D01*
X118451Y-97877D01*
X118311Y-98017D01*
X117385Y-99403D01*
X117357Y-99472D01*
X117055Y-99586D01*
X116764Y-99586D01*
X116462Y-99472D01*
X116434Y-99403D01*
X115507Y-98017D01*
X115368Y-97877D01*
X115258Y-97712D01*
X114079Y-96534D01*
X113915Y-96424D01*
X113775Y-96284D01*
X112661Y-95539D01*
X112601Y-95377D01*
Y-94781D01*
X112661Y-94618D01*
X113775Y-93874D01*
X113915Y-93734D01*
X114079Y-93624D01*
X115258Y-92445D01*
X115368Y-92281D01*
X115507Y-92141D01*
X116434Y-90754D01*
X116462Y-90685D01*
X116764Y-90572D01*
X117055D01*
D02*
G37*
G36*
X13419Y-90685D02*
X13448Y-90754D01*
X14374Y-92141D01*
X14514Y-92281D01*
X14624Y-92445D01*
X15803Y-93624D01*
X15967Y-93734D01*
X16107Y-93874D01*
X17221Y-94618D01*
X17281Y-94781D01*
Y-95377D01*
X17221Y-95539D01*
X16107Y-96284D01*
X15967Y-96424D01*
X15803Y-96534D01*
X14624Y-97712D01*
X14514Y-97877D01*
X14374Y-98017D01*
X13448Y-99403D01*
X13419Y-99472D01*
X13118Y-99586D01*
X12826Y-99586D01*
X12525Y-99472D01*
X12497Y-99403D01*
X11570Y-98017D01*
X11431Y-97877D01*
X11321Y-97712D01*
X10142Y-96534D01*
X9978Y-96424D01*
X9838Y-96284D01*
X8724Y-95539D01*
X8664Y-95377D01*
X8664Y-94781D01*
X8724Y-94618D01*
X9838Y-93874D01*
X9978Y-93734D01*
X10142Y-93624D01*
X11321Y-92445D01*
X11431Y-92281D01*
X11570Y-92141D01*
X12497Y-90754D01*
X12525Y-90685D01*
X12827Y-90572D01*
X13118Y-90572D01*
X13419Y-90685D01*
D02*
G37*
G36*
X-12565D02*
X-12536Y-90754D01*
X-11610Y-92141D01*
X-11470Y-92281D01*
X-11360Y-92445D01*
X-10181Y-93624D01*
X-10017Y-93734D01*
X-9877Y-93874D01*
X-8763Y-94618D01*
X-8703Y-94781D01*
Y-95377D01*
X-8763Y-95539D01*
X-9877Y-96284D01*
X-10017Y-96424D01*
X-10181Y-96534D01*
X-11360Y-97712D01*
X-11470Y-97877D01*
X-11610Y-98017D01*
X-12536Y-99403D01*
X-12565Y-99472D01*
X-12866Y-99586D01*
X-13158Y-99586D01*
X-13459Y-99472D01*
X-13487Y-99403D01*
X-14414Y-98017D01*
X-14554Y-97877D01*
X-14663Y-97712D01*
X-15842Y-96534D01*
X-16007Y-96424D01*
X-16147Y-96284D01*
X-17261Y-95539D01*
X-17321Y-95377D01*
Y-94781D01*
X-17261Y-94618D01*
X-16147Y-93874D01*
X-16007Y-93734D01*
X-15842Y-93624D01*
X-14663Y-92445D01*
X-14554Y-92281D01*
X-14414Y-92141D01*
X-13487Y-90754D01*
X-13459Y-90685D01*
X-13158Y-90572D01*
X-12866D01*
X-12565Y-90685D01*
D02*
G37*
G36*
X-116803Y-90572D02*
X-116502Y-90685D01*
X-116473Y-90754D01*
X-115547Y-92141D01*
X-115407Y-92281D01*
X-115297Y-92445D01*
X-114118Y-93624D01*
X-113954Y-93734D01*
X-113814Y-93874D01*
X-112700Y-94618D01*
X-112640Y-94781D01*
Y-95377D01*
X-112700Y-95539D01*
X-113814Y-96284D01*
X-113954Y-96424D01*
X-114118Y-96534D01*
X-115297Y-97712D01*
X-115407Y-97877D01*
X-115547Y-98017D01*
X-116473Y-99403D01*
X-116502Y-99472D01*
X-116803Y-99586D01*
X-117095Y-99586D01*
X-117396Y-99472D01*
X-117424Y-99403D01*
X-118351Y-98017D01*
X-118491Y-97877D01*
X-118600Y-97712D01*
X-119779Y-96534D01*
X-119944Y-96424D01*
X-120084Y-96284D01*
X-121198Y-95539D01*
X-121258Y-95377D01*
Y-94781D01*
X-121198Y-94618D01*
X-120084Y-93874D01*
X-119944Y-93734D01*
X-119779Y-93624D01*
X-118600Y-92445D01*
X-118491Y-92281D01*
X-118351Y-92141D01*
X-117424Y-90754D01*
X-117396Y-90685D01*
X-117095Y-90572D01*
X-116803D01*
D02*
G37*
G36*
X-142787D02*
X-142486Y-90685D01*
X-142457Y-90754D01*
X-141531Y-92141D01*
X-141391Y-92281D01*
X-141281Y-92445D01*
X-140103Y-93624D01*
X-139938Y-93734D01*
X-139798Y-93874D01*
X-138684Y-94618D01*
X-138624Y-94781D01*
Y-95377D01*
X-138684Y-95539D01*
X-139798Y-96284D01*
X-139938Y-96424D01*
X-140103Y-96534D01*
X-141281Y-97712D01*
X-141391Y-97877D01*
X-141531Y-98017D01*
X-142457Y-99403D01*
X-142486Y-99472D01*
X-142787Y-99586D01*
X-143079Y-99586D01*
X-143380Y-99472D01*
X-143409Y-99403D01*
X-144335Y-98017D01*
X-144475Y-97877D01*
X-144585Y-97712D01*
X-145764Y-96534D01*
X-145928Y-96424D01*
X-146068Y-96284D01*
X-147182Y-95539D01*
X-147242Y-95377D01*
Y-94781D01*
X-147182Y-94618D01*
X-146068Y-93874D01*
X-145928Y-93734D01*
X-145764Y-93624D01*
X-144585Y-92445D01*
X-144475Y-92281D01*
X-144335Y-92141D01*
X-143409Y-90754D01*
X-143380Y-90685D01*
X-143079Y-90572D01*
X-142787D01*
D02*
G37*
G36*
X-38549Y-90685D02*
X-38520Y-90754D01*
X-37594Y-92141D01*
X-37454Y-92281D01*
X-37345Y-92445D01*
X-36165Y-93624D01*
X-36001Y-93734D01*
X-35861Y-93874D01*
X-34747Y-94618D01*
X-34687Y-94781D01*
X-34687Y-95377D01*
X-34747Y-95539D01*
X-35861Y-96284D01*
X-36001Y-96424D01*
X-36165Y-96534D01*
X-37345Y-97712D01*
X-37454Y-97877D01*
X-37594Y-98017D01*
X-38520Y-99403D01*
X-38549Y-99472D01*
X-38850Y-99586D01*
X-39142D01*
X-39443Y-99472D01*
X-39472Y-99403D01*
X-40398Y-98017D01*
X-40538Y-97877D01*
X-40648Y-97712D01*
X-41827Y-96534D01*
X-41991Y-96424D01*
X-42131Y-96284D01*
X-43245Y-95539D01*
X-43305Y-95377D01*
Y-94781D01*
X-43245Y-94618D01*
X-42131Y-93874D01*
X-41991Y-93734D01*
X-41827Y-93624D01*
X-40648Y-92445D01*
X-40538Y-92281D01*
X-40398Y-92141D01*
X-39472Y-90754D01*
X-39443Y-90685D01*
X-39142Y-90572D01*
X-38850Y-90572D01*
X-38549Y-90685D01*
D02*
G37*
G36*
X39103Y-90572D02*
X39404Y-90685D01*
X39432Y-90754D01*
X40359Y-92141D01*
X40499Y-92281D01*
X40608Y-92445D01*
X41787Y-93624D01*
X41952Y-93734D01*
X42091Y-93874D01*
X43206Y-94618D01*
X43266Y-94781D01*
X43266Y-95377D01*
X43206Y-95539D01*
X42091Y-96284D01*
X41952Y-96424D01*
X41787Y-96534D01*
X40608Y-97712D01*
X40499Y-97877D01*
X40359Y-98017D01*
X39432Y-99403D01*
X39404Y-99472D01*
X39103Y-99586D01*
X38811Y-99586D01*
X38510Y-99472D01*
X38481Y-99403D01*
X37555Y-98017D01*
X37415Y-97877D01*
X37305Y-97712D01*
X36126Y-96534D01*
X35962Y-96424D01*
X35822Y-96284D01*
X34708Y-95539D01*
X34648Y-95377D01*
Y-94781D01*
X34708Y-94618D01*
X35822Y-93874D01*
X35962Y-93734D01*
X36126Y-93624D01*
X37305Y-92445D01*
X37415Y-92281D01*
X37555Y-92141D01*
X38481Y-90754D01*
X38510Y-90685D01*
X38811Y-90572D01*
X39103D01*
D02*
G37*
G36*
X65087D02*
X65388Y-90685D01*
X65417Y-90754D01*
X66343Y-92141D01*
X66483Y-92281D01*
X66593Y-92445D01*
X67772Y-93624D01*
X67936Y-93734D01*
X68076Y-93874D01*
X69190Y-94618D01*
X69250Y-94781D01*
Y-95377D01*
X69190Y-95539D01*
X68076Y-96284D01*
X67936Y-96424D01*
X67772Y-96534D01*
X66593Y-97712D01*
X66483Y-97877D01*
X66343Y-98017D01*
X65417Y-99403D01*
X65388Y-99472D01*
X65087Y-99586D01*
X64795Y-99586D01*
X64494Y-99472D01*
X64465Y-99403D01*
X63539Y-98017D01*
X63399Y-97877D01*
X63289Y-97712D01*
X62110Y-96534D01*
X61946Y-96424D01*
X61806Y-96284D01*
X60692Y-95539D01*
X60632Y-95377D01*
Y-94781D01*
X60692Y-94618D01*
X61806Y-93874D01*
X61946Y-93734D01*
X62110Y-93624D01*
X63289Y-92445D01*
X63399Y-92281D01*
X63539Y-92141D01*
X64465Y-90754D01*
X64494Y-90685D01*
X64795Y-90572D01*
X65087Y-90572D01*
D02*
G37*
G36*
X91071Y-121674D02*
X91372Y-121788D01*
X91401Y-121857D01*
X92327Y-123243D01*
X92467Y-123383D01*
X92577Y-123547D01*
X93756Y-124726D01*
X93920Y-124836D01*
X94060Y-124976D01*
X95174Y-125720D01*
X95234Y-125883D01*
Y-126479D01*
X95174Y-126642D01*
X94060Y-127386D01*
X93920Y-127526D01*
X93756Y-127636D01*
X92577Y-128815D01*
X92467Y-128979D01*
X92327Y-129119D01*
X91401Y-130505D01*
X91372Y-130575D01*
X91071Y-130688D01*
X90779Y-130688D01*
X90478Y-130575D01*
X90450Y-130505D01*
X89523Y-129119D01*
X89383Y-128979D01*
X89274Y-128815D01*
X88095Y-127636D01*
X87930Y-127526D01*
X87790Y-127386D01*
X86676Y-126642D01*
X86616Y-126479D01*
X86616Y-125883D01*
X86676Y-125720D01*
X87790Y-124976D01*
X87930Y-124836D01*
X88095Y-124726D01*
X89274Y-123547D01*
X89383Y-123383D01*
X89523Y-123243D01*
X90450Y-121857D01*
X90478Y-121788D01*
X90779Y-121674D01*
X91071D01*
D02*
G37*
G36*
X143040D02*
X143341Y-121788D01*
X143369Y-121857D01*
X144296Y-123243D01*
X144436Y-123383D01*
X144545Y-123547D01*
X145724Y-124726D01*
X145889Y-124836D01*
X146028Y-124976D01*
X147143Y-125720D01*
X147203Y-125883D01*
Y-126479D01*
X147143Y-126642D01*
X146028Y-127386D01*
X145889Y-127526D01*
X145724Y-127636D01*
X144545Y-128815D01*
X144436Y-128979D01*
X144296Y-129119D01*
X143369Y-130505D01*
X143341Y-130575D01*
X143040Y-130688D01*
X142748Y-130688D01*
X142447Y-130575D01*
X142418Y-130505D01*
X141492Y-129119D01*
X141352Y-128979D01*
X141242Y-128815D01*
X140063Y-127636D01*
X139899Y-127526D01*
X139759Y-127386D01*
X138645Y-126642D01*
X138585Y-126479D01*
Y-125883D01*
X138645Y-125720D01*
X139759Y-124976D01*
X139899Y-124836D01*
X140063Y-124726D01*
X141242Y-123547D01*
X141352Y-123383D01*
X141492Y-123243D01*
X142418Y-121857D01*
X142447Y-121788D01*
X142748Y-121674D01*
X143040Y-121674D01*
D02*
G37*
G36*
X117055D02*
X117356Y-121788D01*
X117385Y-121857D01*
X118311Y-123243D01*
X118451Y-123383D01*
X118561Y-123547D01*
X119740Y-124726D01*
X119904Y-124836D01*
X120044Y-124976D01*
X121158Y-125720D01*
X121218Y-125883D01*
Y-126479D01*
X121158Y-126642D01*
X120044Y-127386D01*
X119904Y-127526D01*
X119740Y-127636D01*
X118561Y-128815D01*
X118451Y-128979D01*
X118311Y-129119D01*
X117385Y-130505D01*
X117357Y-130575D01*
X117055Y-130688D01*
X116764Y-130688D01*
X116462Y-130575D01*
X116434Y-130505D01*
X115507Y-129119D01*
X115368Y-128979D01*
X115258Y-128815D01*
X114079Y-127636D01*
X113915Y-127526D01*
X113775Y-127386D01*
X112661Y-126642D01*
X112601Y-126479D01*
Y-125883D01*
X112661Y-125720D01*
X113775Y-124976D01*
X113915Y-124836D01*
X114079Y-124726D01*
X115258Y-123547D01*
X115368Y-123383D01*
X115507Y-123243D01*
X116434Y-121857D01*
X116462Y-121788D01*
X116764Y-121674D01*
X117055Y-121674D01*
D02*
G37*
G36*
X13118D02*
X13419Y-121788D01*
X13448Y-121857D01*
X14374Y-123243D01*
X14514Y-123383D01*
X14624Y-123547D01*
X15803Y-124726D01*
X15967Y-124836D01*
X16107Y-124976D01*
X17221Y-125720D01*
X17281Y-125883D01*
Y-126479D01*
X17221Y-126642D01*
X16107Y-127386D01*
X15967Y-127526D01*
X15803Y-127636D01*
X14624Y-128815D01*
X14514Y-128979D01*
X14374Y-129119D01*
X13448Y-130505D01*
X13419Y-130575D01*
X13118Y-130688D01*
X12826Y-130688D01*
X12525Y-130575D01*
X12497Y-130505D01*
X11570Y-129119D01*
X11431Y-128979D01*
X11321Y-128815D01*
X10142Y-127636D01*
X9978Y-127526D01*
X9838Y-127386D01*
X8724Y-126642D01*
X8664Y-126479D01*
Y-125883D01*
X8724Y-125720D01*
X9838Y-124976D01*
X9978Y-124836D01*
X10142Y-124726D01*
X11321Y-123547D01*
X11431Y-123383D01*
X11570Y-123243D01*
X12497Y-121857D01*
X12525Y-121788D01*
X12827Y-121674D01*
X13118Y-121674D01*
D02*
G37*
G36*
X-12866D02*
X-12565Y-121788D01*
X-12536Y-121857D01*
X-11610Y-123243D01*
X-11470Y-123383D01*
X-11360Y-123547D01*
X-10181Y-124726D01*
X-10017Y-124836D01*
X-9877Y-124976D01*
X-8763Y-125720D01*
X-8703Y-125883D01*
Y-126479D01*
X-8763Y-126642D01*
X-9877Y-127386D01*
X-10017Y-127526D01*
X-10181Y-127636D01*
X-11360Y-128815D01*
X-11470Y-128979D01*
X-11610Y-129119D01*
X-12536Y-130505D01*
X-12565Y-130575D01*
X-12866Y-130688D01*
X-13158Y-130688D01*
X-13459Y-130575D01*
X-13487Y-130505D01*
X-14414Y-129119D01*
X-14554Y-128979D01*
X-14663Y-128815D01*
X-15842Y-127636D01*
X-16007Y-127526D01*
X-16147Y-127386D01*
X-17261Y-126642D01*
X-17321Y-126479D01*
Y-125883D01*
X-17261Y-125720D01*
X-16147Y-124976D01*
X-16007Y-124836D01*
X-15842Y-124726D01*
X-14663Y-123547D01*
X-14554Y-123383D01*
X-14414Y-123243D01*
X-13487Y-121857D01*
X-13459Y-121788D01*
X-13158Y-121674D01*
X-12866Y-121674D01*
D02*
G37*
G36*
X-142787D02*
X-142486Y-121788D01*
X-142457Y-121857D01*
X-141531Y-123243D01*
X-141391Y-123383D01*
X-141281Y-123547D01*
X-140103Y-124726D01*
X-139938Y-124836D01*
X-139798Y-124976D01*
X-138684Y-125720D01*
X-138624Y-125883D01*
Y-126479D01*
X-138684Y-126642D01*
X-139798Y-127386D01*
X-139938Y-127526D01*
X-140103Y-127636D01*
X-141281Y-128815D01*
X-141391Y-128979D01*
X-141531Y-129119D01*
X-142457Y-130505D01*
X-142486Y-130575D01*
X-142787Y-130688D01*
X-143079Y-130688D01*
X-143380Y-130575D01*
X-143409Y-130505D01*
X-144335Y-129119D01*
X-144475Y-128979D01*
X-144585Y-128815D01*
X-145764Y-127636D01*
X-145928Y-127526D01*
X-146068Y-127386D01*
X-147182Y-126642D01*
X-147242Y-126479D01*
Y-125883D01*
X-147182Y-125720D01*
X-146068Y-124976D01*
X-145928Y-124836D01*
X-145764Y-124726D01*
X-144585Y-123547D01*
X-144475Y-123383D01*
X-144335Y-123243D01*
X-143409Y-121857D01*
X-143380Y-121788D01*
X-143079Y-121674D01*
X-142787Y-121674D01*
D02*
G37*
G36*
X39103D02*
X39404Y-121788D01*
X39432Y-121857D01*
X40359Y-123243D01*
X40499Y-123383D01*
X40608Y-123547D01*
X41787Y-124726D01*
X41952Y-124836D01*
X42091Y-124976D01*
X43206Y-125720D01*
X43266Y-125883D01*
Y-126479D01*
X43206Y-126642D01*
X42091Y-127386D01*
X41952Y-127526D01*
X41787Y-127636D01*
X40608Y-128815D01*
X40499Y-128979D01*
X40359Y-129119D01*
X39432Y-130505D01*
X39404Y-130575D01*
X39103Y-130688D01*
X38811Y-130688D01*
X38510Y-130575D01*
X38481Y-130505D01*
X37555Y-129119D01*
X37415Y-128979D01*
X37305Y-128815D01*
X36126Y-127636D01*
X35962Y-127526D01*
X35822Y-127386D01*
X34708Y-126642D01*
X34648Y-126479D01*
Y-125883D01*
X34708Y-125720D01*
X35822Y-124976D01*
X35962Y-124836D01*
X36126Y-124726D01*
X37305Y-123547D01*
X37415Y-123383D01*
X37555Y-123243D01*
X38481Y-121857D01*
X38510Y-121788D01*
X38811Y-121674D01*
X39103Y-121674D01*
D02*
G37*
G36*
X-38850D02*
X-38549Y-121788D01*
X-38520Y-121857D01*
X-37594Y-123243D01*
X-37454Y-123383D01*
X-37345Y-123547D01*
X-36165Y-124726D01*
X-36001Y-124836D01*
X-35861Y-124976D01*
X-34747Y-125720D01*
X-34687Y-125883D01*
Y-126479D01*
X-34747Y-126642D01*
X-35861Y-127386D01*
X-36001Y-127526D01*
X-36165Y-127636D01*
X-37345Y-128815D01*
X-37454Y-128979D01*
X-37594Y-129119D01*
X-38520Y-130505D01*
X-38549Y-130575D01*
X-38850Y-130688D01*
X-39142D01*
X-39443Y-130575D01*
X-39472Y-130505D01*
X-40398Y-129119D01*
X-40538Y-128979D01*
X-40648Y-128815D01*
X-41827Y-127636D01*
X-41991Y-127526D01*
X-42131Y-127386D01*
X-43245Y-126642D01*
X-43305Y-126479D01*
Y-125883D01*
X-43245Y-125720D01*
X-42131Y-124976D01*
X-41991Y-124836D01*
X-41827Y-124726D01*
X-40648Y-123547D01*
X-40538Y-123383D01*
X-40398Y-123243D01*
X-39472Y-121857D01*
X-39443Y-121788D01*
X-39142Y-121674D01*
X-38850Y-121674D01*
D02*
G37*
G36*
X65087D02*
X65388Y-121788D01*
X65417Y-121857D01*
X66343Y-123243D01*
X66483Y-123383D01*
X66593Y-123547D01*
X67772Y-124726D01*
X67936Y-124836D01*
X68076Y-124976D01*
X69190Y-125720D01*
X69250Y-125883D01*
X69250Y-126479D01*
X69190Y-126642D01*
X68076Y-127386D01*
X67936Y-127526D01*
X67772Y-127636D01*
X66593Y-128815D01*
X66483Y-128979D01*
X66343Y-129119D01*
X65417Y-130505D01*
X65388Y-130575D01*
X65087Y-130688D01*
X64795D01*
X64494Y-130575D01*
X64465Y-130505D01*
X63539Y-129119D01*
X63399Y-128979D01*
X63289Y-128815D01*
X62110Y-127636D01*
X61946Y-127526D01*
X61806Y-127386D01*
X60692Y-126642D01*
X60632Y-126479D01*
X60632Y-125883D01*
X60692Y-125720D01*
X61806Y-124976D01*
X61946Y-124836D01*
X62110Y-124726D01*
X63289Y-123547D01*
X63399Y-123383D01*
X63539Y-123243D01*
X64465Y-121857D01*
X64494Y-121788D01*
X64795Y-121674D01*
X65087Y-121674D01*
D02*
G37*
G36*
X-64834Y-121674D02*
X-64533Y-121788D01*
X-64505Y-121857D01*
X-63578Y-123243D01*
X-63438Y-123383D01*
X-63329Y-123547D01*
X-62150Y-124726D01*
X-61985Y-124836D01*
X-61846Y-124976D01*
X-60731Y-125720D01*
X-60672Y-125883D01*
Y-126479D01*
X-60731Y-126642D01*
X-61846Y-127386D01*
X-61985Y-127526D01*
X-62150Y-127636D01*
X-63329Y-128815D01*
X-63438Y-128979D01*
X-63578Y-129119D01*
X-64505Y-130505D01*
X-64533Y-130575D01*
X-64834Y-130688D01*
X-65126Y-130688D01*
X-65427Y-130575D01*
X-65456Y-130505D01*
X-66382Y-129119D01*
X-66522Y-128979D01*
X-66632Y-128815D01*
X-67811Y-127636D01*
X-67975Y-127526D01*
X-68115Y-127386D01*
X-69229Y-126642D01*
X-69289Y-126479D01*
Y-125883D01*
X-69229Y-125720D01*
X-68115Y-124976D01*
X-67975Y-124836D01*
X-67811Y-124726D01*
X-66632Y-123547D01*
X-66522Y-123383D01*
X-66382Y-123243D01*
X-65456Y-121857D01*
X-65427Y-121788D01*
X-65126Y-121674D01*
X-64834Y-121674D01*
D02*
G37*
G36*
X-116803Y-121674D02*
X-116502Y-121788D01*
X-116473Y-121857D01*
X-115547Y-123243D01*
X-115407Y-123383D01*
X-115297Y-123547D01*
X-114118Y-124726D01*
X-113954Y-124836D01*
X-113814Y-124976D01*
X-112428Y-125902D01*
X-112288Y-125960D01*
X-112208Y-126181D01*
X-112217Y-126558D01*
X-112301Y-126849D01*
X-113563Y-127692D01*
X-113703Y-127832D01*
X-113867Y-127942D01*
X-114991Y-129066D01*
X-115101Y-129230D01*
X-115241Y-129370D01*
X-116124Y-130692D01*
X-116200Y-130875D01*
X-116310Y-131039D01*
X-116342Y-131117D01*
X-117130Y-131117D01*
X-117239Y-130852D01*
X-117349Y-130688D01*
X-117424Y-130505D01*
X-118351Y-129119D01*
X-118491Y-128979D01*
X-118600Y-128815D01*
X-119779Y-127636D01*
X-119944Y-127526D01*
X-120084Y-127386D01*
X-121198Y-126642D01*
X-121258Y-126479D01*
Y-125883D01*
X-121198Y-125720D01*
X-120084Y-124976D01*
X-119944Y-124836D01*
X-119779Y-124726D01*
X-118600Y-123547D01*
X-118491Y-123383D01*
X-118351Y-123243D01*
X-117424Y-121857D01*
X-117396Y-121788D01*
X-117095Y-121674D01*
X-116803Y-121674D01*
D02*
G37*
G36*
X-90819Y-121674D02*
X-90518Y-121788D01*
X-90489Y-121857D01*
X-89563Y-123243D01*
X-89423Y-123383D01*
X-89313Y-123547D01*
X-88134Y-124726D01*
X-87970Y-124836D01*
X-87830Y-124976D01*
X-86716Y-125720D01*
X-86656Y-125883D01*
Y-126479D01*
X-86716Y-126642D01*
X-87830Y-127386D01*
X-87970Y-127526D01*
X-88134Y-127636D01*
X-89313Y-128815D01*
X-89423Y-128979D01*
X-89563Y-129119D01*
X-90489Y-130505D01*
X-90565Y-130688D01*
X-90674Y-130852D01*
X-90784Y-131117D01*
X-91571D01*
X-91604Y-131039D01*
X-91714Y-130875D01*
X-91789Y-130692D01*
X-92672Y-129370D01*
X-92812Y-129230D01*
X-92922Y-129066D01*
X-94046Y-127942D01*
X-94210Y-127832D01*
X-94350Y-127692D01*
X-95612Y-126849D01*
X-95696Y-126558D01*
X-95706Y-126181D01*
X-95625Y-125960D01*
X-95486Y-125902D01*
X-94099Y-124976D01*
X-93960Y-124836D01*
X-93795Y-124726D01*
X-92616Y-123547D01*
X-92506Y-123383D01*
X-92367Y-123243D01*
X-91440Y-121857D01*
X-91412Y-121788D01*
X-91110Y-121674D01*
X-90819Y-121674D01*
D02*
G37*
G36*
X-90674Y-152612D02*
X-90565Y-152777D01*
X-90489Y-152959D01*
X-89563Y-154346D01*
X-89423Y-154485D01*
X-89313Y-154650D01*
X-88134Y-155829D01*
X-87970Y-155939D01*
X-87830Y-156078D01*
X-86716Y-156823D01*
X-86656Y-156985D01*
Y-157581D01*
X-86716Y-157744D01*
X-87830Y-158489D01*
X-87970Y-158628D01*
X-88134Y-158738D01*
X-89313Y-159917D01*
X-89423Y-160082D01*
X-89563Y-160221D01*
X-90489Y-161608D01*
X-90518Y-161677D01*
X-90819Y-161790D01*
X-91110D01*
X-91412Y-161677D01*
X-91440Y-161608D01*
X-92367Y-160221D01*
X-92506Y-160082D01*
X-92616Y-159917D01*
X-93795Y-158738D01*
X-93960Y-158628D01*
X-94099Y-158489D01*
X-95486Y-157562D01*
X-95625Y-157505D01*
X-95705Y-157283D01*
X-95696Y-156906D01*
X-95612Y-156616D01*
X-94350Y-155772D01*
X-94210Y-155633D01*
X-94046Y-155523D01*
X-92922Y-154399D01*
X-92812Y-154234D01*
X-92672Y-154095D01*
X-91789Y-152773D01*
X-91714Y-152590D01*
X-91604Y-152426D01*
X-91571Y-152348D01*
X-90784D01*
X-90674Y-152612D01*
D02*
G37*
G36*
X91071Y-152777D02*
X91372Y-152890D01*
X91401Y-152959D01*
X92327Y-154346D01*
X92467Y-154485D01*
X92577Y-154650D01*
X93756Y-155829D01*
X93920Y-155939D01*
X94060Y-156078D01*
X95174Y-156823D01*
X95234Y-156985D01*
Y-157581D01*
X95174Y-157744D01*
X94060Y-158489D01*
X93920Y-158628D01*
X93756Y-158738D01*
X92577Y-159917D01*
X92467Y-160082D01*
X92327Y-160221D01*
X91401Y-161608D01*
X91372Y-161677D01*
X91071Y-161790D01*
X90779Y-161790D01*
X90478Y-161677D01*
X90450Y-161608D01*
X89523Y-160221D01*
X89383Y-160082D01*
X89274Y-159917D01*
X88095Y-158738D01*
X87930Y-158628D01*
X87790Y-158489D01*
X86676Y-157744D01*
X86616Y-157581D01*
X86616Y-156985D01*
X86676Y-156823D01*
X87790Y-156078D01*
X87930Y-155938D01*
X88095Y-155829D01*
X89274Y-154650D01*
X89383Y-154485D01*
X89523Y-154346D01*
X90450Y-152959D01*
X90478Y-152890D01*
X90779Y-152777D01*
X91071D01*
D02*
G37*
G36*
X143040D02*
X143341Y-152890D01*
X143369Y-152959D01*
X144296Y-154346D01*
X144436Y-154485D01*
X144545Y-154650D01*
X145724Y-155829D01*
X145889Y-155939D01*
X146028Y-156078D01*
X147143Y-156823D01*
X147203Y-156985D01*
Y-157581D01*
X147143Y-157744D01*
X146028Y-158489D01*
X145889Y-158628D01*
X145724Y-158738D01*
X144545Y-159917D01*
X144436Y-160082D01*
X144296Y-160221D01*
X143369Y-161608D01*
X143341Y-161677D01*
X143040Y-161790D01*
X142748Y-161790D01*
X142447Y-161677D01*
X142418Y-161608D01*
X141492Y-160221D01*
X141352Y-160082D01*
X141242Y-159917D01*
X140063Y-158738D01*
X139899Y-158628D01*
X139759Y-158489D01*
X138645Y-157744D01*
X138585Y-157581D01*
Y-156985D01*
X138645Y-156823D01*
X139759Y-156078D01*
X139899Y-155939D01*
X140063Y-155829D01*
X141242Y-154650D01*
X141352Y-154485D01*
X141492Y-154346D01*
X142418Y-152959D01*
X142447Y-152890D01*
X142748Y-152777D01*
X143040Y-152777D01*
D02*
G37*
G36*
X117055D02*
X117356Y-152890D01*
X117385Y-152959D01*
X118311Y-154346D01*
X118451Y-154485D01*
X118561Y-154650D01*
X119740Y-155829D01*
X119904Y-155939D01*
X120044Y-156078D01*
X121158Y-156823D01*
X121218Y-156985D01*
Y-157581D01*
X121158Y-157744D01*
X120044Y-158489D01*
X119904Y-158628D01*
X119740Y-158738D01*
X118561Y-159917D01*
X118451Y-160082D01*
X118311Y-160221D01*
X117385Y-161608D01*
X117357Y-161677D01*
X117055Y-161790D01*
X116764Y-161790D01*
X116462Y-161677D01*
X116434Y-161608D01*
X115507Y-160221D01*
X115368Y-160082D01*
X115258Y-159917D01*
X114079Y-158738D01*
X113915Y-158628D01*
X113775Y-158489D01*
X112661Y-157744D01*
X112601Y-157581D01*
Y-156985D01*
X112661Y-156823D01*
X113775Y-156078D01*
X113915Y-155939D01*
X114079Y-155829D01*
X115258Y-154650D01*
X115368Y-154485D01*
X115507Y-154346D01*
X116434Y-152959D01*
X116462Y-152890D01*
X116764Y-152777D01*
X117055Y-152777D01*
D02*
G37*
G36*
X-116342Y-152348D02*
X-116310Y-152426D01*
X-116200Y-152590D01*
X-116124Y-152773D01*
X-115241Y-154095D01*
X-115101Y-154234D01*
X-114991Y-154399D01*
X-113867Y-155523D01*
X-113703Y-155633D01*
X-113563Y-155772D01*
X-112301Y-156616D01*
X-112217Y-156906D01*
X-112208Y-157283D01*
X-112288Y-157505D01*
X-112428Y-157562D01*
X-113814Y-158489D01*
X-113954Y-158628D01*
X-114118Y-158738D01*
X-115297Y-159917D01*
X-115407Y-160082D01*
X-115547Y-160221D01*
X-116473Y-161608D01*
X-116502Y-161677D01*
X-116803Y-161790D01*
X-117095Y-161790D01*
X-117396Y-161677D01*
X-117424Y-161608D01*
X-118351Y-160221D01*
X-118491Y-160082D01*
X-118600Y-159917D01*
X-119779Y-158738D01*
X-119944Y-158628D01*
X-120084Y-158489D01*
X-121198Y-157744D01*
X-121258Y-157581D01*
Y-156985D01*
X-121198Y-156823D01*
X-120084Y-156078D01*
X-119944Y-155939D01*
X-119779Y-155829D01*
X-118600Y-154650D01*
X-118491Y-154485D01*
X-118351Y-154346D01*
X-117424Y-152959D01*
X-117349Y-152777D01*
X-117239Y-152612D01*
X-117130Y-152348D01*
X-116342D01*
D02*
G37*
G36*
X-142787Y-152777D02*
X-142486Y-152890D01*
X-142457Y-152959D01*
X-141531Y-154346D01*
X-141391Y-154485D01*
X-141281Y-154650D01*
X-140103Y-155829D01*
X-139938Y-155939D01*
X-139798Y-156078D01*
X-138684Y-156823D01*
X-138624Y-156985D01*
Y-157581D01*
X-138684Y-157744D01*
X-139798Y-158489D01*
X-139938Y-158628D01*
X-140103Y-158738D01*
X-141281Y-159917D01*
X-141391Y-160082D01*
X-141531Y-160221D01*
X-142457Y-161608D01*
X-142486Y-161677D01*
X-142787Y-161790D01*
X-143079Y-161790D01*
X-143380Y-161677D01*
X-143409Y-161608D01*
X-144335Y-160221D01*
X-144475Y-160082D01*
X-144585Y-159917D01*
X-145764Y-158738D01*
X-145928Y-158628D01*
X-146068Y-158489D01*
X-147182Y-157744D01*
X-147242Y-157581D01*
Y-156985D01*
X-147182Y-156823D01*
X-146068Y-156078D01*
X-145928Y-155939D01*
X-145764Y-155829D01*
X-144585Y-154650D01*
X-144475Y-154485D01*
X-144335Y-154346D01*
X-143409Y-152959D01*
X-143380Y-152890D01*
X-143079Y-152777D01*
X-142787Y-152777D01*
D02*
G37*
G36*
X-64834Y-152777D02*
X-64533Y-152890D01*
X-64505Y-152959D01*
X-63578Y-154346D01*
X-63438Y-154485D01*
X-63329Y-154650D01*
X-62150Y-155829D01*
X-61985Y-155938D01*
X-61846Y-156078D01*
X-60731Y-156823D01*
X-60672Y-156985D01*
X-60672Y-157581D01*
X-60731Y-157744D01*
X-61846Y-158489D01*
X-61985Y-158628D01*
X-62150Y-158738D01*
X-63329Y-159917D01*
X-63438Y-160082D01*
X-63578Y-160221D01*
X-64505Y-161608D01*
X-64533Y-161677D01*
X-64834Y-161790D01*
X-65126Y-161790D01*
X-65427Y-161677D01*
X-65456Y-161608D01*
X-66382Y-160221D01*
X-66522Y-160082D01*
X-66632Y-159917D01*
X-67811Y-158738D01*
X-67975Y-158628D01*
X-68115Y-158489D01*
X-69229Y-157744D01*
X-69289Y-157581D01*
X-69289Y-156985D01*
X-69229Y-156823D01*
X-68115Y-156078D01*
X-67975Y-155939D01*
X-67811Y-155829D01*
X-66632Y-154650D01*
X-66522Y-154485D01*
X-66382Y-154346D01*
X-65456Y-152959D01*
X-65427Y-152890D01*
X-65126Y-152777D01*
X-64834Y-152777D01*
D02*
G37*
G36*
X65087Y-152777D02*
X65388Y-152890D01*
X65417Y-152959D01*
X66343Y-154346D01*
X66483Y-154485D01*
X66593Y-154650D01*
X67772Y-155829D01*
X67936Y-155938D01*
X68076Y-156078D01*
X69190Y-156823D01*
X69250Y-156985D01*
X69250Y-157581D01*
X69190Y-157744D01*
X68076Y-158489D01*
X67936Y-158628D01*
X67772Y-158738D01*
X66593Y-159917D01*
X66483Y-160082D01*
X66343Y-160221D01*
X65417Y-161608D01*
X65388Y-161677D01*
X65087Y-161790D01*
X64795Y-161790D01*
X64494Y-161677D01*
X64465Y-161608D01*
X63539Y-160221D01*
X63399Y-160082D01*
X63289Y-159917D01*
X62110Y-158738D01*
X61946Y-158628D01*
X61806Y-158489D01*
X60692Y-157744D01*
X60632Y-157581D01*
Y-156985D01*
X60692Y-156823D01*
X61806Y-156078D01*
X61946Y-155938D01*
X62110Y-155829D01*
X63289Y-154650D01*
X63399Y-154485D01*
X63539Y-154346D01*
X64465Y-152959D01*
X64494Y-152890D01*
X64795Y-152777D01*
X65087Y-152777D01*
D02*
G37*
G36*
X11811Y-13780D02*
Y-25591D01*
X-11811D01*
Y-13780D01*
Y-5906D01*
X11811D01*
Y-13780D01*
D02*
G37*
%LPC*%
G36*
X8053Y-7676D02*
X-15Y-11004D01*
X-8082Y-7676D01*
X-5713Y-12443D01*
X-4884Y-12095D01*
X-6193Y-9420D01*
X-1178Y-11484D01*
X-8940Y-14682D01*
X0Y-23622D01*
X8940Y-14682D01*
X1177Y-11484D01*
X6193Y-9420D01*
X4855Y-12095D01*
X5684Y-12443D01*
X8053Y-7676D01*
D02*
G37*
%LPD*%
G36*
X7355Y-15002D02*
X1468Y-20889D01*
X4506Y-14798D01*
X3678Y-14449D01*
X-0Y-21820D01*
X-3678Y-14449D01*
X-4506Y-14798D01*
X-1468Y-20875D01*
X-7356Y-15002D01*
X-0Y-11978D01*
X7355Y-15002D01*
D02*
G37*
D10*
X40138Y-116732D02*
G03*
X48602Y-125197I8465J-0D01*
G01*
X40138Y-147835D02*
G03*
X48602Y-156299I8465J-0D01*
G01*
X66122Y-116732D02*
G03*
X74587Y-125197I8465J-0D01*
G01*
X55295D02*
G03*
X63760Y-116732I-0J8465D01*
G01*
X48602Y-127165D02*
G03*
X40138Y-135630I0J-8465D01*
G01*
X66122Y-147835D02*
G03*
X74587Y-156299I8465J-0D01*
G01*
Y-127165D02*
G03*
X66122Y-135630I0J-8465D01*
G01*
X63760D02*
G03*
X55295Y-127165I-8465J0D01*
G01*
Y-156299D02*
G03*
X63760Y-147835I-0J8465D01*
G01*
X48602Y-96063D02*
G03*
X40138Y-104528I0J-8465D01*
G01*
Y-85630D02*
G03*
X48602Y-94095I8465J0D01*
G01*
X55295D02*
G03*
X63760Y-85630I0J8465D01*
G01*
X74587Y-96063D02*
G03*
X66122Y-104528I0J-8465D01*
G01*
X63760D02*
G03*
X55295Y-96063I-8465J0D01*
G01*
X66122Y-85630D02*
G03*
X74587Y-94095I8465J0D01*
G01*
X89744Y-135630D02*
G03*
X81279Y-127165I-8465J0D01*
G01*
X81279Y-94095D02*
G03*
X89744Y-85630I0J8465D01*
G01*
X81279Y-125197D02*
G03*
X89744Y-116732I-0J8465D01*
G01*
X81279Y-156299D02*
G03*
X89744Y-147835I-0J8465D01*
G01*
Y-104528D02*
G03*
X81279Y-96063I-8465J0D01*
G01*
X89744Y-42323D02*
G03*
X81279Y-33858I-8465J0D01*
G01*
X63760Y-42323D02*
G03*
X55295Y-33858I-8465J0D01*
G01*
X48602D02*
G03*
X40138Y-42323I0J-8465D01*
G01*
X37776Y-42323D02*
G03*
X29311Y-33858I-8465J0D01*
G01*
X74587D02*
G03*
X66122Y-42323I0J-8465D01*
G01*
X37776Y-73425D02*
G03*
X29311Y-64961I-8465J-0D01*
G01*
X89744Y-73425D02*
G03*
X81279Y-64961I-8465J0D01*
G01*
X40138Y-54528D02*
G03*
X48602Y-62992I8465J0D01*
G01*
X55295D02*
G03*
X63760Y-54528I0J8465D01*
G01*
X48602Y-64961D02*
G03*
X40138Y-73425I0J-8465D01*
G01*
X29311Y-62992D02*
G03*
X37776Y-54528I0J8465D01*
G01*
X63760Y-73425D02*
G03*
X55295Y-64961I-8465J0D01*
G01*
X74587D02*
G03*
X66122Y-73425I0J-8465D01*
G01*
Y-54528D02*
G03*
X74587Y-62992I8465J0D01*
G01*
X81279D02*
G03*
X89744Y-54528I0J8465D01*
G01*
X29311Y-125197D02*
G03*
X37776Y-116732I0J8465D01*
G01*
Y-104528D02*
G03*
X29311Y-96063I-8465J0D01*
G01*
Y-156299D02*
G03*
X37776Y-147835I0J8465D01*
G01*
X29311Y-94095D02*
G03*
X37776Y-85630I0J8465D01*
G01*
Y-135630D02*
G03*
X29311Y-127165I-8465J0D01*
G01*
X14153Y-147835D02*
G03*
X22618Y-156299I8465J0D01*
G01*
Y-127165D02*
G03*
X14153Y-135630I0J-8465D01*
G01*
X22618Y-96063D02*
G03*
X14153Y-104528I0J-8465D01*
G01*
Y-85630D02*
G03*
X22618Y-94095I8465J0D01*
G01*
X14153Y-116732D02*
G03*
X22618Y-125197I8465J0D01*
G01*
Y-33858D02*
G03*
X14153Y-42323I0J-8465D01*
G01*
Y-54528D02*
G03*
X22618Y-62992I8465J0D01*
G01*
Y-64961D02*
G03*
X14153Y-73425I-0J-8465D01*
G01*
X-37815Y-85630D02*
G03*
X-29350Y-94095I8465J0D01*
G01*
Y-96063D02*
G03*
X-37815Y-104528I0J-8465D01*
G01*
Y-116732D02*
G03*
X-29350Y-125197I8465J0D01*
G01*
X-159272Y-64961D02*
G03*
X-167736Y-73425I-0J-8465D01*
G01*
Y-54528D02*
G03*
X-159272Y-62992I8465J0D01*
G01*
X-167736Y-85630D02*
G03*
X-159272Y-94095I8465J0D01*
G01*
X-152579Y-94095D02*
G03*
X-144114Y-85630I0J8465D01*
G01*
X-89784Y-116732D02*
G03*
X-81319Y-125197I8465J-0D01*
G01*
X-89784Y-85630D02*
G03*
X-81319Y-94095I8465J0D01*
G01*
X-81319Y-96063D02*
G03*
X-89784Y-104528I0J-8465D01*
G01*
X-92146D02*
G03*
X-100610Y-96063I-8465J0D01*
G01*
Y-125197D02*
G03*
X-92146Y-116732I0J8465D01*
G01*
X-100610Y-94095D02*
G03*
X-92146Y-85630I0J8465D01*
G01*
X-11831Y-54528D02*
G03*
X-3366Y-62992I8465J0D01*
G01*
Y-64961D02*
G03*
X-11831Y-73425I-0J-8465D01*
G01*
X-3366Y-96063D02*
G03*
X-11831Y-104528I0J-8465D01*
G01*
Y-116732D02*
G03*
X-3366Y-125197I8465J0D01*
G01*
X-11831Y-85630D02*
G03*
X-3366Y-94095I8465J0D01*
G01*
X-22658Y-125197D02*
G03*
X-14193Y-116732I0J8465D01*
G01*
X-22658Y-94095D02*
G03*
X-14193Y-85630I0J8465D01*
G01*
Y-104528D02*
G03*
X-22658Y-96063I-8465J0D01*
G01*
X-144114Y-104528D02*
G03*
X-152579Y-96063I-8465J0D01*
G01*
X-167736Y-116732D02*
G03*
X-159272Y-125197I8465J0D01*
G01*
Y-96063D02*
G03*
X-167736Y-104528I0J-8465D01*
G01*
X-152579Y-125197D02*
G03*
X-144114Y-116732I0J8465D01*
G01*
X-100610Y-62992D02*
G03*
X-92146Y-54528I0J8465D01*
G01*
X-81319Y-64961D02*
G03*
X-89784Y-73425I0J-8465D01*
G01*
X-92146Y-73425D02*
G03*
X-100610Y-64961I-8465J-0D01*
G01*
X-89784Y-54528D02*
G03*
X-81319Y-62992I8465J0D01*
G01*
X-141752Y-116732D02*
G03*
X-133287Y-125197I8465J0D01*
G01*
X-115768Y-85630D02*
G03*
X-107303Y-94095I8465J0D01*
G01*
X-126594D02*
G03*
X-118130Y-85630I0J8465D01*
G01*
X-141752Y-85630D02*
G03*
X-133287Y-94095I8465J0D01*
G01*
X-107303Y-96063D02*
G03*
X-115768Y-104528I0J-8465D01*
G01*
X-133287Y-96063D02*
G03*
X-141752Y-104528I0J-8465D01*
G01*
X-126594Y-125197D02*
G03*
X-118130Y-116732I0J8465D01*
G01*
Y-104528D02*
G03*
X-126594Y-96063I-8465J0D01*
G01*
X-115768Y-116732D02*
G03*
X-107303Y-125197I8465J0D01*
G01*
X-126594Y-62992D02*
G03*
X-118130Y-54528I0J8465D01*
G01*
Y-73425D02*
G03*
X-126594Y-64961I-8465J-0D01*
G01*
X-133287D02*
G03*
X-141752Y-73425I-0J-8465D01*
G01*
X-144114D02*
G03*
X-152579Y-64961I-8465J-0D01*
G01*
Y-62992D02*
G03*
X-144114Y-54528I0J8465D01*
G01*
X-107303Y-64961D02*
G03*
X-115768Y-73425I-0J-8465D01*
G01*
X-141752Y-54528D02*
G03*
X-133287Y-62992I8465J0D01*
G01*
X-115768Y-54528D02*
G03*
X-107303Y-62992I8465J0D01*
G01*
X-48642Y-62992D02*
G03*
X-40177Y-54528I0J8465D01*
G01*
Y-73425D02*
G03*
X-48642Y-64961I-8465J0D01*
G01*
X-37815Y-54528D02*
G03*
X-29350Y-62992I8465J0D01*
G01*
X-14193Y-73425D02*
G03*
X-22658Y-64961I-8465J-0D01*
G01*
Y-62992D02*
G03*
X-14193Y-54528I0J8465D01*
G01*
X-29350Y-64961D02*
G03*
X-37815Y-73425I-0J-8465D01*
G01*
X-63799Y-116732D02*
G03*
X-55335Y-125197I8465J-0D01*
G01*
X-74626D02*
G03*
X-66161Y-116732I-0J8465D01*
G01*
X-40177Y-104528D02*
G03*
X-48642Y-96063I-8465J0D01*
G01*
X-55335D02*
G03*
X-63799Y-104528I0J-8465D01*
G01*
X-66161Y-104528D02*
G03*
X-74626Y-96063I-8465J0D01*
G01*
X-48642Y-94095D02*
G03*
X-40177Y-85630I0J8465D01*
G01*
X-48642Y-125197D02*
G03*
X-40177Y-116732I-0J8465D01*
G01*
X-55335Y-64961D02*
G03*
X-63799Y-73425I0J-8465D01*
G01*
X-74626Y-94095D02*
G03*
X-66161Y-85630I0J8465D01*
G01*
X-74626Y-62992D02*
G03*
X-66161Y-54528I0J8465D01*
G01*
Y-73425D02*
G03*
X-74626Y-64961I-8465J0D01*
G01*
X-63799Y-85630D02*
G03*
X-55335Y-94095I8465J0D01*
G01*
X-63799Y-54528D02*
G03*
X-55335Y-62992I8465J0D01*
G01*
X3327Y-94095D02*
G03*
X11791Y-85630I0J8465D01*
G01*
X3327Y-62992D02*
G03*
X11791Y-54528I0J8465D01*
G01*
Y-73425D02*
G03*
X3327Y-64961I-8465J-0D01*
G01*
X3327Y-125197D02*
G03*
X11791Y-116732I0J8465D01*
G01*
Y-104528D02*
G03*
X3327Y-96063I-8465J0D01*
G01*
X-92146Y-166732D02*
G03*
X-100610Y-158268I-8465J0D01*
G01*
X-55335D02*
G03*
X-63799Y-166732I0J-8465D01*
G01*
X-107303Y-158268D02*
G03*
X-115768Y-166732I0J-8465D01*
G01*
X-66161Y-166732D02*
G03*
X-74626Y-158268I-8465J0D01*
G01*
X-81319Y-158268D02*
G03*
X-89784Y-166732I0J-8465D01*
G01*
X-66161Y-135630D02*
G03*
X-74626Y-127165I-8465J0D01*
G01*
X-40177Y-135630D02*
G03*
X-48642Y-127165I-8465J0D01*
G01*
X-55335D02*
G03*
X-63799Y-135630I0J-8465D01*
G01*
X-115374Y-147835D02*
G03*
X-107303Y-155905I8071J0D01*
G01*
Y-127559D02*
G03*
X-115374Y-135630I0J-8071D01*
G01*
X-89784Y-147835D02*
G03*
X-81319Y-156299I8465J-0D01*
G01*
X-100610Y-155905D02*
G03*
X-92539Y-147835I0J8071D01*
G01*
X-81319Y-127165D02*
G03*
X-89784Y-135630I0J-8465D01*
G01*
X-92539D02*
G03*
X-100610Y-127559I-8071J0D01*
G01*
X-118130Y-166732D02*
G03*
X-126594Y-158268I-8465J0D01*
G01*
X-133287D02*
G03*
X-141752Y-166732I0J-8465D01*
G01*
X-118130Y-135630D02*
G03*
X-126594Y-127165I-8465J0D01*
G01*
X-141752Y-147835D02*
G03*
X-133287Y-156299I8465J0D01*
G01*
Y-127165D02*
G03*
X-141752Y-135630I0J-8465D01*
G01*
X-126594Y-156299D02*
G03*
X-118130Y-147835I0J8465D01*
G01*
X-14193Y-135630D02*
G03*
X-22658Y-127165I-8465J0D01*
G01*
X-29350D02*
G03*
X-37815Y-135630I0J-8465D01*
G01*
X-3366Y-127165D02*
G03*
X-11831Y-135630I0J-8465D01*
G01*
X11791D02*
G03*
X3327Y-127165I-8465J0D01*
G01*
Y-156299D02*
G03*
X11791Y-147835I0J8465D01*
G01*
X-11831D02*
G03*
X-3366Y-156299I8465J0D01*
G01*
X-22658D02*
G03*
X-14193Y-147835I0J8465D01*
G01*
X-63799Y-147835D02*
G03*
X-55335Y-156299I8465J-0D01*
G01*
X-37815Y-147835D02*
G03*
X-29350Y-156299I8465J0D01*
G01*
X-48642D02*
G03*
X-40177Y-147835I-0J8465D01*
G01*
X-74626Y-156299D02*
G03*
X-66161Y-147835I-0J8465D01*
G01*
X141713Y-166732D02*
G03*
X133248Y-158268I-8465J0D01*
G01*
X126555D02*
G03*
X118091Y-166732I0J-8465D01*
G01*
X159232Y-156299D02*
G03*
X167697Y-147835I0J8465D01*
G01*
Y-135630D02*
G03*
X159232Y-127165I-8465J0D01*
G01*
Y-125197D02*
G03*
X167697Y-116732I0J8465D01*
G01*
X152539Y-158268D02*
G03*
X144075Y-166732I0J-8465D01*
G01*
X167697D02*
G03*
X159232Y-158268I-8465J0D01*
G01*
X74587D02*
G03*
X66122Y-166732I0J-8465D01*
G01*
X63760D02*
G03*
X55295Y-158268I-8465J0D01*
G01*
X115728Y-166732D02*
G03*
X107264Y-158268I-8465J0D01*
G01*
X100571D02*
G03*
X92106Y-166732I0J-8465D01*
G01*
X89744D02*
G03*
X81279Y-158268I-8465J0D01*
G01*
X55295Y-187402D02*
G03*
X63760Y-178937I-0J8465D01*
G01*
X159232Y-187402D02*
G03*
X167697Y-178937I0J8465D01*
G01*
X144075D02*
G03*
X152539Y-187402I8465J0D01*
G01*
X66122Y-178937D02*
G03*
X74587Y-187402I8465J-0D01*
G01*
X-74626D02*
G03*
X-66161Y-178937I-0J8465D01*
G01*
X-63799Y-178937D02*
G03*
X-55335Y-187402I8465J-0D01*
G01*
X-159272Y-158268D02*
G03*
X-167736Y-166732I0J-8465D01*
G01*
Y-178937D02*
G03*
X-159272Y-187402I8465J0D01*
G01*
X-141752Y-178937D02*
G03*
X-133287Y-187402I8465J0D01*
G01*
X-152579D02*
G03*
X-144114Y-178937I0J8465D01*
G01*
X-126594Y-187402D02*
G03*
X-118130Y-178937I0J8465D01*
G01*
X-144114Y-166732D02*
G03*
X-152579Y-158268I-8465J0D01*
G01*
X81279Y-187402D02*
G03*
X89744Y-178937I-0J8465D01*
G01*
X92106D02*
G03*
X100571Y-187402I8465J0D01*
G01*
X107264D02*
G03*
X115728Y-178937I0J8465D01*
G01*
X133248Y-187402D02*
G03*
X141713Y-178937I0J8465D01*
G01*
X118091D02*
G03*
X126555Y-187402I8465J0D01*
G01*
X159232Y-62992D02*
G03*
X167697Y-54528I0J8465D01*
G01*
Y-104528D02*
G03*
X159232Y-96063I-8465J0D01*
G01*
X159232Y-94095D02*
G03*
X167697Y-85630I0J8465D01*
G01*
Y-73425D02*
G03*
X159232Y-64961I-8465J-0D01*
G01*
X-159272Y-127165D02*
G03*
X-167736Y-135630I0J-8465D01*
G01*
X-152579Y-156299D02*
G03*
X-144114Y-147835I0J8465D01*
G01*
X-167736D02*
G03*
X-159272Y-156299I8465J0D01*
G01*
X-144114Y-135630D02*
G03*
X-152579Y-127165I-8465J0D01*
G01*
X-100610Y-187402D02*
G03*
X-92146Y-178937I0J8465D01*
G01*
X-89784D02*
G03*
X-81319Y-187402I8465J-0D01*
G01*
X-115768Y-178937D02*
G03*
X-107303Y-187402I8465J0D01*
G01*
X115728Y-135630D02*
G03*
X107264Y-127165I-8465J0D01*
G01*
Y-125197D02*
G03*
X115728Y-116732I0J8465D01*
G01*
X92106Y-147835D02*
G03*
X100571Y-156299I8465J0D01*
G01*
X92106Y-116732D02*
G03*
X100571Y-125197I8465J0D01*
G01*
Y-127165D02*
G03*
X92106Y-135630I0J-8465D01*
G01*
X107264Y-156299D02*
G03*
X115728Y-147835I0J8465D01*
G01*
X107264Y-94095D02*
G03*
X115728Y-85630I0J8465D01*
G01*
X115728Y-104528D02*
G03*
X107264Y-96063I-8465J0D01*
G01*
X100571D02*
G03*
X92106Y-104528I0J-8465D01*
G01*
X92106Y-85630D02*
G03*
X100571Y-94095I8465J0D01*
G01*
X118090Y-85630D02*
G03*
X126555Y-94095I8465J0D01*
G01*
Y-127165D02*
G03*
X118091Y-135630I0J-8465D01*
G01*
Y-147835D02*
G03*
X126555Y-156299I8465J0D01*
G01*
Y-96063D02*
G03*
X118091Y-104528I0J-8465D01*
G01*
Y-116732D02*
G03*
X126555Y-125197I8465J0D01*
G01*
X115728Y-42323D02*
G03*
X107264Y-33858I-8465J0D01*
G01*
X100571D02*
G03*
X92106Y-42323I0J-8465D01*
G01*
X92106Y-54528D02*
G03*
X100571Y-62992I8465J0D01*
G01*
X126555Y-64961D02*
G03*
X118090Y-73425I-0J-8465D01*
G01*
Y-54528D02*
G03*
X126555Y-62992I8465J0D01*
G01*
Y-33858D02*
G03*
X118091Y-42323I0J-8465D01*
G01*
X100571Y-64961D02*
G03*
X92106Y-73425I-0J-8465D01*
G01*
X115728D02*
G03*
X107264Y-64961I-8465J-0D01*
G01*
Y-62992D02*
G03*
X115728Y-54528I0J8465D01*
G01*
X133248Y-94095D02*
G03*
X141713Y-85630I0J8465D01*
G01*
X133248Y-156299D02*
G03*
X141713Y-147835I0J8465D01*
G01*
Y-135630D02*
G03*
X133248Y-127165I-8465J0D01*
G01*
X141713Y-104528D02*
G03*
X133248Y-96063I-8465J0D01*
G01*
Y-125197D02*
G03*
X141713Y-116732I0J8465D01*
G01*
X152539Y-33858D02*
G03*
X144075Y-42323I0J-8465D01*
G01*
X133248Y-62992D02*
G03*
X141713Y-54528I0J8465D01*
G01*
Y-73425D02*
G03*
X133248Y-64961I-8465J-0D01*
G01*
X141713Y-42323D02*
G03*
X133248Y-33858I-8465J0D01*
G01*
X152539Y-64961D02*
G03*
X144075Y-73425I-0J-8465D01*
G01*
Y-54528D02*
G03*
X152539Y-62992I8465J0D01*
G01*
X144075Y-85630D02*
G03*
X152539Y-94095I8465J0D01*
G01*
Y-96063D02*
G03*
X144075Y-104528I0J-8465D01*
G01*
Y-116732D02*
G03*
X152539Y-125197I8465J0D01*
G01*
X144075Y-147835D02*
G03*
X152539Y-156299I8465J0D01*
G01*
Y-127165D02*
G03*
X144075Y-135630I0J-8465D01*
G01*
X-140472Y-29528D02*
G03*
X-132008Y-21063I0J8465D01*
G01*
X-129646D02*
G03*
X-121181Y-29528I8465J0D01*
G01*
X-167736Y-21063D02*
G03*
X-159272Y-29528I8465J0D01*
G01*
X-26217D02*
G03*
X-17736Y-21063I16J8465D01*
G01*
X-53465Y-21063D02*
G03*
X-45000Y-29528I8465J0D01*
G01*
X26177Y-394D02*
G03*
X17697Y-8858I-16J-8465D01*
G01*
Y-21063D02*
G03*
X26162Y-29528I8465J0D01*
G01*
X-83091Y-394D02*
G03*
X-91555Y-8858I-0J-8465D01*
G01*
X-93917D02*
G03*
X-102382Y-394I-8465J-0D01*
G01*
X-55827Y-8858D02*
G03*
X-64291Y-394I-8465J-0D01*
G01*
X-121181D02*
G03*
X-129646Y-8858I-0J-8465D01*
G01*
X-132008D02*
G03*
X-140472Y-394I-8465J-0D01*
G01*
X-45015Y-394D02*
G03*
X-53465Y-8858I15J-8465D01*
G01*
X-159272Y-394D02*
G03*
X-167736Y-8858I-0J-8465D01*
G01*
X-17736Y-8858D02*
G03*
X-26201Y-394I-8465J0D01*
G01*
X-29350Y-33858D02*
G03*
X-37815Y-42323I0J-8465D01*
G01*
X-40177Y-42323D02*
G03*
X-48642Y-33858I-8465J0D01*
G01*
X-3366D02*
G03*
X-11831Y-42323I0J-8465D01*
G01*
X11791D02*
G03*
X3327Y-33858I-8465J0D01*
G01*
X-14193Y-42323D02*
G03*
X-22658Y-33858I-8465J0D01*
G01*
X53425Y-8858D02*
G03*
X44961Y-394I-8465J-0D01*
G01*
X44976Y-29528D02*
G03*
X53425Y-21063I-15J8465D01*
G01*
X55787D02*
G03*
X64252Y-29528I8465J0D01*
G01*
X91516Y-8858D02*
G03*
X83051Y-394I-8465J-0D01*
G01*
X64252D02*
G03*
X55787Y-8858I-0J-8465D01*
G01*
X83051Y-29528D02*
G03*
X91516Y-21063I0J8465D01*
G01*
X-81319Y-33858D02*
G03*
X-89784Y-42323I0J-8465D01*
G01*
X-66161Y-42323D02*
G03*
X-74626Y-33858I-8465J0D01*
G01*
X-55335D02*
G03*
X-63799Y-42323I0J-8465D01*
G01*
X-64291Y-29528D02*
G03*
X-55827Y-21063I0J8465D01*
G01*
X-92146Y-42323D02*
G03*
X-100610Y-33858I-8465J0D01*
G01*
X-102382Y-29528D02*
G03*
X-93917Y-21063I0J8465D01*
G01*
X-91555D02*
G03*
X-83091Y-29528I8465J0D01*
G01*
X121142D02*
G03*
X129606Y-21063I0J8465D01*
G01*
X93878D02*
G03*
X102342Y-29528I8465J0D01*
G01*
X140433Y-394D02*
G03*
X131968Y-8858I-0J-8465D01*
G01*
X131968Y-21063D02*
G03*
X140433Y-29528I8465J0D01*
G01*
X102342Y-394D02*
G03*
X93878Y-8858I-0J-8465D01*
G01*
X129606D02*
G03*
X121142Y-394I-8465J-0D01*
G01*
X159232Y-29528D02*
G03*
X167697Y-21063I0J8465D01*
G01*
X167697Y-8858D02*
G03*
X159232Y-394I-8465J-0D01*
G01*
X167697Y-42323D02*
G03*
X159232Y-33858I-8465J0D01*
G01*
X-107303D02*
G03*
X-115768Y-42323I0J-8465D01*
G01*
X-133287Y-33858D02*
G03*
X-141752Y-42323I0J-8465D01*
G01*
X-144114D02*
G03*
X-152579Y-33858I-8465J0D01*
G01*
X-159272D02*
G03*
X-167736Y-42323I0J-8465D01*
G01*
X-118130D02*
G03*
X-126594Y-33858I-8465J0D01*
G01*
X-194883Y-196850D02*
G03*
X-187008Y-204725I7875J0D01*
G01*
X187008D02*
G03*
X194883Y-196850I0J7875D01*
G01*
Y3937D02*
G03*
X187008Y11812I-7875J0D01*
G01*
X-187008D02*
G03*
X-194883Y3937I0J-7875D01*
G01*
X40138Y-147835D02*
Y-135630D01*
X74587Y-125197D02*
X81279D01*
X48602D02*
X55295D01*
X74587Y-156299D02*
X81279D01*
X74587Y-127165D02*
X81279D01*
X48602D02*
X55295D01*
X48602Y-156299D02*
X55295D01*
X63760Y-147835D02*
Y-135630D01*
X66122Y-147835D02*
Y-135630D01*
X40138Y-116732D02*
Y-104528D01*
X48602Y-96063D02*
X55295D01*
X40138Y-85630D02*
Y-73425D01*
X37776Y-85630D02*
Y-73425D01*
X48602Y-94095D02*
X55295D01*
X37776Y-116732D02*
Y-104528D01*
X74587Y-94095D02*
X81279D01*
X63760Y-116732D02*
Y-104528D01*
Y-85630D02*
Y-73425D01*
X66122Y-85630D02*
Y-73425D01*
X74587Y-96063D02*
X81279D01*
X66122Y-116732D02*
Y-104528D01*
X92106Y-147835D02*
Y-135630D01*
X89744Y-116732D02*
Y-104528D01*
Y-147835D02*
Y-135630D01*
Y-85630D02*
Y-73425D01*
X92106Y-85630D02*
Y-73425D01*
Y-116732D02*
Y-104528D01*
X40138Y-54528D02*
Y-42323D01*
X66122Y-54528D02*
Y-42323D01*
X89744Y-54528D02*
Y-42323D01*
X37776Y-54528D02*
Y-42323D01*
X63760Y-54528D02*
Y-42323D01*
X48602Y-33858D02*
X55295D01*
X22618D02*
X29311D01*
X74587D02*
X81279D01*
X22618Y-62992D02*
X29311D01*
X48602Y-64961D02*
X55295D01*
X74587Y-62992D02*
X81279D01*
X48602D02*
X55295D01*
X74587Y-64961D02*
X81279D01*
X22618D02*
X29311D01*
X22618Y-125197D02*
X29311D01*
X22618Y-94095D02*
X29311D01*
X22618Y-127165D02*
X29311D01*
X22618Y-96063D02*
X29311D01*
X22618Y-156299D02*
X29311D01*
X37776Y-147835D02*
Y-135630D01*
X14153Y-54528D02*
Y-42323D01*
Y-116732D02*
Y-104528D01*
Y-147835D02*
Y-135630D01*
Y-85630D02*
Y-73425D01*
X-37815Y-85630D02*
Y-73425D01*
X-40177Y-85630D02*
Y-73425D01*
X-29350Y-94095D02*
X-22658D01*
X-29350Y-96063D02*
X-22658D01*
X-37815Y-116732D02*
Y-104528D01*
X-29350Y-125197D02*
X-22658D01*
X-40177Y-116732D02*
Y-104528D01*
X-159272Y-64961D02*
X-152579D01*
X-159272Y-94095D02*
X-152579D01*
X-159272Y-62992D02*
X-152579D01*
X-167736Y-85630D02*
Y-73425D01*
X-107303Y-94095D02*
X-100610D01*
X-92146Y-116732D02*
Y-104528D01*
X-107303Y-96063D02*
X-100610D01*
X-89784Y-116732D02*
Y-104528D01*
X-107303Y-125197D02*
X-100610D01*
X-11831Y-116732D02*
Y-104528D01*
Y-85630D02*
Y-73425D01*
X-14193Y-85630D02*
Y-73425D01*
Y-116732D02*
Y-104528D01*
X-159272Y-96063D02*
X-152579D01*
X-167736Y-116732D02*
Y-104528D01*
X-159272Y-125197D02*
X-152579D01*
X-144114Y-116732D02*
Y-104528D01*
X-107303Y-64961D02*
X-100610D01*
X-92146Y-85630D02*
Y-73425D01*
X-89784Y-85630D02*
Y-73425D01*
X-107303Y-62992D02*
X-100610D01*
X-133287Y-96063D02*
X-126594D01*
X-133287Y-125197D02*
X-126594D01*
X-141752Y-116732D02*
Y-104528D01*
X-118130Y-116732D02*
Y-104528D01*
X-115768Y-116732D02*
Y-104528D01*
X-133287Y-94095D02*
X-126594D01*
X-115768Y-85630D02*
Y-73425D01*
X-133287Y-62992D02*
X-126594D01*
X-118130Y-85630D02*
Y-73425D01*
X-144114Y-85630D02*
Y-73425D01*
X-133287Y-64961D02*
X-126594D01*
X-141752Y-85630D02*
Y-73425D01*
X-55335Y-62992D02*
X-48642D01*
X-29350D02*
X-22658D01*
X-29350Y-64961D02*
X-22658D01*
X-55335D02*
X-48642D01*
X-63799Y-116732D02*
Y-104528D01*
X-81319Y-96063D02*
X-74626D01*
X-55335D02*
X-48642D01*
X-55335Y-94095D02*
X-48642D01*
X-81319Y-125197D02*
X-74626D01*
X-55335D02*
X-48642D01*
X-66161Y-116732D02*
Y-104528D01*
X-81319Y-62992D02*
X-74626D01*
X-81319Y-64961D02*
X-74626D01*
X-81319Y-94095D02*
X-74626D01*
X-63799Y-85630D02*
Y-73425D01*
X-66161Y-85630D02*
Y-73425D01*
X-3366Y-125197D02*
X3327D01*
X11791Y-116732D02*
Y-104528D01*
X-3366Y-96063D02*
X3327D01*
X-3366Y-94095D02*
X3327D01*
X-3366Y-62992D02*
X3327D01*
X-3366Y-64961D02*
X3327D01*
X11791Y-85630D02*
Y-73425D01*
X-81319Y-156299D02*
X-74626D01*
X-81319Y-158268D02*
X-74626D01*
X-89784Y-178937D02*
Y-166732D01*
X-107303Y-158268D02*
X-100610D01*
X-63799Y-178937D02*
Y-166732D01*
X-92146Y-178937D02*
Y-166732D01*
X-115768Y-178937D02*
Y-166732D01*
X-66161Y-178937D02*
Y-166732D01*
X-81319Y-127165D02*
X-74626D01*
X-40177Y-147835D02*
Y-135630D01*
X-63799Y-147835D02*
Y-135630D01*
X-66161Y-147835D02*
Y-135630D01*
X-55335Y-127165D02*
X-48642D01*
X-115374Y-147835D02*
Y-135630D01*
X-107303Y-127559D02*
X-100610D01*
X-107303Y-155905D02*
X-100610D01*
X-89784Y-147835D02*
Y-135630D01*
X-92539Y-147835D02*
Y-135630D01*
X-133287Y-158268D02*
X-126594D01*
X-133287Y-127165D02*
X-126594D01*
X-141752Y-178937D02*
Y-166732D01*
X-118130Y-178937D02*
Y-166732D01*
X-141752Y-147835D02*
Y-135630D01*
X-144114Y-178937D02*
Y-166732D01*
X-118130Y-147835D02*
Y-135630D01*
X-144114Y-147835D02*
Y-135630D01*
X-133287Y-156299D02*
X-126594D01*
X-37815Y-147835D02*
Y-135630D01*
X-29350Y-127165D02*
X-22658D01*
X-3366D02*
X3327D01*
X11791Y-147835D02*
Y-135630D01*
X-11831Y-147835D02*
Y-135630D01*
X-14193Y-147835D02*
Y-135630D01*
X-55335Y-158268D02*
X55295D01*
X-3366Y-156299D02*
X3327D01*
X-29350D02*
X-22658D01*
X-55335D02*
X-48642D01*
X141713Y-178937D02*
Y-166732D01*
X118091Y-178937D02*
Y-166732D01*
X167697Y-147835D02*
Y-135630D01*
X144075Y-178937D02*
Y-166732D01*
X152539Y-158268D02*
X159232D01*
X126555D02*
X133248D01*
X167697Y-178937D02*
Y-166732D01*
X74587Y-158268D02*
X81279D01*
X100571D02*
X107264D01*
X66122Y-178937D02*
Y-166732D01*
X89744Y-178937D02*
Y-166732D01*
X92106Y-178937D02*
Y-166732D01*
X63760Y-178937D02*
Y-166732D01*
X115728Y-178937D02*
Y-166732D01*
X74587Y-187402D02*
X81279D01*
X167697Y-116732D02*
Y-104528D01*
X152539Y-187402D02*
X159232D01*
X-55335D02*
X55295D01*
X-81319D02*
X-74626D01*
X-133287D02*
X-126594D01*
X-159272Y-158268D02*
X-152579D01*
X-167736Y-178937D02*
Y-166732D01*
X-159272Y-187402D02*
X-152579D01*
X100571D02*
X107264D01*
X126555D02*
X133248D01*
X167697Y-85630D02*
Y-73425D01*
X-159272Y-156299D02*
X-152579D01*
X-159272Y-127165D02*
X-152579D01*
X-167736Y-147835D02*
Y-135630D01*
X-107303Y-187402D02*
X-100610D01*
X100571Y-127165D02*
X107264D01*
X100571Y-125197D02*
X107264D01*
X100571Y-156299D02*
X107264D01*
X126555Y-96063D02*
X133248D01*
X126555Y-94095D02*
X133248D01*
X126555Y-125197D02*
X133248D01*
X126555Y-127165D02*
X133248D01*
X126555Y-156299D02*
X133248D01*
X100571Y-96063D02*
X107264D01*
X100571Y-94095D02*
X107264D01*
X118091Y-85630D02*
Y-73425D01*
X115728Y-116732D02*
Y-104528D01*
X118091Y-147835D02*
Y-135630D01*
Y-116732D02*
Y-104528D01*
X115728Y-147835D02*
Y-135630D01*
Y-85630D02*
Y-73425D01*
X100571Y-64961D02*
X107264D01*
X118091Y-54528D02*
Y-42323D01*
X100571Y-33858D02*
X107264D01*
X115728Y-54528D02*
Y-42323D01*
X100571Y-62992D02*
X107264D01*
X92106Y-54528D02*
Y-42323D01*
X141713Y-116732D02*
Y-104528D01*
Y-85630D02*
Y-73425D01*
X144075Y-116732D02*
Y-104528D01*
Y-85630D02*
Y-73425D01*
Y-147835D02*
Y-135630D01*
X141713Y-147835D02*
Y-135630D01*
X126555Y-33858D02*
X133248D01*
X126555Y-62992D02*
X133248D01*
X152539D02*
X159232D01*
X126555Y-64961D02*
X133248D01*
X141713Y-54528D02*
Y-42323D01*
X152539Y-33858D02*
X159232D01*
X144075Y-54528D02*
Y-42323D01*
X152539Y-64961D02*
X159232D01*
X152539Y-156299D02*
X159232D01*
X152539Y-125197D02*
X159232D01*
X152539Y-96063D02*
X159232D01*
X152539Y-127165D02*
X159232D01*
X152539Y-94095D02*
X159232D01*
X-132008Y-21063D02*
Y-8858D01*
X-167736Y-21063D02*
Y-8858D01*
X-129646Y-21063D02*
Y-8858D01*
X-89784Y-54528D02*
Y-42323D01*
X-167736Y-54528D02*
Y-42323D01*
X-144114Y-54528D02*
Y-42323D01*
X-141752Y-54528D02*
Y-42323D01*
X-115768Y-54528D02*
Y-42323D01*
X-92146Y-54528D02*
Y-42323D01*
X-63799Y-54528D02*
Y-42323D01*
X-66161Y-54528D02*
Y-42323D01*
X-118130Y-54528D02*
Y-42323D01*
X-53465Y-21063D02*
Y-8858D01*
X-17736Y-21063D02*
Y-8858D01*
X-45000Y-29528D02*
X-26217D01*
X26162D02*
X44976Y-29528D01*
X26177Y-394D02*
X44961D01*
X17697Y-21063D02*
Y-8858D01*
X-83091Y-394D02*
X-64291D01*
X-45015Y-394D02*
X-26201Y-394D01*
X-121181D02*
X-102382D01*
X-159272D02*
X-140472D01*
X-55335Y-33858D02*
X-48642D01*
X-37815Y-54528D02*
Y-42323D01*
X-40177Y-54528D02*
Y-42323D01*
X-29350Y-33858D02*
X-22658D01*
X11791Y-54528D02*
Y-42323D01*
X-3366Y-33858D02*
X3327D01*
X-14193Y-54528D02*
Y-42323D01*
X-11831Y-54528D02*
Y-42323D01*
X64252Y-29528D02*
X83051D01*
X64252Y-394D02*
X83051D01*
X55787Y-21063D02*
Y-8858D01*
X91516Y-21063D02*
Y-8858D01*
X53425Y-21063D02*
Y-8858D01*
X-55827Y-21063D02*
Y-8858D01*
X-93917Y-21063D02*
Y-8858D01*
X-83091Y-29528D02*
X-64291D01*
X-91555Y-21063D02*
Y-8858D01*
X-81319Y-33858D02*
X-74626D01*
X102342Y-29528D02*
X121142D01*
X102342Y-394D02*
X121142D01*
X129606Y-21063D02*
Y-8858D01*
X93878Y-21063D02*
Y-8858D01*
X131968Y-21063D02*
Y-8858D01*
X167697Y-54528D02*
Y-42323D01*
X140433Y-394D02*
X159232D01*
X167697Y-21063D02*
Y-8858D01*
X140433Y-29528D02*
X159232D01*
X-107303Y-33858D02*
X-100610D01*
X-159272D02*
X-152579D01*
X-121181Y-29528D02*
X-102382D01*
X-159272D02*
X-140472D01*
X-133287Y-33858D02*
X-126594D01*
X-194882Y-196850D02*
X-194882Y3938D01*
X-187009Y-204724D02*
X187009D01*
X194882Y-196850D02*
X194882Y3937D01*
X-187009Y11811D02*
X187008D01*
D12*
X-11811Y-15748D02*
D03*
X11811D02*
D03*
D13*
X324Y-26089D02*
D03*
D14*
X-116Y-5424D02*
D03*
D15*
X185039Y-161417D02*
D03*
Y-17717D02*
D03*
X-185039Y-161417D02*
D03*
Y-17717D02*
D03*
M02*
