G04*
G04 #@! TF.GenerationSoftware,Altium Limited,Altium Designer,24.6.1 (21)*
G04*
G04 Layer_Color=8388736*
%FSLAX25Y25*%
%MOIN*%
G70*
G04*
G04 #@! TF.SameCoordinates,2EFCF5D3-F3DF-4BA1-BCA7-63EA5DCA57C7*
G04*
G04*
G04 #@! TF.FilePolarity,Positive*
G04*
G01*
G75*
%ADD10C,0.00394*%
%ADD16C,0.01000*%
%ADD17C,0.00984*%
%ADD18C,0.00600*%
D10*
X40138Y-116732D02*
G03*
X48602Y-125197I8465J-0D01*
G01*
X40138Y-147835D02*
G03*
X48602Y-156299I8465J-0D01*
G01*
X66122Y-116732D02*
G03*
X74587Y-125197I8465J-0D01*
G01*
X55295D02*
G03*
X63760Y-116732I-0J8465D01*
G01*
X48602Y-127165D02*
G03*
X40138Y-135630I0J-8465D01*
G01*
X66122Y-147835D02*
G03*
X74587Y-156299I8465J-0D01*
G01*
Y-127165D02*
G03*
X66122Y-135630I0J-8465D01*
G01*
X63760D02*
G03*
X55295Y-127165I-8465J0D01*
G01*
Y-156299D02*
G03*
X63760Y-147835I-0J8465D01*
G01*
X48602Y-96063D02*
G03*
X40138Y-104528I0J-8465D01*
G01*
Y-85630D02*
G03*
X48602Y-94095I8465J0D01*
G01*
X55295D02*
G03*
X63760Y-85630I0J8465D01*
G01*
X74587Y-96063D02*
G03*
X66122Y-104528I0J-8465D01*
G01*
X63760D02*
G03*
X55295Y-96063I-8465J0D01*
G01*
X66122Y-85630D02*
G03*
X74587Y-94095I8465J0D01*
G01*
X89744Y-135630D02*
G03*
X81279Y-127165I-8465J0D01*
G01*
X81279Y-94095D02*
G03*
X89744Y-85630I0J8465D01*
G01*
X81279Y-125197D02*
G03*
X89744Y-116732I-0J8465D01*
G01*
X81279Y-156299D02*
G03*
X89744Y-147835I-0J8465D01*
G01*
Y-104528D02*
G03*
X81279Y-96063I-8465J0D01*
G01*
X89744Y-42323D02*
G03*
X81279Y-33858I-8465J0D01*
G01*
X63760Y-42323D02*
G03*
X55295Y-33858I-8465J0D01*
G01*
X48602D02*
G03*
X40138Y-42323I0J-8465D01*
G01*
X37776Y-42323D02*
G03*
X29311Y-33858I-8465J0D01*
G01*
X74587D02*
G03*
X66122Y-42323I0J-8465D01*
G01*
X37776Y-73425D02*
G03*
X29311Y-64961I-8465J-0D01*
G01*
X89744Y-73425D02*
G03*
X81279Y-64961I-8465J0D01*
G01*
X40138Y-54528D02*
G03*
X48602Y-62992I8465J0D01*
G01*
X55295D02*
G03*
X63760Y-54528I0J8465D01*
G01*
X48602Y-64961D02*
G03*
X40138Y-73425I0J-8465D01*
G01*
X29311Y-62992D02*
G03*
X37776Y-54528I0J8465D01*
G01*
X63760Y-73425D02*
G03*
X55295Y-64961I-8465J0D01*
G01*
X74587D02*
G03*
X66122Y-73425I0J-8465D01*
G01*
Y-54528D02*
G03*
X74587Y-62992I8465J0D01*
G01*
X81279D02*
G03*
X89744Y-54528I0J8465D01*
G01*
X29311Y-125197D02*
G03*
X37776Y-116732I0J8465D01*
G01*
Y-104528D02*
G03*
X29311Y-96063I-8465J0D01*
G01*
Y-156299D02*
G03*
X37776Y-147835I0J8465D01*
G01*
X29311Y-94095D02*
G03*
X37776Y-85630I0J8465D01*
G01*
Y-135630D02*
G03*
X29311Y-127165I-8465J0D01*
G01*
X14153Y-147835D02*
G03*
X22618Y-156299I8465J0D01*
G01*
Y-127165D02*
G03*
X14153Y-135630I0J-8465D01*
G01*
X22618Y-96063D02*
G03*
X14153Y-104528I0J-8465D01*
G01*
Y-85630D02*
G03*
X22618Y-94095I8465J0D01*
G01*
X14153Y-116732D02*
G03*
X22618Y-125197I8465J0D01*
G01*
Y-33858D02*
G03*
X14153Y-42323I0J-8465D01*
G01*
Y-54528D02*
G03*
X22618Y-62992I8465J0D01*
G01*
Y-64961D02*
G03*
X14153Y-73425I-0J-8465D01*
G01*
X-37815Y-85630D02*
G03*
X-29350Y-94095I8465J0D01*
G01*
Y-96063D02*
G03*
X-37815Y-104528I0J-8465D01*
G01*
Y-116732D02*
G03*
X-29350Y-125197I8465J0D01*
G01*
X-159272Y-64961D02*
G03*
X-167736Y-73425I-0J-8465D01*
G01*
Y-54528D02*
G03*
X-159272Y-62992I8465J0D01*
G01*
X-167736Y-85630D02*
G03*
X-159272Y-94095I8465J0D01*
G01*
X-152579Y-94095D02*
G03*
X-144114Y-85630I0J8465D01*
G01*
X-89784Y-116732D02*
G03*
X-81319Y-125197I8465J-0D01*
G01*
X-89784Y-85630D02*
G03*
X-81319Y-94095I8465J0D01*
G01*
X-81319Y-96063D02*
G03*
X-89784Y-104528I0J-8465D01*
G01*
X-92146D02*
G03*
X-100610Y-96063I-8465J0D01*
G01*
Y-125197D02*
G03*
X-92146Y-116732I0J8465D01*
G01*
X-100610Y-94095D02*
G03*
X-92146Y-85630I0J8465D01*
G01*
X-11831Y-54528D02*
G03*
X-3366Y-62992I8465J0D01*
G01*
Y-64961D02*
G03*
X-11831Y-73425I-0J-8465D01*
G01*
X-3366Y-96063D02*
G03*
X-11831Y-104528I0J-8465D01*
G01*
Y-116732D02*
G03*
X-3366Y-125197I8465J0D01*
G01*
X-11831Y-85630D02*
G03*
X-3366Y-94095I8465J0D01*
G01*
X-22658Y-125197D02*
G03*
X-14193Y-116732I0J8465D01*
G01*
X-22658Y-94095D02*
G03*
X-14193Y-85630I0J8465D01*
G01*
Y-104528D02*
G03*
X-22658Y-96063I-8465J0D01*
G01*
X-144114Y-104528D02*
G03*
X-152579Y-96063I-8465J0D01*
G01*
X-167736Y-116732D02*
G03*
X-159272Y-125197I8465J0D01*
G01*
Y-96063D02*
G03*
X-167736Y-104528I0J-8465D01*
G01*
X-152579Y-125197D02*
G03*
X-144114Y-116732I0J8465D01*
G01*
X-100610Y-62992D02*
G03*
X-92146Y-54528I0J8465D01*
G01*
X-81319Y-64961D02*
G03*
X-89784Y-73425I0J-8465D01*
G01*
X-92146Y-73425D02*
G03*
X-100610Y-64961I-8465J-0D01*
G01*
X-89784Y-54528D02*
G03*
X-81319Y-62992I8465J0D01*
G01*
X-141752Y-116732D02*
G03*
X-133287Y-125197I8465J0D01*
G01*
X-115768Y-85630D02*
G03*
X-107303Y-94095I8465J0D01*
G01*
X-126594D02*
G03*
X-118130Y-85630I0J8465D01*
G01*
X-141752Y-85630D02*
G03*
X-133287Y-94095I8465J0D01*
G01*
X-107303Y-96063D02*
G03*
X-115768Y-104528I0J-8465D01*
G01*
X-133287Y-96063D02*
G03*
X-141752Y-104528I0J-8465D01*
G01*
X-126594Y-125197D02*
G03*
X-118130Y-116732I0J8465D01*
G01*
Y-104528D02*
G03*
X-126594Y-96063I-8465J0D01*
G01*
X-115768Y-116732D02*
G03*
X-107303Y-125197I8465J0D01*
G01*
X-126594Y-62992D02*
G03*
X-118130Y-54528I0J8465D01*
G01*
Y-73425D02*
G03*
X-126594Y-64961I-8465J-0D01*
G01*
X-133287D02*
G03*
X-141752Y-73425I-0J-8465D01*
G01*
X-144114D02*
G03*
X-152579Y-64961I-8465J-0D01*
G01*
Y-62992D02*
G03*
X-144114Y-54528I0J8465D01*
G01*
X-107303Y-64961D02*
G03*
X-115768Y-73425I-0J-8465D01*
G01*
X-141752Y-54528D02*
G03*
X-133287Y-62992I8465J0D01*
G01*
X-115768Y-54528D02*
G03*
X-107303Y-62992I8465J0D01*
G01*
X-48642Y-62992D02*
G03*
X-40177Y-54528I0J8465D01*
G01*
Y-73425D02*
G03*
X-48642Y-64961I-8465J0D01*
G01*
X-37815Y-54528D02*
G03*
X-29350Y-62992I8465J0D01*
G01*
X-14193Y-73425D02*
G03*
X-22658Y-64961I-8465J-0D01*
G01*
Y-62992D02*
G03*
X-14193Y-54528I0J8465D01*
G01*
X-29350Y-64961D02*
G03*
X-37815Y-73425I-0J-8465D01*
G01*
X-63799Y-116732D02*
G03*
X-55335Y-125197I8465J-0D01*
G01*
X-74626D02*
G03*
X-66161Y-116732I-0J8465D01*
G01*
X-40177Y-104528D02*
G03*
X-48642Y-96063I-8465J0D01*
G01*
X-55335D02*
G03*
X-63799Y-104528I0J-8465D01*
G01*
X-66161Y-104528D02*
G03*
X-74626Y-96063I-8465J0D01*
G01*
X-48642Y-94095D02*
G03*
X-40177Y-85630I0J8465D01*
G01*
X-48642Y-125197D02*
G03*
X-40177Y-116732I-0J8465D01*
G01*
X-55335Y-64961D02*
G03*
X-63799Y-73425I0J-8465D01*
G01*
X-74626Y-94095D02*
G03*
X-66161Y-85630I0J8465D01*
G01*
X-74626Y-62992D02*
G03*
X-66161Y-54528I0J8465D01*
G01*
Y-73425D02*
G03*
X-74626Y-64961I-8465J0D01*
G01*
X-63799Y-85630D02*
G03*
X-55335Y-94095I8465J0D01*
G01*
X-63799Y-54528D02*
G03*
X-55335Y-62992I8465J0D01*
G01*
X3327Y-94095D02*
G03*
X11791Y-85630I0J8465D01*
G01*
X3327Y-62992D02*
G03*
X11791Y-54528I0J8465D01*
G01*
Y-73425D02*
G03*
X3327Y-64961I-8465J-0D01*
G01*
X3327Y-125197D02*
G03*
X11791Y-116732I0J8465D01*
G01*
Y-104528D02*
G03*
X3327Y-96063I-8465J0D01*
G01*
X-92146Y-166732D02*
G03*
X-100610Y-158268I-8465J0D01*
G01*
X-55335D02*
G03*
X-63799Y-166732I0J-8465D01*
G01*
X-107303Y-158268D02*
G03*
X-115768Y-166732I0J-8465D01*
G01*
X-66161Y-166732D02*
G03*
X-74626Y-158268I-8465J0D01*
G01*
X-81319Y-158268D02*
G03*
X-89784Y-166732I0J-8465D01*
G01*
X-66161Y-135630D02*
G03*
X-74626Y-127165I-8465J0D01*
G01*
X-40177Y-135630D02*
G03*
X-48642Y-127165I-8465J0D01*
G01*
X-55335D02*
G03*
X-63799Y-135630I0J-8465D01*
G01*
X-115374Y-147835D02*
G03*
X-107303Y-155905I8071J0D01*
G01*
Y-127559D02*
G03*
X-115374Y-135630I0J-8071D01*
G01*
X-89784Y-147835D02*
G03*
X-81319Y-156299I8465J-0D01*
G01*
X-100610Y-155905D02*
G03*
X-92539Y-147835I0J8071D01*
G01*
X-81319Y-127165D02*
G03*
X-89784Y-135630I0J-8465D01*
G01*
X-92539D02*
G03*
X-100610Y-127559I-8071J0D01*
G01*
X-118130Y-166732D02*
G03*
X-126594Y-158268I-8465J0D01*
G01*
X-133287D02*
G03*
X-141752Y-166732I0J-8465D01*
G01*
X-118130Y-135630D02*
G03*
X-126594Y-127165I-8465J0D01*
G01*
X-141752Y-147835D02*
G03*
X-133287Y-156299I8465J0D01*
G01*
Y-127165D02*
G03*
X-141752Y-135630I0J-8465D01*
G01*
X-126594Y-156299D02*
G03*
X-118130Y-147835I0J8465D01*
G01*
X-14193Y-135630D02*
G03*
X-22658Y-127165I-8465J0D01*
G01*
X-29350D02*
G03*
X-37815Y-135630I0J-8465D01*
G01*
X-3366Y-127165D02*
G03*
X-11831Y-135630I0J-8465D01*
G01*
X11791D02*
G03*
X3327Y-127165I-8465J0D01*
G01*
Y-156299D02*
G03*
X11791Y-147835I0J8465D01*
G01*
X-11831D02*
G03*
X-3366Y-156299I8465J0D01*
G01*
X-22658D02*
G03*
X-14193Y-147835I0J8465D01*
G01*
X-63799Y-147835D02*
G03*
X-55335Y-156299I8465J-0D01*
G01*
X-37815Y-147835D02*
G03*
X-29350Y-156299I8465J0D01*
G01*
X-48642D02*
G03*
X-40177Y-147835I-0J8465D01*
G01*
X-74626Y-156299D02*
G03*
X-66161Y-147835I-0J8465D01*
G01*
X141713Y-166732D02*
G03*
X133248Y-158268I-8465J0D01*
G01*
X126555D02*
G03*
X118091Y-166732I0J-8465D01*
G01*
X159232Y-156299D02*
G03*
X167697Y-147835I0J8465D01*
G01*
Y-135630D02*
G03*
X159232Y-127165I-8465J0D01*
G01*
Y-125197D02*
G03*
X167697Y-116732I0J8465D01*
G01*
X152539Y-158268D02*
G03*
X144075Y-166732I0J-8465D01*
G01*
X167697D02*
G03*
X159232Y-158268I-8465J0D01*
G01*
X74587D02*
G03*
X66122Y-166732I0J-8465D01*
G01*
X63760D02*
G03*
X55295Y-158268I-8465J0D01*
G01*
X115728Y-166732D02*
G03*
X107264Y-158268I-8465J0D01*
G01*
X100571D02*
G03*
X92106Y-166732I0J-8465D01*
G01*
X89744D02*
G03*
X81279Y-158268I-8465J0D01*
G01*
X55295Y-187402D02*
G03*
X63760Y-178937I-0J8465D01*
G01*
X159232Y-187402D02*
G03*
X167697Y-178937I0J8465D01*
G01*
X144075D02*
G03*
X152539Y-187402I8465J0D01*
G01*
X66122Y-178937D02*
G03*
X74587Y-187402I8465J-0D01*
G01*
X-74626D02*
G03*
X-66161Y-178937I-0J8465D01*
G01*
X-63799Y-178937D02*
G03*
X-55335Y-187402I8465J-0D01*
G01*
X-159272Y-158268D02*
G03*
X-167736Y-166732I0J-8465D01*
G01*
Y-178937D02*
G03*
X-159272Y-187402I8465J0D01*
G01*
X-141752Y-178937D02*
G03*
X-133287Y-187402I8465J0D01*
G01*
X-152579D02*
G03*
X-144114Y-178937I0J8465D01*
G01*
X-126594Y-187402D02*
G03*
X-118130Y-178937I0J8465D01*
G01*
X-144114Y-166732D02*
G03*
X-152579Y-158268I-8465J0D01*
G01*
X81279Y-187402D02*
G03*
X89744Y-178937I-0J8465D01*
G01*
X92106D02*
G03*
X100571Y-187402I8465J0D01*
G01*
X107264D02*
G03*
X115728Y-178937I0J8465D01*
G01*
X133248Y-187402D02*
G03*
X141713Y-178937I0J8465D01*
G01*
X118091D02*
G03*
X126555Y-187402I8465J0D01*
G01*
X159232Y-62992D02*
G03*
X167697Y-54528I0J8465D01*
G01*
Y-104528D02*
G03*
X159232Y-96063I-8465J0D01*
G01*
X159232Y-94095D02*
G03*
X167697Y-85630I0J8465D01*
G01*
Y-73425D02*
G03*
X159232Y-64961I-8465J-0D01*
G01*
X-159272Y-127165D02*
G03*
X-167736Y-135630I0J-8465D01*
G01*
X-152579Y-156299D02*
G03*
X-144114Y-147835I0J8465D01*
G01*
X-167736D02*
G03*
X-159272Y-156299I8465J0D01*
G01*
X-144114Y-135630D02*
G03*
X-152579Y-127165I-8465J0D01*
G01*
X-100610Y-187402D02*
G03*
X-92146Y-178937I0J8465D01*
G01*
X-89784D02*
G03*
X-81319Y-187402I8465J-0D01*
G01*
X-115768Y-178937D02*
G03*
X-107303Y-187402I8465J0D01*
G01*
X115728Y-135630D02*
G03*
X107264Y-127165I-8465J0D01*
G01*
Y-125197D02*
G03*
X115728Y-116732I0J8465D01*
G01*
X92106Y-147835D02*
G03*
X100571Y-156299I8465J0D01*
G01*
X92106Y-116732D02*
G03*
X100571Y-125197I8465J0D01*
G01*
Y-127165D02*
G03*
X92106Y-135630I0J-8465D01*
G01*
X107264Y-156299D02*
G03*
X115728Y-147835I0J8465D01*
G01*
X107264Y-94095D02*
G03*
X115728Y-85630I0J8465D01*
G01*
X115728Y-104528D02*
G03*
X107264Y-96063I-8465J0D01*
G01*
X100571D02*
G03*
X92106Y-104528I0J-8465D01*
G01*
X92106Y-85630D02*
G03*
X100571Y-94095I8465J0D01*
G01*
X118090Y-85630D02*
G03*
X126555Y-94095I8465J0D01*
G01*
Y-127165D02*
G03*
X118091Y-135630I0J-8465D01*
G01*
Y-147835D02*
G03*
X126555Y-156299I8465J0D01*
G01*
Y-96063D02*
G03*
X118091Y-104528I0J-8465D01*
G01*
Y-116732D02*
G03*
X126555Y-125197I8465J0D01*
G01*
X115728Y-42323D02*
G03*
X107264Y-33858I-8465J0D01*
G01*
X100571D02*
G03*
X92106Y-42323I0J-8465D01*
G01*
X92106Y-54528D02*
G03*
X100571Y-62992I8465J0D01*
G01*
X126555Y-64961D02*
G03*
X118090Y-73425I-0J-8465D01*
G01*
Y-54528D02*
G03*
X126555Y-62992I8465J0D01*
G01*
Y-33858D02*
G03*
X118091Y-42323I0J-8465D01*
G01*
X100571Y-64961D02*
G03*
X92106Y-73425I-0J-8465D01*
G01*
X115728D02*
G03*
X107264Y-64961I-8465J-0D01*
G01*
Y-62992D02*
G03*
X115728Y-54528I0J8465D01*
G01*
X133248Y-94095D02*
G03*
X141713Y-85630I0J8465D01*
G01*
X133248Y-156299D02*
G03*
X141713Y-147835I0J8465D01*
G01*
Y-135630D02*
G03*
X133248Y-127165I-8465J0D01*
G01*
X141713Y-104528D02*
G03*
X133248Y-96063I-8465J0D01*
G01*
Y-125197D02*
G03*
X141713Y-116732I0J8465D01*
G01*
X152539Y-33858D02*
G03*
X144075Y-42323I0J-8465D01*
G01*
X133248Y-62992D02*
G03*
X141713Y-54528I0J8465D01*
G01*
Y-73425D02*
G03*
X133248Y-64961I-8465J-0D01*
G01*
X141713Y-42323D02*
G03*
X133248Y-33858I-8465J0D01*
G01*
X152539Y-64961D02*
G03*
X144075Y-73425I-0J-8465D01*
G01*
Y-54528D02*
G03*
X152539Y-62992I8465J0D01*
G01*
X144075Y-85630D02*
G03*
X152539Y-94095I8465J0D01*
G01*
Y-96063D02*
G03*
X144075Y-104528I0J-8465D01*
G01*
Y-116732D02*
G03*
X152539Y-125197I8465J0D01*
G01*
X144075Y-147835D02*
G03*
X152539Y-156299I8465J0D01*
G01*
Y-127165D02*
G03*
X144075Y-135630I0J-8465D01*
G01*
X-140472Y-29528D02*
G03*
X-132008Y-21063I0J8465D01*
G01*
X-129646D02*
G03*
X-121181Y-29528I8465J0D01*
G01*
X-167736Y-21063D02*
G03*
X-159272Y-29528I8465J0D01*
G01*
X-26217D02*
G03*
X-17736Y-21063I16J8465D01*
G01*
X-53465Y-21063D02*
G03*
X-45000Y-29528I8465J0D01*
G01*
X26177Y-394D02*
G03*
X17697Y-8858I-16J-8465D01*
G01*
Y-21063D02*
G03*
X26162Y-29528I8465J0D01*
G01*
X-83091Y-394D02*
G03*
X-91555Y-8858I-0J-8465D01*
G01*
X-93917D02*
G03*
X-102382Y-394I-8465J-0D01*
G01*
X-55827Y-8858D02*
G03*
X-64291Y-394I-8465J-0D01*
G01*
X-121181D02*
G03*
X-129646Y-8858I-0J-8465D01*
G01*
X-132008D02*
G03*
X-140472Y-394I-8465J-0D01*
G01*
X-45015Y-394D02*
G03*
X-53465Y-8858I15J-8465D01*
G01*
X-159272Y-394D02*
G03*
X-167736Y-8858I-0J-8465D01*
G01*
X-17736Y-8858D02*
G03*
X-26201Y-394I-8465J0D01*
G01*
X-29350Y-33858D02*
G03*
X-37815Y-42323I0J-8465D01*
G01*
X-40177Y-42323D02*
G03*
X-48642Y-33858I-8465J0D01*
G01*
X-3366D02*
G03*
X-11831Y-42323I0J-8465D01*
G01*
X11791D02*
G03*
X3327Y-33858I-8465J0D01*
G01*
X-14193Y-42323D02*
G03*
X-22658Y-33858I-8465J0D01*
G01*
X53425Y-8858D02*
G03*
X44961Y-394I-8465J-0D01*
G01*
X44976Y-29528D02*
G03*
X53425Y-21063I-15J8465D01*
G01*
X55787D02*
G03*
X64252Y-29528I8465J0D01*
G01*
X91516Y-8858D02*
G03*
X83051Y-394I-8465J-0D01*
G01*
X64252D02*
G03*
X55787Y-8858I-0J-8465D01*
G01*
X83051Y-29528D02*
G03*
X91516Y-21063I0J8465D01*
G01*
X-81319Y-33858D02*
G03*
X-89784Y-42323I0J-8465D01*
G01*
X-66161Y-42323D02*
G03*
X-74626Y-33858I-8465J0D01*
G01*
X-55335D02*
G03*
X-63799Y-42323I0J-8465D01*
G01*
X-64291Y-29528D02*
G03*
X-55827Y-21063I0J8465D01*
G01*
X-92146Y-42323D02*
G03*
X-100610Y-33858I-8465J0D01*
G01*
X-102382Y-29528D02*
G03*
X-93917Y-21063I0J8465D01*
G01*
X-91555D02*
G03*
X-83091Y-29528I8465J0D01*
G01*
X121142D02*
G03*
X129606Y-21063I0J8465D01*
G01*
X93878D02*
G03*
X102342Y-29528I8465J0D01*
G01*
X140433Y-394D02*
G03*
X131968Y-8858I-0J-8465D01*
G01*
X131968Y-21063D02*
G03*
X140433Y-29528I8465J0D01*
G01*
X102342Y-394D02*
G03*
X93878Y-8858I-0J-8465D01*
G01*
X129606D02*
G03*
X121142Y-394I-8465J-0D01*
G01*
X159232Y-29528D02*
G03*
X167697Y-21063I0J8465D01*
G01*
X167697Y-8858D02*
G03*
X159232Y-394I-8465J-0D01*
G01*
X167697Y-42323D02*
G03*
X159232Y-33858I-8465J0D01*
G01*
X-107303D02*
G03*
X-115768Y-42323I0J-8465D01*
G01*
X-133287Y-33858D02*
G03*
X-141752Y-42323I0J-8465D01*
G01*
X-144114D02*
G03*
X-152579Y-33858I-8465J0D01*
G01*
X-159272D02*
G03*
X-167736Y-42323I0J-8465D01*
G01*
X-118130D02*
G03*
X-126594Y-33858I-8465J0D01*
G01*
X-194883Y-196850D02*
G03*
X-187008Y-204725I7875J0D01*
G01*
X187008D02*
G03*
X194883Y-196850I0J7875D01*
G01*
Y3937D02*
G03*
X187008Y11812I-7875J0D01*
G01*
X-187008D02*
G03*
X-194883Y3937I0J-7875D01*
G01*
X40138Y-147835D02*
Y-135630D01*
X74587Y-125197D02*
X81279D01*
X48602D02*
X55295D01*
X74587Y-156299D02*
X81279D01*
X74587Y-127165D02*
X81279D01*
X48602D02*
X55295D01*
X48602Y-156299D02*
X55295D01*
X63760Y-147835D02*
Y-135630D01*
X66122Y-147835D02*
Y-135630D01*
X40138Y-116732D02*
Y-104528D01*
X48602Y-96063D02*
X55295D01*
X40138Y-85630D02*
Y-73425D01*
X37776Y-85630D02*
Y-73425D01*
X48602Y-94095D02*
X55295D01*
X37776Y-116732D02*
Y-104528D01*
X74587Y-94095D02*
X81279D01*
X63760Y-116732D02*
Y-104528D01*
Y-85630D02*
Y-73425D01*
X66122Y-85630D02*
Y-73425D01*
X74587Y-96063D02*
X81279D01*
X66122Y-116732D02*
Y-104528D01*
X92106Y-147835D02*
Y-135630D01*
X89744Y-116732D02*
Y-104528D01*
Y-147835D02*
Y-135630D01*
Y-85630D02*
Y-73425D01*
X92106Y-85630D02*
Y-73425D01*
Y-116732D02*
Y-104528D01*
X40138Y-54528D02*
Y-42323D01*
X66122Y-54528D02*
Y-42323D01*
X89744Y-54528D02*
Y-42323D01*
X37776Y-54528D02*
Y-42323D01*
X63760Y-54528D02*
Y-42323D01*
X48602Y-33858D02*
X55295D01*
X22618D02*
X29311D01*
X74587D02*
X81279D01*
X22618Y-62992D02*
X29311D01*
X48602Y-64961D02*
X55295D01*
X74587Y-62992D02*
X81279D01*
X48602D02*
X55295D01*
X74587Y-64961D02*
X81279D01*
X22618D02*
X29311D01*
X22618Y-125197D02*
X29311D01*
X22618Y-94095D02*
X29311D01*
X22618Y-127165D02*
X29311D01*
X22618Y-96063D02*
X29311D01*
X22618Y-156299D02*
X29311D01*
X37776Y-147835D02*
Y-135630D01*
X14153Y-54528D02*
Y-42323D01*
Y-116732D02*
Y-104528D01*
Y-147835D02*
Y-135630D01*
Y-85630D02*
Y-73425D01*
X-37815Y-85630D02*
Y-73425D01*
X-40177Y-85630D02*
Y-73425D01*
X-29350Y-94095D02*
X-22658D01*
X-29350Y-96063D02*
X-22658D01*
X-37815Y-116732D02*
Y-104528D01*
X-29350Y-125197D02*
X-22658D01*
X-40177Y-116732D02*
Y-104528D01*
X-159272Y-64961D02*
X-152579D01*
X-159272Y-94095D02*
X-152579D01*
X-159272Y-62992D02*
X-152579D01*
X-167736Y-85630D02*
Y-73425D01*
X-107303Y-94095D02*
X-100610D01*
X-92146Y-116732D02*
Y-104528D01*
X-107303Y-96063D02*
X-100610D01*
X-89784Y-116732D02*
Y-104528D01*
X-107303Y-125197D02*
X-100610D01*
X-11831Y-116732D02*
Y-104528D01*
Y-85630D02*
Y-73425D01*
X-14193Y-85630D02*
Y-73425D01*
Y-116732D02*
Y-104528D01*
X-159272Y-96063D02*
X-152579D01*
X-167736Y-116732D02*
Y-104528D01*
X-159272Y-125197D02*
X-152579D01*
X-144114Y-116732D02*
Y-104528D01*
X-107303Y-64961D02*
X-100610D01*
X-92146Y-85630D02*
Y-73425D01*
X-89784Y-85630D02*
Y-73425D01*
X-107303Y-62992D02*
X-100610D01*
X-133287Y-96063D02*
X-126594D01*
X-133287Y-125197D02*
X-126594D01*
X-141752Y-116732D02*
Y-104528D01*
X-118130Y-116732D02*
Y-104528D01*
X-115768Y-116732D02*
Y-104528D01*
X-133287Y-94095D02*
X-126594D01*
X-115768Y-85630D02*
Y-73425D01*
X-133287Y-62992D02*
X-126594D01*
X-118130Y-85630D02*
Y-73425D01*
X-144114Y-85630D02*
Y-73425D01*
X-133287Y-64961D02*
X-126594D01*
X-141752Y-85630D02*
Y-73425D01*
X-55335Y-62992D02*
X-48642D01*
X-29350D02*
X-22658D01*
X-29350Y-64961D02*
X-22658D01*
X-55335D02*
X-48642D01*
X-63799Y-116732D02*
Y-104528D01*
X-81319Y-96063D02*
X-74626D01*
X-55335D02*
X-48642D01*
X-55335Y-94095D02*
X-48642D01*
X-81319Y-125197D02*
X-74626D01*
X-55335D02*
X-48642D01*
X-66161Y-116732D02*
Y-104528D01*
X-81319Y-62992D02*
X-74626D01*
X-81319Y-64961D02*
X-74626D01*
X-81319Y-94095D02*
X-74626D01*
X-63799Y-85630D02*
Y-73425D01*
X-66161Y-85630D02*
Y-73425D01*
X-3366Y-125197D02*
X3327D01*
X11791Y-116732D02*
Y-104528D01*
X-3366Y-96063D02*
X3327D01*
X-3366Y-94095D02*
X3327D01*
X-3366Y-62992D02*
X3327D01*
X-3366Y-64961D02*
X3327D01*
X11791Y-85630D02*
Y-73425D01*
X-81319Y-156299D02*
X-74626D01*
X-81319Y-158268D02*
X-74626D01*
X-89784Y-178937D02*
Y-166732D01*
X-107303Y-158268D02*
X-100610D01*
X-63799Y-178937D02*
Y-166732D01*
X-92146Y-178937D02*
Y-166732D01*
X-115768Y-178937D02*
Y-166732D01*
X-66161Y-178937D02*
Y-166732D01*
X-81319Y-127165D02*
X-74626D01*
X-40177Y-147835D02*
Y-135630D01*
X-63799Y-147835D02*
Y-135630D01*
X-66161Y-147835D02*
Y-135630D01*
X-55335Y-127165D02*
X-48642D01*
X-115374Y-147835D02*
Y-135630D01*
X-107303Y-127559D02*
X-100610D01*
X-107303Y-155905D02*
X-100610D01*
X-89784Y-147835D02*
Y-135630D01*
X-92539Y-147835D02*
Y-135630D01*
X-133287Y-158268D02*
X-126594D01*
X-133287Y-127165D02*
X-126594D01*
X-141752Y-178937D02*
Y-166732D01*
X-118130Y-178937D02*
Y-166732D01*
X-141752Y-147835D02*
Y-135630D01*
X-144114Y-178937D02*
Y-166732D01*
X-118130Y-147835D02*
Y-135630D01*
X-144114Y-147835D02*
Y-135630D01*
X-133287Y-156299D02*
X-126594D01*
X-37815Y-147835D02*
Y-135630D01*
X-29350Y-127165D02*
X-22658D01*
X-3366D02*
X3327D01*
X11791Y-147835D02*
Y-135630D01*
X-11831Y-147835D02*
Y-135630D01*
X-14193Y-147835D02*
Y-135630D01*
X-55335Y-158268D02*
X55295D01*
X-3366Y-156299D02*
X3327D01*
X-29350D02*
X-22658D01*
X-55335D02*
X-48642D01*
X141713Y-178937D02*
Y-166732D01*
X118091Y-178937D02*
Y-166732D01*
X167697Y-147835D02*
Y-135630D01*
X144075Y-178937D02*
Y-166732D01*
X152539Y-158268D02*
X159232D01*
X126555D02*
X133248D01*
X167697Y-178937D02*
Y-166732D01*
X74587Y-158268D02*
X81279D01*
X100571D02*
X107264D01*
X66122Y-178937D02*
Y-166732D01*
X89744Y-178937D02*
Y-166732D01*
X92106Y-178937D02*
Y-166732D01*
X63760Y-178937D02*
Y-166732D01*
X115728Y-178937D02*
Y-166732D01*
X74587Y-187402D02*
X81279D01*
X167697Y-116732D02*
Y-104528D01*
X152539Y-187402D02*
X159232D01*
X-55335D02*
X55295D01*
X-81319D02*
X-74626D01*
X-133287D02*
X-126594D01*
X-159272Y-158268D02*
X-152579D01*
X-167736Y-178937D02*
Y-166732D01*
X-159272Y-187402D02*
X-152579D01*
X100571D02*
X107264D01*
X126555D02*
X133248D01*
X167697Y-85630D02*
Y-73425D01*
X-159272Y-156299D02*
X-152579D01*
X-159272Y-127165D02*
X-152579D01*
X-167736Y-147835D02*
Y-135630D01*
X-107303Y-187402D02*
X-100610D01*
X100571Y-127165D02*
X107264D01*
X100571Y-125197D02*
X107264D01*
X100571Y-156299D02*
X107264D01*
X126555Y-96063D02*
X133248D01*
X126555Y-94095D02*
X133248D01*
X126555Y-125197D02*
X133248D01*
X126555Y-127165D02*
X133248D01*
X126555Y-156299D02*
X133248D01*
X100571Y-96063D02*
X107264D01*
X100571Y-94095D02*
X107264D01*
X118091Y-85630D02*
Y-73425D01*
X115728Y-116732D02*
Y-104528D01*
X118091Y-147835D02*
Y-135630D01*
Y-116732D02*
Y-104528D01*
X115728Y-147835D02*
Y-135630D01*
Y-85630D02*
Y-73425D01*
X100571Y-64961D02*
X107264D01*
X118091Y-54528D02*
Y-42323D01*
X100571Y-33858D02*
X107264D01*
X115728Y-54528D02*
Y-42323D01*
X100571Y-62992D02*
X107264D01*
X92106Y-54528D02*
Y-42323D01*
X141713Y-116732D02*
Y-104528D01*
Y-85630D02*
Y-73425D01*
X144075Y-116732D02*
Y-104528D01*
Y-85630D02*
Y-73425D01*
Y-147835D02*
Y-135630D01*
X141713Y-147835D02*
Y-135630D01*
X126555Y-33858D02*
X133248D01*
X126555Y-62992D02*
X133248D01*
X152539D02*
X159232D01*
X126555Y-64961D02*
X133248D01*
X141713Y-54528D02*
Y-42323D01*
X152539Y-33858D02*
X159232D01*
X144075Y-54528D02*
Y-42323D01*
X152539Y-64961D02*
X159232D01*
X152539Y-156299D02*
X159232D01*
X152539Y-125197D02*
X159232D01*
X152539Y-96063D02*
X159232D01*
X152539Y-127165D02*
X159232D01*
X152539Y-94095D02*
X159232D01*
X-132008Y-21063D02*
Y-8858D01*
X-167736Y-21063D02*
Y-8858D01*
X-129646Y-21063D02*
Y-8858D01*
X-89784Y-54528D02*
Y-42323D01*
X-167736Y-54528D02*
Y-42323D01*
X-144114Y-54528D02*
Y-42323D01*
X-141752Y-54528D02*
Y-42323D01*
X-115768Y-54528D02*
Y-42323D01*
X-92146Y-54528D02*
Y-42323D01*
X-63799Y-54528D02*
Y-42323D01*
X-66161Y-54528D02*
Y-42323D01*
X-118130Y-54528D02*
Y-42323D01*
X-53465Y-21063D02*
Y-8858D01*
X-17736Y-21063D02*
Y-8858D01*
X-45000Y-29528D02*
X-26217D01*
X26162D02*
X44976Y-29528D01*
X26177Y-394D02*
X44961D01*
X17697Y-21063D02*
Y-8858D01*
X-83091Y-394D02*
X-64291D01*
X-45015Y-394D02*
X-26201Y-394D01*
X-121181D02*
X-102382D01*
X-159272D02*
X-140472D01*
X-55335Y-33858D02*
X-48642D01*
X-37815Y-54528D02*
Y-42323D01*
X-40177Y-54528D02*
Y-42323D01*
X-29350Y-33858D02*
X-22658D01*
X11791Y-54528D02*
Y-42323D01*
X-3366Y-33858D02*
X3327D01*
X-14193Y-54528D02*
Y-42323D01*
X-11831Y-54528D02*
Y-42323D01*
X64252Y-29528D02*
X83051D01*
X64252Y-394D02*
X83051D01*
X55787Y-21063D02*
Y-8858D01*
X91516Y-21063D02*
Y-8858D01*
X53425Y-21063D02*
Y-8858D01*
X-55827Y-21063D02*
Y-8858D01*
X-93917Y-21063D02*
Y-8858D01*
X-83091Y-29528D02*
X-64291D01*
X-91555Y-21063D02*
Y-8858D01*
X-81319Y-33858D02*
X-74626D01*
X102342Y-29528D02*
X121142D01*
X102342Y-394D02*
X121142D01*
X129606Y-21063D02*
Y-8858D01*
X93878Y-21063D02*
Y-8858D01*
X131968Y-21063D02*
Y-8858D01*
X167697Y-54528D02*
Y-42323D01*
X140433Y-394D02*
X159232D01*
X167697Y-21063D02*
Y-8858D01*
X140433Y-29528D02*
X159232D01*
X-107303Y-33858D02*
X-100610D01*
X-159272D02*
X-152579D01*
X-121181Y-29528D02*
X-102382D01*
X-159272D02*
X-140472D01*
X-133287Y-33858D02*
X-126594D01*
X-194882Y-196850D02*
X-194882Y3938D01*
X-187009Y-204724D02*
X187009D01*
X194882Y-196850D02*
X194882Y3937D01*
X-187009Y11811D02*
X187008D01*
D16*
X-210630D02*
X-208630Y5811D01*
X-212630D02*
X-210630Y11811D01*
X-212630Y-198724D02*
X-210630Y-204724D01*
X-208630Y-198724D01*
X-210630Y-82461D02*
Y11811D01*
Y-204724D02*
Y-113652D01*
X-211630Y11811D02*
X-194882D01*
X-214145Y-204724D02*
X-209630D01*
X-194882Y-220472D02*
X-188882Y-218472D01*
X-194882Y-220472D02*
X-188882Y-222472D01*
X188882D02*
X194882Y-220472D01*
X188882Y-218472D02*
X194882Y-220472D01*
X-194882D02*
X-17196D01*
X13995D02*
X194882D01*
X-194882Y-221472D02*
Y-212795D01*
X194882Y-221472D02*
Y-212795D01*
D17*
X-437008Y-29528D02*
Y-23624D01*
X-434056D01*
X-433072Y-24608D01*
Y-26576D01*
X-434056Y-27560D01*
X-437008D01*
X-431104Y-29528D02*
X-429136D01*
X-430120D01*
Y-25592D01*
X-431104D01*
X-426185Y-29528D02*
Y-25592D01*
X-423233D01*
X-422249Y-26576D01*
Y-29528D01*
X-420281D02*
Y-23624D01*
Y-27560D02*
X-417329Y-25592D01*
X-420281Y-27560D02*
X-417329Y-29528D01*
X-404538Y-24608D02*
X-405522Y-23624D01*
X-407490D01*
X-408474Y-24608D01*
Y-25592D01*
X-407490Y-26576D01*
X-405522D01*
X-404538Y-27560D01*
Y-28544D01*
X-405522Y-29528D01*
X-407490D01*
X-408474Y-28544D01*
X-401586Y-29528D02*
X-399618D01*
X-398635Y-28544D01*
Y-26576D01*
X-399618Y-25592D01*
X-401586D01*
X-402570Y-26576D01*
Y-28544D01*
X-401586Y-29528D01*
X-396667D02*
X-394699D01*
X-395683D01*
Y-23624D01*
X-396667D01*
X-387811D02*
Y-29528D01*
X-390763D01*
X-391747Y-28544D01*
Y-26576D01*
X-390763Y-25592D01*
X-387811D01*
X-382892Y-29528D02*
X-384859D01*
X-385843Y-28544D01*
Y-26576D01*
X-384859Y-25592D01*
X-382892D01*
X-381908Y-26576D01*
Y-27560D01*
X-385843D01*
X-379940Y-25592D02*
Y-29528D01*
Y-27560D01*
X-378956Y-26576D01*
X-377972Y-25592D01*
X-376988D01*
X-368132Y-29528D02*
Y-23624D01*
X-366165Y-25592D01*
X-364197Y-23624D01*
Y-29528D01*
X-361245Y-25592D02*
X-359277D01*
X-358293Y-26576D01*
Y-29528D01*
X-361245D01*
X-362229Y-28544D01*
X-361245Y-27560D01*
X-358293D01*
X-356325Y-29528D02*
X-353374D01*
X-352390Y-28544D01*
X-353374Y-27560D01*
X-355341D01*
X-356325Y-26576D01*
X-355341Y-25592D01*
X-352390D01*
X-350422Y-29528D02*
Y-23624D01*
Y-27560D02*
X-347470Y-25592D01*
X-350422Y-27560D02*
X-347470Y-29528D01*
X-437008Y-64961D02*
X-435040D01*
X-436024D01*
Y-59057D01*
X-437008Y-60041D01*
X-432088Y-64961D02*
Y-63977D01*
X-431104D01*
Y-64961D01*
X-432088D01*
X-423233Y-59057D02*
X-425201Y-60041D01*
X-427169Y-62009D01*
Y-63977D01*
X-426185Y-64961D01*
X-424217D01*
X-423233Y-63977D01*
Y-62993D01*
X-424217Y-62009D01*
X-427169D01*
X-421265Y-64961D02*
Y-61025D01*
X-420281D01*
X-419297Y-62009D01*
Y-64961D01*
Y-62009D01*
X-418313Y-61025D01*
X-417329Y-62009D01*
Y-64961D01*
X-415361D02*
Y-61025D01*
X-414377D01*
X-413393Y-62009D01*
Y-64961D01*
Y-62009D01*
X-412409Y-61025D01*
X-411426Y-62009D01*
Y-64961D01*
X-403554Y-59057D02*
X-399618D01*
X-401586D01*
Y-64961D01*
X-397651Y-59057D02*
Y-64961D01*
Y-62009D01*
X-396667Y-61025D01*
X-394699D01*
X-393715Y-62009D01*
Y-64961D01*
X-391747D02*
X-389779D01*
X-390763D01*
Y-61025D01*
X-391747D01*
X-382892D02*
X-385843D01*
X-386827Y-62009D01*
Y-63977D01*
X-385843Y-64961D01*
X-382892D01*
X-380924D02*
Y-59057D01*
Y-62993D02*
X-377972Y-61025D01*
X-380924Y-62993D02*
X-377972Y-64961D01*
X-375020D02*
Y-61025D01*
X-372068D01*
X-371084Y-62009D01*
Y-64961D01*
X-366165D02*
X-368132D01*
X-369116Y-63977D01*
Y-62009D01*
X-368132Y-61025D01*
X-366165D01*
X-365181Y-62009D01*
Y-62993D01*
X-369116D01*
X-363213Y-64961D02*
X-360261D01*
X-359277Y-63977D01*
X-360261Y-62993D01*
X-362229D01*
X-363213Y-62009D01*
X-362229Y-61025D01*
X-359277D01*
X-357309Y-64961D02*
X-354358D01*
X-353374Y-63977D01*
X-354358Y-62993D01*
X-356325D01*
X-357309Y-62009D01*
X-356325Y-61025D01*
X-353374D01*
X-437008Y-35435D02*
Y-41339D01*
X-435040Y-39371D01*
X-433072Y-41339D01*
Y-35435D01*
X-431104D02*
Y-41339D01*
Y-38387D01*
X-430120Y-37403D01*
X-428153D01*
X-427169Y-38387D01*
Y-41339D01*
X-425201D02*
X-423233D01*
X-424217D01*
Y-37403D01*
X-425201D01*
X-419297Y-36419D02*
Y-37403D01*
X-420281D01*
X-418313D01*
X-419297D01*
Y-40355D01*
X-418313Y-41339D01*
X-412409D02*
X-414377D01*
X-415361Y-40355D01*
Y-38387D01*
X-414377Y-37403D01*
X-412409D01*
X-411426Y-38387D01*
Y-39371D01*
X-415361D01*
X-399618Y-36419D02*
X-400602Y-35435D01*
X-402570D01*
X-403554Y-36419D01*
Y-37403D01*
X-402570Y-38387D01*
X-400602D01*
X-399618Y-39371D01*
Y-40355D01*
X-400602Y-41339D01*
X-402570D01*
X-403554Y-40355D01*
X-397651Y-41339D02*
X-395683D01*
X-396667D01*
Y-37403D01*
X-397651D01*
X-392731Y-41339D02*
X-390763D01*
X-391747D01*
Y-35435D01*
X-392731D01*
X-387811Y-41339D02*
Y-35435D01*
Y-39371D02*
X-384859Y-37403D01*
X-387811Y-39371D02*
X-384859Y-41339D01*
X-381908D02*
X-378956D01*
X-377972Y-40355D01*
X-378956Y-39371D01*
X-380924D01*
X-381908Y-38387D01*
X-380924Y-37403D01*
X-377972D01*
X-372068D02*
X-375020D01*
X-376004Y-38387D01*
Y-40355D01*
X-375020Y-41339D01*
X-372068D01*
X-370100Y-37403D02*
Y-41339D01*
Y-39371D01*
X-369116Y-38387D01*
X-368132Y-37403D01*
X-367149D01*
X-361245Y-41339D02*
X-363213D01*
X-364197Y-40355D01*
Y-38387D01*
X-363213Y-37403D01*
X-361245D01*
X-360261Y-38387D01*
Y-39371D01*
X-364197D01*
X-355341Y-41339D02*
X-357309D01*
X-358293Y-40355D01*
Y-38387D01*
X-357309Y-37403D01*
X-355341D01*
X-354358Y-38387D01*
Y-39371D01*
X-358293D01*
X-352390Y-41339D02*
Y-37403D01*
X-349438D01*
X-348454Y-38387D01*
Y-41339D01*
D18*
X-212029Y-108054D02*
Y-112052D01*
X-209030D01*
X-210030Y-110053D01*
Y-109053D01*
X-209030Y-108054D01*
X-207031D01*
X-206031Y-109053D01*
Y-111053D01*
X-207031Y-112052D01*
X-212029Y-102055D02*
Y-106054D01*
X-209030D01*
X-210030Y-104055D01*
Y-103055D01*
X-209030Y-102055D01*
X-207031D01*
X-206031Y-103055D01*
Y-105054D01*
X-207031Y-106054D01*
X-205031Y-99056D02*
X-206031Y-98057D01*
X-207031D01*
Y-99056D01*
X-206031D01*
Y-98057D01*
X-205031Y-99056D01*
X-204032Y-100056D01*
X-211030Y-94058D02*
X-212029Y-93058D01*
Y-91059D01*
X-211030Y-90059D01*
X-207031D01*
X-206031Y-91059D01*
Y-93058D01*
X-207031Y-94058D01*
X-211030D01*
Y-88060D02*
X-212029Y-87060D01*
Y-85061D01*
X-211030Y-84061D01*
X-207031D01*
X-206031Y-85061D01*
Y-87060D01*
X-207031Y-88060D01*
X-211030D01*
X-15596Y-224072D02*
X-14596Y-225071D01*
X-12596D01*
X-11597Y-224072D01*
Y-220073D01*
X-12596Y-219073D01*
X-14596D01*
X-15596Y-220073D01*
Y-221072D01*
X-14596Y-222072D01*
X-11597D01*
X-9597Y-224072D02*
X-8598Y-225071D01*
X-6598D01*
X-5599Y-224072D01*
Y-220073D01*
X-6598Y-219073D01*
X-8598D01*
X-9597Y-220073D01*
Y-221072D01*
X-8598Y-222072D01*
X-5599D01*
X-2600Y-226071D02*
X-1600Y-225071D01*
Y-224072D01*
X-2600D01*
Y-225071D01*
X-1600D01*
X-2600Y-226071D01*
X-3599Y-227070D01*
X2399Y-220073D02*
X3398Y-219073D01*
X5398D01*
X6397Y-220073D01*
Y-224072D01*
X5398Y-225071D01*
X3398D01*
X2399Y-224072D01*
Y-220073D01*
X8397D02*
X9396Y-219073D01*
X11396D01*
X12395Y-220073D01*
Y-224072D01*
X11396Y-225071D01*
X9396D01*
X8397Y-224072D01*
Y-220073D01*
M02*
