G04*
G04 #@! TF.GenerationSoftware,Altium Limited,Altium Designer,24.2.2 (26)*
G04*
G04 Layer_Color=417716*
%FSLAX25Y25*%
%MOIN*%
G70*
G04*
G04 #@! TF.SameCoordinates,414444BF-B964-4898-950E-571982E1B149*
G04*
G04*
G04 #@! TF.FilePolarity,Positive*
G04*
G01*
G75*
%ADD16C,0.00394*%
D16*
X-31496Y118110D02*
G03*
X-8152Y87687I31496J0D01*
G01*
D02*
G03*
X-3937Y91902I0J4215D01*
G01*
X8152Y87687D02*
G03*
X31496Y118110I-8152J30423D01*
G01*
X3937Y91902D02*
G03*
X8152Y87687I4215J0D01*
G01*
X26496Y141733D02*
G03*
X31496Y146733I0J5000D01*
G01*
Y128858D02*
G03*
X26496Y133858I-5000J0D01*
G01*
X-3937Y183688D02*
G03*
X-8152Y187903I-4215J0D01*
G01*
D02*
G03*
X-31496Y157480I8152J-30423D01*
G01*
X8152Y187904D02*
G03*
X3937Y183689I0J-4215D01*
G01*
X31496Y157481D02*
G03*
X8152Y187904I-31496J0D01*
G01*
X8937Y133858D02*
G03*
X3937Y128858I0J-5000D01*
G01*
X-26496Y133858D02*
G03*
X-31496Y128858I0J-5000D01*
G01*
X-3937D02*
G03*
X-8937Y133858I-5000J0D01*
G01*
X3937Y146733D02*
G03*
X8937Y141733I5000J0D01*
G01*
X-8937Y141732D02*
G03*
X-3937Y146732I0J5000D01*
G01*
X-31496D02*
G03*
X-26496Y141732I5000J0D01*
G01*
X194883Y3937D02*
G03*
X187008Y11812I-7875J0D01*
G01*
Y-196851D02*
G03*
X194883Y-188976I0J7875D01*
G01*
X-194883D02*
G03*
X-187008Y-196851I7875J0D01*
G01*
Y11812D02*
G03*
X-194883Y3937I0J-7875D01*
G01*
X-180197Y11811D02*
G03*
X-171661Y15347I0J12071D01*
G01*
X171661D02*
G03*
X180197Y11811I8535J8535D01*
G01*
X-170858Y16150D02*
G03*
X-167323Y24685I-8535J8535D01*
G01*
X162402Y29606D02*
G03*
X165937Y21071I12071J0D01*
G01*
X-163787Y186606D02*
G03*
X-167323Y178071I8535J-8535D01*
G01*
X-132795Y212598D02*
G03*
X-141331Y209063I0J-12071D01*
G01*
X141331D02*
G03*
X132795Y212598I-8535J-8535D01*
G01*
X162402Y182992D02*
G03*
X158866Y191528I-12071J0D01*
G01*
X-3937Y91902D02*
Y128858D01*
X31496Y128858D02*
X31496Y118110D01*
X3937Y91902D02*
Y128858D01*
X-31496Y118110D02*
Y128858D01*
X31496Y146733D02*
Y157481D01*
X-3937Y146732D02*
Y183688D01*
X-31496Y146732D02*
Y157480D01*
X3937Y146733D02*
Y183689D01*
X8937Y133858D02*
X26496D01*
X-26496D02*
X-8937D01*
X8937Y141733D02*
X26496D01*
X-26496Y141732D02*
X-8937D01*
X194882Y-188977D02*
Y3938D01*
X180197Y11811D02*
X187009D01*
X-187009Y-196850D02*
X187009D01*
X-194882Y-188977D02*
Y3938D01*
X-187009Y11811D02*
X-180197D01*
X-171661Y15347D02*
X-171260Y15748D01*
X171260D02*
X171661Y15347D01*
X-171260Y15748D02*
X-170858Y16150D01*
X-167323Y24685D02*
Y31575D01*
X165937Y21071D02*
X171260Y15748D01*
X162402Y29606D02*
Y29766D01*
X-167323Y31575D02*
Y178071D01*
X-163787Y186606D02*
X-141331Y209063D01*
X-132795Y212598D02*
X132795D01*
X141331Y209063D02*
X158866Y191528D01*
X162402Y29766D02*
Y182992D01*
M02*
