G04*
G04 #@! TF.GenerationSoftware,Altium Limited,Altium Designer,24.2.2 (26)*
G04*
G04 Layer_Color=128*
%FSLAX25Y25*%
%MOIN*%
G70*
G04*
G04 #@! TF.SameCoordinates,414444BF-B964-4898-950E-571982E1B149*
G04*
G04*
G04 #@! TF.FilePolarity,Positive*
G04*
G01*
G75*
%ADD16C,0.00394*%
D16*
X318403Y87687D02*
G03*
X341747Y118110I-8152J30423D01*
G01*
X314188Y91902D02*
G03*
X318403Y87687I4215J0D01*
G01*
X278755Y118110D02*
G03*
X302100Y87687I31496J0D01*
G01*
D02*
G03*
X306314Y91902I0J4215D01*
G01*
X278755Y146733D02*
G03*
X283755Y141733I5000J0D01*
G01*
Y133858D02*
G03*
X278755Y128858I0J-5000D01*
G01*
X318403Y187903D02*
G03*
X314188Y183688I0J-4215D01*
G01*
X341747Y157480D02*
G03*
X318403Y187903I-31496J0D01*
G01*
X306314Y183689D02*
G03*
X302100Y187904I-4215J0D01*
G01*
D02*
G03*
X278755Y157481I8152J-30423D01*
G01*
X306314Y128858D02*
G03*
X301314Y133858I-5000J0D01*
G01*
X341747Y128858D02*
G03*
X336747Y133858I-5000J0D01*
G01*
X319188D02*
G03*
X314188Y128858I0J-5000D01*
G01*
X301314Y141733D02*
G03*
X306314Y146733I0J5000D01*
G01*
X314188Y146732D02*
G03*
X319188Y141732I5000J0D01*
G01*
X336747D02*
G03*
X341747Y146732I0J5000D01*
G01*
X123243Y11812D02*
G03*
X115368Y3937I0J-7875D01*
G01*
Y-188976D02*
G03*
X123243Y-196851I7875J0D01*
G01*
X497259D02*
G03*
X505134Y-188976I0J7875D01*
G01*
Y3937D02*
G03*
X497259Y11812I-7875J0D01*
G01*
X481913Y15347D02*
G03*
X490448Y11811I8535J8535D01*
G01*
X130054D02*
G03*
X138590Y15347I0J12071D01*
G01*
X477574Y24685D02*
G03*
X481110Y16150I12071J0D01*
G01*
X144314Y21071D02*
G03*
X147850Y29606I-8535J8535D01*
G01*
X477574Y178071D02*
G03*
X474039Y186606I-12071J0D01*
G01*
X451582Y209063D02*
G03*
X443047Y212598I-8535J-8535D01*
G01*
X177456D02*
G03*
X168921Y209063I0J-12071D01*
G01*
X151385Y191528D02*
G03*
X147850Y182992I8535J-8535D01*
G01*
X314188Y91902D02*
Y128858D01*
X278755Y128858D02*
X278755Y118110D01*
X306314Y91902D02*
Y128858D01*
X341747Y118110D02*
Y128858D01*
X278755Y146733D02*
Y157481D01*
X314188Y146732D02*
Y183688D01*
X341747Y146732D02*
Y157480D01*
X306314Y146733D02*
Y183689D01*
X301314Y133858D02*
X283755D01*
X336747D02*
X319188D01*
X301314Y141733D02*
X283755D01*
X336747Y141732D02*
X319188D01*
X115369Y-188977D02*
Y3938D01*
X130054Y11811D02*
X123243D01*
X497260Y-196850D02*
X123243D01*
X505133Y-188977D02*
Y3938D01*
X497260Y11811D02*
X490448D01*
X481913Y15347D02*
X481511Y15748D01*
X138991D02*
X138590Y15347D01*
X481511Y15748D02*
X481110Y16150D01*
X477574Y24685D02*
Y31575D01*
X144314Y21071D02*
X138991Y15748D01*
X147850Y29606D02*
Y29766D01*
X477574Y31575D02*
Y178071D01*
X474039Y186606D02*
X451582Y209063D01*
X443047Y212598D02*
X177456D01*
X168921Y209063D02*
X151385Y191528D01*
X147850Y29766D02*
Y182992D01*
M02*
