G04*
G04 #@! TF.GenerationSoftware,Altium Limited,Altium Designer,24.2.2 (26)*
G04*
G04 Layer_Physical_Order=2*
G04 Layer_Color=3381759*
%FSLAX25Y25*%
%MOIN*%
G70*
G04*
G04 #@! TF.SameCoordinates,414444BF-B964-4898-950E-571982E1B149*
G04*
G04*
G04 #@! TF.FilePolarity,Positive*
G04*
G01*
G75*
%ADD11C,0.00984*%
%ADD15C,0.00591*%
%ADD16C,0.00394*%
%ADD65C,0.02362*%
%ADD72C,0.01968*%
%ADD74C,0.09843*%
%ADD75C,0.05906*%
%ADD76R,0.05906X0.05906*%
%ADD77C,0.01968*%
%ADD78C,0.05000*%
%ADD79C,0.04724*%
G36*
X133339Y211595D02*
X134421Y211488D01*
X135488Y211276D01*
X136528Y210961D01*
X137533Y210544D01*
X138492Y210032D01*
X139396Y209428D01*
X140237Y208738D01*
X140621Y208353D01*
X158156Y190818D01*
X158156Y190818D01*
X158541Y190434D01*
X159231Y189593D01*
X159835Y188689D01*
X160348Y187730D01*
X160764Y186725D01*
X161079Y185685D01*
X161292Y184618D01*
X161398Y183536D01*
X161398Y182992D01*
X161398Y29766D01*
Y29606D01*
X161401Y29594D01*
X161398Y29582D01*
X161413Y28989D01*
X161421Y28953D01*
X161417Y28916D01*
X161534Y27737D01*
X161548Y27689D01*
Y27639D01*
X161779Y26477D01*
X161798Y26432D01*
X161803Y26382D01*
X162147Y25248D01*
X162170Y25204D01*
X162180Y25156D01*
X162634Y24061D01*
X162661Y24020D01*
X162676Y23972D01*
X163234Y22927D01*
X163266Y22889D01*
X163285Y22843D01*
X163943Y21858D01*
X163978Y21823D01*
X164001Y21779D01*
X164753Y20863D01*
X164782Y20840D01*
X164802Y20808D01*
X165210Y20379D01*
X165221Y20372D01*
X165228Y20361D01*
X170550Y15039D01*
X170550Y15039D01*
X170952Y14637D01*
X170962Y14630D01*
X170969Y14620D01*
X171398Y14211D01*
X171430Y14191D01*
X171454Y14162D01*
X172370Y13411D01*
X172414Y13387D01*
X172449Y13352D01*
X173434Y12694D01*
X173480Y12675D01*
X173518Y12643D01*
X174563Y12085D01*
X174610Y12071D01*
X174652Y12043D01*
X175746Y11590D01*
X175795Y11580D01*
X175839Y11556D01*
X176973Y11213D01*
X177022Y11208D01*
X177068Y11189D01*
X178230Y10958D01*
X178280D01*
X178327Y10943D01*
X179506Y10827D01*
X179543Y10831D01*
X179580Y10822D01*
X180172Y10808D01*
X180185Y10810D01*
X180197Y10808D01*
X187009D01*
X187009Y10808D01*
X187010Y10808D01*
X187685Y10808D01*
X189012Y10544D01*
X190263Y10026D01*
X191388Y9274D01*
X192345Y8317D01*
X193097Y7192D01*
X193615Y5941D01*
X193879Y4614D01*
Y3937D01*
X193879Y-136133D01*
X193088Y-136447D01*
X192698Y-136486D01*
X192172Y-135960D01*
X191376Y-135630D01*
X190514D01*
X189718Y-135960D01*
X189388Y-136290D01*
X178722D01*
X178392Y-135960D01*
X177596Y-135630D01*
X176735D01*
X175939Y-135960D01*
X175330Y-136569D01*
X175000Y-137365D01*
Y-138226D01*
X175330Y-139022D01*
X175939Y-139631D01*
X176735Y-139961D01*
X177596D01*
X178392Y-139631D01*
X178722Y-139301D01*
X189388D01*
X189718Y-139631D01*
X190514Y-139961D01*
X191376D01*
X192172Y-139631D01*
X192698Y-139105D01*
X193088Y-139144D01*
X193879Y-139457D01*
X193878Y-188977D01*
X193878Y-188978D01*
X193878Y-188979D01*
X193879Y-189654D01*
X193615Y-190981D01*
X193097Y-192231D01*
X192345Y-193357D01*
X191388Y-194314D01*
X190263Y-195066D01*
X189012Y-195584D01*
X187685Y-195848D01*
X187008D01*
X-187009Y-195847D01*
X-187009Y-195847D01*
X-187010Y-195847D01*
X-187685Y-195848D01*
X-189012Y-195584D01*
X-190263Y-195066D01*
X-191388Y-194314D01*
X-192345Y-193357D01*
X-193097Y-192231D01*
X-193615Y-190981D01*
X-193879Y-189653D01*
Y-188976D01*
X-193878Y3938D01*
X-193878Y3938D01*
X-193878Y3939D01*
X-193879Y4614D01*
X-193615Y5941D01*
X-193097Y7192D01*
X-192345Y8317D01*
X-191388Y9274D01*
X-190263Y10026D01*
X-189012Y10544D01*
X-187685Y10808D01*
X-187008D01*
X-180197Y10808D01*
X-180185Y10810D01*
X-180172Y10808D01*
X-179580Y10822D01*
X-179543Y10831D01*
X-179506Y10827D01*
X-178327Y10943D01*
X-178280Y10958D01*
X-178230D01*
X-177068Y11189D01*
X-177022Y11208D01*
X-176973Y11213D01*
X-175839Y11556D01*
X-175795Y11580D01*
X-175746Y11590D01*
X-174652Y12043D01*
X-174610Y12071D01*
X-174563Y12085D01*
X-173518Y12643D01*
X-173480Y12675D01*
X-173434Y12694D01*
X-172449Y13352D01*
X-172414Y13387D01*
X-172370Y13411D01*
X-171454Y14162D01*
X-171430Y14191D01*
X-171399Y14211D01*
X-170969Y14620D01*
X-170962Y14630D01*
X-170952Y14637D01*
X-170550Y15038D01*
X-170550Y15039D01*
X-170149Y15440D01*
X-170142Y15450D01*
X-170132Y15458D01*
X-169723Y15887D01*
X-169703Y15918D01*
X-169674Y15942D01*
X-168923Y16858D01*
X-168899Y16902D01*
X-168864Y16937D01*
X-168206Y17922D01*
X-168187Y17968D01*
X-168155Y18006D01*
X-167597Y19051D01*
X-167582Y19099D01*
X-167555Y19140D01*
X-167101Y20234D01*
X-167092Y20283D01*
X-167068Y20327D01*
X-166724Y21461D01*
X-166719Y21510D01*
X-166700Y21556D01*
X-166469Y22718D01*
Y22768D01*
X-166455Y22816D01*
X-166339Y23994D01*
X-166342Y24032D01*
X-166334Y24068D01*
X-166320Y24660D01*
X-166322Y24673D01*
X-166319Y24685D01*
X-166319Y178071D01*
X-166319Y178615D01*
X-166213Y179697D01*
X-166001Y180763D01*
X-165685Y181804D01*
X-165269Y182808D01*
X-164756Y183768D01*
X-164152Y184672D01*
X-163462Y185512D01*
X-163078Y185897D01*
X-140621Y208353D01*
X-140237Y208738D01*
X-139396Y209428D01*
X-138492Y210032D01*
X-137533Y210544D01*
X-136528Y210961D01*
X-135488Y211276D01*
X-134421Y211488D01*
X-133339Y211595D01*
X-132795Y211595D01*
X132795Y211595D01*
X133339Y211595D01*
D02*
G37*
%LPC*%
G36*
X116505Y200803D02*
X116484D01*
Y197350D01*
X119937D01*
Y197371D01*
X119668Y198376D01*
X119147Y199277D01*
X118411Y200013D01*
X117510Y200534D01*
X116505Y200803D01*
D02*
G37*
G36*
X115484D02*
X115464D01*
X114459Y200534D01*
X113557Y200013D01*
X112821Y199277D01*
X112301Y198376D01*
X112031Y197371D01*
Y197350D01*
X115484D01*
Y200803D01*
D02*
G37*
G36*
X129921Y200787D02*
X122047D01*
Y192913D01*
X129921D01*
Y200787D01*
D02*
G37*
G36*
X106503D02*
X105466D01*
X104465Y200519D01*
X103567Y200001D01*
X102834Y199268D01*
X102315Y198370D01*
X102047Y197369D01*
Y196332D01*
X102315Y195331D01*
X102834Y194433D01*
X103567Y193700D01*
X104465Y193182D01*
X105466Y192913D01*
X106503D01*
X107504Y193182D01*
X108402Y193700D01*
X109135Y194433D01*
X109653Y195331D01*
X109921Y196332D01*
Y197369D01*
X109653Y198370D01*
X109135Y199268D01*
X108402Y200001D01*
X107504Y200519D01*
X106503Y200787D01*
D02*
G37*
G36*
X-127371Y204724D02*
X-128534D01*
X-129675Y204498D01*
X-130750Y204052D01*
X-131717Y203406D01*
X-132540Y202583D01*
X-133186Y201616D01*
X-133631Y200541D01*
X-133858Y199400D01*
Y198237D01*
X-133631Y197096D01*
X-133186Y196022D01*
X-132540Y195054D01*
X-131717Y194232D01*
X-130750Y193586D01*
X-129675Y193140D01*
X-128534Y192913D01*
X-127371D01*
X-126230Y193140D01*
X-125155Y193586D01*
X-124188Y194232D01*
X-123366Y195054D01*
X-122719Y196022D01*
X-122274Y197096D01*
X-122047Y198237D01*
Y199400D01*
X-122274Y200541D01*
X-122719Y201616D01*
X-123366Y202583D01*
X-124188Y203406D01*
X-125155Y204052D01*
X-126230Y204498D01*
X-127371Y204724D01*
D02*
G37*
G36*
X119937Y196350D02*
X116484D01*
Y192898D01*
X116505D01*
X117510Y193167D01*
X118411Y193687D01*
X119147Y194423D01*
X119668Y195325D01*
X119937Y196330D01*
Y196350D01*
D02*
G37*
G36*
X115484D02*
X112031D01*
Y196330D01*
X112301Y195325D01*
X112821Y194423D01*
X113557Y193687D01*
X114459Y193167D01*
X115464Y192898D01*
X115484D01*
Y196350D01*
D02*
G37*
G36*
X88183Y201415D02*
X86392D01*
X86083Y201287D01*
X85624D01*
X85315Y201159D01*
X85112D01*
X84803Y201031D01*
X84728D01*
X84419Y200903D01*
X84344D01*
X83892Y200716D01*
X83881Y200690D01*
X83636Y200588D01*
X83625Y200562D01*
X83380Y200460D01*
X83369Y200434D01*
X83124Y200332D01*
X83113Y200306D01*
X82868Y200204D01*
X82857Y200178D01*
X82612Y200076D01*
X82574Y199986D01*
X82484Y199948D01*
X82473Y199922D01*
X82228Y199820D01*
X82191Y199730D01*
X82100Y199692D01*
X82089Y199666D01*
X81844Y199564D01*
X81807Y199474D01*
X81716Y199436D01*
X81679Y199346D01*
X81588Y199308D01*
X81551Y199218D01*
X81460Y199180D01*
X81423Y199090D01*
X81332Y199052D01*
X81295Y198962D01*
X81204Y198924D01*
X81167Y198834D01*
X81076Y198796D01*
X81039Y198706D01*
X80948Y198669D01*
X80911Y198578D01*
X80820Y198540D01*
X80783Y198450D01*
X80692Y198413D01*
X80655Y198322D01*
X80564Y198284D01*
X80463Y198039D01*
X80436Y198029D01*
X80399Y197938D01*
X80308Y197901D01*
X80207Y197656D01*
X80180Y197645D01*
X80143Y197554D01*
X80052Y197517D01*
X79951Y197272D01*
X79924Y197261D01*
X79823Y197016D01*
X79796Y197005D01*
X79695Y196760D01*
X79668Y196749D01*
X79567Y196504D01*
X79540Y196493D01*
X79439Y196248D01*
X79413Y196237D01*
X79225Y195785D01*
Y195710D01*
X79097Y195401D01*
Y195326D01*
X78969Y195017D01*
Y194814D01*
X78841Y194505D01*
Y194046D01*
X78713Y193737D01*
Y191946D01*
X78841Y191637D01*
Y191178D01*
X78969Y190869D01*
Y190666D01*
X79097Y190357D01*
Y190282D01*
X79225Y189973D01*
Y189898D01*
X79413Y189446D01*
X79439Y189435D01*
X79540Y189190D01*
X79567Y189179D01*
X79668Y188934D01*
X79695Y188923D01*
X79796Y188678D01*
X79823Y188667D01*
X79924Y188422D01*
X79951Y188411D01*
X80052Y188166D01*
X80143Y188128D01*
X80180Y188038D01*
X80207Y188027D01*
X80308Y187782D01*
X80399Y187745D01*
X80436Y187654D01*
X80463Y187643D01*
X80564Y187398D01*
X80655Y187361D01*
X80692Y187270D01*
X80783Y187233D01*
X80820Y187142D01*
X80911Y187105D01*
X80948Y187014D01*
X81039Y186977D01*
X81076Y186886D01*
X81167Y186849D01*
X81204Y186758D01*
X81295Y186721D01*
X81332Y186630D01*
X81423Y186593D01*
X81460Y186502D01*
X81551Y186465D01*
X81588Y186374D01*
X81679Y186337D01*
X81716Y186246D01*
X81807Y186209D01*
X81844Y186118D01*
X82089Y186017D01*
X82100Y185990D01*
X82191Y185953D01*
X82228Y185862D01*
X82473Y185761D01*
X82484Y185734D01*
X82574Y185697D01*
X82612Y185606D01*
X82857Y185505D01*
X82868Y185478D01*
X83113Y185377D01*
X83124Y185350D01*
X83214Y185313D01*
X83252Y185222D01*
X83704Y185035D01*
X83779D01*
X83881Y184993D01*
X83892Y184967D01*
X84344Y184779D01*
X84419D01*
X84728Y184651D01*
X84803D01*
X85112Y184523D01*
X85315D01*
X85624Y184395D01*
X86083D01*
X86392Y184267D01*
X88183D01*
X88492Y184395D01*
X88951D01*
X89260Y184523D01*
X89463D01*
X89772Y184651D01*
X89847D01*
X90156Y184779D01*
X90231D01*
X90683Y184967D01*
X90694Y184993D01*
X90939Y185094D01*
X90950Y185121D01*
X91195Y185222D01*
X91206Y185249D01*
X91451Y185350D01*
X91462Y185377D01*
X91707Y185478D01*
X91718Y185505D01*
X91963Y185606D01*
X92000Y185697D01*
X92091Y185734D01*
X92102Y185761D01*
X92347Y185862D01*
X92384Y185953D01*
X92475Y185990D01*
X92512Y186081D01*
X92602Y186118D01*
X92614Y186145D01*
X92858Y186246D01*
X92896Y186337D01*
X92987Y186374D01*
X93024Y186465D01*
X93115Y186502D01*
X93152Y186593D01*
X93242Y186630D01*
X93280Y186721D01*
X93370Y186758D01*
X93408Y186849D01*
X93498Y186886D01*
X93536Y186977D01*
X93626Y187014D01*
X93664Y187105D01*
X93754Y187142D01*
X93792Y187233D01*
X93882Y187270D01*
X93984Y187515D01*
X94010Y187526D01*
X94048Y187617D01*
X94138Y187654D01*
X94176Y187745D01*
X94266Y187782D01*
X94368Y188027D01*
X94394Y188038D01*
X94432Y188128D01*
X94522Y188166D01*
X94624Y188411D01*
X94650Y188422D01*
X94752Y188667D01*
X94778Y188678D01*
X94880Y188923D01*
X94906Y188934D01*
X95008Y189179D01*
X95034Y189190D01*
X95221Y189642D01*
Y189717D01*
X95264Y189819D01*
X95290Y189830D01*
X95477Y190282D01*
Y190485D01*
X95605Y190794D01*
Y190997D01*
X95733Y191306D01*
Y191892D01*
X95861Y192201D01*
Y193481D01*
X95733Y193790D01*
Y194377D01*
X95605Y194686D01*
Y194889D01*
X95477Y195198D01*
Y195401D01*
X95349Y195710D01*
Y195785D01*
X95162Y196237D01*
X95136Y196248D01*
X95034Y196493D01*
X95008Y196504D01*
X94906Y196749D01*
X94880Y196760D01*
X94778Y197005D01*
X94752Y197016D01*
X94650Y197261D01*
X94624Y197272D01*
X94522Y197517D01*
X94432Y197554D01*
X94394Y197645D01*
X94368Y197656D01*
X94266Y197901D01*
X94176Y197938D01*
X94138Y198029D01*
X94048Y198066D01*
X94010Y198156D01*
X93984Y198168D01*
X93882Y198413D01*
X93792Y198450D01*
X93754Y198540D01*
X93664Y198578D01*
X93626Y198669D01*
X93536Y198706D01*
X93498Y198796D01*
X93408Y198834D01*
X93370Y198924D01*
X93280Y198962D01*
X93242Y199052D01*
X93152Y199090D01*
X93115Y199180D01*
X93024Y199218D01*
X92987Y199308D01*
X92896Y199346D01*
X92858Y199436D01*
X92614Y199538D01*
X92602Y199564D01*
X92512Y199602D01*
X92475Y199692D01*
X92384Y199730D01*
X92347Y199820D01*
X92102Y199922D01*
X92091Y199948D01*
X92000Y199986D01*
X91963Y200076D01*
X91718Y200178D01*
X91707Y200204D01*
X91462Y200306D01*
X91451Y200332D01*
X91206Y200434D01*
X91195Y200460D01*
X90950Y200562D01*
X90939Y200588D01*
X90694Y200690D01*
X90683Y200716D01*
X90231Y200903D01*
X90156D01*
X89847Y201031D01*
X89772D01*
X89463Y201159D01*
X89260D01*
X88951Y201287D01*
X88492D01*
X88183Y201415D01*
D02*
G37*
G36*
X148219Y185039D02*
X147056D01*
X145915Y184812D01*
X144841Y184367D01*
X143873Y183721D01*
X143051Y182898D01*
X142404Y181931D01*
X141959Y180856D01*
X141732Y179716D01*
Y178552D01*
X141959Y177411D01*
X142404Y176337D01*
X143051Y175369D01*
X143873Y174547D01*
X144841Y173900D01*
X145915Y173455D01*
X147056Y173228D01*
X148219D01*
X149360Y173455D01*
X150435Y173900D01*
X151402Y174547D01*
X152225Y175369D01*
X152871Y176337D01*
X153316Y177411D01*
X153543Y178552D01*
Y179716D01*
X153316Y180856D01*
X152871Y181931D01*
X152225Y182898D01*
X151402Y183721D01*
X150435Y184367D01*
X149360Y184812D01*
X148219Y185039D01*
D02*
G37*
G36*
X127814Y169061D02*
X127685Y169013D01*
X127548Y169013D01*
X127548Y169013D01*
X127283Y168904D01*
X127283D01*
X127156Y168851D01*
X115341Y163977D01*
X103527Y168851D01*
X103400Y168904D01*
X103400D01*
X103135Y169013D01*
X103135Y169013D01*
X102998Y169013D01*
X102869Y169061D01*
X102869Y169061D01*
X102763Y169013D01*
X102646Y169013D01*
X102645Y169012D01*
X102549Y168915D01*
X102424Y168858D01*
X102424Y168858D01*
X102314Y168740D01*
X102314Y168740D01*
X102265Y168611D01*
X102176Y168508D01*
X102175Y168508D01*
X102183Y168391D01*
X102142Y168282D01*
X102142Y168282D01*
X102199Y168157D01*
X102209Y168020D01*
X102209Y168020D01*
X102336Y167763D01*
Y167763D01*
X102397Y167640D01*
X105582Y161232D01*
X105268Y159954D01*
X105140Y159773D01*
X101483Y158266D01*
X101224Y158159D01*
X101224Y158159D01*
X101178Y158113D01*
X101177Y158113D01*
X101113Y158100D01*
X101112Y158100D01*
X101009Y157946D01*
X100877Y157814D01*
X100877Y157813D01*
X100877Y157748D01*
X100840Y157694D01*
X100840Y157694D01*
X100809Y157535D01*
X100809Y157535D01*
X100822Y157471D01*
X100797Y157411D01*
X100796Y157410D01*
X100868Y157238D01*
X100904Y157055D01*
X100904Y157055D01*
X100958Y157019D01*
X100959Y157018D01*
X100984Y156958D01*
X100984Y156958D01*
X101182Y156760D01*
X114716Y143225D01*
X114912Y143029D01*
X114912D01*
X115364Y142842D01*
X115816Y143029D01*
X115816D01*
X116012Y143225D01*
X129546Y156760D01*
X129745Y156958D01*
X129745Y156958D01*
X129770Y157018D01*
X129770Y157019D01*
X129825Y157055D01*
X129825Y157055D01*
X129861Y157238D01*
X129932Y157410D01*
X129932Y157411D01*
X129907Y157471D01*
X129920Y157535D01*
X129920Y157535D01*
X129888Y157694D01*
X129888Y157694D01*
X129851Y157748D01*
X129851Y157813D01*
X129851Y157814D01*
X129719Y157946D01*
X129616Y158100D01*
X129616Y158100D01*
X129551Y158113D01*
X129551Y158113D01*
X129505Y158159D01*
X129505Y158159D01*
X129245Y158266D01*
X125558Y159785D01*
X125431Y159958D01*
X125109Y161248D01*
X128285Y167640D01*
X128347Y167763D01*
Y167763D01*
X128474Y168020D01*
X128474Y168020D01*
X128483Y168157D01*
X128541Y168282D01*
X128541Y168282D01*
X128500Y168391D01*
X128508Y168508D01*
X128507Y168508D01*
X128417Y168611D01*
X128369Y168740D01*
X128369Y168740D01*
X128259Y168858D01*
X128259Y168858D01*
X128134Y168915D01*
X128037Y169012D01*
X128037Y169013D01*
X127920Y169013D01*
X127814Y169061D01*
X127814Y169061D01*
D02*
G37*
G36*
X8152Y189911D02*
X7737D01*
X7543Y189872D01*
X7345D01*
X6531Y189710D01*
X6348Y189635D01*
X6154Y189596D01*
X5387Y189278D01*
X5223Y189168D01*
X5040Y189093D01*
X4350Y188631D01*
X4210Y188492D01*
X4046Y188382D01*
X3459Y187795D01*
X3349Y187630D01*
X3209Y187491D01*
X2748Y186800D01*
X2672Y186618D01*
X2562Y186453D01*
X2245Y185686D01*
X2206Y185493D01*
X2131Y185310D01*
X1969Y184495D01*
Y184298D01*
X1930Y184104D01*
Y183689D01*
Y146733D01*
Y146240D01*
X1969Y146046D01*
Y145849D01*
X2161Y144883D01*
X2236Y144700D01*
X2275Y144506D01*
X2652Y143596D01*
X2762Y143432D01*
X2837Y143249D01*
X3384Y142430D01*
X3524Y142291D01*
X3634Y142126D01*
X4330Y141430D01*
X4495Y141320D01*
X4635Y141180D01*
X5454Y140633D01*
X5636Y140557D01*
X5801Y140447D01*
X6711Y140071D01*
X6904Y140032D01*
X7087Y139956D01*
X8053Y139764D01*
X8251D01*
X8444Y139726D01*
X26989D01*
X27182Y139764D01*
X27380D01*
X28346Y139956D01*
X28529Y140032D01*
X28723Y140071D01*
X29632Y140447D01*
X29797Y140557D01*
X29980Y140633D01*
X30798Y141180D01*
X30938Y141320D01*
X31103Y141430D01*
X31799Y142126D01*
X31909Y142291D01*
X32049Y142430D01*
X32596Y143249D01*
X32671Y143432D01*
X32781Y143596D01*
X33158Y144506D01*
X33197Y144700D01*
X33272Y144883D01*
X33465Y145849D01*
Y146046D01*
X33503Y146240D01*
Y157481D01*
Y159200D01*
X33482Y159309D01*
X33491Y159419D01*
X33117Y162838D01*
X33084Y162943D01*
X33081Y163053D01*
X32337Y166411D01*
X32292Y166512D01*
X32278Y166622D01*
X31172Y169878D01*
X31117Y169974D01*
X31091Y170081D01*
X29637Y173198D01*
X29572Y173287D01*
X29534Y173391D01*
X27750Y176331D01*
X27676Y176413D01*
X27627Y176512D01*
X25533Y179240D01*
X25450Y179313D01*
X25390Y179406D01*
X23012Y181891D01*
X22922Y181954D01*
X22853Y182040D01*
X20218Y184251D01*
X20121Y184304D01*
X20043Y184382D01*
X17184Y186293D01*
X17082Y186335D01*
X16995Y186404D01*
X13945Y187992D01*
X13839Y188023D01*
X13745Y188083D01*
X10540Y189329D01*
X10431Y189348D01*
X10332Y189397D01*
X8671Y189842D01*
X8409Y189859D01*
X8152Y189911D01*
D02*
G37*
G36*
X-7737Y189910D02*
X-8152D01*
X-8409Y189859D01*
X-8671Y189842D01*
X-10332Y189397D01*
X-10431Y189348D01*
X-10540Y189329D01*
X-13745Y188082D01*
X-13839Y188023D01*
X-13945Y187992D01*
X-16995Y186404D01*
X-17082Y186335D01*
X-17184Y186293D01*
X-20043Y184382D01*
X-20121Y184304D01*
X-20218Y184250D01*
X-22853Y182040D01*
X-22922Y181954D01*
X-23012Y181890D01*
X-25390Y179406D01*
X-25450Y179313D01*
X-25533Y179240D01*
X-27627Y176512D01*
X-27676Y176412D01*
X-27750Y176331D01*
X-29534Y173391D01*
X-29572Y173287D01*
X-29638Y173198D01*
X-31091Y170081D01*
X-31117Y169974D01*
X-31172Y169878D01*
X-32278Y166621D01*
X-32292Y166512D01*
X-32337Y166411D01*
X-33081Y163053D01*
X-33084Y162942D01*
X-33117Y162837D01*
X-33491Y159418D01*
X-33482Y159308D01*
X-33503Y159200D01*
Y157480D01*
Y146240D01*
X-33465Y146046D01*
Y145848D01*
X-33272Y144882D01*
X-33197Y144700D01*
X-33158Y144506D01*
X-32781Y143596D01*
X-32671Y143431D01*
X-32596Y143249D01*
X-32049Y142430D01*
X-31909Y142290D01*
X-31799Y142126D01*
X-31103Y141429D01*
X-30938Y141320D01*
X-30799Y141180D01*
X-29980Y140632D01*
X-29797Y140557D01*
X-29632Y140447D01*
X-28723Y140070D01*
X-28529Y140032D01*
X-28346Y139956D01*
X-27380Y139764D01*
X-27182D01*
X-26989Y139725D01*
X-8445D01*
X-8251Y139764D01*
X-8053D01*
X-7087Y139956D01*
X-6904Y140032D01*
X-6711Y140070D01*
X-5801Y140447D01*
X-5636Y140557D01*
X-5454Y140632D01*
X-4635Y141180D01*
X-4495Y141320D01*
X-4330Y141429D01*
X-3634Y142126D01*
X-3524Y142290D01*
X-3384Y142430D01*
X-2837Y143249D01*
X-2762Y143431D01*
X-2652Y143596D01*
X-2275Y144506D01*
X-2236Y144700D01*
X-2161Y144882D01*
X-1969Y145848D01*
Y146046D01*
X-1930Y146240D01*
Y146732D01*
Y183688D01*
Y184104D01*
X-1969Y184297D01*
Y184495D01*
X-2131Y185309D01*
X-2206Y185492D01*
X-2245Y185686D01*
X-2562Y186453D01*
X-2672Y186617D01*
X-2748Y186800D01*
X-3209Y187490D01*
X-3349Y187630D01*
X-3459Y187794D01*
X-4046Y188381D01*
X-4210Y188491D01*
X-4350Y188631D01*
X-5040Y189092D01*
X-5223Y189168D01*
X-5387Y189278D01*
X-6154Y189595D01*
X-6348Y189634D01*
X-6531Y189710D01*
X-7345Y189872D01*
X-7543D01*
X-7737Y189910D01*
D02*
G37*
G36*
X136989Y133600D02*
X136823Y133534D01*
X136783Y133534D01*
X136749Y133520D01*
X136715Y133534D01*
X136646Y133535D01*
X136480Y133468D01*
X136166Y133471D01*
X136132Y133457D01*
X136098Y133471D01*
X136030Y133472D01*
X136030Y133472D01*
X136030Y133472D01*
X135863Y133405D01*
X135823Y133405D01*
X135657Y133338D01*
X135617Y133339D01*
X135617Y133338D01*
X135617Y133339D01*
X135579Y133326D01*
X135549Y133339D01*
X135549Y133339D01*
X135480Y133340D01*
X135480Y133340D01*
X135480Y133340D01*
X135114Y133206D01*
X135069Y133206D01*
X135068Y133206D01*
X135068Y133206D01*
X135068D01*
X134983Y133172D01*
X134615Y133023D01*
X134615Y133023D01*
X134615Y133023D01*
X134613Y133019D01*
X134134Y132822D01*
Y132822D01*
X134133Y132822D01*
X134122Y132794D01*
X133858Y132687D01*
X133858Y132687D01*
X133858Y132687D01*
X133838Y132639D01*
X133789Y132620D01*
X133789Y132620D01*
X133789Y132620D01*
X133777Y132591D01*
X133680Y132552D01*
X133514Y132485D01*
X133514Y132485D01*
X133514Y132485D01*
X133502Y132457D01*
X133239Y132350D01*
X133239Y132350D01*
X133239Y132350D01*
X133219Y132302D01*
X133170Y132282D01*
X133170Y132282D01*
X133170Y132282D01*
X133149Y132234D01*
X133101Y132215D01*
X133101Y132214D01*
X133101Y132214D01*
X133080Y132166D01*
X133032Y132147D01*
X133032Y132147D01*
X133032Y132147D01*
X133011Y132098D01*
X132963Y132079D01*
X132963Y132079D01*
X132963Y132079D01*
X132942Y132030D01*
X132894Y132011D01*
X132894Y132011D01*
X132894Y132011D01*
X132873Y131963D01*
X132825Y131943D01*
X132825Y131943D01*
X132824Y131943D01*
X132804Y131895D01*
X132756Y131875D01*
X132756Y131875D01*
X132755Y131875D01*
X132735Y131827D01*
X132686Y131807D01*
X132686Y131807D01*
X132686Y131807D01*
X132666Y131759D01*
X132617Y131739D01*
X132617Y131739D01*
X132617Y131739D01*
X132597Y131691D01*
X132548Y131672D01*
X132548Y131671D01*
X132548Y131671D01*
X132528Y131623D01*
X132479Y131604D01*
X132459Y131555D01*
X132410Y131536D01*
X132410Y131536D01*
X132410Y131535D01*
X132390Y131487D01*
X132341Y131468D01*
X132321Y131420D01*
X132272Y131400D01*
X132272Y131400D01*
X132272Y131400D01*
X132252Y131352D01*
X132203Y131332D01*
X132203Y131332D01*
X132203Y131332D01*
X132183Y131284D01*
X132134Y131264D01*
X132134Y131264D01*
X132134Y131264D01*
X132078Y131134D01*
X132064Y131128D01*
X132064Y131128D01*
X132064Y131128D01*
X132009Y130997D01*
X131994Y130991D01*
X131974Y130943D01*
X131926Y130924D01*
X131926Y130924D01*
X131925Y130924D01*
X131905Y130875D01*
X131856Y130856D01*
X131856Y130856D01*
X131856Y130856D01*
X131801Y130725D01*
X131787Y130719D01*
X131787Y130719D01*
X131786Y130719D01*
X131786Y130717D01*
X131718Y130583D01*
X131717Y130583D01*
X131717Y130583D01*
X131717Y130583D01*
X131692Y130533D01*
X131648Y130515D01*
X131648Y130515D01*
X131648Y130515D01*
X131625Y130466D01*
X131579Y130447D01*
X131579Y130447D01*
X131579Y130447D01*
X131579Y130447D01*
X131483Y130220D01*
X131388Y129997D01*
X131387Y129967D01*
X131319Y129797D01*
X131317Y129792D01*
Y129792D01*
X131317Y129792D01*
X131299Y129765D01*
X131207Y129548D01*
X131108Y129314D01*
X131108Y129314D01*
X131108Y129314D01*
X131107Y129274D01*
X131037Y129110D01*
X131038Y129110D01*
X131037Y129110D01*
X131037Y129069D01*
X130967Y128905D01*
X130967Y128905D01*
X130967Y128905D01*
X130967Y128865D01*
X130897Y128700D01*
X130897Y128660D01*
X130827Y128495D01*
X130827Y128495D01*
X130827Y128495D01*
X130826Y128427D01*
X130826Y128427D01*
X130826Y128426D01*
X130840Y128392D01*
X130825Y128358D01*
Y128358D01*
X130825Y128358D01*
X130825Y128358D01*
X130825Y128290D01*
X130825Y128290D01*
X130825Y128290D01*
X130825Y128290D01*
X130824Y128221D01*
X130824Y128221D01*
X130824Y128221D01*
X130824Y128152D01*
X130833Y128107D01*
X130823Y128084D01*
X130823Y128084D01*
Y128084D01*
X130823Y128084D01*
X130823Y128084D01*
X130823Y128016D01*
X130823Y128015D01*
X130728Y126910D01*
X130726Y126893D01*
X130626Y126659D01*
X130535Y126443D01*
Y126443D01*
X130535Y126443D01*
X130535Y126443D01*
X130534Y126375D01*
X130534Y126375D01*
X130534Y126374D01*
X130534Y126374D01*
X130534Y126306D01*
X130534Y126306D01*
X130534Y126306D01*
X130532Y126169D01*
X130532Y126169D01*
X130532Y126169D01*
X130532Y126101D01*
X130532Y126101D01*
X130532Y126101D01*
X130531Y126032D01*
X130531Y126032D01*
X130531Y126032D01*
X130531Y125964D01*
X130531Y125964D01*
X130539Y125942D01*
X130530Y125896D01*
X130530Y125895D01*
Y125895D01*
X130530Y125895D01*
X130530Y125895D01*
X130529Y125827D01*
X130543Y125793D01*
X130529Y125758D01*
X130529Y125758D01*
X130529Y125758D01*
X130528Y125690D01*
X130542Y125655D01*
X130528Y125621D01*
X130527Y125553D01*
X130541Y125518D01*
X130526Y125484D01*
X130526Y125416D01*
X130593Y125250D01*
X130592Y125141D01*
X130592Y125141D01*
X130591Y125073D01*
X130605Y125039D01*
X130591Y125005D01*
Y125004D01*
X130591Y125004D01*
X130591Y125004D01*
X130590Y124936D01*
X130590Y124936D01*
X130590Y124936D01*
X130657Y124770D01*
X130657Y124730D01*
X130657Y124730D01*
X130657Y124730D01*
X130671Y124696D01*
X130656Y124661D01*
X130656Y124593D01*
X130669Y124558D01*
X130655Y124525D01*
Y124524D01*
X130655Y124524D01*
X130655Y124524D01*
X130654Y124456D01*
X130655Y124456D01*
X130654Y124456D01*
X130721Y124290D01*
X130721Y124250D01*
X130721Y124250D01*
X130721Y124250D01*
X130788Y124084D01*
X130788Y124044D01*
X130802Y124010D01*
X130787Y123976D01*
X130787Y123976D01*
X130787Y123975D01*
X130787Y123907D01*
X130854Y123741D01*
X130853Y123701D01*
X130853Y123701D01*
X130853Y123701D01*
X130920Y123535D01*
X130920Y123495D01*
X130934Y123460D01*
X130919Y123426D01*
X130919Y123426D01*
X130919Y123426D01*
X130919Y123426D01*
X130919Y123358D01*
X130919Y123358D01*
X130919Y123358D01*
X131053Y122992D01*
X131052Y122946D01*
X131052Y122946D01*
X131052Y122946D01*
X131236Y122492D01*
X131236D01*
X131253Y122464D01*
X131321Y122299D01*
X131320Y122258D01*
X131413Y122028D01*
X131503Y121805D01*
X131503Y121805D01*
X131503Y121805D01*
X131532Y121793D01*
X131542Y121767D01*
X131638Y121530D01*
X131638Y121530D01*
X131638Y121530D01*
X131666Y121518D01*
X131680Y121483D01*
X131772Y121255D01*
X131772Y121255D01*
X131772Y121255D01*
X131801Y121243D01*
X131907Y120980D01*
X131955Y120959D01*
X131975Y120911D01*
X131975Y120911D01*
X131975Y120911D01*
X132023Y120890D01*
X132043Y120842D01*
X132043Y120842D01*
X132043Y120841D01*
X132057Y120835D01*
X132110Y120704D01*
X132110Y120704D01*
X132110Y120704D01*
X132124Y120698D01*
X132177Y120566D01*
X132177Y120566D01*
X132177Y120566D01*
X132226Y120546D01*
X132245Y120497D01*
X132273Y120485D01*
X132380Y120222D01*
X132380Y120222D01*
X132380Y120222D01*
X132428Y120202D01*
X132448Y120153D01*
X132448Y120153D01*
X132448Y120153D01*
X132496Y120133D01*
X132516Y120084D01*
X132516Y120084D01*
X132516Y120084D01*
X132564Y120064D01*
X132583Y120015D01*
X132584Y120015D01*
X132584Y120015D01*
X132632Y119994D01*
X132651Y119946D01*
X132651Y119946D01*
X132651Y119946D01*
X132700Y119925D01*
X132719Y119877D01*
X132719Y119877D01*
X132719Y119877D01*
X132733Y119871D01*
X132787Y119739D01*
X132787Y119739D01*
X132787Y119739D01*
X132801Y119733D01*
X132854Y119602D01*
X132902Y119581D01*
X132922Y119533D01*
X132922Y119533D01*
X132922Y119533D01*
X132970Y119512D01*
X132989Y119464D01*
X132990Y119464D01*
X132990Y119464D01*
X133038Y119443D01*
X133057Y119395D01*
X133057Y119395D01*
X133057Y119395D01*
X133106Y119374D01*
X133125Y119325D01*
X133125Y119325D01*
X133125Y119325D01*
X133174Y119305D01*
X133193Y119256D01*
X133241Y119236D01*
X133261Y119187D01*
X133261Y119187D01*
X133261Y119187D01*
X133309Y119167D01*
X133329Y119118D01*
X133329Y119118D01*
X133329Y119118D01*
X133377Y119098D01*
X133397Y119049D01*
X133397Y119049D01*
X133397Y119049D01*
X133445Y119029D01*
X133465Y118980D01*
X133465Y118980D01*
X133465Y118980D01*
X133513Y118959D01*
X133533Y118911D01*
X133533Y118911D01*
X133533Y118911D01*
X133581Y118890D01*
X133600Y118842D01*
X133649Y118822D01*
X133668Y118773D01*
X133668Y118773D01*
X133668Y118773D01*
X133717Y118752D01*
X133736Y118704D01*
X133736Y118704D01*
X133736Y118704D01*
X133784Y118683D01*
X133804Y118635D01*
X133804Y118635D01*
X133804Y118635D01*
X133901Y118594D01*
X133940Y118497D01*
X133940Y118497D01*
X133940Y118497D01*
X134175Y118397D01*
X134201Y118386D01*
X134213Y118357D01*
X134261Y118337D01*
X134280Y118288D01*
X134281Y118288D01*
X134281Y118288D01*
X134329Y118268D01*
X134348Y118219D01*
X134348Y118219D01*
X134349Y118219D01*
X134397Y118199D01*
X134416Y118150D01*
X134416Y118150D01*
X134416Y118150D01*
X134547Y118095D01*
X134553Y118080D01*
X134553Y118080D01*
X134553Y118080D01*
X134683Y118025D01*
X134689Y118010D01*
X134737Y117990D01*
X134757Y117941D01*
X134757Y117941D01*
X134757Y117941D01*
X134805Y117921D01*
X134825Y117872D01*
X134825Y117872D01*
X134825Y117872D01*
X134873Y117852D01*
X134893Y117803D01*
X134893Y117803D01*
X134893Y117803D01*
X135122Y117706D01*
X135154Y117692D01*
X135165Y117664D01*
X135165Y117664D01*
X135166Y117664D01*
X135427Y117553D01*
X135438Y117525D01*
X135438Y117525D01*
X135438Y117525D01*
X135699Y117414D01*
X135711Y117385D01*
X135711Y117385D01*
X135711Y117385D01*
X135972Y117274D01*
X135984Y117246D01*
X135984Y117246D01*
X135984Y117246D01*
X136238Y117138D01*
X136434Y117055D01*
X136474Y117054D01*
X136639Y116984D01*
X136679Y116984D01*
X136844Y116914D01*
X136844Y116914D01*
X136844Y116914D01*
X136884Y116914D01*
X137048Y116844D01*
X137089Y116844D01*
X137253Y116774D01*
X137293Y116773D01*
X137458Y116703D01*
X137458Y116703D01*
X137458Y116703D01*
X137498Y116703D01*
X137663Y116633D01*
X137663D01*
X137663Y116633D01*
X137663Y116633D01*
X137731Y116633D01*
X137731Y116633D01*
X137731Y116633D01*
X137766Y116647D01*
X137800Y116632D01*
X137840Y116632D01*
X138005Y116562D01*
X138005Y116562D01*
X138005Y116562D01*
X138073Y116561D01*
X138108Y116575D01*
X138142Y116560D01*
X138142Y116560D01*
X138142Y116560D01*
X138182Y116560D01*
X138346Y116490D01*
X138346Y116490D01*
X138346Y116490D01*
X138415Y116490D01*
X138449Y116504D01*
X138483Y116489D01*
X138483Y116489D01*
X138484Y116489D01*
X139208Y116483D01*
X139373Y116413D01*
X139373Y116413D01*
X139373Y116413D01*
X139442Y116412D01*
X139476Y116426D01*
X139510Y116412D01*
X139579Y116411D01*
X139613Y116425D01*
X139647Y116410D01*
X139647D01*
X139647Y116410D01*
X139647Y116410D01*
X139715Y116410D01*
X139716Y116410D01*
X139716Y116410D01*
X139882Y116477D01*
X140332Y116473D01*
X140367Y116487D01*
X140401Y116472D01*
X140401Y116472D01*
X140401D01*
X140401Y116472D01*
X140401Y116472D01*
X140469Y116472D01*
X140469Y116472D01*
X140469Y116472D01*
X140893Y116605D01*
X141018Y116604D01*
X141018Y116604D01*
X141019Y116604D01*
X141253Y116699D01*
X141472Y116787D01*
X141472Y116787D01*
X142393Y116855D01*
X142527Y116865D01*
X142527Y116865D01*
X142527Y116865D01*
X142664Y116864D01*
X142664Y116863D01*
X143118Y117047D01*
X143118Y117047D01*
X143118Y117047D01*
X143125Y117065D01*
X143146Y117065D01*
X143168Y117074D01*
X143371Y117156D01*
X143599Y117248D01*
X143599Y117248D01*
X143599Y117248D01*
X143620Y117296D01*
X143668Y117316D01*
X143674Y117330D01*
X143806Y117383D01*
X143806Y117383D01*
X143806Y117383D01*
X143812Y117397D01*
X143943Y117450D01*
X143943Y117450D01*
X143943Y117450D01*
X143955Y117479D01*
X144005Y117499D01*
X144218Y117585D01*
X144218Y117585D01*
X144218Y117585D01*
X144239Y117633D01*
X144288Y117653D01*
X144308Y117701D01*
X144357Y117721D01*
X144357Y117721D01*
X144357Y117721D01*
X144369Y117749D01*
X144425Y117772D01*
X144632Y117855D01*
X144632Y117855D01*
X144632Y117855D01*
X144673Y117952D01*
X144770Y117991D01*
X144770Y117991D01*
X144770Y117991D01*
X144790Y118039D01*
X144839Y118059D01*
X144839Y118059D01*
X144839Y118059D01*
X144859Y118107D01*
X144908Y118127D01*
X144908Y118127D01*
X144908Y118127D01*
X144928Y118175D01*
X144977Y118195D01*
X144977Y118195D01*
X144977Y118195D01*
X144998Y118243D01*
X145046Y118263D01*
X145046Y118263D01*
X145046Y118263D01*
X145067Y118311D01*
X145115Y118331D01*
X145115Y118331D01*
X145115Y118331D01*
X145136Y118379D01*
X145184Y118398D01*
X145205Y118447D01*
X145253Y118466D01*
X145253Y118466D01*
X145253Y118466D01*
X145274Y118515D01*
X145323Y118534D01*
X145323Y118534D01*
X145323Y118535D01*
X145343Y118582D01*
X145391Y118602D01*
X145392Y118602D01*
X145392Y118602D01*
X145412Y118650D01*
X145461Y118670D01*
X145461Y118670D01*
X145461Y118670D01*
X145481Y118718D01*
X145530Y118738D01*
X145530Y118738D01*
X145530Y118738D01*
X145550Y118786D01*
X145599Y118806D01*
X145599Y118806D01*
X145599Y118806D01*
X145640Y118902D01*
X145737Y118941D01*
X145737Y118941D01*
X145737Y118941D01*
X145824Y119147D01*
X145848Y119203D01*
X145876Y119214D01*
X145876Y119214D01*
X145876Y119214D01*
X145897Y119262D01*
X145945Y119282D01*
X145945Y119282D01*
X145945Y119282D01*
X145966Y119330D01*
X146014Y119350D01*
X146014Y119350D01*
X146014Y119350D01*
X146070Y119480D01*
X146084Y119486D01*
X146084Y119486D01*
X146084Y119486D01*
X146140Y119617D01*
X146154Y119623D01*
X146154Y119623D01*
X146154Y119623D01*
X146174Y119671D01*
X146223Y119690D01*
X146223Y119691D01*
X146223Y119691D01*
X146243Y119739D01*
X146292Y119759D01*
X146403Y120019D01*
X146431Y120031D01*
X146431Y120031D01*
X146431Y120031D01*
X146557Y120298D01*
X146570Y120304D01*
X146571Y120304D01*
X146571Y120304D01*
X146692Y120569D01*
X146710Y120577D01*
X146710Y120577D01*
X146710Y120577D01*
X146901Y121027D01*
X146901Y121027D01*
X146901Y121027D01*
X146902Y121095D01*
X146902Y121095D01*
X146899Y121101D01*
X147042Y121437D01*
X147042Y121505D01*
X147042Y121505D01*
X147040Y121511D01*
X147089Y121627D01*
X147182Y121846D01*
X147183Y121915D01*
X147169Y121949D01*
X147183Y121983D01*
X147183Y121983D01*
X147183Y121983D01*
X147184Y122023D01*
X147254Y122188D01*
Y122188D01*
X147254Y122188D01*
X147254Y122188D01*
X147254Y122228D01*
X147324Y122393D01*
X147325Y122461D01*
X147311Y122496D01*
X147325Y122530D01*
X147326Y122598D01*
X147326Y122599D01*
X147326Y122667D01*
X147326Y122667D01*
X147326Y122667D01*
X147327Y122707D01*
X147397Y122872D01*
Y122872D01*
X147397Y122872D01*
X147397Y122872D01*
X147397Y122940D01*
X147397Y122940D01*
X147397Y122940D01*
X147398Y123009D01*
X147398Y123009D01*
X147398Y123049D01*
X147468Y123214D01*
X147469Y123282D01*
X147455Y123316D01*
X147469Y123350D01*
X147469Y123351D01*
X147469Y123351D01*
X147470Y123419D01*
X147456Y123453D01*
X147470Y123487D01*
Y123488D01*
X147470Y123488D01*
X147470Y123488D01*
X147471Y123556D01*
X147471Y123556D01*
X147471Y123556D01*
X147457Y123590D01*
X147472Y123624D01*
X147472Y123624D01*
X147472Y123625D01*
X147472Y123693D01*
X147474Y123830D01*
X147460Y123864D01*
X147474Y123898D01*
X147474Y123898D01*
X147474Y123898D01*
X147475Y124035D01*
X147475Y124035D01*
X147476Y124104D01*
X147476Y124104D01*
X147476Y124104D01*
X147462Y124138D01*
X147476Y124172D01*
X147477Y124241D01*
X147463Y124275D01*
X147478Y124309D01*
Y124309D01*
X147478Y124309D01*
X147478Y124309D01*
X147478Y124378D01*
X147478Y124378D01*
X147478Y124378D01*
X147411Y124543D01*
X147412Y124583D01*
X147412Y124584D01*
X147412Y124584D01*
X147413Y124721D01*
X147399Y124755D01*
X147413Y124789D01*
X147414Y124858D01*
X147347Y125023D01*
X147347Y125064D01*
X147280Y125230D01*
X147281Y125270D01*
X147281Y125270D01*
X147281Y125270D01*
X147214Y125457D01*
X147214Y125476D01*
X147214Y125476D01*
X147214Y125476D01*
X147147Y125659D01*
X147147Y125682D01*
X147080Y125848D01*
X147081Y125887D01*
X147081Y125887D01*
X147081Y125887D01*
Y125888D01*
X147004Y126077D01*
X146898Y126341D01*
X147020Y126779D01*
X147020Y126779D01*
X147020Y126779D01*
X147020Y126779D01*
X147020Y126779D01*
X147021Y126916D01*
X146954Y127082D01*
X146954Y127122D01*
X146845Y127391D01*
X146771Y127575D01*
X146771Y127575D01*
X146771Y127575D01*
X146771Y127575D01*
X146743Y127587D01*
X146637Y127850D01*
X146637Y127850D01*
X146636Y127850D01*
X146636Y127850D01*
X146608Y127862D01*
X146502Y128125D01*
X146474Y128137D01*
X146367Y128401D01*
X146367Y128401D01*
X146367Y128401D01*
X146339Y128413D01*
X146321Y128456D01*
X146233Y128676D01*
X146233Y128676D01*
X146233Y128676D01*
X146185Y128696D01*
X146165Y128744D01*
X146165Y128744D01*
X146165Y128745D01*
X146137Y128757D01*
X146030Y129020D01*
X146030Y129020D01*
X146030Y129020D01*
X145982Y129040D01*
X145963Y129089D01*
X145963Y129089D01*
X145963Y129089D01*
X145948Y129095D01*
X145895Y129226D01*
X145895Y129226D01*
X145895Y129227D01*
X145881Y129233D01*
X145828Y129364D01*
X145828Y129364D01*
X145828Y129364D01*
X145780Y129384D01*
X145760Y129433D01*
X145760Y129433D01*
X145760Y129433D01*
X145712Y129454D01*
X145692Y129502D01*
X145692Y129502D01*
X145692Y129502D01*
X145644Y129523D01*
X145624Y129571D01*
X145596Y129583D01*
X145490Y129847D01*
X145441Y129867D01*
X145422Y129915D01*
X145422Y129915D01*
X145422Y129915D01*
X145374Y129936D01*
X145354Y129984D01*
X145354Y129984D01*
X145354Y129984D01*
X145306Y130005D01*
X145286Y130054D01*
X145238Y130074D01*
X145218Y130123D01*
X145170Y130143D01*
X145150Y130192D01*
X145150Y130192D01*
X145150Y130192D01*
X145136Y130198D01*
X145083Y130329D01*
X145069Y130335D01*
X145016Y130467D01*
X145016Y130467D01*
X145016Y130467D01*
X144919Y130508D01*
X144880Y130605D01*
X144880Y130605D01*
X144880Y130605D01*
X144783Y130646D01*
X144744Y130743D01*
X144744Y130743D01*
X144744Y130743D01*
X144648Y130784D01*
X144608Y130881D01*
X144608Y130881D01*
X144608Y130881D01*
X144512Y130922D01*
X144473Y131019D01*
X144473Y131019D01*
X144472Y131020D01*
X144376Y131061D01*
X144337Y131158D01*
X144337Y131158D01*
X144337Y131158D01*
X144158Y131233D01*
X144133Y131296D01*
X144133Y131296D01*
X144132Y131297D01*
X144002Y131352D01*
X143996Y131366D01*
X143996Y131366D01*
X143996Y131366D01*
X143948Y131387D01*
X143929Y131435D01*
X143928Y131435D01*
X143928Y131435D01*
X143880Y131456D01*
X143860Y131504D01*
X143860Y131504D01*
X143860Y131504D01*
X143812Y131525D01*
X143793Y131573D01*
X143745Y131594D01*
X143725Y131642D01*
X143725Y131642D01*
X143725Y131642D01*
X143676Y131663D01*
X143657Y131711D01*
X143657Y131711D01*
X143657Y131712D01*
X143441Y131803D01*
X143396Y131822D01*
X143384Y131851D01*
X143384Y131851D01*
X143384Y131851D01*
X143336Y131871D01*
X143316Y131920D01*
X143268Y131940D01*
X143248Y131989D01*
X143248Y131989D01*
X143248Y131989D01*
X143027Y132083D01*
X142987Y132100D01*
X142976Y132128D01*
X142975Y132128D01*
X142975Y132128D01*
X142927Y132149D01*
X142908Y132197D01*
X142908Y132197D01*
X142908Y132197D01*
X142684Y132292D01*
X142647Y132308D01*
X142635Y132336D01*
X142635Y132337D01*
X142635Y132337D01*
X142632Y132338D01*
X142585Y132362D01*
X142567Y132406D01*
X142567Y132406D01*
X142567Y132406D01*
X142091Y132611D01*
X142090Y132615D01*
X142090Y132615D01*
X142090Y132615D01*
X141639Y132807D01*
X141612Y132825D01*
X141394Y132918D01*
X141162Y133016D01*
X141122Y133017D01*
X140957Y133087D01*
X140957Y133086D01*
X140957Y133087D01*
X140917Y133087D01*
X140752Y133157D01*
X140752D01*
X140752Y133157D01*
X140752Y133157D01*
X140684Y133157D01*
X140684Y133157D01*
X140683Y133157D01*
X140649Y133143D01*
X140615Y133158D01*
X140575Y133158D01*
X140410Y133228D01*
X140370Y133229D01*
X140206Y133299D01*
X140205D01*
X140205Y133299D01*
X140205Y133299D01*
X140137Y133299D01*
X140137Y133299D01*
X140137Y133299D01*
X140103Y133285D01*
X140068Y133300D01*
X140068Y133300D01*
X140068Y133300D01*
X139891Y133301D01*
X139727Y133371D01*
X139727Y133371D01*
X139727Y133371D01*
X139658Y133372D01*
X139391Y133382D01*
X139015Y133396D01*
X138564Y133587D01*
X138564Y133587D01*
X137400Y133597D01*
X137366Y133583D01*
X137332Y133598D01*
X137332Y133598D01*
X137332Y133598D01*
X137263Y133598D01*
X137263Y133598D01*
X137263Y133598D01*
X137229Y133584D01*
X137195Y133599D01*
X137195D01*
X137195Y133599D01*
X137195Y133599D01*
X137126Y133599D01*
X137092Y133585D01*
X137058Y133600D01*
X137058Y133600D01*
X137057Y133600D01*
X136989Y133600D01*
D02*
G37*
G36*
X-90938Y122047D02*
X-91975D01*
X-92976Y121779D01*
X-93874Y121261D01*
X-94607Y120528D01*
X-95125Y119630D01*
X-95394Y118629D01*
Y117592D01*
X-95125Y116591D01*
X-94607Y115693D01*
X-93874Y114960D01*
X-92976Y114442D01*
X-91975Y114173D01*
X-90938D01*
X-89937Y114442D01*
X-89039Y114960D01*
X-88306Y115693D01*
X-87788Y116591D01*
X-87520Y117592D01*
Y118629D01*
X-87788Y119630D01*
X-88306Y120528D01*
X-89039Y121261D01*
X-89937Y121779D01*
X-90938Y122047D01*
D02*
G37*
G36*
X-97520D02*
X-105394D01*
Y114173D01*
X-97520D01*
Y122047D01*
D02*
G37*
G36*
X101950Y129977D02*
X101088D01*
X100292Y129648D01*
X99683Y129039D01*
X99353Y128243D01*
Y127381D01*
X99683Y126585D01*
X100292Y125976D01*
X101088Y125647D01*
X101839D01*
X115945Y111541D01*
Y110790D01*
X116274Y109994D01*
X116884Y109385D01*
X117680Y109055D01*
X118541D01*
X119337Y109385D01*
X119946Y109994D01*
X120276Y110790D01*
Y111651D01*
X119946Y112447D01*
X119337Y113056D01*
X118541Y113386D01*
X117790D01*
X103684Y127492D01*
Y128243D01*
X103354Y129039D01*
X102745Y129648D01*
X101950Y129977D01*
D02*
G37*
G36*
X123297Y106103D02*
X123202Y106076D01*
X123106Y106095D01*
X122937Y106062D01*
X122936Y106062D01*
X122850Y106005D01*
X122747Y105993D01*
X122573Y105896D01*
X122573Y105896D01*
X122520Y105830D01*
X122442Y105799D01*
X122308Y105671D01*
X122308Y105671D01*
X122289Y105628D01*
X122289D01*
X122285Y105619D01*
X122247Y105534D01*
X122204Y105485D01*
X122102Y105463D01*
X121031Y105453D01*
X120997Y105461D01*
X120920Y105615D01*
X120762Y105752D01*
X120645Y105882D01*
X120645D01*
X120622Y105907D01*
X120622Y105907D01*
X120333Y106045D01*
X120298Y106047D01*
X120272Y106070D01*
X120272Y106070D01*
X120058Y106059D01*
X119844Y106070D01*
X119844Y106070D01*
X119818Y106047D01*
X119784Y106045D01*
X119496Y105908D01*
X119496Y105908D01*
X119356Y105753D01*
X119198Y105615D01*
X119120Y105457D01*
X119024Y105434D01*
X118421Y105415D01*
X118107Y105423D01*
X117905Y105463D01*
X117904Y105463D01*
X117897Y105472D01*
X117882Y105562D01*
X117882Y105562D01*
X117840Y105629D01*
X117776Y105675D01*
X117745Y105747D01*
X117679Y105812D01*
X117623Y105834D01*
X117590Y105884D01*
X117513Y105936D01*
X117440Y105951D01*
X117387Y106002D01*
X117387D01*
X117309Y106032D01*
X117309Y106032D01*
X117308Y106032D01*
X117224Y106030D01*
X117150Y106071D01*
X116948Y106095D01*
X116948Y106095D01*
X116858Y106069D01*
X116767Y106089D01*
X116577Y106057D01*
X116487Y106000D01*
X116381Y105989D01*
X116381Y105989D01*
X116229Y105907D01*
X116229Y105907D01*
X116143Y105801D01*
X116025Y105733D01*
X115932Y105612D01*
X115900Y105492D01*
X115824Y105394D01*
X115768Y105194D01*
X115768Y105194D01*
X115774Y105149D01*
X115751Y105110D01*
X115003Y99595D01*
X115003Y99595D01*
X115003Y99595D01*
X114283Y94279D01*
X113534Y94268D01*
X111959Y94253D01*
X109821Y94249D01*
X107629Y94245D01*
X107628Y94244D01*
X107627Y94245D01*
X105216Y94234D01*
X105215Y94234D01*
X105214Y94234D01*
X102946Y94218D01*
X102945Y94218D01*
X102944Y94218D01*
X101239Y94199D01*
X101236Y94198D01*
X97833Y94150D01*
X97746Y94149D01*
X97679Y94156D01*
X96877Y94504D01*
X96528Y94760D01*
X96526Y94762D01*
X96451Y95179D01*
X96447Y95185D01*
X96448Y95192D01*
X96295Y95952D01*
X96286Y95965D01*
X96289Y95979D01*
X95927Y97446D01*
X95915Y97462D01*
X95917Y97482D01*
X95465Y98937D01*
X95452Y98952D01*
X95452Y98972D01*
X94932Y100353D01*
X94916Y100370D01*
X94916Y100393D01*
X94348Y101637D01*
X94335Y101649D01*
X94333Y101667D01*
X94214Y101894D01*
X94204Y101903D01*
X94202Y101916D01*
X94202Y101916D01*
X94092Y102107D01*
X94083Y102115D01*
X94081Y102127D01*
X94081Y102127D01*
X93984Y102282D01*
X93984Y102282D01*
X93850Y102377D01*
X93747Y102505D01*
X93713Y102524D01*
X93634Y102532D01*
X93586Y102566D01*
X93586Y102566D01*
X93480Y102549D01*
X93472Y102549D01*
X93232Y102577D01*
X93232Y102577D01*
X93071Y102531D01*
X93071Y102531D01*
X92998Y102473D01*
X92905Y102457D01*
X92905Y102457D01*
X92296Y102072D01*
X92291Y102065D01*
X92282Y102063D01*
X91684Y101664D01*
X91673Y101648D01*
X91654Y101643D01*
X91216Y101312D01*
X91202Y101289D01*
X91176Y101280D01*
X90635Y100800D01*
X90625Y100779D01*
X90604Y100770D01*
X90152Y100312D01*
X89937Y100259D01*
X89646Y100274D01*
X88794Y100579D01*
X88775Y100628D01*
X88765Y100639D01*
X88765Y100653D01*
X88539Y101184D01*
X88531Y101192D01*
X88531Y101204D01*
X88217Y101878D01*
X88211Y101884D01*
X88210Y101893D01*
X88057Y102200D01*
X88047Y102209D01*
X88045Y102223D01*
X88045Y102223D01*
X87903Y102482D01*
X87894Y102489D01*
X87892Y102501D01*
X87892Y102501D01*
X87767Y102712D01*
X87767Y102712D01*
X87633Y102812D01*
X87529Y102943D01*
X87485Y102968D01*
X87413Y102977D01*
X87375Y103005D01*
X87375Y103005D01*
X87284Y102992D01*
X87247Y102996D01*
X87010Y103028D01*
X87010Y103028D01*
X86874Y102992D01*
X86874Y102992D01*
X86804Y102939D01*
X86717Y102927D01*
X86246Y102654D01*
X86240Y102646D01*
X86230Y102645D01*
X85765Y102358D01*
X85753Y102341D01*
X85733Y102336D01*
X85395Y102098D01*
X85377Y102069D01*
X85344Y102058D01*
X84231Y101090D01*
X84214Y101055D01*
X84179Y101039D01*
X83157Y99921D01*
X83144Y99887D01*
X83113Y99868D01*
X82380Y98868D01*
X81463Y98835D01*
X81047Y99001D01*
X80588Y100051D01*
X80525Y100194D01*
X80525Y100194D01*
X80392Y100322D01*
X80287Y100474D01*
X80287Y100474D01*
X80156Y100559D01*
X80133Y100564D01*
X80119Y100582D01*
X80119Y100582D01*
X79896Y100608D01*
X79675Y100649D01*
X79675Y100649D01*
X79656Y100636D01*
X79633Y100638D01*
X79374Y100565D01*
X79374D01*
X79298Y100504D01*
X79202Y100487D01*
X78550Y100066D01*
X78541Y100053D01*
X78525Y100049D01*
X77832Y99554D01*
X77820Y99535D01*
X77798Y99528D01*
X77190Y99030D01*
X77176Y99004D01*
X77149Y98993D01*
X76477Y98339D01*
X76466Y98313D01*
X76441Y98300D01*
X75735Y97488D01*
X75728Y97466D01*
X75708Y97455D01*
X75034Y96565D01*
X75028Y96542D01*
X75008Y96528D01*
X74425Y95638D01*
X74421Y95615D01*
X74404Y95601D01*
X74130Y95116D01*
X74129Y95104D01*
X74119Y95095D01*
X73738Y94356D01*
X73738Y94351D01*
X73734Y94348D01*
X73365Y93606D01*
X73363Y93577D01*
X73343Y93556D01*
X73343Y93556D01*
X73229Y93266D01*
X73229Y93266D01*
X73229Y93239D01*
X73212Y93218D01*
Y93218D01*
X73161Y93051D01*
X73161Y93051D01*
X73170Y92953D01*
X73133Y92863D01*
X73192Y92719D01*
X73207Y92564D01*
X73282Y92501D01*
X73320Y92411D01*
X73464Y92351D01*
X73584Y92252D01*
X73682Y92261D01*
X73772Y92224D01*
X73772Y92224D01*
X74037Y92224D01*
X84964Y92224D01*
X84964Y92224D01*
X84964Y92224D01*
X92273Y92227D01*
X92275Y92228D01*
X92277Y92227D01*
X94685Y92244D01*
X94689Y92245D01*
X94692Y92244D01*
X96070Y92268D01*
X96070Y92268D01*
X96094Y92276D01*
X96863Y92364D01*
X96965Y92364D01*
X97182Y92345D01*
X97518Y92286D01*
X97705Y92229D01*
X97722Y92224D01*
X97722Y92224D01*
X97723Y92224D01*
X97723Y92224D01*
X97999Y92224D01*
X115568Y92261D01*
X115619Y92282D01*
X115672Y92270D01*
X115672Y92270D01*
X115839Y92374D01*
X116020Y92449D01*
X116041Y92500D01*
X116087Y92528D01*
X116220Y92715D01*
X116220Y92715D01*
X116237Y92787D01*
X116289Y92838D01*
X116314Y92897D01*
X116368Y92916D01*
X116642Y92970D01*
X116885Y92988D01*
X117337Y92944D01*
X117527Y92896D01*
X117603Y92734D01*
X117757Y92593D01*
X117894Y92434D01*
X118172Y92293D01*
X118379Y92278D01*
X118582Y92236D01*
X118772Y92273D01*
X118877Y92343D01*
X119001Y92366D01*
X119162Y92472D01*
X119230Y92572D01*
X119333Y92636D01*
X119405Y92738D01*
X120028Y92869D01*
X120695Y92713D01*
X120713Y92686D01*
X120807Y92620D01*
X120864Y92521D01*
X120981Y92432D01*
X121072Y92408D01*
X121141Y92343D01*
X121141Y92343D01*
X121291Y92286D01*
X121374Y92288D01*
X121447Y92248D01*
X121617Y92229D01*
X121617Y92229D01*
X121617Y92229D01*
X121633Y92234D01*
X121802Y92282D01*
X121994Y92302D01*
X122254Y92444D01*
X122254D01*
X122387Y92607D01*
X122537Y92755D01*
X122537Y92755D01*
X122553Y92791D01*
X122595Y92890D01*
X122794Y92941D01*
X123129Y92975D01*
X123801Y92903D01*
X123828Y92840D01*
X123879Y92789D01*
X123895Y92717D01*
X123895Y92717D01*
X124027Y92531D01*
X124075Y92501D01*
X124096Y92449D01*
X124276Y92374D01*
X124441Y92270D01*
X124441Y92270D01*
X124496Y92283D01*
X124548Y92261D01*
X150694Y92224D01*
X150970Y92224D01*
X150970Y92224D01*
X150970Y92224D01*
X150971Y92224D01*
X151422Y92410D01*
X151423Y92411D01*
X151423Y92411D01*
X151610Y92862D01*
X151610Y92862D01*
X151610Y92863D01*
X151610Y92863D01*
X151610Y93139D01*
Y93509D01*
X151518Y93732D01*
X151429Y93955D01*
X151429Y93955D01*
X151425Y93957D01*
X151423Y93961D01*
X151201Y94053D01*
X150980Y94148D01*
X147388Y94198D01*
X147385Y94199D01*
X145419Y94218D01*
X145418Y94218D01*
X145416Y94218D01*
X142121Y94235D01*
X142121Y94234D01*
X142120Y94235D01*
X138330Y94245D01*
X138329Y94245D01*
X138328Y94245D01*
X134515Y94249D01*
X130421Y94253D01*
X127574Y94268D01*
X125812Y94282D01*
X125656Y95470D01*
X125656Y95470D01*
X125656Y95470D01*
X125415Y97300D01*
X125415Y97300D01*
X125415Y97300D01*
X125129Y99459D01*
X124843Y101618D01*
X124603Y103450D01*
X124391Y105072D01*
X124387Y105125D01*
X124366Y105167D01*
X124375Y105213D01*
X124374Y105213D01*
X124365Y105257D01*
X124312Y105335D01*
X124302Y105428D01*
X124302Y105428D01*
X124268Y105491D01*
X124237Y105517D01*
X124227Y105557D01*
X124227Y105557D01*
X124179Y105625D01*
X124146Y105645D01*
X124134Y105682D01*
X124076Y105745D01*
X124023Y105771D01*
X123994Y105823D01*
X123994Y105823D01*
X123920Y105880D01*
X123855Y105898D01*
X123811Y105949D01*
X123714Y105997D01*
X123714Y105997D01*
X123661Y106000D01*
X123621Y106034D01*
X123621Y106034D01*
X123516Y106067D01*
X123451Y106061D01*
X123394Y106093D01*
X123297Y106103D01*
X123297Y106103D01*
D02*
G37*
G36*
X-8445Y135865D02*
X-26989D01*
X-27182Y135827D01*
X-27380D01*
X-28346Y135635D01*
X-28529Y135559D01*
X-28723Y135520D01*
X-29632Y135143D01*
X-29797Y135034D01*
X-29980Y134958D01*
X-30799Y134411D01*
X-30938Y134271D01*
X-31103Y134161D01*
X-31799Y133465D01*
X-31909Y133300D01*
X-32049Y133161D01*
X-32596Y132342D01*
X-32671Y132159D01*
X-32781Y131995D01*
X-33158Y131085D01*
X-33197Y130891D01*
X-33272Y130708D01*
X-33465Y129742D01*
Y129545D01*
X-33503Y129351D01*
Y118110D01*
Y116391D01*
X-33482Y116282D01*
X-33491Y116172D01*
X-33117Y112753D01*
X-33084Y112648D01*
X-33081Y112538D01*
X-32337Y109180D01*
X-32292Y109079D01*
X-32278Y108969D01*
X-31172Y105713D01*
X-31117Y105617D01*
X-31091Y105510D01*
X-29638Y102393D01*
X-29572Y102304D01*
X-29534Y102200D01*
X-27750Y99260D01*
X-27676Y99178D01*
X-27627Y99079D01*
X-25533Y96351D01*
X-25450Y96278D01*
X-25390Y96184D01*
X-23012Y93700D01*
X-22922Y93637D01*
X-22853Y93551D01*
X-20218Y91340D01*
X-20121Y91287D01*
X-20043Y91209D01*
X-17184Y89298D01*
X-17082Y89256D01*
X-16995Y89187D01*
X-13945Y87599D01*
X-13839Y87568D01*
X-13745Y87508D01*
X-10540Y86262D01*
X-10431Y86243D01*
X-10332Y86194D01*
X-8671Y85749D01*
X-8409Y85732D01*
X-8152Y85680D01*
X-7737D01*
X-7543Y85719D01*
X-7345D01*
X-6531Y85881D01*
X-6348Y85957D01*
X-6154Y85995D01*
X-5387Y86313D01*
X-5223Y86423D01*
X-5040Y86498D01*
X-4350Y86959D01*
X-4210Y87099D01*
X-4046Y87209D01*
X-3459Y87796D01*
X-3349Y87960D01*
X-3209Y88100D01*
X-2748Y88791D01*
X-2672Y88973D01*
X-2562Y89138D01*
X-2245Y89905D01*
X-2206Y90099D01*
X-2131Y90281D01*
X-1969Y91096D01*
Y91293D01*
X-1930Y91487D01*
Y91902D01*
Y128858D01*
Y129351D01*
X-1969Y129545D01*
Y129742D01*
X-2161Y130708D01*
X-2236Y130891D01*
X-2275Y131085D01*
X-2652Y131995D01*
X-2762Y132159D01*
X-2837Y132342D01*
X-3384Y133161D01*
X-3524Y133300D01*
X-3634Y133465D01*
X-4330Y134161D01*
X-4495Y134271D01*
X-4635Y134411D01*
X-5454Y134958D01*
X-5636Y135034D01*
X-5801Y135143D01*
X-6711Y135520D01*
X-6904Y135559D01*
X-7087Y135635D01*
X-8053Y135827D01*
X-8251D01*
X-8445Y135865D01*
D02*
G37*
G36*
X26989D02*
X8444D01*
X8251Y135827D01*
X8053D01*
X7087Y135635D01*
X6904Y135559D01*
X6711Y135520D01*
X5801Y135143D01*
X5636Y135034D01*
X5454Y134958D01*
X4635Y134411D01*
X4495Y134271D01*
X4330Y134161D01*
X3634Y133465D01*
X3524Y133300D01*
X3384Y133161D01*
X2837Y132342D01*
X2762Y132159D01*
X2652Y131995D01*
X2275Y131085D01*
X2236Y130891D01*
X2161Y130708D01*
X1969Y129742D01*
Y129545D01*
X1930Y129351D01*
Y128858D01*
Y91902D01*
Y91487D01*
X1969Y91293D01*
Y91096D01*
X2131Y90281D01*
X2206Y90099D01*
X2245Y89905D01*
X2562Y89138D01*
X2672Y88973D01*
X2748Y88791D01*
X3209Y88100D01*
X3349Y87960D01*
X3459Y87796D01*
X4046Y87209D01*
X4210Y87099D01*
X4350Y86959D01*
X5040Y86498D01*
X5223Y86423D01*
X5387Y86313D01*
X6154Y85995D01*
X6348Y85957D01*
X6531Y85881D01*
X7345Y85719D01*
X7543D01*
X7737Y85680D01*
X8152D01*
X8409Y85732D01*
X8671Y85749D01*
X10332Y86194D01*
X10431Y86243D01*
X10540Y86262D01*
X13745Y87508D01*
X13839Y87568D01*
X13945Y87599D01*
X16995Y89187D01*
X17082Y89256D01*
X17184Y89298D01*
X20043Y91209D01*
X20121Y91287D01*
X20218Y91340D01*
X22853Y93551D01*
X22922Y93637D01*
X23012Y93700D01*
X25390Y96184D01*
X25450Y96278D01*
X25533Y96351D01*
X27627Y99079D01*
X27676Y99178D01*
X27750Y99260D01*
X29534Y102200D01*
X29572Y102304D01*
X29637Y102393D01*
X31091Y105510D01*
X31117Y105617D01*
X31172Y105713D01*
X32278Y108969D01*
X32292Y109079D01*
X32337Y109180D01*
X33081Y112538D01*
X33084Y112648D01*
X33117Y112753D01*
X33491Y116172D01*
X33482Y116282D01*
X33503Y116391D01*
Y118110D01*
Y129351D01*
X33465Y129545D01*
Y129742D01*
X33272Y130708D01*
X33197Y130891D01*
X33158Y131085D01*
X32781Y131995D01*
X32671Y132159D01*
X32596Y132342D01*
X32049Y133161D01*
X31909Y133300D01*
X31799Y133465D01*
X31103Y134161D01*
X30938Y134271D01*
X30798Y134411D01*
X29980Y134958D01*
X29797Y135034D01*
X29632Y135143D01*
X28723Y135520D01*
X28529Y135559D01*
X28346Y135635D01*
X27380Y135827D01*
X27182D01*
X26989Y135865D01*
D02*
G37*
G36*
X-162374Y59555D02*
X-162417Y59450D01*
Y59055D01*
X-162374Y59555D01*
D02*
G37*
G36*
X-162417Y59055D02*
Y58660D01*
X-162374Y58555D01*
X-162417Y59055D01*
D02*
G37*
G36*
X-160038Y61039D02*
X-160828D01*
X-161557Y60737D01*
X-162115Y60179D01*
X-162374Y59555D01*
X-160933D01*
Y60996D01*
X-160433Y61039D01*
X-159933Y60996D01*
Y59555D01*
X-158493D01*
X-158449Y59055D01*
X-158493Y58555D01*
X-159933D01*
Y57114D01*
X-160433Y57071D01*
X-160933Y57114D01*
Y58555D01*
X-162374D01*
X-162115Y57931D01*
X-161557Y57373D01*
X-160828Y57071D01*
X-160038D01*
X-159309Y57373D01*
X-158751Y57931D01*
X-158449Y58660D01*
Y59450D01*
X-158751Y60179D01*
X-159309Y60737D01*
X-160038Y61039D01*
D02*
G37*
G36*
X148219Y43307D02*
X147056D01*
X145915Y43080D01*
X144841Y42635D01*
X143873Y41989D01*
X143051Y41166D01*
X142404Y40199D01*
X141959Y39124D01*
X141732Y37983D01*
Y36820D01*
X141959Y35679D01*
X142404Y34604D01*
X143051Y33637D01*
X143873Y32814D01*
X144841Y32168D01*
X145915Y31723D01*
X147056Y31496D01*
X148219D01*
X149360Y31723D01*
X150435Y32168D01*
X151402Y32814D01*
X152225Y33637D01*
X152871Y34604D01*
X153316Y35679D01*
X153543Y36820D01*
Y37983D01*
X153316Y39124D01*
X152871Y40199D01*
X152225Y41166D01*
X151402Y41989D01*
X150435Y42635D01*
X149360Y43080D01*
X148219Y43307D01*
D02*
G37*
G36*
X-147056D02*
X-148219D01*
X-149360Y43080D01*
X-150435Y42635D01*
X-151402Y41989D01*
X-152225Y41166D01*
X-152871Y40199D01*
X-153316Y39124D01*
X-153543Y37983D01*
Y36820D01*
X-153316Y35679D01*
X-152871Y34604D01*
X-152225Y33637D01*
X-151402Y32814D01*
X-150435Y32168D01*
X-149360Y31723D01*
X-148219Y31496D01*
X-147056D01*
X-145915Y31723D01*
X-144841Y32168D01*
X-143873Y32814D01*
X-143051Y33637D01*
X-142404Y34604D01*
X-141959Y35679D01*
X-141732Y36820D01*
Y37983D01*
X-141959Y39124D01*
X-142404Y40199D01*
X-143051Y41166D01*
X-143873Y41989D01*
X-144841Y42635D01*
X-145915Y43080D01*
X-147056Y43307D01*
D02*
G37*
G36*
X-24480Y30606D02*
X-24500D01*
Y27154D01*
X-21047D01*
Y27174D01*
X-21317Y28179D01*
X-21837Y29081D01*
X-22573Y29816D01*
X-23474Y30337D01*
X-24480Y30606D01*
D02*
G37*
G36*
X-25500D02*
X-25520D01*
X-26526Y30337D01*
X-27427Y29816D01*
X-28163Y29081D01*
X-28683Y28179D01*
X-28953Y27174D01*
Y27154D01*
X-25500D01*
Y30606D01*
D02*
G37*
G36*
X15518Y30591D02*
X14482D01*
X13480Y30322D01*
X12583Y29804D01*
X11850Y29071D01*
X11331Y28173D01*
X11063Y27172D01*
Y26135D01*
X11331Y25134D01*
X11850Y24236D01*
X12583Y23503D01*
X13480Y22985D01*
X14482Y22716D01*
X15518D01*
X16520Y22985D01*
X17417Y23503D01*
X18150Y24236D01*
X18669Y25134D01*
X18937Y26135D01*
Y27172D01*
X18669Y28173D01*
X18150Y29071D01*
X17417Y29804D01*
X16520Y30322D01*
X15518Y30591D01*
D02*
G37*
G36*
X5518D02*
X4482D01*
X3480Y30322D01*
X2583Y29804D01*
X1850Y29071D01*
X1331Y28173D01*
X1063Y27172D01*
Y26135D01*
X1331Y25134D01*
X1850Y24236D01*
X2583Y23503D01*
X3480Y22985D01*
X4482Y22716D01*
X5518D01*
X6520Y22985D01*
X7417Y23503D01*
X8150Y24236D01*
X8669Y25134D01*
X8937Y26135D01*
Y27172D01*
X8669Y28173D01*
X8150Y29071D01*
X7417Y29804D01*
X6520Y30322D01*
X5518Y30591D01*
D02*
G37*
G36*
X-4482D02*
X-5518D01*
X-6520Y30322D01*
X-7417Y29804D01*
X-8150Y29071D01*
X-8669Y28173D01*
X-8937Y27172D01*
Y26135D01*
X-8669Y25134D01*
X-8150Y24236D01*
X-7417Y23503D01*
X-6520Y22985D01*
X-5518Y22716D01*
X-4482D01*
X-3480Y22985D01*
X-2583Y23503D01*
X-1850Y24236D01*
X-1331Y25134D01*
X-1063Y26135D01*
Y27172D01*
X-1331Y28173D01*
X-1850Y29071D01*
X-2583Y29804D01*
X-3480Y30322D01*
X-4482Y30591D01*
D02*
G37*
G36*
X-14482D02*
X-15518D01*
X-16520Y30322D01*
X-17417Y29804D01*
X-18150Y29071D01*
X-18669Y28173D01*
X-18937Y27172D01*
Y26135D01*
X-18669Y25134D01*
X-18150Y24236D01*
X-17417Y23503D01*
X-16520Y22985D01*
X-15518Y22716D01*
X-14482D01*
X-13480Y22985D01*
X-12583Y23503D01*
X-11850Y24236D01*
X-11331Y25134D01*
X-11063Y26135D01*
Y27172D01*
X-11331Y28173D01*
X-11850Y29071D01*
X-12583Y29804D01*
X-13480Y30322D01*
X-14482Y30591D01*
D02*
G37*
G36*
X-21047Y26153D02*
X-24500D01*
Y22701D01*
X-24480D01*
X-23474Y22970D01*
X-22573Y23491D01*
X-21837Y24227D01*
X-21317Y25128D01*
X-21047Y26133D01*
Y26153D01*
D02*
G37*
G36*
X-25500D02*
X-28953D01*
Y26133D01*
X-28683Y25128D01*
X-28163Y24227D01*
X-27427Y23491D01*
X-26526Y22970D01*
X-25520Y22701D01*
X-25500D01*
Y26153D01*
D02*
G37*
G36*
X25518Y30591D02*
X24482D01*
X23480Y30322D01*
X22583Y29804D01*
X21850Y29071D01*
X21331Y28173D01*
X21063Y27172D01*
Y26135D01*
X21331Y25134D01*
X21850Y24236D01*
X22583Y23503D01*
X23480Y22985D01*
X24482Y22716D01*
X25518D01*
X26520Y22985D01*
X26533Y22992D01*
X27975Y21550D01*
X27970Y21545D01*
X29344Y20372D01*
X30884Y19428D01*
X32553Y18737D01*
X34310Y18315D01*
X36111Y18173D01*
Y18180D01*
X57833D01*
X58163Y17849D01*
X58959Y17520D01*
X59820D01*
X60616Y17849D01*
X60947Y18180D01*
X127380D01*
X127710Y17849D01*
X128506Y17520D01*
X129368D01*
X130164Y17849D01*
X130773Y18459D01*
X131102Y19254D01*
Y20116D01*
X130773Y20912D01*
X130164Y21521D01*
X129368Y21850D01*
X128506D01*
X127710Y21521D01*
X127380Y21190D01*
X60947D01*
X60616Y21521D01*
X59820Y21850D01*
X58959D01*
X58163Y21521D01*
X57833Y21190D01*
X36111D01*
X36044Y21177D01*
X34449Y21334D01*
X32852Y21818D01*
X31380Y22605D01*
X30142Y23622D01*
X30104Y23678D01*
X28661Y25121D01*
X28669Y25134D01*
X28937Y26135D01*
Y27172D01*
X28669Y28173D01*
X28150Y29071D01*
X27417Y29804D01*
X26520Y30322D01*
X25518Y30591D01*
D02*
G37*
G36*
Y20591D02*
X24482D01*
X23480Y20322D01*
X22583Y19804D01*
X21850Y19071D01*
X21331Y18173D01*
X21063Y17172D01*
Y16135D01*
X21331Y15134D01*
X21850Y14236D01*
X22583Y13503D01*
X23480Y12985D01*
X24482Y12717D01*
X25518D01*
X26520Y12985D01*
X27417Y13503D01*
X28150Y14236D01*
X28669Y15134D01*
X28937Y16135D01*
Y17172D01*
X28669Y18173D01*
X28150Y19071D01*
X27417Y19804D01*
X26520Y20322D01*
X25518Y20591D01*
D02*
G37*
G36*
X15518D02*
X14482D01*
X13480Y20322D01*
X12583Y19804D01*
X11850Y19071D01*
X11331Y18173D01*
X11063Y17172D01*
Y16135D01*
X11331Y15134D01*
X11850Y14236D01*
X12583Y13503D01*
X13480Y12985D01*
X14482Y12717D01*
X15518D01*
X16520Y12985D01*
X17417Y13503D01*
X18150Y14236D01*
X18669Y15134D01*
X18937Y16135D01*
Y17172D01*
X18669Y18173D01*
X18150Y19071D01*
X17417Y19804D01*
X16520Y20322D01*
X15518Y20591D01*
D02*
G37*
G36*
X5518D02*
X4482D01*
X3480Y20322D01*
X2583Y19804D01*
X1850Y19071D01*
X1331Y18173D01*
X1063Y17172D01*
Y16135D01*
X1331Y15134D01*
X1850Y14236D01*
X2583Y13503D01*
X3480Y12985D01*
X4482Y12717D01*
X5518D01*
X6520Y12985D01*
X7417Y13503D01*
X8150Y14236D01*
X8669Y15134D01*
X8937Y16135D01*
Y17172D01*
X8669Y18173D01*
X8150Y19071D01*
X7417Y19804D01*
X6520Y20322D01*
X5518Y20591D01*
D02*
G37*
G36*
X-4482D02*
X-5518D01*
X-6520Y20322D01*
X-7417Y19804D01*
X-8150Y19071D01*
X-8669Y18173D01*
X-8937Y17172D01*
Y16135D01*
X-8669Y15134D01*
X-8150Y14236D01*
X-7417Y13503D01*
X-6520Y12985D01*
X-5518Y12717D01*
X-4482D01*
X-3480Y12985D01*
X-2583Y13503D01*
X-1850Y14236D01*
X-1331Y15134D01*
X-1063Y16135D01*
Y17172D01*
X-1331Y18173D01*
X-1850Y19071D01*
X-2583Y19804D01*
X-3480Y20322D01*
X-4482Y20591D01*
D02*
G37*
G36*
X-14482D02*
X-15518D01*
X-16520Y20322D01*
X-17417Y19804D01*
X-18150Y19071D01*
X-18669Y18173D01*
X-18937Y17172D01*
Y16135D01*
X-18669Y15134D01*
X-18150Y14236D01*
X-17417Y13503D01*
X-16520Y12985D01*
X-15518Y12717D01*
X-14482D01*
X-13480Y12985D01*
X-12583Y13503D01*
X-11850Y14236D01*
X-11331Y15134D01*
X-11063Y16135D01*
Y17172D01*
X-11331Y18173D01*
X-11850Y19071D01*
X-12583Y19804D01*
X-13480Y20322D01*
X-14482Y20591D01*
D02*
G37*
G36*
X-21063D02*
X-28937D01*
Y12717D01*
X-21063D01*
Y20591D01*
D02*
G37*
G36*
X84092Y12008D02*
X83231D01*
X82435Y11678D01*
X81904Y11147D01*
X53923D01*
X53392Y11678D01*
X52596Y12008D01*
X51735D01*
X50939Y11678D01*
X50330Y11069D01*
X50000Y10273D01*
Y9412D01*
X50330Y8616D01*
X50939Y8007D01*
X51735Y7677D01*
X52596D01*
X53392Y8007D01*
X53923Y8538D01*
X81904D01*
X82435Y8007D01*
X83231Y7677D01*
X84092D01*
X84888Y8007D01*
X85497Y8616D01*
X85827Y9412D01*
Y10273D01*
X85497Y11069D01*
X84888Y11678D01*
X84092Y12008D01*
D02*
G37*
G36*
X-55542Y53034D02*
X-56403D01*
X-57199Y52704D01*
X-57809Y52095D01*
X-58138Y51299D01*
Y50438D01*
X-57980Y50056D01*
Y9671D01*
X-58138Y9289D01*
Y8428D01*
X-57809Y7632D01*
X-57199Y7023D01*
X-56403Y6693D01*
X-55542D01*
X-54746Y7023D01*
X-54137Y7632D01*
X-53807Y8428D01*
Y9289D01*
X-53966Y9671D01*
Y50056D01*
X-53807Y50438D01*
Y51299D01*
X-54137Y52095D01*
X-54746Y52704D01*
X-55542Y53034D01*
D02*
G37*
G36*
X-164536Y7184D02*
X-165454D01*
X-166340Y6947D01*
X-167134Y6488D01*
X-167783Y5839D01*
X-168242Y5045D01*
X-168479Y4158D01*
Y3241D01*
X-168242Y2355D01*
X-167783Y1560D01*
X-167134Y912D01*
X-166340Y453D01*
X-165454Y216D01*
X-164536D01*
X-163650Y453D01*
X-162855Y912D01*
X-162207Y1560D01*
X-161748Y2355D01*
X-161511Y3241D01*
Y4158D01*
X-161748Y5045D01*
X-162207Y5839D01*
X-162855Y6488D01*
X-163650Y6947D01*
X-164536Y7184D01*
D02*
G37*
G36*
X-66498Y26772D02*
X-67360D01*
X-68156Y26442D01*
X-68765Y25833D01*
X-69095Y25037D01*
Y24176D01*
X-68765Y23380D01*
X-68234Y22849D01*
Y9674D01*
X-68247D01*
X-68093Y8105D01*
X-67635Y6597D01*
X-66892Y5207D01*
X-65893Y3989D01*
X-64675Y2989D01*
X-63285Y2246D01*
X-61777Y1789D01*
X-60208Y1634D01*
Y1648D01*
X77238D01*
X77473Y467D01*
X76864Y215D01*
X75871Y-547D01*
X75109Y-1540D01*
X74630Y-2696D01*
X74467Y-3937D01*
X74483D01*
Y-7874D01*
X74471D01*
X74617Y-8979D01*
X75043Y-10008D01*
X75722Y-10892D01*
X76606Y-11571D01*
X77635Y-11997D01*
X78740Y-12143D01*
Y-12131D01*
X90346D01*
Y-12141D01*
X92116Y-12002D01*
X93842Y-11587D01*
X95483Y-10908D01*
X96996Y-9980D01*
X98347Y-8827D01*
X98340Y-8820D01*
X99377Y-7783D01*
X100213Y-6947D01*
X101093Y-6221D01*
X101195Y-6166D01*
X102166Y-6883D01*
X102160Y-7945D01*
X96240Y-13865D01*
X96208Y-13914D01*
X94932Y-14961D01*
X93426Y-15766D01*
X91791Y-16262D01*
X90149Y-16423D01*
X90092Y-16412D01*
X60687D01*
Y-16402D01*
X58917Y-16541D01*
X57191Y-16956D01*
X55550Y-17635D01*
X54037Y-18563D01*
X52687Y-19716D01*
X52694Y-19723D01*
X52694Y-19723D01*
X33636Y-38781D01*
X32885D01*
X32089Y-39110D01*
X31480Y-39719D01*
X31150Y-40515D01*
Y-41377D01*
X31480Y-42172D01*
X32089Y-42781D01*
X32790Y-43072D01*
X57419Y-102033D01*
X57135Y-102720D01*
Y-103581D01*
X57464Y-104377D01*
X58073Y-104986D01*
X58869Y-105316D01*
X59620D01*
X60125Y-105821D01*
X60173Y-105853D01*
X61221Y-107129D01*
X62026Y-108635D01*
X62521Y-110269D01*
X62683Y-111912D01*
X62672Y-111969D01*
Y-118321D01*
X62141Y-118852D01*
X61811Y-119648D01*
Y-120509D01*
X62141Y-121305D01*
X62750Y-121914D01*
X63546Y-122244D01*
X64407D01*
X65203Y-121914D01*
X65812Y-121305D01*
X66142Y-120509D01*
Y-119648D01*
X65812Y-118852D01*
X65281Y-118321D01*
Y-111969D01*
X65291D01*
X65152Y-110199D01*
X64737Y-108473D01*
X64058Y-106833D01*
X63130Y-105319D01*
X61977Y-103969D01*
X61465Y-102999D01*
Y-102720D01*
X61136Y-101924D01*
X60527Y-101315D01*
X59826Y-101025D01*
X35197Y-42064D01*
X35481Y-41377D01*
Y-40626D01*
X54539Y-21568D01*
X54571Y-21519D01*
X55847Y-20472D01*
X57353Y-19667D01*
X58987Y-19172D01*
X60630Y-19010D01*
X60687Y-19021D01*
X90092D01*
Y-19031D01*
X91861Y-18892D01*
X93588Y-18477D01*
X95228Y-17798D01*
X96742Y-16870D01*
X98092Y-15717D01*
X98085Y-15710D01*
X104163Y-9632D01*
X104914D01*
X105710Y-9302D01*
X106319Y-8693D01*
X106649Y-7897D01*
Y-7036D01*
X106539Y-6770D01*
X107165Y-6116D01*
X107396Y-6192D01*
X107947Y-6534D01*
Y-12590D01*
X107959Y-12647D01*
X107797Y-14290D01*
X107301Y-15924D01*
X106496Y-17431D01*
X105449Y-18706D01*
X105401Y-18739D01*
X104369Y-19771D01*
X104336Y-19819D01*
X103060Y-20866D01*
X101554Y-21671D01*
X99920Y-22167D01*
X98277Y-22329D01*
X98220Y-22318D01*
X80766D01*
Y-22308D01*
X78996Y-22447D01*
X77270Y-22861D01*
X75629Y-23541D01*
X74116Y-24468D01*
X72765Y-25622D01*
X72772Y-25629D01*
X59620Y-38781D01*
X58869D01*
X58073Y-39110D01*
X57464Y-39719D01*
X57135Y-40515D01*
Y-41377D01*
X57464Y-42172D01*
X58073Y-42781D01*
X58774Y-43072D01*
X65232Y-58530D01*
X64232Y-59201D01*
X64219Y-59188D01*
X63423Y-58858D01*
X62561D01*
X61766Y-59188D01*
X61156Y-59797D01*
X60827Y-60593D01*
Y-61411D01*
X60146Y-62208D01*
X59219Y-63721D01*
X58539Y-65362D01*
X58125Y-67088D01*
X57986Y-68858D01*
X57995D01*
Y-70290D01*
X57464Y-70822D01*
X57135Y-71618D01*
Y-72479D01*
X57464Y-73275D01*
X58073Y-73884D01*
X58774Y-74174D01*
X82915Y-131965D01*
X82260Y-132948D01*
X71928D01*
Y-132940D01*
X70558Y-133075D01*
X69240Y-133474D01*
X68025Y-134124D01*
X66961Y-134997D01*
X66960Y-134996D01*
X65807Y-136346D01*
X64879Y-137860D01*
X64200Y-139500D01*
X63785Y-141227D01*
X63646Y-142997D01*
X63646D01*
X63465Y-144103D01*
X63125Y-144443D01*
X62795Y-145239D01*
Y-146100D01*
X63125Y-146896D01*
X63734Y-147505D01*
X64530Y-147835D01*
X65391D01*
X66187Y-147505D01*
X66796Y-146896D01*
X67126Y-146100D01*
Y-145239D01*
X66796Y-144443D01*
X66265Y-143912D01*
Y-142997D01*
X66254Y-142940D01*
X66416Y-141297D01*
X66911Y-139663D01*
X67716Y-138156D01*
X68764Y-136881D01*
X68812Y-136848D01*
X68834Y-136815D01*
X69718Y-136137D01*
X70784Y-135695D01*
X71889Y-135550D01*
X71928Y-135557D01*
X83526D01*
X84058Y-136089D01*
X84854Y-136418D01*
X85715D01*
X86511Y-136089D01*
X87120Y-135479D01*
X87450Y-134684D01*
Y-133822D01*
X87120Y-133026D01*
X86511Y-132417D01*
X85810Y-132127D01*
X61181Y-73166D01*
X61465Y-72479D01*
Y-71618D01*
X61136Y-70822D01*
X60605Y-70290D01*
Y-68858D01*
X60593Y-68801D01*
X60755Y-67158D01*
X61251Y-65524D01*
X62056Y-64018D01*
X62736Y-63189D01*
X63423D01*
X64219Y-62859D01*
X64828Y-62250D01*
X65158Y-61454D01*
Y-61417D01*
X66339Y-61181D01*
X83403Y-102033D01*
X83119Y-102720D01*
Y-103581D01*
X83448Y-104377D01*
X84058Y-104986D01*
X84854Y-105316D01*
X85715D01*
X86511Y-104986D01*
X87120Y-104377D01*
X87450Y-103581D01*
Y-102720D01*
X87120Y-101924D01*
X86511Y-101315D01*
X85810Y-101025D01*
X83066Y-94455D01*
X84066Y-93785D01*
X94574Y-104293D01*
X94622Y-104325D01*
X95669Y-105601D01*
X96474Y-107107D01*
X96970Y-108742D01*
X97132Y-110384D01*
X97121Y-110441D01*
Y-130700D01*
X97132Y-130758D01*
X96970Y-132400D01*
X96474Y-134035D01*
X95669Y-135541D01*
X94622Y-136817D01*
X94574Y-136849D01*
X93936Y-137487D01*
X93903Y-137536D01*
X92627Y-138583D01*
X91121Y-139388D01*
X89487Y-139884D01*
X87844Y-140045D01*
X87787Y-140034D01*
X83276D01*
Y-140024D01*
X81506Y-140164D01*
X79780Y-140578D01*
X78139Y-141257D01*
X76626Y-142185D01*
X75275Y-143338D01*
X75282Y-143345D01*
X70904Y-147723D01*
X70872Y-147772D01*
X69596Y-148819D01*
X68090Y-149624D01*
X66455Y-150120D01*
X64813Y-150282D01*
X64755Y-150270D01*
X42528D01*
X42471Y-150282D01*
X40828Y-150120D01*
X39194Y-149624D01*
X37688Y-148819D01*
X36412Y-147772D01*
X36379Y-147723D01*
X11183Y-122527D01*
X11134Y-122494D01*
X10087Y-121219D01*
X9282Y-119712D01*
X8786Y-118078D01*
X8625Y-116436D01*
X8636Y-116378D01*
Y-104908D01*
X9167Y-104377D01*
X9497Y-103581D01*
Y-102720D01*
X9167Y-101924D01*
X8636Y-101393D01*
Y-90214D01*
X8646D01*
X8507Y-88444D01*
X8092Y-86717D01*
X7413Y-85077D01*
X6485Y-83563D01*
X5332Y-82213D01*
X5325Y-82220D01*
X5325Y-82220D01*
X-13583Y-63313D01*
Y-62561D01*
X-13912Y-61766D01*
X-14522Y-61156D01*
X-15317Y-60827D01*
X-15867D01*
X-15911Y-60774D01*
X-16708Y-59282D01*
X-17199Y-57663D01*
X-17359Y-56035D01*
X-17348Y-55979D01*
Y-42704D01*
X-16817Y-42172D01*
X-16488Y-41377D01*
Y-41255D01*
X42024Y-9493D01*
X42491Y-9686D01*
X43353D01*
X44149Y-9356D01*
X44758Y-8747D01*
X45087Y-7951D01*
Y-7090D01*
X44758Y-6294D01*
X44149Y-5685D01*
X43353Y-5355D01*
X42491D01*
X41695Y-5685D01*
X41086Y-6294D01*
X40757Y-7090D01*
Y-7212D01*
X-17755Y-38974D01*
X-18222Y-38781D01*
X-19083D01*
X-19879Y-39110D01*
X-20489Y-39719D01*
X-20818Y-40515D01*
Y-41377D01*
X-20489Y-42172D01*
X-19957Y-42704D01*
Y-55979D01*
X-19967D01*
X-19829Y-57736D01*
X-19417Y-59450D01*
X-18743Y-61078D01*
X-17881Y-62484D01*
X-17913Y-62561D01*
Y-63423D01*
X-17584Y-64219D01*
X-16975Y-64828D01*
X-16179Y-65158D01*
X-15428D01*
X3480Y-84065D01*
X3528Y-84098D01*
X4576Y-85373D01*
X5381Y-86880D01*
X5877Y-88514D01*
X6038Y-90157D01*
X6027Y-90214D01*
Y-101393D01*
X5496Y-101924D01*
X5166Y-102720D01*
Y-103581D01*
X5496Y-104377D01*
X6027Y-104908D01*
Y-116378D01*
X6017D01*
X6156Y-118148D01*
X6571Y-119875D01*
X7250Y-121515D01*
X8178Y-123029D01*
X9331Y-124379D01*
X9338Y-124372D01*
X34534Y-149568D01*
X34528Y-149575D01*
X35877Y-150728D01*
X37391Y-151656D01*
X39032Y-152335D01*
X40758Y-152750D01*
X42528Y-152889D01*
Y-152879D01*
X64755D01*
Y-152889D01*
X66526Y-152750D01*
X67236Y-152579D01*
X67633Y-153699D01*
X47313Y-163428D01*
X46738Y-163190D01*
X45877D01*
X45081Y-163520D01*
X44550Y-164051D01*
X28749D01*
X28692Y-164062D01*
X27050Y-163900D01*
X25415Y-163405D01*
X23909Y-162599D01*
X22633Y-161552D01*
X22601Y-161504D01*
X-14801Y-124102D01*
X-14850Y-124069D01*
X-15897Y-122793D01*
X-16702Y-121287D01*
X-17198Y-119653D01*
X-17360Y-118010D01*
X-17348Y-117953D01*
Y-104908D01*
X-16817Y-104377D01*
X-16488Y-103581D01*
Y-102720D01*
X-16817Y-101924D01*
X-17426Y-101315D01*
X-18127Y-101025D01*
X-42756Y-42064D01*
X-42472Y-41377D01*
Y-40515D01*
X-42701Y-39961D01*
X-27849Y-9686D01*
X-27809D01*
X-27013Y-9356D01*
X-26404Y-8747D01*
X-26074Y-7951D01*
Y-7090D01*
X-26404Y-6294D01*
X-27013Y-5685D01*
X-27809Y-5355D01*
X-28560D01*
X-29940Y-3975D01*
X-29933Y-3968D01*
X-31283Y-2815D01*
X-32797Y-1887D01*
X-34437Y-1208D01*
X-36164Y-793D01*
X-37934Y-654D01*
Y-664D01*
X-146496D01*
Y-654D01*
X-148266Y-793D01*
X-149992Y-1208D01*
X-151633Y-1887D01*
X-153147Y-2815D01*
X-154497Y-3968D01*
X-155650Y-5318D01*
X-156577Y-6832D01*
X-157257Y-8472D01*
X-157671Y-10199D01*
X-157810Y-11969D01*
X-157801D01*
Y-59984D01*
X-157810D01*
X-157671Y-61754D01*
X-157257Y-63480D01*
X-156577Y-65121D01*
X-155650Y-66635D01*
X-154497Y-67985D01*
X-154490Y-67978D01*
X-150739Y-71728D01*
Y-72479D01*
X-150410Y-73275D01*
X-149801Y-73884D01*
X-149100Y-74174D01*
X-124471Y-133135D01*
X-124755Y-133822D01*
Y-134684D01*
X-124425Y-135479D01*
X-123816Y-136089D01*
X-123021Y-136418D01*
X-122159D01*
X-121363Y-136089D01*
X-120754Y-135479D01*
X-120424Y-134684D01*
Y-133822D01*
X-120754Y-133026D01*
X-121363Y-132417D01*
X-122064Y-132127D01*
X-146693Y-73166D01*
X-146409Y-72479D01*
Y-71618D01*
X-146738Y-70822D01*
X-147347Y-70213D01*
X-148143Y-69883D01*
X-148894D01*
X-152645Y-66133D01*
X-152693Y-66100D01*
X-153740Y-64824D01*
X-154545Y-63318D01*
X-155041Y-61684D01*
X-155203Y-60041D01*
X-155192Y-59984D01*
Y-11969D01*
X-155203Y-11911D01*
X-155041Y-10269D01*
X-154545Y-8634D01*
X-153740Y-7128D01*
X-152657Y-5808D01*
X-151336Y-4724D01*
X-149830Y-3919D01*
X-148196Y-3424D01*
X-146553Y-3262D01*
X-146496Y-3273D01*
X-37934D01*
X-37876Y-3262D01*
X-36234Y-3424D01*
X-34600Y-3919D01*
X-33093Y-4724D01*
X-31817Y-5771D01*
X-31785Y-5820D01*
X-30405Y-7200D01*
Y-7951D01*
X-30175Y-8505D01*
X-45028Y-38781D01*
X-45068D01*
X-45864Y-39110D01*
X-46473Y-39719D01*
X-46802Y-40515D01*
Y-41377D01*
X-46473Y-42172D01*
X-45864Y-42781D01*
X-45163Y-43072D01*
X-20534Y-102033D01*
X-20818Y-102720D01*
Y-103581D01*
X-20489Y-104377D01*
X-19957Y-104908D01*
Y-117953D01*
X-19967D01*
X-19828Y-119723D01*
X-19413Y-121449D01*
X-18734Y-123090D01*
X-17806Y-124603D01*
X-16653Y-125954D01*
X-16646Y-125947D01*
X20756Y-163349D01*
X20756Y-163349D01*
X20749Y-163356D01*
X22099Y-164509D01*
X23613Y-165436D01*
X24542Y-165821D01*
X24307Y-167002D01*
X19544D01*
X19486Y-167014D01*
X17844Y-166852D01*
X16209Y-166356D01*
X14703Y-165551D01*
X13427Y-164504D01*
X13395Y-164456D01*
X-16488Y-134573D01*
Y-133822D01*
X-16817Y-133026D01*
X-17426Y-132417D01*
X-18127Y-132127D01*
X-42756Y-73166D01*
X-42472Y-72479D01*
Y-71618D01*
X-42801Y-70822D01*
X-43411Y-70213D01*
X-44206Y-69883D01*
X-45068D01*
X-45864Y-70213D01*
X-46473Y-70822D01*
X-46802Y-71618D01*
Y-72479D01*
X-46473Y-73275D01*
X-45864Y-73884D01*
X-45163Y-74174D01*
X-38468Y-90201D01*
X-39272Y-91340D01*
X-39451D01*
X-40302Y-91568D01*
X-41065Y-92008D01*
X-41688Y-92631D01*
X-42129Y-93394D01*
X-42357Y-94245D01*
Y-95127D01*
X-42129Y-95978D01*
X-41688Y-96741D01*
X-41065Y-97364D01*
X-40302Y-97804D01*
X-39451Y-98032D01*
X-38570D01*
X-37719Y-97804D01*
X-36956Y-97364D01*
X-36815Y-97223D01*
X-35443Y-97444D01*
X-20568Y-133054D01*
X-21033Y-133662D01*
X-22352Y-133827D01*
X-31582Y-124597D01*
X-31630Y-124565D01*
X-32677Y-123289D01*
X-33482Y-121783D01*
X-33978Y-120148D01*
X-34140Y-118506D01*
X-34128Y-118449D01*
Y-116497D01*
X-34119D01*
X-34258Y-114727D01*
X-34672Y-113000D01*
X-35352Y-111360D01*
X-36279Y-109846D01*
X-37433Y-108496D01*
X-37440Y-108503D01*
X-37440Y-108503D01*
X-42472Y-103471D01*
Y-102720D01*
X-42801Y-101924D01*
X-43411Y-101315D01*
X-44111Y-101025D01*
X-68740Y-42064D01*
X-68456Y-41377D01*
Y-40515D01*
X-68786Y-39719D01*
X-69107Y-39398D01*
X-65259Y-9421D01*
X-65103Y-9356D01*
X-64494Y-8747D01*
X-64165Y-7951D01*
Y-7090D01*
X-64494Y-6294D01*
X-65103Y-5685D01*
X-65899Y-5355D01*
X-66761D01*
X-67557Y-5685D01*
X-68166Y-6294D01*
X-68495Y-7090D01*
Y-7951D01*
X-68166Y-8747D01*
X-67844Y-9069D01*
X-71693Y-39046D01*
X-71848Y-39110D01*
X-72457Y-39719D01*
X-72787Y-40515D01*
Y-41377D01*
X-72457Y-42172D01*
X-71848Y-42781D01*
X-71147Y-43072D01*
X-46518Y-102033D01*
X-46802Y-102720D01*
Y-103581D01*
X-46473Y-104377D01*
X-45864Y-104986D01*
X-45068Y-105316D01*
X-44317D01*
X-39285Y-110348D01*
X-39236Y-110380D01*
X-38189Y-111656D01*
X-37384Y-113163D01*
X-36888Y-114797D01*
X-36726Y-116439D01*
X-36738Y-116497D01*
Y-118449D01*
X-36748D01*
X-36608Y-120219D01*
X-36194Y-121945D01*
X-35514Y-123585D01*
X-34587Y-125099D01*
X-33434Y-126449D01*
X-33427Y-126442D01*
X5166Y-165035D01*
Y-165786D01*
X5496Y-166582D01*
X6105Y-167191D01*
X6901Y-167521D01*
X7762D01*
X8558Y-167191D01*
X9167Y-166582D01*
X9458Y-165879D01*
X9922Y-165657D01*
X10678Y-165429D01*
X11550Y-166301D01*
X11550Y-166301D01*
X11543Y-166308D01*
X12893Y-167461D01*
X14407Y-168388D01*
X16047Y-169068D01*
X17774Y-169482D01*
X19544Y-169622D01*
Y-169612D01*
X68633D01*
Y-169622D01*
X70403Y-169482D01*
X72129Y-169068D01*
X73770Y-168388D01*
X75284Y-167461D01*
X76634Y-166308D01*
X76627Y-166301D01*
X94391Y-148536D01*
X94423Y-148488D01*
X95699Y-147441D01*
X97205Y-146636D01*
X98840Y-146140D01*
X100482Y-145978D01*
X100540Y-145990D01*
X104843D01*
Y-145999D01*
X106613Y-145860D01*
X108339Y-145446D01*
X109979Y-144766D01*
X111493Y-143839D01*
X112843Y-142685D01*
X112836Y-142679D01*
X115065Y-140450D01*
X115071Y-140457D01*
X116225Y-139107D01*
X117152Y-137593D01*
X117832Y-135953D01*
X118246Y-134227D01*
X118385Y-132457D01*
X118376D01*
Y-118260D01*
X118385D01*
X118246Y-116490D01*
X117832Y-114764D01*
X117152Y-113124D01*
X116225Y-111610D01*
X115071Y-110260D01*
X115065Y-110267D01*
X115065Y-110267D01*
X111295Y-106497D01*
X111699Y-105316D01*
X112495Y-104986D01*
X113104Y-104377D01*
X113434Y-103581D01*
Y-102720D01*
X113104Y-101924D01*
X112495Y-101315D01*
X111699Y-100985D01*
X110948D01*
X108182Y-98219D01*
X108134Y-98187D01*
X107087Y-96911D01*
X106281Y-95405D01*
X105786Y-93770D01*
X105624Y-92128D01*
X105635Y-92071D01*
Y-64135D01*
X105645D01*
X105506Y-62365D01*
X105091Y-60638D01*
X104412Y-58998D01*
X103484Y-57484D01*
X102331Y-56134D01*
X102324Y-56141D01*
X87450Y-41266D01*
Y-40515D01*
X87120Y-39719D01*
X86511Y-39110D01*
X85715Y-38781D01*
X84854D01*
X84058Y-39110D01*
X83448Y-39719D01*
X83119Y-40515D01*
Y-41377D01*
X83448Y-42172D01*
X84058Y-42781D01*
X84854Y-43111D01*
X85605D01*
X100479Y-57986D01*
X100528Y-58018D01*
X101575Y-59294D01*
X102380Y-60800D01*
X102876Y-62435D01*
X103038Y-64077D01*
X103026Y-64135D01*
Y-92071D01*
X103016D01*
X103156Y-93841D01*
X103570Y-95567D01*
X104250Y-97207D01*
X105177Y-98721D01*
X104276Y-99478D01*
X100591Y-95793D01*
Y-95042D01*
X100261Y-94246D01*
X99652Y-93637D01*
X98856Y-93307D01*
X97995D01*
X97199Y-93637D01*
X97056Y-93780D01*
X95688Y-93570D01*
X87165Y-73166D01*
X87450Y-72479D01*
Y-71618D01*
X87120Y-70822D01*
X86511Y-70213D01*
X85715Y-69883D01*
X84854D01*
X83798Y-69047D01*
X83720Y-68635D01*
X84008Y-68260D01*
X84725Y-67709D01*
X85561Y-67363D01*
X86443Y-67247D01*
X86458Y-67250D01*
X86515Y-67238D01*
X88157Y-67400D01*
X89792Y-67896D01*
X91298Y-68701D01*
X92574Y-69748D01*
X92606Y-69796D01*
X94484Y-71674D01*
Y-72425D01*
X94813Y-73221D01*
X95422Y-73830D01*
X96218Y-74159D01*
X97080D01*
X97875Y-73830D01*
X98485Y-73221D01*
X98814Y-72425D01*
Y-71563D01*
X98485Y-70768D01*
X97875Y-70158D01*
X97080Y-69829D01*
X96329D01*
X94451Y-67951D01*
X94458Y-67944D01*
X93108Y-66791D01*
X91594Y-65864D01*
X89954Y-65184D01*
X88227Y-64770D01*
X86458Y-64631D01*
Y-64636D01*
X85273Y-64753D01*
X84133Y-65098D01*
X83083Y-65660D01*
X82163Y-66415D01*
X81408Y-67335D01*
X80847Y-68385D01*
X80501Y-69525D01*
X80384Y-70710D01*
X80388D01*
Y-84981D01*
X79207Y-85218D01*
X61181Y-42064D01*
X61465Y-41377D01*
Y-40626D01*
X74617Y-27474D01*
X74650Y-27425D01*
X75925Y-26378D01*
X77432Y-25573D01*
X79066Y-25077D01*
X80709Y-24915D01*
X80766Y-24927D01*
X98220D01*
Y-24936D01*
X99990Y-24797D01*
X101716Y-24383D01*
X103357Y-23703D01*
X104870Y-22776D01*
X106221Y-21622D01*
X106214Y-21616D01*
X107246Y-20584D01*
X107246Y-20584D01*
X107253Y-20591D01*
X108405Y-19241D01*
X109333Y-17727D01*
X110013Y-16086D01*
X110427Y-14360D01*
X110566Y-12590D01*
X110557D01*
Y-6788D01*
X111602Y-6289D01*
X111718Y-6279D01*
X124079Y-18641D01*
X124128Y-18673D01*
X125175Y-19949D01*
X125980Y-21455D01*
X126476Y-23090D01*
X126637Y-24732D01*
X126626Y-24789D01*
Y-38159D01*
X126616D01*
X126756Y-39929D01*
X127170Y-41655D01*
X127849Y-43295D01*
X128777Y-44809D01*
X129930Y-46159D01*
X129937Y-46152D01*
X133401Y-49616D01*
X133450Y-49649D01*
X134497Y-50925D01*
X135302Y-52431D01*
X135798Y-54065D01*
X135959Y-55708D01*
X135948Y-55765D01*
Y-70290D01*
X135417Y-70822D01*
X135087Y-71618D01*
Y-72479D01*
X135417Y-73275D01*
X135948Y-73806D01*
Y-77008D01*
X135938D01*
X136078Y-78778D01*
X136492Y-80505D01*
X137171Y-82145D01*
X138099Y-83659D01*
X139252Y-85009D01*
X139259Y-85002D01*
X152645Y-98387D01*
X152693Y-98420D01*
X153740Y-99695D01*
X154545Y-101202D01*
X155041Y-102836D01*
X155203Y-104479D01*
X155192Y-104536D01*
Y-123370D01*
X155182D01*
X155321Y-125140D01*
X155735Y-126866D01*
X156415Y-128507D01*
X157343Y-130020D01*
X158496Y-131370D01*
X158502Y-131363D01*
X160271Y-133131D01*
X160087Y-134618D01*
X113883Y-162270D01*
X113151Y-161332D01*
X127915Y-146568D01*
X127947Y-146519D01*
X129223Y-145472D01*
X130729Y-144667D01*
X132364Y-144172D01*
X134006Y-144010D01*
X134063Y-144021D01*
X137590D01*
Y-144031D01*
X139360Y-143892D01*
X141086Y-143477D01*
X142727Y-142798D01*
X144241Y-141870D01*
X145591Y-140717D01*
X145591Y-140717D01*
X145591Y-140717D01*
X145591Y-140703D01*
X146611Y-139683D01*
X146618Y-139690D01*
X147771Y-138340D01*
X148699Y-136826D01*
X149378Y-135186D01*
X149793Y-133459D01*
X149932Y-131689D01*
X149922D01*
Y-104854D01*
X150453Y-104323D01*
X150783Y-103527D01*
Y-102666D01*
X150453Y-101870D01*
X149844Y-101261D01*
X149048Y-100931D01*
X148187D01*
X147391Y-101261D01*
X146782Y-101870D01*
X146452Y-102666D01*
Y-103527D01*
X146782Y-104323D01*
X147313Y-104854D01*
Y-131689D01*
X147324Y-131746D01*
X147162Y-133389D01*
X146667Y-135023D01*
X145862Y-136530D01*
X144815Y-137805D01*
X144766Y-137838D01*
X143739Y-138865D01*
X143706Y-138914D01*
X142430Y-139961D01*
X140924Y-140766D01*
X139290Y-141262D01*
X137647Y-141423D01*
X137590Y-141412D01*
X134063D01*
Y-141402D01*
X132293Y-141541D01*
X130567Y-141956D01*
X128927Y-142635D01*
X127413Y-143563D01*
X126063Y-144716D01*
X126070Y-144723D01*
X126070Y-144723D01*
X92558Y-178235D01*
X92525Y-178284D01*
X91249Y-179331D01*
X89743Y-180136D01*
X88109Y-180632D01*
X86466Y-180793D01*
X86409Y-180782D01*
X-10772D01*
X-10829Y-180793D01*
X-12471Y-180632D01*
X-14106Y-180136D01*
X-15612Y-179331D01*
X-16732Y-178411D01*
X-16771Y-177817D01*
X-16491Y-177036D01*
X-16471Y-177014D01*
X-15881Y-176423D01*
X-15551Y-175628D01*
Y-174766D01*
X-15881Y-173970D01*
X-16412Y-173439D01*
Y-165316D01*
X-16402D01*
X-16541Y-163546D01*
X-16956Y-161819D01*
X-17635Y-160179D01*
X-18563Y-158665D01*
X-19716Y-157315D01*
X-19723Y-157322D01*
X-42472Y-134573D01*
Y-133822D01*
X-42801Y-133026D01*
X-43411Y-132417D01*
X-44111Y-132127D01*
X-68740Y-73166D01*
X-68456Y-72479D01*
Y-71618D01*
X-68786Y-70822D01*
X-69395Y-70213D01*
X-70191Y-69883D01*
X-71052D01*
X-71848Y-70213D01*
X-72457Y-70822D01*
X-72787Y-71618D01*
Y-72479D01*
X-72457Y-73275D01*
X-71848Y-73884D01*
X-71147Y-74174D01*
X-46518Y-133135D01*
X-46802Y-133822D01*
Y-134684D01*
X-46473Y-135479D01*
X-45864Y-136089D01*
X-45068Y-136418D01*
X-44317D01*
X-21568Y-159167D01*
X-21519Y-159199D01*
X-20472Y-160475D01*
X-19667Y-161981D01*
X-19172Y-163616D01*
X-19010Y-165258D01*
X-19021Y-165316D01*
Y-173439D01*
X-19552Y-173970D01*
X-20934Y-174221D01*
X-29480Y-165676D01*
Y-164925D01*
X-29809Y-164129D01*
X-30418Y-163520D01*
X-31214Y-163190D01*
X-31965D01*
X-57172Y-137983D01*
X-57221Y-137951D01*
X-58268Y-136675D01*
X-59073Y-135169D01*
X-59569Y-133534D01*
X-59730Y-131892D01*
X-59719Y-131834D01*
Y-116890D01*
X-59709D01*
X-59848Y-115120D01*
X-60263Y-113394D01*
X-60942Y-111754D01*
X-61870Y-110240D01*
X-63023Y-108890D01*
X-63030Y-108897D01*
X-68456Y-103471D01*
Y-102720D01*
X-68786Y-101924D01*
X-69395Y-101315D01*
X-70095Y-101025D01*
X-94725Y-42064D01*
X-94440Y-41377D01*
Y-40515D01*
X-94770Y-39719D01*
X-95379Y-39110D01*
X-95729Y-38965D01*
X-102754Y-8917D01*
X-102585Y-8747D01*
X-102255Y-7951D01*
Y-7090D01*
X-102585Y-6294D01*
X-103194Y-5685D01*
X-103990Y-5355D01*
X-104851D01*
X-105647Y-5685D01*
X-106256Y-6294D01*
X-106586Y-7090D01*
Y-7951D01*
X-106256Y-8747D01*
X-105647Y-9356D01*
X-105297Y-9501D01*
X-98272Y-39550D01*
X-98441Y-39719D01*
X-98771Y-40515D01*
Y-41377D01*
X-98441Y-42172D01*
X-97832Y-42781D01*
X-97131Y-43072D01*
X-72502Y-102033D01*
X-72787Y-102720D01*
Y-103581D01*
X-72457Y-104377D01*
X-71848Y-104986D01*
X-71052Y-105316D01*
X-70301D01*
X-64875Y-110742D01*
X-64827Y-110774D01*
X-63779Y-112050D01*
X-62974Y-113556D01*
X-62479Y-115191D01*
X-62317Y-116833D01*
X-62328Y-116890D01*
Y-131834D01*
X-62338D01*
X-62199Y-133604D01*
X-61784Y-135331D01*
X-61105Y-136971D01*
X-60177Y-138485D01*
X-59024Y-139835D01*
X-59017Y-139828D01*
X-33810Y-165035D01*
Y-165786D01*
X-33481Y-166582D01*
X-32871Y-167191D01*
X-32076Y-167521D01*
X-31324D01*
X-18765Y-180080D01*
X-18765Y-180080D01*
X-18772Y-180087D01*
X-17422Y-181240D01*
X-16885Y-181569D01*
X-17218Y-182750D01*
X-23219D01*
X-23276Y-182762D01*
X-24919Y-182600D01*
X-26553Y-182104D01*
X-28059Y-181299D01*
X-29335Y-180252D01*
X-29368Y-180204D01*
X-66770Y-142801D01*
X-66818Y-142769D01*
X-67865Y-141493D01*
X-68670Y-139987D01*
X-69166Y-138353D01*
X-69328Y-136710D01*
X-69317Y-136653D01*
Y-136011D01*
X-68786Y-135479D01*
X-68456Y-134684D01*
Y-133822D01*
X-68786Y-133026D01*
X-69395Y-132417D01*
X-70095Y-132127D01*
X-94725Y-73166D01*
X-94440Y-72479D01*
Y-71618D01*
X-94770Y-70822D01*
X-95379Y-70213D01*
X-96175Y-69883D01*
X-97036D01*
X-97832Y-70213D01*
X-98441Y-70822D01*
X-98771Y-71618D01*
Y-72479D01*
X-98441Y-73275D01*
X-97832Y-73884D01*
X-97131Y-74174D01*
X-72502Y-133135D01*
X-72787Y-133822D01*
Y-134684D01*
X-72457Y-135479D01*
X-72310Y-135627D01*
X-71936Y-136653D01*
X-71936D01*
X-71796Y-138423D01*
X-71382Y-140149D01*
X-70702Y-141789D01*
X-69775Y-143303D01*
X-68622Y-144653D01*
X-68615Y-144646D01*
X-31213Y-182049D01*
X-31213Y-182049D01*
X-31220Y-182056D01*
X-29869Y-183209D01*
X-28356Y-184136D01*
X-26715Y-184816D01*
X-24989Y-185230D01*
X-23219Y-185370D01*
Y-185360D01*
X88427D01*
Y-185370D01*
X90197Y-185230D01*
X91923Y-184816D01*
X93563Y-184136D01*
X95077Y-183209D01*
X96427Y-182056D01*
X96420Y-182049D01*
X110948Y-167521D01*
X111699D01*
X112495Y-167191D01*
X113104Y-166582D01*
X113434Y-165786D01*
Y-165580D01*
X161639Y-136730D01*
X162202Y-136779D01*
X162275Y-136818D01*
X162487Y-138276D01*
X137573Y-163190D01*
X136822D01*
X136026Y-163520D01*
X135417Y-164129D01*
X135087Y-164925D01*
Y-165786D01*
X135417Y-166582D01*
X136026Y-167191D01*
X136822Y-167521D01*
X137683D01*
X138479Y-167191D01*
X139088Y-166582D01*
X139418Y-165786D01*
Y-165035D01*
X168269Y-136184D01*
X168279Y-136194D01*
X168798Y-135562D01*
X169979Y-135985D01*
Y-148050D01*
X169979Y-148050D01*
X169979D01*
X169923Y-149208D01*
X169819Y-150800D01*
X169281Y-153503D01*
X168396Y-156112D01*
X167177Y-158584D01*
X165646Y-160875D01*
X163879Y-162890D01*
X163814Y-162933D01*
X163557Y-163190D01*
X162806D01*
X162010Y-163520D01*
X161401Y-164129D01*
X161072Y-164925D01*
Y-165786D01*
X161401Y-166582D01*
X162010Y-167191D01*
X162806Y-167521D01*
X163668D01*
X164463Y-167191D01*
X165073Y-166582D01*
X165402Y-165786D01*
X165668Y-164787D01*
X167437Y-162807D01*
X168973Y-160643D01*
X170256Y-158320D01*
X171272Y-155867D01*
X172007Y-153317D01*
X172452Y-150700D01*
X172600Y-148050D01*
X172588D01*
Y-59284D01*
X172598D01*
X172459Y-57514D01*
X172044Y-55788D01*
X171365Y-54147D01*
X170437Y-52634D01*
X169284Y-51284D01*
X169277Y-51291D01*
X169277Y-51291D01*
X156411Y-38424D01*
X156362Y-38391D01*
X155315Y-37116D01*
X154510Y-35609D01*
X154014Y-33975D01*
X153852Y-32332D01*
X153864Y-32275D01*
Y-27390D01*
X153851Y-27325D01*
X154027Y-25983D01*
X154571Y-24671D01*
X154740Y-24450D01*
X155455Y-23565D01*
X155455Y-23565D01*
X156516Y-22323D01*
X157370Y-20929D01*
X157996Y-19420D01*
X158377Y-17830D01*
X158505Y-16201D01*
X158498D01*
Y-9278D01*
X159029Y-8747D01*
X159359Y-7951D01*
Y-7090D01*
X159029Y-6294D01*
X158420Y-5685D01*
X157624Y-5355D01*
X156873D01*
X153988Y-2470D01*
X153995Y-2463D01*
X152645Y-1310D01*
X151131Y-382D01*
X149490Y297D01*
X148784Y467D01*
X148924Y1648D01*
X149401D01*
X149458Y1660D01*
X151101Y1498D01*
X152735Y1002D01*
X154242Y197D01*
X155517Y-850D01*
X155550Y-899D01*
X157595Y-2944D01*
X157595Y-2944D01*
X157589Y-2951D01*
X158939Y-4104D01*
X160452Y-5032D01*
X162093Y-5711D01*
X163819Y-6126D01*
X165589Y-6265D01*
Y-6255D01*
X177376D01*
X177907Y-6786D01*
X178703Y-7116D01*
X179565D01*
X180360Y-6786D01*
X180970Y-6177D01*
X181299Y-5381D01*
Y-4520D01*
X180970Y-3724D01*
X180360Y-3115D01*
X179565Y-2785D01*
X178703D01*
X177907Y-3115D01*
X177376Y-3646D01*
X165589D01*
X165532Y-3658D01*
X163889Y-3496D01*
X162255Y-3000D01*
X160749Y-2195D01*
X159473Y-1148D01*
X159440Y-1099D01*
X157395Y946D01*
X157402Y953D01*
X156052Y2106D01*
X154538Y3034D01*
X152898Y3713D01*
X151171Y4128D01*
X149401Y4267D01*
Y4257D01*
X-60208D01*
X-60274Y4244D01*
X-61616Y4421D01*
X-62927Y4964D01*
X-64001Y5788D01*
X-64038Y5844D01*
X-64094Y5881D01*
X-64918Y6955D01*
X-65461Y8266D01*
X-65637Y9608D01*
X-65624Y9674D01*
Y22849D01*
X-65093Y23380D01*
X-64764Y24176D01*
Y25037D01*
X-65093Y25833D01*
X-65703Y26442D01*
X-66498Y26772D01*
D02*
G37*
G36*
X66824Y-5301D02*
X65962D01*
X65166Y-5631D01*
X64557Y-6240D01*
X64228Y-7036D01*
Y-7194D01*
X8192Y-38958D01*
X7762Y-38781D01*
X6901D01*
X6105Y-39110D01*
X5496Y-39719D01*
X5166Y-40515D01*
Y-41377D01*
X5496Y-42172D01*
X6105Y-42781D01*
X6806Y-43072D01*
X31435Y-102033D01*
X31150Y-102720D01*
Y-103581D01*
X31480Y-104377D01*
X32089Y-104986D01*
X32885Y-105316D01*
X33746D01*
X34542Y-104986D01*
X35151Y-104377D01*
X35481Y-103581D01*
Y-102720D01*
X35151Y-101924D01*
X34542Y-101315D01*
X33841Y-101025D01*
X9212Y-42064D01*
X9497Y-41377D01*
Y-41218D01*
X65533Y-9454D01*
X65962Y-9632D01*
X66824D01*
X67620Y-9302D01*
X68229Y-8693D01*
X68558Y-7897D01*
Y-7036D01*
X68229Y-6240D01*
X67620Y-5631D01*
X66824Y-5301D01*
D02*
G37*
G36*
X185621Y-11811D02*
X184458D01*
X183317Y-12038D01*
X182242Y-12483D01*
X181275Y-13129D01*
X180452Y-13952D01*
X179806Y-14919D01*
X179361Y-15994D01*
X179134Y-17135D01*
Y-18298D01*
X179361Y-19439D01*
X179806Y-20514D01*
X180452Y-21481D01*
X181275Y-22304D01*
X182242Y-22950D01*
X183317Y-23395D01*
X184458Y-23622D01*
X185621D01*
X186762Y-23395D01*
X187837Y-22950D01*
X188804Y-22304D01*
X189627Y-21481D01*
X190273Y-20514D01*
X190718Y-19439D01*
X190945Y-18298D01*
Y-17135D01*
X190718Y-15994D01*
X190273Y-14919D01*
X189627Y-13952D01*
X188804Y-13129D01*
X187837Y-12483D01*
X186762Y-12038D01*
X185621Y-11811D01*
D02*
G37*
G36*
X-184458D02*
X-185621D01*
X-186762Y-12038D01*
X-187837Y-12483D01*
X-188804Y-13129D01*
X-189627Y-13952D01*
X-190273Y-14919D01*
X-190718Y-15994D01*
X-190945Y-17135D01*
Y-18298D01*
X-190718Y-19439D01*
X-190273Y-20514D01*
X-189627Y-21481D01*
X-188804Y-22304D01*
X-187837Y-22950D01*
X-186762Y-23395D01*
X-185621Y-23622D01*
X-184458D01*
X-183317Y-23395D01*
X-182242Y-22950D01*
X-181275Y-22304D01*
X-180452Y-21481D01*
X-179806Y-20514D01*
X-179361Y-19439D01*
X-179134Y-18298D01*
Y-17135D01*
X-179361Y-15994D01*
X-179806Y-14919D01*
X-180452Y-13952D01*
X-181275Y-13129D01*
X-182242Y-12483D01*
X-183317Y-12038D01*
X-184458Y-11811D01*
D02*
G37*
G36*
X179565Y-25394D02*
X178703D01*
X177907Y-25723D01*
X177376Y-26254D01*
X159657D01*
X159126Y-25723D01*
X158330Y-25394D01*
X157468D01*
X156673Y-25723D01*
X156063Y-26333D01*
X155734Y-27128D01*
Y-27990D01*
X156063Y-28786D01*
X156673Y-29395D01*
X157468Y-29724D01*
X158330D01*
X159126Y-29395D01*
X159657Y-28864D01*
X177376D01*
X177907Y-29395D01*
X178703Y-29724D01*
X179565D01*
X180360Y-29395D01*
X180970Y-28786D01*
X181299Y-27990D01*
Y-27128D01*
X180970Y-26333D01*
X180360Y-25723D01*
X179565Y-25394D01*
D02*
G37*
G36*
X111699Y-38781D02*
X110838D01*
X110042Y-39110D01*
X109433Y-39719D01*
X109103Y-40515D01*
Y-41377D01*
X109433Y-42172D01*
X110042Y-42781D01*
X110743Y-43072D01*
X135372Y-102033D01*
X135087Y-102720D01*
Y-103581D01*
X135417Y-104377D01*
X136026Y-104986D01*
X136822Y-105316D01*
X137683D01*
X138479Y-104986D01*
X139088Y-104377D01*
X139418Y-103581D01*
Y-102720D01*
X139088Y-101924D01*
X138479Y-101315D01*
X137778Y-101025D01*
X113149Y-42064D01*
X113434Y-41377D01*
Y-40515D01*
X113104Y-39719D01*
X112495Y-39110D01*
X111699Y-38781D01*
D02*
G37*
G36*
X188423Y-126772D02*
X187561D01*
X186766Y-127101D01*
X186234Y-127632D01*
X178923D01*
X178392Y-127101D01*
X177596Y-126772D01*
X176735D01*
X175939Y-127101D01*
X175330Y-127710D01*
X175000Y-128506D01*
Y-129368D01*
X175330Y-130164D01*
X175939Y-130773D01*
X176735Y-131102D01*
X177596D01*
X178392Y-130773D01*
X178923Y-130242D01*
X186234D01*
X186766Y-130773D01*
X187561Y-131102D01*
X188423D01*
X189219Y-130773D01*
X189828Y-130164D01*
X190157Y-129368D01*
Y-128506D01*
X189828Y-127710D01*
X189219Y-127101D01*
X188423Y-126772D01*
D02*
G37*
G36*
X111699Y-69883D02*
X110838D01*
X110042Y-70213D01*
X109433Y-70822D01*
X109103Y-71618D01*
Y-72479D01*
X109433Y-73275D01*
X110042Y-73884D01*
X110743Y-74174D01*
X135372Y-133135D01*
X135087Y-133822D01*
Y-134028D01*
X86097Y-163348D01*
X85715Y-163190D01*
X84854D01*
X84058Y-163520D01*
X83448Y-164129D01*
X83119Y-164925D01*
Y-165786D01*
X83448Y-166582D01*
X84058Y-167191D01*
X84854Y-167521D01*
X85715D01*
X86511Y-167191D01*
X87120Y-166582D01*
X87450Y-165786D01*
Y-165580D01*
X136440Y-136260D01*
X136822Y-136418D01*
X137683D01*
X138479Y-136089D01*
X139088Y-135479D01*
X139418Y-134684D01*
Y-133822D01*
X139088Y-133026D01*
X138479Y-132417D01*
X137778Y-132127D01*
X113149Y-73166D01*
X113434Y-72479D01*
Y-71618D01*
X113104Y-70822D01*
X112495Y-70213D01*
X111699Y-69883D01*
D02*
G37*
G36*
X33746D02*
X32885D01*
X32089Y-70213D01*
X31480Y-70822D01*
X31150Y-71618D01*
Y-72479D01*
X31480Y-73275D01*
X32089Y-73884D01*
X32790Y-74174D01*
X39485Y-90201D01*
X38680Y-91340D01*
X38502D01*
X37650Y-91568D01*
X36887Y-92008D01*
X36264Y-92631D01*
X35824Y-93394D01*
X35596Y-94245D01*
Y-95127D01*
X35824Y-95978D01*
X36264Y-96741D01*
X36887Y-97364D01*
X37650Y-97804D01*
X38502Y-98032D01*
X39383D01*
X40234Y-97804D01*
X40997Y-97364D01*
X41138Y-97223D01*
X42510Y-97444D01*
X57419Y-133135D01*
X57135Y-133822D01*
Y-134684D01*
X57464Y-135479D01*
X58073Y-136089D01*
X58869Y-136418D01*
X59731D01*
X60527Y-136089D01*
X61136Y-135479D01*
X61465Y-134684D01*
Y-133822D01*
X61136Y-133026D01*
X60527Y-132417D01*
X59826Y-132127D01*
X35197Y-73166D01*
X35481Y-72479D01*
Y-71618D01*
X35151Y-70822D01*
X34542Y-70213D01*
X33746Y-69883D01*
D02*
G37*
G36*
X7762D02*
X6901D01*
X6105Y-70213D01*
X5496Y-70822D01*
X5166Y-71618D01*
Y-72479D01*
X5496Y-73275D01*
X6105Y-73884D01*
X6901Y-74214D01*
X7652D01*
X8944Y-75506D01*
X8992Y-75538D01*
X10039Y-76814D01*
X10845Y-78320D01*
X11340Y-79954D01*
X11502Y-81597D01*
X11491Y-81654D01*
Y-113400D01*
X10960Y-113931D01*
X10630Y-114727D01*
Y-115588D01*
X10960Y-116384D01*
X11569Y-116993D01*
X12365Y-117323D01*
X13116D01*
X29961Y-134168D01*
X29950Y-134179D01*
X30935Y-134935D01*
X31321Y-135095D01*
X31480Y-135479D01*
X32089Y-136089D01*
X32885Y-136418D01*
X33746D01*
X34542Y-136089D01*
X35151Y-135479D01*
X35481Y-134684D01*
Y-133822D01*
X35151Y-133026D01*
X34542Y-132417D01*
X33746Y-132088D01*
X32885D01*
X32089Y-132417D01*
X31806Y-132323D01*
X14961Y-115478D01*
Y-114727D01*
X14631Y-113931D01*
X14100Y-113400D01*
Y-81654D01*
X14110D01*
X13970Y-79884D01*
X13556Y-78158D01*
X12877Y-76518D01*
X11949Y-75004D01*
X10796Y-73654D01*
X10789Y-73661D01*
X9497Y-72369D01*
Y-71618D01*
X9167Y-70822D01*
X8558Y-70213D01*
X7762Y-69883D01*
D02*
G37*
G36*
X-18222D02*
X-19083D01*
X-19879Y-70213D01*
X-20489Y-70822D01*
X-20818Y-71618D01*
Y-72479D01*
X-20489Y-73275D01*
X-19879Y-73884D01*
X-19179Y-74174D01*
X5451Y-133135D01*
X5166Y-133822D01*
Y-134684D01*
X5496Y-135479D01*
X6105Y-136089D01*
X6901Y-136418D01*
X7762D01*
X8558Y-136089D01*
X9167Y-135479D01*
X9497Y-134684D01*
Y-133822D01*
X9167Y-133026D01*
X8558Y-132417D01*
X7857Y-132127D01*
X-16772Y-73166D01*
X-16488Y-72479D01*
Y-71618D01*
X-16817Y-70822D01*
X-17426Y-70213D01*
X-18222Y-69883D01*
D02*
G37*
G36*
X-122159Y-60827D02*
X-123021D01*
X-123816Y-61156D01*
X-124425Y-61766D01*
X-124755Y-62561D01*
Y-63423D01*
X-124425Y-64219D01*
X-123894Y-64750D01*
Y-70290D01*
X-124425Y-70822D01*
X-124755Y-71618D01*
Y-72479D01*
X-124425Y-73275D01*
X-123816Y-73884D01*
X-123116Y-74174D01*
X-98486Y-133135D01*
X-98771Y-133822D01*
Y-134684D01*
X-98441Y-135479D01*
X-97832Y-136089D01*
X-97036Y-136418D01*
X-96175D01*
X-95379Y-136089D01*
X-94770Y-135479D01*
X-94440Y-134684D01*
Y-133822D01*
X-94770Y-133026D01*
X-95379Y-132417D01*
X-96080Y-132127D01*
X-120709Y-73166D01*
X-120424Y-72479D01*
Y-71618D01*
X-120754Y-70822D01*
X-121285Y-70290D01*
Y-64750D01*
X-120754Y-64219D01*
X-120424Y-63423D01*
Y-62561D01*
X-120754Y-61766D01*
X-121363Y-61156D01*
X-122159Y-60827D01*
D02*
G37*
G36*
X-148143Y-132088D02*
X-149005D01*
X-149801Y-132417D01*
X-150410Y-133026D01*
X-150739Y-133822D01*
Y-134684D01*
X-150410Y-135479D01*
X-149801Y-136089D01*
X-149005Y-136418D01*
X-148143D01*
X-147347Y-136089D01*
X-146738Y-135479D01*
X-146409Y-134684D01*
Y-133822D01*
X-146738Y-133026D01*
X-147347Y-132417D01*
X-148143Y-132088D01*
D02*
G37*
G36*
X185621Y-155512D02*
X184458D01*
X183317Y-155739D01*
X182242Y-156184D01*
X181275Y-156830D01*
X180452Y-157653D01*
X179806Y-158620D01*
X179361Y-159695D01*
X179134Y-160836D01*
Y-161999D01*
X179361Y-163140D01*
X179806Y-164215D01*
X180452Y-165182D01*
X181275Y-166004D01*
X182242Y-166651D01*
X183317Y-167096D01*
X184458Y-167323D01*
X185621D01*
X186762Y-167096D01*
X187837Y-166651D01*
X188804Y-166004D01*
X189627Y-165182D01*
X190273Y-164215D01*
X190718Y-163140D01*
X190945Y-161999D01*
Y-160836D01*
X190718Y-159695D01*
X190273Y-158620D01*
X189627Y-157653D01*
X188804Y-156830D01*
X187837Y-156184D01*
X186762Y-155739D01*
X185621Y-155512D01*
D02*
G37*
G36*
X-184458D02*
X-185621D01*
X-186762Y-155739D01*
X-187837Y-156184D01*
X-188804Y-156830D01*
X-189627Y-157653D01*
X-190273Y-158620D01*
X-190718Y-159695D01*
X-190945Y-160836D01*
Y-161999D01*
X-190718Y-163140D01*
X-190273Y-164215D01*
X-189627Y-165182D01*
X-188804Y-166004D01*
X-187837Y-166651D01*
X-186762Y-167096D01*
X-185621Y-167323D01*
X-184458D01*
X-183317Y-167096D01*
X-182242Y-166651D01*
X-181275Y-166004D01*
X-180452Y-165182D01*
X-179806Y-164215D01*
X-179361Y-163140D01*
X-179134Y-161999D01*
Y-160836D01*
X-179361Y-159695D01*
X-179806Y-158620D01*
X-180452Y-157653D01*
X-181275Y-156830D01*
X-182242Y-156184D01*
X-183317Y-155739D01*
X-184458Y-155512D01*
D02*
G37*
G36*
X-142080Y-5355D02*
X-142942D01*
X-143738Y-5685D01*
X-144347Y-6294D01*
X-144676Y-7090D01*
Y-7951D01*
X-144347Y-8747D01*
X-143738Y-9356D01*
X-142942Y-9686D01*
X-142739D01*
X-124595Y-40129D01*
X-124755Y-40515D01*
Y-41377D01*
X-124425Y-42172D01*
X-123816Y-42781D01*
X-123116Y-43072D01*
X-98486Y-102033D01*
X-98771Y-102720D01*
Y-103581D01*
X-98441Y-104377D01*
X-97832Y-104986D01*
X-97131Y-105277D01*
X-72502Y-164237D01*
X-72787Y-164925D01*
Y-165786D01*
X-72457Y-166582D01*
X-71848Y-167191D01*
X-71052Y-167521D01*
X-70191D01*
X-69395Y-167191D01*
X-68786Y-166582D01*
X-68456Y-165786D01*
Y-164925D01*
X-68786Y-164129D01*
X-69395Y-163520D01*
X-70095Y-163229D01*
X-94725Y-104268D01*
X-94440Y-103581D01*
Y-102720D01*
X-94770Y-101924D01*
X-95379Y-101315D01*
X-96080Y-101025D01*
X-120709Y-42064D01*
X-120424Y-41377D01*
Y-40515D01*
X-120754Y-39719D01*
X-121363Y-39110D01*
X-122159Y-38781D01*
X-122362D01*
X-140506Y-8337D01*
X-140346Y-7951D01*
Y-7090D01*
X-140675Y-6294D01*
X-141285Y-5685D01*
X-142080Y-5355D01*
D02*
G37*
G36*
X-148143Y-38781D02*
X-149005D01*
X-149801Y-39110D01*
X-150410Y-39719D01*
X-150739Y-40515D01*
Y-41377D01*
X-150410Y-42172D01*
X-149801Y-42781D01*
X-149100Y-43072D01*
X-124471Y-102033D01*
X-124755Y-102720D01*
Y-103581D01*
X-124425Y-104377D01*
X-123816Y-104986D01*
X-123116Y-105277D01*
X-98486Y-164237D01*
X-98771Y-164925D01*
Y-165786D01*
X-98441Y-166582D01*
X-97832Y-167191D01*
X-97036Y-167521D01*
X-96175D01*
X-95379Y-167191D01*
X-94770Y-166582D01*
X-94440Y-165786D01*
Y-164925D01*
X-94770Y-164129D01*
X-95379Y-163520D01*
X-96080Y-163229D01*
X-120709Y-104268D01*
X-120424Y-103581D01*
Y-102720D01*
X-120754Y-101924D01*
X-121363Y-101315D01*
X-122064Y-101025D01*
X-146693Y-42064D01*
X-146409Y-41377D01*
Y-40515D01*
X-146738Y-39719D01*
X-147347Y-39110D01*
X-148143Y-38781D01*
D02*
G37*
G36*
Y-100985D02*
X-149005D01*
X-149801Y-101315D01*
X-150410Y-101924D01*
X-150739Y-102720D01*
Y-103581D01*
X-150410Y-104377D01*
X-149801Y-104986D01*
X-149100Y-105277D01*
X-124471Y-164237D01*
X-124755Y-164925D01*
Y-165786D01*
X-124425Y-166582D01*
X-123816Y-167191D01*
X-123021Y-167521D01*
X-122159D01*
X-121363Y-167191D01*
X-120754Y-166582D01*
X-120424Y-165786D01*
Y-164925D01*
X-120754Y-164129D01*
X-121363Y-163520D01*
X-122064Y-163229D01*
X-146693Y-104268D01*
X-146409Y-103581D01*
Y-102720D01*
X-146738Y-101924D01*
X-147347Y-101315D01*
X-148143Y-100985D01*
D02*
G37*
G36*
X165188Y-186910D02*
X164271D01*
X163385Y-187148D01*
X162590Y-187607D01*
X161942Y-188255D01*
X161483Y-189050D01*
X161245Y-189936D01*
Y-190853D01*
X161483Y-191740D01*
X161942Y-192534D01*
X162590Y-193183D01*
X163385Y-193641D01*
X164271Y-193879D01*
X165188D01*
X166075Y-193641D01*
X166869Y-193183D01*
X167518Y-192534D01*
X167976Y-191740D01*
X168214Y-190853D01*
Y-189936D01*
X167976Y-189050D01*
X167518Y-188255D01*
X166869Y-187607D01*
X166075Y-187148D01*
X165188Y-186910D01*
D02*
G37*
%LPD*%
G36*
X88183Y200648D02*
X88951D01*
Y200520D01*
X89463D01*
Y200392D01*
X89847D01*
Y200264D01*
X90231D01*
Y200136D01*
X90487D01*
Y200008D01*
X90743D01*
Y199880D01*
X90999D01*
Y199752D01*
X91255D01*
Y199624D01*
X91511D01*
Y199496D01*
X91639D01*
Y199368D01*
X91895D01*
Y199240D01*
X92023D01*
Y199112D01*
X92150D01*
Y198984D01*
X92406D01*
Y198856D01*
X92535D01*
Y198728D01*
X92663D01*
Y198600D01*
X92791D01*
Y198472D01*
X92918D01*
Y198345D01*
X93046D01*
Y198216D01*
X93174D01*
Y198089D01*
X93302D01*
Y197960D01*
X93430D01*
Y197833D01*
Y197705D01*
X93558D01*
Y197577D01*
X93686D01*
Y197449D01*
X93814D01*
Y197321D01*
Y197193D01*
X93942D01*
Y197065D01*
X94070D01*
Y196937D01*
Y196809D01*
X94198D01*
Y196681D01*
Y196553D01*
X94326D01*
Y196425D01*
Y196297D01*
X94454D01*
Y196169D01*
Y196041D01*
X94582D01*
Y195913D01*
Y195785D01*
X94710D01*
Y195657D01*
Y195529D01*
Y195401D01*
X94838D01*
Y195273D01*
Y195145D01*
Y195017D01*
Y194889D01*
X94966D01*
Y194761D01*
Y194633D01*
Y194505D01*
Y194377D01*
X95094D01*
Y194249D01*
Y194121D01*
Y193993D01*
Y193865D01*
Y193737D01*
Y193609D01*
Y193481D01*
X95222D01*
Y193353D01*
Y193225D01*
Y193097D01*
Y192969D01*
Y192841D01*
Y192713D01*
Y192585D01*
Y192457D01*
Y192329D01*
Y192201D01*
X95094D01*
Y192073D01*
Y191946D01*
Y191817D01*
Y191690D01*
Y191561D01*
Y191434D01*
Y191306D01*
X94966D01*
Y191178D01*
Y191050D01*
Y190922D01*
Y190794D01*
X94838D01*
Y190666D01*
Y190538D01*
Y190410D01*
Y190282D01*
X94710D01*
Y190154D01*
Y190026D01*
X94582D01*
Y189898D01*
Y189770D01*
Y189642D01*
X94454D01*
Y189514D01*
Y189386D01*
X94326D01*
Y189258D01*
Y189130D01*
X94198D01*
Y189002D01*
Y188874D01*
X94070D01*
Y188746D01*
Y188618D01*
X93942D01*
Y188490D01*
X93814D01*
Y188362D01*
Y188234D01*
X93686D01*
Y188106D01*
X93558D01*
Y187978D01*
X93430D01*
Y187850D01*
Y187722D01*
X93302D01*
Y187594D01*
X93174D01*
Y187466D01*
X93046D01*
Y187338D01*
X92918D01*
Y187210D01*
X92791D01*
Y187082D01*
X92663D01*
Y186954D01*
X92535D01*
Y186826D01*
X92406D01*
Y186698D01*
X92150D01*
Y186570D01*
X92023D01*
Y186442D01*
X91895D01*
Y186314D01*
X91639D01*
Y186186D01*
X91511D01*
Y186058D01*
X91255D01*
Y185930D01*
X90999D01*
Y185802D01*
X90743D01*
Y185675D01*
X90487D01*
Y185547D01*
X90231D01*
Y185418D01*
X89847D01*
Y185291D01*
X89463D01*
Y185162D01*
X88951D01*
Y185035D01*
X88183D01*
Y184907D01*
X86392D01*
Y185035D01*
X85624D01*
Y185162D01*
X85112D01*
Y185291D01*
X84728D01*
Y185418D01*
X84344D01*
Y185547D01*
X84088D01*
Y185675D01*
X83704D01*
Y185802D01*
X83576D01*
Y185930D01*
X83320D01*
Y186058D01*
X83064D01*
Y186186D01*
X82936D01*
Y186314D01*
X82680D01*
Y186442D01*
X82552D01*
Y186570D01*
X82296D01*
Y186698D01*
X82168D01*
Y186826D01*
X82040D01*
Y186954D01*
X81912D01*
Y187082D01*
X81784D01*
Y187210D01*
X81656D01*
Y187338D01*
X81528D01*
Y187466D01*
X81400D01*
Y187594D01*
X81272D01*
Y187722D01*
X81144D01*
Y187850D01*
X81016D01*
Y187978D01*
Y188106D01*
X80888D01*
Y188234D01*
X80760D01*
Y188362D01*
Y188490D01*
X80632D01*
Y188618D01*
X80504D01*
Y188746D01*
Y188874D01*
X80376D01*
Y189002D01*
Y189130D01*
X80248D01*
Y189258D01*
Y189386D01*
X80120D01*
Y189514D01*
Y189642D01*
X79993D01*
Y189770D01*
Y189898D01*
X79865D01*
Y190026D01*
Y190154D01*
Y190282D01*
X79737D01*
Y190410D01*
Y190538D01*
Y190666D01*
X79609D01*
Y190794D01*
Y190922D01*
Y191050D01*
Y191178D01*
X79481D01*
Y191306D01*
Y191434D01*
Y191561D01*
Y191690D01*
Y191817D01*
Y191946D01*
X79353D01*
Y192073D01*
Y192201D01*
Y192329D01*
Y192457D01*
Y192585D01*
Y192713D01*
Y192841D01*
Y192969D01*
Y193097D01*
Y193225D01*
Y193353D01*
Y193481D01*
Y193609D01*
Y193737D01*
X79481D01*
Y193865D01*
Y193993D01*
Y194121D01*
Y194249D01*
Y194377D01*
Y194505D01*
X79609D01*
Y194633D01*
Y194761D01*
Y194889D01*
Y195017D01*
X79737D01*
Y195145D01*
Y195273D01*
Y195401D01*
X79865D01*
Y195529D01*
Y195657D01*
Y195785D01*
X79993D01*
Y195913D01*
Y196041D01*
X80120D01*
Y196169D01*
Y196297D01*
X80248D01*
Y196425D01*
Y196553D01*
X80376D01*
Y196681D01*
Y196809D01*
X80504D01*
Y196937D01*
Y197065D01*
X80632D01*
Y197193D01*
X80760D01*
Y197321D01*
Y197449D01*
X80888D01*
Y197577D01*
X81016D01*
Y197705D01*
Y197833D01*
X81144D01*
Y197960D01*
X81272D01*
Y198089D01*
X81400D01*
Y198216D01*
X81528D01*
Y198345D01*
X81656D01*
Y198472D01*
X81784D01*
Y198600D01*
X81912D01*
Y198728D01*
X82040D01*
Y198856D01*
X82168D01*
Y198984D01*
X82296D01*
Y199112D01*
X82552D01*
Y199240D01*
X82680D01*
Y199368D01*
X82936D01*
Y199496D01*
X83064D01*
Y199624D01*
X83320D01*
Y199752D01*
X83576D01*
Y199880D01*
X83832D01*
Y200008D01*
X84088D01*
Y200136D01*
X84344D01*
Y200264D01*
X84728D01*
Y200392D01*
X85112D01*
Y200520D01*
X85624D01*
Y200648D01*
X86392D01*
Y200776D01*
X88183D01*
Y200648D01*
D02*
G37*
%LPC*%
G36*
X93046Y195017D02*
X88311D01*
Y194889D01*
X88183D01*
Y194761D01*
X88055D01*
Y194633D01*
X87927D01*
Y194505D01*
Y194377D01*
Y194249D01*
Y194121D01*
Y193993D01*
Y193865D01*
X88055D01*
Y193737D01*
X88183D01*
Y193609D01*
X93174D01*
Y193737D01*
X93302D01*
Y193865D01*
X93430D01*
Y193993D01*
Y194121D01*
Y194249D01*
Y194377D01*
Y194505D01*
Y194633D01*
X93302D01*
Y194761D01*
X93174D01*
Y194889D01*
X93046D01*
Y195017D01*
D02*
G37*
G36*
X86264D02*
X81144D01*
Y194889D01*
X81016D01*
Y194761D01*
X80888D01*
Y194633D01*
X80760D01*
Y194505D01*
Y194377D01*
Y194249D01*
Y194121D01*
Y193993D01*
Y193865D01*
X80888D01*
Y193737D01*
X81016D01*
Y193609D01*
X86392D01*
Y193737D01*
X86519D01*
Y193865D01*
X86647D01*
Y193993D01*
X86775D01*
Y194121D01*
Y194249D01*
Y194377D01*
Y194505D01*
X86647D01*
Y194633D01*
Y194761D01*
X86519D01*
Y194889D01*
X86264D01*
Y195017D01*
D02*
G37*
%LPD*%
G36*
X127902Y168304D02*
X124285Y161027D01*
X123094Y161528D01*
X123038Y161680D01*
X125084Y165772D01*
X117212Y162532D01*
X129261Y157568D01*
X129293Y157410D01*
X115364Y143481D01*
X101436Y157410D01*
X101467Y157568D01*
X113516Y162532D01*
X105645Y165772D01*
X107647Y161680D01*
X107590Y161528D01*
X106398Y161027D01*
X102781Y168304D01*
X102891Y168422D01*
X115341Y163285D01*
X127791Y168422D01*
X127902Y168304D01*
D02*
G37*
%LPC*%
G36*
X115364Y161757D02*
X103820Y157011D01*
X113060Y147793D01*
X108344Y157225D01*
X108400Y157376D01*
X109592Y157878D01*
X115364Y146310D01*
X121136Y157878D01*
X122328Y157376D01*
X122384Y157225D01*
X117668Y147771D01*
X126909Y157011D01*
X115364Y161757D01*
D02*
G37*
%LPD*%
G36*
X137052Y132961D02*
X137051Y132892D01*
X137120Y132892D01*
X137121Y132960D01*
X137189Y132959D01*
X137188Y132891D01*
X137257Y132890D01*
X137258Y132959D01*
X137326Y132958D01*
X137325Y132890D01*
X137394Y132889D01*
X137394Y132958D01*
X138559Y132948D01*
X138558Y132879D01*
X138353Y132881D01*
X138352Y132812D01*
X138284Y132813D01*
X138284Y132881D01*
X138216Y132882D01*
X138215Y132814D01*
X138147Y132814D01*
X138146Y132746D01*
X138077Y132746D01*
X138077Y132678D01*
X138008Y132678D01*
X138008Y132610D01*
X137871Y132611D01*
X137870Y132543D01*
X137870Y132474D01*
X137801Y132475D01*
X137801Y132406D01*
X137732Y132407D01*
X137732Y132338D01*
X137663Y132339D01*
X137662Y132271D01*
X137594Y132271D01*
X137593Y132203D01*
X137525Y132203D01*
X137524Y132135D01*
X137593Y132134D01*
X137592Y132066D01*
X137524Y132066D01*
X137523Y131998D01*
X137455Y131998D01*
X137454Y131930D01*
X137385Y131930D01*
X137385Y131862D01*
X137384Y131794D01*
X137384Y131725D01*
X137315Y131726D01*
X137315Y131657D01*
X137314Y131589D01*
X137313Y131520D01*
X137245Y131521D01*
X137244Y131452D01*
X137313Y131452D01*
X137312Y131383D01*
X137244Y131384D01*
X137243Y131315D01*
X137243Y131247D01*
X137242Y131178D01*
X137173Y131179D01*
X137173Y131111D01*
X137172Y131042D01*
X137172Y130974D01*
X137103Y130974D01*
X137103Y130906D01*
X137171Y130905D01*
X137171Y130837D01*
X137102Y130837D01*
X137101Y130769D01*
X137170Y130768D01*
X137169Y130700D01*
X137101Y130700D01*
X137100Y130632D01*
X137100Y130563D01*
X137099Y130495D01*
X137099Y130426D01*
X137098Y130358D01*
X137097Y130289D01*
X137097Y130221D01*
X137028Y130221D01*
X137028Y130153D01*
X137096Y130152D01*
X137095Y130084D01*
X137027Y130085D01*
X137026Y130016D01*
X137095Y130016D01*
X137094Y129947D01*
X137026Y129948D01*
X137025Y129879D01*
X137094Y129879D01*
X137093Y129810D01*
X137025Y129811D01*
X137024Y129742D01*
X137092Y129742D01*
X137092Y129673D01*
X137023Y129674D01*
X137023Y129605D01*
X137091Y129605D01*
X137091Y129536D01*
X137022Y129537D01*
X137022Y129468D01*
X137090Y129468D01*
X137090Y129399D01*
X137021Y129400D01*
X137021Y129331D01*
X137089Y129331D01*
X137088Y129262D01*
X137088Y129194D01*
X137087Y129125D01*
X137086Y129057D01*
X137086Y128988D01*
X137085Y128920D01*
X137085Y128851D01*
X137084Y128783D01*
X137083Y128714D01*
X137152Y128714D01*
X137151Y128645D01*
X137083Y128646D01*
X137082Y128577D01*
X137151Y128577D01*
X137150Y128508D01*
X137082Y128509D01*
X137081Y128440D01*
X137150Y128440D01*
X137149Y128371D01*
X137081Y128372D01*
X137080Y128304D01*
X137148Y128303D01*
X137148Y128234D01*
X137147Y128166D01*
X137147Y128097D01*
X137146Y128029D01*
X137145Y127961D01*
X137214Y127960D01*
X137213Y127892D01*
X137145Y127892D01*
X137144Y127824D01*
X137213Y127823D01*
X137212Y127754D01*
X137212Y127686D01*
X137211Y127618D01*
X137210Y127549D01*
X137210Y127481D01*
X137278Y127480D01*
X137278Y127411D01*
X137209Y127412D01*
X137208Y127344D01*
X137277Y127343D01*
X137276Y127275D01*
X137276Y127206D01*
X137275Y127138D01*
X137275Y127069D01*
X137274Y127001D01*
X137343Y127000D01*
X137342Y126932D01*
X137341Y126863D01*
X137341Y126795D01*
X137409Y126794D01*
X137409Y126725D01*
X137340Y126726D01*
X137339Y126658D01*
X137408Y126657D01*
X137407Y126589D01*
X137339Y126589D01*
X137338Y126521D01*
X137407Y126520D01*
X137406Y126452D01*
X137406Y126383D01*
X137405Y126315D01*
X137473Y126314D01*
X137473Y126246D01*
X137472Y126177D01*
X137472Y126109D01*
X137540Y126108D01*
X137540Y126040D01*
X137471Y126040D01*
X137470Y125972D01*
X137539Y125971D01*
X137538Y125903D01*
X137470Y125903D01*
X137469Y125835D01*
X137538Y125834D01*
X137537Y125766D01*
X137537Y125697D01*
X137536Y125629D01*
X137604Y125628D01*
X137604Y125560D01*
X137603Y125491D01*
X137603Y125423D01*
X137671Y125422D01*
X137671Y125354D01*
X137602Y125354D01*
X137601Y125286D01*
X137670Y125285D01*
X137669Y125217D01*
X137669Y125148D01*
X137668Y125080D01*
X137600Y125080D01*
X137600Y125149D01*
X137532Y125149D01*
X137531Y125081D01*
X137463Y125081D01*
X137463Y125150D01*
X137258Y125152D01*
X137259Y125220D01*
X137190Y125221D01*
X137189Y125152D01*
X137121Y125153D01*
X137122Y125221D01*
X136779Y125224D01*
X136780Y125293D01*
X136711Y125294D01*
X136711Y125225D01*
X136642Y125225D01*
X136643Y125294D01*
X136574Y125295D01*
X136575Y125363D01*
X136506Y125364D01*
X136506Y125295D01*
X136437Y125296D01*
X136438Y125364D01*
X136095Y125367D01*
X136096Y125436D01*
X135891Y125437D01*
X135891Y125506D01*
X135549Y125509D01*
X135549Y125577D01*
X135344Y125579D01*
X135345Y125648D01*
X135002Y125651D01*
X135003Y125719D01*
X134934Y125720D01*
X134935Y125788D01*
X134866Y125789D01*
X134866Y125720D01*
X134797Y125721D01*
X134798Y125789D01*
X134593Y125791D01*
X134593Y125860D01*
X134525Y125860D01*
X134525Y125929D01*
X134457Y125929D01*
X134456Y125861D01*
X134388Y125862D01*
X134388Y125930D01*
X134183Y125932D01*
X134184Y126000D01*
X133978Y126002D01*
X133979Y126071D01*
X133773Y126072D01*
X133774Y126141D01*
X133705Y126142D01*
X133706Y126210D01*
X133637Y126210D01*
X133637Y126142D01*
X133568Y126143D01*
X133569Y126211D01*
X133363Y126213D01*
X133364Y126281D01*
X133296Y126282D01*
X133296Y126350D01*
X133091Y126352D01*
X133091Y126421D01*
X133023Y126421D01*
X133024Y126490D01*
X132818Y126492D01*
X132819Y126560D01*
X132750Y126561D01*
X132751Y126629D01*
X132545Y126631D01*
X132546Y126699D01*
X132477Y126700D01*
X132478Y126769D01*
X132410Y126769D01*
X132410Y126838D01*
X132342Y126838D01*
X132342Y126907D01*
X132137Y126909D01*
X132138Y126977D01*
X132069Y126978D01*
X132070Y127046D01*
X132001Y127047D01*
X132002Y127115D01*
X131933Y127116D01*
X131934Y127184D01*
X131865Y127185D01*
X131866Y127253D01*
X131798Y127254D01*
X131798Y127322D01*
X131730Y127323D01*
X131730Y127391D01*
X131662Y127392D01*
X131662Y127461D01*
X131663Y127529D01*
X131664Y127597D01*
X131595Y127598D01*
X131596Y127667D01*
X131527Y127667D01*
X131528Y127736D01*
X131528Y127804D01*
X131529Y127873D01*
X131460Y127873D01*
X131461Y127942D01*
X131529Y127941D01*
X131530Y128010D01*
X131462Y128010D01*
X131462Y128079D01*
X131531Y128078D01*
X131531Y128147D01*
X131463Y128147D01*
X131463Y128216D01*
X131464Y128284D01*
X131465Y128352D01*
X131533Y128352D01*
X131534Y128420D01*
X131465Y128421D01*
X131466Y128489D01*
X131534Y128489D01*
X131535Y128557D01*
X131535Y128626D01*
X131536Y128694D01*
X131605Y128694D01*
X131605Y128762D01*
X131674Y128762D01*
X131674Y128830D01*
X131606Y128831D01*
X131606Y128899D01*
X131675Y128899D01*
X131676Y128967D01*
X131676Y129035D01*
X131677Y129104D01*
X131745Y129103D01*
X131746Y129172D01*
X131814Y129171D01*
X131815Y129240D01*
X131746Y129240D01*
X131747Y129309D01*
X131815Y129308D01*
X131816Y129377D01*
X131817Y129445D01*
X131885Y129445D01*
X131886Y129513D01*
X131886Y129582D01*
X131955Y129581D01*
X131955Y129649D01*
X131956Y129718D01*
X131957Y129786D01*
X132025Y129786D01*
X132026Y129854D01*
X132094Y129854D01*
X132095Y129922D01*
X132026Y129923D01*
X132027Y129991D01*
X132095Y129991D01*
X132096Y130059D01*
X132164Y130059D01*
X132165Y130127D01*
X132233Y130126D01*
X132234Y130195D01*
X132235Y130263D01*
X132303Y130263D01*
X132304Y130331D01*
X132304Y130400D01*
X132373Y130399D01*
X132373Y130468D01*
X132442Y130467D01*
X132442Y130535D01*
X132511Y130535D01*
X132511Y130603D01*
X132512Y130672D01*
X132581Y130671D01*
X132581Y130740D01*
X132582Y130808D01*
X132650Y130808D01*
X132651Y130876D01*
X132719Y130876D01*
X132720Y130944D01*
X132788Y130943D01*
X132789Y131012D01*
X132858Y131011D01*
X132858Y131080D01*
X132927Y131079D01*
X132927Y131148D01*
X132996Y131147D01*
X132996Y131216D01*
X133065Y131215D01*
X133065Y131283D01*
X133134Y131283D01*
X133134Y131351D01*
X133203Y131351D01*
X133203Y131419D01*
X133272Y131419D01*
X133273Y131487D01*
X133341Y131486D01*
X133342Y131555D01*
X133410Y131554D01*
X133411Y131623D01*
X133479Y131622D01*
X133480Y131691D01*
X133548Y131690D01*
X133549Y131759D01*
X133617Y131758D01*
X133618Y131826D01*
X133686Y131826D01*
X133687Y131894D01*
X133893Y131893D01*
X133893Y131961D01*
X133962Y131960D01*
X133962Y132029D01*
X134168Y132027D01*
X134168Y132096D01*
X134237Y132095D01*
X134237Y132164D01*
X134306Y132163D01*
X134306Y132231D01*
X134512Y132230D01*
X134512Y132298D01*
X134581Y132297D01*
X134581Y132366D01*
X134787Y132364D01*
X134787Y132433D01*
X134993Y132431D01*
X134994Y132499D01*
X135062Y132499D01*
X135063Y132567D01*
X135131Y132567D01*
X135131Y132498D01*
X135199Y132498D01*
X135200Y132566D01*
X135405Y132564D01*
X135406Y132633D01*
X135474Y132632D01*
X135475Y132701D01*
X135543Y132700D01*
X135543Y132631D01*
X135611Y132631D01*
X135612Y132699D01*
X135817Y132698D01*
X135818Y132766D01*
X135886Y132765D01*
X135886Y132697D01*
X135954Y132696D01*
X135955Y132765D01*
X136023Y132764D01*
X136024Y132833D01*
X136092Y132832D01*
X136092Y132764D01*
X136160Y132763D01*
X136161Y132832D01*
X136640Y132827D01*
X136641Y132896D01*
X136709Y132895D01*
X136708Y132827D01*
X136777Y132826D01*
X136778Y132895D01*
X136983Y132893D01*
X136984Y132961D01*
X137052Y132961D01*
D02*
G37*
G36*
X139584Y132733D02*
X139584Y132665D01*
X139652Y132664D01*
X139653Y132733D01*
X139721Y132732D01*
X139720Y132664D01*
X140063Y132660D01*
X140062Y132592D01*
X140131Y132591D01*
X140131Y132660D01*
X140200Y132659D01*
X140199Y132591D01*
X140405Y132589D01*
X140404Y132521D01*
X140609Y132519D01*
X140609Y132450D01*
X140677Y132450D01*
X140678Y132518D01*
X140746Y132518D01*
X140746Y132449D01*
X140814Y132448D01*
X140814Y132380D01*
X140882Y132379D01*
X140883Y132448D01*
X140951Y132447D01*
X140951Y132379D01*
X141156Y132377D01*
X141156Y132308D01*
X141224Y132308D01*
X141223Y132239D01*
X141429Y132238D01*
X141428Y132169D01*
X141634Y132167D01*
X141633Y132099D01*
X141701Y132098D01*
X141701Y132030D01*
X141906Y132028D01*
X141906Y131960D01*
X142111Y131958D01*
X142111Y131889D01*
X142179Y131889D01*
X142178Y131820D01*
X142247Y131820D01*
X142246Y131751D01*
X142452Y131749D01*
X142451Y131681D01*
X142520Y131680D01*
X142519Y131612D01*
X142588Y131611D01*
X142587Y131543D01*
X142792Y131541D01*
X142792Y131472D01*
X142860Y131472D01*
X142860Y131403D01*
X142928Y131403D01*
X142928Y131334D01*
X142996Y131334D01*
X142996Y131265D01*
X143201Y131263D01*
X143200Y131195D01*
X143269Y131194D01*
X143268Y131126D01*
X143337Y131125D01*
X143336Y131057D01*
X143405Y131056D01*
X143404Y130988D01*
X143472Y130987D01*
X143472Y130919D01*
X143540Y130918D01*
X143540Y130850D01*
X143677Y130848D01*
X143676Y130780D01*
X143675Y130711D01*
X143881Y130710D01*
X143880Y130641D01*
X143880Y130573D01*
X144017Y130571D01*
X144016Y130503D01*
X144016Y130435D01*
X144152Y130433D01*
X144152Y130365D01*
X144151Y130296D01*
X144288Y130295D01*
X144288Y130227D01*
X144287Y130158D01*
X144424Y130157D01*
X144423Y130088D01*
X144423Y130020D01*
X144560Y130019D01*
X144559Y129950D01*
X144491Y129951D01*
X144490Y129883D01*
X144627Y129881D01*
X144626Y129813D01*
X144626Y129744D01*
X144694Y129744D01*
X144694Y129675D01*
X144762Y129675D01*
X144762Y129606D01*
X144830Y129606D01*
X144829Y129537D01*
X144898Y129536D01*
X144897Y129468D01*
X144966Y129467D01*
X144965Y129399D01*
X145034Y129398D01*
X145033Y129330D01*
X145033Y129261D01*
X145032Y129193D01*
X145100Y129192D01*
X145100Y129124D01*
X145168Y129123D01*
X145168Y129055D01*
X145236Y129054D01*
X145236Y128986D01*
X145304Y128985D01*
X145303Y128917D01*
X145372Y128916D01*
X145371Y128848D01*
X145371Y128779D01*
X145439Y128779D01*
X145439Y128710D01*
X145438Y128641D01*
X145507Y128641D01*
X145506Y128572D01*
X145574Y128572D01*
X145574Y128503D01*
X145573Y128435D01*
X145573Y128366D01*
X145641Y128366D01*
X145641Y128297D01*
X145709Y128297D01*
X145708Y128228D01*
X145777Y128228D01*
X145776Y128159D01*
X145776Y128091D01*
X145775Y128022D01*
X145844Y128022D01*
X145843Y127953D01*
X145911Y127953D01*
X145911Y127884D01*
X145910Y127816D01*
X145910Y127747D01*
X145978Y127746D01*
X145977Y127678D01*
X146046Y127677D01*
X146045Y127609D01*
X146045Y127541D01*
X146044Y127472D01*
X146113Y127471D01*
X146112Y127403D01*
X146181Y127402D01*
X146180Y127334D01*
X146179Y127265D01*
X146179Y127197D01*
X146247Y127196D01*
X146247Y127128D01*
X146315Y127127D01*
X146315Y127059D01*
X146246Y127059D01*
X146245Y126991D01*
X146177Y126991D01*
X146178Y127060D01*
X146109Y127060D01*
X146110Y127129D01*
X146041Y127130D01*
X146042Y127198D01*
X145973Y127199D01*
X145974Y127267D01*
X145905Y127268D01*
X145906Y127336D01*
X145838Y127337D01*
X145838Y127405D01*
X145839Y127474D01*
X145770Y127474D01*
X145771Y127543D01*
X145702Y127543D01*
X145703Y127612D01*
X145634Y127612D01*
X145635Y127681D01*
X145636Y127750D01*
X145499Y127751D01*
X145499Y127819D01*
X145500Y127888D01*
X145363Y127889D01*
X145364Y127957D01*
X145364Y128026D01*
X145296Y128026D01*
X145296Y128095D01*
X145228Y128095D01*
X145228Y128164D01*
X145091Y128165D01*
X145092Y128234D01*
X145093Y128302D01*
X144956Y128303D01*
X144956Y128372D01*
X144888Y128372D01*
X144888Y128441D01*
X144751Y128442D01*
X144752Y128510D01*
X144684Y128511D01*
X144684Y128580D01*
X144616Y128580D01*
X144616Y128649D01*
X144548Y128649D01*
X144548Y128718D01*
X144480Y128718D01*
X144481Y128787D01*
X144412Y128787D01*
X144413Y128856D01*
X144207Y128858D01*
X144208Y128926D01*
X144139Y128927D01*
X144140Y128995D01*
X144071Y128996D01*
X144072Y129064D01*
X144003Y129065D01*
X144004Y129133D01*
X143799Y129135D01*
X143799Y129204D01*
X143731Y129204D01*
X143731Y129273D01*
X143663Y129273D01*
X143664Y129342D01*
X143595Y129342D01*
X143596Y129411D01*
X143390Y129413D01*
X143391Y129481D01*
X143322Y129482D01*
X143323Y129550D01*
X143117Y129552D01*
X143118Y129621D01*
X143050Y129621D01*
X143050Y129690D01*
X142845Y129691D01*
X142845Y129760D01*
X142777Y129761D01*
X142778Y129829D01*
X142709Y129830D01*
X142708Y129761D01*
X142640Y129762D01*
X142641Y129830D01*
X142572Y129831D01*
X142573Y129899D01*
X142504Y129900D01*
X142505Y129968D01*
X142436Y129969D01*
X142436Y129900D01*
X142367Y129901D01*
X142368Y129970D01*
X142162Y129971D01*
X142163Y130040D01*
X142095Y130040D01*
X142095Y130109D01*
X141890Y130111D01*
X141890Y130179D01*
X141685Y130181D01*
X141685Y130249D01*
X141480Y130251D01*
X141481Y130320D01*
X141275Y130321D01*
X141276Y130390D01*
X141070Y130392D01*
X141071Y130460D01*
X140866Y130462D01*
X140866Y130531D01*
X140661Y130532D01*
X140661Y130601D01*
X140593Y130601D01*
X140592Y130533D01*
X140524Y130534D01*
X140524Y130602D01*
X140456Y130603D01*
X140456Y130671D01*
X140388Y130672D01*
X140387Y130603D01*
X140319Y130604D01*
X140319Y130672D01*
X139977Y130675D01*
X139978Y130744D01*
X139909Y130744D01*
X139909Y130676D01*
X139840Y130676D01*
X139841Y130745D01*
X139772Y130745D01*
X139773Y130814D01*
X139704Y130815D01*
X139704Y130746D01*
X139635Y130747D01*
X139636Y130815D01*
X139567Y130816D01*
X139567Y130747D01*
X139498Y130748D01*
X139499Y130816D01*
X139430Y130817D01*
X139430Y130748D01*
X139361Y130749D01*
X139362Y130817D01*
X139293Y130818D01*
X139293Y130750D01*
X139224Y130750D01*
X139225Y130819D01*
X139156Y130819D01*
X139156Y130751D01*
X139087Y130752D01*
X139088Y130820D01*
X139020Y130821D01*
X139019Y130752D01*
X138950Y130753D01*
X138951Y130821D01*
X138883Y130822D01*
X138882Y130753D01*
X138813Y130754D01*
X138813Y130685D01*
X138744Y130686D01*
X138745Y130754D01*
X138677Y130755D01*
X138676Y130687D01*
X138470Y130688D01*
X138470Y130620D01*
X138401Y130621D01*
X138401Y130552D01*
X138332Y130553D01*
X138332Y130484D01*
X138263Y130485D01*
X138263Y130416D01*
X138194Y130417D01*
X138195Y130485D01*
X138195Y130554D01*
X138196Y130622D01*
X138197Y130691D01*
X138197Y130759D01*
X138266Y130759D01*
X138266Y130827D01*
X138198Y130828D01*
X138198Y130896D01*
X138267Y130896D01*
X138267Y130964D01*
X138199Y130965D01*
X138199Y131033D01*
X138268Y131033D01*
X138269Y131101D01*
X138269Y131169D01*
X138270Y131238D01*
X138338Y131237D01*
X138339Y131306D01*
X138339Y131374D01*
X138340Y131443D01*
X138409Y131442D01*
X138409Y131511D01*
X138341Y131511D01*
X138341Y131580D01*
X138410Y131579D01*
X138410Y131648D01*
X138411Y131716D01*
X138479Y131716D01*
X138480Y131784D01*
X138481Y131852D01*
X138549Y131852D01*
X138550Y131920D01*
X138550Y131989D01*
X138551Y132057D01*
X138619Y132057D01*
X138620Y132125D01*
X138688Y132125D01*
X138689Y132193D01*
X138690Y132262D01*
X138827Y132260D01*
X138827Y132329D01*
X138828Y132397D01*
X138965Y132396D01*
X138965Y132465D01*
X138966Y132533D01*
X139103Y132532D01*
X139103Y132600D01*
X139172Y132600D01*
X139173Y132668D01*
X139515Y132665D01*
X139516Y132734D01*
X139584Y132733D01*
D02*
G37*
G36*
X143590Y128795D02*
X143590Y128726D01*
X143658Y128726D01*
X143658Y128657D01*
X143726Y128656D01*
X143725Y128588D01*
X143931Y128586D01*
X143930Y128518D01*
X143999Y128517D01*
X143998Y128449D01*
X144067Y128448D01*
X144066Y128379D01*
X144272Y128378D01*
X144271Y128309D01*
X144339Y128309D01*
X144339Y128240D01*
X144407Y128240D01*
X144407Y128171D01*
X144475Y128171D01*
X144474Y128102D01*
X144543Y128101D01*
X144542Y128033D01*
X144611Y128032D01*
X144610Y127964D01*
X144816Y127962D01*
X144815Y127894D01*
X144884Y127893D01*
X144883Y127824D01*
X144951Y127824D01*
X144951Y127755D01*
X145019Y127755D01*
X145019Y127686D01*
X145087Y127686D01*
X145087Y127617D01*
X145155Y127617D01*
X145155Y127548D01*
X145223Y127548D01*
X145222Y127479D01*
X145291Y127479D01*
X145290Y127410D01*
X145359Y127409D01*
X145358Y127341D01*
X145427Y127340D01*
X145426Y127272D01*
X145495Y127271D01*
X145494Y127203D01*
X145562Y127202D01*
X145562Y127134D01*
X145630Y127133D01*
X145630Y127065D01*
X145698Y127064D01*
X145698Y126996D01*
X145766Y126995D01*
X145765Y126927D01*
X145697Y126927D01*
X145696Y126859D01*
X145833Y126857D01*
X145833Y126789D01*
X145832Y126720D01*
X145901Y126720D01*
X145900Y126651D01*
X145968Y126651D01*
X145968Y126582D01*
X146036Y126582D01*
X146036Y126513D01*
X146104Y126513D01*
X146104Y126444D01*
X146172Y126444D01*
X146172Y126375D01*
X146103Y126376D01*
X146102Y126307D01*
X146171Y126307D01*
X146170Y126238D01*
X146239Y126238D01*
X146238Y126169D01*
X146307Y126169D01*
X146306Y126100D01*
X146238Y126101D01*
X146237Y126032D01*
X146306Y126031D01*
X146305Y125963D01*
X146373Y125962D01*
X146373Y125894D01*
X146441Y125893D01*
X146441Y125825D01*
X146440Y125756D01*
X146440Y125688D01*
X146508Y125687D01*
X146507Y125619D01*
X146507Y125550D01*
X146506Y125482D01*
X146575Y125481D01*
X146574Y125413D01*
X146573Y125344D01*
X146573Y125276D01*
X146641Y125275D01*
X146641Y125207D01*
X146640Y125138D01*
X146640Y125070D01*
X146708Y125069D01*
X146707Y125001D01*
X146707Y124932D01*
X146706Y124864D01*
X146775Y124863D01*
X146774Y124795D01*
X146706Y124795D01*
X146705Y124727D01*
X146774Y124726D01*
X146773Y124658D01*
X146772Y124589D01*
X146772Y124521D01*
X146771Y124452D01*
X146771Y124384D01*
X146839Y124383D01*
X146838Y124315D01*
X146770Y124315D01*
X146769Y124247D01*
X146838Y124246D01*
X146837Y124178D01*
X146769Y124178D01*
X146768Y124110D01*
X146837Y124109D01*
X146836Y124041D01*
X146835Y123972D01*
X146835Y123904D01*
X146766Y123905D01*
X146766Y123836D01*
X146834Y123835D01*
X146834Y123767D01*
X146833Y123698D01*
X146833Y123630D01*
X146764Y123630D01*
X146763Y123562D01*
X146832Y123562D01*
X146831Y123493D01*
X146763Y123494D01*
X146762Y123425D01*
X146831Y123424D01*
X146830Y123356D01*
X146762Y123357D01*
X146761Y123288D01*
X146829Y123287D01*
X146829Y123219D01*
X146760Y123220D01*
X146760Y123151D01*
X146759Y123083D01*
X146759Y123014D01*
X146758Y122946D01*
X146757Y122877D01*
X146689Y122878D01*
X146688Y122809D01*
X146688Y122741D01*
X146687Y122672D01*
X146686Y122604D01*
X146686Y122536D01*
X146617Y122536D01*
X146617Y122468D01*
X146685Y122467D01*
X146685Y122398D01*
X146616Y122399D01*
X146616Y122331D01*
X146615Y122262D01*
X146615Y122194D01*
X146546Y122194D01*
X146545Y122126D01*
X146545Y122057D01*
X146544Y121989D01*
X146476Y121989D01*
X146475Y121921D01*
X146544Y121920D01*
X146543Y121852D01*
X146475Y121853D01*
X146474Y121784D01*
X146473Y121715D01*
X146405Y121716D01*
X146404Y121648D01*
X146404Y121579D01*
X146335Y121580D01*
X146335Y121511D01*
X146403Y121511D01*
X146403Y121442D01*
X146334Y121443D01*
X146333Y121374D01*
X146333Y121306D01*
X146264Y121306D01*
X146264Y121238D01*
X146263Y121169D01*
X146195Y121170D01*
X146194Y121102D01*
X146263Y121101D01*
X146262Y121033D01*
X146193Y121033D01*
X146193Y120965D01*
X146124Y120965D01*
X146124Y120897D01*
X146055Y120897D01*
X146055Y120829D01*
X146123Y120828D01*
X146123Y120760D01*
X146054Y120760D01*
X146054Y120692D01*
X145985Y120693D01*
X145984Y120624D01*
X145916Y120625D01*
X145915Y120556D01*
X145984Y120555D01*
X145983Y120487D01*
X145915Y120488D01*
X145914Y120419D01*
X145846Y120420D01*
X145845Y120351D01*
X145777Y120352D01*
X145776Y120283D01*
X145844Y120283D01*
X145844Y120214D01*
X145775Y120215D01*
X145775Y120147D01*
X145706Y120147D01*
X145706Y120079D01*
X145637Y120079D01*
X145637Y120011D01*
X145636Y119942D01*
X145568Y119943D01*
X145567Y119874D01*
X145566Y119806D01*
X145498Y119806D01*
X145497Y119738D01*
X145429Y119739D01*
X145428Y119670D01*
X145360Y119671D01*
X145359Y119602D01*
X145291Y119603D01*
X145290Y119534D01*
X145222Y119535D01*
X145221Y119466D01*
X145290Y119466D01*
X145289Y119397D01*
X145152Y119399D01*
X145151Y119330D01*
X145151Y119262D01*
X145082Y119262D01*
X145082Y119194D01*
X145013Y119194D01*
X145013Y119126D01*
X144944Y119126D01*
X144943Y119058D01*
X144875Y119059D01*
X144874Y118990D01*
X144806Y118991D01*
X144805Y118922D01*
X144737Y118923D01*
X144736Y118854D01*
X144668Y118855D01*
X144667Y118786D01*
X144599Y118787D01*
X144598Y118719D01*
X144530Y118719D01*
X144529Y118651D01*
X144461Y118651D01*
X144460Y118583D01*
X144392Y118583D01*
X144391Y118515D01*
X144322Y118516D01*
X144322Y118447D01*
X144185Y118448D01*
X144184Y118380D01*
X144184Y118311D01*
X143978Y118313D01*
X143978Y118245D01*
X143909Y118245D01*
X143909Y118177D01*
X143840Y118177D01*
X143840Y118109D01*
X143771Y118109D01*
X143770Y118041D01*
X143565Y118043D01*
X143564Y117974D01*
X143496Y117975D01*
X143495Y117906D01*
X143358Y117908D01*
X143358Y117839D01*
X143221Y117840D01*
X143220Y117772D01*
X143152Y117772D01*
X143151Y117704D01*
X143083Y117704D01*
X143083Y117773D01*
X143015Y117774D01*
X143014Y117705D01*
X142946Y117706D01*
X142945Y117637D01*
X142740Y117639D01*
X142739Y117571D01*
X142671Y117571D01*
X142670Y117503D01*
X142533Y117504D01*
X142534Y117572D01*
X142671Y117571D01*
X142671Y117640D01*
X142672Y117708D01*
X142740Y117708D01*
X142741Y117776D01*
X142741Y117844D01*
X142810Y117844D01*
X142810Y117912D01*
X142879Y117912D01*
X142879Y117980D01*
X142948Y117980D01*
X142949Y118048D01*
X143017Y118047D01*
X143018Y118116D01*
X143086Y118115D01*
X143087Y118184D01*
X143018Y118184D01*
X143019Y118253D01*
X143087Y118252D01*
X143088Y118321D01*
X143157Y118320D01*
X143157Y118389D01*
X143226Y118388D01*
X143226Y118457D01*
X143295Y118456D01*
X143295Y118525D01*
X143296Y118593D01*
X143296Y118661D01*
X143365Y118661D01*
X143366Y118729D01*
X143434Y118729D01*
X143435Y118797D01*
X143503Y118797D01*
X143504Y118865D01*
X143435Y118866D01*
X143436Y118934D01*
X143504Y118933D01*
X143505Y119002D01*
X143573Y119001D01*
X143574Y119070D01*
X143642Y119069D01*
X143643Y119138D01*
X143644Y119206D01*
X143712Y119206D01*
X143713Y119274D01*
X143713Y119343D01*
X143782Y119342D01*
X143782Y119411D01*
X143783Y119479D01*
X143783Y119547D01*
X143852Y119547D01*
X143853Y119615D01*
X143921Y119615D01*
X143922Y119683D01*
X143853Y119684D01*
X143854Y119752D01*
X143922Y119752D01*
X143923Y119820D01*
X143991Y119820D01*
X143992Y119888D01*
X143992Y119957D01*
X143993Y120025D01*
X144062Y120024D01*
X144062Y120093D01*
X144063Y120161D01*
X144131Y120161D01*
X144132Y120229D01*
X144132Y120298D01*
X144201Y120297D01*
X144202Y120366D01*
X144133Y120366D01*
X144134Y120435D01*
X144202Y120434D01*
X144203Y120503D01*
X144271Y120502D01*
X144272Y120571D01*
X144272Y120639D01*
X144273Y120707D01*
X144342Y120707D01*
X144342Y120775D01*
X144274Y120776D01*
X144274Y120844D01*
X144343Y120844D01*
X144343Y120912D01*
X144412Y120912D01*
X144412Y120980D01*
X144413Y121049D01*
X144414Y121117D01*
X144482Y121116D01*
X144483Y121185D01*
X144414Y121186D01*
X144415Y121254D01*
X144483Y121254D01*
X144484Y121322D01*
X144484Y121390D01*
X144485Y121459D01*
X144553Y121458D01*
X144554Y121527D01*
X144486Y121527D01*
X144486Y121596D01*
X144555Y121595D01*
X144555Y121664D01*
X144624Y121663D01*
X144624Y121732D01*
X144556Y121732D01*
X144556Y121801D01*
X144625Y121800D01*
X144626Y121869D01*
X144557Y121869D01*
X144558Y121938D01*
X144626Y121937D01*
X144627Y122005D01*
X144627Y122074D01*
X144628Y122143D01*
X144629Y122211D01*
X144629Y122280D01*
X144698Y122279D01*
X144698Y122347D01*
X144699Y122416D01*
X144700Y122484D01*
X144700Y122553D01*
X144701Y122621D01*
X144769Y122621D01*
X144770Y122689D01*
X144701Y122690D01*
X144702Y122758D01*
X144770Y122758D01*
X144771Y122826D01*
X144702Y122827D01*
X144703Y122895D01*
X144772Y122895D01*
X144772Y122963D01*
X144704Y122964D01*
X144704Y123032D01*
X144773Y123032D01*
X144773Y123100D01*
X144705Y123101D01*
X144705Y123169D01*
X144774Y123169D01*
X144774Y123237D01*
X144775Y123305D01*
X144776Y123374D01*
X144707Y123374D01*
X144708Y123443D01*
X144776Y123442D01*
X144777Y123511D01*
X144778Y123579D01*
X144778Y123648D01*
X144779Y123716D01*
X144779Y123785D01*
X144780Y123853D01*
X144781Y123922D01*
X144712Y123922D01*
X144713Y123991D01*
X144781Y123990D01*
X144782Y124059D01*
X144713Y124059D01*
X144714Y124128D01*
X144782Y124127D01*
X144783Y124196D01*
X144714Y124196D01*
X144715Y124265D01*
X144783Y124264D01*
X144784Y124333D01*
X144716Y124333D01*
X144716Y124402D01*
X144785Y124401D01*
X144785Y124470D01*
X144717Y124470D01*
X144717Y124539D01*
X144786Y124538D01*
X144786Y124607D01*
X144718Y124607D01*
X144719Y124676D01*
X144719Y124744D01*
X144720Y124813D01*
X144720Y124881D01*
X144721Y124950D01*
X144652Y124950D01*
X144653Y125019D01*
X144654Y125087D01*
X144654Y125156D01*
X144586Y125156D01*
X144586Y125225D01*
X144655Y125224D01*
X144656Y125293D01*
X144587Y125293D01*
X144588Y125362D01*
X144656Y125361D01*
X144657Y125429D01*
X144588Y125430D01*
X144589Y125499D01*
X144657Y125498D01*
X144658Y125566D01*
X144589Y125567D01*
X144590Y125636D01*
X144521Y125636D01*
X144522Y125705D01*
X144523Y125773D01*
X144523Y125842D01*
X144455Y125842D01*
X144455Y125911D01*
X144524Y125910D01*
X144525Y125979D01*
X144456Y125979D01*
X144457Y126048D01*
X144457Y126116D01*
X144458Y126185D01*
X144389Y126185D01*
X144390Y126254D01*
X144390Y126322D01*
X144391Y126391D01*
X144323Y126391D01*
X144323Y126460D01*
X144392Y126459D01*
X144392Y126528D01*
X144324Y126528D01*
X144324Y126597D01*
X144325Y126665D01*
X144326Y126734D01*
X144257Y126734D01*
X144258Y126803D01*
X144189Y126803D01*
X144190Y126872D01*
X144258Y126871D01*
X144259Y126940D01*
X144191Y126940D01*
X144191Y127009D01*
X144123Y127009D01*
X144123Y127078D01*
X144124Y127146D01*
X144124Y127215D01*
X144056Y127215D01*
X144056Y127284D01*
X144057Y127352D01*
X144058Y127421D01*
X143989Y127421D01*
X143990Y127490D01*
X143921Y127490D01*
X143922Y127559D01*
X143990Y127558D01*
X143991Y127627D01*
X143922Y127628D01*
X143923Y127696D01*
X143855Y127697D01*
X143855Y127765D01*
X143856Y127833D01*
X143856Y127902D01*
X143788Y127902D01*
X143789Y127971D01*
X143720Y127972D01*
X143721Y128040D01*
X143652Y128041D01*
X143653Y128109D01*
X143721Y128109D01*
X143722Y128177D01*
X143653Y128178D01*
X143654Y128246D01*
X143586Y128247D01*
X143586Y128315D01*
X143587Y128384D01*
X143587Y128452D01*
X143519Y128453D01*
X143519Y128521D01*
X143451Y128522D01*
X143451Y128590D01*
X143383Y128591D01*
X143384Y128659D01*
X143452Y128659D01*
X143453Y128727D01*
X143384Y128728D01*
X143385Y128796D01*
X143590Y128795D01*
D02*
G37*
G36*
X146382Y126921D02*
X146381Y126853D01*
X146381Y126784D01*
X146244Y126785D01*
X146244Y126854D01*
X146313Y126853D01*
X146313Y126922D01*
X146382Y126921D01*
D02*
G37*
G36*
X131243Y126437D02*
X131242Y126368D01*
X131310Y126368D01*
X131310Y126299D01*
X131378Y126299D01*
X131378Y126230D01*
X131377Y126162D01*
X131446Y126161D01*
X131445Y126093D01*
X131444Y126024D01*
X131513Y126024D01*
X131512Y125955D01*
X131581Y125955D01*
X131580Y125886D01*
X131649Y125885D01*
X131648Y125817D01*
X131717Y125816D01*
X131716Y125748D01*
X131784Y125747D01*
X131784Y125679D01*
X131852Y125678D01*
X131852Y125610D01*
X131920Y125609D01*
X131920Y125541D01*
X131988Y125540D01*
X131987Y125472D01*
X132193Y125470D01*
X132192Y125401D01*
X132192Y125333D01*
X132329Y125332D01*
X132328Y125263D01*
X132396Y125263D01*
X132396Y125194D01*
X132533Y125193D01*
X132532Y125124D01*
X132669Y125123D01*
X132669Y125055D01*
X132737Y125054D01*
X132737Y124986D01*
X132873Y124985D01*
X132873Y124916D01*
X133010Y124915D01*
X133009Y124846D01*
X133078Y124846D01*
X133077Y124777D01*
X133282Y124776D01*
X133282Y124707D01*
X133350Y124706D01*
X133350Y124638D01*
X133555Y124636D01*
X133555Y124568D01*
X133760Y124566D01*
X133759Y124497D01*
X133965Y124496D01*
X133964Y124427D01*
X134033Y124426D01*
X134032Y124358D01*
X134101Y124357D01*
X134101Y124426D01*
X134170Y124425D01*
X134169Y124357D01*
X134375Y124355D01*
X134374Y124286D01*
X134442Y124286D01*
X134442Y124217D01*
X134784Y124214D01*
X134784Y124146D01*
X134852Y124145D01*
X134852Y124077D01*
X134920Y124076D01*
X134921Y124145D01*
X134989Y124144D01*
X134988Y124076D01*
X135194Y124074D01*
X135193Y124005D01*
X135399Y124004D01*
X135398Y123935D01*
X135741Y123932D01*
X135740Y123864D01*
X135945Y123862D01*
X135945Y123793D01*
X136287Y123791D01*
X136287Y123722D01*
X136492Y123720D01*
X136492Y123652D01*
X136560Y123651D01*
X136561Y123720D01*
X136629Y123719D01*
X136628Y123651D01*
X136971Y123647D01*
X136970Y123579D01*
X137039Y123579D01*
X137039Y123647D01*
X137108Y123646D01*
X137107Y123578D01*
X137313Y123576D01*
X137312Y123508D01*
X137381Y123507D01*
X137381Y123575D01*
X137450Y123575D01*
X137449Y123506D01*
X137654Y123505D01*
X137654Y123436D01*
X137722Y123435D01*
X137723Y123504D01*
X137791Y123503D01*
X137791Y123435D01*
X137859Y123434D01*
X137860Y123503D01*
X137928Y123502D01*
X137928Y123434D01*
X137996Y123433D01*
X137996Y123365D01*
X138064Y123364D01*
X138065Y123433D01*
X138133Y123432D01*
X138133Y123363D01*
X138749Y123358D01*
X138748Y123290D01*
X138817Y123289D01*
X138817Y123357D01*
X138886Y123357D01*
X138885Y123288D01*
X139091Y123287D01*
X139090Y123218D01*
X139159Y123217D01*
X139159Y123286D01*
X139228Y123285D01*
X139227Y123217D01*
X139296Y123216D01*
X139296Y123285D01*
X139365Y123284D01*
X139364Y123216D01*
X139706Y123213D01*
X139706Y123144D01*
X139774Y123144D01*
X139775Y123212D01*
X139843Y123212D01*
X139843Y123143D01*
X140048Y123141D01*
X140048Y123073D01*
X140116Y123072D01*
X140117Y123141D01*
X140185Y123140D01*
X140185Y123072D01*
X140253Y123071D01*
X140254Y123140D01*
X140322Y123139D01*
X140322Y123070D01*
X140801Y123066D01*
X140800Y122998D01*
X140869Y122997D01*
X140869Y123066D01*
X140938Y123065D01*
X140937Y122996D01*
X141143Y122995D01*
X141142Y122926D01*
X141211Y122926D01*
X141211Y122994D01*
X141280Y122994D01*
X141279Y122925D01*
X141348Y122924D01*
X141348Y122993D01*
X141417Y122992D01*
X141416Y122924D01*
X141484Y122923D01*
X141485Y122992D01*
X141554Y122991D01*
X141553Y122923D01*
X141758Y122921D01*
X141759Y122989D01*
X141827Y122989D01*
X141827Y122920D01*
X142306Y122916D01*
X142307Y122985D01*
X142375Y122984D01*
X142375Y122915D01*
X142443Y122915D01*
X142444Y122983D01*
X142512Y122983D01*
X142512Y122914D01*
X142580Y122914D01*
X142581Y122982D01*
X142786Y122980D01*
X142787Y123049D01*
X143129Y123046D01*
X143130Y123114D01*
X143198Y123114D01*
X143199Y123182D01*
X143404Y123180D01*
X143405Y123249D01*
X143473Y123248D01*
X143474Y123317D01*
X143611Y123316D01*
X143612Y123384D01*
X143612Y123453D01*
X143749Y123451D01*
X143750Y123520D01*
X143750Y123588D01*
X143819Y123588D01*
X143819Y123656D01*
X143888Y123656D01*
X143888Y123724D01*
X143957Y123723D01*
X143957Y123792D01*
X143958Y123861D01*
X143959Y123929D01*
X144027Y123928D01*
X144027Y123860D01*
X144095Y123859D01*
X144095Y123791D01*
X144026Y123791D01*
X144025Y123723D01*
X144094Y123722D01*
X144093Y123654D01*
X144025Y123654D01*
X144024Y123586D01*
X144093Y123585D01*
X144092Y123517D01*
X144024Y123518D01*
X144023Y123449D01*
X144022Y123380D01*
X144022Y123312D01*
X144021Y123244D01*
X144021Y123175D01*
X144020Y123107D01*
X144019Y123038D01*
X144019Y122970D01*
X144018Y122901D01*
X143950Y122902D01*
X143949Y122833D01*
X143949Y122765D01*
X143948Y122696D01*
X143947Y122628D01*
X143947Y122559D01*
X143946Y122491D01*
X143946Y122422D01*
X143877Y122423D01*
X143877Y122354D01*
X143945Y122354D01*
X143944Y122285D01*
X143876Y122286D01*
X143875Y122218D01*
X143944Y122217D01*
X143943Y122149D01*
X143875Y122149D01*
X143874Y122081D01*
X143874Y122012D01*
X143873Y121944D01*
X143872Y121875D01*
X143872Y121807D01*
X143803Y121807D01*
X143803Y121739D01*
X143802Y121670D01*
X143801Y121602D01*
X143801Y121533D01*
X143800Y121465D01*
X143732Y121466D01*
X143731Y121397D01*
X143800Y121396D01*
X143799Y121328D01*
X143731Y121328D01*
X143730Y121260D01*
X143729Y121192D01*
X143729Y121123D01*
X143660Y121124D01*
X143660Y121055D01*
X143659Y120987D01*
X143658Y120918D01*
X143590Y120919D01*
X143589Y120850D01*
X143658Y120850D01*
X143657Y120781D01*
X143589Y120782D01*
X143588Y120713D01*
X143588Y120645D01*
X143587Y120577D01*
X143519Y120577D01*
X143518Y120509D01*
X143517Y120440D01*
X143517Y120372D01*
X143448Y120372D01*
X143448Y120304D01*
X143516Y120303D01*
X143516Y120235D01*
X143447Y120235D01*
X143447Y120167D01*
X143378Y120167D01*
X143377Y120099D01*
X143377Y120030D01*
X143376Y119962D01*
X143308Y119963D01*
X143307Y119894D01*
X143307Y119826D01*
X143306Y119757D01*
X143237Y119758D01*
X143237Y119689D01*
X143168Y119690D01*
X143168Y119621D01*
X143236Y119621D01*
X143236Y119552D01*
X143167Y119553D01*
X143167Y119484D01*
X143098Y119485D01*
X143098Y119416D01*
X143029Y119417D01*
X143028Y119349D01*
X143097Y119348D01*
X143096Y119280D01*
X143028Y119280D01*
X143027Y119212D01*
X142959Y119212D01*
X142958Y119144D01*
X142958Y119075D01*
X142957Y119007D01*
X142888Y119007D01*
X142888Y118939D01*
X142819Y118939D01*
X142819Y118871D01*
X142750Y118872D01*
X142750Y118803D01*
X142749Y118735D01*
X142681Y118735D01*
X142680Y118667D01*
X142680Y118598D01*
X142611Y118599D01*
X142610Y118530D01*
X142542Y118531D01*
X142541Y118463D01*
X142473Y118463D01*
X142472Y118395D01*
X142472Y118326D01*
X142335Y118327D01*
X142334Y118259D01*
X142333Y118190D01*
X142265Y118191D01*
X142264Y118123D01*
X142264Y118054D01*
X142127Y118055D01*
X142126Y117987D01*
X142126Y117918D01*
X141989Y117920D01*
X141988Y117851D01*
X141988Y117782D01*
X141782Y117784D01*
X141781Y117716D01*
X141713Y117717D01*
X141712Y117648D01*
X141644Y117649D01*
X141643Y117580D01*
X141575Y117581D01*
X141574Y117512D01*
X141369Y117514D01*
X141368Y117446D01*
X141300Y117446D01*
X141299Y117378D01*
X141094Y117379D01*
X141093Y117311D01*
X141025Y117312D01*
X141024Y117243D01*
X140682Y117246D01*
X140681Y117178D01*
X140476Y117179D01*
X140475Y117111D01*
X140407Y117112D01*
X140407Y117180D01*
X140339Y117181D01*
X140338Y117112D01*
X139722Y117118D01*
X139721Y117049D01*
X139653Y117050D01*
X139653Y117118D01*
X139585Y117119D01*
X139584Y117050D01*
X139516Y117051D01*
X139516Y117119D01*
X139448Y117120D01*
X139447Y117051D01*
X139379Y117052D01*
X139379Y117121D01*
X138489Y117128D01*
X138490Y117197D01*
X138421Y117197D01*
X138421Y117129D01*
X138352Y117129D01*
X138353Y117198D01*
X138147Y117200D01*
X138148Y117268D01*
X138079Y117269D01*
X138079Y117200D01*
X138010Y117201D01*
X138011Y117269D01*
X137805Y117271D01*
X137806Y117340D01*
X137738Y117340D01*
X137737Y117272D01*
X137669Y117272D01*
X137669Y117341D01*
X137601Y117341D01*
X137601Y117410D01*
X137533Y117411D01*
X137532Y117342D01*
X137464Y117343D01*
X137464Y117411D01*
X137259Y117413D01*
X137259Y117481D01*
X137054Y117483D01*
X137055Y117552D01*
X136849Y117553D01*
X136850Y117622D01*
X136644Y117624D01*
X136645Y117692D01*
X136440Y117694D01*
X136440Y117762D01*
X136372Y117763D01*
X136372Y117832D01*
X136167Y117833D01*
X136167Y117902D01*
X136099Y117902D01*
X136100Y117971D01*
X135894Y117973D01*
X135895Y118041D01*
X135826Y118042D01*
X135827Y118110D01*
X135621Y118112D01*
X135622Y118181D01*
X135553Y118181D01*
X135554Y118250D01*
X135349Y118251D01*
X135349Y118320D01*
X135281Y118321D01*
X135281Y118389D01*
X135213Y118390D01*
X135213Y118458D01*
X135145Y118459D01*
X135146Y118527D01*
X135009Y118528D01*
X135009Y118597D01*
X134872Y118598D01*
X134873Y118667D01*
X134804Y118667D01*
X134805Y118736D01*
X134737Y118736D01*
X134737Y118805D01*
X134669Y118805D01*
X134669Y118874D01*
X134601Y118874D01*
X134601Y118943D01*
X134396Y118945D01*
X134397Y119013D01*
X134465Y119012D01*
X134466Y119081D01*
X134260Y119083D01*
X134261Y119151D01*
X134192Y119152D01*
X134193Y119220D01*
X134124Y119221D01*
X134125Y119289D01*
X134056Y119290D01*
X134057Y119358D01*
X133989Y119359D01*
X133989Y119428D01*
X133921Y119428D01*
X133921Y119497D01*
X133853Y119497D01*
X133853Y119566D01*
X133785Y119566D01*
X133785Y119635D01*
X133717Y119635D01*
X133718Y119704D01*
X133649Y119704D01*
X133650Y119773D01*
X133581Y119773D01*
X133582Y119842D01*
X133513Y119843D01*
X133514Y119911D01*
X133446Y119912D01*
X133446Y119980D01*
X133378Y119981D01*
X133378Y120049D01*
X133310Y120050D01*
X133310Y120118D01*
X133379Y120118D01*
X133379Y120186D01*
X133242Y120187D01*
X133243Y120256D01*
X133244Y120324D01*
X133175Y120325D01*
X133176Y120393D01*
X133107Y120394D01*
X133108Y120463D01*
X133039Y120463D01*
X133040Y120531D01*
X132972Y120532D01*
X132972Y120601D01*
X132904Y120601D01*
X132904Y120670D01*
X132836Y120670D01*
X132836Y120739D01*
X132837Y120807D01*
X132838Y120876D01*
X132769Y120876D01*
X132770Y120945D01*
X132701Y120945D01*
X132702Y121014D01*
X132633Y121014D01*
X132634Y121083D01*
X132634Y121151D01*
X132566Y121152D01*
X132567Y121221D01*
X132567Y121289D01*
X132499Y121290D01*
X132499Y121358D01*
X132431Y121359D01*
X132431Y121427D01*
X132363Y121428D01*
X132364Y121496D01*
X132432Y121496D01*
X132433Y121564D01*
X132364Y121565D01*
X132365Y121633D01*
X132296Y121634D01*
X132297Y121702D01*
X132228Y121703D01*
X132229Y121771D01*
X132298Y121771D01*
X132298Y121839D01*
X132230Y121840D01*
X132230Y121908D01*
X132162Y121909D01*
X132162Y121977D01*
X132094Y121978D01*
X132095Y122046D01*
X132095Y122115D01*
X132096Y122183D01*
X132027Y122184D01*
X132028Y122253D01*
X131959Y122253D01*
X131960Y122322D01*
X132028Y122321D01*
X132029Y122389D01*
X131960Y122390D01*
X131961Y122459D01*
X131893Y122459D01*
X131893Y122528D01*
X131894Y122596D01*
X131894Y122665D01*
X131826Y122665D01*
X131826Y122734D01*
X131827Y122802D01*
X131828Y122871D01*
X131759Y122871D01*
X131760Y122940D01*
X131691Y122940D01*
X131692Y123009D01*
X131760Y123008D01*
X131761Y123077D01*
X131693Y123077D01*
X131693Y123146D01*
X131694Y123214D01*
X131694Y123283D01*
X131626Y123283D01*
X131626Y123352D01*
X131558Y123352D01*
X131559Y123421D01*
X131627Y123420D01*
X131628Y123489D01*
X131559Y123489D01*
X131560Y123558D01*
X131560Y123626D01*
X131561Y123695D01*
X131492Y123695D01*
X131493Y123764D01*
X131494Y123832D01*
X131494Y123901D01*
X131426Y123901D01*
X131426Y123970D01*
X131495Y123969D01*
X131495Y124038D01*
X131427Y124038D01*
X131428Y124107D01*
X131428Y124175D01*
X131429Y124244D01*
X131360Y124244D01*
X131361Y124313D01*
X131361Y124381D01*
X131362Y124450D01*
X131294Y124450D01*
X131294Y124519D01*
X131363Y124518D01*
X131363Y124587D01*
X131295Y124587D01*
X131295Y124656D01*
X131364Y124655D01*
X131365Y124724D01*
X131296Y124724D01*
X131297Y124793D01*
X131297Y124861D01*
X131298Y124930D01*
X131229Y124930D01*
X131230Y124999D01*
X131298Y124998D01*
X131299Y125067D01*
X131230Y125067D01*
X131231Y125136D01*
X131232Y125204D01*
X131232Y125273D01*
X131233Y125341D01*
X131234Y125410D01*
X131165Y125410D01*
X131166Y125479D01*
X131234Y125478D01*
X131235Y125547D01*
X131166Y125547D01*
X131167Y125616D01*
X131235Y125615D01*
X131236Y125684D01*
X131167Y125684D01*
X131168Y125753D01*
X131237Y125752D01*
X131237Y125821D01*
X131169Y125821D01*
X131169Y125890D01*
X131238Y125889D01*
X131238Y125958D01*
X131170Y125958D01*
X131170Y126027D01*
X131171Y126095D01*
X131172Y126164D01*
X131172Y126232D01*
X131173Y126301D01*
X131173Y126369D01*
X131174Y126437D01*
X131243Y126437D01*
D02*
G37*
G36*
X144096Y123996D02*
X144096Y123928D01*
X144027Y123928D01*
X144028Y123997D01*
X144096Y123996D01*
D02*
G37*
G36*
X123325Y105457D02*
X123430Y105424D01*
X123527Y105376D01*
X123601Y105318D01*
X123658Y105255D01*
X123706Y105187D01*
X123740Y105124D01*
X123749Y105080D01*
X123755Y105008D01*
X123969Y103367D01*
X124210Y101534D01*
X124496Y99375D01*
X124782Y97216D01*
X125022Y95387D01*
X125237Y93745D01*
X125241Y93685D01*
X125278Y93647D01*
X127569Y93628D01*
X130420Y93614D01*
X134514Y93610D01*
X138328Y93606D01*
X142118Y93595D01*
X145413Y93579D01*
X147379Y93560D01*
X147379Y93559D01*
X150971Y93509D01*
Y92863D01*
X124549Y92900D01*
X124417Y93087D01*
X124417Y93088D01*
X124333Y93286D01*
X124206Y94026D01*
X124039Y95134D01*
X123783Y97003D01*
X123587Y98436D01*
X123414Y99652D01*
X123257Y100736D01*
X123234Y100786D01*
X123220Y100790D01*
X123211Y100779D01*
X123049Y99704D01*
X122871Y98486D01*
X122669Y97028D01*
X122294Y94320D01*
X122125Y93416D01*
X121949Y93006D01*
X121688Y92864D01*
X121518Y92883D01*
X121369Y92940D01*
X121252Y93029D01*
X121181Y93141D01*
X121137Y93311D01*
X120626Y96951D01*
X120134Y100467D01*
X120090Y100918D01*
X120075Y100933D01*
X120058Y100920D01*
X119981Y100473D01*
X119840Y99498D01*
X119536Y97264D01*
X119345Y95860D01*
X119177Y94635D01*
X119032Y93583D01*
X119002Y93394D01*
X118932Y93176D01*
X118812Y93007D01*
X118650Y92901D01*
X118460Y92864D01*
X118182Y93004D01*
X118000Y93395D01*
X117831Y94275D01*
X117449Y97027D01*
X117247Y98485D01*
X117069Y99704D01*
X116906Y100780D01*
X116897Y100790D01*
X116883Y100786D01*
X116859Y100736D01*
X116702Y99652D01*
X116530Y98436D01*
X116334Y97003D01*
X116077Y95120D01*
X115911Y94018D01*
X115785Y93287D01*
X115701Y93088D01*
X115700Y93087D01*
X115567Y92900D01*
X97722Y92863D01*
Y93509D01*
X101246Y93559D01*
Y93560D01*
X102951Y93579D01*
X105219Y93595D01*
X107630Y93606D01*
X109822Y93609D01*
X111962Y93614D01*
X113542Y93629D01*
X114842Y93648D01*
X114875Y93681D01*
X114902Y94085D01*
X115636Y99509D01*
X116384Y105024D01*
X116440Y105223D01*
X116533Y105344D01*
X116685Y105427D01*
X116876Y105460D01*
X117077Y105436D01*
X117156Y105406D01*
X117232Y105354D01*
X117298Y105290D01*
X117340Y105223D01*
X117378Y105090D01*
X117544Y103980D01*
X117729Y102704D01*
X117934Y101223D01*
X118135Y99751D01*
X118308Y98508D01*
X118466Y97387D01*
X118476Y97368D01*
X118482Y97366D01*
X118485Y97371D01*
X118646Y98504D01*
X118822Y99764D01*
X119028Y101264D01*
X119421Y104105D01*
X119586Y104959D01*
X119771Y105331D01*
X120058Y105468D01*
X120348Y105330D01*
X120534Y104956D01*
X120701Y104098D01*
X121103Y101239D01*
X121312Y99733D01*
X121489Y98473D01*
X121648Y97351D01*
X121651Y97348D01*
X121654Y97351D01*
X121781Y98241D01*
X122219Y101458D01*
X122700Y104998D01*
X122706Y105085D01*
X122749Y105209D01*
X122883Y105337D01*
X123058Y105435D01*
X123228Y105468D01*
X123325Y105457D01*
D02*
G37*
G36*
X87217Y102385D02*
X87343Y102174D01*
X87485Y101916D01*
X87638Y101608D01*
X87951Y100934D01*
X88177Y100403D01*
X88395Y99822D01*
X88693Y98958D01*
X89041Y97930D01*
X89467Y98526D01*
X89913Y99098D01*
X90470Y99725D01*
X91059Y100321D01*
X91601Y100802D01*
X92039Y101133D01*
X92637Y101532D01*
X93247Y101917D01*
X93407Y101962D01*
X93442Y101944D01*
X93538Y101789D01*
X93648Y101598D01*
X93766Y101371D01*
X94334Y100127D01*
X94854Y98747D01*
X95306Y97293D01*
X95668Y95826D01*
X95822Y95065D01*
X95986Y94156D01*
X96133Y93285D01*
X96155Y93007D01*
X96058Y92907D01*
X94681Y92883D01*
X92273Y92867D01*
X84964Y92863D01*
X73772Y92863D01*
X73823Y93031D01*
Y93032D01*
X73938Y93321D01*
X74306Y94064D01*
X74687Y94802D01*
X74960Y95288D01*
X75543Y96179D01*
X76218Y97069D01*
X76923Y97881D01*
X77595Y98535D01*
X78203Y99033D01*
X78897Y99529D01*
X79549Y99950D01*
X79808Y100023D01*
X79939Y99938D01*
X80472Y98721D01*
X80974Y97501D01*
X81350Y96453D01*
X81350Y96452D01*
X81481Y96051D01*
X81904Y96862D01*
Y96864D01*
X82709Y98236D01*
X83628Y99489D01*
X84651Y100607D01*
X85764Y101576D01*
X86101Y101814D01*
X86566Y102101D01*
X87037Y102374D01*
X87173Y102410D01*
X87217Y102385D01*
D02*
G37*
D11*
X29040Y22614D02*
G03*
X36111Y19685I7071J7071D01*
G01*
X177165Y-137795D02*
X190945D01*
X36111Y19685D02*
X59390D01*
X128937D01*
X25000Y26654D02*
X29040Y22614D01*
D15*
X-66929Y9674D02*
G03*
X-64961Y4921I6721J0D01*
G01*
D02*
G03*
X-60208Y2953I4752J4752D01*
G01*
X156472Y24D02*
G03*
X149401Y2953I-7071J-7071D01*
G01*
X158518Y-2022D02*
G03*
X165589Y-4951I7071J7071D01*
G01*
X171284Y-59284D02*
G03*
X168355Y-52213I-10000J0D01*
G01*
X152559Y-32275D02*
G03*
X155488Y-39346I10000J0D01*
G01*
X154528Y-22638D02*
G03*
X152559Y-27390I4752J-4752D01*
G01*
X154528Y-22638D02*
G03*
X157194Y-16201I-6436J6436D01*
G01*
X164737Y-163855D02*
G03*
X171284Y-148050I-15805J15805D01*
G01*
X167347Y-135261D02*
G03*
X169370Y-130375I-4886J4886D01*
G01*
Y-81044D02*
G03*
X167347Y-76158I-6910J0D01*
G01*
X153065Y-3392D02*
G03*
X145994Y-463I-7071J-7071D01*
G01*
X109252Y-6371D02*
G03*
X106818Y-3937I-2434J0D01*
G01*
X104331D02*
G03*
X99290Y-6025I0J-7129D01*
G01*
X106323Y-19661D02*
G03*
X109252Y-12590I-7071J7071D01*
G01*
X90346Y-10827D02*
G03*
X97417Y-7898I0J10000D01*
G01*
X114142Y-139528D02*
G03*
X117071Y-132457I-7071J7071D01*
G01*
Y-118260D02*
G03*
X114142Y-111189I-10000J0D01*
G01*
X98220Y-23622D02*
G03*
X105291Y-20693I0J10000D01*
G01*
X104843Y-144685D02*
G03*
X111914Y-141756I0J10000D01*
G01*
X100540Y-144685D02*
G03*
X93468Y-147614I0J-10000D01*
G01*
X79261Y-463D02*
G03*
X75787Y-3937I0J-3474D01*
G01*
Y-7874D02*
G03*
X78740Y-10827I2953J0D01*
G01*
X80766Y-23622D02*
G03*
X73695Y-26551I0J-10000D01*
G01*
X68633Y-168307D02*
G03*
X75704Y-165378I0J10000D01*
G01*
X12472D02*
G03*
X19544Y-168307I7071J7071D01*
G01*
X153543Y-46103D02*
G03*
X150614Y-39032I-10000J0D01*
G01*
X90092Y-17717D02*
G03*
X97162Y-14788I0J10000D01*
G01*
X153543Y-58212D02*
G03*
X156472Y-65284I10000J0D01*
G01*
X63976Y-111969D02*
G03*
X61048Y-104898I-10000J0D01*
G01*
X60687Y-17717D02*
G03*
X53616Y-20646I0J-10000D01*
G01*
X-17717Y-165316D02*
G03*
X-20646Y-158245I-10000J0D01*
G01*
X137253Y-55765D02*
G03*
X134324Y-48694I-10000J0D01*
G01*
X112181Y-4897D02*
G03*
X105110Y-1969I-7071J-7071D01*
G01*
X90346D02*
G03*
X83891Y-4642I0J-9129D01*
G01*
X127931Y-38159D02*
G03*
X130860Y-45230I10000J0D01*
G01*
X127931Y-24789D02*
G03*
X125002Y-17718I-10000J0D01*
G01*
X156496Y-123370D02*
G03*
X159425Y-130441I10000J0D01*
G01*
X156496Y-104536D02*
G03*
X153567Y-97465I-10000J0D01*
G01*
X137253Y-77008D02*
G03*
X140182Y-84079I10000J0D01*
G01*
X88427Y-184055D02*
G03*
X95498Y-181126I0J10000D01*
G01*
X-30290D02*
G03*
X-23219Y-184055I7071J7071D01*
G01*
X-70621Y-136653D02*
G03*
X-67692Y-143724I10000J0D01*
G01*
X93529Y-68874D02*
G03*
X86458Y-65945I-7071J-7071D01*
G01*
D02*
G03*
X81693Y-70710I0J-4765D01*
G01*
Y-85425D02*
G03*
X84622Y-92496I10000J0D01*
G01*
X98425Y-110441D02*
G03*
X95496Y-103370I-10000J0D01*
G01*
Y-137771D02*
G03*
X98425Y-130700I-7071J7071D01*
G01*
X87787Y-141339D02*
G03*
X94858Y-138410I0J10000D01*
G01*
X83276Y-141339D02*
G03*
X76205Y-144267I0J-10000D01*
G01*
X64755Y-151575D02*
G03*
X71827Y-148646I0J10000D01*
G01*
X-18653Y-55979D02*
G03*
X-15748Y-62992I9917J0D01*
G01*
X35457Y-148646D02*
G03*
X42528Y-151575I7071J7071D01*
G01*
X7331Y-116378D02*
G03*
X10260Y-123449I10000J0D01*
G01*
X7331Y-90214D02*
G03*
X4403Y-83143I-10000J0D01*
G01*
X-18653Y-117953D02*
G03*
X-15724Y-125024I10000J0D01*
G01*
X21678Y-162426D02*
G03*
X28749Y-165355I7071J7071D01*
G01*
X-30863Y-4897D02*
G03*
X-37934Y-1969I-7071J-7071D01*
G01*
X-146496D02*
G03*
X-156496Y-11969I0J-10000D01*
G01*
Y-59984D02*
G03*
X-153567Y-67055I10000J0D01*
G01*
X71928Y-134253D02*
G03*
X67890Y-135926I0J-5711D01*
G01*
D02*
G03*
X64961Y-142997I7071J-7071D01*
G01*
X62229Y-61787D02*
G03*
X59300Y-68858I7071J-7071D01*
G01*
X-35433Y-118449D02*
G03*
X-32504Y-125520I10000J0D01*
G01*
X-35433Y-116497D02*
G03*
X-38362Y-109426I-10000J0D01*
G01*
X164783Y-101605D02*
G03*
X167323Y-95472I-6132J6132D01*
G01*
X145688Y-138760D02*
G03*
X148617Y-131689I-7071J7071D01*
G01*
X137590Y-142717D02*
G03*
X144661Y-139788I0J10000D01*
G01*
X134063Y-142717D02*
G03*
X126992Y-145645I0J-10000D01*
G01*
X86409Y-182087D02*
G03*
X93480Y-179158I0J10000D01*
G01*
X-17842D02*
G03*
X-10772Y-182087I7071J7071D01*
G01*
X-61024Y-131834D02*
G03*
X-58095Y-138906I10000J0D01*
G01*
X-61024Y-116890D02*
G03*
X-63952Y-109819I-10000J0D01*
G01*
X30883Y-133245D02*
G03*
X33316Y-134253I2433J2433D01*
G01*
X12795Y-81654D02*
G03*
X9866Y-74583I-10000J0D01*
G01*
X104331Y-92071D02*
G03*
X107260Y-99142I10000J0D01*
G01*
X104331Y-64135D02*
G03*
X101402Y-57063I-10000J0D01*
G01*
X-66929Y9674D02*
Y24606D01*
X-60208Y2953D02*
X149401D01*
X156472Y24D02*
X158518Y-2022D01*
X165589Y-4951D02*
X179134D01*
X157899Y-27559D02*
X179134D01*
X171284Y-148050D02*
Y-59284D01*
X155488Y-39346D02*
X168355Y-52213D01*
X152559Y-32275D02*
Y-27390D01*
X153065Y-3392D02*
X157194Y-7521D01*
Y-16201D02*
Y-7521D01*
X79261Y-463D02*
X145994D01*
X163237Y-165355D02*
X164737Y-163855D01*
X169370Y-94597D02*
Y-81044D01*
Y-96348D02*
X169390Y-96329D01*
X169370Y-94597D02*
X169390Y-94616D01*
X169370Y-130375D02*
Y-96348D01*
X169390Y-96329D02*
Y-94616D01*
X177165Y-128937D02*
X187992D01*
X52165Y9843D02*
X83661D01*
X101519Y127812D02*
X118110Y111221D01*
X119103Y-7521D02*
X150614Y-39032D01*
X104331Y-3937D02*
X106818D01*
X109252Y-12590D02*
Y-6371D01*
X105291Y-20693D02*
X106323Y-19661D01*
X97417Y-7898D02*
X99290Y-6025D01*
X117071Y-132457D02*
Y-118260D01*
X111914Y-141756D02*
X114142Y-139528D01*
X98425Y-95472D02*
X114142Y-111189D01*
X100540Y-144685D02*
X104843D01*
X75787Y-7874D02*
Y-3937D01*
X80766Y-23622D02*
X98220D01*
X78740Y-10827D02*
X90346D01*
X59300Y-40946D02*
X73695Y-26551D01*
X59300Y-40946D02*
X85284Y-103151D01*
X-44637Y-72048D02*
X-18653Y-134253D01*
X75704Y-165378D02*
X93468Y-147614D01*
X19544Y-168307D02*
X68633D01*
X-18653Y-134253D02*
X12472Y-165378D01*
X-148574Y-103151D02*
X-122590Y-165355D01*
X153543Y-58212D02*
Y-46103D01*
X97162Y-14788D02*
X104484Y-7467D01*
X60687Y-17717D02*
X90092D01*
X156472Y-65284D02*
X163237Y-72048D01*
X167347Y-76158D01*
X137253Y-165355D02*
X167347Y-135261D01*
X63976Y-120079D02*
Y-111969D01*
X59300Y-103151D02*
X61048Y-104898D01*
X33316Y-40946D02*
X53616Y-20646D01*
X33316Y-40946D02*
X59300Y-103151D01*
X-44637Y-134253D02*
X-20646Y-158245D01*
X-17717Y-175197D02*
Y-165316D01*
X-70621Y-72048D02*
X-44637Y-134253D01*
X130860Y-45230D02*
X134324Y-48694D01*
X137253Y-72048D02*
Y-55765D01*
X90346Y-1969D02*
X105110D01*
X127931Y-38159D02*
Y-24789D01*
X112181Y-4897D02*
X125002Y-17718D01*
X156496Y-123370D02*
Y-104536D01*
X159425Y-130441D02*
X163237Y-134253D01*
X111268Y-165355D02*
X163237Y-134253D01*
X137253Y-77008D02*
Y-72048D01*
X140182Y-84079D02*
X153567Y-97465D01*
X95498Y-181126D02*
X111268Y-165355D01*
X81013Y-7521D02*
X83891Y-4642D01*
X7331Y-40946D02*
X66393Y-7467D01*
X7331Y-40946D02*
X33316Y-103151D01*
X-23219Y-184055D02*
X88427D01*
X-67692Y-143724D02*
X-30290Y-181126D01*
X-96606Y-72048D02*
X-70621Y-134253D01*
Y-136653D02*
Y-134253D01*
X93529Y-68874D02*
X96649Y-71994D01*
X84622Y-92496D02*
X95496Y-103370D01*
X81693Y-85425D02*
Y-70710D01*
X111268Y-72048D02*
X137253Y-134253D01*
X98425Y-130700D02*
Y-110441D01*
X94858Y-138410D02*
X95496Y-137771D01*
X85284Y-165355D02*
X137253Y-134253D01*
X83276Y-141339D02*
X87787D01*
X71827Y-148646D02*
X76205Y-144267D01*
X-18653Y-40946D02*
X42922Y-7521D01*
X-18653Y-55979D02*
Y-40946D01*
X-122590Y-72048D02*
Y-62992D01*
X7331Y-103151D02*
Y-90214D01*
Y-116378D02*
Y-103151D01*
X42528Y-151575D02*
X64755D01*
X10260Y-123449D02*
X35457Y-148646D01*
X-15748Y-62992D02*
X4403Y-83143D01*
X-122590Y-72048D02*
X-96606Y-134253D01*
X85284Y-72048D02*
X111268Y-134253D01*
X46308Y-165355D02*
X111268Y-134253D01*
X-18653Y-117953D02*
Y-103151D01*
X-15724Y-125024D02*
X21678Y-162426D01*
X28749Y-165355D02*
X46308D01*
X-30863Y-4897D02*
X-28239Y-7521D01*
X-44637Y-40946D02*
X-28239Y-7521D01*
X-146496Y-1969D02*
X-37934D01*
X-44637Y-40946D02*
X-18653Y-103151D01*
X-148574Y-72048D02*
X-122590Y-134253D01*
X-156496Y-59984D02*
Y-11969D01*
X-153567Y-67055D02*
X-148574Y-72048D01*
X62229Y-61787D02*
X62992Y-61024D01*
X59300Y-72048D02*
X85284Y-134253D01*
X71928D02*
X85284D01*
X59300Y-72048D02*
Y-68858D01*
X64961Y-145669D02*
Y-142997D01*
X-70621Y-40946D02*
X-44637Y-103151D01*
X-70621Y-40946D02*
X-66330Y-7521D01*
X-35433Y-118449D02*
Y-116497D01*
X-32504Y-125520D02*
X7332Y-165355D01*
X-44637Y-103151D02*
X-38362Y-109426D01*
X137253Y-40946D02*
X163237Y-103151D01*
X164783Y-101605D01*
X148617Y-131689D02*
Y-103096D01*
X144661Y-139788D02*
X145688Y-138760D01*
X134063Y-142717D02*
X137590D01*
X93480Y-179158D02*
X126992Y-145645D01*
X-104420Y-7521D02*
X-96606Y-40946D01*
X33316Y-72048D02*
X59300Y-134253D01*
X-58095Y-138906D02*
X-31645Y-165355D01*
X-10772Y-182087D02*
X86409D01*
X-31645Y-165355D02*
X-17842Y-179158D01*
X-96606Y-40946D02*
X-70621Y-103151D01*
X-61024Y-131834D02*
Y-116890D01*
X-70621Y-103151D02*
X-63952Y-109819D01*
X111268Y-40946D02*
X137253Y-103151D01*
X12795Y-115157D02*
X30883Y-133245D01*
X12795Y-115157D02*
Y-81654D01*
X7331Y-72048D02*
X9866Y-74583D01*
X-142511Y-7521D02*
X-122590Y-40946D01*
X-96606Y-103151D02*
X-70621Y-165355D01*
X-122590Y-40946D02*
X-96606Y-103151D01*
X107260Y-99142D02*
X111268Y-103151D01*
X104331Y-92071D02*
Y-64135D01*
X85284Y-40946D02*
X101402Y-57063D01*
X-122590Y-103151D02*
X-96606Y-165355D01*
X-18653Y-72048D02*
X7332Y-134253D01*
X-148574Y-40946D02*
X-122590Y-103151D01*
D16*
X-31496Y118110D02*
G03*
X-8152Y87687I31496J0D01*
G01*
D02*
G03*
X-3937Y91902I0J4215D01*
G01*
X8152Y87687D02*
G03*
X31496Y118110I-8152J30423D01*
G01*
X3937Y91902D02*
G03*
X8152Y87687I4215J0D01*
G01*
X26496Y141733D02*
G03*
X31496Y146733I0J5000D01*
G01*
Y128858D02*
G03*
X26496Y133858I-5000J0D01*
G01*
X-3937Y183688D02*
G03*
X-8152Y187903I-4215J0D01*
G01*
D02*
G03*
X-31496Y157480I8152J-30423D01*
G01*
X8152Y187904D02*
G03*
X3937Y183689I0J-4215D01*
G01*
X31496Y157481D02*
G03*
X8152Y187904I-31496J0D01*
G01*
X8937Y133858D02*
G03*
X3937Y128858I0J-5000D01*
G01*
X-26496Y133858D02*
G03*
X-31496Y128858I0J-5000D01*
G01*
X-3937D02*
G03*
X-8937Y133858I-5000J0D01*
G01*
X3937Y146733D02*
G03*
X8937Y141733I5000J0D01*
G01*
X-8937Y141732D02*
G03*
X-3937Y146732I0J5000D01*
G01*
X-31496D02*
G03*
X-26496Y141732I5000J0D01*
G01*
X194883Y3937D02*
G03*
X187008Y11812I-7875J0D01*
G01*
Y-196851D02*
G03*
X194883Y-188976I0J7875D01*
G01*
X-194883D02*
G03*
X-187008Y-196851I7875J0D01*
G01*
Y11812D02*
G03*
X-194883Y3937I0J-7875D01*
G01*
X-180197Y11811D02*
G03*
X-171661Y15347I0J12071D01*
G01*
X171661D02*
G03*
X180197Y11811I8535J8535D01*
G01*
X-170858Y16150D02*
G03*
X-167323Y24685I-8535J8535D01*
G01*
X162402Y29606D02*
G03*
X165937Y21071I12071J0D01*
G01*
X-163787Y186606D02*
G03*
X-167323Y178071I8535J-8535D01*
G01*
X-132795Y212598D02*
G03*
X-141331Y209063I0J-12071D01*
G01*
X141331D02*
G03*
X132795Y212598I-8535J-8535D01*
G01*
X162402Y182992D02*
G03*
X158866Y191528I-12071J0D01*
G01*
X-3937Y91902D02*
Y128858D01*
X31496Y128858D02*
X31496Y118110D01*
X3937Y91902D02*
Y128858D01*
X-31496Y118110D02*
Y128858D01*
X31496Y146733D02*
Y157481D01*
X-3937Y146732D02*
Y183688D01*
X-31496Y146732D02*
Y157480D01*
X3937Y146733D02*
Y183689D01*
X8937Y133858D02*
X26496D01*
X-26496D02*
X-8937D01*
X8937Y141733D02*
X26496D01*
X-26496Y141732D02*
X-8937D01*
X194882Y-188977D02*
Y3938D01*
X180197Y11811D02*
X187009D01*
X-187009Y-196850D02*
X187009D01*
X-194882Y-188977D02*
Y3938D01*
X-187009Y11811D02*
X-180197D01*
X-171661Y15347D02*
X-171260Y15748D01*
X171260D02*
X171661Y15347D01*
X-171260Y15748D02*
X-170858Y16150D01*
X-167323Y24685D02*
Y31575D01*
X165937Y21071D02*
X171260Y15748D01*
X162402Y29606D02*
Y29766D01*
X-167323Y31575D02*
Y178071D01*
X-163787Y186606D02*
X-141331Y209063D01*
X-132795Y212598D02*
X132795D01*
X141331Y209063D02*
X158866Y191528D01*
X162402Y29766D02*
Y182992D01*
D65*
X-66929Y24606D02*
D03*
X179134Y-4951D02*
D03*
Y-27559D02*
D03*
X157899D02*
D03*
X-6299Y-29685D02*
D03*
X188976Y-80709D02*
D03*
X190945Y-137795D02*
D03*
X177165D02*
D03*
X128937Y19685D02*
D03*
X59390D02*
D03*
X-55973Y50868D02*
D03*
Y8858D02*
D03*
X177165Y-128937D02*
D03*
X142717Y74803D02*
D03*
X187992Y-128937D02*
D03*
X83661Y9843D02*
D03*
X52165D02*
D03*
X-103475Y79064D02*
D03*
X-110678Y68898D02*
D03*
X-98425Y69882D02*
D03*
X-90748Y14764D02*
D03*
X-64567Y18307D02*
D03*
X178740Y-113582D02*
D03*
X-83662Y16733D02*
D03*
X-118109Y27559D02*
D03*
X101519Y127812D02*
D03*
X118110Y111221D02*
D03*
X-110236Y57086D02*
D03*
X-111220Y96457D02*
D03*
X-81694Y96456D02*
D03*
X-74556Y79580D02*
D03*
X-80067Y85091D02*
D03*
X-86956Y82729D02*
D03*
X-158858Y43702D02*
D03*
X-134843Y59055D02*
D03*
X157194Y-7521D02*
D03*
X163237Y-165355D02*
D03*
X98425Y-95472D02*
D03*
X85284Y-103151D02*
D03*
X59300Y-40946D02*
D03*
X-44637Y-72048D02*
D03*
X-18653Y-134253D02*
D03*
X-148574Y-103151D02*
D03*
X-122590Y-165355D02*
D03*
X119103Y-7521D02*
D03*
X104484Y-7467D02*
D03*
X163237Y-72048D02*
D03*
X59300Y-103151D02*
D03*
X137253Y-165355D02*
D03*
X63976Y-120079D02*
D03*
X33316Y-40946D02*
D03*
X-70621Y-72048D02*
D03*
X-17717Y-175197D02*
D03*
X-44637Y-134253D02*
D03*
X137253Y-72048D02*
D03*
X163237Y-134253D02*
D03*
X111268Y-165355D02*
D03*
X81013Y-7521D02*
D03*
X66393Y-7467D02*
D03*
X7331Y-40946D02*
D03*
X33316Y-103151D02*
D03*
X-96606Y-72048D02*
D03*
X-70621Y-134253D02*
D03*
X96649Y-71994D02*
D03*
X111268Y-72048D02*
D03*
X137253Y-134253D02*
D03*
X85284Y-165355D02*
D03*
X42922Y-7521D02*
D03*
X-15748Y-62992D02*
D03*
X-18653Y-40946D02*
D03*
X-122590Y-72048D02*
D03*
Y-62992D02*
D03*
X7331Y-103151D02*
D03*
X-96606Y-134253D02*
D03*
X85284Y-72048D02*
D03*
X-18653Y-103151D02*
D03*
X111268Y-134253D02*
D03*
X46308Y-165355D02*
D03*
X-28239Y-7521D02*
D03*
X-44637Y-40946D02*
D03*
X-122590Y-134253D02*
D03*
X-148574Y-72048D02*
D03*
X85284Y-134253D02*
D03*
X64961Y-145669D02*
D03*
X62992Y-61024D02*
D03*
X59300Y-72048D02*
D03*
X-44637Y-103151D02*
D03*
X-66330Y-7521D02*
D03*
X-70621Y-40946D02*
D03*
X7332Y-165355D02*
D03*
X-148574Y-134253D02*
D03*
X167323Y-95472D02*
D03*
X137253Y-40946D02*
D03*
X163237Y-103151D02*
D03*
X148617Y-103096D02*
D03*
X59300Y-134253D02*
D03*
X33316Y-72048D02*
D03*
X-104420Y-7521D02*
D03*
X-96606Y-40946D02*
D03*
X-31645Y-165355D02*
D03*
X-70621Y-103151D02*
D03*
X111268Y-40946D02*
D03*
X137253Y-103151D02*
D03*
X12795Y-115157D02*
D03*
X33316Y-134253D02*
D03*
X7331Y-72048D02*
D03*
X-142511Y-7521D02*
D03*
X-122590Y-40946D02*
D03*
X-70621Y-165355D02*
D03*
X-96606Y-103151D02*
D03*
Y-165355D02*
D03*
X7331Y-134253D02*
D03*
X111268Y-103151D02*
D03*
X-122590D02*
D03*
X-18653Y-72048D02*
D03*
X-148574Y-40946D02*
D03*
X85284D02*
D03*
D72*
X-55973Y8858D02*
Y50868D01*
D74*
X-185039Y-17717D02*
D03*
Y-161417D02*
D03*
X185039Y-17717D02*
D03*
Y-161417D02*
D03*
D75*
X-91457Y118110D02*
D03*
X-25000Y26654D02*
D03*
X-15000Y16654D02*
D03*
Y26654D02*
D03*
X-5000Y16654D02*
D03*
X-5000Y26654D02*
D03*
X15000D02*
D03*
X15000Y16654D02*
D03*
X5000Y26654D02*
D03*
Y16654D02*
D03*
X25000Y26654D02*
D03*
Y16654D02*
D03*
X115984Y196850D02*
D03*
X105984D02*
D03*
D76*
X-101457Y118110D02*
D03*
X-25000Y16654D02*
D03*
X125984Y196850D02*
D03*
D77*
X-160433Y59055D02*
D03*
D78*
X164730Y-190395D02*
D03*
X-164995Y3700D02*
D03*
D79*
X38942Y-94686D02*
D03*
X-39011D02*
D03*
M02*
