G04*
G04 #@! TF.GenerationSoftware,Altium Limited,Altium Designer,24.2.2 (26)*
G04*
G04 Layer_Physical_Order=1*
G04 Layer_Color=3394611*
%FSLAX25Y25*%
%MOIN*%
G70*
G04*
G04 #@! TF.SameCoordinates,414444BF-B964-4898-950E-571982E1B149*
G04*
G04*
G04 #@! TF.FilePolarity,Positive*
G04*
G01*
G75*
%ADD10C,0.01181*%
%ADD11C,0.00984*%
%ADD15C,0.00591*%
%ADD16C,0.00394*%
%ADD17R,0.05512X0.12205*%
%ADD18R,0.05906X0.13386*%
%ADD19R,0.04331X0.03937*%
%ADD20R,0.02055X0.02362*%
%ADD21C,0.01181*%
%ADD22R,0.02598X0.02638*%
%ADD23R,0.03937X0.05118*%
%ADD24R,0.03150X0.01772*%
%ADD25R,0.03937X0.04331*%
%ADD26R,0.03150X0.05906*%
%ADD27R,0.05906X0.07874*%
%ADD28R,0.07874X0.05906*%
%ADD29R,0.03937X0.05906*%
%ADD30R,0.02638X0.02598*%
%ADD31R,0.01772X0.03150*%
%ADD32O,0.01181X0.03543*%
%ADD33O,0.01181X0.03740*%
%ADD34O,0.03543X0.01181*%
%ADD35O,0.03740X0.01181*%
%ADD36R,0.04331X0.04331*%
%ADD37R,0.05906X0.05118*%
%ADD38C,0.03937*%
%ADD65C,0.02362*%
%ADD70C,0.03543*%
%ADD71C,0.00984*%
%ADD72C,0.01968*%
%ADD73C,0.03543*%
%ADD74C,0.09843*%
%ADD75C,0.05906*%
%ADD76R,0.05906X0.05906*%
%ADD77C,0.01968*%
%ADD78C,0.05000*%
%ADD79C,0.04724*%
G36*
X133339Y211595D02*
X134421Y211488D01*
X135488Y211276D01*
X136528Y210961D01*
X137533Y210544D01*
X138492Y210032D01*
X139396Y209428D01*
X140237Y208738D01*
X140621Y208353D01*
X158156Y190818D01*
X158156Y190818D01*
X158541Y190434D01*
X159231Y189593D01*
X159835Y188689D01*
X160348Y187730D01*
X160764Y186725D01*
X161079Y185685D01*
X161292Y184618D01*
X161398Y183536D01*
X161398Y182992D01*
Y181244D01*
X160020Y181081D01*
X159882Y181654D01*
X159162Y183395D01*
X158177Y185001D01*
X156962Y186424D01*
X156955Y186435D01*
X138206Y205183D01*
X138195Y205190D01*
X136773Y206406D01*
X135167Y207390D01*
X133426Y208111D01*
X131594Y208551D01*
X129729Y208697D01*
X129716Y208700D01*
X78945D01*
X78932Y208697D01*
X77067Y208551D01*
X75235Y208111D01*
X73495Y207390D01*
X71889Y206406D01*
X70466Y205190D01*
X70455Y205183D01*
X53675Y188403D01*
X53668Y188392D01*
X52453Y186970D01*
X51468Y185363D01*
X50747Y183623D01*
X50308Y181791D01*
X50161Y179926D01*
X50158Y179913D01*
Y57961D01*
X50177Y57870D01*
X50031Y56396D01*
X49575Y54892D01*
X48834Y53505D01*
X47895Y52361D01*
X47817Y52309D01*
X25976Y30468D01*
X25518Y30591D01*
X25275D01*
X9007Y46858D01*
X9020Y46871D01*
X8023Y47809D01*
X4823Y50822D01*
X395Y54512D01*
X-4247Y57928D01*
X-9087Y61057D01*
X-14108Y63889D01*
X-19290Y66412D01*
X-24615Y68618D01*
X-30064Y70498D01*
X-35616Y72046D01*
X-41251Y73255D01*
X-46949Y74123D01*
X-52690Y74644D01*
X-58451Y74818D01*
Y74800D01*
X-75735D01*
X-76114Y76021D01*
X-76114Y76021D01*
X-76114D01*
X-76114Y76021D01*
Y79080D01*
X-80067D01*
Y79580D01*
X-80567D01*
Y83139D01*
X-84020D01*
Y81367D01*
X-86456D01*
Y78202D01*
X-87456D01*
Y81367D01*
X-89925D01*
X-90552Y82486D01*
Y85433D01*
X-90552Y86418D01*
X-90552Y87796D01*
Y92975D01*
X-89518Y93430D01*
X-89330Y93488D01*
X-88393Y93488D01*
X-86721D01*
Y96456D01*
Y99425D01*
X-87280D01*
X-88583Y99606D01*
X-88583Y100803D01*
Y114961D01*
X-88059Y116122D01*
X-87788Y116591D01*
X-87520Y117592D01*
Y118629D01*
X-87788Y119630D01*
X-88306Y120528D01*
X-89039Y121261D01*
X-89937Y121779D01*
X-90938Y122047D01*
X-91975D01*
X-92976Y121779D01*
X-93874Y121261D01*
X-94607Y120528D01*
X-95125Y119630D01*
X-95394Y118629D01*
Y117592D01*
X-95207Y116896D01*
X-95793Y115769D01*
X-95999Y115515D01*
X-96245Y115471D01*
X-97520Y116505D01*
Y122047D01*
X-104188Y122047D01*
X-104346Y122047D01*
X-104535Y122061D01*
X-105474Y122365D01*
X-105697Y123248D01*
X-105709Y123422D01*
X-105709Y123598D01*
Y136614D01*
X-113189D01*
Y122441D01*
X-106914Y122441D01*
X-106757Y122441D01*
X-106567Y122428D01*
X-105629Y122123D01*
X-105405Y121240D01*
X-105394Y121067D01*
X-105394Y120890D01*
Y114173D01*
X-104331D01*
Y100803D01*
X-104331Y99606D01*
X-105634Y99426D01*
X-106193D01*
Y96457D01*
Y93489D01*
X-104521D01*
X-103584Y93489D01*
X-103395Y93430D01*
X-102363Y92974D01*
Y87796D01*
X-102363Y86418D01*
X-102363Y85433D01*
Y80118D01*
X-100303D01*
X-100028Y79738D01*
X-100513Y78057D01*
X-100668Y77994D01*
X-100763Y78058D01*
X-101378Y78180D01*
X-101992Y78058D01*
X-102513Y77710D01*
X-102861Y77189D01*
X-102984Y76575D01*
Y74440D01*
X-105118D01*
X-105733Y74318D01*
X-106254Y73970D01*
X-106602Y73449D01*
X-107118Y72899D01*
X-107607Y72670D01*
X-107971Y72602D01*
X-108327Y72775D01*
X-109016Y73304D01*
X-109414Y73469D01*
X-109414Y73469D01*
X-109414Y73469D01*
X-109416Y73470D01*
X-109417Y73470D01*
X-109817Y73636D01*
X-110678Y73749D01*
Y73746D01*
X-120573D01*
Y73751D01*
X-121823Y73628D01*
X-121894Y73607D01*
X-123024Y73264D01*
X-124132Y72672D01*
X-125102Y71876D01*
X-125899Y70905D01*
X-126490Y69798D01*
X-126833Y68667D01*
X-126855Y68596D01*
X-126978Y67347D01*
X-126972D01*
Y63903D01*
X-150256D01*
Y64764D01*
X-153476D01*
Y64780D01*
X-155004D01*
Y62599D01*
X-155504D01*
Y62098D01*
X-157531D01*
Y60760D01*
X-158282Y60403D01*
X-158853Y60281D01*
X-159309Y60737D01*
X-160038Y61039D01*
X-160828D01*
X-161557Y60737D01*
X-162016Y60279D01*
X-162140Y60404D01*
X-162541Y60570D01*
Y59055D01*
Y57541D01*
X-162140Y57707D01*
X-162016Y57832D01*
X-161557Y57373D01*
X-160828Y57071D01*
X-160038D01*
X-159309Y57373D01*
X-158815Y57867D01*
X-158428Y57783D01*
X-157516Y57366D01*
Y55450D01*
X-157978Y55095D01*
X-159120Y54622D01*
X-160433Y54466D01*
X-161538Y54320D01*
X-161724Y54243D01*
X-162567Y53894D01*
X-163452Y53215D01*
X-164130Y52331D01*
X-164479Y51487D01*
X-164556Y51302D01*
X-164702Y50197D01*
X-164690D01*
Y39528D01*
X-164700D01*
X-164561Y37758D01*
X-164146Y36031D01*
X-163467Y34391D01*
X-162539Y32877D01*
X-161386Y31527D01*
X-160036Y30374D01*
X-158522Y29446D01*
X-156882Y28767D01*
X-155156Y28352D01*
X-153386Y28213D01*
Y28223D01*
X-143532D01*
Y28209D01*
X-141964Y28364D01*
X-140455Y28821D01*
X-139066Y29564D01*
X-137847Y30564D01*
X-137847Y30564D01*
X-136848Y31479D01*
X-136012Y32212D01*
X-133959Y33584D01*
X-131745Y34676D01*
X-129407Y35469D01*
X-126986Y35951D01*
X-125870Y36024D01*
X-124522Y36097D01*
Y36097D01*
X-94465D01*
X-94341Y35960D01*
X-93863Y34719D01*
X-94468Y33932D01*
X-95033Y32567D01*
X-95174Y31496D01*
X-102067D01*
Y30944D01*
X-103564D01*
X-103626Y30932D01*
X-104871Y30809D01*
X-105850Y30512D01*
X-109046D01*
X-110417Y30528D01*
X-111410Y30528D01*
X-113082D01*
Y27559D01*
Y24591D01*
X-111410D01*
X-110417Y24591D01*
X-109046Y24607D01*
X-106691D01*
X-105925Y23978D01*
X-104754Y23352D01*
X-104804Y22468D01*
X-104997Y21974D01*
X-153338D01*
Y21990D01*
X-155417Y21826D01*
X-157445Y21339D01*
X-159371Y20541D01*
X-161149Y19452D01*
X-162735Y18098D01*
X-162724Y18086D01*
X-172624Y8186D01*
X-173609Y7223D01*
X-173609Y7223D01*
X-174964Y5637D01*
X-176053Y3859D01*
X-176851Y1933D01*
X-177338Y-95D01*
X-177502Y-2174D01*
X-177486D01*
Y-22433D01*
X-177474Y-22490D01*
X-177636Y-24132D01*
X-178132Y-25767D01*
X-178937Y-27273D01*
X-179984Y-28549D01*
X-180033Y-28581D01*
X-180498Y-29046D01*
X-181483Y-30010D01*
X-181483Y-30010D01*
X-182838Y-31595D01*
X-183927Y-33373D01*
X-184725Y-35300D01*
X-185212Y-37328D01*
X-185376Y-39406D01*
X-185360D01*
Y-123161D01*
X-185370D01*
X-185230Y-124931D01*
X-184816Y-126657D01*
X-184136Y-128298D01*
X-183209Y-129812D01*
X-182056Y-131161D01*
X-182049Y-131155D01*
X-179449Y-133754D01*
Y-136496D01*
X-174882D01*
Y-131890D01*
X-177623D01*
X-180204Y-129310D01*
X-180252Y-129277D01*
X-181299Y-128001D01*
X-182104Y-126495D01*
X-182600Y-124861D01*
X-182762Y-123218D01*
X-182750Y-123161D01*
Y-68743D01*
X-181418Y-68119D01*
X-180698Y-68556D01*
X-179710Y-69517D01*
X-179449Y-69778D01*
Y-72520D01*
X-174882D01*
X-174734Y-73836D01*
Y-113634D01*
X-174720Y-113700D01*
X-174877Y-115295D01*
X-175362Y-116892D01*
X-176149Y-118364D01*
X-177007Y-119409D01*
X-179449D01*
Y-124016D01*
X-174882D01*
Y-121532D01*
X-173915Y-120400D01*
X-172971Y-118860D01*
X-172280Y-117191D01*
X-171858Y-115434D01*
X-171716Y-113634D01*
X-171723D01*
Y-65815D01*
X-171716D01*
X-171858Y-64015D01*
X-172280Y-62258D01*
X-172971Y-60589D01*
X-173915Y-59049D01*
X-174882Y-57917D01*
Y-57582D01*
X-173124Y-55824D01*
X-173120Y-55829D01*
X-171947Y-54455D01*
X-171003Y-52915D01*
X-170311Y-51246D01*
X-169890Y-49489D01*
X-169748Y-47689D01*
X-169755D01*
Y-16937D01*
X-169768Y-16870D01*
X-169611Y-15276D01*
X-169126Y-13679D01*
X-168340Y-12207D01*
X-167323Y-10969D01*
X-167266Y-10931D01*
X-151471Y4865D01*
X-151433Y4922D01*
X-150195Y5938D01*
X-148723Y6725D01*
X-147125Y7209D01*
X-145531Y7366D01*
X-145464Y7353D01*
X-132745D01*
Y7346D01*
X-130944Y7488D01*
X-129187Y7910D01*
X-127518Y8601D01*
X-125978Y9545D01*
X-124604Y10718D01*
X-124604Y10718D01*
X-123549Y11496D01*
X-123526D01*
X-121769Y9738D01*
X-121774Y9734D01*
X-120400Y8561D01*
X-118860Y7617D01*
X-117191Y6926D01*
X-115434Y6504D01*
X-113633Y6362D01*
Y6369D01*
X-95678D01*
Y6362D01*
X-93877Y6504D01*
X-92120Y6926D01*
X-90451Y7617D01*
X-88911Y8561D01*
X-87537Y9734D01*
X-87537Y9734D01*
X-86521Y10606D01*
X-86245Y10832D01*
X-84773Y11619D01*
X-83176Y12104D01*
X-82778Y12143D01*
X-81595Y11672D01*
X-81430Y10423D01*
X-81408Y10370D01*
X-80949Y9260D01*
X-80182Y8261D01*
X-79183Y7495D01*
X-78074Y7035D01*
X-78020Y7013D01*
X-76772Y6848D01*
Y6851D01*
X-56786D01*
X-56403Y6693D01*
X-55542D01*
X-54965Y6932D01*
X-54095Y7001D01*
X-52263Y7440D01*
X-50522Y8161D01*
X-48916Y9146D01*
X-47493Y10361D01*
X-47483Y10368D01*
X-46555Y11296D01*
X-39910Y4651D01*
X-40481Y3273D01*
X-112984D01*
Y3283D01*
X-114754Y3144D01*
X-116480Y2729D01*
X-118121Y2050D01*
X-119634Y1122D01*
X-120984Y-31D01*
X-120977Y-38D01*
X-120977Y-38D01*
X-124609Y-3669D01*
X-124641Y-3718D01*
X-125917Y-4765D01*
X-127423Y-5570D01*
X-129058Y-6066D01*
X-130700Y-6227D01*
X-130757Y-6216D01*
X-140068D01*
X-140104Y-6131D01*
X-140104Y-6130D01*
X-140545Y-5555D01*
X-140673Y-5457D01*
X-140676Y-5461D01*
X-141720Y-4569D01*
X-143571Y-3435D01*
X-145577Y-2604D01*
X-147687Y-2097D01*
X-149851Y-1927D01*
X-152015Y-2097D01*
X-154126Y-2604D01*
X-156132Y-3435D01*
X-157983Y-4569D01*
X-158949Y-5394D01*
X-158952Y-5391D01*
X-159096Y-5501D01*
X-159537Y-6076D01*
X-159538Y-6077D01*
X-159816Y-6747D01*
X-159910Y-7467D01*
X-159816Y-8186D01*
X-159538Y-8856D01*
X-159096Y-9432D01*
X-158520Y-9874D01*
X-157850Y-10152D01*
X-157131Y-10246D01*
X-156411Y-10152D01*
X-155741Y-9874D01*
X-155309Y-9542D01*
X-155283Y-9572D01*
X-155276Y-9567D01*
X-155126Y-9590D01*
X-154761Y-10246D01*
X-154579Y-11066D01*
X-155076Y-11809D01*
X-155521Y-12884D01*
X-155604Y-13302D01*
X-160276D01*
Y-13291D01*
X-161715Y-13433D01*
X-163099Y-13853D01*
X-164375Y-14535D01*
X-165493Y-15452D01*
X-166410Y-16570D01*
X-167092Y-17846D01*
X-167512Y-19230D01*
X-167654Y-20669D01*
X-167643D01*
Y-45276D01*
X-167653D01*
X-167514Y-46329D01*
X-167418Y-46560D01*
X-167108Y-47311D01*
X-166461Y-48154D01*
X-165618Y-48801D01*
X-164867Y-49111D01*
X-164636Y-49207D01*
X-163583Y-49346D01*
Y-49336D01*
X-161667D01*
X-161584Y-49754D01*
X-161139Y-50829D01*
X-160659Y-51548D01*
X-160860Y-52430D01*
X-161208Y-53029D01*
X-161355Y-53053D01*
X-161384Y-53029D01*
X-161408Y-53056D01*
X-161856Y-52712D01*
X-162527Y-52434D01*
X-163246Y-52339D01*
X-163966Y-52434D01*
X-164636Y-52712D01*
X-165212Y-53154D01*
X-165654Y-53729D01*
X-165931Y-54400D01*
X-166026Y-55119D01*
X-165931Y-55839D01*
X-165654Y-56509D01*
X-165653Y-56510D01*
X-165212Y-57085D01*
X-165084Y-57183D01*
X-165081Y-57179D01*
X-164037Y-58071D01*
X-162186Y-59205D01*
X-160181Y-60036D01*
X-158070Y-60543D01*
X-155906Y-60713D01*
X-153742Y-60543D01*
X-151631Y-60036D01*
X-149625Y-59205D01*
X-147774Y-58071D01*
X-146808Y-57245D01*
X-146805Y-57249D01*
X-146661Y-57139D01*
X-146220Y-56564D01*
X-146219Y-56563D01*
X-145942Y-55893D01*
X-145847Y-55173D01*
X-145942Y-54454D01*
X-146219Y-53783D01*
X-146661Y-53208D01*
X-147237Y-52766D01*
X-147907Y-52488D01*
X-148627Y-52394D01*
X-149337Y-52487D01*
X-149346Y-52488D01*
X-149346Y-52488D01*
X-150016Y-52766D01*
X-150475Y-53068D01*
X-150617Y-53043D01*
X-150965Y-52424D01*
X-151156Y-51554D01*
X-150672Y-50829D01*
X-150227Y-49754D01*
X-150000Y-48613D01*
Y-47450D01*
X-150227Y-46309D01*
X-150672Y-45234D01*
X-151120Y-44564D01*
X-150884Y-43564D01*
X-150575Y-43062D01*
X-150436Y-43036D01*
X-149964Y-43353D01*
X-149293Y-43631D01*
X-148574Y-43725D01*
X-147855Y-43631D01*
X-147184Y-43353D01*
X-146608Y-42911D01*
X-146167Y-42336D01*
X-145889Y-41665D01*
X-145794Y-40946D01*
X-145889Y-40226D01*
X-146167Y-39556D01*
X-146167Y-39555D01*
X-146608Y-38980D01*
X-146736Y-38882D01*
X-146739Y-38886D01*
X-147783Y-37994D01*
X-149634Y-36860D01*
X-151639Y-36029D01*
X-153750Y-35522D01*
X-155914Y-35352D01*
X-158079Y-35522D01*
X-160189Y-36029D01*
X-162195Y-36860D01*
X-163656Y-37755D01*
X-164748Y-37306D01*
X-165034Y-37026D01*
Y-20669D01*
X-165044Y-20621D01*
X-164887Y-19434D01*
X-164410Y-18282D01*
X-163652Y-17293D01*
X-162663Y-16535D01*
X-161511Y-16058D01*
X-160324Y-15901D01*
X-160276Y-15911D01*
X-155604D01*
X-155521Y-16329D01*
X-155076Y-17404D01*
X-154595Y-18123D01*
X-154797Y-19005D01*
X-155145Y-19604D01*
X-155292Y-19627D01*
X-155321Y-19604D01*
X-155345Y-19631D01*
X-155793Y-19287D01*
X-156464Y-19009D01*
X-157183Y-18914D01*
X-157903Y-19009D01*
X-158573Y-19287D01*
X-159149Y-19728D01*
X-159590Y-20304D01*
X-159868Y-20975D01*
X-159963Y-21694D01*
X-159868Y-22413D01*
X-159590Y-23084D01*
X-159590Y-23084D01*
X-159149Y-23660D01*
X-159021Y-23757D01*
X-159018Y-23754D01*
X-157974Y-24646D01*
X-156123Y-25780D01*
X-154118Y-26611D01*
X-152007Y-27117D01*
X-149843Y-27288D01*
X-147679Y-27117D01*
X-145568Y-26611D01*
X-143562Y-25780D01*
X-141711Y-24646D01*
X-140745Y-23820D01*
X-140742Y-23824D01*
X-140598Y-23714D01*
X-140157Y-23138D01*
X-140156Y-23138D01*
X-139879Y-22467D01*
X-139784Y-21748D01*
X-139879Y-21029D01*
X-140156Y-20358D01*
X-140598Y-19782D01*
X-141174Y-19341D01*
X-141844Y-19063D01*
X-142564Y-18968D01*
X-143274Y-19062D01*
X-143283Y-19063D01*
X-143283Y-19063D01*
X-143954Y-19341D01*
X-144412Y-19643D01*
X-144554Y-19618D01*
X-144902Y-18999D01*
X-145093Y-18128D01*
X-144609Y-17404D01*
X-144164Y-16329D01*
X-144081Y-15911D01*
X-117514D01*
X-117430Y-16329D01*
X-116985Y-17404D01*
X-116505Y-18123D01*
X-116707Y-19005D01*
X-117054Y-19604D01*
X-117202Y-19627D01*
X-117231Y-19604D01*
X-117255Y-19631D01*
X-117703Y-19287D01*
X-118373Y-19009D01*
X-119093Y-18914D01*
X-119812Y-19009D01*
X-120483Y-19287D01*
X-121058Y-19728D01*
X-121500Y-20304D01*
X-121778Y-20975D01*
X-121872Y-21694D01*
X-121778Y-22413D01*
X-121500Y-23084D01*
X-121500Y-23084D01*
X-121058Y-23660D01*
X-120931Y-23757D01*
X-120928Y-23754D01*
X-119884Y-24646D01*
X-118033Y-25780D01*
X-116027Y-26611D01*
X-113916Y-27117D01*
X-111752Y-27288D01*
X-109588Y-27117D01*
X-107477Y-26611D01*
X-105472Y-25780D01*
X-103621Y-24646D01*
X-102655Y-23820D01*
X-102651Y-23824D01*
X-102508Y-23714D01*
X-102066Y-23138D01*
X-102066Y-23138D01*
X-101788Y-22467D01*
X-101693Y-21748D01*
X-101788Y-21029D01*
X-102066Y-20358D01*
X-102508Y-19782D01*
X-103083Y-19341D01*
X-103754Y-19063D01*
X-104473Y-18968D01*
X-105183Y-19062D01*
X-105193Y-19063D01*
X-105193Y-19063D01*
X-105863Y-19341D01*
X-106321Y-19643D01*
X-106464Y-19618D01*
X-106812Y-18999D01*
X-107003Y-18128D01*
X-106519Y-17404D01*
X-106073Y-16329D01*
X-105990Y-15911D01*
X-79423D01*
X-79340Y-16329D01*
X-78895Y-17404D01*
X-78414Y-18123D01*
X-78616Y-19005D01*
X-78964Y-19604D01*
X-79111Y-19627D01*
X-79140Y-19604D01*
X-79164Y-19631D01*
X-79612Y-19287D01*
X-80283Y-19009D01*
X-81002Y-18914D01*
X-81722Y-19009D01*
X-82392Y-19287D01*
X-82968Y-19728D01*
X-83409Y-20304D01*
X-83687Y-20975D01*
X-83782Y-21694D01*
X-83687Y-22413D01*
X-83409Y-23084D01*
X-83409Y-23084D01*
X-82968Y-23660D01*
X-82840Y-23757D01*
X-82837Y-23754D01*
X-81793Y-24646D01*
X-79942Y-25780D01*
X-77937Y-26611D01*
X-75826Y-27117D01*
X-73662Y-27288D01*
X-71498Y-27117D01*
X-69387Y-26611D01*
X-67381Y-25780D01*
X-65530Y-24646D01*
X-64564Y-23820D01*
X-64561Y-23824D01*
X-64417Y-23714D01*
X-63976Y-23138D01*
X-63975Y-23138D01*
X-63698Y-22467D01*
X-63603Y-21748D01*
X-63698Y-21029D01*
X-63975Y-20358D01*
X-64417Y-19782D01*
X-64993Y-19341D01*
X-65663Y-19063D01*
X-66383Y-18968D01*
X-67093Y-19062D01*
X-67102Y-19063D01*
X-67102Y-19063D01*
X-67772Y-19341D01*
X-68230Y-19643D01*
X-68373Y-19618D01*
X-68721Y-18999D01*
X-68912Y-18128D01*
X-68428Y-17404D01*
X-67983Y-16329D01*
X-67900Y-15911D01*
X-41333D01*
X-41249Y-16329D01*
X-40804Y-17404D01*
X-40324Y-18123D01*
X-40526Y-19005D01*
X-40873Y-19604D01*
X-41021Y-19627D01*
X-41050Y-19604D01*
X-41074Y-19631D01*
X-41522Y-19287D01*
X-42192Y-19009D01*
X-42912Y-18914D01*
X-43631Y-19009D01*
X-44301Y-19287D01*
X-44877Y-19728D01*
X-45319Y-20304D01*
X-45597Y-20975D01*
X-45691Y-21694D01*
X-45597Y-22413D01*
X-45319Y-23084D01*
X-45318Y-23084D01*
X-44877Y-23660D01*
X-44750Y-23757D01*
X-44747Y-23754D01*
X-43703Y-24646D01*
X-41852Y-25780D01*
X-39846Y-26611D01*
X-37735Y-27117D01*
X-35571Y-27288D01*
X-33407Y-27117D01*
X-31296Y-26611D01*
X-29291Y-25780D01*
X-27440Y-24646D01*
X-26473Y-23820D01*
X-26470Y-23824D01*
X-26327Y-23714D01*
X-25885Y-23138D01*
X-25885Y-23138D01*
X-25607Y-22467D01*
X-25512Y-21748D01*
X-25607Y-21029D01*
X-25885Y-20358D01*
X-26327Y-19782D01*
X-26902Y-19341D01*
X-27573Y-19063D01*
X-28292Y-18968D01*
X-29002Y-19062D01*
X-29011Y-19063D01*
X-29012Y-19063D01*
X-29682Y-19341D01*
X-30140Y-19643D01*
X-30282Y-19618D01*
X-30631Y-18999D01*
X-30822Y-18128D01*
X-30338Y-17404D01*
X-30140Y-16926D01*
X-28731Y-16361D01*
X-28495Y-16367D01*
X-27807Y-16652D01*
X-27682Y-16747D01*
X-26652Y-17587D01*
X-25393Y-18620D01*
X-23956Y-19388D01*
X-22398Y-19861D01*
X-20776Y-20020D01*
Y-20005D01*
X-10459D01*
X-9268Y-20457D01*
X-9268Y-21383D01*
Y-23909D01*
X-6299D01*
X-3331D01*
Y-21383D01*
X-3331Y-20457D01*
X-2140Y-20005D01*
X2162D01*
X3347Y-20472D01*
Y-28346D01*
X7604D01*
X9125Y-29159D01*
X10871Y-29689D01*
X12686Y-29868D01*
X12686Y-29868D01*
Y-29848D01*
X12686Y-29848D01*
X66005D01*
X66498Y-31226D01*
X66046Y-31597D01*
X65025Y-32841D01*
X64266Y-34260D01*
X63799Y-35800D01*
X63642Y-37402D01*
X63656D01*
Y-46727D01*
X57730D01*
X57647Y-46309D01*
X57202Y-45234D01*
X56754Y-44564D01*
X56990Y-43564D01*
X57299Y-43062D01*
X57438Y-43036D01*
X57910Y-43353D01*
X58580Y-43631D01*
X59300Y-43725D01*
X60019Y-43631D01*
X60690Y-43353D01*
X61265Y-42911D01*
X61707Y-42336D01*
X61985Y-41665D01*
X62080Y-40946D01*
X61985Y-40226D01*
X61707Y-39556D01*
X61707Y-39555D01*
X61265Y-38980D01*
X61138Y-38882D01*
X61135Y-38886D01*
X60091Y-37994D01*
X58240Y-36860D01*
X56235Y-36029D01*
X54124Y-35522D01*
X51960Y-35352D01*
X49795Y-35522D01*
X47685Y-36029D01*
X45679Y-36860D01*
X43828Y-37994D01*
X42862Y-38820D01*
X42859Y-38816D01*
X42715Y-38926D01*
X42274Y-39502D01*
X42273Y-39502D01*
X41995Y-40172D01*
X41901Y-40892D01*
X41995Y-41611D01*
X42273Y-42282D01*
X42715Y-42857D01*
X43291Y-43299D01*
X43961Y-43577D01*
X44680Y-43671D01*
X45400Y-43577D01*
X46070Y-43299D01*
X46502Y-42968D01*
X46528Y-42997D01*
X46535Y-42992D01*
X46685Y-43015D01*
X47050Y-43671D01*
X47232Y-44491D01*
X46735Y-45234D01*
X46290Y-46309D01*
X46207Y-46727D01*
X31746D01*
X31663Y-46309D01*
X31218Y-45234D01*
X30770Y-44564D01*
X31005Y-43564D01*
X31315Y-43062D01*
X31454Y-43036D01*
X31926Y-43353D01*
X32596Y-43631D01*
X33316Y-43725D01*
X34035Y-43631D01*
X34705Y-43353D01*
X35281Y-42911D01*
X35723Y-42336D01*
X36001Y-41665D01*
X36095Y-40946D01*
X36001Y-40226D01*
X35723Y-39556D01*
X35723Y-39555D01*
X35281Y-38980D01*
X35154Y-38882D01*
X35151Y-38886D01*
X34107Y-37994D01*
X32256Y-36860D01*
X30250Y-36029D01*
X28139Y-35522D01*
X25975Y-35352D01*
X23811Y-35522D01*
X21700Y-36029D01*
X19695Y-36860D01*
X17844Y-37994D01*
X16878Y-38820D01*
X16874Y-38816D01*
X16731Y-38926D01*
X16289Y-39502D01*
X16289Y-39502D01*
X16011Y-40172D01*
X15916Y-40892D01*
X16011Y-41611D01*
X16289Y-42282D01*
X16731Y-42857D01*
X17306Y-43299D01*
X17977Y-43577D01*
X18696Y-43671D01*
X19416Y-43577D01*
X20086Y-43299D01*
X20518Y-42968D01*
X20544Y-42997D01*
X20550Y-42992D01*
X20701Y-43015D01*
X21066Y-43671D01*
X21247Y-44491D01*
X20751Y-45234D01*
X20306Y-46309D01*
X20223Y-46727D01*
X5762D01*
X5679Y-46309D01*
X5233Y-45234D01*
X4786Y-44564D01*
X5021Y-43564D01*
X5331Y-43062D01*
X5470Y-43036D01*
X5942Y-43353D01*
X6612Y-43631D01*
X7331Y-43725D01*
X8051Y-43631D01*
X8721Y-43353D01*
X9297Y-42911D01*
X9739Y-42336D01*
X10016Y-41665D01*
X10111Y-40946D01*
X10016Y-40226D01*
X9739Y-39556D01*
X9738Y-39555D01*
X9297Y-38980D01*
X9170Y-38882D01*
X9166Y-38886D01*
X8123Y-37994D01*
X6272Y-36860D01*
X4266Y-36029D01*
X2155Y-35522D01*
X-9Y-35352D01*
X-2173Y-35522D01*
X-4284Y-36029D01*
X-6289Y-36860D01*
X-8140Y-37994D01*
X-9107Y-38820D01*
X-9110Y-38816D01*
X-9254Y-38926D01*
X-9695Y-39502D01*
X-9695Y-39502D01*
X-9973Y-40172D01*
X-10068Y-40892D01*
X-9973Y-41611D01*
X-9695Y-42282D01*
X-9254Y-42857D01*
X-8678Y-43299D01*
X-8008Y-43577D01*
X-7288Y-43671D01*
X-6569Y-43577D01*
X-5898Y-43299D01*
X-5466Y-42968D01*
X-5440Y-42997D01*
X-5434Y-42992D01*
X-5284Y-43015D01*
X-4918Y-43671D01*
X-4737Y-44491D01*
X-5233Y-45234D01*
X-5679Y-46309D01*
X-5762Y-46727D01*
X-20223D01*
X-20306Y-46309D01*
X-20751Y-45234D01*
X-21199Y-44564D01*
X-20963Y-43564D01*
X-20654Y-43062D01*
X-20515Y-43036D01*
X-20043Y-43353D01*
X-19372Y-43631D01*
X-18653Y-43725D01*
X-17933Y-43631D01*
X-17263Y-43353D01*
X-16687Y-42911D01*
X-16246Y-42336D01*
X-15968Y-41665D01*
X-15873Y-40946D01*
X-15968Y-40226D01*
X-16246Y-39556D01*
X-16246Y-39555D01*
X-16687Y-38980D01*
X-16815Y-38882D01*
X-16818Y-38886D01*
X-17862Y-37994D01*
X-19713Y-36860D01*
X-21718Y-36029D01*
X-23829Y-35522D01*
X-25993Y-35352D01*
X-28157Y-35522D01*
X-30268Y-36029D01*
X-32274Y-36860D01*
X-34125Y-37994D01*
X-35091Y-38820D01*
X-35094Y-38816D01*
X-35238Y-38926D01*
X-35679Y-39502D01*
X-35680Y-39502D01*
X-35957Y-40172D01*
X-36052Y-40892D01*
X-35957Y-41611D01*
X-35680Y-42282D01*
X-35238Y-42857D01*
X-34662Y-43299D01*
X-33992Y-43577D01*
X-33272Y-43671D01*
X-32553Y-43577D01*
X-31883Y-43299D01*
X-31451Y-42968D01*
X-31424Y-42997D01*
X-31418Y-42992D01*
X-31268Y-43015D01*
X-30903Y-43671D01*
X-30721Y-44491D01*
X-31218Y-45234D01*
X-31663Y-46309D01*
X-31746Y-46727D01*
X-46207D01*
X-46290Y-46309D01*
X-46735Y-45234D01*
X-47183Y-44564D01*
X-46947Y-43564D01*
X-46638Y-43062D01*
X-46499Y-43036D01*
X-46027Y-43353D01*
X-45357Y-43631D01*
X-44637Y-43725D01*
X-43918Y-43631D01*
X-43247Y-43353D01*
X-42671Y-42911D01*
X-42230Y-42336D01*
X-41952Y-41665D01*
X-41857Y-40946D01*
X-41952Y-40226D01*
X-42230Y-39556D01*
X-42230Y-39555D01*
X-42671Y-38980D01*
X-42799Y-38882D01*
X-42802Y-38886D01*
X-43846Y-37994D01*
X-45697Y-36860D01*
X-47702Y-36029D01*
X-49813Y-35522D01*
X-51977Y-35352D01*
X-54141Y-35522D01*
X-56252Y-36029D01*
X-58258Y-36860D01*
X-60109Y-37994D01*
X-61075Y-38820D01*
X-61078Y-38816D01*
X-61222Y-38926D01*
X-61664Y-39502D01*
X-61664Y-39502D01*
X-61941Y-40172D01*
X-62036Y-40892D01*
X-61941Y-41611D01*
X-61664Y-42282D01*
X-61222Y-42857D01*
X-60646Y-43299D01*
X-59976Y-43577D01*
X-59257Y-43671D01*
X-58537Y-43577D01*
X-57867Y-43299D01*
X-57435Y-42968D01*
X-57409Y-42997D01*
X-57402Y-42992D01*
X-57252Y-43015D01*
X-56887Y-43671D01*
X-56705Y-44491D01*
X-57202Y-45234D01*
X-57647Y-46309D01*
X-57730Y-46727D01*
X-72191D01*
X-72274Y-46309D01*
X-72719Y-45234D01*
X-73167Y-44564D01*
X-72932Y-43564D01*
X-72622Y-43062D01*
X-72483Y-43036D01*
X-72011Y-43353D01*
X-71341Y-43631D01*
X-70621Y-43725D01*
X-69902Y-43631D01*
X-69231Y-43353D01*
X-68656Y-42911D01*
X-68214Y-42336D01*
X-67936Y-41665D01*
X-67842Y-40946D01*
X-67936Y-40226D01*
X-68214Y-39556D01*
X-68214Y-39555D01*
X-68656Y-38980D01*
X-68783Y-38882D01*
X-68786Y-38886D01*
X-69830Y-37994D01*
X-71681Y-36860D01*
X-73687Y-36029D01*
X-75797Y-35522D01*
X-77962Y-35352D01*
X-80126Y-35522D01*
X-82237Y-36029D01*
X-84242Y-36860D01*
X-86093Y-37994D01*
X-87059Y-38820D01*
X-87063Y-38816D01*
X-87206Y-38926D01*
X-87648Y-39502D01*
X-87648Y-39502D01*
X-87926Y-40172D01*
X-88020Y-40892D01*
X-87926Y-41611D01*
X-87648Y-42282D01*
X-87206Y-42857D01*
X-86631Y-43299D01*
X-85960Y-43577D01*
X-85241Y-43671D01*
X-84521Y-43577D01*
X-83851Y-43299D01*
X-83419Y-42968D01*
X-83393Y-42997D01*
X-83387Y-42992D01*
X-83236Y-43015D01*
X-82871Y-43671D01*
X-82690Y-44491D01*
X-83186Y-45234D01*
X-83631Y-46309D01*
X-83714Y-46727D01*
X-98175D01*
X-98259Y-46309D01*
X-98704Y-45234D01*
X-99151Y-44564D01*
X-98916Y-43564D01*
X-98606Y-43062D01*
X-98467Y-43036D01*
X-97995Y-43353D01*
X-97325Y-43631D01*
X-96606Y-43725D01*
X-95886Y-43631D01*
X-95216Y-43353D01*
X-94640Y-42911D01*
X-94198Y-42336D01*
X-93921Y-41665D01*
X-93826Y-40946D01*
X-93921Y-40226D01*
X-94198Y-39556D01*
X-94199Y-39555D01*
X-94640Y-38980D01*
X-94767Y-38882D01*
X-94770Y-38886D01*
X-95815Y-37994D01*
X-97665Y-36860D01*
X-99671Y-36029D01*
X-101782Y-35522D01*
X-103946Y-35352D01*
X-106110Y-35522D01*
X-108221Y-36029D01*
X-110226Y-36860D01*
X-112077Y-37994D01*
X-113044Y-38820D01*
X-113047Y-38816D01*
X-113191Y-38926D01*
X-113632Y-39502D01*
X-113632Y-39502D01*
X-113910Y-40172D01*
X-114005Y-40892D01*
X-113910Y-41611D01*
X-113632Y-42282D01*
X-113191Y-42857D01*
X-112615Y-43299D01*
X-111944Y-43577D01*
X-111225Y-43671D01*
X-110506Y-43577D01*
X-109835Y-43299D01*
X-109403Y-42968D01*
X-109377Y-42997D01*
X-109371Y-42992D01*
X-109221Y-43015D01*
X-108855Y-43671D01*
X-108674Y-44491D01*
X-109170Y-45234D01*
X-109616Y-46309D01*
X-109699Y-46727D01*
X-124160D01*
X-124243Y-46309D01*
X-124688Y-45234D01*
X-125136Y-44564D01*
X-124900Y-43564D01*
X-124591Y-43062D01*
X-124452Y-43036D01*
X-123980Y-43353D01*
X-123309Y-43631D01*
X-122590Y-43725D01*
X-121870Y-43631D01*
X-121200Y-43353D01*
X-120624Y-42911D01*
X-120183Y-42336D01*
X-119905Y-41665D01*
X-119810Y-40946D01*
X-119905Y-40226D01*
X-120183Y-39556D01*
X-120183Y-39555D01*
X-120624Y-38980D01*
X-120752Y-38882D01*
X-120755Y-38886D01*
X-121799Y-37994D01*
X-123650Y-36860D01*
X-125655Y-36029D01*
X-127766Y-35522D01*
X-129930Y-35352D01*
X-132094Y-35522D01*
X-134205Y-36029D01*
X-136211Y-36860D01*
X-138062Y-37994D01*
X-139028Y-38820D01*
X-139031Y-38816D01*
X-139175Y-38926D01*
X-139616Y-39502D01*
X-139617Y-39502D01*
X-139894Y-40172D01*
X-139989Y-40892D01*
X-139894Y-41611D01*
X-139617Y-42282D01*
X-139175Y-42857D01*
X-138599Y-43299D01*
X-137929Y-43577D01*
X-137209Y-43671D01*
X-136490Y-43577D01*
X-135819Y-43299D01*
X-135388Y-42968D01*
X-135362Y-42997D01*
X-135355Y-42992D01*
X-135205Y-43015D01*
X-134840Y-43671D01*
X-134658Y-44491D01*
X-135155Y-45234D01*
X-135600Y-46309D01*
X-135827Y-47450D01*
Y-48613D01*
X-135600Y-49754D01*
X-135155Y-50829D01*
X-134674Y-51548D01*
X-134876Y-52430D01*
X-135224Y-53029D01*
X-135371Y-53053D01*
X-135400Y-53029D01*
X-135424Y-53056D01*
X-135872Y-52712D01*
X-136542Y-52434D01*
X-137262Y-52339D01*
X-137981Y-52434D01*
X-138652Y-52712D01*
X-139227Y-53154D01*
X-139669Y-53729D01*
X-139947Y-54400D01*
X-140042Y-55119D01*
X-139947Y-55839D01*
X-139669Y-56509D01*
X-139669Y-56510D01*
X-139227Y-57085D01*
X-139100Y-57183D01*
X-139097Y-57179D01*
X-138053Y-58071D01*
X-136202Y-59205D01*
X-134197Y-60036D01*
X-132086Y-60543D01*
X-129922Y-60713D01*
X-127758Y-60543D01*
X-125647Y-60036D01*
X-123641Y-59205D01*
X-121790Y-58071D01*
X-120824Y-57245D01*
X-120821Y-57249D01*
X-120677Y-57139D01*
X-120236Y-56564D01*
X-120235Y-56563D01*
X-119957Y-55893D01*
X-119863Y-55173D01*
X-119957Y-54454D01*
X-120235Y-53783D01*
X-120677Y-53208D01*
X-121253Y-52766D01*
X-121923Y-52488D01*
X-122642Y-52394D01*
X-123353Y-52487D01*
X-123362Y-52488D01*
X-123362Y-52488D01*
X-124032Y-52766D01*
X-124490Y-53068D01*
X-124633Y-53043D01*
X-124981Y-52424D01*
X-125172Y-51554D01*
X-124688Y-50829D01*
X-124243Y-49754D01*
X-124160Y-49336D01*
X-109699D01*
X-109616Y-49754D01*
X-109170Y-50829D01*
X-108690Y-51548D01*
X-108892Y-52430D01*
X-109239Y-53029D01*
X-109387Y-53053D01*
X-109416Y-53029D01*
X-109440Y-53056D01*
X-109888Y-52712D01*
X-110558Y-52434D01*
X-111278Y-52339D01*
X-111997Y-52434D01*
X-112668Y-52712D01*
X-113243Y-53154D01*
X-113685Y-53729D01*
X-113963Y-54400D01*
X-114057Y-55119D01*
X-113963Y-55839D01*
X-113685Y-56509D01*
X-113685Y-56510D01*
X-113243Y-57085D01*
X-113116Y-57183D01*
X-113113Y-57179D01*
X-112069Y-58071D01*
X-110218Y-59205D01*
X-108212Y-60036D01*
X-107072Y-60310D01*
X-107235Y-61687D01*
X-120832D01*
X-121363Y-61156D01*
X-122159Y-60827D01*
X-123021D01*
X-123816Y-61156D01*
X-124425Y-61766D01*
X-124755Y-62561D01*
Y-63423D01*
X-125742Y-64640D01*
X-159244D01*
Y-64631D01*
X-161014Y-64770D01*
X-162740Y-65184D01*
X-164380Y-65864D01*
X-165894Y-66791D01*
X-167244Y-67944D01*
X-167247Y-67941D01*
X-168257Y-69172D01*
X-169008Y-70576D01*
X-169470Y-72099D01*
X-169626Y-73684D01*
X-169612D01*
Y-93841D01*
X-169622D01*
X-169482Y-95611D01*
X-169068Y-97337D01*
X-168388Y-98978D01*
X-167461Y-100491D01*
X-166308Y-101841D01*
X-165971Y-103080D01*
X-165973Y-103096D01*
X-165879Y-103816D01*
X-165601Y-104486D01*
X-165159Y-105062D01*
X-164583Y-105504D01*
X-163913Y-105781D01*
X-163194Y-105876D01*
X-162474Y-105781D01*
X-161804Y-105504D01*
X-161372Y-105172D01*
X-161346Y-105202D01*
X-161339Y-105197D01*
X-161189Y-105219D01*
X-160824Y-105876D01*
X-160643Y-106696D01*
X-161139Y-107439D01*
X-161584Y-108514D01*
X-161811Y-109655D01*
Y-110818D01*
X-161584Y-111959D01*
X-161139Y-113033D01*
X-160659Y-113752D01*
X-160860Y-114635D01*
X-161208Y-115234D01*
X-161355Y-115257D01*
X-161384Y-115234D01*
X-161408Y-115261D01*
X-161856Y-114917D01*
X-162527Y-114639D01*
X-163246Y-114544D01*
X-163966Y-114639D01*
X-164636Y-114917D01*
X-165212Y-115358D01*
X-165654Y-115934D01*
X-165931Y-116604D01*
X-166026Y-117324D01*
X-165931Y-118043D01*
X-165654Y-118714D01*
X-165653Y-118714D01*
X-165212Y-119289D01*
X-165084Y-119387D01*
X-165081Y-119384D01*
X-164037Y-120276D01*
X-162186Y-121410D01*
X-160181Y-122241D01*
X-158070Y-122747D01*
X-155906Y-122918D01*
X-153742Y-122747D01*
X-151631Y-122241D01*
X-149625Y-121410D01*
X-147774Y-120276D01*
X-146808Y-119450D01*
X-146805Y-119454D01*
X-146661Y-119343D01*
X-146220Y-118768D01*
X-146219Y-118768D01*
X-145942Y-118097D01*
X-145847Y-117378D01*
X-145942Y-116658D01*
X-146219Y-115988D01*
X-146661Y-115412D01*
X-147237Y-114971D01*
X-147907Y-114693D01*
X-148627Y-114598D01*
X-149337Y-114692D01*
X-149346Y-114693D01*
X-149346Y-114693D01*
X-150016Y-114971D01*
X-150475Y-115272D01*
X-150617Y-115248D01*
X-150965Y-114629D01*
X-151156Y-113758D01*
X-150672Y-113033D01*
X-150227Y-111959D01*
X-150144Y-111541D01*
X-135683D01*
X-135600Y-111959D01*
X-135155Y-113033D01*
X-134674Y-113752D01*
X-134876Y-114635D01*
X-135224Y-115234D01*
X-135371Y-115257D01*
X-135400Y-115234D01*
X-135424Y-115261D01*
X-135872Y-114917D01*
X-136542Y-114639D01*
X-137262Y-114544D01*
X-137981Y-114639D01*
X-138652Y-114917D01*
X-139227Y-115358D01*
X-139669Y-115934D01*
X-139947Y-116604D01*
X-140042Y-117324D01*
X-139947Y-118043D01*
X-139669Y-118714D01*
X-139669Y-118714D01*
X-139227Y-119289D01*
X-139100Y-119387D01*
X-139097Y-119384D01*
X-138053Y-120276D01*
X-136202Y-121410D01*
X-134197Y-122241D01*
X-132086Y-122747D01*
X-129922Y-122918D01*
X-127758Y-122747D01*
X-125647Y-122241D01*
X-123641Y-121410D01*
X-121790Y-120276D01*
X-120824Y-119450D01*
X-120821Y-119454D01*
X-120677Y-119343D01*
X-120236Y-118768D01*
X-120235Y-118768D01*
X-119957Y-118097D01*
X-119863Y-117378D01*
X-119957Y-116658D01*
X-120235Y-115988D01*
X-120677Y-115412D01*
X-121253Y-114971D01*
X-121923Y-114693D01*
X-122642Y-114598D01*
X-123353Y-114692D01*
X-123362Y-114693D01*
X-123362Y-114693D01*
X-124032Y-114971D01*
X-124490Y-115272D01*
X-124633Y-115248D01*
X-124981Y-114629D01*
X-125172Y-113758D01*
X-124688Y-113033D01*
X-124243Y-111959D01*
X-124160Y-111541D01*
X-121307D01*
Y-111548D01*
X-120324Y-111419D01*
X-120030Y-111297D01*
X-119407Y-111039D01*
X-118132Y-111798D01*
Y-118796D01*
X-118130Y-118808D01*
X-118242Y-119945D01*
X-118577Y-121049D01*
X-119121Y-122067D01*
X-119853Y-122959D01*
X-120745Y-123691D01*
X-121763Y-124235D01*
X-122867Y-124570D01*
X-124004Y-124682D01*
X-124016Y-124680D01*
X-136163D01*
Y-124670D01*
X-137933Y-124809D01*
X-139660Y-125224D01*
X-141300Y-125903D01*
X-142814Y-126831D01*
X-144164Y-127984D01*
X-144157Y-127991D01*
X-147613Y-131447D01*
X-147783Y-131301D01*
X-149634Y-130167D01*
X-151639Y-129336D01*
X-153750Y-128829D01*
X-155914Y-128659D01*
X-158079Y-128829D01*
X-160189Y-129336D01*
X-162195Y-130167D01*
X-164046Y-131301D01*
X-165012Y-132126D01*
X-165015Y-132123D01*
X-165159Y-132233D01*
X-165601Y-132809D01*
X-165601Y-132809D01*
X-165879Y-133479D01*
X-165973Y-134199D01*
X-165879Y-134918D01*
X-165601Y-135589D01*
X-165159Y-136164D01*
X-164583Y-136606D01*
X-163913Y-136884D01*
X-163194Y-136978D01*
X-162474Y-136884D01*
X-161804Y-136606D01*
X-161372Y-136275D01*
X-161346Y-136304D01*
X-161339Y-136299D01*
X-161189Y-136322D01*
X-160824Y-136978D01*
X-160643Y-137798D01*
X-161139Y-138541D01*
X-161584Y-139616D01*
X-161811Y-140757D01*
Y-141920D01*
X-161584Y-143061D01*
X-161139Y-144136D01*
X-160659Y-144855D01*
X-160860Y-145737D01*
X-161208Y-146336D01*
X-161355Y-146360D01*
X-161384Y-146336D01*
X-161408Y-146363D01*
X-161856Y-146019D01*
X-162527Y-145741D01*
X-163246Y-145647D01*
X-163966Y-145741D01*
X-164636Y-146019D01*
X-165212Y-146461D01*
X-165654Y-147036D01*
X-165931Y-147707D01*
X-166026Y-148426D01*
X-165931Y-149146D01*
X-165654Y-149816D01*
X-165653Y-149817D01*
X-165212Y-150392D01*
X-165084Y-150490D01*
X-165081Y-150486D01*
X-164037Y-151378D01*
X-162186Y-152512D01*
X-160181Y-153343D01*
X-158070Y-153850D01*
X-155906Y-154020D01*
X-153742Y-153850D01*
X-151631Y-153343D01*
X-149625Y-152512D01*
X-147774Y-151378D01*
X-146808Y-150553D01*
X-146805Y-150556D01*
X-146661Y-150446D01*
X-146220Y-149871D01*
X-146219Y-149870D01*
X-145942Y-149200D01*
X-145847Y-148480D01*
X-145942Y-147761D01*
X-146219Y-147090D01*
X-146661Y-146515D01*
X-147237Y-146073D01*
X-147907Y-145795D01*
X-148627Y-145701D01*
X-149337Y-145794D01*
X-149346Y-145795D01*
X-149346Y-145795D01*
X-150016Y-146073D01*
X-150475Y-146375D01*
X-150617Y-146351D01*
X-150965Y-145731D01*
X-151156Y-144861D01*
X-150672Y-144136D01*
X-150227Y-143061D01*
X-150144Y-142643D01*
X-135683D01*
X-135600Y-143061D01*
X-135155Y-144136D01*
X-134674Y-144855D01*
X-134876Y-145737D01*
X-135224Y-146336D01*
X-135371Y-146360D01*
X-135400Y-146336D01*
X-135424Y-146363D01*
X-135872Y-146019D01*
X-136542Y-145741D01*
X-137262Y-145647D01*
X-137981Y-145741D01*
X-138652Y-146019D01*
X-139227Y-146461D01*
X-139669Y-147036D01*
X-139947Y-147707D01*
X-140042Y-148426D01*
X-139947Y-149146D01*
X-139669Y-149816D01*
X-139669Y-149817D01*
X-139227Y-150392D01*
X-139100Y-150490D01*
X-139097Y-150486D01*
X-138053Y-151378D01*
X-136202Y-152512D01*
X-134197Y-153343D01*
X-132086Y-153850D01*
X-129922Y-154020D01*
X-127758Y-153850D01*
X-125647Y-153343D01*
X-123641Y-152512D01*
X-121790Y-151378D01*
X-120824Y-150553D01*
X-120821Y-150556D01*
X-120677Y-150446D01*
X-120236Y-149871D01*
X-120235Y-149870D01*
X-119957Y-149200D01*
X-119863Y-148480D01*
X-119957Y-147761D01*
X-120235Y-147090D01*
X-120677Y-146515D01*
X-121253Y-146073D01*
X-121923Y-145795D01*
X-122642Y-145701D01*
X-123353Y-145794D01*
X-123362Y-145795D01*
X-123362Y-145795D01*
X-124032Y-146073D01*
X-124490Y-146375D01*
X-124633Y-146351D01*
X-124981Y-145731D01*
X-125172Y-144861D01*
X-124688Y-144136D01*
X-124243Y-143061D01*
X-124160Y-142643D01*
X-109699D01*
X-109616Y-143061D01*
X-109170Y-144136D01*
X-108690Y-144855D01*
X-108892Y-145737D01*
X-109239Y-146336D01*
X-109387Y-146360D01*
X-109416Y-146336D01*
X-109440Y-146363D01*
X-109888Y-146019D01*
X-110558Y-145741D01*
X-111278Y-145647D01*
X-111997Y-145741D01*
X-112668Y-146019D01*
X-113243Y-146461D01*
X-113685Y-147036D01*
X-113963Y-147707D01*
X-114057Y-148426D01*
X-113963Y-149146D01*
X-113685Y-149816D01*
X-113685Y-149817D01*
X-113243Y-150392D01*
X-113116Y-150490D01*
X-113113Y-150486D01*
X-112069Y-151378D01*
X-110218Y-152512D01*
X-108212Y-153343D01*
X-106102Y-153850D01*
X-103937Y-154020D01*
X-101773Y-153850D01*
X-99662Y-153343D01*
X-97657Y-152512D01*
X-95806Y-151378D01*
X-94840Y-150553D01*
X-94836Y-150556D01*
X-94693Y-150446D01*
X-94251Y-149871D01*
X-94251Y-149870D01*
X-93973Y-149200D01*
X-93879Y-148480D01*
X-93973Y-147761D01*
X-94251Y-147090D01*
X-94693Y-146515D01*
X-95268Y-146073D01*
X-95939Y-145795D01*
X-96658Y-145701D01*
X-97369Y-145794D01*
X-97378Y-145795D01*
X-97378Y-145795D01*
X-98048Y-146073D01*
X-98506Y-146375D01*
X-98649Y-146351D01*
X-98997Y-145731D01*
X-99188Y-144861D01*
X-98704Y-144136D01*
X-98259Y-143061D01*
X-98175Y-142643D01*
X-83714D01*
X-83631Y-143061D01*
X-83186Y-144136D01*
X-82706Y-144855D01*
X-82908Y-145737D01*
X-83255Y-146336D01*
X-83403Y-146360D01*
X-83432Y-146336D01*
X-83455Y-146363D01*
X-83904Y-146019D01*
X-84574Y-145741D01*
X-85294Y-145647D01*
X-86013Y-145741D01*
X-86683Y-146019D01*
X-87259Y-146461D01*
X-87701Y-147036D01*
X-87978Y-147707D01*
X-88073Y-148426D01*
X-87978Y-149146D01*
X-87701Y-149816D01*
X-87700Y-149817D01*
X-87259Y-150392D01*
X-87132Y-150490D01*
X-87129Y-150486D01*
X-86085Y-151378D01*
X-84234Y-152512D01*
X-82228Y-153343D01*
X-80117Y-153850D01*
X-77953Y-154020D01*
X-75789Y-153850D01*
X-73678Y-153343D01*
X-71673Y-152512D01*
X-69822Y-151378D01*
X-68855Y-150553D01*
X-68852Y-150556D01*
X-68708Y-150446D01*
X-68267Y-149871D01*
X-68267Y-149870D01*
X-67989Y-149200D01*
X-67894Y-148480D01*
X-67989Y-147761D01*
X-68267Y-147090D01*
X-68708Y-146515D01*
X-69284Y-146073D01*
X-69955Y-145795D01*
X-70674Y-145701D01*
X-71384Y-145794D01*
X-71393Y-145795D01*
X-71394Y-145795D01*
X-72064Y-146073D01*
X-72522Y-146375D01*
X-72664Y-146351D01*
X-73013Y-145731D01*
X-73204Y-144861D01*
X-72719Y-144136D01*
X-72274Y-143061D01*
X-72191Y-142643D01*
X-57730D01*
X-57647Y-143061D01*
X-57202Y-144136D01*
X-56722Y-144855D01*
X-56923Y-145737D01*
X-57271Y-146336D01*
X-57419Y-146360D01*
X-57447Y-146336D01*
X-57471Y-146363D01*
X-57919Y-146019D01*
X-58590Y-145741D01*
X-59309Y-145647D01*
X-60029Y-145741D01*
X-60699Y-146019D01*
X-61275Y-146461D01*
X-61717Y-147036D01*
X-61994Y-147707D01*
X-62089Y-148426D01*
X-61994Y-149146D01*
X-61717Y-149816D01*
X-61716Y-149817D01*
X-61275Y-150392D01*
X-61147Y-150490D01*
X-61144Y-150486D01*
X-60100Y-151378D01*
X-58249Y-152512D01*
X-56244Y-153343D01*
X-54133Y-153850D01*
X-51969Y-154020D01*
X-49805Y-153850D01*
X-47694Y-153343D01*
X-45688Y-152512D01*
X-43837Y-151378D01*
X-42871Y-150553D01*
X-42868Y-150556D01*
X-42724Y-150446D01*
X-42283Y-149871D01*
X-42282Y-149870D01*
X-42005Y-149200D01*
X-41910Y-148480D01*
X-42005Y-147761D01*
X-42282Y-147090D01*
X-42724Y-146515D01*
X-43300Y-146073D01*
X-43970Y-145795D01*
X-44690Y-145701D01*
X-45400Y-145794D01*
X-45409Y-145795D01*
X-45409Y-145795D01*
X-46079Y-146073D01*
X-46538Y-146375D01*
X-46680Y-146351D01*
X-47028Y-145731D01*
X-47219Y-144861D01*
X-46735Y-144136D01*
X-46290Y-143061D01*
X-46207Y-142643D01*
X-31746D01*
X-31663Y-143061D01*
X-31218Y-144136D01*
X-30737Y-144855D01*
X-30939Y-145737D01*
X-31287Y-146336D01*
X-31434Y-146360D01*
X-31463Y-146336D01*
X-31487Y-146363D01*
X-31935Y-146019D01*
X-32605Y-145741D01*
X-33325Y-145647D01*
X-34044Y-145741D01*
X-34715Y-146019D01*
X-35291Y-146461D01*
X-35732Y-147036D01*
X-36010Y-147707D01*
X-36105Y-148426D01*
X-36010Y-149146D01*
X-35732Y-149816D01*
X-35732Y-149817D01*
X-35291Y-150392D01*
X-35163Y-150490D01*
X-35160Y-150486D01*
X-34116Y-151378D01*
X-32265Y-152512D01*
X-30260Y-153343D01*
X-28149Y-153850D01*
X-25985Y-154020D01*
X-23821Y-153850D01*
X-21710Y-153343D01*
X-19704Y-152512D01*
X-17853Y-151378D01*
X-16887Y-150553D01*
X-16884Y-150556D01*
X-16740Y-150446D01*
X-16298Y-149871D01*
X-16298Y-149870D01*
X-16021Y-149200D01*
X-15926Y-148480D01*
X-16021Y-147761D01*
X-16298Y-147090D01*
X-16740Y-146515D01*
X-17316Y-146073D01*
X-17986Y-145795D01*
X-18705Y-145701D01*
X-19416Y-145794D01*
X-19425Y-145795D01*
X-19425Y-145795D01*
X-20095Y-146073D01*
X-20553Y-146375D01*
X-20696Y-146351D01*
X-21044Y-145731D01*
X-21235Y-144861D01*
X-20751Y-144136D01*
X-20306Y-143061D01*
X-20223Y-142643D01*
X-5762D01*
X-5679Y-143061D01*
X-5233Y-144136D01*
X-4753Y-144855D01*
X-4955Y-145737D01*
X-5302Y-146336D01*
X-5450Y-146360D01*
X-5479Y-146336D01*
X-5503Y-146363D01*
X-5951Y-146019D01*
X-6621Y-145741D01*
X-7341Y-145647D01*
X-8060Y-145741D01*
X-8731Y-146019D01*
X-9306Y-146461D01*
X-9748Y-147036D01*
X-10026Y-147707D01*
X-10120Y-148426D01*
X-10026Y-149146D01*
X-9748Y-149816D01*
X-9748Y-149817D01*
X-9306Y-150392D01*
X-9179Y-150490D01*
X-9176Y-150486D01*
X-8132Y-151378D01*
X-6281Y-152512D01*
X-4275Y-153343D01*
X-2165Y-153850D01*
X-0Y-154020D01*
X2164Y-153850D01*
X4275Y-153343D01*
X6280Y-152512D01*
X8131Y-151378D01*
X9098Y-150553D01*
X9101Y-150556D01*
X9244Y-150446D01*
X9686Y-149871D01*
X9686Y-149870D01*
X9964Y-149200D01*
X10058Y-148480D01*
X9964Y-147761D01*
X9686Y-147090D01*
X9244Y-146515D01*
X8669Y-146073D01*
X7998Y-145795D01*
X7279Y-145701D01*
X6568Y-145794D01*
X6559Y-145795D01*
X6559Y-145795D01*
X5889Y-146073D01*
X5431Y-146375D01*
X5288Y-146351D01*
X4940Y-145731D01*
X4749Y-144861D01*
X5233Y-144136D01*
X5679Y-143061D01*
X5762Y-142643D01*
X7563D01*
Y-142660D01*
X8829Y-142493D01*
X8872Y-142475D01*
X10008Y-142005D01*
X11020Y-141228D01*
X11797Y-140215D01*
X12268Y-139079D01*
X12286Y-139036D01*
X12452Y-137771D01*
X12436D01*
Y-130601D01*
X12434Y-130591D01*
X12545Y-129743D01*
X12876Y-128943D01*
X13403Y-128257D01*
X14090Y-127730D01*
X14890Y-127398D01*
X15738Y-127287D01*
X15748Y-127289D01*
X25824D01*
X25878Y-128667D01*
X23811Y-128829D01*
X21700Y-129336D01*
X19695Y-130167D01*
X17844Y-131301D01*
X16878Y-132126D01*
X16874Y-132123D01*
X16731Y-132233D01*
X16289Y-132809D01*
X16289Y-132809D01*
X16011Y-133479D01*
X15916Y-134199D01*
X16011Y-134918D01*
X16289Y-135589D01*
X16731Y-136164D01*
X17306Y-136606D01*
X17977Y-136884D01*
X18696Y-136978D01*
X19416Y-136884D01*
X20086Y-136606D01*
X20518Y-136275D01*
X20544Y-136304D01*
X20550Y-136299D01*
X20701Y-136322D01*
X21066Y-136978D01*
X21247Y-137798D01*
X20751Y-138541D01*
X20306Y-139616D01*
X20223Y-140034D01*
X16142D01*
Y-140019D01*
X14934Y-140178D01*
X14840Y-140217D01*
X13809Y-140644D01*
X12842Y-141386D01*
X12101Y-142352D01*
X11674Y-143383D01*
X11635Y-143477D01*
X11476Y-144685D01*
X11491D01*
Y-153543D01*
X11488D01*
X11399Y-154224D01*
X11136Y-154858D01*
X10718Y-155403D01*
X10173Y-155821D01*
X9539Y-156084D01*
X8858Y-156173D01*
Y-156176D01*
X-84652D01*
Y-156161D01*
X-86252Y-156319D01*
X-87791Y-156786D01*
X-89209Y-157544D01*
X-90452Y-158564D01*
X-91472Y-159807D01*
X-92230Y-161225D01*
X-92697Y-162764D01*
X-92795Y-163757D01*
X-94191Y-163968D01*
X-94200Y-163967D01*
X-94640Y-163393D01*
X-94767Y-163295D01*
X-94770Y-163299D01*
X-95815Y-162407D01*
X-97665Y-161273D01*
X-99671Y-160442D01*
X-101782Y-159935D01*
X-103946Y-159765D01*
X-106110Y-159935D01*
X-108221Y-160442D01*
X-110226Y-161273D01*
X-112077Y-162407D01*
X-113044Y-163232D01*
X-113047Y-163229D01*
X-113191Y-163339D01*
X-113632Y-163914D01*
X-113632Y-163915D01*
X-113910Y-164585D01*
X-114005Y-165305D01*
X-113910Y-166024D01*
X-113632Y-166694D01*
X-113191Y-167270D01*
X-112615Y-167712D01*
X-111944Y-167990D01*
X-111225Y-168084D01*
X-110506Y-167990D01*
X-109835Y-167712D01*
X-109403Y-167380D01*
X-109377Y-167410D01*
X-109371Y-167405D01*
X-109221Y-167428D01*
X-108855Y-168084D01*
X-108674Y-168904D01*
X-109170Y-169647D01*
X-109616Y-170722D01*
X-109698Y-171136D01*
X-124160D01*
X-124243Y-170722D01*
X-124688Y-169647D01*
X-125136Y-168977D01*
X-124900Y-167976D01*
X-124591Y-167475D01*
X-124452Y-167449D01*
X-123980Y-167766D01*
X-123309Y-168044D01*
X-122590Y-168139D01*
X-121870Y-168044D01*
X-121200Y-167766D01*
X-120624Y-167324D01*
X-120183Y-166749D01*
X-119905Y-166078D01*
X-119810Y-165359D01*
X-119905Y-164639D01*
X-120183Y-163969D01*
X-120183Y-163969D01*
X-120624Y-163393D01*
X-120752Y-163295D01*
X-120755Y-163299D01*
X-121799Y-162407D01*
X-123650Y-161273D01*
X-125655Y-160442D01*
X-127766Y-159935D01*
X-129930Y-159765D01*
X-132094Y-159935D01*
X-134205Y-160442D01*
X-136211Y-161273D01*
X-138062Y-162407D01*
X-139028Y-163232D01*
X-139031Y-163229D01*
X-139175Y-163339D01*
X-139616Y-163914D01*
X-139617Y-163915D01*
X-139894Y-164585D01*
X-139989Y-165305D01*
X-139894Y-166024D01*
X-139617Y-166694D01*
X-139175Y-167270D01*
X-138599Y-167712D01*
X-137929Y-167990D01*
X-137209Y-168084D01*
X-136490Y-167990D01*
X-135819Y-167712D01*
X-135388Y-167380D01*
X-135362Y-167410D01*
X-135355Y-167405D01*
X-135205Y-167428D01*
X-134840Y-168084D01*
X-134658Y-168904D01*
X-135155Y-169647D01*
X-135600Y-170722D01*
X-135682Y-171136D01*
X-150144D01*
X-150227Y-170718D01*
X-150672Y-169644D01*
X-151120Y-168974D01*
X-150884Y-167973D01*
X-150575Y-167471D01*
X-150436Y-167445D01*
X-149964Y-167763D01*
X-149293Y-168040D01*
X-148574Y-168135D01*
X-147855Y-168040D01*
X-147184Y-167763D01*
X-146608Y-167321D01*
X-146167Y-166745D01*
X-145889Y-166075D01*
X-145794Y-165355D01*
X-145889Y-164636D01*
X-146167Y-163965D01*
X-146167Y-163965D01*
X-146608Y-163390D01*
X-146736Y-163292D01*
X-146739Y-163295D01*
X-147783Y-162404D01*
X-149634Y-161269D01*
X-151639Y-160439D01*
X-153750Y-159932D01*
X-155914Y-159762D01*
X-158079Y-159932D01*
X-160189Y-160439D01*
X-162195Y-161269D01*
X-164046Y-162404D01*
X-165012Y-163229D01*
X-165015Y-163225D01*
X-165159Y-163336D01*
X-165601Y-163911D01*
X-165601Y-163911D01*
X-165879Y-164582D01*
X-165973Y-165301D01*
X-165879Y-166021D01*
X-165842Y-166109D01*
X-166890Y-167335D01*
X-167817Y-168849D01*
X-168497Y-170490D01*
X-168911Y-172216D01*
X-169051Y-173986D01*
X-169041D01*
Y-180689D01*
X-169057D01*
X-168892Y-182371D01*
X-168401Y-183989D01*
X-167604Y-185480D01*
X-166531Y-186787D01*
X-165224Y-187860D01*
X-163733Y-188657D01*
X-162116Y-189147D01*
X-160433Y-189313D01*
Y-189297D01*
X-27716D01*
Y-189306D01*
X-25947Y-189167D01*
X-24220Y-188753D01*
X-22580Y-188073D01*
X-21066Y-187146D01*
X-19716Y-185993D01*
X-18563Y-184643D01*
X-17635Y-183129D01*
X-16956Y-181489D01*
X-16541Y-179762D01*
X-16402Y-177992D01*
X-16402D01*
X-16168Y-176711D01*
X-15881Y-176423D01*
X-15551Y-175628D01*
Y-174766D01*
X-14481Y-173749D01*
X-5762D01*
X-5678Y-174167D01*
X-5233Y-175242D01*
X-4753Y-175961D01*
X-4955Y-176843D01*
X-5302Y-177442D01*
X-5450Y-177466D01*
X-5479Y-177442D01*
X-5503Y-177469D01*
X-5951Y-177125D01*
X-6621Y-176847D01*
X-7341Y-176752D01*
X-8060Y-176847D01*
X-8731Y-177125D01*
X-9306Y-177567D01*
X-9748Y-178142D01*
X-10026Y-178813D01*
X-10120Y-179532D01*
X-10026Y-180252D01*
X-9748Y-180922D01*
X-9748Y-180922D01*
X-9306Y-181498D01*
X-9179Y-181596D01*
X-9176Y-181592D01*
X-8132Y-182484D01*
X-6281Y-183618D01*
X-4275Y-184449D01*
X-2165Y-184956D01*
X-0Y-185126D01*
X2164Y-184956D01*
X4275Y-184449D01*
X6280Y-183618D01*
X8131Y-182484D01*
X9098Y-181658D01*
X9101Y-181662D01*
X9244Y-181552D01*
X9686Y-180976D01*
X9686Y-180976D01*
X9964Y-180306D01*
X10058Y-179586D01*
X9964Y-178867D01*
X9686Y-178196D01*
X9244Y-177621D01*
X8669Y-177179D01*
X7998Y-176901D01*
X7279Y-176806D01*
X6568Y-176900D01*
X6559Y-176901D01*
X6559Y-176901D01*
X5889Y-177179D01*
X5431Y-177481D01*
X5288Y-177456D01*
X4940Y-176837D01*
X4749Y-175967D01*
X5233Y-175242D01*
X5679Y-174167D01*
X5762Y-173749D01*
X33215D01*
X33298Y-174167D01*
X33743Y-175242D01*
X34223Y-175961D01*
X34021Y-176843D01*
X33674Y-177442D01*
X33526Y-177466D01*
X33498Y-177442D01*
X33474Y-177469D01*
X33026Y-177125D01*
X32355Y-176847D01*
X31636Y-176752D01*
X30916Y-176847D01*
X30246Y-177125D01*
X29670Y-177567D01*
X29228Y-178142D01*
X28951Y-178813D01*
X28856Y-179532D01*
X28951Y-180252D01*
X29228Y-180922D01*
X29229Y-180922D01*
X29670Y-181498D01*
X29798Y-181596D01*
X29801Y-181592D01*
X30845Y-182484D01*
X32695Y-183618D01*
X34701Y-184449D01*
X36812Y-184956D01*
X38976Y-185126D01*
X41140Y-184956D01*
X43251Y-184449D01*
X45257Y-183618D01*
X47107Y-182484D01*
X48074Y-181658D01*
X48077Y-181662D01*
X48221Y-181552D01*
X48662Y-180976D01*
X48662Y-180976D01*
X48940Y-180306D01*
X49035Y-179586D01*
X48940Y-178867D01*
X48662Y-178196D01*
X48221Y-177621D01*
X47645Y-177179D01*
X46975Y-176901D01*
X46255Y-176806D01*
X45545Y-176900D01*
X45536Y-176901D01*
X45536Y-176901D01*
X44865Y-177179D01*
X44407Y-177481D01*
X44265Y-177456D01*
X43917Y-176837D01*
X43725Y-175967D01*
X44210Y-175242D01*
X44655Y-174167D01*
X44738Y-173749D01*
X72191D01*
X72274Y-174167D01*
X72719Y-175242D01*
X73200Y-175961D01*
X72998Y-176843D01*
X72650Y-177442D01*
X72503Y-177466D01*
X72474Y-177442D01*
X72450Y-177469D01*
X72002Y-177125D01*
X71332Y-176847D01*
X70612Y-176752D01*
X69893Y-176847D01*
X69222Y-177125D01*
X68647Y-177567D01*
X68205Y-178142D01*
X67927Y-178813D01*
X67832Y-179532D01*
X67927Y-180252D01*
X68205Y-180922D01*
X68205Y-180922D01*
X68647Y-181498D01*
X68774Y-181596D01*
X68777Y-181592D01*
X69821Y-182484D01*
X71672Y-183618D01*
X73677Y-184449D01*
X75788Y-184956D01*
X77952Y-185126D01*
X80116Y-184956D01*
X82227Y-184449D01*
X84233Y-183618D01*
X86084Y-182484D01*
X87050Y-181658D01*
X87053Y-181662D01*
X87197Y-181552D01*
X87638Y-180976D01*
X87639Y-180976D01*
X87916Y-180306D01*
X88011Y-179586D01*
X87916Y-178867D01*
X87639Y-178196D01*
X87197Y-177621D01*
X86621Y-177179D01*
X85951Y-176901D01*
X85232Y-176806D01*
X84521Y-176900D01*
X84512Y-176901D01*
X84512Y-176901D01*
X83842Y-177179D01*
X83384Y-177481D01*
X83241Y-177456D01*
X82893Y-176837D01*
X82702Y-175967D01*
X83186Y-175242D01*
X83631Y-174167D01*
X83714Y-173749D01*
X98175D01*
X98259Y-174167D01*
X98704Y-175242D01*
X99184Y-175961D01*
X98982Y-176843D01*
X98635Y-177442D01*
X98487Y-177466D01*
X98458Y-177442D01*
X98434Y-177469D01*
X97986Y-177125D01*
X97316Y-176847D01*
X96596Y-176752D01*
X95877Y-176847D01*
X95206Y-177125D01*
X94631Y-177567D01*
X94189Y-178142D01*
X93911Y-178813D01*
X93817Y-179532D01*
X93911Y-180252D01*
X94189Y-180922D01*
X94189Y-180922D01*
X94631Y-181498D01*
X94758Y-181596D01*
X94761Y-181592D01*
X95805Y-182484D01*
X97656Y-183618D01*
X99662Y-184449D01*
X101772Y-184956D01*
X103937Y-185126D01*
X106101Y-184956D01*
X108212Y-184449D01*
X110217Y-183618D01*
X112068Y-182484D01*
X113034Y-181658D01*
X113038Y-181662D01*
X113181Y-181552D01*
X113623Y-180976D01*
X113623Y-180976D01*
X113901Y-180306D01*
X113996Y-179586D01*
X113901Y-178867D01*
X113623Y-178196D01*
X113181Y-177621D01*
X112606Y-177179D01*
X111935Y-176901D01*
X111216Y-176806D01*
X110505Y-176900D01*
X110496Y-176901D01*
X110496Y-176901D01*
X109826Y-177179D01*
X109368Y-177481D01*
X109225Y-177456D01*
X108877Y-176837D01*
X108686Y-175967D01*
X109170Y-175242D01*
X109616Y-174167D01*
X109699Y-173749D01*
X124160D01*
X124243Y-174167D01*
X124688Y-175242D01*
X125168Y-175961D01*
X124966Y-176843D01*
X124619Y-177442D01*
X124471Y-177466D01*
X124442Y-177442D01*
X124419Y-177469D01*
X123970Y-177125D01*
X123300Y-176847D01*
X122581Y-176752D01*
X121861Y-176847D01*
X121191Y-177125D01*
X120615Y-177567D01*
X120173Y-178142D01*
X119896Y-178813D01*
X119801Y-179532D01*
X119896Y-180252D01*
X120173Y-180922D01*
X120174Y-180922D01*
X120615Y-181498D01*
X120742Y-181596D01*
X120746Y-181592D01*
X121790Y-182484D01*
X123640Y-183618D01*
X125646Y-184449D01*
X127757Y-184956D01*
X129921Y-185126D01*
X132085Y-184956D01*
X134196Y-184449D01*
X136201Y-183618D01*
X138052Y-182484D01*
X139019Y-181658D01*
X139022Y-181662D01*
X139166Y-181552D01*
X139607Y-180976D01*
X139607Y-180976D01*
X139885Y-180306D01*
X139980Y-179586D01*
X139885Y-178867D01*
X139607Y-178196D01*
X139166Y-177621D01*
X138590Y-177179D01*
X137919Y-176901D01*
X137200Y-176806D01*
X136490Y-176900D01*
X136481Y-176901D01*
X136481Y-176901D01*
X135810Y-177179D01*
X135352Y-177481D01*
X135210Y-177456D01*
X134862Y-176837D01*
X134670Y-175967D01*
X135155Y-175242D01*
X135600Y-174167D01*
X135683Y-173749D01*
X150144D01*
X150227Y-174167D01*
X150672Y-175242D01*
X151153Y-175961D01*
X150951Y-176843D01*
X150603Y-177442D01*
X150455Y-177466D01*
X150427Y-177442D01*
X150403Y-177469D01*
X149955Y-177125D01*
X149284Y-176847D01*
X148565Y-176752D01*
X147845Y-176847D01*
X147175Y-177125D01*
X146599Y-177567D01*
X146158Y-178142D01*
X145880Y-178813D01*
X145785Y-179532D01*
X145880Y-180252D01*
X146158Y-180922D01*
X146158Y-180922D01*
X146599Y-181498D01*
X146727Y-181596D01*
X146730Y-181592D01*
X147774Y-182484D01*
X149625Y-183618D01*
X151630Y-184449D01*
X153741Y-184956D01*
X155905Y-185126D01*
X158069Y-184956D01*
X160180Y-184449D01*
X162186Y-183618D01*
X164037Y-182484D01*
X165003Y-181658D01*
X165006Y-181662D01*
X165150Y-181552D01*
X165591Y-180976D01*
X165592Y-180976D01*
X165869Y-180306D01*
X165964Y-179586D01*
X165869Y-178867D01*
X165592Y-178196D01*
X165150Y-177621D01*
X164574Y-177179D01*
X163904Y-176901D01*
X163184Y-176806D01*
X162474Y-176900D01*
X162465Y-176901D01*
X162465Y-176901D01*
X161794Y-177179D01*
X161337Y-177481D01*
X161194Y-177456D01*
X160846Y-176837D01*
X160655Y-175967D01*
X161139Y-175242D01*
X161584Y-174167D01*
X161667Y-173749D01*
X166532D01*
Y-173772D01*
X168481Y-173580D01*
X170356Y-173011D01*
X172083Y-172088D01*
X173598Y-170845D01*
X174840Y-169331D01*
X175270Y-168527D01*
X176648Y-168872D01*
Y-184449D01*
X175000D01*
Y-191535D01*
X180905D01*
Y-184449D01*
X179257D01*
Y-165874D01*
X179896Y-165504D01*
X180635Y-165365D01*
X181275Y-166004D01*
X182242Y-166651D01*
X183317Y-167096D01*
X184458Y-167323D01*
X185621D01*
X186762Y-167096D01*
X187837Y-166651D01*
X188804Y-166004D01*
X189627Y-165182D01*
X190030Y-164578D01*
X191408Y-164996D01*
Y-177157D01*
X191421Y-177224D01*
X191264Y-178818D01*
X190780Y-180415D01*
X189993Y-181887D01*
X188977Y-183126D01*
X188920Y-183164D01*
X187635Y-184449D01*
X183268D01*
Y-191535D01*
X189173D01*
Y-187168D01*
X191049Y-185292D01*
X191053Y-185297D01*
X192227Y-183924D01*
X192500Y-183477D01*
X193878Y-183865D01*
X193878Y-188977D01*
X193878Y-188978D01*
X193878Y-188979D01*
X193879Y-189654D01*
X193615Y-190981D01*
X193097Y-192231D01*
X192345Y-193357D01*
X191388Y-194314D01*
X190263Y-195066D01*
X189012Y-195584D01*
X187685Y-195848D01*
X187008D01*
X-187009Y-195847D01*
X-187009Y-195847D01*
X-187010Y-195847D01*
X-187685Y-195848D01*
X-189012Y-195584D01*
X-190263Y-195066D01*
X-191388Y-194314D01*
X-192345Y-193357D01*
X-193097Y-192231D01*
X-193615Y-190981D01*
X-193879Y-189653D01*
Y-188976D01*
X-193878Y3938D01*
X-193878Y3938D01*
X-193878Y3939D01*
X-193879Y4614D01*
X-193615Y5941D01*
X-193097Y7192D01*
X-192345Y8317D01*
X-191388Y9274D01*
X-190263Y10026D01*
X-189012Y10544D01*
X-187685Y10808D01*
X-187008D01*
X-180197Y10808D01*
X-180185Y10810D01*
X-180172Y10808D01*
X-179580Y10822D01*
X-179543Y10831D01*
X-179506Y10827D01*
X-178327Y10943D01*
X-178280Y10958D01*
X-178230D01*
X-177068Y11189D01*
X-177022Y11208D01*
X-176973Y11213D01*
X-175839Y11556D01*
X-175795Y11580D01*
X-175746Y11590D01*
X-174652Y12043D01*
X-174610Y12071D01*
X-174563Y12085D01*
X-173518Y12643D01*
X-173480Y12675D01*
X-173434Y12694D01*
X-172449Y13352D01*
X-172414Y13387D01*
X-172370Y13411D01*
X-171454Y14162D01*
X-171430Y14191D01*
X-171399Y14211D01*
X-170969Y14620D01*
X-170962Y14630D01*
X-170952Y14637D01*
X-170550Y15038D01*
X-170550Y15039D01*
X-170149Y15440D01*
X-170142Y15450D01*
X-170132Y15458D01*
X-169723Y15887D01*
X-169703Y15918D01*
X-169674Y15942D01*
X-168923Y16858D01*
X-168899Y16902D01*
X-168864Y16937D01*
X-168206Y17922D01*
X-168187Y17968D01*
X-168155Y18006D01*
X-167597Y19051D01*
X-167582Y19099D01*
X-167555Y19140D01*
X-167101Y20234D01*
X-167092Y20283D01*
X-167068Y20327D01*
X-166724Y21461D01*
X-166719Y21510D01*
X-166700Y21556D01*
X-166469Y22718D01*
Y22768D01*
X-166455Y22816D01*
X-166339Y23994D01*
X-166342Y24032D01*
X-166334Y24068D01*
X-166320Y24660D01*
X-166322Y24673D01*
X-166319Y24685D01*
X-166319Y178071D01*
X-166319Y178615D01*
X-166213Y179697D01*
X-166001Y180763D01*
X-165685Y181804D01*
X-165269Y182808D01*
X-164756Y183768D01*
X-164152Y184672D01*
X-163462Y185512D01*
X-163078Y185897D01*
X-140621Y208353D01*
X-140237Y208738D01*
X-139396Y209428D01*
X-138492Y210032D01*
X-137533Y210544D01*
X-136528Y210961D01*
X-135488Y211276D01*
X-134421Y211488D01*
X-133339Y211595D01*
X-132795Y211595D01*
X132795Y211595D01*
X133339Y211595D01*
D02*
G37*
G36*
X131281Y204559D02*
X132785Y204102D01*
X134172Y203361D01*
X135316Y202422D01*
X135368Y202345D01*
X154116Y183596D01*
X154194Y183545D01*
X155133Y182400D01*
X155874Y181014D01*
X156331Y179509D01*
X156476Y178036D01*
X156457Y177945D01*
Y156117D01*
X155118Y156024D01*
Y156024D01*
X152594D01*
X151575Y156889D01*
Y160502D01*
X152097Y161663D01*
X152849Y162579D01*
X152915Y162703D01*
X153408Y163624D01*
X153710Y164623D01*
X153752Y164758D01*
X153868Y165938D01*
X153864D01*
Y167899D01*
X153879D01*
X153719Y169111D01*
X153681Y169202D01*
X153252Y170239D01*
X152508Y171209D01*
X151539Y171952D01*
X150501Y172382D01*
X150436Y172409D01*
X150402Y172496D01*
X150263Y173829D01*
X150435Y173900D01*
X151402Y174547D01*
X152225Y175369D01*
X152871Y176337D01*
X153316Y177411D01*
X153543Y178552D01*
Y179716D01*
X153316Y180856D01*
X152871Y181931D01*
X152225Y182898D01*
X151402Y183721D01*
X150435Y184367D01*
X149360Y184812D01*
X148219Y185039D01*
X147056D01*
X145915Y184812D01*
X144841Y184367D01*
X143873Y183721D01*
X143051Y182898D01*
X142404Y181931D01*
X141959Y180856D01*
X141732Y179716D01*
Y178552D01*
X141868Y177871D01*
X140598Y177192D01*
X130673Y187117D01*
X129702Y188088D01*
X129702Y188088D01*
X129699Y188091D01*
X129699Y188091D01*
X129698Y188091D01*
X128841Y189113D01*
X128665Y189328D01*
X127902Y190755D01*
X127666Y191535D01*
X128579Y192913D01*
X129921D01*
Y200787D01*
X122047D01*
Y192913D01*
X124750D01*
X124805Y192215D01*
X125203Y190559D01*
X125855Y188985D01*
X126745Y187532D01*
X127848Y186241D01*
X127851Y186237D01*
X127857Y186243D01*
X134623Y179477D01*
X133923Y178228D01*
X133455Y178340D01*
X131685Y178480D01*
Y178470D01*
X129811D01*
X129754Y178459D01*
X128112Y178620D01*
X126477Y179116D01*
X124971Y179921D01*
X123695Y180968D01*
X123663Y181017D01*
X109542Y195138D01*
X109653Y195331D01*
X109921Y196332D01*
Y197369D01*
X109653Y198370D01*
X109135Y199268D01*
X108402Y200001D01*
X107504Y200519D01*
X106503Y200787D01*
X105466D01*
X104465Y200519D01*
X103567Y200001D01*
X102834Y199268D01*
X102315Y198370D01*
X102047Y197369D01*
Y196332D01*
X102315Y195331D01*
X102834Y194433D01*
X103567Y193700D01*
X104465Y193182D01*
X105466Y192913D01*
X106503D01*
X107504Y193182D01*
X107697Y193293D01*
X121818Y179172D01*
X121811Y179165D01*
X123161Y178012D01*
X124675Y177084D01*
X126315Y176405D01*
X128042Y175990D01*
X129811Y175851D01*
Y175861D01*
X131685D01*
X131742Y175872D01*
X133384Y175710D01*
X135019Y175215D01*
X136525Y174409D01*
X137801Y173362D01*
X137833Y173314D01*
X138553Y172594D01*
X138570Y172583D01*
X139354Y171627D01*
X139551Y171259D01*
X138725Y169882D01*
X135827D01*
Y166821D01*
X135692Y165499D01*
X134869Y164496D01*
X134853Y164466D01*
X134258Y163352D01*
X133891Y162143D01*
X133881Y162110D01*
X133754Y160819D01*
X133759D01*
D01*
X133760D01*
X133761Y159442D01*
Y156024D01*
X113864D01*
Y159095D01*
X113864D01*
X113762Y159868D01*
X113464Y160590D01*
X112988Y161209D01*
X112369Y161684D01*
X111648Y161983D01*
X110874Y162084D01*
Y162084D01*
X87196D01*
Y162100D01*
X85105Y161935D01*
X83067Y161446D01*
X81129Y160644D01*
X79342Y159548D01*
X77747Y158186D01*
X77759Y158175D01*
X64999Y145415D01*
X64989Y145424D01*
X63433Y143650D01*
X62122Y141688D01*
X61079Y139572D01*
X60320Y137338D01*
X59860Y135023D01*
X59706Y132669D01*
X59719D01*
X59719Y132669D01*
Y47652D01*
X59724Y47625D01*
X59596Y46322D01*
X59208Y45043D01*
X58578Y43865D01*
X57748Y42853D01*
X57725Y42838D01*
X40392Y25505D01*
X40360Y25457D01*
X39084Y24409D01*
X37578Y23604D01*
X35943Y23109D01*
X34301Y22947D01*
X34244Y22958D01*
X28821D01*
X28322Y23909D01*
X28208Y24336D01*
X28669Y25134D01*
X28937Y26135D01*
Y27172D01*
X28814Y27630D01*
X50656Y49471D01*
X50663Y49482D01*
X51878Y50904D01*
X52862Y52511D01*
X53583Y54251D01*
X54023Y56083D01*
X54170Y57948D01*
X54172Y57961D01*
Y179913D01*
X54154Y180004D01*
X54299Y181478D01*
X54756Y182982D01*
X55497Y184369D01*
X56436Y185513D01*
X56514Y185565D01*
X73293Y202345D01*
X73345Y202422D01*
X74489Y203361D01*
X75876Y204102D01*
X77381Y204559D01*
X78854Y204704D01*
X78945Y204686D01*
X129716D01*
X129807Y204704D01*
X131281Y204559D01*
D02*
G37*
G36*
X156407Y147504D02*
X156457Y146884D01*
Y146859D01*
X156461Y146842D01*
X156471Y146718D01*
X156331Y145294D01*
X155874Y143790D01*
X155133Y142403D01*
X154194Y141259D01*
X154116Y141207D01*
X154069Y141159D01*
X154061Y141148D01*
X152846Y139725D01*
X151862Y138119D01*
X151141Y136379D01*
X150701Y134547D01*
X150555Y132682D01*
X150552Y132669D01*
Y86614D01*
X148622D01*
Y76772D01*
X150552D01*
Y61229D01*
X150555Y61216D01*
X150701Y59351D01*
X151141Y57519D01*
X151862Y55778D01*
X152846Y54172D01*
X154061Y52749D01*
X154069Y52738D01*
X154116Y52691D01*
X154194Y52639D01*
X155133Y51495D01*
X155874Y50108D01*
X156259Y48840D01*
X154960Y48375D01*
X154609Y49223D01*
X153681Y50737D01*
X152528Y52087D01*
X152521Y52080D01*
X152521Y52080D01*
X130820Y73781D01*
X130771Y73813D01*
X129724Y75089D01*
X129562Y75394D01*
X130387Y76772D01*
X136496D01*
Y86614D01*
X128622D01*
X128273Y87848D01*
Y98220D01*
X128283D01*
X128144Y99990D01*
X127729Y101716D01*
X127050Y103357D01*
X126122Y104870D01*
X124969Y106221D01*
X124962Y106214D01*
X120276Y110900D01*
Y111651D01*
X119946Y112447D01*
X119337Y113056D01*
X118541Y113386D01*
X118164D01*
X117532Y114703D01*
X141694Y138865D01*
X141727Y138914D01*
X143003Y139961D01*
X144509Y140766D01*
X146143Y141262D01*
X147786Y141423D01*
X147843Y141412D01*
X149606D01*
Y141401D01*
X150711Y141546D01*
X150897Y141623D01*
X151741Y141972D01*
X152625Y142651D01*
X153303Y143535D01*
X153653Y144379D01*
X153730Y144564D01*
X153875Y145669D01*
X153864D01*
Y147852D01*
X154525Y148009D01*
X155037Y148103D01*
X156407Y147504D01*
D02*
G37*
G36*
X-120573Y71136D02*
X-111472D01*
X-110185Y70917D01*
X-109216Y70174D01*
X-109129Y70138D01*
X-108178Y69744D01*
X-108087Y69706D01*
X-108044Y69700D01*
X-107987Y69619D01*
Y68176D01*
X-108044Y68095D01*
X-108087Y68089D01*
X-108178Y68051D01*
X-109125Y67659D01*
X-109216Y67622D01*
X-110185Y66878D01*
X-110175Y66867D01*
X-115179Y61862D01*
X-115188Y61871D01*
X-115188Y61871D01*
X-115604Y61329D01*
X-115886Y60962D01*
X-115951Y60804D01*
X-116260Y60060D01*
X-116325Y59903D01*
X-116475Y58766D01*
X-116462D01*
X-116462Y58766D01*
Y51969D01*
X-116469Y50591D01*
X-116469Y50591D01*
X-116342Y49298D01*
X-115964Y48055D01*
X-115352Y46909D01*
X-114597Y45990D01*
X-114651Y45638D01*
X-115124Y44612D01*
X-120589D01*
X-120611Y44607D01*
X-121568Y44733D01*
X-122480Y45111D01*
X-123263Y45712D01*
X-123864Y46495D01*
X-124242Y47407D01*
X-124368Y48363D01*
X-124363Y48386D01*
Y62598D01*
Y67347D01*
X-124368Y67370D01*
X-124241Y68330D01*
X-123862Y69245D01*
X-123258Y70032D01*
X-122472Y70635D01*
X-121556Y71014D01*
X-120596Y71141D01*
X-120573Y71136D01*
D02*
G37*
G36*
X-159933Y60996D02*
Y59055D01*
Y57114D01*
X-160433Y57071D01*
X-160933Y57114D01*
Y59055D01*
Y60996D01*
X-160433Y61039D01*
X-159933Y60996D01*
D02*
G37*
G36*
X-64999Y62030D02*
X-64997Y62017D01*
X-64850Y60152D01*
X-64410Y58320D01*
X-63689Y56579D01*
X-62705Y54973D01*
X-61490Y53550D01*
X-61482Y53540D01*
X-57967Y50024D01*
X-57926Y49927D01*
X-58337Y48967D01*
X-58664Y48549D01*
X-110001Y48549D01*
X-110030Y48543D01*
X-110726Y48681D01*
X-111341Y49092D01*
X-111752Y49707D01*
X-111890Y50403D01*
X-111884Y50432D01*
Y58071D01*
X-111888Y58088D01*
X-111765Y58704D01*
X-111407Y59241D01*
X-110870Y59600D01*
X-110254Y59723D01*
X-110236Y59719D01*
X-108874D01*
Y57586D01*
X-105709D01*
Y57086D01*
X-105209D01*
Y54118D01*
X-102544D01*
Y54118D01*
X-102166Y54133D01*
Y54134D01*
X-96653D01*
X-95867Y54134D01*
Y54133D01*
X-95275Y54134D01*
Y54134D01*
X-88976D01*
Y54134D01*
X-88583Y54528D01*
X-82678D01*
Y54936D01*
X-82086Y56069D01*
X-81059Y56204D01*
X-80806Y56309D01*
X-80101Y56601D01*
X-79279Y57232D01*
X-78648Y58054D01*
X-78355Y58759D01*
X-78251Y59012D01*
X-78116Y60039D01*
X-78119D01*
Y62257D01*
X-78219Y62762D01*
Y68557D01*
X-76130D01*
Y68844D01*
X-64999D01*
Y62030D01*
D02*
G37*
G36*
X-126972Y48386D02*
X-126972Y48386D01*
X-126978D01*
X-126978Y48386D01*
X-126944Y48045D01*
X-126855Y47139D01*
X-126833Y47066D01*
X-126492Y45941D01*
X-125901Y44836D01*
X-125504Y44352D01*
X-126275Y43120D01*
X-126596Y43197D01*
X-128269Y43890D01*
X-129812Y44836D01*
X-131160Y45987D01*
X-131181Y46019D01*
X-139976Y54814D01*
X-139449Y56087D01*
X-136204D01*
Y58555D01*
X-139370D01*
Y59555D01*
X-136204D01*
Y61294D01*
X-126972D01*
Y48386D01*
D02*
G37*
G36*
X-24428Y39884D02*
X-22794Y39388D01*
X-21287Y38583D01*
X-20011Y37536D01*
X-19979Y37487D01*
X-14445Y31953D01*
X-15031Y30591D01*
X-15518D01*
X-16520Y30322D01*
X-17417Y29804D01*
X-18150Y29071D01*
X-18669Y28173D01*
X-18937Y27172D01*
Y26135D01*
X-18669Y25134D01*
X-18563Y24950D01*
X-19578Y23712D01*
X-20361Y22248D01*
X-20515Y21741D01*
X-21063Y20591D01*
X-26666D01*
X-30755Y24680D01*
X-35778Y29702D01*
X-35767Y29713D01*
X-36774Y30626D01*
X-38567Y32251D01*
X-41602Y34502D01*
X-44843Y36445D01*
X-48259Y38060D01*
X-49924Y38656D01*
X-49685Y40034D01*
X-35030D01*
X-26128D01*
X-26126Y40034D01*
X-26124Y40034D01*
X-26068Y40045D01*
X-24428Y39884D01*
D02*
G37*
G36*
X-158358Y45260D02*
X-155693D01*
Y45260D01*
X-155315Y45276D01*
Y45276D01*
X-149015D01*
Y46623D01*
X-145875D01*
X-145803Y46637D01*
X-144233Y46483D01*
X-142654Y46004D01*
X-141199Y45226D01*
X-139980Y44225D01*
X-139939Y44164D01*
X-137768Y41993D01*
X-136796Y41016D01*
X-136796Y41016D01*
X-135470Y39884D01*
X-133983Y38972D01*
X-132861Y38508D01*
X-132773Y37431D01*
X-132866Y37032D01*
X-135266Y35848D01*
X-137604Y34287D01*
X-139717Y32433D01*
X-139717Y32433D01*
X-140746Y31591D01*
X-140813Y31539D01*
X-142124Y30996D01*
X-143467Y30819D01*
X-143532Y30832D01*
X-144414D01*
X-144804Y32070D01*
X-144778Y32210D01*
X-143873Y32814D01*
X-143051Y33637D01*
X-142404Y34604D01*
X-141959Y35679D01*
X-141732Y36820D01*
Y37983D01*
X-141959Y39124D01*
X-142404Y40199D01*
X-143051Y41166D01*
X-143873Y41989D01*
X-144841Y42635D01*
X-145915Y43080D01*
X-147056Y43307D01*
X-148219D01*
X-149360Y43080D01*
X-150435Y42635D01*
X-151402Y41989D01*
X-152225Y41166D01*
X-152871Y40199D01*
X-153316Y39124D01*
X-153543Y37983D01*
Y36820D01*
X-153316Y35679D01*
X-152871Y34604D01*
X-152225Y33637D01*
X-151402Y32814D01*
X-150498Y32210D01*
X-150472Y32070D01*
X-150862Y30832D01*
X-153386D01*
X-153443Y30821D01*
X-155086Y30983D01*
X-156720Y31478D01*
X-158226Y32283D01*
X-159546Y33367D01*
X-160630Y34687D01*
X-161435Y36193D01*
X-161931Y37828D01*
X-162093Y39470D01*
X-162081Y39528D01*
Y43906D01*
X-162023Y45260D01*
X-159358D01*
Y48229D01*
X-158358D01*
Y45260D01*
D02*
G37*
G36*
X-86630Y22204D02*
Y21760D01*
X-83662D01*
Y21260D01*
X-83162D01*
Y18095D01*
X-81592D01*
Y15258D01*
X-83316Y15123D01*
X-85072Y14701D01*
X-86741Y14010D01*
X-88281Y13066D01*
X-89655Y11892D01*
X-89655Y11893D01*
X-90672Y11020D01*
X-90947Y10794D01*
X-92419Y10007D01*
X-94016Y9523D01*
X-95611Y9366D01*
X-95678Y9379D01*
X-113633D01*
X-113700Y9366D01*
X-115295Y9523D01*
X-116892Y10007D01*
X-117089Y10113D01*
X-116744Y11491D01*
X-95472D01*
X-95466Y11492D01*
X-94727Y11589D01*
X-94033Y11877D01*
X-93437Y12334D01*
X-92979Y12931D01*
X-92692Y13625D01*
X-92594Y14364D01*
X-92593Y14370D01*
Y15732D01*
X-91248D01*
Y18307D01*
Y20882D01*
X-92634D01*
Y20866D01*
X-95177D01*
Y20866D01*
X-99042D01*
X-99322Y21221D01*
X-98652Y22599D01*
X-91151D01*
X-91138Y22602D01*
X-89273Y22749D01*
X-88008Y23052D01*
X-86630Y22204D01*
D02*
G37*
G36*
X190492Y-22125D02*
X190710Y-22288D01*
X190710Y-83055D01*
X189477D01*
Y-86221D01*
X188477D01*
Y-83055D01*
X187328D01*
Y-34007D01*
X187338D01*
X187199Y-32237D01*
X186784Y-30511D01*
X186105Y-28870D01*
X185177Y-27356D01*
X184024Y-26006D01*
X184017Y-26013D01*
X182589Y-24585D01*
X183317Y-23395D01*
X184458Y-23622D01*
X185621D01*
X186762Y-23395D01*
X187837Y-22950D01*
X188804Y-22304D01*
X189332Y-21775D01*
X190492Y-22125D01*
D02*
G37*
%LPC*%
G36*
X-127371Y204724D02*
X-128534D01*
X-129675Y204498D01*
X-130750Y204052D01*
X-131717Y203406D01*
X-132540Y202583D01*
X-133186Y201616D01*
X-133631Y200541D01*
X-133858Y199400D01*
Y198237D01*
X-133631Y197096D01*
X-133186Y196022D01*
X-132540Y195054D01*
X-131717Y194232D01*
X-130750Y193586D01*
X-129675Y193140D01*
X-128534Y192913D01*
X-127371D01*
X-126230Y193140D01*
X-125155Y193586D01*
X-124188Y194232D01*
X-123366Y195054D01*
X-122719Y196022D01*
X-122274Y197096D01*
X-122047Y198237D01*
Y199400D01*
X-122274Y200541D01*
X-122719Y201616D01*
X-123366Y202583D01*
X-124188Y203406D01*
X-125155Y204052D01*
X-126230Y204498D01*
X-127371Y204724D01*
D02*
G37*
G36*
X8152Y189911D02*
X7737D01*
X7543Y189872D01*
X7345D01*
X6531Y189710D01*
X6348Y189635D01*
X6154Y189596D01*
X5387Y189278D01*
X5223Y189168D01*
X5040Y189093D01*
X4350Y188631D01*
X4210Y188492D01*
X4046Y188382D01*
X3459Y187795D01*
X3349Y187630D01*
X3209Y187491D01*
X2748Y186800D01*
X2672Y186618D01*
X2562Y186453D01*
X2245Y185686D01*
X2206Y185493D01*
X2131Y185310D01*
X1969Y184495D01*
Y184298D01*
X1930Y184104D01*
Y183689D01*
Y146733D01*
Y146240D01*
X1969Y146046D01*
Y145849D01*
X2161Y144883D01*
X2236Y144700D01*
X2275Y144506D01*
X2652Y143596D01*
X2762Y143432D01*
X2837Y143249D01*
X3384Y142430D01*
X3524Y142291D01*
X3634Y142126D01*
X4330Y141430D01*
X4495Y141320D01*
X4635Y141180D01*
X5454Y140633D01*
X5636Y140557D01*
X5801Y140447D01*
X6711Y140071D01*
X6904Y140032D01*
X7087Y139956D01*
X8053Y139764D01*
X8251D01*
X8444Y139726D01*
X26989D01*
X27182Y139764D01*
X27380D01*
X28346Y139956D01*
X28529Y140032D01*
X28723Y140071D01*
X29632Y140447D01*
X29797Y140557D01*
X29980Y140633D01*
X30798Y141180D01*
X30938Y141320D01*
X31103Y141430D01*
X31799Y142126D01*
X31909Y142291D01*
X32049Y142430D01*
X32596Y143249D01*
X32671Y143432D01*
X32781Y143596D01*
X33158Y144506D01*
X33197Y144700D01*
X33272Y144883D01*
X33465Y145849D01*
Y146046D01*
X33503Y146240D01*
Y157481D01*
Y159200D01*
X33482Y159309D01*
X33491Y159419D01*
X33117Y162838D01*
X33084Y162943D01*
X33081Y163053D01*
X32337Y166411D01*
X32292Y166512D01*
X32278Y166622D01*
X31172Y169878D01*
X31117Y169974D01*
X31091Y170081D01*
X29637Y173198D01*
X29572Y173287D01*
X29534Y173391D01*
X27750Y176331D01*
X27676Y176413D01*
X27627Y176512D01*
X25533Y179240D01*
X25450Y179313D01*
X25390Y179406D01*
X23012Y181891D01*
X22922Y181954D01*
X22853Y182040D01*
X20218Y184251D01*
X20121Y184304D01*
X20043Y184382D01*
X17184Y186293D01*
X17082Y186335D01*
X16995Y186404D01*
X13945Y187992D01*
X13839Y188023D01*
X13745Y188083D01*
X10540Y189329D01*
X10431Y189348D01*
X10332Y189397D01*
X8671Y189842D01*
X8409Y189859D01*
X8152Y189911D01*
D02*
G37*
G36*
X-7737Y189910D02*
X-8152D01*
X-8409Y189859D01*
X-8671Y189842D01*
X-10332Y189397D01*
X-10431Y189348D01*
X-10540Y189329D01*
X-13745Y188082D01*
X-13839Y188023D01*
X-13945Y187992D01*
X-16995Y186404D01*
X-17082Y186335D01*
X-17184Y186293D01*
X-20043Y184382D01*
X-20121Y184304D01*
X-20218Y184250D01*
X-22853Y182040D01*
X-22922Y181954D01*
X-23012Y181890D01*
X-25390Y179406D01*
X-25450Y179313D01*
X-25533Y179240D01*
X-27627Y176512D01*
X-27676Y176412D01*
X-27750Y176331D01*
X-29534Y173391D01*
X-29572Y173287D01*
X-29638Y173198D01*
X-31091Y170081D01*
X-31117Y169974D01*
X-31172Y169878D01*
X-32278Y166621D01*
X-32292Y166512D01*
X-32337Y166411D01*
X-33081Y163053D01*
X-33084Y162942D01*
X-33117Y162837D01*
X-33491Y159418D01*
X-33482Y159308D01*
X-33503Y159200D01*
Y157480D01*
Y146240D01*
X-33465Y146046D01*
Y145848D01*
X-33272Y144882D01*
X-33197Y144700D01*
X-33158Y144506D01*
X-32781Y143596D01*
X-32671Y143431D01*
X-32596Y143249D01*
X-32049Y142430D01*
X-31909Y142290D01*
X-31799Y142126D01*
X-31103Y141429D01*
X-30938Y141320D01*
X-30799Y141180D01*
X-29980Y140632D01*
X-29797Y140557D01*
X-29632Y140447D01*
X-28723Y140070D01*
X-28529Y140032D01*
X-28346Y139956D01*
X-27380Y139764D01*
X-27182D01*
X-26989Y139725D01*
X-8445D01*
X-8251Y139764D01*
X-8053D01*
X-7087Y139956D01*
X-6904Y140032D01*
X-6711Y140070D01*
X-5801Y140447D01*
X-5636Y140557D01*
X-5454Y140632D01*
X-4635Y141180D01*
X-4495Y141320D01*
X-4330Y141429D01*
X-3634Y142126D01*
X-3524Y142290D01*
X-3384Y142430D01*
X-2837Y143249D01*
X-2762Y143431D01*
X-2652Y143596D01*
X-2275Y144506D01*
X-2236Y144700D01*
X-2161Y144882D01*
X-1969Y145848D01*
Y146046D01*
X-1930Y146240D01*
Y146732D01*
Y183688D01*
Y184104D01*
X-1969Y184297D01*
Y184495D01*
X-2131Y185309D01*
X-2206Y185492D01*
X-2245Y185686D01*
X-2562Y186453D01*
X-2672Y186617D01*
X-2748Y186800D01*
X-3209Y187490D01*
X-3349Y187630D01*
X-3459Y187794D01*
X-4046Y188381D01*
X-4210Y188491D01*
X-4350Y188631D01*
X-5040Y189092D01*
X-5223Y189168D01*
X-5387Y189278D01*
X-6154Y189595D01*
X-6348Y189634D01*
X-6531Y189710D01*
X-7345Y189872D01*
X-7543D01*
X-7737Y189910D01*
D02*
G37*
G36*
X-79724Y136614D02*
X-87205D01*
Y122441D01*
X-79724D01*
Y136614D01*
D02*
G37*
G36*
X-107193Y99426D02*
X-109858D01*
Y96957D01*
X-107193D01*
Y99426D01*
D02*
G37*
G36*
X-83055Y99425D02*
X-85721D01*
Y96956D01*
X-83055D01*
Y99425D01*
D02*
G37*
G36*
X-107193Y95957D02*
X-109858D01*
Y93489D01*
X-107193D01*
Y95957D01*
D02*
G37*
G36*
X-83055Y95956D02*
X-85721D01*
Y93488D01*
X-83055D01*
Y95956D01*
D02*
G37*
G36*
X-8445Y135865D02*
X-26989D01*
X-27182Y135827D01*
X-27380D01*
X-28346Y135635D01*
X-28529Y135559D01*
X-28723Y135520D01*
X-29632Y135143D01*
X-29797Y135034D01*
X-29980Y134958D01*
X-30799Y134411D01*
X-30938Y134271D01*
X-31103Y134161D01*
X-31799Y133465D01*
X-31909Y133300D01*
X-32049Y133161D01*
X-32596Y132342D01*
X-32671Y132159D01*
X-32781Y131995D01*
X-33158Y131085D01*
X-33197Y130891D01*
X-33272Y130708D01*
X-33465Y129742D01*
Y129545D01*
X-33503Y129351D01*
Y118110D01*
Y116391D01*
X-33482Y116282D01*
X-33491Y116172D01*
X-33117Y112753D01*
X-33084Y112648D01*
X-33081Y112538D01*
X-32337Y109180D01*
X-32292Y109079D01*
X-32278Y108969D01*
X-31172Y105713D01*
X-31117Y105617D01*
X-31091Y105510D01*
X-29638Y102393D01*
X-29572Y102304D01*
X-29534Y102200D01*
X-27750Y99260D01*
X-27676Y99178D01*
X-27627Y99079D01*
X-25533Y96351D01*
X-25450Y96278D01*
X-25390Y96184D01*
X-23012Y93700D01*
X-22922Y93637D01*
X-22853Y93551D01*
X-20218Y91340D01*
X-20121Y91287D01*
X-20043Y91209D01*
X-17184Y89298D01*
X-17082Y89256D01*
X-16995Y89187D01*
X-13945Y87599D01*
X-13839Y87568D01*
X-13745Y87508D01*
X-10540Y86262D01*
X-10431Y86243D01*
X-10332Y86194D01*
X-8671Y85749D01*
X-8409Y85732D01*
X-8152Y85680D01*
X-7737D01*
X-7543Y85719D01*
X-7345D01*
X-6531Y85881D01*
X-6348Y85957D01*
X-6154Y85995D01*
X-5387Y86313D01*
X-5223Y86423D01*
X-5040Y86498D01*
X-4350Y86959D01*
X-4210Y87099D01*
X-4046Y87209D01*
X-3459Y87796D01*
X-3349Y87960D01*
X-3209Y88100D01*
X-2748Y88791D01*
X-2672Y88973D01*
X-2562Y89138D01*
X-2245Y89905D01*
X-2206Y90099D01*
X-2131Y90281D01*
X-1969Y91096D01*
Y91293D01*
X-1930Y91487D01*
Y91902D01*
Y128858D01*
Y129351D01*
X-1969Y129545D01*
Y129742D01*
X-2161Y130708D01*
X-2236Y130891D01*
X-2275Y131085D01*
X-2652Y131995D01*
X-2762Y132159D01*
X-2837Y132342D01*
X-3384Y133161D01*
X-3524Y133300D01*
X-3634Y133465D01*
X-4330Y134161D01*
X-4495Y134271D01*
X-4635Y134411D01*
X-5454Y134958D01*
X-5636Y135034D01*
X-5801Y135143D01*
X-6711Y135520D01*
X-6904Y135559D01*
X-7087Y135635D01*
X-8053Y135827D01*
X-8251D01*
X-8445Y135865D01*
D02*
G37*
G36*
X26989D02*
X8444D01*
X8251Y135827D01*
X8053D01*
X7087Y135635D01*
X6904Y135559D01*
X6711Y135520D01*
X5801Y135143D01*
X5636Y135034D01*
X5454Y134958D01*
X4635Y134411D01*
X4495Y134271D01*
X4330Y134161D01*
X3634Y133465D01*
X3524Y133300D01*
X3384Y133161D01*
X2837Y132342D01*
X2762Y132159D01*
X2652Y131995D01*
X2275Y131085D01*
X2236Y130891D01*
X2161Y130708D01*
X1969Y129742D01*
Y129545D01*
X1930Y129351D01*
Y128858D01*
Y91902D01*
Y91487D01*
X1969Y91293D01*
Y91096D01*
X2131Y90281D01*
X2206Y90099D01*
X2245Y89905D01*
X2562Y89138D01*
X2672Y88973D01*
X2748Y88791D01*
X3209Y88100D01*
X3349Y87960D01*
X3459Y87796D01*
X4046Y87209D01*
X4210Y87099D01*
X4350Y86959D01*
X5040Y86498D01*
X5223Y86423D01*
X5387Y86313D01*
X6154Y85995D01*
X6348Y85957D01*
X6531Y85881D01*
X7345Y85719D01*
X7543D01*
X7737Y85680D01*
X8152D01*
X8409Y85732D01*
X8671Y85749D01*
X10332Y86194D01*
X10431Y86243D01*
X10540Y86262D01*
X13745Y87508D01*
X13839Y87568D01*
X13945Y87599D01*
X16995Y89187D01*
X17082Y89256D01*
X17184Y89298D01*
X20043Y91209D01*
X20121Y91287D01*
X20218Y91340D01*
X22853Y93551D01*
X22922Y93637D01*
X23012Y93700D01*
X25390Y96184D01*
X25450Y96278D01*
X25533Y96351D01*
X27627Y99079D01*
X27676Y99178D01*
X27750Y99260D01*
X29534Y102200D01*
X29572Y102304D01*
X29637Y102393D01*
X31091Y105510D01*
X31117Y105617D01*
X31172Y105713D01*
X32278Y108969D01*
X32292Y109079D01*
X32337Y109180D01*
X33081Y112538D01*
X33084Y112648D01*
X33117Y112753D01*
X33491Y116172D01*
X33482Y116282D01*
X33503Y116391D01*
Y118110D01*
Y129351D01*
X33465Y129545D01*
Y129742D01*
X33272Y130708D01*
X33197Y130891D01*
X33158Y131085D01*
X32781Y131995D01*
X32671Y132159D01*
X32596Y132342D01*
X32049Y133161D01*
X31909Y133300D01*
X31799Y133465D01*
X31103Y134161D01*
X30938Y134271D01*
X30798Y134411D01*
X29980Y134958D01*
X29797Y135034D01*
X29632Y135143D01*
X28723Y135520D01*
X28529Y135559D01*
X28346Y135635D01*
X27380Y135827D01*
X27182D01*
X26989Y135865D01*
D02*
G37*
G36*
X-76114Y83139D02*
X-79567D01*
Y80080D01*
X-76114D01*
Y83139D01*
D02*
G37*
G36*
X-156004Y64780D02*
X-157531D01*
Y63099D01*
X-156004D01*
Y64780D01*
D02*
G37*
G36*
X-163541Y60570D02*
X-163942Y60404D01*
X-164390Y59956D01*
X-164556Y59555D01*
X-163541D01*
Y60570D01*
D02*
G37*
G36*
Y58555D02*
X-164556D01*
X-164390Y58154D01*
X-163942Y57707D01*
X-163541Y57541D01*
Y58555D01*
D02*
G37*
G36*
X-114082Y30528D02*
X-116748D01*
Y28059D01*
X-114082D01*
Y30528D01*
D02*
G37*
G36*
Y27059D02*
X-116748D01*
Y24591D01*
X-114082D01*
Y27059D01*
D02*
G37*
G36*
X-184458Y-11811D02*
X-185621D01*
X-186762Y-12038D01*
X-187837Y-12483D01*
X-188804Y-13129D01*
X-189627Y-13952D01*
X-190273Y-14919D01*
X-190718Y-15994D01*
X-190945Y-17135D01*
Y-18298D01*
X-190718Y-19439D01*
X-190273Y-20514D01*
X-189627Y-21481D01*
X-188804Y-22304D01*
X-187837Y-22950D01*
X-186762Y-23395D01*
X-185621Y-23622D01*
X-184458D01*
X-183317Y-23395D01*
X-182242Y-22950D01*
X-181275Y-22304D01*
X-180452Y-21481D01*
X-179806Y-20514D01*
X-179361Y-19439D01*
X-179134Y-18298D01*
Y-17135D01*
X-179361Y-15994D01*
X-179806Y-14919D01*
X-180452Y-13952D01*
X-181275Y-13129D01*
X-182242Y-12483D01*
X-183317Y-12038D01*
X-184458Y-11811D01*
D02*
G37*
G36*
X-3331Y-24909D02*
X-5799D01*
Y-28362D01*
X-3331D01*
Y-24909D01*
D02*
G37*
G36*
X-6799D02*
X-9268D01*
Y-28362D01*
X-6799D01*
Y-24909D01*
D02*
G37*
G36*
X-184458Y-155512D02*
X-185621D01*
X-186762Y-155739D01*
X-187837Y-156184D01*
X-188804Y-156830D01*
X-189627Y-157653D01*
X-190273Y-158620D01*
X-190718Y-159695D01*
X-190945Y-160836D01*
Y-161999D01*
X-190718Y-163140D01*
X-190273Y-164215D01*
X-189627Y-165182D01*
X-188804Y-166004D01*
X-187837Y-166651D01*
X-186762Y-167096D01*
X-185621Y-167323D01*
X-184458D01*
X-183317Y-167096D01*
X-182242Y-166651D01*
X-181275Y-166004D01*
X-180452Y-165182D01*
X-179806Y-164215D01*
X-179361Y-163140D01*
X-179134Y-161999D01*
Y-160836D01*
X-179361Y-159695D01*
X-179806Y-158620D01*
X-180452Y-157653D01*
X-181275Y-156830D01*
X-182242Y-156184D01*
X-183317Y-155739D01*
X-184458Y-155512D01*
D02*
G37*
G36*
X165188Y-186910D02*
X164271D01*
X163385Y-187148D01*
X162590Y-187607D01*
X161942Y-188255D01*
X161483Y-189050D01*
X161245Y-189936D01*
Y-190853D01*
X161483Y-191740D01*
X161942Y-192534D01*
X162590Y-193183D01*
X163385Y-193641D01*
X164271Y-193879D01*
X165188D01*
X166075Y-193641D01*
X166869Y-193183D01*
X167518Y-192534D01*
X167976Y-191740D01*
X168214Y-190853D01*
Y-189936D01*
X167976Y-189050D01*
X167518Y-188255D01*
X166869Y-187607D01*
X166075Y-187148D01*
X165188Y-186910D01*
D02*
G37*
G36*
X116505Y200803D02*
X116484D01*
Y197350D01*
X119937D01*
Y197371D01*
X119668Y198376D01*
X119147Y199277D01*
X118411Y200013D01*
X117510Y200534D01*
X116505Y200803D01*
D02*
G37*
G36*
X115484D02*
X115464D01*
X114459Y200534D01*
X113557Y200013D01*
X112821Y199277D01*
X112301Y198376D01*
X112031Y197371D01*
Y197350D01*
X115484D01*
Y200803D01*
D02*
G37*
G36*
X119937Y196350D02*
X116484D01*
Y192898D01*
X116505D01*
X117510Y193167D01*
X118411Y193687D01*
X119147Y194423D01*
X119668Y195325D01*
X119937Y196330D01*
Y196350D01*
D02*
G37*
G36*
X115484D02*
X112031D01*
Y196330D01*
X112301Y195325D01*
X112821Y194423D01*
X113557Y193687D01*
X114459Y193167D01*
X115464Y192898D01*
X115484D01*
Y196350D01*
D02*
G37*
G36*
X146512Y86630D02*
X143059D01*
Y82193D01*
X146512D01*
Y86630D01*
D02*
G37*
G36*
X142059D02*
X138606D01*
Y82193D01*
X142059D01*
Y86630D01*
D02*
G37*
G36*
X146512Y81193D02*
X143059D01*
Y76756D01*
X146512D01*
Y81193D01*
D02*
G37*
G36*
X142059D02*
X138606D01*
Y76756D01*
X142059D01*
Y81193D01*
D02*
G37*
G36*
X-106209Y56586D02*
X-108874D01*
Y54118D01*
X-106209D01*
Y56586D01*
D02*
G37*
G36*
X-24480Y30606D02*
X-24500D01*
Y27154D01*
X-21047D01*
Y27174D01*
X-21317Y28179D01*
X-21837Y29081D01*
X-22573Y29816D01*
X-23474Y30337D01*
X-24480Y30606D01*
D02*
G37*
G36*
X-25500D02*
X-25520D01*
X-26526Y30337D01*
X-27427Y29816D01*
X-28163Y29081D01*
X-28683Y28179D01*
X-28953Y27174D01*
Y27154D01*
X-25500D01*
Y30606D01*
D02*
G37*
G36*
X-21047Y26153D02*
X-24500D01*
Y22701D01*
X-24480D01*
X-23474Y22970D01*
X-22573Y23491D01*
X-21837Y24227D01*
X-21317Y25128D01*
X-21047Y26133D01*
Y26153D01*
D02*
G37*
G36*
X-25500D02*
X-28953D01*
Y26133D01*
X-28683Y25128D01*
X-28163Y24227D01*
X-27427Y23491D01*
X-26526Y22970D01*
X-25520Y22701D01*
X-25500D01*
Y26153D01*
D02*
G37*
G36*
X-88862Y20882D02*
X-90248D01*
Y18807D01*
X-88862D01*
Y20882D01*
D02*
G37*
G36*
X-84162Y20760D02*
X-86630D01*
Y18095D01*
X-84162D01*
Y20760D01*
D02*
G37*
G36*
X-88862Y17807D02*
X-90248D01*
Y15732D01*
X-88862D01*
Y17807D01*
D02*
G37*
%LPD*%
D10*
X-157825Y59055D02*
G03*
X-157825Y59055I-2608J0D01*
G01*
X-135658Y42154D02*
G03*
X-128937Y39370I6721J6721D01*
G01*
X-36914Y28567D02*
G03*
X-62994Y39370I-26081J-26081D01*
G01*
X-152268Y48477D02*
G03*
X-152165Y48229I351J0D01*
G01*
X-138804Y45300D02*
G03*
X-145875Y48229I-7071J-7071D01*
G01*
X-87599Y70866D02*
G03*
X-86956Y71509I0J643D01*
G01*
D02*
G03*
X-88282Y72835I-1326J0D01*
G01*
X-87056Y57087D02*
G03*
X-85630Y57678I0J2016D01*
G01*
X-82086D02*
G03*
X-79724Y60039I0J2362D01*
G01*
X-97441Y78515D02*
G03*
X-99410Y83268I-6722J0D01*
G01*
X-93504Y83268D02*
G03*
X-95473Y78516I4752J-4752D01*
G01*
X-138804Y45300D02*
X-135658Y42154D01*
X-128937Y39370D02*
X-62994D01*
X-79724Y60039D02*
Y62257D01*
X-36914Y28567D02*
X-31891Y23544D01*
X-25000Y16654D01*
X-152165Y48229D02*
X-145875D01*
X-152268Y48477D02*
Y55512D01*
X-93012Y70866D02*
X-87599D01*
X-92913Y72835D02*
X-88282D01*
X-92126Y57087D02*
X-87056D01*
X-85630Y57678D02*
X-82086D01*
X-97441Y75295D02*
Y78515D01*
X-95473Y75394D02*
Y78516D01*
D11*
X6299Y-5118D02*
G03*
X5750Y-3791I-1877J0D01*
G01*
X3831Y-1873D02*
G03*
X1686Y-984I-2145J-2145D01*
G01*
X-25383Y1412D02*
G03*
X-31479Y3937I-6095J-6096D01*
G01*
X-23867Y218D02*
G03*
X-19598Y-984I4270J6980D01*
G01*
X-25383Y1412D02*
G03*
X-23867Y218I5785J5785D01*
G01*
X192913Y-100993D02*
G03*
X189985Y-93922I-10000J0D01*
G01*
X173829Y-94872D02*
G03*
X176758Y-87801I-7071J7071D01*
G01*
X172940Y-95761D02*
G03*
X171260Y-99817I4056J-4056D01*
G01*
X177165Y-70217D02*
G03*
X176758Y-71196I973J-980D01*
G01*
X171260Y-124145D02*
G03*
X174189Y-131216I10000J0D01*
G01*
X192913Y-142548D02*
G03*
X190945Y-137795I-6721J0D01*
G01*
D02*
G03*
X192913Y-133043I-4752J4752D01*
G01*
X131188Y18752D02*
G03*
X128937Y19685I-2252J-2252D01*
G01*
X-38222Y5092D02*
G03*
X-35433Y3937I2789J2789D01*
G01*
X189985Y-184228D02*
G03*
X192913Y-177157I-7071J7071D01*
G01*
X-81515Y13752D02*
G03*
X-88586Y10824I0J-10000D01*
G01*
X-95678Y7874D02*
G03*
X-88607Y10803I0J10000D01*
G01*
X-120704D02*
G03*
X-113633Y7874I7071J7071D01*
G01*
X-132745Y8858D02*
G03*
X-125673Y11787I0J10000D01*
G01*
X-145464Y8858D02*
G03*
X-152535Y5929I0J-10000D01*
G01*
X-168331Y-9866D02*
G03*
X-171260Y-16937I7071J-7071D01*
G01*
X-174189Y-54760D02*
G03*
X-171260Y-47689I-7071J7071D01*
G01*
X-173228Y-65815D02*
G03*
X-176157Y-58744I-10000J0D01*
G01*
Y-120704D02*
G03*
X-173228Y-113634I-7071J7071D01*
G01*
X-86813Y63188D02*
G03*
X-86907Y62961I228J-227D01*
G01*
X-86812Y63188D02*
X-86813Y63188D01*
X-89096Y62054D02*
G03*
X-86907Y62961I0J3097D01*
G01*
X-95473Y63189D02*
G03*
X-94337Y62054I1135J0D01*
G01*
X-6299Y-29685D02*
Y-24409D01*
X5750Y-3791D02*
X5750Y-3791D01*
X3831Y-1873D02*
X5750Y-3791D01*
X-19598Y-984D02*
X1686D01*
X-35433Y3937D02*
X-33540D01*
X-31479D01*
X188977Y-100591D02*
Y-92914D01*
X189985Y-93922D01*
X172940Y-95761D02*
X173829Y-94872D01*
X171260Y-124145D02*
Y-99817D01*
X176758Y-87801D02*
Y-71196D01*
X174189Y-131216D02*
X177165Y-134193D01*
X192913Y-133043D02*
Y-100993D01*
Y-177157D02*
Y-142548D01*
X177165Y-137795D02*
Y-134193D01*
X131188Y18752D02*
X136161Y13780D01*
X59390D02*
Y19685D01*
X-46909Y13780D02*
X-38222Y5092D01*
X188977Y-100591D02*
X189370D01*
X186221Y-187992D02*
X189985Y-184228D01*
X-79724Y62257D02*
Y71757D01*
X-81515Y13752D02*
X-79585D01*
X-88607Y10803D02*
X-88586Y10824D01*
X-113633Y7874D02*
X-95678D01*
X-125673Y11787D02*
X-123681Y13780D01*
X-120704Y10803D01*
X-145464Y8858D02*
X-132745D01*
X-168331Y-9866D02*
X-152535Y5929D01*
X-171260Y-47689D02*
Y-16937D01*
X-177165Y-57736D02*
X-176157Y-58744D01*
X-177165Y-57736D02*
X-174189Y-54760D01*
X-173228Y-113634D02*
Y-65815D01*
X-177165Y-121713D02*
X-176157Y-120704D01*
X-90748Y14764D02*
Y18307D01*
X-67126Y18307D02*
X-64567D01*
X178740Y-113582D02*
Y-110039D01*
X-83662Y16733D02*
Y21260D01*
X-118109Y27559D02*
X-113582D01*
X-86812Y63188D02*
X-85630Y64370D01*
X-86813Y63188D02*
X-86812Y63188D01*
X-94337Y62054D02*
X-89096D01*
X-95473Y63189D02*
Y64370D01*
X-99410Y57480D02*
X-99016Y57086D01*
X-99410Y57480D02*
Y64468D01*
X-103475Y79064D02*
X-100732D01*
X-99410Y77742D01*
Y75295D02*
Y77742D01*
X-110678Y68898D02*
X-103839D01*
X-97441Y64468D02*
Y68898D01*
X-98425Y69882D02*
X-97441Y68898D01*
X-99410Y68898D02*
X-98425Y69882D01*
X-103839Y68898D02*
X-99410D01*
Y70866D02*
X-98425Y69882D01*
X-99410Y70866D02*
Y75295D01*
X-110236Y57086D02*
X-105709D01*
X-158858Y43702D02*
Y48229D01*
X-139370Y59055D02*
X-134843D01*
D15*
X179134Y-4921D02*
G03*
X178150Y-7298I2376J-2376D01*
G01*
X186024Y-34007D02*
G03*
X183095Y-26936I-10000J0D01*
G01*
X186024Y-103543D02*
G03*
X189370Y-106890I3347J0D01*
G01*
X178150Y-17849D02*
G03*
X181079Y-24920I10000J0D01*
G01*
X-112984Y1969D02*
G03*
X-120055Y-960I0J-10000D01*
G01*
X-86409Y0D02*
G03*
X-93480Y-2929I0J-10000D01*
G01*
X-102214Y-7521D02*
G03*
X-95143Y-4592I0J10000D01*
G01*
X155523Y-28543D02*
G03*
X157899Y-27559I0J3360D01*
G01*
X179134Y-35523D02*
G03*
X181543Y-40795I6973J-0D01*
G01*
X157899Y-30512D02*
G03*
X162402Y-26009I0J4502D01*
G01*
X157393Y-32480D02*
G03*
X164370Y-25503I0J6977D01*
G01*
X7043Y-26206D02*
G03*
X12686Y-28543I5643J5643D01*
G01*
X71850Y-30512D02*
G03*
X64961Y-37402I0J-6890D01*
G01*
X80077Y-32480D02*
G03*
X77953Y-34605I0J-2125D01*
G01*
X95515Y-34449D02*
G03*
X89530Y-40433I0J-5985D01*
G01*
X143135Y-35409D02*
G03*
X140816Y-34449I-2319J-2319D01*
G01*
X6299Y-24409D02*
G03*
X7043Y-26206I2541J0D01*
G01*
X131890Y7360D02*
G03*
X134819Y289I10000J0D01*
G01*
X131890Y9070D02*
G03*
X128961Y16141I-10000J0D01*
G01*
X184471Y-105141D02*
G03*
X189370Y-110039I4899J0D01*
G01*
X184471Y-47866D02*
G03*
X181543Y-40795I-10000J0D01*
G01*
X182821Y-47423D02*
G03*
X181126Y-43331I-5787J0D01*
G01*
X182110Y-147023D02*
G03*
X182821Y-145307I-1716J1716D01*
G01*
X176575Y-141339D02*
G03*
X181494Y-136420I0J4919D01*
G01*
Y-48597D02*
G03*
X180118Y-45276I-4697J0D01*
G01*
X161892Y-79134D02*
G03*
X168307Y-72719I0J6415D01*
G01*
X167234Y-88210D02*
G03*
X170163Y-81139I-7071J7071D01*
G01*
X158782Y-92520D02*
G03*
X165853Y-89591I0J10000D01*
G01*
X160622Y-94095D02*
G03*
X167693Y-91166I0J10000D01*
G01*
X169315Y-89543D02*
G03*
X172244Y-82472I-7071J7071D01*
G01*
X175563Y-40246D02*
G03*
X177141Y-42299I8650J5018D01*
G01*
X174213Y-35228D02*
G03*
X175563Y-40246I10000J0D01*
G01*
X176181Y-34244D02*
G03*
X179110Y-41315I10000J0D01*
G01*
X176181Y-3158D02*
G03*
X173252Y3913I-10000J0D01*
G01*
X154528Y26780D02*
G03*
X157457Y19709I10000J0D01*
G01*
X154528Y44086D02*
G03*
X151599Y51157I-10000J0D01*
G01*
X170163Y-4054D02*
G03*
X167987Y1198I-7427J-0D01*
G01*
X166339Y-5638D02*
G03*
X164163Y-386I-7427J-0D01*
G01*
X168307Y-4822D02*
G03*
X166132Y429I-7427J-0D01*
G01*
X172244Y-3192D02*
G03*
X170069Y2060I-7427J-0D01*
G01*
X164370Y-6284D02*
G03*
X162195Y-1032I-7427J-0D01*
G01*
X162402Y-7268D02*
G03*
X160226Y-2017I-7427J-0D01*
G01*
X174213Y-2376D02*
G03*
X172037Y2875I-7427J-0D01*
G01*
X163583Y-48031D02*
G03*
X166339Y-45276I0J2756D01*
G01*
X158027Y-14606D02*
G03*
X160591Y-12043I0J2564D01*
G01*
Y-7936D02*
G03*
X158631Y-3206I-6690J0D01*
G01*
X122559Y56780D02*
G03*
X125689Y49224I10686J-0D01*
G01*
X87854Y71800D02*
G03*
X90844Y64581I10208J-0D01*
G01*
X107854Y63133D02*
G03*
X110984Y55577I10686J-0D01*
G01*
X117559Y58996D02*
G03*
X120689Y51440I10686J-0D01*
G01*
X112559Y61053D02*
G03*
X115689Y53497I10686J-0D01*
G01*
X95060Y70499D02*
G03*
X98170Y62993I10616J-0D01*
G01*
X92854Y69752D02*
G03*
X95964Y62246I10616J-0D01*
G01*
X102854Y65349D02*
G03*
X105984Y57793I10686J-0D01*
G01*
X179134Y-73819D02*
G03*
X178740Y-74769I950J-950D01*
G01*
X180118Y-64831D02*
G03*
X177189Y-57760I-10000J0D01*
G01*
X179134Y-73819D02*
G03*
X180118Y-71443I-2376J2376D01*
G01*
X169178Y-99950D02*
G03*
X167323Y-95472I-6333J0D01*
G01*
Y-103824D02*
G03*
X160025Y-96527I-7297J0D01*
G01*
X159980Y-127256D02*
G03*
X167323Y-119914I0J7342D01*
G01*
X163546Y-128777D02*
G03*
X169178Y-123145I0J5632D01*
G01*
X-36368Y17667D02*
G03*
X-17478Y9843I18890J18890D01*
G01*
X-37352Y15698D02*
G03*
X-18462Y7874I18890J18890D01*
G01*
X-39090Y11700D02*
G03*
X-20348Y3937I18742J18742D01*
G01*
X-37698Y13092D02*
G03*
X-20348Y5906I17350J17350D01*
G01*
X-25025Y-6471D02*
G03*
X-35895Y-1969I-10871J-10871D01*
G01*
X-20069Y-5522D02*
G03*
X-9637Y-9843I10431J10431D01*
G01*
X-22037Y-9459D02*
G03*
X-11606Y-13780I10431J10431D01*
G01*
X-21053Y-7490D02*
G03*
X-10622Y-11811I10431J10431D01*
G01*
X-23056Y-2534D02*
G03*
X-33927Y1969I-10871J-10871D01*
G01*
X-24040Y-4503D02*
G03*
X-34911Y-0I-10871J-10871D01*
G01*
X180118Y-124221D02*
G03*
X179350Y-120378I-10000J0D01*
G01*
X178871Y-127231D02*
G03*
X180118Y-124221I-3010J3010D01*
G01*
X10709Y28577D02*
G03*
X9257Y32081I-4955J0D01*
G01*
X-10045Y47244D02*
G03*
X-10048Y47244I-2J-10000D01*
G01*
X-2977Y44315D02*
G03*
X-10045Y47244I-7071J-7071D01*
G01*
X8321Y30064D02*
G03*
X8321Y30065I-1996J-1994D01*
G01*
X9147Y28070D02*
G03*
X8321Y30064I-2821J0D01*
G01*
X-3961Y42347D02*
G03*
X-11032Y45276I-7071J-7071D01*
G01*
X-25789Y43307D02*
G03*
X-25796Y43307I-7J-10000D01*
G01*
X-18725Y40378D02*
G03*
X-25789Y43307I-7071J-7071D01*
G01*
X-9434Y26166D02*
G03*
X-5906Y22638I3528J0D01*
G01*
X-9434Y26166D02*
G03*
X-11287Y30641I-6327J0D01*
G01*
X-26124Y41339D02*
G03*
X-26128Y41339I-3J-10000D01*
G01*
X-19057Y38410D02*
G03*
X-26124Y41339I-7071J-7071D01*
G01*
X-70276Y31890D02*
G03*
X-71850Y33465I-1575J0D01*
G01*
X-88583D02*
G03*
X-90748Y31299I0J-2165D01*
G01*
X-51205Y29551D02*
G03*
X-65405Y35433I-14200J-14200D01*
G01*
X-89567D02*
G03*
X-93898Y31102I0J-4331D01*
G01*
X-49551Y30850D02*
G03*
X-65368Y37402I-15818J-15817D01*
G01*
X-124522D02*
G03*
X-138779Y31496I0J-20163D01*
G01*
X-132104Y45097D02*
G03*
X-123031Y41339I9072J9072D01*
G01*
X-115157Y50591D02*
G03*
X-109842Y45276I5316J-0D01*
G01*
X-113189Y50432D02*
G03*
X-110001Y47244I3188J-0D01*
G01*
X-125668Y48386D02*
G03*
X-120589Y43307I5079J-0D01*
G01*
X-114257Y60940D02*
G03*
X-115157Y58766I2174J-2174D01*
G01*
X-109252Y71850D02*
G03*
X-110678Y72441I-1426J-1426D01*
G01*
X-120573D02*
G03*
X-125668Y67347I0J-5094D01*
G01*
X6953Y18607D02*
G03*
X10709Y27673I-9067J9067D01*
G01*
X2953Y21654D02*
G03*
X-2088Y19566I0J-7129D01*
G01*
X3934Y21654D02*
G03*
X9147Y26867I0J5213D01*
G01*
X11980Y7874D02*
G03*
X14356Y8858I0J3360D01*
G01*
X16732Y9843D02*
G03*
X14356Y8858I0J-3360D01*
G01*
X33259Y9843D02*
G03*
X40330Y12772I0J10000D01*
G01*
X64000Y36441D02*
G03*
X66929Y43512I-7071J7071D01*
G01*
X13372Y5906D02*
G03*
X15748Y6890I0J3360D01*
G01*
X19803Y8569D02*
G03*
X15748Y6890I0J-5735D01*
G01*
X21485D02*
G03*
X16732Y4921I0J-6721D01*
G01*
X14356Y3937D02*
G03*
X16732Y4921I0J3360D01*
G01*
X-42527Y15137D02*
G03*
X-48755Y17717I-6228J-6228D01*
G01*
X-41135Y16529D02*
G03*
X-48755Y19685I-7620J-7620D01*
G01*
X-44902Y-1969D02*
G03*
X-47220Y-2929I0J-3279D01*
G01*
X35757Y8569D02*
G03*
X45901Y12772I0J14346D01*
G01*
X45037Y6890D02*
G03*
X52165Y9843I0J10081D01*
G01*
X51145Y2953D02*
G03*
X62968Y7850I0J16721D01*
G01*
X29935Y4921D02*
G03*
X20838Y1153I0J-12865D01*
G01*
X30920Y2953D02*
G03*
X21822Y-815I0J-12865D01*
G01*
X32888Y-984D02*
G03*
X23791Y-4752I0J-12865D01*
G01*
X53113Y-984D02*
G03*
X64937Y3913I0J16721D01*
G01*
X31904Y984D02*
G03*
X22807Y-2784I0J-12865D01*
G01*
X52129Y984D02*
G03*
X63953Y5882I0J16721D01*
G01*
X50161Y4921D02*
G03*
X61984Y9819I0J16721D01*
G01*
X58648Y41915D02*
G03*
X61024Y47652I-5737J5737D01*
G01*
X62585Y37978D02*
G03*
X64961Y43715I-5737J5737D01*
G01*
X60616Y39947D02*
G03*
X62992Y45683I-5737J5737D01*
G01*
X69858Y122023D02*
G03*
X64961Y110200I11823J-11823D01*
G01*
X69858Y104889D02*
G03*
X66929Y97817I7071J-7071D01*
G01*
X82559Y116693D02*
G03*
X81028Y116059I0J-2165D01*
G01*
X65921Y144492D02*
G03*
X61024Y132669I11823J-11823D01*
G01*
X67890Y143677D02*
G03*
X62992Y131853I11823J-11823D01*
G01*
X89630Y141796D02*
G03*
X92559Y148867I-7071J7071D01*
G01*
X88011Y158811D02*
G03*
X79497Y155284I0J-12041D01*
G01*
X87196Y160779D02*
G03*
X78681Y157253I0J-12041D01*
G01*
X102559Y157283D02*
G03*
X101032Y158811I-1527J0D01*
G01*
X112559Y159095D02*
G03*
X110874Y160779I-1685J0D01*
G01*
X180882Y-152780D02*
G03*
X177953Y-159851I7071J-7071D01*
G01*
X185063Y-148598D02*
G03*
X187992Y-141527I-7071J7071D01*
G01*
X179350Y-120378D02*
G03*
X179054Y-119733I-886J-16D01*
G01*
X179054Y-119733D02*
G03*
X177189Y-117150I-8936J-4488D01*
G01*
X175197Y-112374D02*
G03*
X177165Y-117126I6721J0D01*
G01*
X176575Y-106890D02*
G03*
X175197Y-108268I0J-1378D01*
G01*
X91741Y13780D02*
G03*
X84670Y10851I0J-10000D01*
G01*
X-61024Y20669D02*
G03*
X-63400Y21654I-2376J-2376D01*
G01*
X-61024Y20669D02*
G03*
X-58647Y19685I2376J2376D01*
G01*
X-65557Y21654D02*
G03*
X-69580Y19987I0J-5689D01*
G01*
X-59632Y17717D02*
G03*
X-62008Y16732I0J-3360D01*
G01*
X-66760Y14764D02*
G03*
X-62008Y16732I0J6721D01*
G01*
X-73425Y17323D02*
G03*
X-70866Y14764I2559J0D01*
G01*
X-69580Y19987D02*
G03*
X-70276Y18307I1680J-1680D01*
G01*
X30681Y11811D02*
G03*
X40474Y15868I-0J13849D01*
G01*
X19685Y16732D02*
G03*
X24606Y11811I4921J0D01*
G01*
X-64142D02*
G03*
X-59390Y13780I0J6721D01*
G01*
X-76575Y13583D02*
G03*
X-74803Y11811I1772J0D01*
G01*
X-106876Y66929D02*
G03*
X-109252Y65945I0J-3360D01*
G01*
Y71850D02*
G03*
X-106876Y70866I2376J2376D01*
G01*
X-184055Y-123161D02*
G03*
X-181126Y-130232I10000J0D01*
G01*
X-100197Y18307D02*
G03*
X-102559Y20669I-2362J0D01*
G01*
X-180550Y-30943D02*
G03*
X-184055Y-39406I8463J-8463D01*
G01*
X-179110Y-29504D02*
G03*
X-176181Y-22433I-7071J7071D01*
G01*
X-172676Y6289D02*
G03*
X-176181Y-2174I8463J-8463D01*
G01*
X-153338Y20669D02*
G03*
X-161801Y17164I0J-11969D01*
G01*
X-117126Y16732D02*
G03*
X-115157Y14764I1969J0D01*
G01*
X-98425D02*
G03*
X-97047Y16142I0J1378D01*
G01*
X-117126Y16732D02*
G03*
X-119095Y18701I-1969J0D01*
G01*
X-182087Y-62008D02*
G03*
X-179762Y-67620I7937J0D01*
G01*
X-179158Y-32335D02*
G03*
X-182087Y-39406I7071J-7071D01*
G01*
X-177718Y-30896D02*
G03*
X-174213Y-22433I-8463J8463D01*
G01*
X-171284Y4897D02*
G03*
X-174213Y-2174I7071J-7071D01*
G01*
X-153338Y18701D02*
G03*
X-160409Y15772I0J-10000D01*
G01*
X-129067Y16732D02*
G03*
X-136138Y13803I0J-10000D01*
G01*
X-119095Y14764D02*
G03*
X-121063Y16732I-1969J0D01*
G01*
X-119095Y14764D02*
G03*
X-117126Y12795I1969J0D01*
G01*
X-95472D02*
G03*
X-93898Y14370I0J1575D01*
G01*
X-163386Y39528D02*
G03*
X-153386Y29528I10000J0D01*
G01*
X-143532D02*
G03*
X-138779Y31496I0J6721D01*
G01*
X174803Y-103740D02*
G03*
X173228Y-105315I0J-1575D01*
G01*
Y-115157D02*
G03*
X175080Y-119627I6321J0D01*
G01*
X-116311Y-93504D02*
G03*
X-120079Y-97272I0J-3768D01*
G01*
X-121644Y-102205D02*
G03*
X-120079Y-98425I-3780J3780D01*
G01*
X-110665Y-95472D02*
G03*
X-118819Y-103627I0J-8154D01*
G01*
X-112839Y-104710D02*
G03*
X-115042Y-110030I5319J-5319D01*
G01*
X-115042Y-121178D02*
G03*
X-110236Y-125984I4806J0D01*
G01*
Y-97441D02*
G03*
X-116828Y-104032I0J-6591D01*
G01*
X-124016Y-125984D02*
G03*
X-116828Y-118796I0J7188D01*
G01*
X-84652Y-157480D02*
G03*
X-91535Y-164364I0J-6884D01*
G01*
X-95884Y-172444D02*
G03*
X-91535Y-168096I0J4349D01*
G01*
X76211Y7313D02*
G03*
X73681Y1206I6107J-6107D01*
G01*
X76214Y7316D02*
G03*
X78740Y13420I-6110J6103D01*
G01*
X76211Y7313D02*
G03*
X76214Y7316I-6107J6107D01*
G01*
X73843Y8882D02*
G03*
X76772Y15953I-7071J7071D01*
G01*
X71874Y10851D02*
G03*
X74803Y17922I-7071J7071D01*
G01*
X69906Y11835D02*
G03*
X72835Y18906I-7071J7071D01*
G01*
X67937Y12819D02*
G03*
X70866Y19890I-7071J7071D01*
G01*
X65969Y13803D02*
G03*
X68898Y20874I-7071J7071D01*
G01*
X124630Y137734D02*
G03*
X127559Y144805I-7071J7071D01*
G01*
X151174Y162591D02*
G03*
X152559Y165938I-3351J3347D01*
G01*
X151172Y162589D02*
G03*
X151174Y162591I-3349J3349D01*
G01*
X151573Y170278D02*
G03*
X149199Y171260I-2374J-2379D01*
G01*
X152559Y167899D02*
G03*
X151575Y170276I-3360J0D01*
G01*
D02*
G03*
X151573Y170278I-2376J-2376D01*
G01*
X142597Y173348D02*
G03*
X147638Y171260I5041J5041D01*
G01*
X128776Y187169D02*
G03*
X128779Y187165I6752J6745D01*
G01*
X125984Y193914D02*
G03*
X128776Y187169I9544J0D01*
G01*
X136620Y164572D02*
G03*
X135065Y160819I3752J-3752D01*
G01*
X146654Y164763D02*
G03*
X145074Y160946I3822J-3817D01*
G01*
X146656Y164766D02*
G03*
X146654Y164763I3820J-3820D01*
G01*
X140900Y162160D02*
G03*
X141732Y164170I-2014J2011D01*
G01*
X140899Y162158D02*
G03*
X140900Y162160I-2012J2012D01*
G01*
X141732Y168069D02*
G03*
X139476Y173516I-7704J0D01*
G01*
X138756Y174236D02*
G03*
X131685Y177165I-7071J-7071D01*
G01*
X122740Y180094D02*
G03*
X129811Y177165I7071J7071D01*
G01*
X71827Y93282D02*
G03*
X68898Y86211I7071J-7071D01*
G01*
X73795Y92467D02*
G03*
X70866Y85396I7071J-7071D01*
G01*
X75764Y91651D02*
G03*
X72835Y84580I7071J-7071D01*
G01*
X77732Y90836D02*
G03*
X74803Y83765I7071J-7071D01*
G01*
X79701Y90021D02*
G03*
X76772Y82950I7071J-7071D01*
G01*
X81669Y89205D02*
G03*
X78740Y82134I7071J-7071D01*
G01*
X83638Y88390D02*
G03*
X80709Y81319I7071J-7071D01*
G01*
X85606Y87575D02*
G03*
X82677Y80503I7071J-7071D01*
G01*
X104630Y126086D02*
G03*
X107559Y133157I-7071J7071D01*
G01*
X97559Y135914D02*
G03*
X100488Y128843I10000J0D01*
G01*
X119630Y135518D02*
G03*
X122559Y142589I-7071J7071D01*
G01*
X114630Y133302D02*
G03*
X117559Y140373I-7071J7071D01*
G01*
X129630Y139950D02*
G03*
X132559Y147021I-7071J7071D01*
G01*
X132136Y139673D02*
G03*
X135065Y146744I-7071J7071D01*
G01*
X143352Y145321D02*
G03*
X145074Y149481I-4166J4160D01*
G01*
X143350Y145318D02*
G03*
X143352Y145321I-4163J4163D01*
G01*
X140931Y145684D02*
G03*
X142559Y149617I-3939J3934D01*
G01*
X140929Y145681D02*
G03*
X140931Y145684I-3936J3936D01*
G01*
X149606Y142717D02*
G03*
X152559Y145669I0J2953D01*
G01*
X147843Y142717D02*
G03*
X140772Y139788I0J-10000D01*
G01*
X97989Y97005D02*
G03*
X95060Y89934I7071J-7071D01*
G01*
X126969Y98220D02*
G03*
X124040Y105291I-10000J0D01*
G01*
X126969Y79930D02*
G03*
X129897Y72859I10000J0D01*
G01*
X80709Y65166D02*
G03*
X83638Y58095I10000J0D01*
G01*
X82677Y66567D02*
G03*
X85606Y59496I10000J0D01*
G01*
X128937Y8653D02*
G03*
X126008Y15724I-10000J0D01*
G01*
Y-616D02*
G03*
X128937Y6455I-7071J7071D01*
G01*
X178126Y-151008D02*
G03*
X175197Y-158079I7071J-7071D01*
G01*
X166532Y-172444D02*
G03*
X175197Y-163779I0J8665D01*
G01*
X118110Y-101329D02*
G03*
X119954Y-105781I6296J0D01*
G01*
X124193Y-94095D02*
G03*
X118110Y-100177I0J-6082D01*
G01*
X121063Y-108268D02*
G03*
X120089Y-105915I-3327J0D01*
G01*
X110048Y-92520D02*
G03*
X102977Y-95449I0J-10000D01*
G01*
X97415Y-98425D02*
G03*
X95692Y-99139I0J-2438D01*
G01*
X98525Y-98326D02*
G03*
X101828Y-96598I-1109J6140D01*
G01*
X97415Y-98425D02*
G03*
X98525Y-98326I0J6240D01*
G01*
X92630Y-102200D02*
G03*
X90945Y-106274I4078J-4073D01*
G01*
X92633Y-102198D02*
G03*
X92630Y-102200I4076J-4076D01*
G01*
X68918Y-128777D02*
G03*
X61847Y-131706I0J-10000D01*
G01*
X44455Y-127256D02*
G03*
X37384Y-130185I0J-10000D01*
G01*
X-130757Y-7521D02*
G03*
X-123686Y-4592I0J10000D01*
G01*
X-55954Y-7521D02*
G03*
X-48883Y-4592I0J10000D01*
G01*
X8456Y-15945D02*
G03*
X15527Y-13016I0J10000D01*
G01*
X7669Y-13780D02*
G03*
X14740Y-10851I0J10000D01*
G01*
X6685Y-11811D02*
G03*
X13756Y-8882I0J10000D01*
G01*
X5700Y-9843D02*
G03*
X12772Y-6914I0J10000D01*
G01*
X-22744Y-13016D02*
G03*
X-15673Y-15945I7071J7071D01*
G01*
X-25719Y-16654D02*
G03*
X-30661Y-14606I-4942J-4942D01*
G01*
X-25715Y-16657D02*
G03*
X-20776Y-18701I4939J4946D01*
G01*
X-25719Y-16654D02*
G03*
X-25715Y-16657I4942J4942D01*
G01*
X28943Y-14606D02*
G03*
X24004Y-16650I0J-6990D01*
G01*
X19058Y-18701D02*
G03*
X24001Y-16654I0J6990D01*
G01*
X24004Y-16650D02*
G03*
X24001Y-16654I4939J-4946D01*
G01*
X53298Y-7521D02*
G03*
X60369Y-4592I0J10000D01*
G01*
X33181Y16654D02*
G03*
X40252Y19582I0J10000D01*
G01*
X34244Y21654D02*
G03*
X41315Y24582I0J10000D01*
G01*
X17071D02*
G03*
X24142Y21654I7071J7071D01*
G01*
X-160433Y53150D02*
G03*
X-156051Y54965I0J6197D01*
G01*
X-160433Y53150D02*
G03*
X-163386Y50197I0J-2953D01*
G01*
X8858Y9843D02*
G03*
X15000Y15984I0J6142D01*
G01*
X19685Y16732D02*
G03*
X14764Y21654I-4921J0D01*
G01*
D02*
G03*
X9843Y16732I0J-4921D01*
G01*
X7239Y12160D02*
G03*
X9843Y14764I0J2604D01*
G01*
X-19685Y16754D02*
G03*
X-15091Y12160I4594J0D01*
G01*
X-17591Y24062D02*
G03*
X-19685Y19008I5055J-5055D01*
G01*
X-3158Y22638D02*
G03*
X3913Y25567I0J10000D01*
G01*
X-104724Y61024D02*
G03*
X-101378Y64370I0J3347D01*
G01*
X-110236Y61024D02*
G03*
X-113189Y58071I0J-2953D01*
G01*
X97105Y-95472D02*
G03*
X90033Y-98401I0J-10000D01*
G01*
X-159244Y-65945D02*
G03*
X-166315Y-68874I0J-10000D01*
G01*
X-62377D02*
G03*
X-69448Y-65945I-7071J-7071D01*
G01*
X-166315Y-68874D02*
G03*
X-168307Y-73684I4810J-4810D01*
G01*
Y-93841D02*
G03*
X-165378Y-100912I10000J0D01*
G01*
X57077Y-122936D02*
G03*
X63976Y-120079I0J9757D01*
G01*
X12237Y-122936D02*
G03*
X5166Y-125865I0J-10000D01*
G01*
X837Y-127742D02*
G03*
X5024Y-126008I0J5920D01*
G01*
X-33984Y-127742D02*
G03*
X-41055Y-130671I0J-10000D01*
G01*
X-27716Y-187992D02*
G03*
X-17717Y-177992I0J10000D01*
G01*
X-167736Y-180689D02*
G03*
X-160433Y-187992I7303J0D01*
G01*
X-164807Y-166915D02*
G03*
X-167736Y-173986I7071J-7071D01*
G01*
X84646Y-61024D02*
G03*
X89530Y-56139I0J4885D01*
G01*
X62968Y-154551D02*
G03*
X64961Y-149741I-4810J4810D01*
G01*
X55897Y-157480D02*
G03*
X62968Y-154551I0J10000D01*
G01*
X-61983Y-100370D02*
G03*
X-69054Y-97441I-7071J-7071D01*
G01*
X19349Y-157480D02*
G03*
X12278Y-160409I0J-10000D01*
G01*
X-136163Y-125984D02*
G03*
X-143234Y-128913I0J-10000D01*
G01*
X148019Y-96527D02*
G03*
X140948Y-99456I0J-10000D01*
G01*
X10692Y-121063D02*
G03*
X12795Y-118959I0J2104D01*
G01*
X10692Y-121063D02*
G03*
X5882Y-123055I0J-6802D01*
G01*
X-1189Y-125984D02*
G03*
X5882Y-123055I0J10000D01*
G01*
X-160276Y-14606D02*
G03*
X-166339Y-20669I0J-6063D01*
G01*
Y-45276D02*
G03*
X-163583Y-48031I2756J0D01*
G01*
X94685D02*
G03*
X91535Y-51181I0J-3150D01*
G01*
X86444Y-63976D02*
G03*
X87775Y-63799I0J5091D01*
G01*
X-9435Y-63976D02*
G03*
X-11811Y-64961I0J-3360D01*
G01*
X-28755Y-65945D02*
G03*
X-35826Y-68874I0J-10000D01*
G01*
X-16142Y-79134D02*
G03*
X-12795Y-75787I0J3347D01*
G01*
X-50228Y-79134D02*
G03*
X-43157Y-76205I0J10000D01*
G01*
X-10236Y-79134D02*
G03*
X-12795Y-81693I0J-2559D01*
G01*
X-17717Y-95472D02*
G03*
X-12795Y-90551I0J4921D01*
G01*
X-45279Y-97438D02*
G03*
X-50028Y-95472I-4749J-4755D01*
G01*
X-29696D02*
G03*
X-34449Y-97441I0J-6721D01*
G01*
X-45276Y-97441D02*
G03*
X-40523Y-99410I4752J4752D01*
G01*
X-38999D02*
G03*
X-34591Y-97584I0J6234D01*
G01*
X-121307Y-110236D02*
G03*
X-118819Y-107748I0J2488D01*
G01*
X121063Y-110236D02*
G03*
X117126Y-114173I0J-3937D01*
G01*
X114173Y-125984D02*
G03*
X117126Y-123031I0J2953D01*
G01*
X15748Y-125984D02*
G03*
X11131Y-130601I0J-4617D01*
G01*
X7563Y-141339D02*
G03*
X11131Y-137771I0J3568D01*
G01*
X16142Y-141339D02*
G03*
X12795Y-144685I0J-3347D01*
G01*
X8858Y-157480D02*
G03*
X12795Y-153543I0J3937D01*
G01*
X91358Y-60216D02*
G03*
X91535Y-58885I-4914J1331D01*
G01*
X87775Y-63799D02*
G03*
X91358Y-60216I-1331J4914D01*
G01*
X-45276Y-97441D02*
G03*
X-45279Y-97438I-4752J-4752D01*
G01*
X-35457Y-74179D02*
G03*
X-38386Y-81250I7071J-7071D01*
G01*
X-40378Y-90575D02*
G03*
X-38386Y-85765I-4810J4810D01*
G01*
X-47449Y-93504D02*
G03*
X-40378Y-90575I0J10000D01*
G01*
X14111Y-124507D02*
G03*
X7331Y-132432I1244J-7926D01*
G01*
X110121Y-124507D02*
G03*
X115331Y-119297I0J5210D01*
G01*
Y-111355D02*
G03*
X112401Y-104284I-10000J0D01*
G01*
X-67126Y28937D02*
X-66929Y28740D01*
Y24606D02*
Y28740D01*
X178150Y-17849D02*
Y-7298D01*
X186024Y-103543D02*
Y-34007D01*
X181079Y-24920D02*
X183095Y-26936D01*
X-123686Y-4592D02*
X-120055Y-960D01*
X-112984Y1969D02*
X-33927D01*
X-86409Y0D02*
X-34911D01*
X-95143Y-4592D02*
X-93480Y-2929D01*
X179134Y-27559D02*
Y-27530D01*
Y-35523D02*
Y-27559D01*
X71850Y-30512D02*
X157899D01*
X162402Y-26009D02*
Y-7268D01*
X80077Y-32480D02*
X157393D01*
X164370Y-25503D02*
Y-6284D01*
X12686Y-28543D02*
X155523D01*
X77953Y-38151D02*
Y-34605D01*
X95515Y-34449D02*
X140816D01*
X134819Y289D02*
X142574Y-7467D01*
X131890Y7360D02*
Y9070D01*
X85606Y59496D02*
X128961Y16141D01*
X184471Y-105141D02*
Y-47866D01*
X182821Y-145307D02*
Y-47423D01*
X181494Y-136420D02*
Y-48597D01*
X155905Y-79134D02*
X161892D01*
X168307Y-72719D02*
Y-4822D01*
X170163Y-81139D02*
Y-4054D01*
X165853Y-89591D02*
X167234Y-88210D01*
X167693Y-91166D02*
X169315Y-89543D01*
X172244Y-82472D02*
Y-3192D01*
X174213Y-35228D02*
Y-2376D01*
X177141Y-42299D02*
X180118Y-45276D01*
X179110Y-41315D02*
X181126Y-43331D01*
X176181Y-34244D02*
Y-3158D01*
X157457Y19709D02*
X173252Y3913D01*
X154528Y26780D02*
Y44086D01*
X129897Y72859D02*
X151599Y51157D01*
X110984Y55577D02*
X166132Y429D01*
X125689Y49224D02*
X172037Y2875D01*
X115689Y53497D02*
X167987Y1198D01*
X166339Y-45276D02*
Y-5638D01*
X105984Y57793D02*
X164163Y-386D01*
X98170Y62993D02*
X162195Y-1032D01*
X120689Y51440D02*
X170069Y2060D01*
X95964Y62246D02*
X160226Y-2017D01*
X149862Y-14606D02*
X158027D01*
X160591Y-12043D02*
Y-7936D01*
X90844Y64581D02*
X158631Y-3206D01*
X178740Y-100591D02*
Y-74769D01*
X180118Y-71443D02*
Y-64831D01*
X177165Y-57736D02*
X177189Y-57760D01*
X169178Y-123145D02*
Y-99950D01*
X167323Y-119914D02*
Y-103824D01*
X-49551Y30850D02*
X-36368Y17667D01*
X-17478Y9843D02*
X8858D01*
X-41135Y16529D02*
X-37698Y13092D01*
X-42527Y15137D02*
X-39090Y11700D01*
X-20348Y5906D02*
X13372D01*
X-20348Y3937D02*
X14356D01*
X-18462Y7874D02*
X11980D01*
X-51205Y29551D02*
X-37352Y15698D01*
X-24040Y-4503D02*
X-21053Y-7490D01*
X-23056Y-2534D02*
X-20069Y-5522D01*
X-25025Y-6471D02*
X-22037Y-9459D01*
X-44902Y-1969D02*
X-35895D01*
X177165Y-128937D02*
X178871Y-127231D01*
X10709Y27673D02*
Y28577D01*
X-2977Y44315D02*
X9257Y32081D01*
X-110001Y47244D02*
X-16915Y47244D01*
X-10048D01*
X9147Y26867D02*
Y28070D01*
X8321Y30065D02*
X8321Y30064D01*
X-3961Y42347D02*
X8321Y30065D01*
X-109842Y45276D02*
X-11032D01*
X-18725Y40378D02*
X-5000Y26654D01*
X-120589Y43307D02*
X-26296Y43307D01*
X-25796D01*
X-19057Y38410D02*
X-11287Y30641D01*
X-123031Y41339D02*
X-35030Y41339D01*
X-26128D01*
X-70276Y28937D02*
Y31890D01*
X-88583Y33465D02*
X-71850D01*
X-90748Y28937D02*
Y31299D01*
X-89567Y35433D02*
X-65405D01*
X-124522Y37402D02*
X-65368D01*
X-146063Y59055D02*
X-132104Y45097D01*
X-123031Y41339D02*
X-123031Y41339D01*
X-115157Y50591D02*
Y58766D01*
X-113189Y50432D02*
Y58071D01*
X-125668Y48386D02*
X-125668D01*
Y62598D02*
Y67347D01*
X-120573Y72441D02*
X-110678D01*
X-125668Y48386D02*
Y62598D01*
X-152268D02*
X-125668D01*
X5000Y16654D02*
X6953Y18607D01*
X-5000Y16654D02*
X-2088Y19566D01*
X2953Y21654D02*
X3934D01*
X-93898Y28937D02*
Y31102D01*
X16732Y9843D02*
X33259D01*
X40330Y12772D02*
X64000Y36441D01*
X66929Y43512D02*
Y97817D01*
X19803Y8569D02*
X35757D01*
X21485Y6890D02*
X45037D01*
X-59632Y17717D02*
X-48755D01*
X-58647Y19685D02*
X-48755D01*
X32888Y-984D02*
X53113D01*
X30920Y2953D02*
X51145D01*
X31904Y984D02*
X52129D01*
X29935Y4921D02*
X50161D01*
X15527Y-13016D02*
X23791Y-4752D01*
X13756Y-8882D02*
X21822Y-815D01*
X14740Y-10851D02*
X22807Y-2784D01*
X12772Y-6914D02*
X20838Y1153D01*
X62992Y45683D02*
Y131853D01*
X40252Y19582D02*
X60616Y39947D01*
X40474Y15868D02*
X62585Y37978D01*
X64961Y43715D02*
Y110200D01*
X61024Y47652D02*
Y132669D01*
X41315Y24582D02*
X58648Y41915D01*
X69858Y104889D02*
X81028Y116059D01*
X69858Y122023D02*
X89630Y141796D01*
X92559Y148867D02*
Y152087D01*
X65921Y144492D02*
X78681Y157253D01*
X88011Y158811D02*
X101032D01*
X67890Y143677D02*
X79497Y155284D01*
X87196Y160779D02*
X110874D01*
X177953Y-187992D02*
Y-159851D01*
X180882Y-152780D02*
X185063Y-148598D01*
X187992Y-141527D02*
Y-128937D01*
X177165Y-117126D02*
X177189Y-117150D01*
X175197Y-112374D02*
Y-108268D01*
X176575Y-106890D02*
X178740D01*
X91741Y13780D02*
X123681D01*
X83661Y9843D02*
X84670Y10851D01*
X45901Y12772D02*
X46909Y13780D01*
X-65557Y21654D02*
X-63400D01*
X-73425Y17323D02*
Y18307D01*
X-70866Y14764D02*
X-66760D01*
X24606Y11811D02*
X30681D01*
X-74803D02*
X-64142D01*
X-76575Y13583D02*
Y18307D01*
X-114257Y60940D02*
X-109252Y65945D01*
X-106876Y66929D02*
X-103937D01*
X-106876Y70866D02*
X-103839D01*
X-181126Y-130232D02*
X-177165Y-134193D01*
X-184055Y-123161D02*
Y-39406D01*
X-153338Y20669D02*
X-102559D01*
X-180550Y-30943D02*
X-179110Y-29504D01*
X-176181Y-22433D02*
Y-2174D01*
X-172676Y6289D02*
X-161801Y17164D01*
X-115157Y14764D02*
X-98425D01*
X-182087Y-62008D02*
Y-39406D01*
X-179158Y-32335D02*
X-177718Y-30896D01*
X-174213Y-22433D02*
Y-2174D01*
X-171284Y4897D02*
X-160409Y15772D01*
X-153338Y18701D02*
X-119095D01*
X-97047Y16142D02*
Y18307D01*
X-179762Y-67620D02*
X-177165Y-70217D01*
X-136161Y13780D02*
X-136138Y13803D01*
X-129067Y16732D02*
X-121063D01*
X-117126Y12795D02*
X-95472D01*
X-93898Y14370D02*
Y18307D01*
X-163386Y39528D02*
Y50197D01*
X-153386Y29528D02*
X-143532D01*
X174803Y-103740D02*
X178740D01*
X173228Y-115157D02*
Y-105315D01*
X175080Y-119627D02*
X177165Y-121713D01*
X-116311Y-93504D02*
X-47449D01*
X-120079Y-98425D02*
Y-97272D01*
X-122590Y-103151D02*
X-121644Y-102205D01*
X-118819Y-107748D02*
Y-103627D01*
X-110665Y-95472D02*
X-50028D01*
X-115042Y-121178D02*
Y-110030D01*
X-116828Y-118796D02*
Y-104032D01*
X-91535Y-168096D02*
Y-164364D01*
X-84652Y-157480D02*
X8858D01*
X-155905Y-172441D02*
X-103940D01*
X-103937Y-172444D02*
X-95884D01*
X78740Y13420D02*
Y82134D01*
X60369Y-4592D02*
X73843Y8882D01*
X76772Y15953D02*
Y82950D01*
X64937Y3913D02*
X71874Y10851D01*
X74803Y17922D02*
Y83765D01*
X72835Y18906D02*
Y84580D01*
X63953Y5882D02*
X69906Y11835D01*
X62968Y7850D02*
X67937Y12819D01*
X70866Y19890D02*
Y85396D01*
X68898Y20874D02*
Y86211D01*
X61984Y9819D02*
X65969Y13803D01*
X77732Y90836D02*
X124630Y137734D01*
X127559Y144805D02*
Y152087D01*
X148622Y160039D02*
X151172Y162589D01*
X152559Y165938D02*
Y167899D01*
X147638Y171260D02*
X149199D01*
X128779Y187165D02*
X142597Y173348D01*
X125984Y193914D02*
Y196850D01*
X135065Y146744D02*
Y160819D01*
X136620Y164572D02*
X138780Y166732D01*
X145074Y149481D02*
Y160946D01*
X146656Y164766D02*
X148622Y166732D01*
X138780Y160039D02*
X140899Y162158D01*
X141732Y164170D02*
Y168069D01*
X138756Y174236D02*
X139476Y173516D01*
X129811Y177165D02*
X131685D01*
X105984Y196850D02*
X122740Y180094D01*
X112559Y152087D02*
Y159095D01*
X102559Y152087D02*
Y157283D01*
X71827Y93282D02*
X104630Y126086D01*
X73795Y92467D02*
X114630Y133302D01*
X75764Y91651D02*
X119630Y135518D01*
X79701Y90021D02*
X129630Y139950D01*
X81669Y89205D02*
X132136Y139673D01*
X80709Y65166D02*
Y81319D01*
X83638Y88390D02*
X140929Y145681D01*
X85606Y87575D02*
X143350Y145318D01*
X82677Y66567D02*
Y80503D01*
X107559Y133157D02*
Y152087D01*
X100488Y128843D02*
X101519Y127812D01*
X97559Y135914D02*
Y152087D01*
X122559Y142589D02*
Y152087D01*
X117559Y140373D02*
Y152087D01*
X132559Y147021D02*
Y152087D01*
X142559Y149617D02*
Y152087D01*
X97989Y97005D02*
X140772Y139788D01*
X147843Y142717D02*
X149606D01*
X152559Y145669D02*
Y152087D01*
X95060Y70499D02*
Y89934D01*
X126969Y79930D02*
Y98220D01*
X118110Y111221D02*
X124040Y105291D01*
X83638Y58095D02*
X126008Y15724D01*
X87854Y71800D02*
Y81004D01*
X92854Y69752D02*
Y81004D01*
X102854Y65349D02*
Y81004D01*
X107854Y63133D02*
Y81004D01*
X112559Y61053D02*
Y81299D01*
X117559Y58996D02*
Y81299D01*
X122559Y56780D02*
Y81299D01*
X128937Y6455D02*
Y8653D01*
X119103Y-7521D02*
X126008Y-616D01*
X124193Y-94095D02*
X160622D01*
X110048Y-92520D02*
X158782D01*
X64961Y-48031D02*
Y-37402D01*
X155905Y-48031D02*
X163583D01*
X178126Y-151008D02*
X182110Y-147023D01*
X175197Y-163779D02*
Y-158079D01*
X155905Y-172444D02*
X166532D01*
X155905Y-141339D02*
X176575D01*
X118110Y-101329D02*
Y-100177D01*
X119954Y-105781D02*
X120089Y-105915D01*
X121063Y-110236D02*
Y-108268D01*
X101828Y-96598D02*
X102977Y-95449D01*
X92633Y-102198D02*
X95692Y-99139D01*
X90945Y-110236D02*
Y-106274D01*
X68918Y-128777D02*
X163546D01*
X59300Y-134253D02*
X61847Y-131706D01*
X44455Y-127256D02*
X159980D01*
X33316Y-134253D02*
X37384Y-130185D01*
X-142511Y-7521D02*
X-130757D01*
X-104420D02*
X-102214D01*
X-48883Y-4592D02*
X-47220Y-2929D01*
X-66330Y-7521D02*
X-55954D01*
X-15673Y-15945D02*
X8456D01*
X-11606Y-13780D02*
X7669D01*
X-10622Y-11811D02*
X6685D01*
X-9637Y-9843D02*
X5700D01*
X-28239Y-7521D02*
X-22744Y-13016D01*
X-20776Y-18701D02*
X19058D01*
X-35571Y-14606D02*
X-30661D01*
X28943D02*
X35591D01*
X73681Y-4725D02*
Y1206D01*
X42922Y-7521D02*
X53298D01*
X25000Y16654D02*
X33181D01*
X24142Y21654D02*
X34244D01*
X15000Y26654D02*
X17071Y24582D01*
X-156051Y54965D02*
X-155504Y55512D01*
X15000Y15984D02*
Y16654D01*
X9843Y14764D02*
Y16732D01*
X-15091Y12160D02*
X7239D01*
X-19685Y16754D02*
Y19008D01*
X-17591Y24062D02*
X-15000Y26654D01*
X3913Y25567D02*
X5000Y26654D01*
X-5906Y22638D02*
X-3158D01*
X-110236Y61024D02*
X-104724D01*
X-146063Y59055D02*
X-146063Y59055D01*
X-152268Y59055D02*
X-146063D01*
X77953Y-38186D02*
Y-38151D01*
X147559Y158976D02*
X148622Y160039D01*
X147559Y152087D02*
Y158976D01*
X137559Y152087D02*
Y158818D01*
X138780Y160039D01*
X149827Y-4725D02*
X149862Y-4760D01*
X97105Y-95472D02*
X98425D01*
X85284Y-103151D02*
X90033Y-98401D01*
X-159244Y-65945D02*
X-69448D01*
X-62377Y-68874D02*
X-59257Y-71994D01*
X-168307Y-93841D02*
Y-73684D01*
X-165378Y-100912D02*
X-163194Y-103096D01*
X111772Y-4760D02*
Y-4725D01*
X12237Y-122936D02*
X57077D01*
X5024Y-126008D02*
X5166Y-125865D01*
X-33984Y-127742D02*
X837D01*
X-44637Y-134253D02*
X-41055Y-130671D01*
X-17717Y-177992D02*
Y-175197D01*
X-160433Y-187992D02*
X-27716D01*
X-164807Y-166915D02*
X-163194Y-165301D01*
X-167736Y-180689D02*
Y-173986D01*
X73681Y-4760D02*
Y-4725D01*
X-122590Y-62992D02*
X-15748D01*
X143135Y-35409D02*
X148617Y-40892D01*
X89530Y-56139D02*
Y-40433D01*
X62992Y-61024D02*
X84646D01*
X64961Y-149741D02*
Y-145669D01*
X19349Y-157480D02*
X55897D01*
X-61983Y-100370D02*
X-59257Y-103096D01*
X-110236Y-97441D02*
X-69054D01*
X7332Y-165355D02*
X12278Y-160409D01*
X-136163Y-125984D02*
X-124016D01*
X-148574Y-134253D02*
X-143234Y-128913D01*
X148019Y-96527D02*
X160025D01*
X137253Y-103151D02*
X140948Y-99456D01*
X12795Y-118959D02*
Y-115157D01*
X-110236Y-125984D02*
X-1189D01*
X-112839Y-104710D02*
X-111225Y-103096D01*
X-160276Y-14606D02*
X-149843D01*
X-163583Y-48031D02*
X-155905D01*
X-166339Y-45276D02*
Y-20669D01*
X94685Y-48031D02*
X103937D01*
X91535Y-58885D02*
Y-51181D01*
X-9435Y-63976D02*
X86444D01*
X-12795Y-65945D02*
X-11811Y-64961D01*
X-28755Y-65945D02*
X-12795D01*
X-43157Y-76205D02*
X-35826Y-68874D01*
X-25984Y-79134D02*
X-16142D01*
X-51968D02*
X-50228D01*
X-10236D02*
X0D01*
X-12795Y-90551D02*
Y-81693D01*
X-29696Y-95472D02*
X-17717D01*
X-34591Y-97584D02*
X-34449Y-97441D01*
X-40523Y-99410D02*
X-38999D01*
X-129921Y-110236D02*
X-121307D01*
X121063D02*
X129921D01*
X117126Y-123031D02*
Y-114173D01*
X15748Y-125984D02*
X114173D01*
X11131Y-137771D02*
Y-130601D01*
X0Y-141339D02*
X7563D01*
X16142D02*
X25984D01*
X12795Y-153543D02*
Y-144685D01*
X35591Y-14606D02*
X73681D01*
X111772D02*
X149862D01*
X73681D02*
X111772D01*
X-111752D02*
X-73661D01*
X-35571D01*
X-149843D02*
X-111752D01*
X64961Y-48031D02*
X77953D01*
X51968D02*
X64961D01*
X-25984D02*
X0D01*
X-51968D02*
X-25984D01*
X25984D02*
X51968D01*
X0D02*
X25984D01*
X-103937D02*
X-77953D01*
X-129921D02*
X-103937D01*
X-77953D02*
X-51968D01*
X129921D02*
X155905D01*
X103937D02*
X129921D01*
X-12795Y-75787D02*
Y-65945D01*
X-129921Y-79134D02*
X-103937D01*
X-155905D02*
X-129921D01*
X-77953D02*
X-51968D01*
X-103937D02*
X-77953D01*
X51968D02*
X77953D01*
X25984D02*
X51968D01*
X129921D02*
X155905D01*
X103937D02*
X129921D01*
X77953D02*
X103937D01*
X0D02*
X25984D01*
X-155905Y-110236D02*
X-129921D01*
X90945D02*
X103937D01*
X25984D02*
X51968D01*
X0D02*
X25984D01*
X77953D02*
X90945D01*
X51968D02*
X77953D01*
X-77953D02*
X-51968D01*
X-103937D02*
X-77953D01*
X-25984D02*
X0D01*
X-51968D02*
X-25984D01*
X129921D02*
X155905D01*
X-129921Y-141339D02*
X-103937D01*
X-77953D01*
X-155905D02*
X-129921D01*
X-51968D02*
X-25984D01*
X-77953D02*
X-51968D01*
X-25984D02*
X0D01*
X129921D02*
X155905D01*
X103937D02*
X129921D01*
X77953D02*
X103937D01*
X51968D02*
X77953D01*
X25984D02*
X51968D01*
X-103940Y-172441D02*
X-103937Y-172444D01*
X87559Y81299D02*
X87854Y81004D01*
X92559Y81299D02*
X92854Y81004D01*
X102559Y81299D02*
X102854Y81004D01*
X107559Y81299D02*
X107854Y81004D01*
X-35457Y-74179D02*
X-33272Y-71994D01*
X-38386Y-85765D02*
Y-81250D01*
X14111Y-124507D02*
X110121D01*
X111268Y-103151D02*
X112401Y-104284D01*
X115331Y-119297D02*
Y-111355D01*
X7331Y-134253D02*
Y-132432D01*
X-38976Y-172444D02*
X0D01*
X129921D02*
X155905D01*
X103937D02*
X129921D01*
X77953D02*
X103937D01*
X38976D02*
X77953D01*
X0D02*
X38976D01*
X-77953D02*
X-38976D01*
D16*
X-31496Y118110D02*
G03*
X-8152Y87687I31496J0D01*
G01*
D02*
G03*
X-3937Y91902I0J4215D01*
G01*
X8152Y87687D02*
G03*
X31496Y118110I-8152J30423D01*
G01*
X3937Y91902D02*
G03*
X8152Y87687I4215J0D01*
G01*
X26496Y141733D02*
G03*
X31496Y146733I0J5000D01*
G01*
Y128858D02*
G03*
X26496Y133858I-5000J0D01*
G01*
X-3937Y183688D02*
G03*
X-8152Y187903I-4215J0D01*
G01*
D02*
G03*
X-31496Y157480I8152J-30423D01*
G01*
X8152Y187904D02*
G03*
X3937Y183689I0J-4215D01*
G01*
X31496Y157481D02*
G03*
X8152Y187904I-31496J0D01*
G01*
X8937Y133858D02*
G03*
X3937Y128858I0J-5000D01*
G01*
X-26496Y133858D02*
G03*
X-31496Y128858I0J-5000D01*
G01*
X-3937D02*
G03*
X-8937Y133858I-5000J0D01*
G01*
X3937Y146733D02*
G03*
X8937Y141733I5000J0D01*
G01*
X-8937Y141732D02*
G03*
X-3937Y146732I0J5000D01*
G01*
X-31496D02*
G03*
X-26496Y141732I5000J0D01*
G01*
X194883Y3937D02*
G03*
X187008Y11812I-7875J0D01*
G01*
Y-196851D02*
G03*
X194883Y-188976I0J7875D01*
G01*
X-194883D02*
G03*
X-187008Y-196851I7875J0D01*
G01*
Y11812D02*
G03*
X-194883Y3937I0J-7875D01*
G01*
X-180197Y11811D02*
G03*
X-171661Y15347I0J12071D01*
G01*
X171661D02*
G03*
X180197Y11811I8535J8535D01*
G01*
X-170858Y16150D02*
G03*
X-167323Y24685I-8535J8535D01*
G01*
X162402Y29606D02*
G03*
X165937Y21071I12071J0D01*
G01*
X-163787Y186606D02*
G03*
X-167323Y178071I8535J-8535D01*
G01*
X-132795Y212598D02*
G03*
X-141331Y209063I0J-12071D01*
G01*
X141331D02*
G03*
X132795Y212598I-8535J-8535D01*
G01*
X162402Y182992D02*
G03*
X158866Y191528I-12071J0D01*
G01*
X-3937Y91902D02*
Y128858D01*
X31496Y128858D02*
X31496Y118110D01*
X3937Y91902D02*
Y128858D01*
X-31496Y118110D02*
Y128858D01*
X31496Y146733D02*
Y157481D01*
X-3937Y146732D02*
Y183688D01*
X-31496Y146732D02*
Y157480D01*
X3937Y146733D02*
Y183689D01*
X8937Y133858D02*
X26496D01*
X-26496D02*
X-8937D01*
X8937Y141733D02*
X26496D01*
X-26496Y141732D02*
X-8937D01*
X194882Y-188977D02*
Y3938D01*
X180197Y11811D02*
X187009D01*
X-187009Y-196850D02*
X187009D01*
X-194882Y-188977D02*
Y3938D01*
X-187009Y11811D02*
X-180197D01*
X-171661Y15347D02*
X-171260Y15748D01*
X171260D02*
X171661Y15347D01*
X-171260Y15748D02*
X-170858Y16150D01*
X-167323Y24685D02*
Y31575D01*
X165937Y21071D02*
X171260Y15748D01*
X162402Y29606D02*
Y29766D01*
X-167323Y31575D02*
Y178071D01*
X-163787Y186606D02*
X-141331Y209063D01*
X-132795Y212598D02*
X132795D01*
X141331Y209063D02*
X158866Y191528D01*
X162402Y29766D02*
Y182992D01*
D17*
X-83465Y129527D02*
D03*
X-109449Y129527D02*
D03*
D18*
X-92520Y107283D02*
D03*
X-100394D02*
D03*
D19*
X-152165Y48229D02*
D03*
X-158858D02*
D03*
X-146063Y59055D02*
D03*
X-139370Y59055D02*
D03*
X-106889Y27559D02*
D03*
X-113582Y27559D02*
D03*
X-98819Y57087D02*
D03*
X-92126D02*
D03*
X-99016Y57086D02*
D03*
X-105709D02*
D03*
X-100000Y96457D02*
D03*
X-106693Y96457D02*
D03*
X-92914Y96456D02*
D03*
X-86221D02*
D03*
D20*
X-155504Y55512D02*
D03*
X-152268D02*
D03*
X-152268Y59055D02*
D03*
X-155504Y62598D02*
D03*
X-152268D02*
D03*
D21*
X-163041Y59055D02*
D03*
D22*
X-177165Y-70217D02*
D03*
Y-57736D02*
D03*
Y-134193D02*
D03*
Y-121713D02*
D03*
X177165D02*
D03*
Y-134193D02*
D03*
Y-57736D02*
D03*
Y-70217D02*
D03*
D23*
X177953Y-187992D02*
D03*
X186221D02*
D03*
D24*
X178740Y-100591D02*
D03*
X178740Y-103740D02*
D03*
Y-106890D02*
D03*
X178740Y-110039D02*
D03*
X189370Y-100591D02*
D03*
Y-103740D02*
D03*
Y-106890D02*
D03*
Y-110039D02*
D03*
D25*
X188977Y-92914D02*
D03*
X188977Y-86221D02*
D03*
X148622Y166732D02*
D03*
X148622Y160039D02*
D03*
X138780Y166732D02*
D03*
X138780Y160039D02*
D03*
X-83662Y27953D02*
D03*
X-83662Y21260D02*
D03*
X-86956Y71509D02*
D03*
X-86956Y78202D02*
D03*
X-93504Y89961D02*
D03*
Y83268D02*
D03*
X-99410Y89961D02*
D03*
X-99410Y83268D02*
D03*
X-85630Y64370D02*
D03*
Y57678D02*
D03*
D26*
X152559Y152087D02*
D03*
X92559Y81299D02*
D03*
X97559D02*
D03*
X102559D02*
D03*
X107559D02*
D03*
X112559D02*
D03*
X117559D02*
D03*
X122559D02*
D03*
X147559Y152087D02*
D03*
X142559D02*
D03*
X137559D02*
D03*
X132559D02*
D03*
X127559D02*
D03*
X122559D02*
D03*
X117559D02*
D03*
X112559D02*
D03*
X107559D02*
D03*
X102559D02*
D03*
X92559D02*
D03*
X87559D02*
D03*
X97559D02*
D03*
X87559Y81299D02*
D03*
D27*
X132559Y81693D02*
D03*
X142559D02*
D03*
X152559D02*
D03*
D28*
X82559Y116693D02*
D03*
D29*
X6299Y-24409D02*
D03*
X-6299D02*
D03*
Y-5118D02*
D03*
X6299D02*
D03*
D30*
X-136161Y13780D02*
D03*
X-123681Y13780D02*
D03*
X-59390D02*
D03*
X-46909D02*
D03*
X123681D02*
D03*
X136161D02*
D03*
X46909D02*
D03*
X59390D02*
D03*
D31*
X-76575Y18307D02*
D03*
X-73425Y18307D02*
D03*
X-70276D02*
D03*
X-67126Y18307D02*
D03*
X-76575Y28937D02*
D03*
X-73425D02*
D03*
X-70276D02*
D03*
X-67126D02*
D03*
X-100197Y18307D02*
D03*
X-97047D02*
D03*
X-93898Y18307D02*
D03*
X-90748D02*
D03*
X-100197Y28937D02*
D03*
X-97047D02*
D03*
X-93898D02*
D03*
X-90748Y28937D02*
D03*
D32*
X-101378Y64370D02*
D03*
X-95473D02*
D03*
X-95473Y75394D02*
D03*
X-101378D02*
D03*
D33*
X-99410Y64468D02*
D03*
X-97441Y64468D02*
D03*
Y75295D02*
D03*
X-99410D02*
D03*
D34*
X-92913Y66929D02*
D03*
Y72835D02*
D03*
X-103937Y72835D02*
D03*
Y66929D02*
D03*
D35*
X-93012Y68898D02*
D03*
Y70866D02*
D03*
X-103839D02*
D03*
X-103839Y68898D02*
D03*
D36*
X-98425Y69882D02*
D03*
D37*
X-80067Y79580D02*
D03*
Y72100D02*
D03*
D38*
X6901Y44752D02*
G03*
X-58451Y71822I-65352J-65352D01*
G01*
X6901Y44752D02*
X25000Y26654D01*
X-62996Y71822D02*
X-58451D01*
X-79789D02*
X-62996D01*
X-86921Y71544D02*
X-80623D01*
X-79789Y71822D02*
X-79724Y71757D01*
X-80345Y71822D02*
X-79789D01*
X-80623Y71544D02*
X-80067Y72100D01*
D65*
X-66929Y24606D02*
D03*
X179134Y-4951D02*
D03*
Y-27559D02*
D03*
X157899D02*
D03*
X-6299Y-29685D02*
D03*
X188976Y-80709D02*
D03*
X190945Y-137795D02*
D03*
X177165D02*
D03*
X128937Y19685D02*
D03*
X59390D02*
D03*
X-55973Y50868D02*
D03*
Y8858D02*
D03*
X177165Y-128937D02*
D03*
X142717Y74803D02*
D03*
X187992Y-128937D02*
D03*
X83661Y9843D02*
D03*
X52165D02*
D03*
X-103475Y79064D02*
D03*
X-110678Y68898D02*
D03*
X-98425Y69882D02*
D03*
X-90748Y14764D02*
D03*
X-64567Y18307D02*
D03*
X178740Y-113582D02*
D03*
X-83662Y16733D02*
D03*
X-118109Y27559D02*
D03*
X101519Y127812D02*
D03*
X118110Y111221D02*
D03*
X-110236Y57086D02*
D03*
X-111220Y96457D02*
D03*
X-81694Y96456D02*
D03*
X-74556Y79580D02*
D03*
X-80067Y85091D02*
D03*
X-86956Y82729D02*
D03*
X-158858Y43702D02*
D03*
X-134843Y59055D02*
D03*
X157194Y-7521D02*
D03*
X163237Y-165355D02*
D03*
X98425Y-95472D02*
D03*
X85284Y-103151D02*
D03*
X59300Y-40946D02*
D03*
X-44637Y-72048D02*
D03*
X-18653Y-134253D02*
D03*
X-148574Y-103151D02*
D03*
X-122590Y-165355D02*
D03*
X119103Y-7521D02*
D03*
X104484Y-7467D02*
D03*
X163237Y-72048D02*
D03*
X59300Y-103151D02*
D03*
X137253Y-165355D02*
D03*
X63976Y-120079D02*
D03*
X33316Y-40946D02*
D03*
X-70621Y-72048D02*
D03*
X-17717Y-175197D02*
D03*
X-44637Y-134253D02*
D03*
X137253Y-72048D02*
D03*
X163237Y-134253D02*
D03*
X111268Y-165355D02*
D03*
X81013Y-7521D02*
D03*
X66393Y-7467D02*
D03*
X7331Y-40946D02*
D03*
X33316Y-103151D02*
D03*
X-96606Y-72048D02*
D03*
X-70621Y-134253D02*
D03*
X96649Y-71994D02*
D03*
X111268Y-72048D02*
D03*
X137253Y-134253D02*
D03*
X85284Y-165355D02*
D03*
X42922Y-7521D02*
D03*
X-15748Y-62992D02*
D03*
X-18653Y-40946D02*
D03*
X-122590Y-72048D02*
D03*
Y-62992D02*
D03*
X7331Y-103151D02*
D03*
X-96606Y-134253D02*
D03*
X85284Y-72048D02*
D03*
X-18653Y-103151D02*
D03*
X111268Y-134253D02*
D03*
X46308Y-165355D02*
D03*
X-28239Y-7521D02*
D03*
X-44637Y-40946D02*
D03*
X-122590Y-134253D02*
D03*
X-148574Y-72048D02*
D03*
X85284Y-134253D02*
D03*
X64961Y-145669D02*
D03*
X62992Y-61024D02*
D03*
X59300Y-72048D02*
D03*
X-44637Y-103151D02*
D03*
X-66330Y-7521D02*
D03*
X-70621Y-40946D02*
D03*
X7332Y-165355D02*
D03*
X-148574Y-134253D02*
D03*
X167323Y-95472D02*
D03*
X137253Y-40946D02*
D03*
X163237Y-103151D02*
D03*
X148617Y-103096D02*
D03*
X59300Y-134253D02*
D03*
X33316Y-72048D02*
D03*
X-104420Y-7521D02*
D03*
X-96606Y-40946D02*
D03*
X-31645Y-165355D02*
D03*
X-70621Y-103151D02*
D03*
X111268Y-40946D02*
D03*
X137253Y-103151D02*
D03*
X12795Y-115157D02*
D03*
X33316Y-134253D02*
D03*
X7331Y-72048D02*
D03*
X-142511Y-7521D02*
D03*
X-122590Y-40946D02*
D03*
X-70621Y-165355D02*
D03*
X-96606Y-103151D02*
D03*
Y-165355D02*
D03*
X7331Y-134253D02*
D03*
X111268Y-103151D02*
D03*
X-122590D02*
D03*
X-18653Y-72048D02*
D03*
X-148574Y-40946D02*
D03*
X85284D02*
D03*
D70*
X157194Y-7521D02*
G03*
X149827Y-4725I-7340J-8240D01*
G01*
D02*
G03*
X142574Y-7467I26J-11035D01*
G01*
X-122590Y-103151D02*
G03*
X-137209Y-103096I-7340J-8240D01*
G01*
X59300Y-134253D02*
G03*
X44680Y-134199I-7340J-8240D01*
G01*
X33316Y-134253D02*
G03*
X18696Y-134199I-7340J-8240D01*
G01*
X-104420Y-7521D02*
G03*
X-119040Y-7467I-7340J-8240D01*
G01*
X66340Y-21694D02*
G03*
X80960Y-21748I7340J8240D01*
G01*
X-163246Y-179529D02*
G03*
X-148627Y-179583I7340J8240D01*
G01*
X-137262Y-179532D02*
G03*
X-122642Y-179586I7340J8240D01*
G01*
X-111278Y-179532D02*
G03*
X-96658Y-179586I7340J8240D01*
G01*
X-96606Y-165359D02*
G03*
X-111225Y-165305I-7340J-8240D01*
G01*
X-85294Y-179532D02*
G03*
X-70674Y-179586I7340J8240D01*
G01*
X-46317Y-179532D02*
G03*
X-31697Y-179586I7340J8240D01*
G01*
X-7341Y-179532D02*
G03*
X7279Y-179586I7340J8240D01*
G01*
X31636Y-179532D02*
G03*
X46255Y-179586I7340J8240D01*
G01*
X70612Y-179532D02*
G03*
X85232Y-179586I7340J8240D01*
G01*
X96596Y-179532D02*
G03*
X111216Y-179586I7340J8240D01*
G01*
X122581Y-179532D02*
G03*
X137200Y-179586I7340J8240D01*
G01*
X148565Y-179532D02*
G03*
X163184Y-179586I7340J8240D01*
G01*
X70612Y-148426D02*
G03*
X85232Y-148480I7340J8240D01*
G01*
X96596Y-148426D02*
G03*
X111216Y-148480I7340J8240D01*
G01*
X122581Y-148426D02*
G03*
X137200Y-148480I7340J8240D01*
G01*
X148565Y-148426D02*
G03*
X163184Y-148480I7340J8240D01*
G01*
X-33325Y-148426D02*
G03*
X-18705Y-148480I7340J8240D01*
G01*
X-7341Y-148426D02*
G03*
X7279Y-148480I7340J8240D01*
G01*
X18643Y-148426D02*
G03*
X33263Y-148480I7340J8240D01*
G01*
X44628Y-148426D02*
G03*
X59247Y-148480I7340J8240D01*
G01*
X-137262Y-148426D02*
G03*
X-122642Y-148480I7340J8240D01*
G01*
X-111278Y-148426D02*
G03*
X-96658Y-148480I7340J8240D01*
G01*
X-85294Y-148426D02*
G03*
X-70674Y-148480I7340J8240D01*
G01*
X-59309Y-148426D02*
G03*
X-44690Y-148480I7340J8240D01*
G01*
X-163246Y-148426D02*
G03*
X-148627Y-148480I7340J8240D01*
G01*
X70612Y-117324D02*
G03*
X85232Y-117378I7340J8240D01*
G01*
X96596Y-117324D02*
G03*
X111216Y-117378I7340J8240D01*
G01*
X122581Y-117324D02*
G03*
X137200Y-117378I7340J8240D01*
G01*
X148565Y-117324D02*
G03*
X163184Y-117378I7340J8240D01*
G01*
X-33325Y-117324D02*
G03*
X-18705Y-117378I7340J8240D01*
G01*
X-7341Y-117324D02*
G03*
X7279Y-117378I7340J8240D01*
G01*
X18643Y-117324D02*
G03*
X33263Y-117378I7340J8240D01*
G01*
X44628Y-117324D02*
G03*
X59247Y-117378I7340J8240D01*
G01*
X-137262Y-117324D02*
G03*
X-122642Y-117378I7340J8240D01*
G01*
X-111278Y-117324D02*
G03*
X-96658Y-117378I7340J8240D01*
G01*
X-85294Y-117324D02*
G03*
X-70674Y-117378I7340J8240D01*
G01*
X-59309Y-117324D02*
G03*
X-44690Y-117378I7340J8240D01*
G01*
X-163246Y-117324D02*
G03*
X-148627Y-117378I7340J8240D01*
G01*
X70612Y-86221D02*
G03*
X85232Y-86276I7340J8240D01*
G01*
X96596Y-86221D02*
G03*
X111216Y-86276I7340J8240D01*
G01*
X122581Y-86221D02*
G03*
X137200Y-86276I7340J8240D01*
G01*
X148565Y-86221D02*
G03*
X163184Y-86276I7340J8240D01*
G01*
X-33325Y-86221D02*
G03*
X-18705Y-86276I7340J8240D01*
G01*
X-7341Y-86221D02*
G03*
X7279Y-86276I7340J8240D01*
G01*
X18643Y-86221D02*
G03*
X33263Y-86276I7340J8240D01*
G01*
X44628Y-86221D02*
G03*
X59247Y-86276I7340J8240D01*
G01*
X-137262Y-86221D02*
G03*
X-122642Y-86276I7340J8240D01*
G01*
X-111278Y-86221D02*
G03*
X-96658Y-86276I7340J8240D01*
G01*
X-85294Y-86221D02*
G03*
X-70674Y-86276I7340J8240D01*
G01*
X-59309Y-86221D02*
G03*
X-44690Y-86276I7340J8240D01*
G01*
X-163246Y-86221D02*
G03*
X-148627Y-86276I7340J8240D01*
G01*
X70612Y-55119D02*
G03*
X85232Y-55173I7340J8240D01*
G01*
X96596Y-55119D02*
G03*
X111216Y-55173I7340J8240D01*
G01*
X122581Y-55119D02*
G03*
X137200Y-55173I7340J8240D01*
G01*
X148565Y-55119D02*
G03*
X163184Y-55173I7340J8240D01*
G01*
X-33325Y-55119D02*
G03*
X-18705Y-55173I7340J8240D01*
G01*
X-7341Y-55119D02*
G03*
X7279Y-55173I7340J8240D01*
G01*
X18643Y-55119D02*
G03*
X33263Y-55173I7340J8240D01*
G01*
X44628Y-55119D02*
G03*
X59247Y-55173I7340J8240D01*
G01*
X-137262Y-55119D02*
G03*
X-122642Y-55173I7340J8240D01*
G01*
X-111278Y-55119D02*
G03*
X-96658Y-55173I7340J8240D01*
G01*
X-85294Y-55119D02*
G03*
X-70674Y-55173I7340J8240D01*
G01*
X-59309Y-55119D02*
G03*
X-44690Y-55173I7340J8240D01*
G01*
X-163246Y-55119D02*
G03*
X-148627Y-55173I7340J8240D01*
G01*
X-148574Y-40946D02*
G03*
X-163194Y-40892I-7340J-8240D01*
G01*
X-157183Y-21694D02*
G03*
X-142564Y-21748I7340J8240D01*
G01*
X-119093Y-21694D02*
G03*
X-104473Y-21748I7340J8240D01*
G01*
X-81002Y-21694D02*
G03*
X-66383Y-21748I7340J8240D01*
G01*
X-42912Y-21694D02*
G03*
X-28292Y-21748I7340J8240D01*
G01*
X28250Y-21694D02*
G03*
X42869Y-21748I7340J8240D01*
G01*
X104431Y-21694D02*
G03*
X119051Y-21748I7340J8240D01*
G01*
X142522Y-21694D02*
G03*
X157141Y-21748I7340J8240D01*
G01*
X7331Y-134253D02*
G03*
X-7288Y-134199I-7340J-8240D01*
G01*
X111268Y-103151D02*
G03*
X96649Y-103096I-7340J-8240D01*
G01*
X-18653Y-72048D02*
G03*
X-33272Y-71994I-7340J-8240D01*
G01*
X-96606Y-103151D02*
G03*
X-111225Y-103096I-7340J-8240D01*
G01*
X-70621Y-165359D02*
G03*
X-85241Y-165305I-7340J-8240D01*
G01*
X-122590Y-40946D02*
G03*
X-137209Y-40892I-7340J-8240D01*
G01*
X-142511Y-7521D02*
G03*
X-157131Y-7467I-7340J-8240D01*
G01*
X7331Y-72048D02*
G03*
X-7288Y-71994I-7340J-8240D01*
G01*
X137253Y-103151D02*
G03*
X122633Y-103096I-7340J-8240D01*
G01*
X111268Y-40946D02*
G03*
X96649Y-40892I-7340J-8240D01*
G01*
X-70621Y-103151D02*
G03*
X-85241Y-103096I-7340J-8240D01*
G01*
X-31645Y-165359D02*
G03*
X-46264Y-165305I-7340J-8240D01*
G01*
X-96606Y-40946D02*
G03*
X-111225Y-40892I-7340J-8240D01*
G01*
X33316Y-72048D02*
G03*
X18696Y-71994I-7340J-8240D01*
G01*
X163237Y-103151D02*
G03*
X148617Y-103096I-7340J-8240D01*
G01*
X137253Y-40946D02*
G03*
X122633Y-40892I-7340J-8240D01*
G01*
X-148574Y-134253D02*
G03*
X-163194Y-134199I-7340J-8240D01*
G01*
X7332Y-165359D02*
G03*
X-7288Y-165305I-7340J-8240D01*
G01*
X-70621Y-40946D02*
G03*
X-85241Y-40892I-7340J-8240D01*
G01*
X-66330Y-7521D02*
G03*
X-80949Y-7467I-7340J-8240D01*
G01*
X-44637Y-103151D02*
G03*
X-59257Y-103096I-7340J-8240D01*
G01*
X59300Y-72048D02*
G03*
X44680Y-71994I-7340J-8240D01*
G01*
X85284Y-134253D02*
G03*
X70665Y-134199I-7340J-8240D01*
G01*
X163237Y-40946D02*
G03*
X148617Y-40892I-7340J-8240D01*
G01*
X-148574Y-72048D02*
G03*
X-163194Y-71994I-7340J-8240D01*
G01*
X-122590Y-134253D02*
G03*
X-137209Y-134199I-7340J-8240D01*
G01*
X-18653Y-103151D02*
G03*
X-33272Y-103096I-7340J-8240D01*
G01*
X-44637Y-40946D02*
G03*
X-59257Y-40892I-7340J-8240D01*
G01*
X-28239Y-7521D02*
G03*
X-42859Y-7467I-7340J-8240D01*
G01*
X46308Y-165359D02*
G03*
X31688Y-165305I-7340J-8240D01*
G01*
X111268Y-134253D02*
G03*
X96649Y-134199I-7340J-8240D01*
G01*
X85284Y-72048D02*
G03*
X70665Y-71994I-7340J-8240D01*
G01*
X-96606Y-134253D02*
G03*
X-111225Y-134199I-7340J-8240D01*
G01*
X-122590Y-72048D02*
G03*
X-137209Y-71994I-7340J-8240D01*
G01*
X7331Y-103151D02*
G03*
X-7288Y-103096I-7340J-8240D01*
G01*
X-18653Y-40946D02*
G03*
X-33272Y-40892I-7340J-8240D01*
G01*
X42922Y-7521D02*
G03*
X28302Y-7467I-7340J-8240D01*
G01*
X85284Y-165359D02*
G03*
X70665Y-165305I-7340J-8240D01*
G01*
X137253Y-134253D02*
G03*
X122633Y-134199I-7340J-8240D01*
G01*
X111268Y-72048D02*
G03*
X96649Y-71994I-7340J-8240D01*
G01*
X-70621Y-134253D02*
G03*
X-85241Y-134199I-7340J-8240D01*
G01*
X-96606Y-72048D02*
G03*
X-111225Y-71994I-7340J-8240D01*
G01*
X33316Y-103151D02*
G03*
X18696Y-103096I-7340J-8240D01*
G01*
X7331Y-40946D02*
G03*
X-7288Y-40892I-7340J-8240D01*
G01*
X81013Y-7521D02*
G03*
X73681Y-4725I-7340J-8240D01*
G01*
D02*
G03*
X66393Y-7467I-9J-11035D01*
G01*
X111268Y-165359D02*
G03*
X96649Y-165305I-7340J-8240D01*
G01*
X163237Y-134253D02*
G03*
X148617Y-134199I-7340J-8240D01*
G01*
X137253Y-72048D02*
G03*
X122633Y-71994I-7340J-8240D01*
G01*
X-148574Y-165355D02*
G03*
X-163194Y-165301I-7340J-8240D01*
G01*
X-44637Y-134253D02*
G03*
X-59257Y-134199I-7340J-8240D01*
G01*
X-70621Y-72048D02*
G03*
X-85241Y-71994I-7340J-8240D01*
G01*
X59300Y-103151D02*
G03*
X44680Y-103096I-7340J-8240D01*
G01*
X33316Y-40946D02*
G03*
X18696Y-40892I-7340J-8240D01*
G01*
X137253Y-165359D02*
G03*
X122633Y-165305I-7340J-8240D01*
G01*
X163237Y-72048D02*
G03*
X148617Y-71994I-7340J-8240D01*
G01*
X111772Y-4725D02*
G03*
X104484Y-7467I-9J-11035D01*
G01*
X-122590Y-165359D02*
G03*
X-137209Y-165305I-7340J-8240D01*
G01*
X-148574Y-103151D02*
G03*
X-163194Y-103096I-7340J-8240D01*
G01*
X-18653Y-134253D02*
G03*
X-33272Y-134199I-7340J-8240D01*
G01*
X85284Y-103151D02*
G03*
X70665Y-103096I-7340J-8240D01*
G01*
X-44637Y-72048D02*
G03*
X-59257Y-71994I-7340J-8240D01*
G01*
X59300Y-40946D02*
G03*
X44680Y-40892I-7340J-8240D01*
G01*
X163237Y-165359D02*
G03*
X148617Y-165305I-7340J-8240D01*
G01*
X85284Y-40946D02*
G03*
X77953Y-38151I-7340J-8240D01*
G01*
D02*
G03*
X70665Y-40892I-9J-11035D01*
G01*
X119103Y-7521D02*
G03*
X111772Y-4725I-7340J-8240D01*
G01*
D71*
X5750Y-3791D02*
D03*
D72*
X192717Y-15324D02*
G03*
X187583Y-5497I-18231J-3269D01*
G01*
X189486Y-92703D02*
G03*
X189487Y-92702I-509J511D01*
G01*
X188977Y-92914D02*
G03*
X189486Y-92703I0J721D01*
G01*
X191494Y-90695D02*
G03*
X192717Y-87796I-2953J2953D01*
G01*
X158465Y27764D02*
G03*
X161393Y20693I10000J0D01*
G01*
X158465Y47039D02*
G03*
X155536Y54110I-10000J0D01*
G01*
X152559Y61229D02*
G03*
X155488Y54158I10000J0D01*
G01*
X-62992Y62030D02*
G03*
X-60063Y54959I10000J0D01*
G01*
X-55973Y8858D02*
G03*
X-48902Y11787I0J10000D01*
G01*
X-79724Y71757D02*
G03*
X-80067Y72100I-342J0D01*
G01*
X49236Y50890D02*
G03*
X52165Y57961I-7071J7071D01*
G01*
X55094Y186984D02*
G03*
X52165Y179913I7071J-7071D01*
G01*
X78945Y206693D02*
G03*
X71874Y203764I0J-10000D01*
G01*
X136787D02*
G03*
X129716Y206693I-7071J-7071D01*
G01*
X158465Y177945D02*
G03*
X155536Y185015I-10000J0D01*
G01*
Y139788D02*
G03*
X158465Y146859I-7071J7071D01*
G01*
X155488Y139740D02*
G03*
X152559Y132669I7071J-7071D01*
G01*
X142717Y81313D02*
G03*
X142559Y81693I-538J0D01*
G01*
X-79585Y11672D02*
G03*
X-76772Y8858I2813J0D01*
G01*
X-79585Y22370D02*
G03*
X-80650Y24941I-3636J0D01*
G01*
X-81286Y28937D02*
G03*
X-83662Y27953I0J-3359D01*
G01*
X-91151Y24606D02*
G03*
X-84080Y27535I0J10000D01*
G01*
X-105745Y26415D02*
G03*
X-101378Y24606I4368J4368D01*
G01*
X-103564Y28937D02*
G03*
X-106889Y27559I0J-4704D01*
G01*
X-86365Y72100D02*
G03*
X-86956Y71509I0J-591D01*
G01*
X-92520Y107283D02*
G03*
X-92914Y106332I951J-951D01*
G01*
X-92520Y107283D02*
G03*
X-91457Y109850I-2566J2566D01*
G01*
X-100000Y106332D02*
G03*
X-100394Y107283I-1345J0D01*
G01*
X-101457Y109850D02*
G03*
X-100394Y107283I3629J0D01*
G01*
X-93504Y89961D02*
G03*
X-92914Y91387I-1426J1426D01*
G01*
X-100000Y91385D02*
G03*
X-99410Y89961I2014J0D01*
G01*
X192717Y-87796D02*
X192717Y-15324D01*
X161393Y20693D02*
X187583Y-5497D01*
X189487Y-92702D02*
X191494Y-90695D01*
X189486Y-92703D02*
X189487Y-92702D01*
X192717Y-87796D02*
Y-87796D01*
X158465Y27764D02*
Y47039D01*
X155488Y54158D02*
X155536Y54110D01*
X152559Y81693D02*
Y132669D01*
Y61229D02*
Y81693D01*
X188976Y-86221D02*
Y-80709D01*
Y-86221D02*
X188977Y-86221D01*
X25000Y26654D02*
X49236Y50890D01*
X-62992Y62030D02*
Y71818D01*
X-60063Y54959D02*
X-55973Y50868D01*
X-62996Y71822D02*
X-62992Y71818D01*
X-76772Y8858D02*
X-55973D01*
X-48902Y11787D02*
X-46909Y13780D01*
X52165Y57961D02*
Y179913D01*
X55094Y186984D02*
X71874Y203764D01*
X78945Y206693D02*
X129716D01*
X136787Y203764D02*
X155536Y185015D01*
X158465Y146859D02*
Y177945D01*
X155488Y139740D02*
X155536Y139788D01*
X142717Y74803D02*
Y81313D01*
X-79585Y13752D02*
Y22370D01*
Y11672D02*
Y13752D01*
X-84080Y27535D02*
X-83662Y27953D01*
X-81286Y28937D02*
X-76575D01*
X-83662Y27953D02*
X-80650Y24941D01*
X-101378Y24606D02*
X-91151D01*
X-106889Y27559D02*
X-105745Y26415D01*
X-103564Y28937D02*
X-100197D01*
X-80067Y79580D02*
X-74556D01*
X-111220Y96457D02*
X-106693D01*
X-86221Y96456D02*
X-81694D01*
X-80067Y79580D02*
Y85091D01*
X-86956Y78202D02*
Y82729D01*
X-92914Y96456D02*
Y106332D01*
X-91457Y109850D02*
Y118110D01*
X-100000Y96457D02*
Y106332D01*
X-101457Y109850D02*
Y118110D01*
X-100000Y91385D02*
Y96457D01*
X-92914Y91387D02*
Y96456D01*
D73*
X73681Y-4760D02*
D03*
X-155905Y-162595D02*
D03*
X-129921Y-162598D02*
D03*
X-103937D02*
D03*
X-77953D02*
D03*
X-38976D02*
D03*
X0D02*
D03*
X38976D02*
D03*
X77953D02*
D03*
X103937D02*
D03*
X129921D02*
D03*
X155905D02*
D03*
X77953Y-131493D02*
D03*
X103937D02*
D03*
X129921D02*
D03*
X155905D02*
D03*
X-25984D02*
D03*
X0D02*
D03*
X25984D02*
D03*
X51968D02*
D03*
X-129921D02*
D03*
X-103937D02*
D03*
X-77953D02*
D03*
X-51968D02*
D03*
X-155905D02*
D03*
X77953Y-100390D02*
D03*
X103937D02*
D03*
X129921D02*
D03*
X155905D02*
D03*
X-25984D02*
D03*
X0D02*
D03*
X25984D02*
D03*
X51968D02*
D03*
X-129921D02*
D03*
X-103937D02*
D03*
X-77953D02*
D03*
X-51968D02*
D03*
X-155905D02*
D03*
X77953Y-69288D02*
D03*
X103937D02*
D03*
X129921D02*
D03*
X155905D02*
D03*
X-25984D02*
D03*
X0D02*
D03*
X25984D02*
D03*
X51968D02*
D03*
X-129921D02*
D03*
X-103937D02*
D03*
X-77953D02*
D03*
X-51968D02*
D03*
X-155905D02*
D03*
X77953Y-38186D02*
D03*
X103937D02*
D03*
X129921D02*
D03*
X155905D02*
D03*
X-25984D02*
D03*
X0D02*
D03*
X25984D02*
D03*
X51968D02*
D03*
X-129921D02*
D03*
X-103937D02*
D03*
X-77953D02*
D03*
X-51968D02*
D03*
X-155905D02*
D03*
X-149843Y-4760D02*
D03*
X-111752D02*
D03*
X-73661D02*
D03*
X-35571D02*
D03*
X35591D02*
D03*
X111772D02*
D03*
X149862D02*
D03*
D74*
X-155905Y-172441D02*
D03*
X-129921Y-172444D02*
D03*
X-103937D02*
D03*
X-77953D02*
D03*
X-38976D02*
D03*
X0D02*
D03*
X38976D02*
D03*
X77953D02*
D03*
X103937D02*
D03*
X129921D02*
D03*
X155905D02*
D03*
Y-141339D02*
D03*
X129921D02*
D03*
X103937D02*
D03*
X77953D02*
D03*
X51968D02*
D03*
X25984D02*
D03*
X0D02*
D03*
X-25984D02*
D03*
X-51968D02*
D03*
X-77953D02*
D03*
X-103937D02*
D03*
X-129921D02*
D03*
X-155905D02*
D03*
Y-110236D02*
D03*
X-129921D02*
D03*
X-103937D02*
D03*
X-77953D02*
D03*
X-51968D02*
D03*
X-25984D02*
D03*
X0D02*
D03*
X25984D02*
D03*
X51968D02*
D03*
X77953D02*
D03*
X103937D02*
D03*
X129921D02*
D03*
X155905D02*
D03*
X-155905Y-79134D02*
D03*
X-129921D02*
D03*
X-103937D02*
D03*
X-77953D02*
D03*
X-51968D02*
D03*
X-25984D02*
D03*
X0D02*
D03*
X25984D02*
D03*
X51968D02*
D03*
X77953D02*
D03*
X103937D02*
D03*
X129921D02*
D03*
X155905D02*
D03*
X-155905Y-48031D02*
D03*
X-129921D02*
D03*
X-103937D02*
D03*
X-77953D02*
D03*
X-51968D02*
D03*
X-25984D02*
D03*
X0D02*
D03*
X25984D02*
D03*
X51968D02*
D03*
X77953D02*
D03*
X103937D02*
D03*
X129921D02*
D03*
X155905D02*
D03*
X149862Y-14606D02*
D03*
X111772D02*
D03*
X73681D02*
D03*
X35591D02*
D03*
X-35571D02*
D03*
X-73661D02*
D03*
X-111752D02*
D03*
X-149843D02*
D03*
X-185039Y-17717D02*
D03*
Y-161417D02*
D03*
X185039Y-17717D02*
D03*
Y-161417D02*
D03*
D75*
X-91457Y118110D02*
D03*
X-25000Y26654D02*
D03*
X-15000Y16654D02*
D03*
Y26654D02*
D03*
X-5000Y16654D02*
D03*
X-5000Y26654D02*
D03*
X15000D02*
D03*
X15000Y16654D02*
D03*
X5000Y26654D02*
D03*
Y16654D02*
D03*
X25000Y26654D02*
D03*
Y16654D02*
D03*
X115984Y196850D02*
D03*
X105984D02*
D03*
D76*
X-101457Y118110D02*
D03*
X-25000Y16654D02*
D03*
X125984Y196850D02*
D03*
D77*
X-160433Y59055D02*
D03*
D78*
X164730Y-190395D02*
D03*
X-164995Y3700D02*
D03*
D79*
X38942Y-94686D02*
D03*
X-39011D02*
D03*
M02*
