G04*
G04 #@! TF.GenerationSoftware,Altium Limited,Altium Designer,24.2.2 (26)*
G04*
G04 Layer_Color=8388736*
%FSLAX25Y25*%
%MOIN*%
G70*
G04*
G04 #@! TF.SameCoordinates,414444BF-B964-4898-950E-571982E1B149*
G04*
G04*
G04 #@! TF.FilePolarity,Positive*
G04*
G01*
G75*
%ADD11C,0.00984*%
%ADD12C,0.01000*%
%ADD16C,0.00394*%
%ADD81C,0.00600*%
D11*
X-437008Y-64961D02*
X-435040D01*
X-436024D01*
Y-59057D01*
X-437008Y-60041D01*
X-432088Y-64961D02*
Y-63977D01*
X-431104D01*
Y-64961D01*
X-432088D01*
X-423233Y-59057D02*
X-425201Y-60041D01*
X-427169Y-62009D01*
Y-63977D01*
X-426185Y-64961D01*
X-424217D01*
X-423233Y-63977D01*
Y-62993D01*
X-424217Y-62009D01*
X-427169D01*
X-421265Y-64961D02*
Y-61025D01*
X-420281D01*
X-419297Y-62009D01*
Y-64961D01*
Y-62009D01*
X-418313Y-61025D01*
X-417329Y-62009D01*
Y-64961D01*
X-415361D02*
Y-61025D01*
X-414377D01*
X-413393Y-62009D01*
Y-64961D01*
Y-62009D01*
X-412409Y-61025D01*
X-411426Y-62009D01*
Y-64961D01*
X-403554Y-59057D02*
X-399618D01*
X-401586D01*
Y-64961D01*
X-397651Y-59057D02*
Y-64961D01*
Y-62009D01*
X-396667Y-61025D01*
X-394699D01*
X-393715Y-62009D01*
Y-64961D01*
X-391747D02*
X-389779D01*
X-390763D01*
Y-61025D01*
X-391747D01*
X-382892D02*
X-385843D01*
X-386827Y-62009D01*
Y-63977D01*
X-385843Y-64961D01*
X-382892D01*
X-380924D02*
Y-59057D01*
Y-62993D02*
X-377972Y-61025D01*
X-380924Y-62993D02*
X-377972Y-64961D01*
X-375020D02*
Y-61025D01*
X-372068D01*
X-371084Y-62009D01*
Y-64961D01*
X-366165D02*
X-368132D01*
X-369116Y-63977D01*
Y-62009D01*
X-368132Y-61025D01*
X-366165D01*
X-365181Y-62009D01*
Y-62993D01*
X-369116D01*
X-363213Y-64961D02*
X-360261D01*
X-359277Y-63977D01*
X-360261Y-62993D01*
X-362229D01*
X-363213Y-62009D01*
X-362229Y-61025D01*
X-359277D01*
X-357309Y-64961D02*
X-354358D01*
X-353374Y-63977D01*
X-354358Y-62993D01*
X-356325D01*
X-357309Y-62009D01*
X-356325Y-61025D01*
X-353374D01*
X-437008Y-35435D02*
Y-41339D01*
X-434056D01*
X-433072Y-40355D01*
Y-39371D01*
X-434056Y-38387D01*
X-437008D01*
X-434056D01*
X-433072Y-37403D01*
Y-36419D01*
X-434056Y-35435D01*
X-437008D01*
X-431104Y-41339D02*
X-429136D01*
X-430120D01*
Y-35435D01*
X-431104D01*
X-425201Y-37403D02*
X-423233D01*
X-422249Y-38387D01*
Y-41339D01*
X-425201D01*
X-426185Y-40355D01*
X-425201Y-39371D01*
X-422249D01*
X-416345Y-37403D02*
X-419297D01*
X-420281Y-38387D01*
Y-40355D01*
X-419297Y-41339D01*
X-416345D01*
X-414377D02*
Y-35435D01*
Y-39371D02*
X-411426Y-37403D01*
X-414377Y-39371D02*
X-411426Y-41339D01*
X-398635Y-36419D02*
X-399618Y-35435D01*
X-401586D01*
X-402570Y-36419D01*
Y-37403D01*
X-401586Y-38387D01*
X-399618D01*
X-398635Y-39371D01*
Y-40355D01*
X-399618Y-41339D01*
X-401586D01*
X-402570Y-40355D01*
X-396667Y-41339D02*
X-394699D01*
X-395683D01*
Y-37403D01*
X-396667D01*
X-391747Y-41339D02*
X-389779D01*
X-390763D01*
Y-35435D01*
X-391747D01*
X-386827Y-41339D02*
Y-35435D01*
Y-39371D02*
X-383875Y-37403D01*
X-386827Y-39371D02*
X-383875Y-41339D01*
X-380924D02*
X-377972D01*
X-376988Y-40355D01*
X-377972Y-39371D01*
X-379940D01*
X-380924Y-38387D01*
X-379940Y-37403D01*
X-376988D01*
X-371084D02*
X-374036D01*
X-375020Y-38387D01*
Y-40355D01*
X-374036Y-41339D01*
X-371084D01*
X-369116Y-37403D02*
Y-41339D01*
Y-39371D01*
X-368132Y-38387D01*
X-367149Y-37403D01*
X-366165D01*
X-360261Y-41339D02*
X-362229D01*
X-363213Y-40355D01*
Y-38387D01*
X-362229Y-37403D01*
X-360261D01*
X-359277Y-38387D01*
Y-39371D01*
X-363213D01*
X-354358Y-41339D02*
X-356325D01*
X-357309Y-40355D01*
Y-38387D01*
X-356325Y-37403D01*
X-354358D01*
X-353374Y-38387D01*
Y-39371D01*
X-357309D01*
X-351406Y-41339D02*
Y-37403D01*
X-348454D01*
X-347470Y-38387D01*
Y-41339D01*
X-437008Y-23624D02*
Y-29528D01*
X-435040Y-27560D01*
X-433072Y-29528D01*
Y-23624D01*
X-431104D02*
Y-29528D01*
Y-26576D01*
X-430120Y-25592D01*
X-428153D01*
X-427169Y-26576D01*
Y-29528D01*
X-425201D02*
X-423233D01*
X-424217D01*
Y-25592D01*
X-425201D01*
X-419297Y-24608D02*
Y-25592D01*
X-420281D01*
X-418313D01*
X-419297D01*
Y-28544D01*
X-418313Y-29528D01*
X-412409D02*
X-414377D01*
X-415361Y-28544D01*
Y-26576D01*
X-414377Y-25592D01*
X-412409D01*
X-411426Y-26576D01*
Y-27560D01*
X-415361D01*
X-399618Y-24608D02*
X-400602Y-23624D01*
X-402570D01*
X-403554Y-24608D01*
Y-25592D01*
X-402570Y-26576D01*
X-400602D01*
X-399618Y-27560D01*
Y-28544D01*
X-400602Y-29528D01*
X-402570D01*
X-403554Y-28544D01*
X-396667Y-29528D02*
X-394699D01*
X-393715Y-28544D01*
Y-26576D01*
X-394699Y-25592D01*
X-396667D01*
X-397651Y-26576D01*
Y-28544D01*
X-396667Y-29528D01*
X-391747D02*
X-389779D01*
X-390763D01*
Y-23624D01*
X-391747D01*
X-382892D02*
Y-29528D01*
X-385843D01*
X-386827Y-28544D01*
Y-26576D01*
X-385843Y-25592D01*
X-382892D01*
X-377972Y-29528D02*
X-379940D01*
X-380924Y-28544D01*
Y-26576D01*
X-379940Y-25592D01*
X-377972D01*
X-376988Y-26576D01*
Y-27560D01*
X-380924D01*
X-375020Y-25592D02*
Y-29528D01*
Y-27560D01*
X-374036Y-26576D01*
X-373052Y-25592D01*
X-372068D01*
X-363213Y-29528D02*
Y-23624D01*
X-361245Y-25592D01*
X-359277Y-23624D01*
Y-29528D01*
X-356325Y-25592D02*
X-354358D01*
X-353374Y-26576D01*
Y-29528D01*
X-356325D01*
X-357309Y-28544D01*
X-356325Y-27560D01*
X-353374D01*
X-351406Y-29528D02*
X-348454D01*
X-347470Y-28544D01*
X-348454Y-27560D01*
X-350422D01*
X-351406Y-26576D01*
X-350422Y-25592D01*
X-347470D01*
X-345502Y-29528D02*
Y-23624D01*
Y-27560D02*
X-342550Y-25592D01*
X-345502Y-27560D02*
X-342550Y-29528D01*
D12*
X-215551Y212598D02*
X-213551Y206598D01*
X-217551D02*
X-215551Y212598D01*
X-217551Y-190850D02*
X-215551Y-196850D01*
X-213551Y-190850D01*
X-215551Y24369D02*
Y212598D01*
Y-196850D02*
Y-11821D01*
X-216551Y212598D02*
X-148740D01*
X-216551Y-196850D02*
X-202954D01*
X-194882Y-215551D02*
X-188882Y-213551D01*
X-194882Y-215551D02*
X-188882Y-217551D01*
X188882D02*
X194882Y-215551D01*
X188882Y-213551D02*
X194882Y-215551D01*
X-194882D02*
X-17196D01*
X13995D02*
X194882D01*
X-194882Y-216551D02*
Y-204922D01*
X194882Y-216551D02*
Y-204922D01*
D16*
X-31496Y118110D02*
G03*
X-8152Y87687I31496J0D01*
G01*
D02*
G03*
X-3937Y91902I0J4215D01*
G01*
X8152Y87687D02*
G03*
X31496Y118110I-8152J30423D01*
G01*
X3937Y91902D02*
G03*
X8152Y87687I4215J0D01*
G01*
X26496Y141733D02*
G03*
X31496Y146733I0J5000D01*
G01*
Y128858D02*
G03*
X26496Y133858I-5000J0D01*
G01*
X-3937Y183688D02*
G03*
X-8152Y187903I-4215J0D01*
G01*
D02*
G03*
X-31496Y157480I8152J-30423D01*
G01*
X8152Y187904D02*
G03*
X3937Y183689I0J-4215D01*
G01*
X31496Y157481D02*
G03*
X8152Y187904I-31496J0D01*
G01*
X8937Y133858D02*
G03*
X3937Y128858I0J-5000D01*
G01*
X-26496Y133858D02*
G03*
X-31496Y128858I0J-5000D01*
G01*
X-3937D02*
G03*
X-8937Y133858I-5000J0D01*
G01*
X3937Y146733D02*
G03*
X8937Y141733I5000J0D01*
G01*
X-8937Y141732D02*
G03*
X-3937Y146732I0J5000D01*
G01*
X-31496D02*
G03*
X-26496Y141732I5000J0D01*
G01*
X194883Y3937D02*
G03*
X187008Y11812I-7875J0D01*
G01*
Y-196851D02*
G03*
X194883Y-188976I0J7875D01*
G01*
X-194883D02*
G03*
X-187008Y-196851I7875J0D01*
G01*
Y11812D02*
G03*
X-194883Y3937I0J-7875D01*
G01*
X-180197Y11811D02*
G03*
X-171661Y15347I0J12071D01*
G01*
X171661D02*
G03*
X180197Y11811I8535J8535D01*
G01*
X-170858Y16150D02*
G03*
X-167323Y24685I-8535J8535D01*
G01*
X162402Y29606D02*
G03*
X165937Y21071I12071J0D01*
G01*
X-163787Y186606D02*
G03*
X-167323Y178071I8535J-8535D01*
G01*
X-132795Y212598D02*
G03*
X-141331Y209063I0J-12071D01*
G01*
X141331D02*
G03*
X132795Y212598I-8535J-8535D01*
G01*
X162402Y182992D02*
G03*
X158866Y191528I-12071J0D01*
G01*
X-3937Y91902D02*
Y128858D01*
X31496Y128858D02*
X31496Y118110D01*
X3937Y91902D02*
Y128858D01*
X-31496Y118110D02*
Y128858D01*
X31496Y146733D02*
Y157481D01*
X-3937Y146732D02*
Y183688D01*
X-31496Y146732D02*
Y157480D01*
X3937Y146733D02*
Y183689D01*
X8937Y133858D02*
X26496D01*
X-26496D02*
X-8937D01*
X8937Y141733D02*
X26496D01*
X-26496Y141732D02*
X-8937D01*
X194882Y-188977D02*
Y3938D01*
X180197Y11811D02*
X187009D01*
X-187009Y-196850D02*
X187009D01*
X-194882Y-188977D02*
Y3938D01*
X-187009Y11811D02*
X-180197D01*
X-171661Y15347D02*
X-171260Y15748D01*
X171260D02*
X171661Y15347D01*
X-171260Y15748D02*
X-170858Y16150D01*
X-167323Y24685D02*
Y31575D01*
X165937Y21071D02*
X171260Y15748D01*
X162402Y29606D02*
Y29766D01*
X-167323Y31575D02*
Y178071D01*
X-163787Y186606D02*
X-141331Y209063D01*
X-132795Y212598D02*
X132795D01*
X141331Y209063D02*
X158866Y191528D01*
X162402Y29766D02*
Y182992D01*
D81*
X-210952Y-10221D02*
Y-8221D01*
Y-9221D01*
X-216950D01*
X-215951Y-10221D01*
Y-5222D02*
X-216950Y-4223D01*
Y-2223D01*
X-215951Y-1224D01*
X-211952D01*
X-210952Y-2223D01*
Y-4223D01*
X-211952Y-5222D01*
X-215951D01*
X-210952Y3775D02*
X-216950D01*
X-213951Y776D01*
Y4775D01*
X-209953Y7773D02*
X-210952Y8773D01*
X-211952D01*
Y7773D01*
X-210952D01*
Y8773D01*
X-209953Y7773D01*
X-208953Y6774D01*
X-215951Y12772D02*
X-216950Y13772D01*
Y15771D01*
X-215951Y16771D01*
X-211952D01*
X-210952Y15771D01*
Y13772D01*
X-211952Y12772D01*
X-215951D01*
Y18770D02*
X-216950Y19770D01*
Y21769D01*
X-215951Y22769D01*
X-211952D01*
X-210952Y21769D01*
Y19770D01*
X-211952Y18770D01*
X-215951D01*
X-15596Y-219150D02*
X-14596Y-220150D01*
X-12596D01*
X-11597Y-219150D01*
Y-215152D01*
X-12596Y-214152D01*
X-14596D01*
X-15596Y-215152D01*
Y-216151D01*
X-14596Y-217151D01*
X-11597D01*
X-9597Y-219150D02*
X-8598Y-220150D01*
X-6598D01*
X-5599Y-219150D01*
Y-215152D01*
X-6598Y-214152D01*
X-8598D01*
X-9597Y-215152D01*
Y-216151D01*
X-8598Y-217151D01*
X-5599D01*
X-2600Y-221150D02*
X-1600Y-220150D01*
Y-219150D01*
X-2600D01*
Y-220150D01*
X-1600D01*
X-2600Y-221150D01*
X-3599Y-222149D01*
X2399Y-215152D02*
X3398Y-214152D01*
X5398D01*
X6397Y-215152D01*
Y-219150D01*
X5398Y-220150D01*
X3398D01*
X2399Y-219150D01*
Y-215152D01*
X8397D02*
X9397Y-214152D01*
X11396D01*
X12395Y-215152D01*
Y-219150D01*
X11396Y-220150D01*
X9397D01*
X8397Y-219150D01*
Y-215152D01*
M02*
