M48
;Layer_Color=9474304
;FILE_FORMAT=2:5
INCH,LZ
;TYPE=PLATED
T01F00S00C0.00984
T02F00S00C0.03543
T03F00S00C0.04724
;TYPE=NON_PLATED
T04F00S00C0.01968
T05F00S00C0.05000
T06F00S00C0.08661
T07F00S00C0.09843
T08F00S00C0.11811
%
T01
X-012259Y-0165355
X-0096606
X-0070621
Y-0134253
X-0044637
Y-0103151
X-0070621
X-0096606
X-012259
X-0148574
Y-0072048
X-012259
X-0096606
X-0070621
X-0044637
X-0031645Y-0165355
X-0096606Y-0134253
X-012259
X-0148574
X-0018653
X0007331
X0012795Y-0115157
X0007331Y-0103151
X-0018653
Y-0072048
X0007331
X0033316
X00593
X0085284
X0096649Y-0071994
X0111268Y-0072048
Y-0103151
X0098425Y-0095472
X0085284Y-0103151
X00593
X0063976Y-0120079
X00593Y-0134253
X0064961Y-0145669
X0085284Y-0134253
X0111268
Y-0165355
X0085284
X0046308
X0007332
X-0017717Y-0175197
X0033316Y-0134253
Y-0103151
X0137253
X0148617Y-0103096
X0163237Y-0103151
X0167323Y-0095472
X0163237Y-0072048
X0137253
Y-0134253
X0163237
Y-0165355
X0182087Y-0170067
X0181102Y-0192516
X0137253Y-0165355
Y-0040946
X0142574Y-0007467
X0179134Y-0004951
X0142717Y0074803
X0116142Y0019685
X0119103Y-0007521
X0104484Y-0007467
X0081013Y-0007521
X0066393Y-0007467
X0042922Y-0007521
X0047244Y0008858
X005939Y0019685
X0091339Y0008819
X0085284Y-0040946
X00593
X0062992Y-0061024
X0033316Y-0040946
X0007331
X-0018653
X-0015748Y-0062992
X-0028239Y-0007521
X0111268Y-0040946
X-0044637
X-0070621
X-0096606
X-012259
Y-0062992
X-0148574Y-0040946
X-0142511Y-0007521
X-010442
X-0090748Y0014764
X-0083662Y0016733
X-0064567Y0018307
X-0066929Y0024606
X-0055973Y0008858
X-006633Y-0007521
X-0055973Y0050868
X-0074556Y007958
X-0080067Y0085091
X-0086956Y0082729
X-0103475Y0079064
X-0098425Y0069882
X-0110678Y0068898
X-0110236Y0057086
X-0134843Y0059055
X-0158858Y0043702
X-0118109Y0027559
X-011122Y0096457
X-0081694Y0096456
X0101519Y0127812
X011811Y0111221
T02
X-0025Y0016654
Y0026654
X-0015
Y0016654
X-0005
X0005
Y0026654
X0015
X0025
Y0016654
X0015
X-0005Y0026654
X-0091457Y011811
X-0101457
X0105984Y019685
X0115984
X0125984
T03
X-0039011Y-0094686
X0038942
T04
X-0160433Y0059055
T05
X016473Y-0190395
X-0164995Y00037
T06
X0059055Y007874
X-0059055
T07
X-0185039Y-0161417
X0185039
Y-0017717
X0147638Y0037402
X-0147638
X-0185039Y-0017717
X-0127953Y0198819
X0147638Y0179134
T08
X-0059055Y019685
X0059055
M30
