G04*
G04 #@! TF.GenerationSoftware,Altium Limited,Altium Designer,24.6.1 (21)*
G04*
G04 Layer_Color=8388736*
%FSLAX25Y25*%
%MOIN*%
G70*
G04*
G04 #@! TF.SameCoordinates,01E0CDA6-314E-44D1-A422-088EE61E0F49*
G04*
G04*
G04 #@! TF.FilePolarity,Positive*
G04*
G01*
G75*
%ADD10C,0.00984*%
%ADD11C,0.01000*%
%ADD15C,0.00394*%
%ADD81C,0.00600*%
D10*
X-437008Y-163386D02*
X-435040D01*
X-436024D01*
Y-157482D01*
X-437008Y-158466D01*
X-432088Y-163386D02*
Y-162402D01*
X-431104D01*
Y-163386D01*
X-432088D01*
X-423233Y-157482D02*
X-425201Y-158466D01*
X-427169Y-160434D01*
Y-162402D01*
X-426185Y-163386D01*
X-424217D01*
X-423233Y-162402D01*
Y-161418D01*
X-424217Y-160434D01*
X-427169D01*
X-421265Y-163386D02*
Y-159450D01*
X-420281D01*
X-419297Y-160434D01*
Y-163386D01*
Y-160434D01*
X-418313Y-159450D01*
X-417329Y-160434D01*
Y-163386D01*
X-415361D02*
Y-159450D01*
X-414377D01*
X-413393Y-160434D01*
Y-163386D01*
Y-160434D01*
X-412409Y-159450D01*
X-411426Y-160434D01*
Y-163386D01*
X-403554Y-157482D02*
X-399618D01*
X-401586D01*
Y-163386D01*
X-397651Y-157482D02*
Y-163386D01*
Y-160434D01*
X-396667Y-159450D01*
X-394699D01*
X-393715Y-160434D01*
Y-163386D01*
X-391747D02*
X-389779D01*
X-390763D01*
Y-159450D01*
X-391747D01*
X-382892D02*
X-385843D01*
X-386827Y-160434D01*
Y-162402D01*
X-385843Y-163386D01*
X-382892D01*
X-380924D02*
Y-157482D01*
Y-161418D02*
X-377972Y-159450D01*
X-380924Y-161418D02*
X-377972Y-163386D01*
X-375020D02*
Y-159450D01*
X-372068D01*
X-371084Y-160434D01*
Y-163386D01*
X-366165D02*
X-368132D01*
X-369116Y-162402D01*
Y-160434D01*
X-368132Y-159450D01*
X-366165D01*
X-365181Y-160434D01*
Y-161418D01*
X-369116D01*
X-363213Y-163386D02*
X-360261D01*
X-359277Y-162402D01*
X-360261Y-161418D01*
X-362229D01*
X-363213Y-160434D01*
X-362229Y-159450D01*
X-359277D01*
X-357309Y-163386D02*
X-354358D01*
X-353374Y-162402D01*
X-354358Y-161418D01*
X-356325D01*
X-357309Y-160434D01*
X-356325Y-159450D01*
X-353374D01*
X-437008Y-133860D02*
Y-139764D01*
X-434056D01*
X-433072Y-138780D01*
Y-137796D01*
X-434056Y-136812D01*
X-437008D01*
X-434056D01*
X-433072Y-135828D01*
Y-134844D01*
X-434056Y-133860D01*
X-437008D01*
X-431104Y-139764D02*
X-429136D01*
X-430120D01*
Y-133860D01*
X-431104D01*
X-425201Y-135828D02*
X-423233D01*
X-422249Y-136812D01*
Y-139764D01*
X-425201D01*
X-426185Y-138780D01*
X-425201Y-137796D01*
X-422249D01*
X-416345Y-135828D02*
X-419297D01*
X-420281Y-136812D01*
Y-138780D01*
X-419297Y-139764D01*
X-416345D01*
X-414377D02*
Y-133860D01*
Y-137796D02*
X-411426Y-135828D01*
X-414377Y-137796D02*
X-411426Y-139764D01*
X-398635Y-134844D02*
X-399618Y-133860D01*
X-401586D01*
X-402570Y-134844D01*
Y-135828D01*
X-401586Y-136812D01*
X-399618D01*
X-398635Y-137796D01*
Y-138780D01*
X-399618Y-139764D01*
X-401586D01*
X-402570Y-138780D01*
X-396667Y-139764D02*
X-394699D01*
X-395683D01*
Y-135828D01*
X-396667D01*
X-391747Y-139764D02*
X-389779D01*
X-390763D01*
Y-133860D01*
X-391747D01*
X-386827Y-139764D02*
Y-133860D01*
Y-137796D02*
X-383875Y-135828D01*
X-386827Y-137796D02*
X-383875Y-139764D01*
X-380924D02*
X-377972D01*
X-376988Y-138780D01*
X-377972Y-137796D01*
X-379940D01*
X-380924Y-136812D01*
X-379940Y-135828D01*
X-376988D01*
X-371084D02*
X-374036D01*
X-375020Y-136812D01*
Y-138780D01*
X-374036Y-139764D01*
X-371084D01*
X-369116Y-135828D02*
Y-139764D01*
Y-137796D01*
X-368132Y-136812D01*
X-367149Y-135828D01*
X-366165D01*
X-360261Y-139764D02*
X-362229D01*
X-363213Y-138780D01*
Y-136812D01*
X-362229Y-135828D01*
X-360261D01*
X-359277Y-136812D01*
Y-137796D01*
X-363213D01*
X-354358Y-139764D02*
X-356325D01*
X-357309Y-138780D01*
Y-136812D01*
X-356325Y-135828D01*
X-354358D01*
X-353374Y-136812D01*
Y-137796D01*
X-357309D01*
X-351406Y-139764D02*
Y-135828D01*
X-348454D01*
X-347470Y-136812D01*
Y-139764D01*
X-437008Y-122049D02*
Y-127953D01*
X-435040Y-125985D01*
X-433072Y-127953D01*
Y-122049D01*
X-431104D02*
Y-127953D01*
Y-125001D01*
X-430120Y-124017D01*
X-428153D01*
X-427169Y-125001D01*
Y-127953D01*
X-425201D02*
X-423233D01*
X-424217D01*
Y-124017D01*
X-425201D01*
X-419297Y-123033D02*
Y-124017D01*
X-420281D01*
X-418313D01*
X-419297D01*
Y-126969D01*
X-418313Y-127953D01*
X-412409D02*
X-414377D01*
X-415361Y-126969D01*
Y-125001D01*
X-414377Y-124017D01*
X-412409D01*
X-411426Y-125001D01*
Y-125985D01*
X-415361D01*
X-399618Y-123033D02*
X-400602Y-122049D01*
X-402570D01*
X-403554Y-123033D01*
Y-124017D01*
X-402570Y-125001D01*
X-400602D01*
X-399618Y-125985D01*
Y-126969D01*
X-400602Y-127953D01*
X-402570D01*
X-403554Y-126969D01*
X-396667Y-127953D02*
X-394699D01*
X-393715Y-126969D01*
Y-125001D01*
X-394699Y-124017D01*
X-396667D01*
X-397651Y-125001D01*
Y-126969D01*
X-396667Y-127953D01*
X-391747D02*
X-389779D01*
X-390763D01*
Y-122049D01*
X-391747D01*
X-382892D02*
Y-127953D01*
X-385843D01*
X-386827Y-126969D01*
Y-125001D01*
X-385843Y-124017D01*
X-382892D01*
X-377972Y-127953D02*
X-379940D01*
X-380924Y-126969D01*
Y-125001D01*
X-379940Y-124017D01*
X-377972D01*
X-376988Y-125001D01*
Y-125985D01*
X-380924D01*
X-375020Y-124017D02*
Y-127953D01*
Y-125985D01*
X-374036Y-125001D01*
X-373052Y-124017D01*
X-372068D01*
X-363213Y-127953D02*
Y-122049D01*
X-361245Y-124017D01*
X-359277Y-122049D01*
Y-127953D01*
X-356325Y-124017D02*
X-354358D01*
X-353374Y-125001D01*
Y-127953D01*
X-356325D01*
X-357309Y-126969D01*
X-356325Y-125985D01*
X-353374D01*
X-351406Y-127953D02*
X-348454D01*
X-347470Y-126969D01*
X-348454Y-125985D01*
X-350422D01*
X-351406Y-125001D01*
X-350422Y-124017D01*
X-347470D01*
X-345502Y-127953D02*
Y-122049D01*
Y-125985D02*
X-342550Y-124017D01*
X-345502Y-125985D02*
X-342550Y-127953D01*
D11*
X-215551Y212598D02*
X-213551Y206598D01*
X-217551D02*
X-215551Y212598D01*
X-217551Y-198724D02*
X-215551Y-204724D01*
X-213551Y-198724D01*
X-215551Y20432D02*
Y212598D01*
Y-204724D02*
Y-15758D01*
X-216551Y212598D02*
X-148740D01*
X-216551Y-204724D02*
X-202954D01*
X-194882Y-215551D02*
X-188882Y-213551D01*
X-194882Y-215551D02*
X-188882Y-217551D01*
X188882D02*
X194882Y-215551D01*
X188882Y-213551D02*
X194882Y-215551D01*
X-194882D02*
X-17196D01*
X13995D02*
X194882D01*
X-194882Y-216551D02*
Y-212795D01*
X194882Y-216551D02*
Y-212795D01*
D15*
X25512Y141733D02*
G03*
X30512Y146733I0J5000D01*
G01*
X8152Y186919D02*
G03*
X3937Y182705I0J-4215D01*
G01*
X30512Y157481D02*
G03*
X8143Y186886I-30512J0D01*
G01*
X-30512Y146732D02*
G03*
X-25512Y141732I5000J0D01*
G01*
X-3937Y182704D02*
G03*
X-8152Y186919I-4215J0D01*
G01*
X-8143Y186886D02*
G03*
X-30512Y157480I8143J-29405D01*
G01*
X30512Y128858D02*
G03*
X25512Y133858I-5000J0D01*
G01*
X3937Y92886D02*
G03*
X8152Y88672I4215J0D01*
G01*
X8143Y88705D02*
G03*
X30512Y118110I-8143J29405D01*
G01*
X-30512D02*
G03*
X-8143Y88705I30512J0D01*
G01*
X-8152Y88672D02*
G03*
X-3937Y92886I0J4215D01*
G01*
X-25512Y133858D02*
G03*
X-30512Y128858I0J-5000D01*
G01*
X8937Y133858D02*
G03*
X3937Y128858I0J-5000D01*
G01*
X-3937D02*
G03*
X-8937Y133858I-5000J0D01*
G01*
X3937Y146733D02*
G03*
X8937Y141733I5000J0D01*
G01*
X-8937Y141732D02*
G03*
X-3937Y146732I0J5000D01*
G01*
X194883Y3937D02*
G03*
X187008Y11812I-7875J0D01*
G01*
Y-204725D02*
G03*
X194883Y-196850I0J7875D01*
G01*
X-194883D02*
G03*
X-187008Y-204725I7875J0D01*
G01*
Y11812D02*
G03*
X-194883Y3937I0J-7875D01*
G01*
X-180197Y11811D02*
G03*
X-171661Y15347I0J12071D01*
G01*
X171661D02*
G03*
X180197Y11811I8535J8535D01*
G01*
X-170858Y16150D02*
G03*
X-167323Y24685I-8535J8535D01*
G01*
X162402Y29606D02*
G03*
X165937Y21071I12071J0D01*
G01*
X-163787Y186606D02*
G03*
X-167323Y178071I8535J-8535D01*
G01*
X-132795Y212598D02*
G03*
X-141331Y209063I0J-12071D01*
G01*
X141331D02*
G03*
X132795Y212598I-8535J-8535D01*
G01*
X162402Y182992D02*
G03*
X158866Y191528I-12071J0D01*
G01*
X30512Y146654D02*
X30512Y157481D01*
X3937Y146733D02*
Y182705D01*
X8937Y141733D02*
X25512D01*
X-30512Y157480D02*
X-30512Y146653D01*
X-3937Y146732D02*
Y182704D01*
X-25512Y141732D02*
X-8937D01*
X30512Y118110D02*
Y128937D01*
X3937Y92886D02*
Y128858D01*
X8937Y133858D02*
X25512D01*
X-25512D02*
X-8937D01*
X-3937Y92886D02*
Y128858D01*
X-30512Y118110D02*
Y128937D01*
X194882Y-196850D02*
X194882Y3938D01*
X180197Y11811D02*
X187009D01*
X-187009Y-204724D02*
X187009D01*
X-194882Y-196850D02*
X-194882Y3938D01*
X-187009Y11811D02*
X-180197D01*
X-171661Y15347D02*
X-171260Y15748D01*
X171260D02*
X171661Y15347D01*
X-171260Y15748D02*
X-170858Y16150D01*
X-167323Y24685D02*
Y31575D01*
X165937Y21071D02*
X171260Y15748D01*
X162402Y29606D02*
Y29766D01*
X-167323Y31575D02*
Y178071D01*
X-163787Y186606D02*
X-141331Y209063D01*
X-132795Y212598D02*
X132795D01*
X141331Y209063D02*
X158866Y191528D01*
X162402Y29766D02*
Y182992D01*
D81*
X-210952Y-14158D02*
Y-12158D01*
Y-13158D01*
X-216950D01*
X-215951Y-14158D01*
Y-9159D02*
X-216950Y-8160D01*
Y-6160D01*
X-215951Y-5161D01*
X-211952D01*
X-210952Y-6160D01*
Y-8160D01*
X-211952Y-9159D01*
X-215951D01*
X-216950Y838D02*
X-215951Y-1162D01*
X-213951Y-3161D01*
X-211952D01*
X-210952Y-2162D01*
Y-162D01*
X-211952Y838D01*
X-212952D01*
X-213951Y-162D01*
Y-3161D01*
X-209953Y3836D02*
X-210952Y4836D01*
X-211952D01*
Y3836D01*
X-210952D01*
Y4836D01*
X-209953Y3836D01*
X-208953Y2837D01*
X-215951Y8835D02*
X-216950Y9835D01*
Y11834D01*
X-215951Y12834D01*
X-211952D01*
X-210952Y11834D01*
Y9835D01*
X-211952Y8835D01*
X-215951D01*
Y14833D02*
X-216950Y15833D01*
Y17832D01*
X-215951Y18832D01*
X-211952D01*
X-210952Y17832D01*
Y15833D01*
X-211952Y14833D01*
X-215951D01*
X-15596Y-219150D02*
X-14596Y-220150D01*
X-12596D01*
X-11597Y-219150D01*
Y-215152D01*
X-12596Y-214152D01*
X-14596D01*
X-15596Y-215152D01*
Y-216151D01*
X-14596Y-217151D01*
X-11597D01*
X-9597Y-219150D02*
X-8598Y-220150D01*
X-6598D01*
X-5599Y-219150D01*
Y-215152D01*
X-6598Y-214152D01*
X-8598D01*
X-9597Y-215152D01*
Y-216151D01*
X-8598Y-217151D01*
X-5599D01*
X-2600Y-221150D02*
X-1600Y-220150D01*
Y-219150D01*
X-2600D01*
Y-220150D01*
X-1600D01*
X-2600Y-221150D01*
X-3599Y-222149D01*
X2399Y-215152D02*
X3398Y-214152D01*
X5398D01*
X6397Y-215152D01*
Y-219150D01*
X5398Y-220150D01*
X3398D01*
X2399Y-219150D01*
Y-215152D01*
X8397D02*
X9396Y-214152D01*
X11396D01*
X12395Y-215152D01*
Y-219150D01*
X11396Y-220150D01*
X9396D01*
X8397Y-219150D01*
Y-215152D01*
M02*
