G04*
G04 #@! TF.GenerationSoftware,Altium Limited,Altium Designer,24.6.1 (21)*
G04*
G04 Layer_Color=16711935*
%FSLAX25Y25*%
%MOIN*%
G70*
G04*
G04 #@! TF.SameCoordinates,01E0CDA6-314E-44D1-A422-088EE61E0F49*
G04*
G04*
G04 #@! TF.FilePolarity,Negative*
G04*
G01*
G75*
%ADD15C,0.00394*%
%ADD46C,0.10236*%
%ADD59C,0.09055*%
%ADD60C,0.12205*%
%ADD61C,0.05118*%
%ADD62C,0.05394*%
%ADD63C,0.06299*%
%ADD64R,0.06299X0.06299*%
%ADD65C,0.02362*%
%ADD66C,0.11417*%
%ADD67C,0.01772*%
G36*
X124639Y189159D02*
X124676Y189148D01*
X124710Y189129D01*
X124740Y189105D01*
X124765Y189075D01*
X124783Y189041D01*
X124785Y189035D01*
X125368D01*
X125407Y189031D01*
X125444Y189020D01*
X125478Y189002D01*
X125508Y188977D01*
X125533Y188947D01*
X125551Y188913D01*
X125553Y188907D01*
X125880D01*
X125919Y188903D01*
X125956Y188892D01*
X125990Y188874D01*
X126020Y188849D01*
X126045Y188819D01*
X126063Y188785D01*
X126065Y188779D01*
X126264D01*
X126303Y188775D01*
X126340Y188764D01*
X126374Y188746D01*
X126404Y188721D01*
X126429Y188691D01*
X126447Y188657D01*
X126449Y188651D01*
X126648D01*
X126687Y188647D01*
X126724Y188636D01*
X126758Y188618D01*
X126788Y188593D01*
X126813Y188563D01*
X126831Y188529D01*
X126833Y188523D01*
X126904D01*
X126943Y188519D01*
X126980Y188508D01*
X127014Y188490D01*
X127044Y188465D01*
X127069Y188435D01*
X127087Y188401D01*
X127089Y188395D01*
X127160D01*
X127199Y188391D01*
X127236Y188380D01*
X127270Y188362D01*
X127300Y188337D01*
X127324Y188307D01*
X127343Y188273D01*
X127345Y188267D01*
X127416D01*
X127455Y188263D01*
X127492Y188252D01*
X127526Y188234D01*
X127556Y188209D01*
X127580Y188179D01*
X127599Y188145D01*
X127601Y188139D01*
X127672D01*
X127711Y188135D01*
X127748Y188124D01*
X127782Y188106D01*
X127812Y188081D01*
X127837Y188051D01*
X127855Y188017D01*
X127857Y188011D01*
X127928D01*
X127967Y188007D01*
X128004Y187996D01*
X128038Y187978D01*
X128068Y187953D01*
X128093Y187923D01*
X128111Y187889D01*
X128116Y187873D01*
X128132Y187868D01*
X128166Y187850D01*
X128196Y187825D01*
X128220Y187795D01*
X128239Y187761D01*
X128241Y187755D01*
X128312D01*
X128350Y187751D01*
X128388Y187740D01*
X128422Y187722D01*
X128452Y187697D01*
X128476Y187667D01*
X128495Y187633D01*
X128499Y187617D01*
X128516Y187612D01*
X128550Y187594D01*
X128580Y187569D01*
X128604Y187539D01*
X128623Y187505D01*
X128625Y187498D01*
X128628Y187489D01*
X128644Y187484D01*
X128678Y187466D01*
X128708Y187441D01*
X128732Y187411D01*
X128751Y187377D01*
X128752Y187371D01*
X128824D01*
X128862Y187367D01*
X128900Y187356D01*
X128934Y187338D01*
X128964Y187313D01*
X128988Y187283D01*
X129007Y187249D01*
X129011Y187233D01*
X129027Y187228D01*
X129062Y187210D01*
X129092Y187185D01*
X129116Y187155D01*
X129135Y187121D01*
X129139Y187105D01*
X129156Y187100D01*
X129190Y187082D01*
X129220Y187057D01*
X129244Y187027D01*
X129262Y186993D01*
X129267Y186977D01*
X129283Y186972D01*
X129318Y186954D01*
X129348Y186929D01*
X129372Y186899D01*
X129391Y186865D01*
X129395Y186849D01*
X129411Y186844D01*
X129446Y186826D01*
X129476Y186801D01*
X129500Y186771D01*
X129518Y186737D01*
X129523Y186721D01*
X129539Y186716D01*
X129574Y186698D01*
X129604Y186673D01*
X129628Y186643D01*
X129647Y186609D01*
X129651Y186593D01*
X129667Y186588D01*
X129702Y186570D01*
X129732Y186545D01*
X129756Y186515D01*
X129774Y186481D01*
X129779Y186465D01*
X129795Y186460D01*
X129830Y186442D01*
X129860Y186417D01*
X129884Y186387D01*
X129902Y186353D01*
X129907Y186337D01*
X129923Y186332D01*
X129958Y186314D01*
X129988Y186289D01*
X130012Y186259D01*
X130030Y186225D01*
X130042Y186188D01*
X130045Y186150D01*
Y186078D01*
X130051Y186076D01*
X130086Y186058D01*
X130115Y186033D01*
X130140Y186003D01*
X130158Y185969D01*
X130163Y185953D01*
X130179Y185948D01*
X130213Y185930D01*
X130244Y185905D01*
X130268Y185875D01*
X130286Y185841D01*
X130291Y185825D01*
X130307Y185820D01*
X130341Y185802D01*
X130371Y185777D01*
X130396Y185748D01*
X130414Y185713D01*
X130426Y185676D01*
X130429Y185638D01*
Y185566D01*
X130435Y185564D01*
X130470Y185546D01*
X130499Y185521D01*
X130524Y185492D01*
X130542Y185457D01*
X130547Y185441D01*
X130563Y185436D01*
X130597Y185418D01*
X130627Y185394D01*
X130652Y185363D01*
X130670Y185329D01*
X130682Y185292D01*
X130685Y185254D01*
Y185182D01*
X130691Y185180D01*
X130726Y185162D01*
X130755Y185137D01*
X130780Y185108D01*
X130798Y185073D01*
X130810Y185036D01*
X130813Y184998D01*
Y184926D01*
X130819Y184924D01*
X130853Y184906D01*
X130883Y184882D01*
X130908Y184852D01*
X130926Y184817D01*
X130938Y184780D01*
X130941Y184742D01*
Y184670D01*
X130947Y184669D01*
X130981Y184650D01*
X131011Y184626D01*
X131036Y184596D01*
X131054Y184561D01*
X131065Y184524D01*
X131069Y184486D01*
Y184414D01*
X131075Y184413D01*
X131109Y184394D01*
X131139Y184370D01*
X131164Y184340D01*
X131182Y184306D01*
X131193Y184268D01*
X131197Y184230D01*
Y184158D01*
X131203Y184157D01*
X131237Y184138D01*
X131267Y184114D01*
X131292Y184084D01*
X131310Y184049D01*
X131322Y184012D01*
X131325Y183974D01*
Y183846D01*
Y183774D01*
X131331Y183773D01*
X131365Y183754D01*
X131395Y183730D01*
X131420Y183700D01*
X131438Y183666D01*
X131449Y183628D01*
X131453Y183590D01*
Y183462D01*
Y183334D01*
Y183263D01*
X131459Y183261D01*
X131493Y183242D01*
X131523Y183218D01*
X131548Y183188D01*
X131566Y183154D01*
X131577Y183117D01*
X131581Y183078D01*
Y182950D01*
Y182822D01*
Y182751D01*
X131587Y182749D01*
X131621Y182730D01*
X131651Y182706D01*
X131676Y182676D01*
X131694Y182642D01*
X131705Y182605D01*
X131709Y182566D01*
Y182438D01*
Y182310D01*
Y182182D01*
Y182054D01*
Y181926D01*
Y181855D01*
X131715Y181853D01*
X131749Y181835D01*
X131779Y181810D01*
X131804Y181780D01*
X131822Y181746D01*
X131833Y181709D01*
X131837Y181670D01*
Y181542D01*
Y181414D01*
Y181286D01*
Y181158D01*
Y181030D01*
Y180902D01*
Y180774D01*
Y180646D01*
Y180518D01*
Y180390D01*
X131833Y180352D01*
X131822Y180315D01*
X131804Y180280D01*
X131779Y180251D01*
X131749Y180226D01*
X131715Y180208D01*
X131709Y180206D01*
Y180134D01*
Y180007D01*
Y179878D01*
Y179751D01*
Y179622D01*
Y179495D01*
X131705Y179456D01*
X131694Y179419D01*
X131676Y179385D01*
X131651Y179355D01*
X131621Y179330D01*
X131587Y179312D01*
X131581Y179310D01*
Y179239D01*
Y179111D01*
Y178983D01*
X131577Y178944D01*
X131566Y178907D01*
X131548Y178873D01*
X131523Y178843D01*
X131493Y178818D01*
X131459Y178800D01*
X131453Y178798D01*
Y178727D01*
Y178599D01*
Y178471D01*
X131449Y178432D01*
X131438Y178395D01*
X131420Y178361D01*
X131395Y178331D01*
X131365Y178306D01*
X131331Y178288D01*
X131325Y178286D01*
Y178215D01*
X131322Y178176D01*
X131310Y178139D01*
X131292Y178105D01*
X131267Y178075D01*
X131237Y178050D01*
X131203Y178032D01*
X131197Y178030D01*
Y177959D01*
Y177831D01*
X131193Y177792D01*
X131182Y177755D01*
X131164Y177721D01*
X131139Y177691D01*
X131109Y177666D01*
X131075Y177648D01*
X131069Y177646D01*
Y177575D01*
X131065Y177536D01*
X131054Y177499D01*
X131036Y177465D01*
X131011Y177435D01*
X130981Y177410D01*
X130947Y177392D01*
X130941Y177390D01*
Y177319D01*
X130938Y177280D01*
X130926Y177243D01*
X130908Y177209D01*
X130883Y177179D01*
X130853Y177154D01*
X130819Y177136D01*
X130813Y177134D01*
Y177063D01*
X130810Y177024D01*
X130798Y176987D01*
X130780Y176953D01*
X130755Y176923D01*
X130726Y176899D01*
X130691Y176880D01*
X130685Y176878D01*
Y176807D01*
X130682Y176768D01*
X130670Y176731D01*
X130652Y176697D01*
X130627Y176667D01*
X130597Y176643D01*
X130563Y176624D01*
X130547Y176619D01*
X130542Y176603D01*
X130524Y176569D01*
X130499Y176539D01*
X130470Y176514D01*
X130435Y176496D01*
X130429Y176495D01*
Y176423D01*
X130426Y176384D01*
X130414Y176347D01*
X130396Y176313D01*
X130371Y176283D01*
X130341Y176259D01*
X130307Y176240D01*
X130291Y176235D01*
X130289Y176227D01*
X130286Y176219D01*
X130268Y176185D01*
X130244Y176155D01*
X130213Y176131D01*
X130179Y176112D01*
X130163Y176107D01*
X130158Y176091D01*
X130140Y176057D01*
X130115Y176027D01*
X130086Y176003D01*
X130051Y175984D01*
X130045Y175982D01*
Y175911D01*
X130042Y175873D01*
X130030Y175835D01*
X130012Y175801D01*
X129988Y175771D01*
X129958Y175747D01*
X129923Y175728D01*
X129907Y175724D01*
X129903Y175710D01*
X129902Y175707D01*
X129884Y175673D01*
X129860Y175643D01*
X129830Y175619D01*
X129795Y175600D01*
X129779Y175595D01*
X129774Y175579D01*
X129756Y175545D01*
X129732Y175515D01*
X129702Y175491D01*
X129667Y175472D01*
X129651Y175468D01*
X129647Y175452D01*
X129628Y175417D01*
X129604Y175387D01*
X129574Y175363D01*
X129539Y175344D01*
X129523Y175339D01*
X129519Y175326D01*
X129518Y175323D01*
X129500Y175289D01*
X129476Y175259D01*
X129446Y175235D01*
X129411Y175216D01*
X129395Y175212D01*
X129391Y175196D01*
X129372Y175161D01*
X129348Y175131D01*
X129318Y175107D01*
X129283Y175089D01*
X129267Y175084D01*
X129262Y175067D01*
X129244Y175033D01*
X129220Y175003D01*
X129190Y174979D01*
X129156Y174960D01*
X129139Y174956D01*
X129136Y174945D01*
X129135Y174940D01*
X129116Y174905D01*
X129092Y174875D01*
X129062Y174851D01*
X129027Y174832D01*
X129011Y174828D01*
X129009Y174821D01*
X129007Y174812D01*
X128988Y174777D01*
X128964Y174747D01*
X128934Y174723D01*
X128900Y174705D01*
X128862Y174693D01*
X128824Y174689D01*
X128752D01*
X128751Y174684D01*
X128732Y174649D01*
X128708Y174619D01*
X128678Y174595D01*
X128644Y174576D01*
X128628Y174572D01*
X128625Y174563D01*
X128623Y174556D01*
X128604Y174521D01*
X128580Y174491D01*
X128550Y174467D01*
X128516Y174449D01*
X128499Y174444D01*
X128495Y174428D01*
X128476Y174393D01*
X128452Y174364D01*
X128422Y174339D01*
X128388Y174321D01*
X128350Y174309D01*
X128312Y174305D01*
X128241D01*
X128239Y174300D01*
X128220Y174266D01*
X128196Y174235D01*
X128166Y174211D01*
X128132Y174193D01*
X128116Y174188D01*
X128111Y174172D01*
X128093Y174137D01*
X128068Y174108D01*
X128038Y174083D01*
X128004Y174065D01*
X127967Y174053D01*
X127928Y174050D01*
X127857D01*
X127855Y174044D01*
X127837Y174010D01*
X127812Y173979D01*
X127782Y173955D01*
X127748Y173937D01*
X127711Y173925D01*
X127672Y173922D01*
X127601D01*
X127599Y173916D01*
X127580Y173881D01*
X127556Y173852D01*
X127526Y173827D01*
X127492Y173809D01*
X127455Y173797D01*
X127416Y173794D01*
X127345D01*
X127343Y173788D01*
X127324Y173753D01*
X127300Y173724D01*
X127270Y173699D01*
X127236Y173681D01*
X127199Y173669D01*
X127160Y173666D01*
X127089D01*
X127087Y173660D01*
X127069Y173626D01*
X127044Y173596D01*
X127014Y173571D01*
X126980Y173553D01*
X126943Y173541D01*
X126904Y173538D01*
X126833D01*
X126831Y173532D01*
X126813Y173498D01*
X126788Y173468D01*
X126758Y173443D01*
X126724Y173425D01*
X126687Y173414D01*
X126648Y173410D01*
X126449D01*
X126447Y173404D01*
X126429Y173370D01*
X126404Y173340D01*
X126374Y173315D01*
X126340Y173297D01*
X126303Y173285D01*
X126264Y173282D01*
X126065D01*
X126063Y173276D01*
X126045Y173242D01*
X126020Y173212D01*
X125990Y173187D01*
X125956Y173169D01*
X125919Y173158D01*
X125880Y173154D01*
X125553D01*
X125551Y173148D01*
X125533Y173114D01*
X125508Y173084D01*
X125478Y173059D01*
X125444Y173041D01*
X125407Y173029D01*
X125368Y173026D01*
X124785D01*
X124783Y173020D01*
X124765Y172986D01*
X124740Y172956D01*
X124710Y172931D01*
X124676Y172913D01*
X124639Y172901D01*
X124601Y172898D01*
X122809D01*
X122770Y172901D01*
X122733Y172913D01*
X122699Y172931D01*
X122669Y172956D01*
X122644Y172986D01*
X122626Y173020D01*
X122624Y173026D01*
X122041D01*
X122002Y173029D01*
X121965Y173041D01*
X121931Y173059D01*
X121901Y173084D01*
X121876Y173114D01*
X121858Y173148D01*
X121856Y173154D01*
X121529D01*
X121490Y173158D01*
X121453Y173169D01*
X121419Y173187D01*
X121389Y173212D01*
X121364Y173242D01*
X121346Y173276D01*
X121344Y173282D01*
X121145D01*
X121107Y173285D01*
X121069Y173297D01*
X121035Y173315D01*
X121005Y173340D01*
X120981Y173370D01*
X120962Y173404D01*
X120960Y173410D01*
X120761D01*
X120722Y173414D01*
X120685Y173425D01*
X120651Y173443D01*
X120621Y173468D01*
X120597Y173498D01*
X120578Y173532D01*
X120577Y173538D01*
X120505D01*
X120467Y173541D01*
X120430Y173553D01*
X120395Y173571D01*
X120365Y173596D01*
X120341Y173626D01*
X120322Y173660D01*
X120321Y173666D01*
X120121D01*
X120083Y173669D01*
X120045Y173681D01*
X120011Y173699D01*
X119981Y173724D01*
X119957Y173753D01*
X119939Y173788D01*
X119934Y173804D01*
X119918Y173809D01*
X119883Y173827D01*
X119853Y173852D01*
X119829Y173881D01*
X119810Y173916D01*
X119809Y173922D01*
X119737D01*
X119699Y173925D01*
X119662Y173937D01*
X119627Y173955D01*
X119597Y173979D01*
X119573Y174010D01*
X119554Y174044D01*
X119553Y174050D01*
X119481D01*
X119443Y174053D01*
X119406Y174065D01*
X119371Y174083D01*
X119341Y174108D01*
X119317Y174137D01*
X119299Y174172D01*
X119294Y174188D01*
X119278Y174193D01*
X119243Y174211D01*
X119213Y174235D01*
X119189Y174266D01*
X119171Y174300D01*
X119169Y174305D01*
X119097D01*
X119059Y174309D01*
X119022Y174321D01*
X118988Y174339D01*
X118957Y174364D01*
X118933Y174393D01*
X118915Y174428D01*
X118910Y174444D01*
X118894Y174449D01*
X118860Y174467D01*
X118830Y174491D01*
X118805Y174521D01*
X118787Y174556D01*
X118785Y174562D01*
X118713D01*
X118675Y174565D01*
X118638Y174576D01*
X118604Y174595D01*
X118574Y174619D01*
X118549Y174649D01*
X118531Y174684D01*
X118526Y174700D01*
X118510Y174705D01*
X118476Y174723D01*
X118446Y174747D01*
X118421Y174777D01*
X118403Y174812D01*
X118398Y174828D01*
X118382Y174832D01*
X118348Y174851D01*
X118318Y174875D01*
X118293Y174905D01*
X118275Y174940D01*
X118270Y174956D01*
X118254Y174960D01*
X118220Y174979D01*
X118190Y175003D01*
X118165Y175033D01*
X118147Y175067D01*
X118145Y175075D01*
X118142Y175084D01*
X118126Y175089D01*
X118092Y175107D01*
X118062Y175131D01*
X118037Y175161D01*
X118019Y175196D01*
X118014Y175212D01*
X117998Y175216D01*
X117964Y175235D01*
X117934Y175259D01*
X117909Y175289D01*
X117891Y175323D01*
X117890Y175326D01*
X117886Y175340D01*
X117870Y175344D01*
X117836Y175363D01*
X117806Y175387D01*
X117781Y175417D01*
X117763Y175452D01*
X117758Y175468D01*
X117742Y175472D01*
X117708Y175491D01*
X117678Y175515D01*
X117653Y175545D01*
X117635Y175579D01*
X117630Y175595D01*
X117614Y175600D01*
X117580Y175619D01*
X117550Y175643D01*
X117525Y175673D01*
X117507Y175707D01*
X117502Y175724D01*
X117486Y175728D01*
X117452Y175747D01*
X117422Y175771D01*
X117397Y175801D01*
X117379Y175835D01*
X117374Y175852D01*
X117358Y175856D01*
X117324Y175875D01*
X117294Y175899D01*
X117269Y175929D01*
X117251Y175963D01*
X117240Y176000D01*
X117236Y176039D01*
Y176110D01*
X117230Y176112D01*
X117196Y176131D01*
X117166Y176155D01*
X117141Y176185D01*
X117123Y176219D01*
X117118Y176235D01*
X117102Y176240D01*
X117068Y176259D01*
X117038Y176283D01*
X117013Y176313D01*
X116995Y176347D01*
X116984Y176384D01*
X116980Y176423D01*
Y176495D01*
X116974Y176496D01*
X116940Y176514D01*
X116910Y176539D01*
X116885Y176569D01*
X116867Y176603D01*
X116862Y176619D01*
X116846Y176624D01*
X116812Y176643D01*
X116782Y176667D01*
X116757Y176697D01*
X116739Y176731D01*
X116728Y176768D01*
X116724Y176807D01*
Y176878D01*
X116718Y176880D01*
X116684Y176899D01*
X116654Y176923D01*
X116629Y176953D01*
X116611Y176987D01*
X116600Y177024D01*
X116596Y177063D01*
Y177134D01*
X116590Y177136D01*
X116556Y177154D01*
X116526Y177179D01*
X116501Y177209D01*
X116483Y177243D01*
X116472Y177280D01*
X116468Y177319D01*
Y177390D01*
X116462Y177392D01*
X116428Y177410D01*
X116398Y177435D01*
X116373Y177465D01*
X116355Y177499D01*
X116344Y177536D01*
X116340Y177575D01*
Y177646D01*
X116334Y177648D01*
X116300Y177666D01*
X116270Y177691D01*
X116245Y177721D01*
X116227Y177755D01*
X116216Y177792D01*
X116212Y177831D01*
Y177902D01*
X116206Y177904D01*
X116172Y177922D01*
X116142Y177947D01*
X116117Y177977D01*
X116099Y178011D01*
X116088Y178048D01*
X116084Y178087D01*
Y178215D01*
Y178286D01*
X116078Y178288D01*
X116044Y178306D01*
X116014Y178331D01*
X115989Y178361D01*
X115971Y178395D01*
X115960Y178432D01*
X115956Y178471D01*
Y178599D01*
Y178670D01*
X115950Y178672D01*
X115916Y178690D01*
X115886Y178715D01*
X115861Y178745D01*
X115843Y178779D01*
X115832Y178816D01*
X115828Y178855D01*
Y178983D01*
Y179111D01*
Y179182D01*
X115822Y179184D01*
X115788Y179202D01*
X115758Y179227D01*
X115733Y179257D01*
X115715Y179291D01*
X115704Y179328D01*
X115700Y179367D01*
Y179495D01*
Y179622D01*
Y179751D01*
Y179878D01*
Y179950D01*
X115694Y179952D01*
X115660Y179970D01*
X115630Y179995D01*
X115605Y180025D01*
X115587Y180059D01*
X115576Y180096D01*
X115572Y180134D01*
Y180262D01*
Y180390D01*
Y180518D01*
Y180646D01*
Y180774D01*
Y180902D01*
Y181030D01*
Y181158D01*
Y181286D01*
Y181414D01*
Y181542D01*
Y181670D01*
Y181798D01*
Y181926D01*
X115576Y181965D01*
X115587Y182002D01*
X115605Y182036D01*
X115630Y182066D01*
X115660Y182091D01*
X115694Y182109D01*
X115700Y182111D01*
Y182182D01*
Y182310D01*
Y182438D01*
Y182566D01*
Y182694D01*
X115704Y182733D01*
X115715Y182770D01*
X115733Y182804D01*
X115758Y182834D01*
X115788Y182859D01*
X115822Y182877D01*
X115828Y182879D01*
Y182950D01*
Y183078D01*
Y183206D01*
X115832Y183245D01*
X115843Y183282D01*
X115861Y183316D01*
X115886Y183346D01*
X115916Y183370D01*
X115950Y183389D01*
X115956Y183390D01*
Y183462D01*
Y183590D01*
X115960Y183628D01*
X115971Y183666D01*
X115989Y183700D01*
X116014Y183730D01*
X116044Y183754D01*
X116078Y183773D01*
X116084Y183774D01*
Y183846D01*
Y183974D01*
X116088Y184012D01*
X116099Y184049D01*
X116117Y184084D01*
X116142Y184114D01*
X116172Y184138D01*
X116206Y184157D01*
X116212Y184158D01*
Y184230D01*
X116216Y184268D01*
X116227Y184306D01*
X116245Y184340D01*
X116270Y184370D01*
X116300Y184394D01*
X116334Y184413D01*
X116340Y184414D01*
Y184486D01*
X116344Y184524D01*
X116355Y184561D01*
X116373Y184596D01*
X116398Y184626D01*
X116428Y184650D01*
X116462Y184669D01*
X116468Y184670D01*
Y184742D01*
X116472Y184780D01*
X116483Y184817D01*
X116501Y184852D01*
X116526Y184882D01*
X116556Y184906D01*
X116590Y184924D01*
X116596Y184926D01*
Y184998D01*
X116600Y185036D01*
X116611Y185073D01*
X116629Y185108D01*
X116654Y185137D01*
X116684Y185162D01*
X116718Y185180D01*
X116724Y185182D01*
Y185254D01*
X116728Y185292D01*
X116739Y185329D01*
X116757Y185363D01*
X116782Y185394D01*
X116812Y185418D01*
X116846Y185436D01*
X116862Y185441D01*
X116867Y185457D01*
X116885Y185492D01*
X116910Y185521D01*
X116940Y185546D01*
X116974Y185564D01*
X116980Y185566D01*
Y185638D01*
X116984Y185676D01*
X116995Y185713D01*
X117013Y185748D01*
X117038Y185777D01*
X117068Y185802D01*
X117102Y185820D01*
X117118Y185825D01*
X117123Y185841D01*
X117141Y185875D01*
X117166Y185905D01*
X117196Y185930D01*
X117230Y185948D01*
X117236Y185950D01*
Y186021D01*
X117240Y186060D01*
X117251Y186097D01*
X117269Y186131D01*
X117294Y186161D01*
X117324Y186186D01*
X117358Y186204D01*
X117374Y186209D01*
X117379Y186225D01*
X117397Y186259D01*
X117422Y186289D01*
X117452Y186314D01*
X117486Y186332D01*
X117502Y186337D01*
X117507Y186353D01*
X117525Y186387D01*
X117550Y186417D01*
X117580Y186442D01*
X117614Y186460D01*
X117630Y186465D01*
X117635Y186481D01*
X117653Y186515D01*
X117678Y186545D01*
X117708Y186570D01*
X117742Y186588D01*
X117758Y186593D01*
X117758Y186593D01*
X117763Y186609D01*
X117781Y186643D01*
X117806Y186673D01*
X117836Y186698D01*
X117870Y186716D01*
X117886Y186721D01*
X117891Y186737D01*
X117909Y186771D01*
X117934Y186801D01*
X117964Y186826D01*
X117998Y186844D01*
X118014Y186849D01*
X118019Y186865D01*
X118037Y186899D01*
X118062Y186929D01*
X118092Y186954D01*
X118126Y186972D01*
X118142Y186977D01*
X118147Y186993D01*
X118165Y187027D01*
X118190Y187057D01*
X118220Y187082D01*
X118254Y187100D01*
X118270Y187105D01*
X118275Y187121D01*
X118293Y187155D01*
X118318Y187185D01*
X118348Y187210D01*
X118382Y187228D01*
X118398Y187233D01*
X118403Y187249D01*
X118421Y187283D01*
X118446Y187313D01*
X118476Y187338D01*
X118510Y187356D01*
X118526Y187361D01*
X118531Y187377D01*
X118549Y187411D01*
X118574Y187441D01*
X118604Y187466D01*
X118638Y187484D01*
X118675Y187495D01*
X118713Y187499D01*
X118785D01*
X118787Y187505D01*
X118805Y187539D01*
X118830Y187569D01*
X118860Y187594D01*
X118894Y187612D01*
X118910Y187617D01*
X118915Y187633D01*
X118933Y187667D01*
X118957Y187697D01*
X118988Y187722D01*
X119022Y187740D01*
X119059Y187751D01*
X119097Y187755D01*
X119169D01*
X119171Y187761D01*
X119189Y187795D01*
X119213Y187825D01*
X119243Y187850D01*
X119278Y187868D01*
X119294Y187873D01*
X119299Y187889D01*
X119317Y187923D01*
X119341Y187953D01*
X119371Y187978D01*
X119406Y187996D01*
X119443Y188007D01*
X119481Y188011D01*
X119553D01*
X119554Y188017D01*
X119573Y188051D01*
X119597Y188081D01*
X119627Y188106D01*
X119662Y188124D01*
X119699Y188135D01*
X119737Y188139D01*
X119809D01*
X119810Y188145D01*
X119829Y188179D01*
X119853Y188209D01*
X119883Y188234D01*
X119918Y188252D01*
X119955Y188263D01*
X119993Y188267D01*
X120065D01*
X120066Y188273D01*
X120085Y188307D01*
X120109Y188337D01*
X120139Y188362D01*
X120174Y188380D01*
X120211Y188391D01*
X120249Y188395D01*
X120321D01*
X120322Y188401D01*
X120341Y188435D01*
X120365Y188465D01*
X120395Y188490D01*
X120430Y188508D01*
X120467Y188519D01*
X120505Y188523D01*
X120577D01*
X120578Y188529D01*
X120597Y188563D01*
X120621Y188593D01*
X120651Y188618D01*
X120685Y188636D01*
X120722Y188647D01*
X120761Y188651D01*
X120960D01*
X120962Y188657D01*
X120981Y188691D01*
X121005Y188721D01*
X121035Y188746D01*
X121069Y188764D01*
X121107Y188775D01*
X121145Y188779D01*
X121344D01*
X121346Y188785D01*
X121364Y188819D01*
X121389Y188849D01*
X121419Y188874D01*
X121453Y188892D01*
X121490Y188903D01*
X121529Y188907D01*
X121856D01*
X121858Y188913D01*
X121876Y188947D01*
X121901Y188977D01*
X121931Y189002D01*
X121965Y189020D01*
X122002Y189031D01*
X122041Y189035D01*
X122624D01*
X122626Y189041D01*
X122644Y189075D01*
X122669Y189105D01*
X122699Y189129D01*
X122733Y189148D01*
X122770Y189159D01*
X122809Y189163D01*
X124601D01*
X124639Y189159D01*
D02*
G37*
G36*
X127795Y168620D02*
X127798Y168620D01*
X127815Y168618D01*
X127830Y168616D01*
X127833Y168615D01*
X127837Y168615D01*
X127852Y168610D01*
X127867Y168605D01*
X127870Y168603D01*
X127874Y168602D01*
X127887Y168594D01*
X127901Y168587D01*
X127904Y168585D01*
X127907Y168583D01*
X127919Y168572D01*
X127931Y168562D01*
X127934Y168559D01*
X127936Y168557D01*
X128046Y168439D01*
X128048Y168436D01*
X128051Y168434D01*
X128060Y168421D01*
X128070Y168408D01*
X128071Y168405D01*
X128073Y168402D01*
X128080Y168388D01*
X128087Y168373D01*
X128088Y168370D01*
X128089Y168367D01*
X128093Y168351D01*
X128097Y168336D01*
X128097Y168333D01*
X128098Y168329D01*
X128098Y168314D01*
X128099Y168297D01*
X128099Y168294D01*
X128099Y168290D01*
X128096Y168275D01*
X128094Y168259D01*
X128093Y168256D01*
X128093Y168252D01*
X128087Y168237D01*
X128082Y168222D01*
X128080Y168219D01*
X128079Y168216D01*
X124462Y160939D01*
X124455Y160927D01*
X124449Y160916D01*
X124445Y160911D01*
X124442Y160906D01*
X124433Y160896D01*
X124424Y160886D01*
X124419Y160882D01*
X124415Y160877D01*
X124404Y160870D01*
X124394Y160861D01*
X124389Y160859D01*
X124383Y160855D01*
X124372Y160849D01*
X124360Y160843D01*
X124354Y160842D01*
X124348Y160839D01*
X124335Y160836D01*
X124323Y160832D01*
X124316Y160832D01*
X124310Y160830D01*
X124297Y160830D01*
X124284Y160829D01*
X124278Y160829D01*
X124272Y160829D01*
X124259Y160831D01*
X124245Y160833D01*
X124240Y160835D01*
X124233Y160836D01*
X124221Y160840D01*
X124208Y160844D01*
X123017Y161346D01*
X123014Y161347D01*
X123011Y161348D01*
X122997Y161357D01*
X122983Y161364D01*
X122980Y161366D01*
X122977Y161368D01*
X122965Y161379D01*
X122953Y161389D01*
X122951Y161392D01*
X122949Y161394D01*
X122939Y161407D01*
X122929Y161419D01*
X122927Y161422D01*
X122925Y161425D01*
X122918Y161439D01*
X122910Y161453D01*
X122909Y161457D01*
X122908Y161460D01*
X122852Y161611D01*
X122851Y161614D01*
X122850Y161617D01*
X122846Y161633D01*
X122842Y161649D01*
X122842Y161652D01*
X122841Y161655D01*
X122841Y161671D01*
X122840Y161687D01*
X122840Y161691D01*
X122840Y161694D01*
X122843Y161710D01*
X122845Y161726D01*
X122846Y161729D01*
X122847Y161732D01*
X122853Y161747D01*
X122858Y161762D01*
X122859Y161765D01*
X122861Y161768D01*
X124671Y165388D01*
X117732Y162532D01*
X129337Y157751D01*
X129337Y157751D01*
X129337Y157751D01*
X129351Y157744D01*
X129371Y157733D01*
X129371Y157733D01*
X129371Y157733D01*
X129385Y157721D01*
X129401Y157709D01*
X129401Y157708D01*
X129401Y157708D01*
X129411Y157696D01*
X129425Y157679D01*
X129426Y157678D01*
X129426Y157678D01*
X129433Y157665D01*
X129444Y157644D01*
X129444Y157644D01*
X129444Y157644D01*
X129446Y157636D01*
X129455Y157607D01*
X129455Y157607D01*
X129455Y157607D01*
X129487Y157449D01*
X129487Y157448D01*
X129487Y157448D01*
X129489Y157424D01*
X129491Y157410D01*
Y157410D01*
X129491Y157410D01*
X129489Y157389D01*
X129487Y157371D01*
X129487Y157371D01*
X129487Y157371D01*
X129482Y157355D01*
X129476Y157334D01*
X129476Y157334D01*
X129476Y157334D01*
X129467Y157319D01*
X129457Y157300D01*
X129457Y157300D01*
X129457Y157300D01*
X129445Y157284D01*
X129433Y157270D01*
X129433Y157270D01*
X129433Y157270D01*
X115504Y143341D01*
X115504Y143341D01*
X115474Y143317D01*
X115440Y143298D01*
X115431Y143296D01*
X115403Y143287D01*
X115364Y143283D01*
X115326Y143287D01*
X115288Y143298D01*
X115254Y143317D01*
X115224Y143341D01*
X101296Y157270D01*
X101296Y157270D01*
X101296Y157270D01*
X101291Y157276D01*
X101271Y157300D01*
X101271Y157300D01*
X101271Y157300D01*
X101263Y157315D01*
X101253Y157334D01*
X101253Y157334D01*
X101253Y157334D01*
X101247Y157353D01*
X101242Y157371D01*
X101242Y157371D01*
X101242Y157371D01*
X101240Y157389D01*
X101238Y157410D01*
X101238Y157410D01*
Y157410D01*
X101239Y157425D01*
X101242Y157448D01*
X101242Y157448D01*
X101242Y157449D01*
X101273Y157607D01*
X101273Y157607D01*
X101273Y157607D01*
X101279Y157627D01*
X101285Y157644D01*
X101285Y157644D01*
X101285Y157644D01*
X101294Y157662D01*
X101303Y157678D01*
X101303Y157678D01*
X101303Y157679D01*
X101313Y157690D01*
X101328Y157708D01*
X101328Y157709D01*
X101328Y157709D01*
X101336Y157715D01*
X101358Y157733D01*
X101358Y157733D01*
X101358Y157733D01*
X101368Y157739D01*
X101392Y157751D01*
X101392Y157751D01*
X101392Y157751D01*
X112997Y162532D01*
X106051Y165391D01*
X107824Y161767D01*
X107825Y161764D01*
X107826Y161762D01*
X107832Y161746D01*
X107838Y161730D01*
X107838Y161728D01*
X107839Y161725D01*
X107841Y161709D01*
X107844Y161692D01*
X107844Y161689D01*
X107844Y161687D01*
X107843Y161670D01*
X107843Y161653D01*
X107842Y161651D01*
X107842Y161648D01*
X107837Y161632D01*
X107834Y161616D01*
X107832Y161613D01*
X107832Y161610D01*
X107775Y161459D01*
X107774Y161457D01*
X107773Y161454D01*
X107765Y161439D01*
X107758Y161424D01*
X107756Y161422D01*
X107755Y161419D01*
X107744Y161407D01*
X107734Y161393D01*
X107732Y161392D01*
X107730Y161389D01*
X107718Y161379D01*
X107705Y161368D01*
X107703Y161366D01*
X107701Y161365D01*
X107686Y161357D01*
X107672Y161348D01*
X107669Y161347D01*
X107667Y161346D01*
X106474Y160844D01*
X106462Y160840D01*
X106449Y160836D01*
X106443Y160835D01*
X106437Y160833D01*
X106424Y160831D01*
X106411Y160829D01*
X106405Y160829D01*
X106399Y160829D01*
X106386Y160830D01*
X106372Y160830D01*
X106366Y160832D01*
X106360Y160832D01*
X106348Y160836D01*
X106335Y160839D01*
X106329Y160842D01*
X106323Y160843D01*
X106311Y160849D01*
X106299Y160855D01*
X106294Y160859D01*
X106289Y160861D01*
X106279Y160870D01*
X106268Y160877D01*
X106263Y160882D01*
X106259Y160886D01*
X106250Y160896D01*
X106241Y160906D01*
X106238Y160911D01*
X106234Y160916D01*
X106228Y160927D01*
X106220Y160939D01*
X102604Y168216D01*
X102603Y168219D01*
X102601Y168222D01*
X102596Y168237D01*
X102590Y168252D01*
X102590Y168256D01*
X102589Y168259D01*
X102586Y168275D01*
X102584Y168290D01*
X102584Y168294D01*
X102583Y168297D01*
X102584Y168314D01*
X102585Y168329D01*
X102586Y168333D01*
X102586Y168336D01*
X102590Y168351D01*
X102594Y168367D01*
X102595Y168370D01*
X102596Y168373D01*
X102603Y168388D01*
X102610Y168402D01*
X102611Y168405D01*
X102613Y168408D01*
X102623Y168421D01*
X102632Y168434D01*
X102634Y168436D01*
X102636Y168439D01*
X102747Y168557D01*
X102749Y168559D01*
X102751Y168562D01*
X102764Y168572D01*
X102776Y168583D01*
X102779Y168585D01*
X102781Y168587D01*
X102796Y168594D01*
X102809Y168602D01*
X102812Y168603D01*
X102815Y168605D01*
X102831Y168610D01*
X102846Y168615D01*
X102849Y168615D01*
X102852Y168616D01*
X102868Y168618D01*
X102884Y168620D01*
X102888Y168620D01*
X102891Y168620D01*
X102907Y168619D01*
X102923Y168617D01*
X102926Y168617D01*
X102930Y168616D01*
X102945Y168612D01*
X102961Y168608D01*
X102964Y168606D01*
X102967Y168605D01*
X115341Y163499D01*
X127716Y168605D01*
X127719Y168606D01*
X127722Y168608D01*
X127737Y168612D01*
X127753Y168616D01*
X127757Y168617D01*
X127760Y168618D01*
X127776Y168619D01*
X127792Y168620D01*
X127795Y168620D01*
D02*
G37*
G36*
X137054Y133159D02*
X137054Y133159D01*
X137054Y133159D01*
X137070Y133157D01*
X137088Y133155D01*
X137102Y133156D01*
X137122Y133158D01*
X137122D01*
X137122D01*
X137122D01*
X137191Y133157D01*
X137225Y133154D01*
X137249Y133156D01*
X137259Y133157D01*
X137259D01*
X137259D01*
X137328Y133156D01*
X137328D01*
X137328D01*
X137340Y133155D01*
X137362Y133152D01*
X137396Y133156D01*
X138560Y133145D01*
D01*
X138560D01*
X138565Y133145D01*
X138599Y133141D01*
X138624Y133133D01*
X138636Y133130D01*
X138654Y133119D01*
X138670Y133111D01*
X138700Y133086D01*
Y133086D01*
X138700D01*
X138724Y133056D01*
X138742Y133022D01*
X138750Y132995D01*
X138753Y132984D01*
X138756Y132946D01*
Y132946D01*
Y132946D01*
X138756Y132877D01*
X138755Y132869D01*
X138752Y132839D01*
X138740Y132802D01*
X138740Y132802D01*
D01*
X138722Y132768D01*
X138713Y132757D01*
X138697Y132738D01*
X138674Y132720D01*
X138666Y132714D01*
X138635Y132697D01*
X138632Y132696D01*
D01*
X138632Y132696D01*
X138617Y132691D01*
X138595Y132685D01*
X138556Y132681D01*
X138556D01*
D01*
D01*
X138499Y132682D01*
X138491Y132671D01*
X138491Y132671D01*
X138491Y132671D01*
X138483Y132665D01*
X138461Y132647D01*
X138460Y132647D01*
X138460Y132647D01*
X138450Y132641D01*
X138426Y132629D01*
X138426Y132629D01*
X138426Y132629D01*
X138414Y132625D01*
X138389Y132618D01*
X138389Y132618D01*
X138389Y132618D01*
X138371Y132616D01*
X138350Y132615D01*
X138350Y132615D01*
X138350Y132615D01*
X138293Y132615D01*
X138293Y132615D01*
X138285Y132605D01*
X138285Y132605D01*
X138285Y132605D01*
X138273Y132595D01*
X138254Y132580D01*
X138251Y132579D01*
X138245Y132576D01*
X138244Y132574D01*
X138240Y132567D01*
X138240Y132567D01*
X138240Y132566D01*
X138224Y132547D01*
X138216Y132537D01*
X138216Y132537D01*
X138215Y132537D01*
X138189Y132516D01*
X138185Y132512D01*
X138185D01*
X138185Y132512D01*
X138176Y132508D01*
X138171Y132499D01*
X138171Y132499D01*
X138171Y132499D01*
X138159Y132484D01*
X138146Y132469D01*
X138146Y132469D01*
X138146Y132469D01*
X138116Y132445D01*
X138084Y132428D01*
X138082Y132427D01*
D01*
X138082Y132427D01*
X138059Y132420D01*
X138052Y132397D01*
X138052Y132397D01*
Y132397D01*
X138042Y132380D01*
X138033Y132363D01*
X138033Y132363D01*
X138033Y132363D01*
X138023Y132351D01*
X138008Y132333D01*
X137978Y132309D01*
X137978Y132309D01*
X137978Y132309D01*
X137969Y132304D01*
X137969Y132304D01*
X137964Y132295D01*
X137939Y132265D01*
X137909Y132241D01*
X137900Y132236D01*
X137895Y132227D01*
X137870Y132197D01*
X137840Y132173D01*
X137831Y132168D01*
X137826Y132159D01*
X137801Y132130D01*
X137801Y132129D01*
X137801Y132129D01*
X137795Y132124D01*
X137791Y132121D01*
X137790Y132064D01*
X137786Y132025D01*
X137783Y132017D01*
X137774Y131988D01*
X137756Y131954D01*
X137731Y131925D01*
X137701Y131900D01*
X137692Y131896D01*
X137687Y131886D01*
X137662Y131857D01*
X137632Y131832D01*
X137626Y131829D01*
X137622Y131828D01*
X137618Y131819D01*
X137618Y131819D01*
X137617Y131819D01*
X137604Y131802D01*
X137593Y131789D01*
X137593Y131789D01*
X137593Y131789D01*
X137582Y131780D01*
X137582Y131723D01*
X137582Y131723D01*
X137582Y131723D01*
X137580Y131708D01*
X137577Y131685D01*
X137577Y131685D01*
Y131685D01*
X137575Y131678D01*
X137566Y131648D01*
X137566Y131648D01*
X137566Y131648D01*
X137556Y131630D01*
X137547Y131614D01*
X137547Y131614D01*
X137547Y131614D01*
X137534Y131597D01*
X137522Y131584D01*
X137522Y131584D01*
X137522Y131584D01*
X137512Y131575D01*
X137511Y131519D01*
X137508Y131484D01*
X137511Y131450D01*
D01*
Y131450D01*
X137510Y131382D01*
X137508Y131362D01*
X137506Y131343D01*
X137506Y131343D01*
X137506Y131343D01*
X137498Y131317D01*
X137494Y131306D01*
X137494Y131306D01*
X137494Y131306D01*
X137482Y131284D01*
X137476Y131272D01*
X137476Y131272D01*
X137476Y131272D01*
X137462Y131256D01*
X137451Y131242D01*
X137451Y131242D01*
X137451Y131242D01*
X137440Y131234D01*
X137440Y131177D01*
Y131177D01*
Y131177D01*
X137436Y131138D01*
X137427Y131112D01*
X137424Y131101D01*
X137424Y131101D01*
D01*
X137422Y131098D01*
X137406Y131067D01*
X137381Y131037D01*
X137381Y131037D01*
X137381Y131037D01*
X137370Y131029D01*
X137370Y130972D01*
Y130972D01*
Y130972D01*
X137368Y130959D01*
X137366Y130938D01*
X137368Y130914D01*
X137369Y130903D01*
Y130903D01*
Y130903D01*
X137368Y130835D01*
Y130835D01*
Y130835D01*
X137367Y130823D01*
X137365Y130801D01*
X137366Y130784D01*
X137368Y130766D01*
Y130766D01*
D01*
D01*
X137367Y130698D01*
X137363Y130659D01*
X137355Y130633D01*
X137351Y130622D01*
X137351Y130622D01*
D01*
X137333Y130588D01*
X137316Y130569D01*
X137308Y130559D01*
X137308Y130559D01*
X137308Y130559D01*
X137297Y130550D01*
X137297Y130493D01*
D01*
X137296Y130425D01*
Y130425D01*
Y130425D01*
X137296Y130356D01*
Y130356D01*
Y130356D01*
X137295Y130288D01*
Y130288D01*
X137294Y130219D01*
Y130219D01*
Y130219D01*
X137293Y130201D01*
X137291Y130185D01*
X137292Y130173D01*
X137294Y130151D01*
Y130151D01*
Y130151D01*
X137293Y130082D01*
X137291Y130059D01*
X137290Y130048D01*
X137293Y130014D01*
Y130014D01*
D01*
D01*
X137292Y129945D01*
X137288Y129911D01*
X137290Y129898D01*
X137292Y129877D01*
X137291Y129808D01*
Y129808D01*
Y129808D01*
X137289Y129791D01*
X137287Y129774D01*
X137290Y129740D01*
X137290Y129672D01*
Y129671D01*
Y129671D01*
X137288Y129654D01*
X137286Y129637D01*
X137289Y129603D01*
X137288Y129534D01*
X137285Y129500D01*
X137288Y129466D01*
Y129466D01*
Y129466D01*
X137287Y129397D01*
X137285Y129373D01*
X137284Y129363D01*
X137287Y129329D01*
Y129329D01*
Y129329D01*
X137286Y129261D01*
Y129261D01*
Y129261D01*
X137285Y129192D01*
D01*
X137285Y129124D01*
D01*
X137284Y129055D01*
Y129055D01*
Y129055D01*
X137284Y128987D01*
X137284Y128987D01*
X137284Y128987D01*
X137283Y128918D01*
Y128918D01*
X137283Y128861D01*
X137293Y128852D01*
X137293Y128852D01*
X137293Y128852D01*
X137308Y128834D01*
X137317Y128822D01*
X137317Y128822D01*
X137318Y128822D01*
X137330Y128798D01*
X137335Y128788D01*
X137335Y128788D01*
X137335Y128788D01*
X137341Y128768D01*
X137346Y128751D01*
X137346Y128751D01*
X137346Y128751D01*
X137348Y128733D01*
X137350Y128712D01*
X137350Y128712D01*
X137350Y128712D01*
X137349Y128644D01*
X137348Y128632D01*
X137346Y128610D01*
X137349Y128575D01*
D01*
Y128575D01*
X137348Y128507D01*
Y128507D01*
Y128507D01*
X137345Y128482D01*
X137344Y128472D01*
X137346Y128457D01*
X137347Y128438D01*
Y128438D01*
Y128438D01*
Y128438D01*
X137347Y128370D01*
X137347Y128370D01*
X137347Y128370D01*
X137345Y128354D01*
X137343Y128335D01*
X137345Y128320D01*
X137346Y128301D01*
Y128301D01*
Y128301D01*
Y128301D01*
X137346Y128233D01*
Y128233D01*
Y128233D01*
X137345Y128164D01*
Y128164D01*
X137345Y128107D01*
X137355Y128099D01*
X137355Y128099D01*
X137355Y128099D01*
X137365Y128086D01*
X137379Y128068D01*
X137379Y128068D01*
X137379Y128068D01*
X137392Y128043D01*
X137397Y128034D01*
Y128034D01*
X137397Y128034D01*
X137408Y127997D01*
X137411Y127969D01*
X137412Y127958D01*
Y127958D01*
Y127958D01*
X137411Y127890D01*
Y127890D01*
Y127890D01*
X137408Y127865D01*
X137407Y127855D01*
X137409Y127839D01*
X137410Y127821D01*
Y127821D01*
D01*
D01*
X137410Y127753D01*
Y127753D01*
Y127753D01*
X137409Y127684D01*
D01*
Y127684D01*
X137409Y127627D01*
X137419Y127619D01*
X137419Y127619D01*
X137419Y127619D01*
X137432Y127603D01*
X137444Y127588D01*
X137444Y127588D01*
X137444Y127588D01*
X137454Y127569D01*
X137462Y127554D01*
X137462Y127554D01*
X137462Y127554D01*
X137468Y127533D01*
X137472Y127517D01*
X137473Y127517D01*
X137473Y127517D01*
X137474Y127497D01*
X137476Y127478D01*
Y127478D01*
Y127478D01*
Y127478D01*
X137475Y127410D01*
Y127410D01*
Y127410D01*
X137474Y127401D01*
X137472Y127375D01*
X137473Y127361D01*
X137475Y127341D01*
Y127341D01*
Y127341D01*
Y127341D01*
X137474Y127273D01*
X137474Y127273D01*
X137474Y127273D01*
X137474Y127204D01*
D01*
X137473Y127147D01*
X137484Y127139D01*
X137484Y127139D01*
X137484Y127139D01*
X137508Y127109D01*
X137525Y127076D01*
X137526Y127074D01*
D01*
X137526Y127074D01*
X137537Y127037D01*
X137539Y127008D01*
X137540Y126998D01*
Y126998D01*
D01*
D01*
X137540Y126941D01*
X137550Y126933D01*
X137575Y126902D01*
X137593Y126868D01*
X137603Y126831D01*
X137607Y126792D01*
D01*
Y126792D01*
X137606Y126724D01*
X137606Y126724D01*
X137606Y126724D01*
X137605Y126708D01*
X137603Y126690D01*
X137605Y126666D01*
X137606Y126655D01*
Y126655D01*
Y126655D01*
X137605Y126587D01*
X137601Y126553D01*
X137605Y126518D01*
X137604Y126461D01*
X137615Y126453D01*
X137639Y126423D01*
X137657Y126388D01*
X137668Y126351D01*
X137671Y126312D01*
X137671Y126255D01*
X137671Y126255D01*
X137681Y126247D01*
X137681Y126247D01*
X137681Y126247D01*
X137706Y126216D01*
X137717Y126195D01*
X137724Y126182D01*
X137724Y126182D01*
Y126182D01*
X137734Y126145D01*
X137737Y126119D01*
X137738Y126106D01*
Y126106D01*
Y126106D01*
X137737Y126038D01*
X137737Y126038D01*
X137737Y126038D01*
X137735Y126020D01*
X137734Y126004D01*
X137735Y125987D01*
X137737Y125969D01*
Y125969D01*
D01*
D01*
X137736Y125901D01*
X137736Y125901D01*
X137736Y125901D01*
X137735Y125886D01*
X137733Y125867D01*
X137734Y125853D01*
X137736Y125832D01*
Y125832D01*
Y125832D01*
X137735Y125775D01*
X137745Y125767D01*
X137745Y125767D01*
X137746Y125767D01*
X137769Y125738D01*
X137770Y125737D01*
D01*
X137770Y125736D01*
X137786Y125705D01*
X137788Y125702D01*
Y125702D01*
X137788Y125702D01*
X137795Y125679D01*
X137799Y125665D01*
Y125665D01*
X137799Y125665D01*
X137800Y125647D01*
X137802Y125626D01*
Y125626D01*
Y125626D01*
X137802Y125569D01*
X137812Y125561D01*
X137837Y125530D01*
X137855Y125496D01*
X137865Y125459D01*
X137869Y125420D01*
X137868Y125352D01*
X137866Y125334D01*
X137865Y125318D01*
X137866Y125303D01*
X137868Y125283D01*
Y125283D01*
Y125283D01*
Y125283D01*
X137867Y125215D01*
X137867Y125215D01*
X137867Y125215D01*
X137867Y125146D01*
Y125146D01*
X137866Y125078D01*
Y125078D01*
Y125078D01*
X137865Y125066D01*
X137862Y125039D01*
X137850Y125002D01*
Y125002D01*
X137850Y125002D01*
X137835Y124974D01*
X137832Y124968D01*
X137832Y124968D01*
X137832Y124968D01*
X137816Y124949D01*
X137807Y124939D01*
X137807Y124938D01*
X137807Y124938D01*
X137778Y124915D01*
X137777Y124914D01*
D01*
X137777Y124914D01*
X137745Y124898D01*
X137742Y124896D01*
X137742D01*
X137742Y124896D01*
X137719Y124890D01*
X137705Y124885D01*
X137705D01*
X137705Y124885D01*
X137689Y124884D01*
X137666Y124882D01*
X137666D01*
X137666D01*
X137598Y124882D01*
X137598D01*
X137598D01*
X137564Y124886D01*
X137549Y124885D01*
X137530Y124883D01*
X137530D01*
X137530D01*
X137461Y124884D01*
X137461D01*
X137461D01*
X137422Y124888D01*
X137396Y124896D01*
X137385Y124899D01*
X137385Y124899D01*
D01*
X137382Y124901D01*
X137351Y124918D01*
X137322Y124943D01*
X137322Y124943D01*
X137322Y124943D01*
X137316Y124949D01*
X137313Y124953D01*
X137256Y124954D01*
X137240Y124956D01*
X137222Y124958D01*
X137207Y124956D01*
X137188Y124954D01*
X137188D01*
D01*
D01*
X137119Y124955D01*
X137119D01*
X137119D01*
X137097Y124958D01*
X137081Y124959D01*
X137081Y124959D01*
X137081D01*
X137070Y124962D01*
X137044Y124971D01*
X137010Y124989D01*
X137010Y124989D01*
X137010Y124989D01*
X136999Y124998D01*
X136980Y125014D01*
X136980Y125014D01*
X136980Y125014D01*
X136971Y125025D01*
X136777Y125027D01*
X136743Y125030D01*
X136709Y125027D01*
D01*
X136709D01*
X136641Y125028D01*
X136602Y125032D01*
X136575Y125040D01*
X136565Y125043D01*
X136565Y125043D01*
D01*
X136558Y125047D01*
X136531Y125062D01*
X136531Y125062D01*
X136531Y125062D01*
X136513Y125077D01*
X136501Y125087D01*
X136501Y125087D01*
X136501Y125087D01*
X136496Y125093D01*
X136493Y125098D01*
X136435Y125098D01*
X136402Y125102D01*
X136397Y125102D01*
X136397D01*
X136397Y125102D01*
X136369Y125111D01*
X136360Y125114D01*
X136360Y125114D01*
X136360Y125114D01*
X136342Y125124D01*
X136326Y125132D01*
X136326Y125132D01*
X136326Y125132D01*
X136312Y125144D01*
X136296Y125157D01*
X136296Y125157D01*
X136296Y125157D01*
X136288Y125168D01*
X136094Y125170D01*
X136094D01*
X136094D01*
X136075Y125171D01*
X136055Y125174D01*
X136055Y125174D01*
X136055D01*
X136039Y125179D01*
X136018Y125185D01*
X136018Y125185D01*
X136018D01*
X136012Y125189D01*
X135984Y125204D01*
X135984Y125204D01*
X135984Y125204D01*
X135972Y125214D01*
X135954Y125229D01*
X135954Y125229D01*
X135954Y125229D01*
X135947Y125238D01*
X135946Y125239D01*
X135889Y125240D01*
X135850Y125244D01*
X135813Y125256D01*
X135795Y125266D01*
X135779Y125274D01*
X135750Y125299D01*
Y125299D01*
X135750D01*
X135741Y125310D01*
X135547Y125311D01*
D01*
X135547D01*
X135543Y125312D01*
X135509Y125315D01*
X135472Y125327D01*
X135472Y125327D01*
D01*
X135438Y125346D01*
X135414Y125365D01*
X135408Y125370D01*
Y125370D01*
X135408D01*
X135402Y125378D01*
X135399Y125381D01*
X135342Y125382D01*
X135324Y125383D01*
X135304Y125386D01*
X135304Y125386D01*
X135304D01*
X135274Y125395D01*
X135267Y125397D01*
X135267D01*
X135267Y125397D01*
X135241Y125411D01*
X135233Y125416D01*
X135233Y125416D01*
X135233Y125416D01*
X135215Y125430D01*
X135203Y125441D01*
X135203Y125441D01*
X135203Y125441D01*
X135195Y125451D01*
X135001Y125453D01*
X134962Y125457D01*
X134933Y125466D01*
X134925Y125469D01*
X134925Y125469D01*
X134925Y125469D01*
X134909Y125477D01*
X134891Y125487D01*
X134891Y125487D01*
X134891Y125487D01*
X134881Y125496D01*
X134861Y125512D01*
X134861Y125512D01*
X134861Y125512D01*
X134853Y125523D01*
X134796Y125523D01*
X134757Y125527D01*
X134720Y125539D01*
X134686Y125557D01*
X134656Y125582D01*
X134648Y125593D01*
X134591Y125593D01*
X134591D01*
X134591D01*
X134577Y125595D01*
X134552Y125598D01*
X134515Y125609D01*
X134515Y125609D01*
X134515D01*
X134509Y125612D01*
X134481Y125628D01*
X134481Y125628D01*
X134481D01*
X134476Y125632D01*
X134451Y125653D01*
X134451Y125653D01*
X134451Y125653D01*
X134443Y125663D01*
X134386Y125664D01*
X134362Y125666D01*
X134347Y125668D01*
X134347Y125668D01*
X134347Y125668D01*
X134321Y125676D01*
X134310Y125680D01*
X134310Y125680D01*
X134310Y125680D01*
X134284Y125694D01*
X134276Y125698D01*
X134276Y125698D01*
X134276Y125698D01*
X134257Y125714D01*
X134247Y125723D01*
X134247Y125723D01*
X134247Y125723D01*
X134238Y125733D01*
X134181Y125734D01*
X134181Y125734D01*
X134181Y125734D01*
X134166Y125736D01*
X134143Y125738D01*
X134142Y125738D01*
X134142D01*
X134140Y125739D01*
X134106Y125750D01*
X134106Y125750D01*
X134106Y125750D01*
X134095Y125755D01*
X134072Y125768D01*
X134072Y125768D01*
X134072Y125768D01*
X134055Y125783D01*
X134042Y125793D01*
X134042Y125793D01*
X134042Y125793D01*
X134033Y125804D01*
X133976Y125804D01*
X133964Y125806D01*
X133938Y125809D01*
X133901Y125820D01*
D01*
X133901Y125820D01*
X133867Y125839D01*
X133842Y125859D01*
X133837Y125864D01*
X133837Y125864D01*
X133837Y125864D01*
X133828Y125874D01*
X133772Y125875D01*
X133733Y125879D01*
X133698Y125890D01*
X133696Y125890D01*
D01*
X133696Y125890D01*
X133674Y125902D01*
X133662Y125909D01*
X133662Y125909D01*
X133662Y125909D01*
X133647Y125921D01*
X133632Y125934D01*
X133632Y125934D01*
X133632Y125934D01*
X133624Y125944D01*
X133567Y125945D01*
X133528Y125949D01*
X133491Y125961D01*
X133457Y125979D01*
X133427Y126004D01*
X133419Y126015D01*
X133362Y126015D01*
X133362Y126015D01*
X133362Y126015D01*
X133343Y126017D01*
X133323Y126019D01*
X133323Y126019D01*
X133323Y126019D01*
X133311Y126023D01*
X133286Y126031D01*
X133286Y126031D01*
X133286Y126031D01*
X133279Y126035D01*
X133252Y126049D01*
X133252Y126049D01*
X133252Y126049D01*
X133242Y126058D01*
X133222Y126074D01*
X133222Y126074D01*
X133222Y126074D01*
X133214Y126084D01*
X133198Y126104D01*
X133198Y126105D01*
X133198Y126105D01*
X133193Y126114D01*
X133184Y126119D01*
X133184Y126119D01*
X133184Y126119D01*
X133176Y126126D01*
X133155Y126143D01*
X133155Y126143D01*
X133154Y126143D01*
X133146Y126154D01*
X133089Y126154D01*
X133061Y126157D01*
X133051Y126159D01*
X133051D01*
X133051Y126159D01*
X133017Y126169D01*
X133014Y126170D01*
X133014D01*
X133014Y126170D01*
X132997Y126180D01*
X132980Y126189D01*
X132980Y126189D01*
X132980D01*
X132974Y126193D01*
X132950Y126214D01*
X132950Y126214D01*
X132950Y126214D01*
X132926Y126243D01*
X132925Y126244D01*
D01*
X132925Y126244D01*
X132921Y126253D01*
X132912Y126258D01*
X132912Y126258D01*
X132912Y126258D01*
X132893Y126274D01*
X132882Y126283D01*
X132882Y126283D01*
X132882Y126283D01*
X132873Y126293D01*
X132816Y126294D01*
D01*
X132816D01*
X132812Y126294D01*
X132778Y126298D01*
X132752Y126306D01*
X132741Y126310D01*
X132722Y126320D01*
X132707Y126328D01*
X132677Y126353D01*
Y126353D01*
X132677D01*
X132653Y126383D01*
X132648Y126392D01*
X132639Y126397D01*
X132639Y126397D01*
X132639Y126397D01*
X132625Y126409D01*
X132609Y126422D01*
X132609Y126422D01*
X132609Y126422D01*
X132604Y126428D01*
X132601Y126433D01*
X132544Y126433D01*
X132505Y126437D01*
X132468Y126449D01*
X132434Y126468D01*
X132404Y126492D01*
X132380Y126523D01*
X132375Y126532D01*
X132366Y126537D01*
X132366Y126537D01*
X132366Y126537D01*
X132348Y126552D01*
X132336Y126561D01*
X132336Y126561D01*
X132336Y126561D01*
X132326Y126575D01*
X132312Y126592D01*
X132312Y126592D01*
X132312Y126592D01*
X132307Y126601D01*
X132298Y126605D01*
X132298Y126606D01*
X132298D01*
X132292Y126611D01*
X132269Y126630D01*
X132269Y126630D01*
X132269Y126630D01*
X132258Y126643D01*
X132244Y126661D01*
X132244Y126661D01*
X132244Y126661D01*
X132239Y126670D01*
X132230Y126675D01*
X132230Y126675D01*
X132230Y126675D01*
X132222Y126682D01*
X132201Y126699D01*
X132201Y126700D01*
X132201Y126700D01*
X132192Y126710D01*
X132135Y126711D01*
X132135D01*
X132135D01*
X132115Y126713D01*
X132097Y126715D01*
X132097Y126715D01*
X132097D01*
X132081Y126720D01*
X132060Y126726D01*
X132060Y126726D01*
X132060D01*
X132053Y126730D01*
X132026Y126745D01*
X132026Y126745D01*
X132026Y126745D01*
X132013Y126755D01*
X131996Y126770D01*
X131996Y126770D01*
X131996Y126770D01*
X131988Y126780D01*
X131972Y126800D01*
X131967Y126809D01*
X131958Y126814D01*
X131958Y126814D01*
X131958Y126814D01*
X131940Y126829D01*
X131928Y126839D01*
X131928Y126839D01*
X131928Y126839D01*
X131916Y126854D01*
X131904Y126869D01*
X131904Y126869D01*
X131904Y126869D01*
X131899Y126878D01*
X131890Y126883D01*
X131890Y126883D01*
X131890Y126883D01*
X131876Y126895D01*
X131860Y126908D01*
X131860Y126908D01*
X131860Y126908D01*
X131844Y126927D01*
X131836Y126938D01*
X131836Y126938D01*
X131836Y126938D01*
X131831Y126947D01*
X131822Y126952D01*
X131822Y126952D01*
X131822Y126952D01*
X131813Y126960D01*
X131792Y126977D01*
X131792Y126977D01*
X131792Y126977D01*
X131788Y126983D01*
X131768Y127007D01*
X131768Y127007D01*
X131768Y127007D01*
X131765Y127013D01*
X131763Y127016D01*
X131754Y127021D01*
X131754Y127021D01*
X131754Y127021D01*
X131749Y127026D01*
X131724Y127046D01*
X131700Y127076D01*
X131695Y127085D01*
X131686Y127090D01*
X131686Y127090D01*
X131686Y127090D01*
X131667Y127106D01*
X131656Y127115D01*
X131656Y127115D01*
X131656Y127115D01*
X131633Y127144D01*
X131632Y127145D01*
D01*
X131632Y127145D01*
X131627Y127155D01*
X131618Y127159D01*
X131618Y127159D01*
X131618Y127160D01*
X131599Y127175D01*
X131588Y127184D01*
X131588Y127184D01*
X131588Y127184D01*
X131578Y127197D01*
X131564Y127215D01*
X131564Y127215D01*
X131564Y127215D01*
X131559Y127224D01*
X131551Y127228D01*
X131551Y127228D01*
X131550Y127228D01*
X131534Y127242D01*
X131521Y127253D01*
X131521Y127253D01*
X131521Y127253D01*
X131508Y127269D01*
X131496Y127284D01*
X131496Y127284D01*
X131496Y127284D01*
X131484Y127307D01*
X131478Y127318D01*
X131478Y127318D01*
X131478Y127318D01*
X131471Y127342D01*
X131467Y127355D01*
Y127355D01*
X131467Y127355D01*
X131465Y127377D01*
X131464Y127394D01*
Y127394D01*
Y127394D01*
Y127394D01*
X131464Y127451D01*
X131454Y127459D01*
X131454Y127459D01*
X131454Y127459D01*
X131445Y127471D01*
X131430Y127490D01*
X131425Y127499D01*
X131416Y127504D01*
X131416Y127504D01*
X131416Y127504D01*
X131400Y127517D01*
X131386Y127528D01*
X131386Y127529D01*
X131386Y127529D01*
X131371Y127547D01*
X131362Y127559D01*
X131362Y127559D01*
X131362Y127559D01*
X131349Y127583D01*
X131344Y127593D01*
X131344Y127593D01*
X131344Y127593D01*
X131338Y127613D01*
X131333Y127630D01*
X131333Y127630D01*
X131333Y127630D01*
X131331Y127648D01*
X131329Y127669D01*
X131329Y127669D01*
X131329Y127669D01*
X131330Y127726D01*
X131319Y127734D01*
X131295Y127765D01*
X131277Y127799D01*
X131266Y127836D01*
X131263Y127875D01*
X131263Y127943D01*
Y127943D01*
Y127944D01*
X131266Y127966D01*
X131267Y127977D01*
X131265Y127999D01*
X131264Y128012D01*
X131264Y128012D01*
X131264Y128012D01*
X131264Y128080D01*
X131267Y128105D01*
X131268Y128115D01*
X131266Y128140D01*
X131265Y128149D01*
Y128149D01*
D01*
D01*
X131266Y128217D01*
Y128217D01*
Y128217D01*
X131266Y128286D01*
Y128286D01*
Y128286D01*
X131267Y128354D01*
X131271Y128388D01*
X131269Y128402D01*
X131267Y128423D01*
Y128423D01*
Y128423D01*
X131268Y128491D01*
Y128491D01*
Y128491D01*
X131272Y128530D01*
X131281Y128556D01*
X131284Y128567D01*
X131284Y128567D01*
D01*
X131286Y128570D01*
X131302Y128601D01*
X131327Y128631D01*
X131327Y128631D01*
X131327Y128631D01*
X131338Y128639D01*
X131338Y128696D01*
X131342Y128735D01*
X131354Y128772D01*
X131373Y128806D01*
X131397Y128835D01*
X131408Y128844D01*
X131409Y128901D01*
Y128901D01*
Y128901D01*
X131411Y128919D01*
X131413Y128939D01*
X131413Y128939D01*
Y128939D01*
X131420Y128963D01*
X131424Y128976D01*
X131424Y128976D01*
X131424Y128977D01*
X131434Y128995D01*
X131443Y129010D01*
X131443Y129010D01*
X131443Y129010D01*
X131454Y129024D01*
X131468Y129040D01*
X131468Y129040D01*
X131468Y129040D01*
X131478Y129049D01*
X131479Y129106D01*
X131479Y129106D01*
X131479Y129106D01*
X131481Y129122D01*
X131483Y129144D01*
X131483Y129144D01*
Y129144D01*
X131486Y129153D01*
X131495Y129181D01*
X131495Y129181D01*
X131495Y129181D01*
X131502Y129195D01*
X131513Y129215D01*
X131513Y129215D01*
X131513Y129215D01*
X131522Y129226D01*
X131538Y129245D01*
X131538Y129245D01*
X131538Y129245D01*
X131546Y129252D01*
X131549Y129254D01*
X131549Y129311D01*
Y129311D01*
Y129311D01*
X131550Y129322D01*
X131553Y129349D01*
X131565Y129386D01*
X131565Y129386D01*
X131565Y129386D01*
X131578Y129411D01*
X131583Y129420D01*
X131583Y129420D01*
X131583Y129420D01*
X131599Y129439D01*
X131608Y129450D01*
X131608Y129450D01*
X131608Y129450D01*
X131620Y129460D01*
X131623Y129485D01*
X131634Y129523D01*
D01*
X131634Y129523D01*
X131653Y129557D01*
X131674Y129581D01*
X131678Y129586D01*
X131678Y129586D01*
X131678Y129586D01*
X131690Y129596D01*
X131691Y129606D01*
X131693Y129622D01*
X131693Y129622D01*
Y129622D01*
X131703Y129654D01*
X131704Y129659D01*
Y129659D01*
X131704Y129659D01*
X131720Y129687D01*
X131723Y129693D01*
X131723Y129693D01*
X131723Y129693D01*
X131739Y129712D01*
X131748Y129723D01*
X131748Y129723D01*
X131748Y129723D01*
X131758Y129731D01*
X131759Y129788D01*
X131761Y129812D01*
X131763Y129827D01*
X131763Y129827D01*
X131763Y129827D01*
X131771Y129851D01*
X131774Y129864D01*
X131774Y129864D01*
X131774Y129864D01*
X131785Y129883D01*
X131793Y129898D01*
X131793Y129898D01*
X131793Y129898D01*
X131806Y129914D01*
X131818Y129927D01*
X131818Y129928D01*
X131818Y129928D01*
X131828Y129936D01*
X131829Y129993D01*
X131830Y130004D01*
X131833Y130032D01*
X131845Y130069D01*
X131845Y130069D01*
D01*
X131863Y130103D01*
X131880Y130123D01*
X131888Y130132D01*
X131888Y130132D01*
X131888Y130132D01*
X131918Y130157D01*
X131928Y130161D01*
X131932Y130170D01*
X131957Y130200D01*
X131957Y130200D01*
X131957Y130200D01*
X131987Y130225D01*
X131997Y130229D01*
X131998Y130232D01*
X132001Y130238D01*
X132001Y130238D01*
X132001Y130238D01*
X132017Y130257D01*
X132026Y130268D01*
X132026Y130268D01*
X132026Y130268D01*
X132038Y130278D01*
X132039Y130284D01*
X132041Y130304D01*
X132041Y130304D01*
X132041Y130304D01*
X132048Y130326D01*
X132053Y130341D01*
X132053Y130341D01*
X132053Y130341D01*
X132062Y130358D01*
X132071Y130375D01*
X132071Y130375D01*
X132071Y130375D01*
X132081Y130387D01*
X132096Y130404D01*
X132096Y130404D01*
X132096Y130404D01*
X132108Y130414D01*
X132111Y130440D01*
X132122Y130477D01*
D01*
X132122Y130477D01*
X132130Y130491D01*
X132141Y130511D01*
X132166Y130541D01*
X132166Y130541D01*
X132166Y130541D01*
X132196Y130565D01*
X132205Y130570D01*
X132207Y130573D01*
X132210Y130579D01*
X132210Y130579D01*
X132210Y130579D01*
X132225Y130597D01*
X132235Y130609D01*
X132235Y130609D01*
X132235Y130609D01*
X132247Y130618D01*
X132265Y130633D01*
X132274Y130638D01*
X132279Y130647D01*
X132304Y130676D01*
X132316Y130686D01*
X132318Y130707D01*
X132318Y130712D01*
Y130712D01*
X132318Y130712D01*
X132327Y130740D01*
X132330Y130749D01*
X132330Y130749D01*
X132330Y130749D01*
X132340Y130768D01*
X132349Y130783D01*
X132349Y130783D01*
X132349Y130783D01*
X132360Y130797D01*
X132373Y130813D01*
X132374Y130813D01*
X132374Y130813D01*
X132385Y130823D01*
X132388Y130849D01*
X132400Y130886D01*
D01*
X132400Y130886D01*
X132418Y130920D01*
X132435Y130939D01*
X132443Y130949D01*
X132443Y130949D01*
X132443Y130949D01*
X132473Y130974D01*
X132483Y130978D01*
X132487Y130988D01*
X132487Y130988D01*
X132487Y130988D01*
X132494Y130996D01*
X132512Y131017D01*
X132543Y131042D01*
X132543Y131042D01*
X132543Y131042D01*
X132552Y131046D01*
X132556Y131055D01*
X132556Y131055D01*
X132556Y131055D01*
X132570Y131072D01*
X132581Y131085D01*
X132581Y131085D01*
X132581Y131085D01*
X132594Y131095D01*
X132612Y131109D01*
X132612Y131109D01*
X132612Y131109D01*
X132621Y131114D01*
X132626Y131123D01*
X132650Y131153D01*
X132681Y131177D01*
X132690Y131182D01*
X132691Y131185D01*
X132695Y131191D01*
X132695Y131191D01*
X132695Y131191D01*
X132711Y131210D01*
X132719Y131221D01*
X132720Y131221D01*
X132720Y131221D01*
X132749Y131244D01*
X132750Y131245D01*
D01*
X132750Y131245D01*
X132759Y131250D01*
X132764Y131259D01*
X132789Y131289D01*
X132819Y131313D01*
X132828Y131318D01*
X132833Y131327D01*
X132853Y131351D01*
X132858Y131357D01*
X132858Y131357D01*
X132858Y131357D01*
X132888Y131381D01*
X132897Y131386D01*
X132902Y131395D01*
X132919Y131415D01*
X132927Y131424D01*
X132927Y131424D01*
X132927Y131424D01*
X132938Y131434D01*
X132957Y131449D01*
X132960Y131450D01*
X132966Y131454D01*
X132971Y131463D01*
X132971Y131463D01*
Y131463D01*
X132976Y131469D01*
X132996Y131492D01*
X132996Y131492D01*
X132996Y131492D01*
X133009Y131503D01*
X133026Y131517D01*
X133026Y131517D01*
X133026Y131517D01*
X133035Y131521D01*
X133038Y131527D01*
X133040Y131530D01*
X133040Y131530D01*
X133040Y131530D01*
X133056Y131550D01*
X133065Y131560D01*
X133065Y131560D01*
X133065Y131560D01*
X133084Y131576D01*
X133095Y131585D01*
X133095Y131585D01*
X133095Y131585D01*
X133104Y131589D01*
X133109Y131598D01*
X133109Y131598D01*
X133109Y131598D01*
X133117Y131608D01*
X133134Y131628D01*
X133134Y131628D01*
X133134Y131628D01*
X133157Y131647D01*
X133164Y131652D01*
X133164D01*
X133164Y131652D01*
X133173Y131657D01*
X133178Y131666D01*
X133178Y131666D01*
X133178Y131666D01*
X133190Y131680D01*
X133203Y131696D01*
X133203Y131696D01*
X133203Y131696D01*
X133216Y131706D01*
X133233Y131720D01*
X133233Y131720D01*
X133233Y131720D01*
X133242Y131725D01*
X133247Y131734D01*
X133247Y131734D01*
Y131734D01*
X133250Y131737D01*
X133272Y131764D01*
X133302Y131788D01*
X133302Y131788D01*
X133302Y131788D01*
X133311Y131793D01*
X133311Y131793D01*
X133316Y131802D01*
X133316Y131802D01*
Y131802D01*
X133321Y131808D01*
X133341Y131832D01*
X133341Y131832D01*
X133341Y131832D01*
X133354Y131842D01*
X133371Y131856D01*
X133371Y131856D01*
X133371Y131856D01*
X133380Y131861D01*
X133385Y131870D01*
X133385Y131870D01*
X133386Y131870D01*
X133394Y131880D01*
X133410Y131900D01*
X133410Y131900D01*
X133410Y131900D01*
X133434Y131919D01*
X133440Y131924D01*
X133440D01*
X133440Y131924D01*
X133450Y131929D01*
X133450Y131930D01*
X133454Y131938D01*
X133454Y131938D01*
X133455Y131938D01*
X133470Y131957D01*
X133479Y131967D01*
X133479Y131967D01*
X133479Y131967D01*
X133497Y131982D01*
X133509Y131992D01*
X133510Y131992D01*
X133510Y131992D01*
X133519Y131997D01*
X133523Y132006D01*
X133524Y132006D01*
X133524Y132006D01*
X133539Y132024D01*
X133548Y132035D01*
X133548Y132035D01*
X133548Y132035D01*
X133579Y132060D01*
X133611Y132077D01*
X133613Y132078D01*
D01*
X133613Y132078D01*
X133625Y132081D01*
X133650Y132089D01*
X133689Y132092D01*
X133689D01*
X133689D01*
X133746Y132092D01*
X133750Y132097D01*
X133754Y132102D01*
X133754Y132102D01*
X133754Y132102D01*
X133769Y132114D01*
X133785Y132126D01*
X133785Y132126D01*
X133785Y132126D01*
X133794Y132131D01*
X133799Y132140D01*
X133808Y132151D01*
X133824Y132170D01*
X133846Y132188D01*
X133854Y132194D01*
X133885Y132211D01*
X133888Y132212D01*
D01*
X133888Y132212D01*
X133903Y132217D01*
X133925Y132223D01*
X133964Y132227D01*
X133964D01*
D01*
D01*
X134021Y132226D01*
X134029Y132237D01*
X134029Y132237D01*
X134030Y132237D01*
X134042Y132247D01*
X134060Y132261D01*
X134060Y132261D01*
X134060Y132261D01*
X134069Y132266D01*
X134074Y132275D01*
X134090Y132295D01*
X134099Y132305D01*
X134099Y132305D01*
X134099Y132305D01*
X134129Y132329D01*
X134138Y132334D01*
X134143Y132343D01*
X134163Y132367D01*
X134168Y132372D01*
X134168D01*
Y132372D01*
X134198Y132397D01*
X134214Y132405D01*
X134232Y132415D01*
X134269Y132426D01*
X134308Y132429D01*
X134308D01*
X134308D01*
X134365Y132429D01*
X134374Y132439D01*
X134404Y132464D01*
X134413Y132468D01*
X134418Y132477D01*
X134427Y132488D01*
X134443Y132507D01*
X134466Y132526D01*
X134473Y132531D01*
X134504Y132548D01*
X134507Y132549D01*
D01*
X134507Y132549D01*
X134523Y132554D01*
X134545Y132560D01*
X134583Y132564D01*
X134583D01*
D01*
D01*
X134640Y132563D01*
X134649Y132574D01*
X134649Y132574D01*
X134649Y132574D01*
X134667Y132588D01*
X134679Y132598D01*
X134679Y132598D01*
X134679Y132598D01*
X134694Y132606D01*
X134713Y132616D01*
X134713Y132616D01*
X134713D01*
X134717Y132617D01*
X134751Y132627D01*
X134789Y132630D01*
X134789D01*
X134789D01*
X134846Y132630D01*
X134855Y132640D01*
X134855Y132640D01*
X134855Y132640D01*
X134884Y132664D01*
X134885Y132665D01*
D01*
X134885Y132665D01*
X134894Y132669D01*
X134899Y132679D01*
X134916Y132699D01*
X134924Y132708D01*
X134924Y132708D01*
X134924Y132708D01*
X134954Y132733D01*
X134976Y132744D01*
X134989Y132751D01*
X134989Y132751D01*
X134989D01*
X134993Y132752D01*
X135026Y132762D01*
X135064Y132765D01*
X135064D01*
D01*
D01*
X135133Y132764D01*
X135157Y132762D01*
X135167Y132761D01*
X135198Y132764D01*
X135201Y132764D01*
X135201D01*
D01*
D01*
X135258Y132763D01*
X135267Y132774D01*
X135267Y132774D01*
X135267Y132774D01*
X135280Y132784D01*
X135297Y132798D01*
X135297Y132798D01*
X135297Y132798D01*
X135306Y132803D01*
X135311Y132812D01*
X135311Y132812D01*
X135311Y132812D01*
X135323Y132826D01*
X135336Y132842D01*
X135336Y132842D01*
X135336Y132842D01*
X135350Y132852D01*
X135366Y132866D01*
X135366Y132866D01*
X135366Y132866D01*
X135380Y132873D01*
X135401Y132884D01*
X135401Y132884D01*
X135401Y132884D01*
X135411Y132887D01*
X135438Y132895D01*
X135438Y132895D01*
X135438D01*
X135445Y132896D01*
X135476Y132898D01*
X135476D01*
X135477D01*
X135545Y132898D01*
X135579Y132894D01*
X135593Y132895D01*
X135613Y132897D01*
X135613D01*
X135613D01*
X135670Y132897D01*
X135679Y132907D01*
X135679Y132907D01*
X135679Y132907D01*
X135698Y132923D01*
X135709Y132931D01*
X135709Y132931D01*
X135709Y132931D01*
X135744Y132949D01*
X135775Y132959D01*
X135781Y132960D01*
X135781D01*
X135781Y132960D01*
X135805Y132963D01*
X135819Y132964D01*
X135819D01*
X135819D01*
X135819D01*
X135876Y132963D01*
X135885Y132974D01*
X135915Y132998D01*
X135950Y133016D01*
X135950Y133016D01*
X135950Y133016D01*
X135965Y133021D01*
X135987Y133027D01*
X135987D01*
X135987Y133027D01*
X136005Y133029D01*
X136026Y133030D01*
X136026D01*
X136026D01*
X136094Y133030D01*
X136113Y133028D01*
X136128Y133026D01*
X136162Y133029D01*
D01*
X136162D01*
X136493Y133026D01*
X136502Y133037D01*
X136532Y133061D01*
X136567Y133079D01*
X136604Y133090D01*
X136642Y133094D01*
D01*
X136642D01*
X136711Y133093D01*
X136723Y133092D01*
X136745Y133089D01*
X136779Y133092D01*
X136836Y133092D01*
X136845Y133102D01*
X136875Y133127D01*
X136909Y133145D01*
X136947Y133156D01*
X136985Y133159D01*
X137054Y133159D01*
D02*
G37*
G36*
X139586Y132931D02*
X139620Y132927D01*
X139654Y132930D01*
X139654D01*
X139654D01*
X139723Y132930D01*
X139723D01*
X139723D01*
X139761Y132926D01*
X139788Y132917D01*
X139798Y132914D01*
X139798Y132914D01*
D01*
X139801Y132912D01*
X139832Y132896D01*
X139862Y132871D01*
X139862Y132871D01*
X139862Y132871D01*
X139871Y132860D01*
X140065Y132858D01*
X140065D01*
X140065D01*
X140099Y132855D01*
X140112Y132856D01*
X140133Y132858D01*
X140133D01*
X140133D01*
X140201Y132857D01*
X140226Y132854D01*
X140240Y132853D01*
X140240Y132853D01*
X140240Y132853D01*
X140265Y132845D01*
X140277Y132841D01*
X140277Y132841D01*
X140277Y132841D01*
X140302Y132828D01*
X140311Y132823D01*
X140311Y132823D01*
X140311Y132823D01*
X140330Y132807D01*
X140341Y132798D01*
X140341Y132798D01*
X140341Y132798D01*
X140349Y132787D01*
X140406Y132787D01*
X140423Y132785D01*
X140445Y132783D01*
X140445Y132783D01*
X140445D01*
X140482Y132771D01*
X140516Y132753D01*
X140538Y132734D01*
X140546Y132728D01*
X140546Y132728D01*
X140546Y132728D01*
X140554Y132717D01*
X140611Y132717D01*
X140626Y132715D01*
X140645Y132713D01*
X140669Y132715D01*
X140680Y132716D01*
X140680D01*
X140680D01*
X140748Y132715D01*
X140787Y132711D01*
X140813Y132703D01*
X140824Y132700D01*
X140824Y132700D01*
D01*
X140827Y132698D01*
X140858Y132681D01*
X140887Y132656D01*
X140887Y132656D01*
X140887Y132656D01*
X140896Y132646D01*
X140953Y132645D01*
X140953Y132645D01*
X140953Y132645D01*
X140968Y132643D01*
X140991Y132641D01*
X140992Y132641D01*
X140992D01*
X141000Y132638D01*
X141028Y132629D01*
X141029Y132629D01*
X141029Y132629D01*
X141045Y132621D01*
X141063Y132611D01*
X141063Y132611D01*
X141063Y132611D01*
X141078Y132597D01*
X141092Y132586D01*
X141092Y132586D01*
X141092Y132586D01*
X141101Y132575D01*
X141158Y132575D01*
X141196Y132571D01*
X141233Y132559D01*
X141259Y132545D01*
X141267Y132541D01*
X141267Y132541D01*
X141267Y132541D01*
X141282Y132528D01*
X141297Y132516D01*
X141297Y132516D01*
X141297Y132516D01*
X141322Y132485D01*
X141326Y132476D01*
X141335Y132472D01*
X141335Y132472D01*
X141335Y132472D01*
X141349Y132460D01*
X141365Y132447D01*
X141365Y132447D01*
X141365Y132447D01*
X141374Y132436D01*
X141430Y132436D01*
X141431D01*
X141431D01*
X141455Y132433D01*
X141469Y132431D01*
X141469Y132431D01*
X141469D01*
X141494Y132424D01*
X141506Y132420D01*
X141506Y132420D01*
X141506Y132420D01*
X141518Y132413D01*
X141540Y132401D01*
X141540Y132401D01*
X141540D01*
X141546Y132396D01*
X141570Y132376D01*
X141570Y132376D01*
X141570Y132376D01*
X141578Y132366D01*
X141635Y132365D01*
X141635D01*
X141635D01*
X141656Y132363D01*
X141674Y132361D01*
X141674Y132361D01*
X141674D01*
X141690Y132356D01*
X141711Y132350D01*
X141711Y132350D01*
X141711D01*
X141717Y132346D01*
X141745Y132331D01*
X141745Y132331D01*
X141745Y132331D01*
X141757Y132321D01*
X141775Y132306D01*
X141775Y132306D01*
X141775Y132306D01*
X141783Y132296D01*
X141799Y132276D01*
X141804Y132267D01*
X141813Y132262D01*
X141813Y132262D01*
X141813Y132262D01*
X141823Y132253D01*
X141843Y132237D01*
X141843Y132237D01*
X141843Y132237D01*
X141851Y132226D01*
X141908Y132226D01*
X141947Y132222D01*
X141955Y132219D01*
X141984Y132210D01*
X142006Y132198D01*
X142018Y132192D01*
X142043Y132171D01*
X142048Y132167D01*
Y132167D01*
X142048D01*
X142056Y132156D01*
X142113Y132156D01*
X142113D01*
X142113D01*
X142138Y132153D01*
X142151Y132151D01*
X142152Y132151D01*
X142152D01*
X142166Y132147D01*
X142189Y132140D01*
X142223Y132121D01*
X142223Y132121D01*
X142223D01*
X142226Y132119D01*
X142252Y132096D01*
X142277Y132066D01*
X142281Y132057D01*
X142290Y132052D01*
X142290Y132052D01*
X142290Y132052D01*
X142310Y132036D01*
X142320Y132027D01*
X142320Y132027D01*
X142320Y132027D01*
X142336Y132008D01*
X142345Y131997D01*
X142345Y131997D01*
X142345Y131997D01*
X142349Y131988D01*
X142358Y131983D01*
X142383Y131963D01*
X142388Y131958D01*
X142388Y131958D01*
X142388Y131958D01*
X142397Y131948D01*
X142454Y131947D01*
X142482Y131944D01*
X142492Y131943D01*
X142492D01*
X142492Y131943D01*
X142529Y131931D01*
X142559Y131915D01*
X142563Y131913D01*
X142563Y131913D01*
X142563Y131913D01*
X142581Y131898D01*
X142593Y131888D01*
X142593Y131888D01*
X142593Y131888D01*
X142616Y131859D01*
X142617Y131858D01*
D01*
X142617Y131858D01*
X142622Y131849D01*
X142631Y131844D01*
X142651Y131827D01*
X142661Y131819D01*
X142661Y131819D01*
X142661Y131819D01*
X142685Y131789D01*
X142690Y131780D01*
X142699Y131775D01*
X142699Y131775D01*
X142699Y131775D01*
X142715Y131761D01*
X142729Y131750D01*
X142729Y131750D01*
X142729Y131750D01*
X142737Y131739D01*
X142794Y131739D01*
X142812Y131737D01*
X142833Y131735D01*
X142833Y131735D01*
X142833D01*
X142856Y131727D01*
X142870Y131723D01*
X142870Y131723D01*
X142870Y131723D01*
X142893Y131710D01*
X142904Y131704D01*
X142904Y131704D01*
X142904Y131704D01*
X142922Y131689D01*
X142933Y131680D01*
X142933Y131680D01*
X142933Y131680D01*
X142944Y131666D01*
X142958Y131649D01*
X142958Y131649D01*
X142958Y131649D01*
X142963Y131640D01*
X142972Y131635D01*
X143001Y131611D01*
X143026Y131580D01*
X143031Y131571D01*
X143040Y131566D01*
X143040Y131566D01*
X143040Y131566D01*
X143052Y131555D01*
X143069Y131542D01*
X143069Y131541D01*
X143069Y131541D01*
X143079Y131529D01*
X143094Y131511D01*
X143094Y131511D01*
X143094Y131511D01*
X143098Y131502D01*
X143107Y131497D01*
X143107Y131497D01*
X143107Y131497D01*
X143116Y131490D01*
X143137Y131472D01*
X143146Y131462D01*
X143203Y131461D01*
X143230Y131458D01*
X143241Y131457D01*
X143241D01*
X143241Y131457D01*
X143275Y131447D01*
X143278Y131446D01*
X143278D01*
X143278Y131446D01*
X143306Y131430D01*
X143312Y131427D01*
X143312Y131427D01*
X143312Y131427D01*
X143330Y131412D01*
X143342Y131402D01*
X143342Y131402D01*
X143342Y131402D01*
X143354Y131387D01*
X143366Y131372D01*
X143366Y131372D01*
X143366Y131372D01*
X143371Y131363D01*
X143374Y131361D01*
X143380Y131358D01*
X143380Y131358D01*
X143380Y131358D01*
X143410Y131333D01*
X143426Y131313D01*
X143434Y131303D01*
X143439Y131294D01*
X143448Y131289D01*
X143478Y131264D01*
X143502Y131234D01*
X143507Y131225D01*
X143516Y131220D01*
X143546Y131195D01*
X143546Y131195D01*
X143546Y131195D01*
X143570Y131165D01*
X143575Y131156D01*
X143577Y131155D01*
X143584Y131151D01*
X143584Y131151D01*
X143584Y131150D01*
X143603Y131135D01*
X143614Y131126D01*
X143614Y131126D01*
X143614Y131126D01*
X143624Y131113D01*
X143638Y131096D01*
X143638Y131096D01*
X143638Y131096D01*
X143643Y131087D01*
X143646Y131085D01*
X143652Y131082D01*
X143652Y131081D01*
X143652Y131081D01*
X143671Y131066D01*
X143681Y131057D01*
X143681Y131057D01*
X143681Y131057D01*
X143691Y131045D01*
X143698Y131044D01*
X143717Y131042D01*
X143717Y131042D01*
X143717Y131042D01*
X143736Y131036D01*
X143754Y131030D01*
X143754Y131030D01*
X143754Y131030D01*
X143772Y131020D01*
X143788Y131012D01*
X143788Y131012D01*
X143788Y131012D01*
X143801Y131001D01*
X143818Y130987D01*
X143818Y130987D01*
X143818Y130987D01*
X143830Y130972D01*
X143842Y130957D01*
X143842Y130957D01*
X143842Y130957D01*
X143852Y130938D01*
X143860Y130922D01*
X143860Y130922D01*
X143860Y130922D01*
X143865Y130907D01*
X143883Y130907D01*
X143906Y130905D01*
X143921Y130903D01*
X143921Y130903D01*
X143921D01*
X143946Y130895D01*
X143958Y130892D01*
X143958Y130892D01*
X143958Y130892D01*
X143983Y130878D01*
X143992Y130873D01*
X143992Y130873D01*
X143992Y130873D01*
X144011Y130857D01*
X144022Y130848D01*
X144022Y130848D01*
X144022Y130848D01*
X144032Y130835D01*
X144046Y130818D01*
X144046Y130818D01*
X144046Y130818D01*
X144064Y130784D01*
X144071Y130761D01*
X144080Y130758D01*
X144094Y130754D01*
X144094Y130754D01*
X144094Y130754D01*
X144112Y130744D01*
X144128Y130735D01*
X144128Y130735D01*
X144128Y130735D01*
X144142Y130724D01*
X144158Y130710D01*
X144158Y130710D01*
X144158Y130710D01*
X144173Y130691D01*
X144182Y130680D01*
X144182Y130680D01*
X144182Y130680D01*
X144200Y130646D01*
X144207Y130623D01*
X144218Y130619D01*
X144230Y130615D01*
X144230Y130615D01*
X144230Y130615D01*
X144242Y130609D01*
X144264Y130597D01*
X144264Y130597D01*
X144264D01*
X144270Y130592D01*
X144293Y130572D01*
X144294Y130572D01*
X144294Y130572D01*
X144304Y130559D01*
X144318Y130542D01*
X144318Y130542D01*
X144318Y130542D01*
X144325Y130529D01*
X144336Y130507D01*
X144336Y130507D01*
X144336Y130507D01*
X144340Y130492D01*
X144343Y130484D01*
X144366Y130477D01*
X144400Y130459D01*
X144400Y130459D01*
X144400Y130459D01*
X144410Y130450D01*
X144429Y130434D01*
X144429Y130434D01*
X144429Y130434D01*
X144440Y130421D01*
X144454Y130404D01*
X144454Y130404D01*
X144454Y130404D01*
X144458Y130395D01*
X144472Y130369D01*
X144472Y130369D01*
X144472Y130369D01*
X144474Y130360D01*
X144478Y130346D01*
X144501Y130339D01*
X144501Y130339D01*
X144501D01*
X144508Y130336D01*
X144535Y130321D01*
X144535Y130321D01*
X144535Y130321D01*
X144547Y130310D01*
X144565Y130296D01*
X144565Y130296D01*
X144565Y130296D01*
X144583Y130274D01*
X144589Y130265D01*
Y130265D01*
X144589Y130265D01*
X144600Y130245D01*
X144607Y130231D01*
X144607Y130231D01*
X144607Y130231D01*
X144614Y130208D01*
X144637Y130201D01*
X144671Y130182D01*
X144701Y130157D01*
Y130157D01*
X144701D01*
X144725Y130127D01*
X144741Y130096D01*
X144743Y130093D01*
D01*
X144743Y130093D01*
X144754Y130056D01*
X144756Y130030D01*
X144768Y130020D01*
X144792Y129990D01*
X144810Y129955D01*
X144821Y129918D01*
X144824Y129892D01*
X144835Y129882D01*
X144835Y129882D01*
X144835Y129882D01*
X144848Y129867D01*
X144860Y129852D01*
X144860Y129852D01*
X144860Y129852D01*
X144864Y129843D01*
X144873Y129838D01*
X144903Y129813D01*
X144928Y129783D01*
X144932Y129774D01*
X144941Y129769D01*
X144971Y129744D01*
X144995Y129714D01*
X145000Y129705D01*
X145009Y129700D01*
X145029Y129683D01*
X145039Y129675D01*
X145039Y129675D01*
X145039Y129675D01*
X145063Y129645D01*
X145068Y129636D01*
X145077Y129631D01*
X145077Y129631D01*
X145077Y129631D01*
X145095Y129616D01*
X145107Y129606D01*
X145107Y129606D01*
X145107Y129606D01*
X145119Y129591D01*
X145131Y129576D01*
X145131Y129576D01*
X145131Y129576D01*
X145136Y129567D01*
X145145Y129562D01*
X145175Y129537D01*
X145199Y129507D01*
X145217Y129472D01*
X145228Y129435D01*
X145231Y129397D01*
X145231Y129340D01*
X145241Y129331D01*
X145241Y129331D01*
X145241Y129331D01*
X145253Y129316D01*
X145266Y129301D01*
X145266Y129301D01*
X145266Y129301D01*
X145271Y129292D01*
X145280Y129287D01*
X145309Y129262D01*
X145334Y129232D01*
X145338Y129223D01*
X145347Y129218D01*
X145377Y129193D01*
X145377Y129193D01*
X145377Y129193D01*
X145382Y129186D01*
X145402Y129163D01*
X145406Y129154D01*
X145415Y129148D01*
X145431Y129135D01*
X145445Y129124D01*
X145469Y129094D01*
X145469Y129094D01*
X145469Y129094D01*
X145474Y129084D01*
X145477Y129083D01*
X145483Y129079D01*
X145483Y129079D01*
X145483Y129079D01*
X145501Y129064D01*
X145513Y129055D01*
X145513Y129055D01*
X145513Y129055D01*
X145523Y129043D01*
X145537Y129024D01*
X145555Y128990D01*
D01*
X145555Y128990D01*
X145566Y128953D01*
X145569Y128927D01*
X145580Y128917D01*
X145580Y128917D01*
X145580Y128917D01*
X145595Y128899D01*
X145605Y128887D01*
X145605Y128887D01*
X145605Y128887D01*
X145617Y128863D01*
X145623Y128853D01*
X145623Y128853D01*
X145623Y128852D01*
X145628Y128833D01*
X145633Y128815D01*
X145634Y128815D01*
X145634Y128815D01*
X145635Y128797D01*
X145636Y128789D01*
X145637Y128788D01*
X145648Y128779D01*
X145648Y128779D01*
X145648Y128779D01*
X145658Y128766D01*
X145672Y128749D01*
X145672Y128749D01*
X145672Y128749D01*
X145677Y128740D01*
X145686Y128735D01*
X145686Y128735D01*
X145686D01*
X145692Y128730D01*
X145715Y128710D01*
X145715Y128710D01*
X145715Y128710D01*
X145726Y128698D01*
X145740Y128680D01*
X145740Y128680D01*
X145740Y128680D01*
X145747Y128667D01*
X145758Y128646D01*
X145758Y128646D01*
X145758Y128646D01*
X145762Y128631D01*
X145769Y128609D01*
Y128609D01*
X145769Y128609D01*
X145770Y128591D01*
X145772Y128570D01*
Y128570D01*
Y128570D01*
X145772Y128513D01*
X145782Y128505D01*
X145807Y128474D01*
X145811Y128465D01*
X145820Y128460D01*
X145820Y128460D01*
X145820Y128460D01*
X145829Y128453D01*
X145850Y128435D01*
X145850Y128435D01*
X145850Y128435D01*
X145859Y128424D01*
X145874Y128405D01*
X145874Y128405D01*
X145875Y128405D01*
X145879Y128396D01*
X145888Y128391D01*
X145888Y128391D01*
X145888Y128391D01*
X145907Y128375D01*
X145918Y128366D01*
X145918Y128366D01*
X145918Y128366D01*
X145928Y128353D01*
X145942Y128336D01*
X145942Y128336D01*
X145942Y128336D01*
X145960Y128302D01*
X145969Y128273D01*
X145971Y128265D01*
Y128264D01*
X145971Y128264D01*
X145973Y128243D01*
X145975Y128226D01*
Y128226D01*
D01*
D01*
X145974Y128169D01*
X145975Y128169D01*
X145985Y128160D01*
X146009Y128130D01*
X146014Y128121D01*
X146023Y128116D01*
X146052Y128091D01*
X146053Y128091D01*
X146053Y128091D01*
X146062Y128079D01*
X146077Y128061D01*
X146079Y128058D01*
X146095Y128027D01*
X146104Y127995D01*
X146106Y127989D01*
Y127989D01*
X146106Y127989D01*
X146108Y127962D01*
X146109Y127951D01*
Y127951D01*
Y127951D01*
X146109Y127894D01*
X146119Y127885D01*
X146119Y127885D01*
X146119Y127885D01*
X146133Y127868D01*
X146143Y127855D01*
X146143Y127855D01*
X146143Y127855D01*
X146148Y127846D01*
X146157Y127841D01*
X146187Y127816D01*
X146211Y127786D01*
X146229Y127752D01*
X146240Y127714D01*
X146244Y127676D01*
D01*
Y127676D01*
X146243Y127619D01*
X146254Y127610D01*
X146254Y127610D01*
X146254Y127610D01*
X146263Y127598D01*
X146278Y127580D01*
X146283Y127571D01*
X146292Y127566D01*
X146322Y127541D01*
X146322Y127541D01*
X146322Y127541D01*
X146327Y127534D01*
X146346Y127511D01*
X146364Y127476D01*
X146364Y127476D01*
Y127476D01*
X146375Y127439D01*
X146377Y127411D01*
X146378Y127401D01*
Y127401D01*
Y127401D01*
X146378Y127344D01*
X146388Y127335D01*
X146388Y127335D01*
X146388Y127335D01*
X146398Y127323D01*
X146413Y127305D01*
X146413Y127305D01*
X146413Y127305D01*
X146417Y127296D01*
X146426Y127291D01*
X146451Y127270D01*
X146456Y127266D01*
X146456Y127266D01*
X146456Y127266D01*
X146468Y127251D01*
X146481Y127236D01*
X146481Y127236D01*
X146481Y127236D01*
X146497Y127205D01*
X146499Y127201D01*
D01*
X146499Y127201D01*
X146503Y127186D01*
X146509Y127164D01*
X146513Y127126D01*
Y127126D01*
D01*
D01*
X146512Y127069D01*
X146523Y127060D01*
X146547Y127030D01*
X146565Y126995D01*
X146576Y126958D01*
X146580Y126919D01*
D01*
Y126919D01*
X146579Y126851D01*
D01*
Y126851D01*
X146578Y126783D01*
X146578Y126783D01*
X146574Y126744D01*
X146563Y126707D01*
X146553Y126688D01*
X146544Y126673D01*
X146519Y126643D01*
X146519D01*
Y126643D01*
X146489Y126619D01*
X146473Y126610D01*
X146455Y126601D01*
X146417Y126590D01*
X146379Y126586D01*
D01*
X146379D01*
X146308Y126587D01*
X146313Y126582D01*
X146313Y126582D01*
X146313Y126582D01*
X146338Y126552D01*
X146349Y126530D01*
X146356Y126518D01*
X146356Y126518D01*
Y126518D01*
X146357Y126513D01*
X146367Y126480D01*
X146370Y126442D01*
Y126442D01*
D01*
D01*
X146370Y126385D01*
X146380Y126376D01*
X146380Y126376D01*
X146380Y126376D01*
X146403Y126347D01*
X146404Y126346D01*
D01*
X146404Y126346D01*
X146409Y126337D01*
X146418Y126332D01*
X146448Y126307D01*
X146472Y126277D01*
X146490Y126242D01*
X146501Y126205D01*
X146504Y126167D01*
D01*
Y126167D01*
X146504Y126110D01*
X146515Y126101D01*
X146539Y126071D01*
X146539Y126071D01*
X146539Y126071D01*
X146544Y126062D01*
X146553Y126057D01*
X146553Y126057D01*
X146553Y126057D01*
X146582Y126032D01*
X146601Y126009D01*
X146607Y126002D01*
X146607Y126002D01*
X146607Y126002D01*
X146616Y125983D01*
X146625Y125967D01*
X146625Y125967D01*
X146625Y125967D01*
X146632Y125943D01*
X146636Y125930D01*
Y125930D01*
X146636Y125930D01*
X146638Y125906D01*
X146639Y125891D01*
Y125891D01*
Y125891D01*
Y125891D01*
X146639Y125835D01*
X146639Y125835D01*
X146649Y125826D01*
X146649Y125826D01*
X146649Y125826D01*
X146665Y125806D01*
X146673Y125796D01*
X146673Y125796D01*
X146674Y125796D01*
X146683Y125777D01*
X146691Y125761D01*
X146691Y125761D01*
X146691Y125761D01*
X146695Y125749D01*
X146702Y125724D01*
X146702Y125724D01*
Y125724D01*
X146703Y125713D01*
X146706Y125686D01*
Y125686D01*
Y125686D01*
Y125686D01*
X146705Y125629D01*
X146716Y125620D01*
X146740Y125590D01*
X146758Y125555D01*
X146758Y125555D01*
X146758Y125555D01*
X146761Y125547D01*
X146769Y125518D01*
Y125518D01*
X146769Y125518D01*
X146771Y125500D01*
X146773Y125479D01*
Y125479D01*
Y125479D01*
X146772Y125423D01*
X146782Y125414D01*
X146782Y125414D01*
X146783Y125414D01*
X146806Y125385D01*
X146807Y125384D01*
D01*
X146807Y125384D01*
X146823Y125353D01*
X146825Y125349D01*
Y125349D01*
X146825Y125349D01*
X146832Y125326D01*
X146836Y125312D01*
Y125312D01*
X146836Y125312D01*
X146837Y125296D01*
X146839Y125274D01*
Y125274D01*
Y125274D01*
X146839Y125217D01*
X146849Y125208D01*
X146849Y125208D01*
X146849Y125208D01*
X146860Y125195D01*
X146873Y125178D01*
X146873Y125178D01*
X146873Y125178D01*
X146880Y125164D01*
X146891Y125143D01*
X146891Y125143D01*
X146891Y125143D01*
X146897Y125124D01*
X146902Y125106D01*
Y125106D01*
X146902Y125106D01*
X146904Y125085D01*
X146906Y125067D01*
Y125067D01*
D01*
D01*
X146905Y125011D01*
X146916Y125002D01*
X146916Y125002D01*
X146916Y125002D01*
X146926Y124989D01*
X146940Y124972D01*
X146940Y124972D01*
X146940Y124972D01*
X146947Y124958D01*
X146958Y124937D01*
X146958Y124937D01*
X146958Y124937D01*
X146964Y124917D01*
X146969Y124900D01*
Y124900D01*
X146969Y124900D01*
X146971Y124879D01*
X146973Y124861D01*
Y124861D01*
D01*
D01*
X146972Y124793D01*
X146968Y124759D01*
X146970Y124743D01*
X146971Y124724D01*
Y124724D01*
Y124724D01*
Y124724D01*
X146971Y124656D01*
X146970Y124588D01*
Y124588D01*
Y124588D01*
X146970Y124531D01*
X146980Y124522D01*
X146980Y124522D01*
X146980Y124522D01*
X146991Y124509D01*
X147004Y124492D01*
X147004Y124492D01*
X147004Y124492D01*
X147011Y124478D01*
X147022Y124457D01*
X147022Y124457D01*
X147022Y124457D01*
X147027Y124442D01*
X147033Y124420D01*
Y124420D01*
X147033Y124420D01*
X147035Y124404D01*
X147037Y124381D01*
Y124381D01*
Y124381D01*
X147036Y124313D01*
X147032Y124279D01*
X147036Y124245D01*
X147035Y124176D01*
X147031Y124142D01*
X147033Y124128D01*
X147034Y124108D01*
Y124108D01*
Y124108D01*
X147034Y124039D01*
D01*
X147033Y123971D01*
D01*
Y123971D01*
X147033Y123902D01*
Y123902D01*
Y123902D01*
X147029Y123868D01*
X147031Y123841D01*
X147032Y123834D01*
Y123834D01*
D01*
D01*
X147031Y123765D01*
D01*
Y123765D01*
X147031Y123697D01*
D01*
X147030Y123628D01*
Y123628D01*
Y123628D01*
X147028Y123610D01*
X147027Y123594D01*
X147027Y123591D01*
X147030Y123560D01*
Y123560D01*
Y123560D01*
X147029Y123491D01*
X147027Y123472D01*
X147025Y123457D01*
X147027Y123439D01*
X147028Y123423D01*
Y123423D01*
Y123423D01*
Y123423D01*
X147028Y123354D01*
Y123354D01*
Y123354D01*
X147027Y123343D01*
X147024Y123320D01*
X147026Y123305D01*
X147027Y123286D01*
Y123286D01*
D01*
D01*
X147027Y123217D01*
X147025Y123202D01*
X147023Y123179D01*
X147022Y123179D01*
Y123179D01*
X147016Y123158D01*
X147011Y123142D01*
X147011Y123142D01*
X147011Y123142D01*
X146996Y123115D01*
X146992Y123108D01*
X146992Y123108D01*
X146992Y123108D01*
X146976Y123089D01*
X146968Y123078D01*
X146968Y123078D01*
X146967Y123078D01*
X146957Y123069D01*
X146956Y123012D01*
D01*
X146956Y122944D01*
Y122944D01*
Y122944D01*
X146955Y122875D01*
X146951Y122838D01*
X146951Y122837D01*
D01*
X146951Y122837D01*
X146943Y122811D01*
X146940Y122800D01*
X146940Y122800D01*
X146940Y122800D01*
X146932Y122786D01*
X146921Y122766D01*
X146921Y122766D01*
X146921Y122766D01*
X146909Y122752D01*
X146896Y122736D01*
X146896Y122736D01*
X146896Y122736D01*
X146885Y122728D01*
X146885Y122671D01*
X146885Y122671D01*
X146885Y122671D01*
X146884Y122602D01*
Y122602D01*
X146884Y122534D01*
X146880Y122500D01*
X146883Y122465D01*
Y122465D01*
D01*
D01*
X146883Y122397D01*
X146878Y122358D01*
X146867Y122321D01*
X146848Y122287D01*
X146823Y122257D01*
X146813Y122249D01*
X146812Y122192D01*
X146808Y122153D01*
X146800Y122127D01*
X146797Y122116D01*
X146797Y122116D01*
D01*
X146795Y122113D01*
X146778Y122082D01*
X146753Y122053D01*
X146753Y122053D01*
X146753Y122053D01*
X146742Y122044D01*
X146742Y121987D01*
Y121987D01*
Y121987D01*
X146740Y121969D01*
X146738Y121953D01*
X146741Y121919D01*
D01*
Y121919D01*
X146741Y121850D01*
X146738Y121825D01*
X146737Y121812D01*
X146737Y121812D01*
Y121812D01*
X146727Y121779D01*
X146725Y121775D01*
Y121775D01*
X146725Y121775D01*
X146710Y121747D01*
X146706Y121741D01*
X146706Y121741D01*
X146706Y121741D01*
X146691Y121722D01*
X146682Y121711D01*
X146682Y121711D01*
X146682Y121711D01*
X146670Y121701D01*
X146669Y121698D01*
X146667Y121675D01*
X146667Y121675D01*
Y121675D01*
X146664Y121667D01*
X146655Y121638D01*
X146655Y121638D01*
X146655Y121638D01*
X146646Y121622D01*
X146637Y121604D01*
X146637Y121604D01*
X146637Y121604D01*
X146624Y121588D01*
X146612Y121574D01*
X146612Y121574D01*
X146612Y121574D01*
X146600Y121565D01*
X146599Y121553D01*
X146598Y121543D01*
X146598Y121537D01*
X146601Y121509D01*
Y121509D01*
Y121509D01*
Y121509D01*
X146600Y121440D01*
X146596Y121402D01*
X146585Y121365D01*
X146566Y121331D01*
X146541Y121301D01*
X146529Y121291D01*
X146529Y121285D01*
X146526Y121266D01*
X146526Y121265D01*
Y121265D01*
X146519Y121242D01*
X146515Y121229D01*
X146515Y121229D01*
X146515Y121229D01*
X146498Y121198D01*
X146496Y121195D01*
X146496Y121195D01*
X146496Y121195D01*
X146480Y121175D01*
X146472Y121165D01*
X146471Y121165D01*
X146471Y121165D01*
X146460Y121155D01*
X146457Y121134D01*
X146460Y121107D01*
X146460Y121099D01*
Y121099D01*
D01*
D01*
X146460Y121031D01*
Y121031D01*
Y121031D01*
X146456Y120992D01*
X146447Y120966D01*
X146444Y120955D01*
X146444Y120955D01*
D01*
X146442Y120952D01*
X146425Y120921D01*
X146401Y120891D01*
X146401Y120891D01*
X146400Y120891D01*
X146394Y120886D01*
X146370Y120867D01*
X146361Y120862D01*
X146356Y120853D01*
X146356Y120853D01*
X146356Y120853D01*
X146347Y120842D01*
X146332Y120824D01*
X146331Y120824D01*
X146331Y120824D01*
X146323Y120817D01*
X146321Y120815D01*
X146320Y120758D01*
X146320Y120758D01*
X146320Y120758D01*
X146319Y120743D01*
X146316Y120720D01*
X146316Y120719D01*
Y120719D01*
X146314Y120712D01*
X146305Y120683D01*
X146305Y120683D01*
X146305Y120682D01*
X146295Y120664D01*
X146286Y120649D01*
X146286Y120648D01*
X146286Y120648D01*
X146275Y120635D01*
X146261Y120619D01*
X146261Y120619D01*
X146261Y120619D01*
X146249Y120609D01*
X146231Y120594D01*
X146231Y120594D01*
X146231Y120594D01*
X146222Y120590D01*
X146217Y120581D01*
X146217Y120580D01*
X146217Y120580D01*
X146201Y120562D01*
X146192Y120551D01*
X146192Y120551D01*
X146192Y120551D01*
X146181Y120542D01*
X146181Y120485D01*
Y120485D01*
Y120485D01*
X146180Y120474D01*
X146177Y120447D01*
X146165Y120410D01*
X146151Y120383D01*
X146147Y120376D01*
X146130Y120356D01*
X146122Y120346D01*
X146122Y120346D01*
X146122Y120346D01*
X146107Y120334D01*
X146092Y120322D01*
X146092Y120322D01*
X146092Y120322D01*
X146083Y120317D01*
X146078Y120308D01*
X146053Y120278D01*
X146053Y120278D01*
X146053Y120278D01*
X146046Y120273D01*
X146042Y120270D01*
X146042Y120213D01*
X146038Y120174D01*
X146026Y120137D01*
X146007Y120103D01*
X145983Y120073D01*
X145952Y120049D01*
X145943Y120044D01*
X145940Y120039D01*
X145938Y120035D01*
X145938Y120035D01*
X145938Y120035D01*
X145922Y120016D01*
X145913Y120005D01*
X145913Y120005D01*
X145913Y120005D01*
X145894Y119990D01*
X145883Y119981D01*
X145883Y119981D01*
X145883Y119981D01*
X145874Y119976D01*
X145869Y119967D01*
X145844Y119938D01*
X145844Y119938D01*
X145844Y119938D01*
X145833Y119928D01*
X145832Y119923D01*
X145830Y119902D01*
X145830Y119902D01*
X145830Y119902D01*
X145825Y119887D01*
X145818Y119865D01*
X145818Y119865D01*
X145818Y119865D01*
X145809Y119848D01*
X145800Y119831D01*
X145800Y119831D01*
X145800Y119831D01*
X145788Y119817D01*
X145775Y119801D01*
X145775Y119801D01*
X145775Y119801D01*
X145765Y119793D01*
X145763Y119791D01*
X145760Y119766D01*
X145752Y119739D01*
X145748Y119729D01*
X145748Y119729D01*
D01*
X145730Y119695D01*
X145713Y119675D01*
X145705Y119665D01*
X145705Y119665D01*
X145705Y119665D01*
X145675Y119641D01*
X145666Y119636D01*
X145661Y119627D01*
X145636Y119597D01*
X145636Y119597D01*
X145636Y119597D01*
X145624Y119587D01*
X145606Y119573D01*
X145597Y119568D01*
X145592Y119559D01*
X145592Y119559D01*
X145592Y119559D01*
X145578Y119542D01*
X145567Y119529D01*
X145567Y119529D01*
X145567Y119529D01*
X145554Y119518D01*
X145537Y119505D01*
X145537Y119505D01*
X145537Y119505D01*
X145528Y119500D01*
X145523Y119491D01*
X145523Y119491D01*
X145522Y119491D01*
X145509Y119474D01*
X145498Y119461D01*
X145498Y119461D01*
X145498Y119461D01*
X145487Y119453D01*
X145487Y119396D01*
X145487Y119396D01*
X145483Y119357D01*
X145471Y119320D01*
X145452Y119286D01*
X145434Y119264D01*
X145428Y119256D01*
X145428Y119256D01*
X145428Y119256D01*
X145410Y119242D01*
X145397Y119232D01*
X145397Y119232D01*
X145397Y119232D01*
X145383Y119224D01*
X145363Y119214D01*
X145363Y119214D01*
X145363D01*
X145360Y119213D01*
X145340Y119207D01*
X145333Y119184D01*
Y119184D01*
X145333Y119184D01*
X145317Y119156D01*
X145314Y119150D01*
X145314Y119150D01*
X145314Y119150D01*
X145298Y119131D01*
X145289Y119121D01*
X145289Y119121D01*
X145289Y119121D01*
X145260Y119097D01*
X145259Y119096D01*
D01*
X145259Y119096D01*
X145250Y119091D01*
X145245Y119082D01*
X145245Y119082D01*
X145245Y119082D01*
X145234Y119069D01*
X145220Y119053D01*
X145220Y119053D01*
X145220Y119053D01*
X145207Y119042D01*
X145190Y119028D01*
X145190Y119028D01*
X145190Y119028D01*
X145181Y119024D01*
X145176Y119015D01*
X145151Y118985D01*
X145151Y118985D01*
X145151Y118985D01*
X145121Y118960D01*
X145112Y118956D01*
X145111Y118954D01*
X145107Y118947D01*
X145107Y118947D01*
X145107Y118947D01*
X145091Y118928D01*
X145082Y118917D01*
X145082Y118917D01*
X145082Y118917D01*
X145064Y118903D01*
X145052Y118893D01*
X145052Y118893D01*
X145052Y118893D01*
X145043Y118888D01*
X145038Y118879D01*
X145038Y118879D01*
X145038Y118879D01*
X145029Y118868D01*
X145013Y118849D01*
X145013Y118849D01*
X145013Y118849D01*
X144997Y118836D01*
X144983Y118825D01*
X144983Y118825D01*
X144983Y118825D01*
X144974Y118820D01*
X144973Y118818D01*
X144969Y118811D01*
X144969Y118811D01*
X144969Y118811D01*
X144953Y118792D01*
X144944Y118781D01*
X144944Y118781D01*
X144944Y118781D01*
X144931Y118771D01*
X144914Y118757D01*
X144914Y118757D01*
X144914Y118757D01*
X144905Y118752D01*
X144903Y118749D01*
X144900Y118743D01*
X144875Y118713D01*
X144845Y118689D01*
X144836Y118684D01*
X144831Y118675D01*
X144831Y118675D01*
X144831Y118675D01*
X144815Y118656D01*
X144806Y118645D01*
X144806Y118645D01*
X144806Y118645D01*
X144782Y118626D01*
X144776Y118621D01*
X144776D01*
X144776Y118621D01*
X144766Y118616D01*
X144765Y118613D01*
X144762Y118607D01*
X144762Y118607D01*
X144762Y118607D01*
X144746Y118588D01*
X144737Y118578D01*
X144737Y118578D01*
X144737Y118578D01*
X144708Y118554D01*
X144707Y118553D01*
D01*
X144707Y118553D01*
X144697Y118548D01*
X144693Y118539D01*
X144693Y118539D01*
X144693Y118539D01*
X144681Y118526D01*
X144668Y118510D01*
X144668Y118510D01*
X144668Y118510D01*
X144655Y118500D01*
X144638Y118485D01*
X144637Y118485D01*
X144637Y118485D01*
X144628Y118481D01*
X144623Y118472D01*
X144623Y118471D01*
X144623Y118471D01*
X144615Y118461D01*
X144599Y118442D01*
X144599Y118442D01*
X144598Y118442D01*
X144575Y118423D01*
X144568Y118417D01*
X144568D01*
X144568Y118417D01*
X144559Y118413D01*
X144554Y118404D01*
X144554Y118404D01*
X144554Y118404D01*
X144539Y118386D01*
X144529Y118374D01*
X144529Y118374D01*
X144529Y118374D01*
X144515Y118362D01*
X144499Y118350D01*
X144499Y118350D01*
X144499Y118350D01*
X144490Y118345D01*
X144485Y118336D01*
X144485Y118336D01*
X144485Y118336D01*
X144472Y118319D01*
X144460Y118306D01*
X144460Y118306D01*
X144460Y118306D01*
X144444Y118293D01*
X144430Y118282D01*
X144430Y118282D01*
X144430Y118282D01*
X144401Y118266D01*
X144396Y118264D01*
X144396D01*
X144396Y118264D01*
X144373Y118257D01*
X144366Y118234D01*
D01*
X144366Y118234D01*
X144354Y118212D01*
X144347Y118200D01*
X144347Y118200D01*
X144347Y118200D01*
X144334Y118185D01*
X144322Y118170D01*
X144322Y118170D01*
X144322Y118170D01*
X144305Y118156D01*
X144292Y118146D01*
X144292Y118146D01*
X144292Y118146D01*
X144264Y118131D01*
X144258Y118128D01*
D01*
X144258Y118128D01*
X144227Y118119D01*
X144220Y118117D01*
X144220D01*
X144220Y118117D01*
X144196Y118115D01*
X144182Y118114D01*
X144182D01*
D01*
D01*
X144125Y118114D01*
X144116Y118104D01*
X144116Y118104D01*
X144116Y118103D01*
X144101Y118091D01*
X144086Y118079D01*
X144086Y118079D01*
X144086Y118079D01*
X144077Y118074D01*
X144072Y118065D01*
X144072Y118065D01*
X144072Y118065D01*
X144057Y118047D01*
X144047Y118036D01*
X144047Y118036D01*
X144047Y118036D01*
X144033Y118024D01*
X144017Y118011D01*
X144017Y118011D01*
X144017Y118011D01*
X144008Y118007D01*
X144003Y117998D01*
X143978Y117968D01*
X143948Y117943D01*
X143939Y117939D01*
X143934Y117930D01*
X143934Y117930D01*
X143934Y117930D01*
X143922Y117916D01*
X143909Y117900D01*
X143909Y117900D01*
X143909Y117900D01*
X143889Y117884D01*
X143879Y117876D01*
X143879Y117876D01*
X143879Y117876D01*
X143864Y117868D01*
X143844Y117858D01*
X143844Y117858D01*
X143844Y117858D01*
X143838Y117856D01*
X143807Y117847D01*
X143807Y117847D01*
X143807D01*
X143800Y117846D01*
X143769Y117843D01*
X143769D01*
X143769D01*
X143769D01*
X143712Y117844D01*
X143708Y117839D01*
X143703Y117833D01*
X143703Y117833D01*
X143703Y117833D01*
X143673Y117809D01*
X143664Y117804D01*
X143659Y117795D01*
X143659Y117795D01*
X143659Y117795D01*
X143642Y117774D01*
X143634Y117765D01*
X143634Y117765D01*
X143634Y117765D01*
X143618Y117752D01*
X143604Y117741D01*
X143604Y117741D01*
X143604Y117741D01*
X143584Y117731D01*
X143569Y117723D01*
X143569Y117723D01*
X143569Y117723D01*
X143554Y117719D01*
X143532Y117712D01*
X143532Y117712D01*
X143532D01*
X143521Y117711D01*
X143506Y117710D01*
X143496Y117698D01*
X143496Y117698D01*
X143496Y117698D01*
X143490Y117693D01*
X143466Y117674D01*
X143432Y117656D01*
X143432Y117656D01*
X143432D01*
X143395Y117645D01*
X143368Y117642D01*
X143359Y117631D01*
X143329Y117606D01*
X143319Y117602D01*
X143315Y117593D01*
X143315Y117593D01*
X143315Y117593D01*
X143301Y117577D01*
X143290Y117563D01*
X143290Y117563D01*
X143290Y117563D01*
X143272Y117548D01*
X143260Y117538D01*
X143260Y117538D01*
X143260Y117538D01*
X143236Y117526D01*
X143225Y117520D01*
X143225Y117520D01*
X143225Y117520D01*
X143205Y117515D01*
X143188Y117510D01*
X143188Y117510D01*
X143188Y117510D01*
X143170Y117508D01*
X143149Y117506D01*
X143149Y117506D01*
X143149Y117506D01*
X143092Y117507D01*
X143084Y117496D01*
X143084Y117496D01*
X143084Y117496D01*
X143069Y117484D01*
X143053Y117472D01*
X143053Y117472D01*
X143053Y117472D01*
X143035Y117462D01*
X143019Y117454D01*
X143019Y117454D01*
X143019Y117454D01*
X142997Y117447D01*
X142982Y117443D01*
X142982D01*
X142982Y117443D01*
X142961Y117441D01*
X142943Y117439D01*
X142943D01*
X142943D01*
X142943D01*
X142886Y117440D01*
X142878Y117429D01*
X142847Y117405D01*
X142838Y117400D01*
X142833Y117391D01*
X142833Y117391D01*
X142833Y117391D01*
X142823Y117379D01*
X142809Y117362D01*
X142808Y117362D01*
X142808Y117362D01*
X142799Y117354D01*
X142778Y117337D01*
X142744Y117319D01*
D01*
X142744Y117319D01*
X142720Y117312D01*
X142707Y117308D01*
X142707D01*
X142707Y117308D01*
X142685Y117306D01*
X142668Y117305D01*
X142668D01*
D01*
D01*
X142531Y117306D01*
X142531D01*
X142531D01*
X142513Y117308D01*
X142493Y117310D01*
X142493Y117310D01*
X142493D01*
X142472Y117317D01*
X142456Y117322D01*
X142456Y117322D01*
X142456Y117322D01*
X142440Y117331D01*
X142422Y117340D01*
X142422Y117340D01*
X142422Y117340D01*
X142410Y117350D01*
X142392Y117365D01*
X142392Y117365D01*
X142392Y117365D01*
X142384Y117375D01*
X142367Y117395D01*
X142350Y117430D01*
D01*
X142350Y117430D01*
X142341Y117460D01*
X142339Y117467D01*
Y117467D01*
X142339Y117467D01*
X142337Y117490D01*
X142335Y117506D01*
Y117506D01*
Y117506D01*
X142336Y117574D01*
X142340Y117611D01*
X142340Y117613D01*
D01*
X142340Y117613D01*
X142350Y117646D01*
X142351Y117649D01*
Y117649D01*
X142351Y117650D01*
X142363Y117671D01*
X142370Y117684D01*
X142370Y117684D01*
X142370Y117684D01*
X142382Y117697D01*
X142395Y117713D01*
X142395Y117713D01*
X142395Y117713D01*
X142414Y117729D01*
X142425Y117738D01*
X142425Y117738D01*
X142425Y117738D01*
X142459Y117756D01*
X142482Y117762D01*
X142490Y117785D01*
X142490Y117785D01*
X142490Y117785D01*
X142499Y117802D01*
X142508Y117819D01*
X142508Y117819D01*
X142508Y117819D01*
X142518Y117831D01*
X142533Y117849D01*
X142533Y117849D01*
X142533Y117849D01*
X142545Y117859D01*
X142546Y117865D01*
X142548Y117885D01*
X142548Y117885D01*
Y117885D01*
X142555Y117908D01*
X142559Y117922D01*
X142559Y117922D01*
X142559Y117922D01*
X142578Y117956D01*
X142596Y117977D01*
X142603Y117985D01*
X142603Y117985D01*
X142603Y117986D01*
X142622Y118001D01*
X142633Y118010D01*
X142633Y118010D01*
X142633Y118010D01*
X142642Y118015D01*
X142647Y118024D01*
X142647Y118024D01*
X142647Y118024D01*
X142655Y118034D01*
X142672Y118053D01*
X142672Y118053D01*
X142672Y118053D01*
X142681Y118061D01*
X142702Y118078D01*
X142711Y118082D01*
X142716Y118092D01*
X142741Y118121D01*
X142771Y118146D01*
X142780Y118150D01*
X142785Y118159D01*
X142802Y118179D01*
X142810Y118189D01*
X142810Y118189D01*
X142810Y118189D01*
X142821Y118198D01*
X142821Y118255D01*
X142825Y118293D01*
X142833Y118320D01*
X142837Y118330D01*
X142837Y118330D01*
D01*
X142839Y118333D01*
X142855Y118364D01*
X142880Y118394D01*
X142880Y118394D01*
X142880Y118394D01*
X142892Y118403D01*
X142911Y118418D01*
X142920Y118423D01*
X142924Y118432D01*
X142924Y118432D01*
X142924Y118432D01*
X142938Y118448D01*
X142949Y118462D01*
X142949Y118462D01*
X142949Y118462D01*
X142975Y118483D01*
X142980Y118486D01*
X142980D01*
X142980Y118486D01*
X142989Y118491D01*
X142992Y118497D01*
X142993Y118500D01*
X143018Y118530D01*
X143049Y118554D01*
X143058Y118559D01*
X143063Y118568D01*
X143063Y118568D01*
X143063Y118568D01*
X143075Y118583D01*
X143087Y118598D01*
X143087Y118598D01*
X143088Y118598D01*
X143098Y118606D01*
X143099Y118663D01*
X143103Y118702D01*
X143114Y118739D01*
X143133Y118773D01*
X143158Y118802D01*
X143188Y118827D01*
X143197Y118832D01*
X143202Y118841D01*
X143213Y118854D01*
X143227Y118870D01*
X143237Y118879D01*
X143238Y118936D01*
Y118936D01*
Y118936D01*
X143241Y118961D01*
X143242Y118974D01*
X143242Y118974D01*
Y118974D01*
X143250Y118999D01*
X143254Y119011D01*
X143254Y119011D01*
X143254Y119011D01*
X143260Y119024D01*
X143272Y119045D01*
X143272Y119045D01*
Y119045D01*
X143277Y119052D01*
X143297Y119075D01*
X143297Y119075D01*
X143297Y119075D01*
X143310Y119086D01*
X143327Y119099D01*
X143327Y119100D01*
X143327Y119100D01*
X143336Y119104D01*
X143338Y119107D01*
X143341Y119113D01*
X143341Y119113D01*
X143341Y119113D01*
X143357Y119132D01*
X143366Y119143D01*
X143366Y119143D01*
X143366Y119143D01*
X143395Y119167D01*
X143396Y119167D01*
D01*
X143396Y119167D01*
X143405Y119172D01*
X143410Y119181D01*
X143410Y119181D01*
X143410Y119181D01*
X143422Y119195D01*
X143435Y119211D01*
X143435Y119211D01*
X143435Y119211D01*
X143447Y119221D01*
X143448Y119232D01*
X143450Y119246D01*
X143450Y119246D01*
X143450Y119247D01*
X143458Y119271D01*
X143462Y119283D01*
X143462Y119283D01*
X143462Y119284D01*
X143469Y119298D01*
X143480Y119317D01*
X143480Y119318D01*
X143480Y119318D01*
X143487Y119326D01*
X143505Y119347D01*
X143505Y119347D01*
X143505Y119347D01*
X143517Y119357D01*
X143520Y119383D01*
X143531Y119420D01*
X143546Y119447D01*
X143550Y119454D01*
X143567Y119474D01*
X143575Y119484D01*
X143575Y119484D01*
X143575Y119484D01*
X143585Y119492D01*
X143586Y119549D01*
X143588Y119574D01*
X143590Y119588D01*
X143590Y119588D01*
Y119588D01*
X143600Y119620D01*
X143601Y119625D01*
Y119625D01*
X143601Y119625D01*
X143617Y119653D01*
X143620Y119659D01*
X143620Y119659D01*
X143620Y119659D01*
X143636Y119678D01*
X143645Y119688D01*
X143645Y119689D01*
X143645Y119689D01*
X143656Y119697D01*
X143656Y119754D01*
X143660Y119792D01*
X143672Y119829D01*
X143690Y119864D01*
X143715Y119893D01*
X143745Y119918D01*
X143754Y119922D01*
X143759Y119931D01*
X143759Y119931D01*
X143759Y119932D01*
X143771Y119945D01*
X143784Y119961D01*
X143784Y119961D01*
X143784Y119961D01*
X143795Y119970D01*
X143795Y120027D01*
Y120027D01*
Y120027D01*
X143797Y120045D01*
X143799Y120065D01*
X143799Y120065D01*
Y120065D01*
X143807Y120088D01*
X143811Y120102D01*
X143811Y120102D01*
X143811Y120102D01*
X143821Y120121D01*
X143830Y120136D01*
X143830Y120136D01*
X143830Y120136D01*
X143841Y120150D01*
X143854Y120166D01*
X143854Y120166D01*
X143854Y120166D01*
X143866Y120176D01*
X143867Y120182D01*
X143869Y120202D01*
X143869Y120202D01*
Y120202D01*
X143876Y120225D01*
X143881Y120239D01*
X143881Y120239D01*
X143881Y120239D01*
X143891Y120257D01*
X143899Y120273D01*
X143899Y120273D01*
X143899Y120273D01*
X143911Y120286D01*
X143924Y120302D01*
X143924Y120302D01*
X143924Y120302D01*
X143936Y120312D01*
X143938Y120334D01*
X143935Y120368D01*
D01*
Y120368D01*
X143936Y120436D01*
X143938Y120453D01*
X143940Y120475D01*
X143940Y120475D01*
Y120475D01*
X143946Y120493D01*
X143952Y120512D01*
X143952Y120512D01*
X143952Y120512D01*
X143968Y120542D01*
X143970Y120546D01*
X143970Y120546D01*
X143970Y120546D01*
X143986Y120565D01*
X143995Y120576D01*
X143995Y120576D01*
X143995Y120576D01*
X144014Y120591D01*
X144025Y120600D01*
X144025Y120600D01*
X144025Y120600D01*
X144034Y120605D01*
X144039Y120614D01*
X144039Y120614D01*
X144039Y120614D01*
X144054Y120631D01*
X144064Y120644D01*
X144064Y120644D01*
X144064Y120644D01*
X144075Y120652D01*
X144075Y120709D01*
X144079Y120743D01*
X144077Y120770D01*
X144076Y120778D01*
Y120778D01*
D01*
D01*
X144076Y120846D01*
Y120846D01*
Y120846D01*
X144081Y120885D01*
X144091Y120920D01*
X144092Y120922D01*
D01*
X144092Y120922D01*
X144100Y120936D01*
X144111Y120956D01*
X144136Y120985D01*
X144136Y120985D01*
X144136Y120985D01*
X144147Y120995D01*
X144166Y121010D01*
X144175Y121015D01*
X144180Y121024D01*
X144180Y121024D01*
Y121024D01*
X144182Y121027D01*
X144205Y121053D01*
X144215Y121062D01*
X144216Y121119D01*
X144217Y121131D01*
X144220Y121153D01*
X144218Y121175D01*
X144216Y121187D01*
Y121187D01*
Y121187D01*
X144217Y121256D01*
X144221Y121294D01*
X144232Y121329D01*
X144233Y121331D01*
D01*
X144233Y121331D01*
X144240Y121345D01*
X144251Y121365D01*
X144276Y121395D01*
X144276Y121395D01*
X144276Y121395D01*
X144287Y121404D01*
X144287Y121461D01*
X144291Y121495D01*
X144288Y121529D01*
D01*
Y121529D01*
X144288Y121598D01*
X144291Y121622D01*
X144293Y121636D01*
X144293Y121636D01*
Y121636D01*
X144303Y121669D01*
X144304Y121673D01*
Y121673D01*
X144304Y121673D01*
X144319Y121701D01*
X144323Y121707D01*
X144323Y121707D01*
X144323Y121707D01*
X144339Y121726D01*
X144348Y121737D01*
X144348Y121737D01*
X144348Y121737D01*
X144358Y121746D01*
X144359Y121802D01*
Y121802D01*
Y121803D01*
X144360Y121814D01*
X144362Y121837D01*
X144361Y121852D01*
X144359Y121871D01*
Y121871D01*
Y121871D01*
Y121871D01*
X144360Y121939D01*
Y121939D01*
Y121940D01*
X144362Y121958D01*
X144364Y121978D01*
X144364Y121978D01*
Y121978D01*
X144371Y122001D01*
X144376Y122015D01*
X144376Y122015D01*
X144376Y122015D01*
X144386Y122033D01*
X144394Y122049D01*
X144394Y122049D01*
X144394Y122049D01*
X144406Y122063D01*
X144419Y122079D01*
X144419Y122079D01*
X144419Y122079D01*
X144430Y122087D01*
X144430Y122144D01*
Y122144D01*
X144431Y122213D01*
Y122213D01*
Y122213D01*
X144431Y122281D01*
X144431Y122281D01*
X144431Y122281D01*
X144433Y122297D01*
X144436Y122320D01*
X144436Y122320D01*
Y122320D01*
X144438Y122328D01*
X144447Y122357D01*
X144447Y122357D01*
X144447Y122357D01*
X144454Y122370D01*
X144466Y122391D01*
X144466Y122391D01*
X144466Y122391D01*
X144475Y122402D01*
X144491Y122421D01*
X144491Y122421D01*
X144491Y122421D01*
X144499Y122427D01*
X144501Y122429D01*
X144502Y122486D01*
Y122486D01*
X144502Y122554D01*
X144502Y122555D01*
X144502Y122555D01*
X144503Y122623D01*
X144507Y122657D01*
X144505Y122675D01*
X144503Y122691D01*
Y122692D01*
Y122692D01*
Y122692D01*
X144504Y122760D01*
Y122760D01*
Y122760D01*
X144505Y122769D01*
X144508Y122794D01*
X144505Y122828D01*
D01*
Y122828D01*
X144505Y122897D01*
X144508Y122920D01*
X144509Y122931D01*
X144507Y122953D01*
X144506Y122965D01*
Y122965D01*
Y122965D01*
Y122966D01*
X144506Y123034D01*
Y123034D01*
Y123034D01*
X144508Y123051D01*
X144510Y123068D01*
X144507Y123102D01*
D01*
Y123102D01*
X144508Y123171D01*
Y123171D01*
Y123171D01*
X144509Y123188D01*
X144512Y123209D01*
X144512Y123209D01*
Y123209D01*
X144515Y123219D01*
X144523Y123246D01*
X144523Y123246D01*
Y123247D01*
X144528Y123255D01*
X144538Y123273D01*
X144524Y123300D01*
X144514Y123333D01*
X144513Y123338D01*
Y123338D01*
X144513Y123338D01*
X144511Y123362D01*
X144509Y123376D01*
Y123376D01*
Y123376D01*
X144510Y123445D01*
Y123445D01*
Y123445D01*
X144512Y123462D01*
X144514Y123483D01*
X144514Y123483D01*
Y123483D01*
X144517Y123493D01*
X144526Y123520D01*
X144526Y123520D01*
Y123520D01*
X144530Y123528D01*
X144544Y123554D01*
X144544Y123554D01*
X144544Y123554D01*
X144556Y123568D01*
X144569Y123584D01*
X144569Y123584D01*
X144569Y123584D01*
X144580Y123593D01*
X144580Y123650D01*
D01*
X144581Y123718D01*
D01*
Y123718D01*
X144581Y123775D01*
X144571Y123784D01*
X144571Y123784D01*
X144571Y123784D01*
X144559Y123798D01*
X144547Y123814D01*
X144547Y123814D01*
X144547Y123814D01*
X144539Y123829D01*
X144529Y123848D01*
X144529Y123848D01*
Y123848D01*
X144527Y123853D01*
X144518Y123886D01*
X144514Y123924D01*
Y123924D01*
Y123924D01*
X144515Y123993D01*
X144517Y124009D01*
X144518Y124027D01*
X144517Y124047D01*
X144515Y124061D01*
Y124061D01*
Y124061D01*
Y124061D01*
X144516Y124129D01*
Y124129D01*
Y124129D01*
X144517Y124140D01*
X144520Y124164D01*
X144518Y124188D01*
X144517Y124198D01*
Y124198D01*
Y124198D01*
X144517Y124267D01*
X144521Y124301D01*
X144519Y124321D01*
X144518Y124335D01*
Y124335D01*
Y124335D01*
X144518Y124404D01*
Y124404D01*
Y124404D01*
X144520Y124421D01*
X144522Y124438D01*
X144520Y124461D01*
X144519Y124472D01*
Y124472D01*
Y124472D01*
X144520Y124540D01*
X144523Y124575D01*
X144521Y124601D01*
X144520Y124609D01*
Y124609D01*
D01*
D01*
X144521Y124677D01*
D01*
Y124677D01*
X144521Y124746D01*
D01*
Y124746D01*
X144522Y124803D01*
X144511Y124811D01*
X144511Y124811D01*
X144511Y124811D01*
X144501Y124825D01*
X144487Y124842D01*
X144487Y124842D01*
X144487Y124842D01*
X144480Y124855D01*
X144469Y124876D01*
X144469Y124876D01*
X144469Y124876D01*
X144465Y124891D01*
X144458Y124913D01*
Y124913D01*
X144458Y124913D01*
X144457Y124931D01*
X144455Y124952D01*
Y124952D01*
Y124952D01*
X144455Y125009D01*
X144445Y125017D01*
X144445Y125018D01*
X144445Y125018D01*
X144421Y125047D01*
X144420Y125048D01*
D01*
X144420Y125048D01*
X144402Y125082D01*
X144394Y125110D01*
X144392Y125119D01*
Y125119D01*
X144392Y125119D01*
X144390Y125141D01*
X144388Y125158D01*
Y125158D01*
D01*
D01*
X144389Y125226D01*
Y125226D01*
Y125226D01*
X144390Y125239D01*
X144392Y125261D01*
X144391Y125274D01*
X144389Y125295D01*
Y125295D01*
Y125295D01*
X144390Y125363D01*
X144394Y125398D01*
X144392Y125416D01*
X144390Y125432D01*
Y125432D01*
Y125432D01*
X144391Y125489D01*
X144380Y125497D01*
X144380Y125497D01*
X144380Y125498D01*
X144360Y125523D01*
X144356Y125528D01*
Y125528D01*
X144356Y125528D01*
X144343Y125554D01*
X144338Y125562D01*
X144338Y125562D01*
X144338Y125562D01*
X144332Y125584D01*
X144327Y125599D01*
X144327Y125599D01*
X144327Y125599D01*
X144325Y125619D01*
X144324Y125638D01*
Y125638D01*
Y125638D01*
Y125638D01*
X144324Y125695D01*
X144314Y125704D01*
X144314Y125704D01*
X144314Y125704D01*
X144298Y125723D01*
X144289Y125734D01*
X144289Y125734D01*
X144289Y125734D01*
X144274Y125764D01*
X144271Y125768D01*
Y125768D01*
X144271Y125768D01*
X144264Y125795D01*
X144261Y125805D01*
Y125805D01*
X144261Y125805D01*
X144258Y125828D01*
X144257Y125844D01*
Y125844D01*
Y125844D01*
X144258Y125912D01*
X144261Y125947D01*
X144260Y125965D01*
X144258Y125981D01*
Y125981D01*
Y125981D01*
Y125981D01*
X144259Y126038D01*
X144248Y126047D01*
X144248Y126047D01*
X144248Y126047D01*
X144237Y126061D01*
X144224Y126077D01*
X144224Y126077D01*
X144224Y126077D01*
X144208Y126108D01*
X144206Y126111D01*
D01*
X144206Y126111D01*
X144195Y126148D01*
X144193Y126176D01*
X144192Y126187D01*
Y126187D01*
D01*
D01*
X144192Y126244D01*
X144182Y126252D01*
X144182Y126253D01*
X144182Y126253D01*
X144171Y126266D01*
X144157Y126283D01*
X144157Y126283D01*
X144157Y126283D01*
X144139Y126317D01*
X144130Y126349D01*
X144128Y126354D01*
Y126354D01*
X144128Y126354D01*
X144126Y126379D01*
X144125Y126393D01*
Y126393D01*
Y126393D01*
Y126393D01*
X144125Y126461D01*
X144125Y126461D01*
X144125Y126462D01*
X144128Y126481D01*
X144129Y126496D01*
X144127Y126523D01*
X144126Y126530D01*
Y126530D01*
D01*
D01*
X144126Y126587D01*
X144116Y126596D01*
X144116Y126596D01*
X144116Y126596D01*
X144106Y126608D01*
X144092Y126626D01*
X144092Y126626D01*
X144092Y126626D01*
X144087Y126635D01*
X144078Y126640D01*
X144078Y126640D01*
X144078Y126640D01*
X144064Y126651D01*
X144048Y126665D01*
X144048Y126665D01*
X144048Y126665D01*
X144037Y126678D01*
X144024Y126695D01*
X144024Y126695D01*
X144024Y126695D01*
X144017Y126709D01*
X144006Y126729D01*
X144006Y126729D01*
X144006Y126729D01*
X144003Y126740D01*
X143995Y126766D01*
X143995Y126767D01*
Y126767D01*
X143994Y126774D01*
X143991Y126805D01*
Y126805D01*
Y126805D01*
X143992Y126862D01*
X143982Y126871D01*
X143982Y126871D01*
X143982Y126871D01*
X143957Y126901D01*
X143939Y126935D01*
X143931Y126964D01*
X143928Y126972D01*
Y126972D01*
X143928Y126972D01*
X143926Y126994D01*
X143925Y127011D01*
Y127011D01*
D01*
D01*
X143925Y127068D01*
X143915Y127077D01*
X143915Y127077D01*
X143915Y127077D01*
X143910Y127083D01*
X143890Y127107D01*
X143890Y127107D01*
X143890Y127107D01*
X143883Y127121D01*
X143872Y127141D01*
X143872Y127141D01*
X143872Y127141D01*
X143867Y127160D01*
X143861Y127179D01*
Y127179D01*
X143861Y127179D01*
X143860Y127202D01*
X143858Y127217D01*
Y127217D01*
Y127217D01*
X143859Y127274D01*
X143848Y127283D01*
X143824Y127313D01*
X143819Y127322D01*
X143810Y127327D01*
X143810Y127327D01*
X143810Y127327D01*
X143794Y127340D01*
X143780Y127352D01*
X143780Y127352D01*
X143780Y127352D01*
X143766Y127370D01*
X143756Y127382D01*
X143756Y127382D01*
X143756Y127382D01*
X143743Y127406D01*
X143738Y127416D01*
X143738Y127416D01*
X143738Y127417D01*
X143732Y127436D01*
X143727Y127453D01*
X143727Y127454D01*
X143727Y127454D01*
X143725Y127471D01*
X143723Y127492D01*
X143723Y127492D01*
X143723Y127492D01*
X143724Y127549D01*
X143714Y127558D01*
X143714Y127558D01*
X143713Y127558D01*
X143702Y127572D01*
X143689Y127588D01*
X143689Y127588D01*
X143689Y127588D01*
X143682Y127603D01*
X143671Y127622D01*
X143671Y127622D01*
Y127622D01*
X143670Y127627D01*
X143660Y127660D01*
X143657Y127698D01*
Y127698D01*
Y127698D01*
X143657Y127755D01*
X143647Y127764D01*
X143623Y127794D01*
X143618Y127803D01*
X143609Y127808D01*
X143609Y127808D01*
X143609Y127808D01*
X143590Y127824D01*
X143579Y127833D01*
X143579Y127833D01*
X143579Y127833D01*
X143569Y127846D01*
X143555Y127863D01*
X143555Y127863D01*
X143555Y127863D01*
X143550Y127872D01*
X143541Y127877D01*
X143541Y127877D01*
X143541Y127877D01*
X143527Y127889D01*
X143511Y127902D01*
X143511Y127902D01*
X143511Y127902D01*
X143501Y127915D01*
X143487Y127932D01*
X143487Y127932D01*
X143487Y127932D01*
X143481Y127944D01*
X143469Y127967D01*
X143469Y127967D01*
X143469Y127967D01*
X143462Y127989D01*
X143458Y128004D01*
Y128004D01*
X143458Y128004D01*
X143456Y128028D01*
X143454Y128042D01*
Y128042D01*
Y128043D01*
Y128043D01*
X143455Y128099D01*
X143444Y128108D01*
X143444Y128108D01*
X143444Y128108D01*
X143429Y128128D01*
X143420Y128138D01*
X143420Y128138D01*
X143420Y128138D01*
X143404Y128168D01*
X143402Y128173D01*
Y128173D01*
X143402Y128173D01*
X143393Y128203D01*
X143391Y128210D01*
Y128210D01*
X143391Y128210D01*
X143389Y128235D01*
X143388Y128248D01*
Y128249D01*
Y128249D01*
Y128249D01*
X143388Y128305D01*
X143378Y128314D01*
X143378Y128314D01*
X143378Y128314D01*
X143369Y128325D01*
X143353Y128344D01*
X143353Y128344D01*
X143353Y128344D01*
X143349Y128354D01*
X143340Y128358D01*
X143310Y128383D01*
X143286Y128413D01*
X143281Y128423D01*
X143272Y128427D01*
X143252Y128444D01*
X143242Y128452D01*
X143242Y128452D01*
X143242Y128452D01*
X143218Y128482D01*
X143200Y128517D01*
X143189Y128554D01*
X143186Y128586D01*
X143185Y128593D01*
Y128593D01*
D01*
D01*
X143186Y128661D01*
Y128661D01*
Y128661D01*
X143188Y128679D01*
X143190Y128695D01*
X143186Y128730D01*
D01*
Y128730D01*
X143187Y128798D01*
D01*
Y128798D01*
X143191Y128837D01*
X143203Y128874D01*
X143221Y128908D01*
X143246Y128937D01*
X143246D01*
Y128937D01*
X143252Y128942D01*
X143276Y128962D01*
X143311Y128980D01*
X143348Y128991D01*
X143387Y128994D01*
D01*
X143387D01*
X143592Y128992D01*
X143631Y128988D01*
X143668Y128977D01*
X143702Y128958D01*
X143731Y128933D01*
Y128933D01*
X143731D01*
X143756Y128903D01*
X143760Y128894D01*
X143770Y128889D01*
X143799Y128864D01*
X143799Y128864D01*
X143799Y128864D01*
X143811Y128849D01*
X143824Y128834D01*
X143824Y128834D01*
X143824Y128834D01*
X143828Y128825D01*
X143837Y128820D01*
X143837Y128820D01*
X143837Y128820D01*
X143856Y128804D01*
X143867Y128795D01*
X143867Y128795D01*
X143867Y128795D01*
X143876Y128785D01*
X143933Y128784D01*
X143933D01*
X143933D01*
X143942Y128783D01*
X143971Y128780D01*
X144008Y128768D01*
D01*
X144008Y128768D01*
X144041Y128750D01*
X144037Y128758D01*
X144028Y128763D01*
X143998Y128788D01*
X143998Y128788D01*
X143998Y128788D01*
X143989Y128800D01*
X143974Y128818D01*
X143969Y128827D01*
X143960Y128832D01*
X143936Y128853D01*
X143930Y128857D01*
X143930Y128857D01*
X143930Y128857D01*
X143906Y128887D01*
X143901Y128896D01*
X143892Y128901D01*
X143892Y128901D01*
X143892Y128901D01*
X143874Y128916D01*
X143862Y128926D01*
X143862Y128926D01*
X143862Y128926D01*
X143854Y128937D01*
X143797Y128937D01*
X143758Y128942D01*
X143735Y128949D01*
X143721Y128953D01*
X143721Y128953D01*
D01*
X143687Y128972D01*
X143660Y128994D01*
X143658Y128997D01*
Y128997D01*
X143658D01*
X143652Y129004D01*
X143633Y129027D01*
X143629Y129036D01*
X143620Y129041D01*
X143620Y129041D01*
X143620Y129041D01*
X143609Y129049D01*
X143590Y129066D01*
X143590Y129066D01*
X143590Y129066D01*
X143571Y129089D01*
X143565Y129096D01*
Y129096D01*
X143565Y129096D01*
X143561Y129105D01*
X143552Y129110D01*
X143527Y129130D01*
X143522Y129135D01*
X143522Y129135D01*
X143522Y129135D01*
X143510Y129149D01*
X143498Y129165D01*
X143498Y129165D01*
X143498Y129165D01*
X143493Y129174D01*
X143490Y129176D01*
X143484Y129179D01*
X143454Y129204D01*
X143445Y129214D01*
X143388Y129215D01*
X143366Y129217D01*
X143350Y129219D01*
X143350Y129219D01*
X143350D01*
X143325Y129227D01*
X143313Y129231D01*
X143313Y129231D01*
X143313Y129231D01*
X143288Y129244D01*
X143279Y129249D01*
X143279Y129249D01*
X143279Y129249D01*
X143260Y129265D01*
X143249Y129274D01*
X143249Y129274D01*
X143249Y129274D01*
X143239Y129287D01*
X143225Y129304D01*
X143225Y129304D01*
X143225Y129304D01*
X143220Y129313D01*
X143211Y129318D01*
X143211Y129318D01*
X143211Y129318D01*
X143197Y129330D01*
X143181Y129343D01*
X143181Y129343D01*
X143181Y129343D01*
X143173Y129354D01*
X143116Y129354D01*
X143116Y129354D01*
X143116Y129354D01*
X143101Y129356D01*
X143077Y129358D01*
X143077Y129358D01*
X143077D01*
X143075Y129359D01*
X143040Y129370D01*
X143040Y129370D01*
X143040Y129370D01*
X143030Y129376D01*
X143006Y129388D01*
X143006Y129389D01*
X143006Y129389D01*
X142994Y129399D01*
X142976Y129413D01*
X142976Y129413D01*
X142976Y129413D01*
X142972Y129419D01*
X142952Y129444D01*
X142952Y129444D01*
X142952Y129444D01*
X142949Y129450D01*
X142947Y129453D01*
X142938Y129458D01*
X142938Y129458D01*
X142938Y129458D01*
X142922Y129471D01*
X142909Y129482D01*
X142909Y129483D01*
X142908Y129483D01*
X142900Y129493D01*
X142843Y129494D01*
X142826Y129495D01*
X142805Y129498D01*
X142805Y129498D01*
X142805D01*
X142768Y129509D01*
X142733Y129528D01*
X142711Y129547D01*
X142704Y129553D01*
X142704Y129553D01*
X142704Y129553D01*
X142695Y129563D01*
X142638Y129564D01*
X142638Y129564D01*
X142638Y129564D01*
X142619Y129566D01*
X142600Y129568D01*
X142600Y129568D01*
X142600Y129568D01*
X142584Y129573D01*
X142563Y129579D01*
X142563Y129580D01*
X142563Y129580D01*
X142548Y129587D01*
X142529Y129598D01*
X142529Y129598D01*
X142529Y129598D01*
X142512Y129612D01*
X142499Y129623D01*
X142499Y129623D01*
X142499Y129623D01*
X142488Y129636D01*
X142475Y129653D01*
X142474Y129653D01*
X142474Y129653D01*
X142470Y129662D01*
X142461Y129667D01*
X142461Y129667D01*
X142461Y129667D01*
X142443Y129682D01*
X142431Y129692D01*
X142431Y129692D01*
X142431Y129692D01*
X142426Y129699D01*
X142422Y129703D01*
X142366Y129703D01*
X142366D01*
X142366D01*
X142349Y129705D01*
X142327Y129707D01*
X142327Y129707D01*
X142327D01*
X142308Y129713D01*
X142290Y129719D01*
X142290Y129719D01*
X142290Y129719D01*
X142277Y129726D01*
X142256Y129737D01*
X142226Y129762D01*
X142226Y129762D01*
X142226Y129762D01*
X142218Y129773D01*
X142161Y129773D01*
X142148Y129775D01*
X142122Y129778D01*
X142085Y129789D01*
D01*
X142085Y129789D01*
X142051Y129808D01*
X142027Y129828D01*
X142021Y129833D01*
X142021Y129833D01*
X142021Y129833D01*
X142009Y129847D01*
X141997Y129863D01*
X141997Y129863D01*
X141997Y129863D01*
X141992Y129872D01*
X141983Y129877D01*
X141983Y129877D01*
X141983Y129877D01*
X141965Y129892D01*
X141953Y129902D01*
X141953Y129902D01*
X141953Y129902D01*
X141945Y129912D01*
X141888Y129913D01*
X141888D01*
X141888D01*
X141863Y129915D01*
X141849Y129917D01*
X141849Y129917D01*
X141849D01*
X141835Y129921D01*
X141812Y129929D01*
X141778Y129947D01*
X141778Y129947D01*
X141778Y129947D01*
X141773Y129951D01*
X141749Y129972D01*
X141740Y129983D01*
X141683Y129983D01*
X141645Y129987D01*
X141607Y129999D01*
X141574Y130017D01*
X141544Y130042D01*
X141535Y130053D01*
X141478Y130053D01*
X141440Y130058D01*
X141418Y130064D01*
X141403Y130069D01*
X141403Y130069D01*
X141403D01*
X141390Y130076D01*
X141369Y130088D01*
X141369Y130088D01*
X141369Y130088D01*
X141351Y130102D01*
X141339Y130113D01*
X141339Y130113D01*
X141339Y130113D01*
X141330Y130123D01*
X141273Y130124D01*
X141235Y130128D01*
X141212Y130135D01*
X141198Y130139D01*
X141198Y130139D01*
D01*
X141164Y130158D01*
X141137Y130181D01*
X141134Y130183D01*
Y130183D01*
X141134D01*
X141128Y130190D01*
X141126Y130193D01*
X141069Y130194D01*
X141069D01*
X141069D01*
X141060Y130195D01*
X141030Y130198D01*
X140993Y130210D01*
X140993Y130210D01*
D01*
X140959Y130228D01*
X140935Y130248D01*
X140929Y130253D01*
Y130253D01*
X140929D01*
X140923Y130260D01*
X140921Y130264D01*
X140864Y130264D01*
X140825Y130268D01*
X140788Y130280D01*
X140770Y130290D01*
X140754Y130298D01*
X140724Y130323D01*
Y130323D01*
X140724D01*
X140716Y130334D01*
X140659Y130334D01*
X140659D01*
X140659D01*
X140642Y130336D01*
X140625Y130338D01*
X140590Y130335D01*
X140590D01*
D01*
D01*
X140522Y130336D01*
X140485Y130340D01*
X140483Y130340D01*
D01*
X140483Y130340D01*
X140454Y130349D01*
X140446Y130351D01*
X140446Y130351D01*
X140446Y130351D01*
X140428Y130361D01*
X140412Y130370D01*
X140412Y130370D01*
X140412Y130370D01*
X140399Y130381D01*
X140383Y130395D01*
X140383Y130395D01*
X140383Y130395D01*
X140374Y130405D01*
X140317Y130406D01*
X140317D01*
X140317D01*
X140278Y130410D01*
X140252Y130418D01*
X140242Y130422D01*
X140242Y130422D01*
D01*
X140238Y130423D01*
X140208Y130440D01*
X140178Y130465D01*
X140178Y130465D01*
X140178Y130465D01*
X140173Y130472D01*
X140169Y130476D01*
X139975Y130477D01*
X139941Y130481D01*
X139924Y130480D01*
X139907Y130478D01*
X139907D01*
D01*
D01*
X139838Y130479D01*
X139800Y130483D01*
X139763Y130494D01*
X139729Y130513D01*
X139699Y130538D01*
X139690Y130548D01*
X139633Y130549D01*
X139633D01*
X139633D01*
X139621Y130550D01*
X139599Y130553D01*
X139586Y130551D01*
X139565Y130550D01*
X139565D01*
X139565D01*
X139497Y130550D01*
X139485Y130551D01*
X139462Y130554D01*
X139449Y130553D01*
X139428Y130551D01*
X139428D01*
X139428D01*
D01*
X139360Y130551D01*
X139360Y130551D01*
X139359Y130551D01*
X139341Y130553D01*
X139325Y130555D01*
X139291Y130552D01*
X139291D01*
X139291D01*
X139223Y130552D01*
X139210Y130554D01*
X139188Y130556D01*
X139165Y130554D01*
X139154Y130553D01*
X139154D01*
X139154D01*
X139086Y130554D01*
X139086D01*
X139086D01*
X139073Y130555D01*
X139051Y130557D01*
X139017Y130554D01*
D01*
X139017D01*
X138960Y130555D01*
X138952Y130544D01*
X138952Y130544D01*
X138952Y130544D01*
X138945Y130539D01*
X138921Y130520D01*
X138887Y130502D01*
X138887Y130502D01*
X138887D01*
X138850Y130491D01*
X138822Y130489D01*
X138811Y130488D01*
X138811D01*
X138811D01*
X138743Y130488D01*
X138743D01*
X138743D01*
X138724Y130490D01*
X138708Y130492D01*
X138674Y130489D01*
X138674D01*
X138674D01*
X138617Y130489D01*
X138611Y130482D01*
X138609Y130479D01*
X138578Y130454D01*
X138569Y130450D01*
X138564Y130441D01*
X138548Y130421D01*
X138540Y130411D01*
X138540Y130411D01*
X138540Y130411D01*
X138509Y130387D01*
X138500Y130382D01*
X138495Y130373D01*
X138495Y130373D01*
X138495Y130373D01*
X138484Y130359D01*
X138470Y130343D01*
X138470Y130343D01*
X138470Y130343D01*
X138457Y130332D01*
X138440Y130319D01*
X138440Y130319D01*
X138440Y130319D01*
X138431Y130314D01*
X138426Y130305D01*
X138426Y130305D01*
X138426Y130305D01*
X138410Y130286D01*
X138401Y130275D01*
X138401Y130275D01*
X138401Y130275D01*
X138388Y130265D01*
X138371Y130251D01*
X138371Y130251D01*
X138371Y130251D01*
X138358Y130244D01*
X138337Y130233D01*
X138337Y130233D01*
X138337Y130233D01*
X138317Y130227D01*
X138300Y130222D01*
X138300D01*
X138300Y130222D01*
X138278Y130220D01*
X138261Y130218D01*
X138261D01*
D01*
D01*
X138192Y130219D01*
X138192D01*
X138192D01*
X138174Y130221D01*
X138154Y130223D01*
X138154Y130223D01*
X138154D01*
X138141Y130227D01*
X138117Y130235D01*
X138117Y130235D01*
X138117D01*
X138109Y130239D01*
X138083Y130253D01*
X138083Y130253D01*
X138083Y130253D01*
X138074Y130261D01*
X138053Y130278D01*
X138053Y130278D01*
X138053Y130278D01*
X138048Y130284D01*
X138029Y130308D01*
X138029Y130308D01*
X138029Y130308D01*
X138021Y130322D01*
X138011Y130343D01*
X138011Y130343D01*
X138011Y130343D01*
X138008Y130353D01*
X138000Y130380D01*
X138000Y130380D01*
Y130380D01*
X137999Y130387D01*
X137996Y130419D01*
Y130419D01*
Y130419D01*
X137997Y130487D01*
Y130487D01*
X137997Y130555D01*
X137998Y130555D01*
X137997Y130556D01*
X137998Y130624D01*
Y130624D01*
X137999Y130692D01*
X137999Y130693D01*
X137999Y130693D01*
X137999Y130761D01*
X138003Y130795D01*
X138000Y130830D01*
X138001Y130898D01*
X138002Y130909D01*
X138004Y130932D01*
X138003Y130948D01*
X138001Y130966D01*
Y130966D01*
D01*
D01*
X138002Y131035D01*
X138004Y131060D01*
X138006Y131073D01*
X138006Y131073D01*
Y131073D01*
X138016Y131106D01*
X138017Y131110D01*
Y131110D01*
X138017Y131110D01*
X138033Y131139D01*
X138036Y131144D01*
X138036Y131144D01*
X138036Y131144D01*
X138052Y131164D01*
X138061Y131174D01*
X138061Y131174D01*
X138061Y131174D01*
X138072Y131183D01*
X138072Y131240D01*
Y131240D01*
Y131240D01*
X138074Y131257D01*
X138076Y131278D01*
X138076Y131278D01*
Y131278D01*
X138079Y131288D01*
X138088Y131315D01*
X138088Y131315D01*
Y131315D01*
X138092Y131323D01*
X138106Y131349D01*
X138106Y131349D01*
X138106Y131349D01*
X138118Y131363D01*
X138131Y131379D01*
X138131Y131379D01*
X138131Y131379D01*
X138142Y131388D01*
X138142Y131445D01*
X138144Y131456D01*
X138146Y131479D01*
X138145Y131492D01*
X138143Y131513D01*
X138143Y131513D01*
X138143Y131513D01*
X138144Y131582D01*
X138148Y131620D01*
X138157Y131650D01*
X138159Y131657D01*
X138159Y131657D01*
X138159Y131657D01*
X138173Y131682D01*
X138178Y131691D01*
X138178Y131691D01*
X138178Y131691D01*
X138203Y131721D01*
X138215Y131730D01*
X138217Y131756D01*
X138229Y131793D01*
D01*
X138229Y131793D01*
X138241Y131815D01*
X138247Y131827D01*
X138248Y131827D01*
X138248Y131827D01*
X138262Y131845D01*
X138272Y131857D01*
X138272Y131857D01*
X138272Y131857D01*
X138284Y131867D01*
X138285Y131873D01*
X138287Y131893D01*
X138287Y131893D01*
Y131893D01*
X138294Y131916D01*
X138298Y131930D01*
X138299Y131930D01*
X138299Y131930D01*
X138317Y131964D01*
X138335Y131985D01*
X138342Y131994D01*
X138342Y131994D01*
X138342Y131994D01*
X138353Y132002D01*
X138353Y132059D01*
X138357Y132098D01*
X138369Y132135D01*
X138387Y132169D01*
X138412Y132198D01*
X138442Y132223D01*
X138452Y132228D01*
X138456Y132237D01*
X138456Y132237D01*
X138456Y132237D01*
X138468Y132250D01*
X138481Y132266D01*
X138481Y132266D01*
X138481Y132266D01*
X138493Y132276D01*
X138496Y132300D01*
X138496Y132302D01*
D01*
X138496Y132302D01*
X138506Y132335D01*
X138508Y132339D01*
Y132339D01*
X138508Y132339D01*
X138519Y132360D01*
X138526Y132373D01*
X138526Y132373D01*
X138526Y132373D01*
X138538Y132387D01*
X138551Y132403D01*
X138551Y132403D01*
X138551Y132403D01*
X138570Y132418D01*
X138581Y132427D01*
X138581Y132427D01*
X138581Y132427D01*
X138616Y132445D01*
X138639Y132452D01*
X138646Y132475D01*
X138664Y132509D01*
X138689Y132538D01*
X138715Y132559D01*
X138719Y132563D01*
X138719D01*
X138719Y132563D01*
X138754Y132581D01*
X138777Y132588D01*
X138784Y132610D01*
X138803Y132644D01*
X138827Y132674D01*
X138827D01*
Y132674D01*
X138835Y132680D01*
X138857Y132699D01*
X138892Y132717D01*
D01*
X138892Y132717D01*
X138929Y132728D01*
X138955Y132730D01*
X138956Y132731D01*
X138965Y132741D01*
X138965Y132741D01*
X138965Y132742D01*
X138978Y132752D01*
X138995Y132766D01*
X138995Y132766D01*
X138995Y132766D01*
X139004Y132771D01*
X139009Y132780D01*
X139009Y132780D01*
X139009Y132780D01*
X139014Y132785D01*
X139034Y132809D01*
X139064Y132834D01*
X139064D01*
X139064Y132834D01*
X139084Y132844D01*
X139098Y132852D01*
X139099Y132852D01*
X139099Y132852D01*
X139118Y132857D01*
X139136Y132863D01*
X139136D01*
X139136Y132863D01*
X139159Y132865D01*
X139174Y132866D01*
X139174D01*
X139174D01*
X139368Y132864D01*
X139377Y132875D01*
X139407Y132899D01*
X139407Y132899D01*
X139407Y132899D01*
X139416Y132904D01*
X139442Y132917D01*
X139442Y132917D01*
X139442Y132917D01*
X139450Y132920D01*
X139479Y132928D01*
X139479D01*
X139479Y132928D01*
X139497Y132930D01*
X139517Y132932D01*
X139517D01*
X139517D01*
X139586Y132931D01*
D02*
G37*
G36*
X131176Y126635D02*
X131244Y126635D01*
X131244Y126635D01*
X131244Y126635D01*
X131268Y126632D01*
X131283Y126631D01*
X131283Y126631D01*
X131283Y126631D01*
X131307Y126623D01*
X131320Y126619D01*
X131320Y126619D01*
X131320Y126619D01*
X131334Y126611D01*
X131354Y126601D01*
X131354Y126600D01*
X131354Y126600D01*
X131362Y126593D01*
X131384Y126576D01*
X131384Y126576D01*
X131384Y126576D01*
X131394Y126563D01*
X131408Y126545D01*
X131408Y126545D01*
X131408Y126545D01*
X131413Y126536D01*
X131422Y126531D01*
X131422Y126531D01*
X131422Y126531D01*
X131435Y126520D01*
X131451Y126506D01*
X131451Y126506D01*
X131451Y126506D01*
X131462Y126494D01*
X131476Y126476D01*
X131476Y126476D01*
X131476Y126476D01*
X131480Y126469D01*
X131481Y126467D01*
X131490Y126462D01*
X131490Y126462D01*
X131490Y126462D01*
X131503Y126451D01*
X131519Y126437D01*
X131519Y126437D01*
X131519Y126437D01*
X131529Y126425D01*
X131544Y126407D01*
X131544Y126407D01*
X131544Y126407D01*
X131550Y126395D01*
X131562Y126373D01*
X131562Y126373D01*
X131562Y126373D01*
X131568Y126351D01*
X131573Y126336D01*
Y126336D01*
X131573Y126336D01*
X131575Y126311D01*
X131575Y126310D01*
X131576Y126309D01*
X131587Y126300D01*
X131587Y126300D01*
X131587Y126300D01*
X131610Y126271D01*
X131611Y126270D01*
D01*
X131611Y126270D01*
X131627Y126239D01*
X131629Y126235D01*
Y126235D01*
X131629Y126235D01*
X131636Y126212D01*
X131640Y126198D01*
Y126198D01*
X131640Y126198D01*
X131641Y126182D01*
X131642Y126172D01*
X131654Y126162D01*
X131678Y126132D01*
X131683Y126123D01*
X131692Y126118D01*
X131692Y126118D01*
X131692Y126118D01*
X131706Y126107D01*
X131722Y126093D01*
X131722Y126093D01*
X131722Y126093D01*
X131737Y126074D01*
X131746Y126063D01*
X131746Y126063D01*
X131746Y126063D01*
X131751Y126054D01*
X131760Y126049D01*
X131790Y126024D01*
X131814Y125994D01*
X131819Y125985D01*
X131828Y125980D01*
X131858Y125955D01*
X131858Y125955D01*
X131858Y125955D01*
X131882Y125925D01*
X131887Y125916D01*
X131896Y125911D01*
X131915Y125894D01*
X131925Y125886D01*
X131925Y125886D01*
X131925Y125886D01*
X131950Y125856D01*
X131955Y125847D01*
X131964Y125842D01*
X131964Y125842D01*
X131964Y125842D01*
X131969Y125838D01*
X131993Y125817D01*
X132018Y125787D01*
X132022Y125778D01*
X132031Y125773D01*
X132061Y125748D01*
X132086Y125718D01*
X132090Y125708D01*
X132099Y125704D01*
X132129Y125679D01*
X132129Y125679D01*
X132129Y125679D01*
X132138Y125668D01*
X132194Y125668D01*
X132233Y125663D01*
X132256Y125656D01*
X132270Y125652D01*
X132270Y125652D01*
D01*
X132304Y125633D01*
X132331Y125611D01*
X132334Y125609D01*
Y125609D01*
X132334D01*
X132340Y125601D01*
X132358Y125578D01*
X132376Y125544D01*
X132383Y125521D01*
X132394Y125518D01*
X132406Y125514D01*
X132406Y125514D01*
X132406Y125514D01*
X132418Y125507D01*
X132440Y125495D01*
X132440Y125495D01*
X132440D01*
X132446Y125490D01*
X132470Y125470D01*
X132470Y125470D01*
X132470Y125470D01*
X132480Y125457D01*
X132494Y125440D01*
X132494Y125440D01*
X132494Y125440D01*
X132499Y125431D01*
X132508Y125426D01*
X132538Y125401D01*
X132547Y125389D01*
X132573Y125387D01*
X132610Y125375D01*
D01*
X132610Y125375D01*
X132644Y125356D01*
X132668Y125336D01*
X132674Y125332D01*
X132674Y125331D01*
X132674Y125331D01*
X132683Y125320D01*
X132691Y125319D01*
X132709Y125317D01*
X132710Y125317D01*
X132710D01*
X132720Y125314D01*
X132746Y125305D01*
X132781Y125287D01*
X132781Y125287D01*
X132781Y125287D01*
X132792Y125277D01*
X132810Y125262D01*
X132810Y125262D01*
X132810Y125262D01*
X132823Y125246D01*
X132835Y125232D01*
X132835Y125232D01*
X132835Y125232D01*
X132839Y125223D01*
X132841Y125222D01*
X132848Y125218D01*
X132848Y125218D01*
X132849Y125218D01*
X132868Y125202D01*
X132878Y125193D01*
X132878Y125193D01*
X132878Y125193D01*
X132888Y125181D01*
X132914Y125178D01*
X132951Y125167D01*
D01*
X132951Y125167D01*
X132985Y125148D01*
X133009Y125128D01*
X133015Y125123D01*
X133015Y125123D01*
X133015Y125123D01*
X133024Y125111D01*
X133050Y125109D01*
X133087Y125097D01*
D01*
X133087Y125097D01*
X133109Y125085D01*
X133121Y125078D01*
X133121Y125078D01*
X133121Y125078D01*
X133139Y125063D01*
X133151Y125054D01*
X133151Y125054D01*
X133151Y125054D01*
X133163Y125039D01*
X133175Y125023D01*
X133175Y125023D01*
X133175Y125023D01*
X133180Y125014D01*
X133189Y125009D01*
X133219Y124984D01*
X133227Y124974D01*
X133284Y124973D01*
X133284Y124973D01*
X133284Y124973D01*
X133299Y124972D01*
X133323Y124969D01*
X133323Y124969D01*
X133323D01*
X133325Y124968D01*
X133360Y124958D01*
X133360Y124958D01*
X133360Y124958D01*
X133370Y124952D01*
X133394Y124939D01*
X133394Y124939D01*
X133394Y124939D01*
X133406Y124929D01*
X133424Y124914D01*
X133424Y124914D01*
X133424Y124914D01*
X133429Y124908D01*
X133448Y124884D01*
X133448Y124884D01*
X133448Y124884D01*
X133451Y124877D01*
X133453Y124875D01*
X133462Y124870D01*
X133462Y124870D01*
X133462Y124870D01*
X133473Y124861D01*
X133491Y124845D01*
X133492Y124845D01*
X133492Y124845D01*
X133500Y124834D01*
X133557Y124834D01*
X133557D01*
X133557D01*
X133569Y124833D01*
X133596Y124830D01*
X133633Y124818D01*
D01*
X133633Y124818D01*
X133654Y124806D01*
X133667Y124800D01*
X133667Y124800D01*
X133667Y124800D01*
X133685Y124785D01*
X133696Y124775D01*
X133696Y124775D01*
X133696Y124775D01*
X133705Y124764D01*
X133762Y124764D01*
X133762D01*
X133762D01*
X133770Y124763D01*
X133800Y124759D01*
X133837Y124748D01*
X133837Y124748D01*
D01*
X133871Y124729D01*
X133895Y124709D01*
X133901Y124705D01*
Y124705D01*
X133901D01*
X133907Y124697D01*
X133910Y124694D01*
X133967Y124693D01*
X134005Y124689D01*
X134042Y124678D01*
X134076Y124659D01*
X134101Y124638D01*
X134106Y124634D01*
Y124634D01*
X134106D01*
X134115Y124624D01*
X134171Y124623D01*
X134210Y124619D01*
X134247Y124607D01*
X134281Y124589D01*
X134311Y124564D01*
X134319Y124553D01*
X134376Y124553D01*
X134396Y124551D01*
X134415Y124549D01*
X134415Y124549D01*
X134415Y124549D01*
X134447Y124539D01*
X134452Y124537D01*
X134452D01*
X134452Y124537D01*
X134477Y124523D01*
X134486Y124519D01*
X134486Y124519D01*
X134486Y124519D01*
X134503Y124504D01*
X134516Y124494D01*
X134516Y124494D01*
X134516Y124494D01*
X134527Y124479D01*
X134540Y124463D01*
X134540Y124463D01*
X134540Y124463D01*
X134545Y124454D01*
X134554Y124450D01*
X134574Y124433D01*
X134583Y124425D01*
X134583Y124425D01*
X134583Y124425D01*
X134592Y124414D01*
X134786Y124412D01*
X134786D01*
X134786D01*
X134801Y124411D01*
X134825Y124408D01*
X134825Y124408D01*
X134825D01*
X134833Y124406D01*
X134862Y124397D01*
X134896Y124378D01*
X134896Y124378D01*
X134896Y124378D01*
X134911Y124365D01*
X134925Y124353D01*
X134925Y124353D01*
X134925D01*
X134928Y124350D01*
X134934Y124343D01*
X134991Y124342D01*
X135014Y124339D01*
X135029Y124338D01*
X135029Y124338D01*
X135029Y124338D01*
X135053Y124331D01*
X135066Y124326D01*
X135066Y124326D01*
X135066Y124326D01*
X135086Y124316D01*
X135100Y124308D01*
X135100Y124308D01*
X135100Y124308D01*
X135116Y124294D01*
X135130Y124283D01*
X135130Y124283D01*
X135130Y124283D01*
X135139Y124272D01*
X135196Y124272D01*
D01*
X135196D01*
X135234Y124268D01*
X135271Y124256D01*
X135305Y124237D01*
X135335Y124213D01*
Y124213D01*
X135335D01*
X135340Y124207D01*
X135344Y124202D01*
X135400Y124201D01*
X135400D01*
X135401D01*
X135421Y124199D01*
X135439Y124197D01*
X135439Y124197D01*
X135439D01*
X135455Y124192D01*
X135476Y124186D01*
X135476Y124186D01*
X135476D01*
X135482Y124182D01*
X135510Y124167D01*
X135510Y124167D01*
X135510Y124167D01*
X135522Y124157D01*
X135540Y124142D01*
X135540Y124142D01*
X135540Y124142D01*
X135548Y124133D01*
X135548Y124132D01*
X135742Y124130D01*
X135752Y124129D01*
X135781Y124126D01*
X135818Y124114D01*
D01*
X135818Y124114D01*
X135852Y124096D01*
X135876Y124075D01*
X135882Y124071D01*
X135882Y124071D01*
X135882Y124071D01*
X135890Y124060D01*
X135947Y124060D01*
X135980Y124056D01*
X135986Y124056D01*
X135986D01*
X135986Y124056D01*
X136010Y124048D01*
X136023Y124044D01*
X136023Y124044D01*
X136023Y124044D01*
X136041Y124034D01*
X136057Y124025D01*
X136057Y124025D01*
X136057Y124025D01*
X136073Y124012D01*
X136086Y124001D01*
X136086Y124001D01*
X136086Y124001D01*
X136095Y123990D01*
X136289Y123988D01*
X136314Y123986D01*
X136328Y123984D01*
X136328Y123984D01*
X136328D01*
X136352Y123976D01*
X136364Y123972D01*
X136364Y123972D01*
X136364Y123972D01*
X136389Y123959D01*
X136398Y123954D01*
X136398Y123954D01*
X136399Y123954D01*
X136411Y123944D01*
X136428Y123929D01*
X136437Y123918D01*
X136494Y123918D01*
X136528Y123914D01*
X136545Y123916D01*
X136562Y123917D01*
X136562D01*
D01*
D01*
X136631Y123917D01*
X136631D01*
X136631D01*
X136643Y123916D01*
X136669Y123913D01*
X136706Y123901D01*
D01*
X136706Y123901D01*
X136728Y123889D01*
X136740Y123882D01*
X136740Y123882D01*
X136740Y123882D01*
X136758Y123867D01*
X136770Y123858D01*
X136770Y123858D01*
X136770Y123858D01*
X136779Y123847D01*
X136973Y123845D01*
X136973D01*
X136973D01*
X136989Y123844D01*
X137007Y123842D01*
X137024Y123843D01*
X137041Y123845D01*
X137041D01*
D01*
D01*
X137109Y123844D01*
X137109Y123844D01*
X137110Y123844D01*
X137126Y123842D01*
X137148Y123840D01*
X137148Y123840D01*
X137148D01*
X137156Y123837D01*
X137185Y123828D01*
X137185Y123828D01*
X137185Y123828D01*
X137201Y123819D01*
X137219Y123810D01*
X137219Y123810D01*
X137219Y123810D01*
X137235Y123797D01*
X137249Y123785D01*
X137249Y123785D01*
X137249Y123785D01*
X137258Y123774D01*
X137314Y123774D01*
X137349Y123770D01*
X137369Y123772D01*
X137383Y123773D01*
X137383D01*
X137383D01*
X137383D01*
X137451Y123773D01*
X137451Y123773D01*
X137451Y123773D01*
X137467Y123771D01*
X137490Y123768D01*
X137490Y123768D01*
X137490D01*
X137498Y123766D01*
X137527Y123757D01*
X137527Y123757D01*
X137527Y123757D01*
X137543Y123748D01*
X137561Y123738D01*
X137561Y123738D01*
X137561Y123738D01*
X137577Y123725D01*
X137591Y123714D01*
X137591Y123714D01*
X137591Y123714D01*
X137599Y123703D01*
X137656Y123702D01*
X137656D01*
X137656D01*
X137673Y123701D01*
X137690Y123699D01*
X137710Y123700D01*
X137724Y123702D01*
X137724D01*
X137725D01*
X137793Y123701D01*
X137827Y123697D01*
X137843Y123699D01*
X137862Y123701D01*
X137862D01*
D01*
D01*
X137930Y123700D01*
X137930D01*
X137930D01*
X137948Y123698D01*
X137969Y123696D01*
X137969Y123696D01*
X137969D01*
X137978Y123693D01*
X138006Y123684D01*
X138006Y123684D01*
X138006D01*
X138014Y123680D01*
X138040Y123666D01*
X138040Y123666D01*
X138040Y123666D01*
X138053Y123654D01*
X138069Y123641D01*
X138069Y123641D01*
X138069Y123641D01*
X138078Y123630D01*
X138135Y123630D01*
X138153Y123628D01*
X138173Y123626D01*
X138173Y123626D01*
X138173D01*
X138192Y123620D01*
X138210Y123614D01*
X138210Y123614D01*
X138210Y123614D01*
X138241Y123598D01*
X138244Y123595D01*
X138244Y123595D01*
X138245Y123595D01*
X138264Y123579D01*
X138274Y123571D01*
X138274Y123571D01*
X138274Y123571D01*
X138283Y123560D01*
X138751Y123556D01*
X138785Y123552D01*
X138805Y123554D01*
X138819Y123555D01*
X138819D01*
X138819D01*
X138819D01*
X138888Y123555D01*
X138888D01*
X138888D01*
X138900Y123553D01*
X138926Y123551D01*
X138963Y123539D01*
X138963D01*
X138963Y123539D01*
X138991Y123524D01*
X138997Y123520D01*
X138997Y123520D01*
X138997Y123520D01*
X139016Y123504D01*
X139027Y123496D01*
X139027Y123496D01*
X139027Y123495D01*
X139035Y123485D01*
X139092Y123484D01*
X139127Y123481D01*
X139130Y123481D01*
X139161Y123484D01*
X139161D01*
X139161D01*
X139230Y123483D01*
X139252Y123481D01*
X139263Y123479D01*
X139277Y123481D01*
X139298Y123483D01*
X139298Y123483D01*
X139298Y123483D01*
X139366Y123482D01*
X139405Y123478D01*
X139414Y123475D01*
X139442Y123466D01*
X139476Y123448D01*
X139506Y123423D01*
X139514Y123412D01*
X139708Y123410D01*
X139742Y123407D01*
X139777Y123410D01*
X139845Y123409D01*
X139884Y123405D01*
X139910Y123397D01*
X139921Y123394D01*
X139921Y123394D01*
D01*
X139924Y123392D01*
X139955Y123375D01*
X139985Y123350D01*
X139985Y123350D01*
X139985Y123350D01*
X139993Y123340D01*
X140050Y123339D01*
X140084Y123335D01*
X140097Y123337D01*
X140119Y123338D01*
X140187Y123338D01*
X140212Y123335D01*
X140221Y123334D01*
X140238Y123336D01*
X140255Y123337D01*
X140255D01*
D01*
D01*
X140324Y123337D01*
X140324D01*
X140324D01*
X140336Y123335D01*
X140362Y123333D01*
X140399Y123321D01*
X140399D01*
X140399Y123321D01*
X140427Y123306D01*
X140433Y123302D01*
X140433Y123302D01*
X140434Y123302D01*
X140453Y123286D01*
X140463Y123278D01*
X140463Y123277D01*
X140463Y123277D01*
X140472Y123267D01*
X140803Y123264D01*
X140837Y123260D01*
X140871Y123263D01*
X140871D01*
D01*
D01*
X140940Y123263D01*
X140940D01*
X140940D01*
X140952Y123261D01*
X140978Y123259D01*
X141015Y123247D01*
D01*
X141015Y123247D01*
X141037Y123235D01*
X141049Y123229D01*
X141049Y123229D01*
X141049Y123229D01*
X141067Y123214D01*
X141079Y123204D01*
X141079Y123204D01*
X141079Y123204D01*
X141087Y123193D01*
X141144Y123193D01*
X141179Y123189D01*
X141213Y123192D01*
X141281Y123191D01*
X141305Y123189D01*
X141316Y123188D01*
X141342Y123190D01*
X141350Y123191D01*
X141350D01*
D01*
D01*
X141418Y123190D01*
X141436Y123188D01*
X141452Y123187D01*
X141466Y123188D01*
X141487Y123190D01*
X141487Y123190D01*
X141487Y123190D01*
X141555Y123189D01*
X141580Y123186D01*
X141594Y123185D01*
X141594Y123185D01*
X141594D01*
X141619Y123177D01*
X141631Y123173D01*
X141631Y123173D01*
X141631Y123173D01*
X141647Y123164D01*
X141658Y123159D01*
X141685Y123173D01*
X141722Y123184D01*
X141761Y123187D01*
D01*
X141761D01*
X141829Y123187D01*
X141852Y123184D01*
X141868Y123182D01*
X141868Y123182D01*
X141868D01*
X141892Y123175D01*
X141905Y123171D01*
X141905Y123171D01*
X141905Y123171D01*
X141921Y123162D01*
X141939Y123152D01*
X141939Y123152D01*
X141939Y123152D01*
X141949Y123144D01*
X141969Y123127D01*
X141969Y123127D01*
X141969Y123127D01*
X141977Y123117D01*
X142159Y123115D01*
X142168Y123126D01*
X142168Y123126D01*
X142168Y123126D01*
X142186Y123140D01*
X142198Y123150D01*
X142198Y123150D01*
X142199Y123150D01*
X142222Y123163D01*
X142233Y123168D01*
X142233Y123168D01*
X142233Y123168D01*
X142253Y123174D01*
X142270Y123179D01*
X142270Y123179D01*
X142270Y123179D01*
X142288Y123180D01*
X142308Y123182D01*
X142309Y123182D01*
X142309Y123182D01*
X142377Y123182D01*
X142400Y123179D01*
X142411Y123178D01*
X142429Y123180D01*
X142446Y123181D01*
X142446Y123181D01*
X142446Y123181D01*
X142514Y123181D01*
X142543Y123178D01*
X142548Y123177D01*
X142567Y123179D01*
X142582Y123180D01*
X142582D01*
X142582D01*
X142639Y123179D01*
X142648Y123190D01*
X142671Y123209D01*
X142678Y123214D01*
X142678Y123214D01*
X142678Y123214D01*
X142713Y123232D01*
X142745Y123242D01*
X142750Y123243D01*
X142750D01*
X142750Y123243D01*
X142775Y123245D01*
X142789Y123247D01*
X142789D01*
D01*
D01*
X142982Y123245D01*
X142991Y123256D01*
X143021Y123280D01*
X143030Y123284D01*
X143033Y123289D01*
X143035Y123294D01*
X143035Y123294D01*
X143035Y123294D01*
X143050Y123311D01*
X143060Y123323D01*
X143060Y123323D01*
X143060Y123323D01*
X143090Y123347D01*
X143090Y123348D01*
D01*
X143090Y123348D01*
X143122Y123364D01*
X143125Y123366D01*
X143125D01*
X143125Y123366D01*
X143145Y123372D01*
X143162Y123377D01*
X143162D01*
X143162Y123377D01*
X143176Y123378D01*
X143201Y123380D01*
X143201D01*
X143201D01*
X143257Y123380D01*
X143266Y123390D01*
X143297Y123414D01*
X143297Y123414D01*
X143297Y123415D01*
X143306Y123419D01*
X143310Y123428D01*
X143329Y123450D01*
X143335Y123458D01*
X143335Y123458D01*
X143335Y123458D01*
X143355Y123474D01*
X143366Y123482D01*
X143366Y123482D01*
X143366Y123482D01*
X143396Y123498D01*
X143400Y123500D01*
X143400D01*
X143400Y123500D01*
X143423Y123507D01*
X143430Y123530D01*
X143444Y123556D01*
X143449Y123564D01*
X143449Y123564D01*
X143449Y123564D01*
X143461Y123579D01*
X143473Y123594D01*
X143473Y123594D01*
X143473Y123594D01*
X143504Y123618D01*
X143536Y123635D01*
X143538Y123636D01*
D01*
X143538Y123636D01*
X143561Y123643D01*
X143561Y123643D01*
X143568Y123666D01*
X143587Y123700D01*
X143587Y123700D01*
Y123700D01*
X143589Y123703D01*
X143612Y123730D01*
X143642Y123754D01*
X143642Y123754D01*
X143642Y123754D01*
X143651Y123759D01*
X143656Y123767D01*
X143656Y123767D01*
X143656Y123768D01*
X143667Y123781D01*
X143681Y123797D01*
X143681Y123797D01*
X143681Y123797D01*
X143694Y123808D01*
X143711Y123822D01*
X143711Y123822D01*
X143711Y123822D01*
X143720Y123826D01*
X143725Y123835D01*
X143725Y123835D01*
X143725Y123836D01*
X143738Y123851D01*
X143750Y123865D01*
X143750Y123865D01*
X143750Y123865D01*
X143760Y123874D01*
X143761Y123931D01*
Y123931D01*
Y123931D01*
X143762Y123940D01*
X143765Y123969D01*
X143777Y124006D01*
X143777Y124006D01*
D01*
X143778Y124009D01*
X143795Y124040D01*
X143820Y124070D01*
X143820Y124070D01*
X143820Y124070D01*
X143826Y124075D01*
X143850Y124094D01*
X143859Y124099D01*
X143864Y124108D01*
X143889Y124138D01*
X143919Y124162D01*
X143954Y124180D01*
X143991Y124191D01*
X144030Y124195D01*
D01*
X144030D01*
X144098Y124194D01*
X144135Y124190D01*
X144137Y124190D01*
D01*
X144137Y124190D01*
X144166Y124181D01*
X144174Y124178D01*
X144174Y124178D01*
X144174Y124178D01*
X144192Y124168D01*
X144208Y124160D01*
X144208Y124160D01*
X144208Y124160D01*
X144221Y124148D01*
X144237Y124135D01*
X144237Y124135D01*
X144237Y124135D01*
X144247Y124122D01*
X144262Y124105D01*
X144262Y124105D01*
X144262Y124105D01*
X144273Y124083D01*
X144280Y124070D01*
Y124070D01*
X144280Y124070D01*
X144289Y124040D01*
X144291Y124033D01*
Y124033D01*
X144291Y124033D01*
X144293Y124008D01*
X144294Y123995D01*
Y123995D01*
Y123995D01*
Y123995D01*
X144293Y123926D01*
X144290Y123892D01*
X144291Y123878D01*
X144293Y123858D01*
X144293Y123857D01*
X144293Y123857D01*
X144292Y123789D01*
X144290Y123765D01*
X144289Y123755D01*
X144289Y123752D01*
X144292Y123721D01*
Y123721D01*
Y123721D01*
X144291Y123652D01*
Y123652D01*
Y123652D01*
X144288Y123627D01*
X144287Y123618D01*
X144290Y123584D01*
D01*
Y123584D01*
X144290Y123515D01*
Y123515D01*
Y123515D01*
X144289Y123503D01*
X144286Y123477D01*
X144274Y123440D01*
Y123440D01*
X144274Y123440D01*
X144259Y123412D01*
X144256Y123406D01*
X144256Y123406D01*
X144256Y123406D01*
X144240Y123387D01*
X144231Y123376D01*
X144231Y123376D01*
X144231Y123376D01*
X144220Y123367D01*
X144220Y123310D01*
Y123310D01*
X144219Y123242D01*
D01*
X144218Y123173D01*
Y123173D01*
Y123173D01*
X144218Y123105D01*
D01*
X144217Y123036D01*
Y123036D01*
Y123036D01*
X144217Y122968D01*
Y122968D01*
X144216Y122899D01*
Y122899D01*
Y122899D01*
X144214Y122876D01*
X144212Y122861D01*
X144212Y122861D01*
Y122861D01*
X144204Y122836D01*
X144200Y122824D01*
X144200Y122824D01*
X144200Y122824D01*
X144195Y122814D01*
X144182Y122790D01*
X144157Y122760D01*
X144157Y122760D01*
X144157Y122760D01*
X144146Y122751D01*
X144146Y122695D01*
X144146Y122695D01*
X144146Y122695D01*
X144145Y122626D01*
Y122626D01*
X144145Y122558D01*
Y122558D01*
Y122558D01*
X144144Y122489D01*
D01*
X144143Y122421D01*
Y122421D01*
Y122421D01*
X144141Y122396D01*
X144140Y122386D01*
X144141Y122373D01*
X144143Y122352D01*
Y122352D01*
Y122352D01*
X144142Y122284D01*
X144140Y122261D01*
X144139Y122250D01*
X144140Y122236D01*
X144142Y122215D01*
Y122215D01*
Y122215D01*
X144141Y122147D01*
X144137Y122108D01*
X144125Y122071D01*
X144107Y122037D01*
X144082Y122007D01*
X144071Y121999D01*
X144071Y121942D01*
Y121942D01*
Y121942D01*
X144070Y121873D01*
Y121873D01*
X144070Y121805D01*
X144070Y121805D01*
X144070Y121805D01*
X144067Y121781D01*
X144065Y121766D01*
X144065Y121766D01*
X144065Y121766D01*
X144058Y121742D01*
X144054Y121730D01*
X144054Y121730D01*
X144054Y121729D01*
X144046Y121715D01*
X144035Y121695D01*
X144035Y121695D01*
X144035Y121695D01*
X144028Y121687D01*
X144010Y121666D01*
X144010Y121666D01*
X144010Y121666D01*
X144000Y121657D01*
X143999Y121600D01*
Y121600D01*
Y121600D01*
X143999Y121532D01*
D01*
X143998Y121463D01*
X143996Y121440D01*
X143994Y121429D01*
X143996Y121409D01*
X143997Y121395D01*
Y121395D01*
Y121395D01*
Y121395D01*
X143997Y121326D01*
Y121326D01*
Y121326D01*
X143994Y121303D01*
X143993Y121288D01*
X143993Y121288D01*
Y121288D01*
X143985Y121263D01*
X143981Y121251D01*
X143981Y121251D01*
X143981Y121251D01*
X143976Y121241D01*
X143963Y121217D01*
X143938Y121187D01*
X143938Y121187D01*
X143938Y121187D01*
X143927Y121178D01*
X143927Y121121D01*
X143922Y121083D01*
X143912Y121048D01*
X143911Y121046D01*
D01*
X143911Y121046D01*
X143892Y121012D01*
X143876Y120992D01*
X143868Y120982D01*
X143868Y120982D01*
X143868Y120982D01*
X143857Y120973D01*
X143856Y120917D01*
X143853Y120882D01*
X143855Y120856D01*
X143856Y120848D01*
Y120848D01*
D01*
D01*
X143855Y120780D01*
Y120780D01*
Y120780D01*
X143852Y120755D01*
X143851Y120741D01*
X143851Y120741D01*
Y120741D01*
X143847Y120727D01*
X143839Y120704D01*
X143821Y120670D01*
X143821Y120670D01*
X143821Y120670D01*
X143817Y120665D01*
X143796Y120640D01*
X143785Y120632D01*
X143785Y120575D01*
X143782Y120550D01*
X143781Y120536D01*
X143781Y120536D01*
Y120536D01*
X143773Y120511D01*
X143769Y120499D01*
X143769Y120499D01*
X143769Y120499D01*
X143755Y120474D01*
X143751Y120465D01*
X143751Y120465D01*
X143751Y120465D01*
X143735Y120446D01*
X143726Y120435D01*
X143726Y120435D01*
X143726Y120435D01*
X143715Y120427D01*
X143715Y120370D01*
X143711Y120336D01*
X143712Y120320D01*
X143714Y120301D01*
Y120301D01*
D01*
D01*
X143713Y120233D01*
Y120233D01*
Y120233D01*
X143711Y120208D01*
X143709Y120194D01*
X143709Y120194D01*
Y120194D01*
X143705Y120180D01*
X143698Y120157D01*
X143679Y120123D01*
X143679Y120123D01*
X143679Y120123D01*
X143675Y120118D01*
X143654Y120094D01*
X143624Y120069D01*
X143615Y120064D01*
X143610Y120055D01*
X143585Y120026D01*
X143575Y120017D01*
X143575Y120017D01*
X143574Y119960D01*
X143572Y119941D01*
X143570Y119922D01*
X143570Y119922D01*
X143570Y119922D01*
X143564Y119904D01*
X143558Y119885D01*
X143558Y119885D01*
X143558Y119885D01*
X143548Y119866D01*
X143540Y119851D01*
X143540Y119851D01*
X143540Y119851D01*
X143525Y119833D01*
X143515Y119821D01*
X143515Y119821D01*
X143515Y119821D01*
X143504Y119812D01*
X143504Y119755D01*
X143500Y119717D01*
X143488Y119680D01*
X143469Y119646D01*
X143445Y119616D01*
X143434Y119607D01*
X143433Y119551D01*
Y119551D01*
Y119551D01*
X143432Y119539D01*
X143429Y119512D01*
X143418Y119475D01*
X143403Y119448D01*
X143399Y119441D01*
X143383Y119421D01*
X143374Y119411D01*
X143374Y119411D01*
X143374Y119411D01*
X143360Y119399D01*
X143344Y119387D01*
X143344Y119387D01*
X143344Y119387D01*
X143335Y119382D01*
X143330Y119373D01*
X143330Y119373D01*
X143330Y119373D01*
X143317Y119357D01*
X143305Y119343D01*
X143305Y119343D01*
X143305Y119343D01*
X143295Y119335D01*
X143294Y119278D01*
X143290Y119239D01*
X143278Y119202D01*
X143260Y119168D01*
X143235Y119138D01*
X143205Y119114D01*
X143196Y119109D01*
X143191Y119100D01*
X143170Y119076D01*
X143166Y119071D01*
X143166Y119071D01*
X143166Y119071D01*
X143155Y119062D01*
X143155Y119005D01*
Y119005D01*
Y119005D01*
X143154Y118996D01*
X143151Y118967D01*
X143139Y118930D01*
X143139Y118930D01*
D01*
X143137Y118926D01*
X143121Y118895D01*
X143096Y118866D01*
X143096Y118866D01*
X143096Y118866D01*
X143066Y118841D01*
X143056Y118837D01*
X143051Y118828D01*
X143026Y118798D01*
X143026Y118798D01*
X143026Y118798D01*
X143015Y118788D01*
X142996Y118773D01*
X142987Y118769D01*
X142982Y118760D01*
X142982Y118760D01*
X142982Y118760D01*
X142974Y118749D01*
X142957Y118730D01*
X142957Y118730D01*
X142957Y118730D01*
X142946Y118720D01*
X142943Y118694D01*
X142931Y118657D01*
X142913Y118623D01*
X142888Y118594D01*
X142888Y118594D01*
X142888Y118594D01*
X142876Y118584D01*
X142875Y118573D01*
X142873Y118558D01*
X142873Y118558D01*
Y118558D01*
X142865Y118533D01*
X142862Y118521D01*
X142862Y118521D01*
X142862Y118521D01*
X142848Y118496D01*
X142843Y118487D01*
X142843Y118487D01*
X142843Y118487D01*
X142827Y118468D01*
X142818Y118457D01*
X142818Y118457D01*
X142818Y118457D01*
X142789Y118434D01*
X142788Y118433D01*
D01*
X142788Y118433D01*
X142779Y118428D01*
X142774Y118419D01*
X142749Y118389D01*
X142719Y118365D01*
X142710Y118360D01*
X142705Y118351D01*
X142705Y118351D01*
X142705Y118351D01*
X142689Y118332D01*
X142680Y118322D01*
X142680Y118321D01*
X142680Y118321D01*
X142668Y118312D01*
X142665Y118286D01*
X142654Y118249D01*
X142635Y118215D01*
X142610Y118185D01*
X142610D01*
Y118185D01*
X142604Y118181D01*
X142580Y118161D01*
X142546Y118143D01*
D01*
X142546Y118143D01*
X142524Y118137D01*
X142523Y118136D01*
X142516Y118113D01*
X142503Y118091D01*
X142497Y118079D01*
X142486Y118066D01*
X142472Y118049D01*
X142460Y118040D01*
X142459Y118032D01*
X142457Y118014D01*
X142457Y118014D01*
X142457Y118014D01*
X142447Y117982D01*
X142446Y117977D01*
Y117977D01*
X142446Y117977D01*
X142432Y117951D01*
X142427Y117943D01*
X142427Y117943D01*
X142427Y117943D01*
X142404Y117915D01*
X142403Y117913D01*
D01*
X142402Y117913D01*
X142377Y117893D01*
X142372Y117889D01*
X142372Y117889D01*
X142372Y117889D01*
X142348Y117876D01*
X142338Y117871D01*
X142338Y117871D01*
X142338Y117871D01*
X142316Y117864D01*
X142315Y117864D01*
X142309Y117845D01*
X142308Y117841D01*
Y117841D01*
X142308Y117841D01*
X142289Y117807D01*
X142270Y117784D01*
X142264Y117777D01*
X142264Y117777D01*
X142264Y117777D01*
X142234Y117753D01*
X142200Y117735D01*
X142177Y117728D01*
X142175Y117723D01*
X142170Y117705D01*
X142170Y117705D01*
X142170Y117705D01*
X142162Y117692D01*
X142151Y117671D01*
X142151Y117671D01*
X142151Y117671D01*
X142139Y117656D01*
X142126Y117641D01*
X142126Y117641D01*
X142126Y117641D01*
X142100Y117621D01*
X142096Y117617D01*
X142096D01*
X142096Y117617D01*
X142065Y117601D01*
X142062Y117599D01*
X142062D01*
X142062Y117599D01*
X142038Y117592D01*
X142025Y117588D01*
X142025Y117588D01*
X142024Y117588D01*
X142005Y117586D01*
X141986Y117585D01*
X141986Y117585D01*
X141986Y117585D01*
X141929Y117585D01*
X141920Y117575D01*
X141920Y117575D01*
X141920Y117575D01*
X141897Y117556D01*
X141890Y117551D01*
X141890D01*
X141890Y117550D01*
X141881Y117546D01*
X141876Y117537D01*
X141851Y117507D01*
X141851Y117507D01*
X141851Y117507D01*
X141839Y117497D01*
X141821Y117483D01*
X141812Y117478D01*
X141807Y117469D01*
X141782Y117439D01*
X141782Y117439D01*
X141782Y117439D01*
X141770Y117429D01*
X141752Y117415D01*
X141743Y117410D01*
X141738Y117401D01*
X141738Y117401D01*
X141738Y117401D01*
X141723Y117383D01*
X141713Y117371D01*
X141713Y117371D01*
X141713Y117371D01*
X141698Y117359D01*
X141683Y117347D01*
X141683Y117347D01*
X141683Y117347D01*
X141668Y117339D01*
X141648Y117329D01*
X141648Y117329D01*
X141648D01*
X141644Y117327D01*
X141611Y117318D01*
X141573Y117314D01*
X141572D01*
D01*
D01*
X141516Y117315D01*
X141507Y117305D01*
X141507Y117305D01*
X141507Y117305D01*
X141494Y117294D01*
X141477Y117280D01*
X141477Y117280D01*
X141477Y117280D01*
X141468Y117275D01*
X141463Y117266D01*
X141445Y117245D01*
X141438Y117237D01*
X141438Y117237D01*
X141438Y117237D01*
X141408Y117212D01*
X141375Y117195D01*
X141373Y117194D01*
D01*
X141373Y117194D01*
X141350Y117187D01*
X141336Y117183D01*
X141336D01*
X141336Y117183D01*
X141313Y117181D01*
X141297Y117180D01*
X141297D01*
X141297D01*
X141241Y117180D01*
X141232Y117170D01*
X141232Y117170D01*
X141232Y117170D01*
X141223Y117163D01*
X141201Y117146D01*
X141192Y117141D01*
X141188Y117132D01*
X141188Y117132D01*
Y117132D01*
X141185Y117129D01*
X141163Y117102D01*
X141132Y117078D01*
D01*
X141132Y117078D01*
X141101Y117061D01*
X141098Y117060D01*
X141098D01*
X141098Y117060D01*
X141078Y117054D01*
X141061Y117049D01*
X141061D01*
X141061Y117049D01*
X141047Y117048D01*
X141022Y117045D01*
X141022D01*
X141022D01*
X140828Y117047D01*
X140820Y117036D01*
X140820Y117036D01*
X140820Y117036D01*
X140804Y117024D01*
X140789Y117012D01*
X140789Y117012D01*
X140789Y117012D01*
X140772Y117003D01*
X140755Y116994D01*
X140755Y116994D01*
X140755Y116994D01*
X140735Y116988D01*
X140718Y116983D01*
X140718D01*
X140718Y116983D01*
X140697Y116981D01*
X140679Y116980D01*
X140679D01*
X140679D01*
X140679D01*
X140622Y116980D01*
X140614Y116970D01*
X140614Y116970D01*
X140614Y116970D01*
X140605Y116963D01*
X140583Y116946D01*
X140549Y116928D01*
X140549Y116928D01*
X140549Y116928D01*
X140540Y116925D01*
X140512Y116917D01*
X140512D01*
X140512Y116917D01*
X140494Y116915D01*
X140473Y116913D01*
X140473D01*
X140473D01*
X140405Y116914D01*
X140382Y116916D01*
X140371Y116917D01*
X140350Y116916D01*
X140336Y116914D01*
X140336D01*
D01*
D01*
X139868Y116918D01*
X139860Y116908D01*
X139860Y116908D01*
X139860Y116908D01*
X139850Y116900D01*
X139830Y116884D01*
X139830Y116884D01*
X139830Y116884D01*
X139813Y116875D01*
X139795Y116866D01*
X139795Y116866D01*
X139795Y116866D01*
X139772Y116859D01*
X139758Y116855D01*
X139758D01*
X139758Y116855D01*
X139736Y116853D01*
X139719Y116851D01*
X139719Y116851D01*
X139719Y116851D01*
X139651Y116852D01*
X139627Y116854D01*
X139617Y116856D01*
X139596Y116854D01*
X139583Y116852D01*
X139582D01*
X139582D01*
X139582D01*
X139514Y116853D01*
X139480Y116857D01*
X139445Y116854D01*
X139377Y116854D01*
X139377D01*
X139377D01*
X139366Y116855D01*
X139338Y116858D01*
X139301Y116870D01*
X139274Y116885D01*
X139267Y116888D01*
X139247Y116905D01*
X139238Y116913D01*
X139238Y116913D01*
X139238Y116913D01*
X139229Y116924D01*
X138487Y116930D01*
X138487D01*
X138487D01*
X138474Y116932D01*
X138453Y116934D01*
X138440Y116933D01*
X138419Y116931D01*
X138419D01*
X138419D01*
X138419D01*
X138350Y116932D01*
X138350D01*
X138350D01*
X138339Y116933D01*
X138312Y116936D01*
X138275Y116947D01*
X138248Y116962D01*
X138241Y116966D01*
X138221Y116983D01*
X138211Y116991D01*
X138211Y116991D01*
X138211Y116991D01*
X138203Y117001D01*
X138146Y117002D01*
X138146D01*
X138146D01*
X138129Y117004D01*
X138111Y117006D01*
X138094Y117004D01*
X138077Y117002D01*
X138077D01*
D01*
D01*
X138009Y117003D01*
X138009D01*
X138009D01*
X137996Y117004D01*
X137970Y117007D01*
X137933Y117019D01*
D01*
X137933Y117019D01*
X137911Y117031D01*
X137899Y117037D01*
X137899Y117037D01*
X137899Y117037D01*
X137881Y117052D01*
X137869Y117062D01*
X137869Y117062D01*
X137869Y117062D01*
X137861Y117073D01*
X137804Y117073D01*
X137776Y117076D01*
X137770Y117077D01*
X137735Y117074D01*
X137735D01*
X137735D01*
X137667Y117075D01*
X137648Y117077D01*
X137628Y117079D01*
X137628Y117079D01*
X137628D01*
X137605Y117086D01*
X137591Y117090D01*
X137591Y117090D01*
X137591Y117090D01*
X137561Y117107D01*
X137557Y117109D01*
X137557Y117109D01*
X137557Y117109D01*
X137538Y117125D01*
X137528Y117134D01*
X137527Y117134D01*
X137527Y117134D01*
X137519Y117144D01*
X137462Y117145D01*
X137462D01*
X137462D01*
X137440Y117147D01*
X137423Y117149D01*
X137423Y117149D01*
X137423D01*
X137413Y117152D01*
X137386Y117161D01*
X137352Y117179D01*
X137352Y117179D01*
X137352Y117179D01*
X137342Y117188D01*
X137323Y117204D01*
X137323Y117204D01*
X137322Y117204D01*
X137315Y117213D01*
X137314Y117215D01*
X137257Y117215D01*
X137219Y117219D01*
X137184Y117230D01*
X137182Y117231D01*
D01*
X137182Y117231D01*
X137148Y117249D01*
X137128Y117266D01*
X137118Y117274D01*
X137118Y117274D01*
X137118Y117274D01*
X137109Y117285D01*
X137052Y117285D01*
X137014Y117289D01*
X136991Y117297D01*
X136977Y117301D01*
X136977Y117301D01*
D01*
X136943Y117320D01*
X136916Y117342D01*
X136913Y117344D01*
Y117344D01*
X136913D01*
X136907Y117352D01*
X136904Y117355D01*
X136847Y117356D01*
X136847D01*
X136847D01*
X136835Y117357D01*
X136809Y117360D01*
X136772Y117371D01*
D01*
X136772Y117371D01*
X136750Y117383D01*
X136738Y117390D01*
X136738Y117390D01*
X136738Y117390D01*
X136720Y117405D01*
X136708Y117415D01*
X136708Y117415D01*
X136708Y117415D01*
X136699Y117425D01*
X136643Y117426D01*
X136604Y117430D01*
X136567Y117442D01*
X136533Y117460D01*
X136508Y117481D01*
X136503Y117485D01*
Y117485D01*
X136503D01*
X136495Y117496D01*
X136438Y117496D01*
X136399Y117500D01*
X136376Y117508D01*
X136362Y117512D01*
X136362Y117512D01*
D01*
X136328Y117531D01*
X136301Y117553D01*
X136298Y117555D01*
Y117555D01*
X136298D01*
X136293Y117563D01*
X136274Y117586D01*
X136269Y117595D01*
X136260Y117599D01*
X136260Y117600D01*
X136260Y117600D01*
X136247Y117611D01*
X136231Y117624D01*
X136231Y117624D01*
X136231Y117624D01*
X136222Y117635D01*
X136165Y117636D01*
X136165D01*
X136165D01*
X136149Y117637D01*
X136126Y117640D01*
X136126Y117640D01*
X136126D01*
X136097Y117649D01*
X136090Y117651D01*
D01*
X136089Y117651D01*
X136079Y117657D01*
X136055Y117670D01*
X136026Y117695D01*
X136026Y117695D01*
X136026Y117695D01*
X136012Y117712D01*
X136001Y117725D01*
X136001Y117725D01*
X136001Y117725D01*
X135997Y117734D01*
X135988Y117739D01*
X135988Y117739D01*
X135988Y117739D01*
X135970Y117754D01*
X135958Y117764D01*
X135958Y117764D01*
X135958Y117764D01*
X135949Y117774D01*
X135892Y117775D01*
X135880Y117776D01*
X135854Y117779D01*
X135817Y117791D01*
D01*
X135817Y117791D01*
X135783Y117809D01*
X135758Y117830D01*
X135753Y117834D01*
X135753Y117834D01*
X135753Y117834D01*
X135741Y117849D01*
X135729Y117864D01*
X135729Y117864D01*
X135729Y117864D01*
X135724Y117873D01*
X135715Y117878D01*
X135715Y117878D01*
X135715D01*
X135709Y117883D01*
X135685Y117903D01*
X135685Y117903D01*
X135685Y117903D01*
X135677Y117914D01*
X135620Y117914D01*
X135607Y117916D01*
X135581Y117918D01*
X135544Y117930D01*
D01*
X135544Y117930D01*
X135510Y117949D01*
X135486Y117969D01*
X135480Y117973D01*
X135480Y117973D01*
X135480Y117973D01*
X135468Y117988D01*
X135456Y118004D01*
X135456Y118004D01*
X135456Y118004D01*
X135451Y118013D01*
X135442Y118018D01*
X135412Y118043D01*
X135412Y118043D01*
X135412Y118043D01*
X135404Y118053D01*
X135347Y118054D01*
X135314Y118057D01*
X135308Y118058D01*
X135308D01*
X135308Y118058D01*
X135281Y118067D01*
X135271Y118069D01*
X135271Y118069D01*
X135271Y118069D01*
X135249Y118081D01*
X135237Y118088D01*
X135237Y118088D01*
X135237Y118088D01*
X135221Y118102D01*
X135208Y118113D01*
X135207Y118113D01*
X135207Y118113D01*
X135183Y118143D01*
X135178Y118152D01*
X135176Y118154D01*
X135169Y118157D01*
X135169Y118157D01*
X135169Y118157D01*
X135151Y118173D01*
X135140Y118182D01*
X135140Y118182D01*
X135140Y118182D01*
X135116Y118211D01*
X135115Y118212D01*
D01*
X135115Y118212D01*
X135111Y118221D01*
X135102Y118226D01*
X135101Y118226D01*
X135101Y118226D01*
X135091Y118234D01*
X135072Y118251D01*
X135072Y118251D01*
X135072Y118251D01*
X135053Y118274D01*
X135047Y118281D01*
Y118281D01*
X135047Y118281D01*
X135043Y118290D01*
X135034Y118295D01*
X135004Y118320D01*
X134994Y118332D01*
X134968Y118335D01*
X134942Y118343D01*
X134931Y118346D01*
X134931Y118346D01*
D01*
X134928Y118348D01*
X134897Y118365D01*
X134868Y118390D01*
X134868Y118390D01*
X134868Y118390D01*
X134858Y118401D01*
X134858Y118402D01*
X134832Y118404D01*
X134795Y118416D01*
X134776Y118426D01*
X134761Y118435D01*
X134731Y118459D01*
Y118459D01*
X134731D01*
X134707Y118490D01*
X134702Y118499D01*
X134693Y118503D01*
X134693Y118503D01*
X134693Y118504D01*
X134679Y118515D01*
X134663Y118528D01*
X134663Y118528D01*
X134663Y118528D01*
X134648Y118548D01*
X134639Y118559D01*
X134639Y118559D01*
X134639Y118559D01*
X134634Y118568D01*
X134625Y118573D01*
X134625Y118573D01*
X134625Y118573D01*
X134612Y118583D01*
X134595Y118597D01*
X134595Y118597D01*
X134595Y118598D01*
X134585Y118610D01*
X134571Y118628D01*
X134571Y118628D01*
X134571Y118628D01*
X134566Y118637D01*
X134557Y118642D01*
X134528Y118667D01*
X134503Y118697D01*
X134498Y118706D01*
X134489Y118711D01*
X134489Y118711D01*
X134489Y118711D01*
X134470Y118727D01*
X134460Y118736D01*
X134460Y118736D01*
X134459Y118736D01*
X134451Y118746D01*
X134394Y118747D01*
X134394D01*
X134394D01*
X134376Y118749D01*
X134356Y118751D01*
X134355Y118751D01*
X134355D01*
X134346Y118754D01*
X134319Y118763D01*
X134318Y118763D01*
X134318D01*
X134310Y118767D01*
X134285Y118781D01*
X134284Y118781D01*
X134284Y118781D01*
X134271Y118792D01*
X134255Y118806D01*
X134255Y118806D01*
X134255Y118806D01*
X134244Y118819D01*
X134230Y118836D01*
X134230Y118836D01*
X134230Y118836D01*
X134223Y118850D01*
X134213Y118870D01*
X134212Y118870D01*
X134212Y118870D01*
X134209Y118881D01*
X134206Y118894D01*
X134183Y118901D01*
X134149Y118919D01*
X134126Y118938D01*
X134119Y118944D01*
X134119Y118944D01*
X134119Y118944D01*
X134105Y118962D01*
X134095Y118974D01*
X134095Y118974D01*
X134095Y118974D01*
X134090Y118983D01*
X134081Y118988D01*
X134065Y119001D01*
X134051Y119013D01*
X134027Y119043D01*
X134027Y119043D01*
X134027Y119043D01*
X134022Y119052D01*
X134013Y119057D01*
X134013Y119057D01*
X134013Y119057D01*
X133994Y119073D01*
X133983Y119082D01*
X133983Y119082D01*
X133983Y119082D01*
X133973Y119095D01*
X133959Y119112D01*
X133959Y119113D01*
X133959Y119113D01*
X133954Y119122D01*
X133945Y119126D01*
X133915Y119151D01*
X133891Y119182D01*
X133886Y119191D01*
X133877Y119195D01*
X133848Y119220D01*
X133847Y119220D01*
X133847Y119220D01*
X133842Y119227D01*
X133823Y119251D01*
X133818Y119260D01*
X133809Y119265D01*
X133809Y119265D01*
X133809Y119265D01*
X133791Y119280D01*
X133780Y119289D01*
X133780Y119289D01*
X133780Y119290D01*
X133768Y119304D01*
X133755Y119320D01*
X133755Y119320D01*
X133755Y119320D01*
X133750Y119329D01*
X133742Y119334D01*
X133741Y119334D01*
X133741Y119334D01*
X133733Y119341D01*
X133712Y119359D01*
X133712Y119359D01*
X133712Y119359D01*
X133701Y119371D01*
X133687Y119389D01*
X133687Y119389D01*
X133687Y119389D01*
X133683Y119398D01*
X133680Y119399D01*
X133674Y119403D01*
X133674Y119403D01*
X133674Y119403D01*
X133655Y119419D01*
X133644Y119428D01*
X133644Y119428D01*
X133644Y119428D01*
X133620Y119457D01*
X133620Y119458D01*
D01*
X133619Y119458D01*
X133615Y119467D01*
X133606Y119472D01*
X133606Y119472D01*
X133606Y119472D01*
X133587Y119488D01*
X133576Y119497D01*
X133576Y119497D01*
X133576Y119497D01*
X133553Y119526D01*
X133552Y119527D01*
D01*
X133552Y119527D01*
X133547Y119536D01*
X133538Y119541D01*
X133524Y119552D01*
X133508Y119566D01*
X133484Y119596D01*
X133479Y119605D01*
X133470Y119610D01*
X133440Y119635D01*
X133440Y119635D01*
X133440Y119635D01*
X133435Y119641D01*
X133416Y119665D01*
X133411Y119674D01*
X133402Y119679D01*
X133402Y119679D01*
X133402Y119679D01*
X133392Y119688D01*
X133372Y119704D01*
X133372Y119704D01*
X133372Y119704D01*
X133353Y119727D01*
X133348Y119734D01*
Y119734D01*
X133348Y119734D01*
X133343Y119743D01*
X133334Y119748D01*
X133334Y119748D01*
X133334Y119748D01*
X133323Y119757D01*
X133304Y119773D01*
X133304Y119773D01*
X133304Y119773D01*
X133298Y119781D01*
X133280Y119803D01*
X133280Y119803D01*
X133280Y119803D01*
X133275Y119812D01*
X133266Y119817D01*
X133266Y119817D01*
X133266Y119817D01*
X133250Y119831D01*
X133237Y119842D01*
X133237Y119842D01*
X133237Y119842D01*
X133226Y119855D01*
X133212Y119872D01*
X133212Y119872D01*
X133212Y119872D01*
X133207Y119881D01*
X133198Y119886D01*
X133169Y119911D01*
X133144Y119941D01*
X133126Y119976D01*
X133115Y120013D01*
X133113Y120039D01*
X133101Y120049D01*
X133101Y120049D01*
X133101Y120049D01*
X133094Y120059D01*
X133077Y120079D01*
X133059Y120113D01*
D01*
X133059Y120113D01*
X133050Y120144D01*
X133048Y120150D01*
Y120150D01*
X133048Y120150D01*
X133046Y120175D01*
X133046Y120176D01*
X133044Y120178D01*
X133034Y120186D01*
X133034Y120186D01*
X133034Y120186D01*
X133010Y120217D01*
X133005Y120226D01*
X133003Y120227D01*
X132996Y120230D01*
X132996Y120230D01*
X132996Y120230D01*
X132977Y120246D01*
X132966Y120255D01*
X132966Y120255D01*
X132966Y120255D01*
X132956Y120268D01*
X132942Y120285D01*
X132942Y120286D01*
X132942Y120286D01*
X132937Y120295D01*
X132928Y120299D01*
X132898Y120324D01*
X132898Y120324D01*
X132898Y120324D01*
X132874Y120355D01*
X132869Y120364D01*
X132860Y120369D01*
X132860Y120369D01*
X132860Y120369D01*
X132844Y120382D01*
X132831Y120394D01*
X132831Y120394D01*
X132830Y120394D01*
X132809Y120420D01*
X132806Y120424D01*
Y120424D01*
X132806Y120424D01*
X132801Y120433D01*
X132792Y120438D01*
X132792Y120438D01*
X132792Y120438D01*
X132773Y120454D01*
X132763Y120463D01*
X132763Y120463D01*
X132763Y120463D01*
X132739Y120492D01*
X132738Y120493D01*
D01*
X132738Y120493D01*
X132734Y120502D01*
X132724Y120507D01*
X132724Y120507D01*
X132724Y120507D01*
X132706Y120522D01*
X132695Y120532D01*
X132695Y120532D01*
X132695Y120532D01*
X132683Y120546D01*
X132670Y120562D01*
X132670Y120562D01*
X132670Y120562D01*
X132663Y120577D01*
X132652Y120596D01*
X132652Y120596D01*
Y120596D01*
X132651Y120601D01*
X132641Y120633D01*
X132638Y120672D01*
Y120672D01*
Y120672D01*
X132639Y120729D01*
X132628Y120738D01*
X132628Y120738D01*
X132628Y120738D01*
X132617Y120751D01*
X132604Y120768D01*
X132604Y120768D01*
X132604Y120768D01*
X132599Y120777D01*
X132590Y120782D01*
X132560Y120807D01*
X132536Y120837D01*
X132531Y120846D01*
X132522Y120851D01*
X132522Y120851D01*
X132522Y120851D01*
X132503Y120867D01*
X132492Y120876D01*
X132492Y120876D01*
X132492Y120876D01*
X132482Y120889D01*
X132468Y120906D01*
X132468Y120906D01*
X132468Y120906D01*
X132450Y120940D01*
X132442Y120969D01*
X132439Y120977D01*
Y120978D01*
X132439Y120978D01*
X132437Y120999D01*
X132437Y121004D01*
X132425Y121013D01*
X132425Y121013D01*
X132425Y121013D01*
X132409Y121033D01*
X132401Y121044D01*
X132401Y121044D01*
X132401Y121044D01*
X132385Y121074D01*
X132383Y121078D01*
Y121078D01*
X132383Y121078D01*
X132375Y121105D01*
X132372Y121115D01*
Y121115D01*
X132372Y121115D01*
X132370Y121138D01*
X132369Y121141D01*
X132368Y121142D01*
X132358Y121151D01*
X132358Y121151D01*
X132358Y121151D01*
X132334Y121180D01*
X132333Y121181D01*
D01*
X132333Y121181D01*
X132329Y121190D01*
X132319Y121195D01*
X132300Y121212D01*
X132290Y121220D01*
X132290Y121220D01*
X132290Y121220D01*
X132265Y121250D01*
X132261Y121259D01*
X132252Y121264D01*
X132222Y121289D01*
X132197Y121319D01*
X132179Y121354D01*
X132169Y121391D01*
X132165Y121430D01*
X132166Y121486D01*
X132155Y121495D01*
X132155Y121495D01*
X132155Y121495D01*
X132145Y121508D01*
X132131Y121525D01*
X132131Y121525D01*
X132131Y121525D01*
X132126Y121534D01*
X132117Y121539D01*
X132117Y121539D01*
X132117Y121539D01*
X132107Y121548D01*
X132087Y121564D01*
X132087Y121564D01*
X132087Y121564D01*
X132080Y121573D01*
X132063Y121594D01*
X132045Y121629D01*
X132045Y121629D01*
X132045Y121629D01*
X132042Y121638D01*
X132034Y121666D01*
Y121666D01*
X132034Y121666D01*
X132033Y121684D01*
X132031Y121705D01*
Y121705D01*
Y121705D01*
X132031Y121762D01*
X132030Y121762D01*
X132021Y121770D01*
X132021Y121770D01*
X132021Y121770D01*
X131996Y121800D01*
X131992Y121809D01*
X131989Y121811D01*
X131983Y121814D01*
X131983Y121815D01*
X131983Y121815D01*
X131964Y121830D01*
X131953Y121839D01*
X131953Y121839D01*
X131953Y121839D01*
X131929Y121868D01*
X131929Y121870D01*
D01*
X131928Y121870D01*
X131912Y121901D01*
X131911Y121904D01*
Y121904D01*
X131911Y121904D01*
X131904Y121927D01*
X131899Y121941D01*
Y121941D01*
X131899Y121941D01*
X131898Y121957D01*
X131896Y121980D01*
Y121980D01*
Y121980D01*
X131897Y122037D01*
X131886Y122045D01*
X131886Y122045D01*
X131886Y122045D01*
X131876Y122058D01*
X131862Y122075D01*
X131862Y122076D01*
X131862Y122076D01*
X131857Y122085D01*
X131848Y122090D01*
X131848Y122090D01*
X131848Y122090D01*
X131834Y122101D01*
X131818Y122114D01*
X131818Y122114D01*
X131818Y122115D01*
X131802Y122134D01*
X131794Y122145D01*
X131794Y122145D01*
X131794Y122145D01*
X131778Y122175D01*
X131776Y122179D01*
Y122179D01*
X131776Y122179D01*
X131767Y122210D01*
X131765Y122216D01*
Y122216D01*
X131765Y122216D01*
X131763Y122241D01*
X131762Y122255D01*
Y122255D01*
Y122255D01*
Y122255D01*
X131762Y122312D01*
X131752Y122320D01*
X131752Y122320D01*
X131752Y122320D01*
X131746Y122327D01*
X131727Y122351D01*
X131709Y122385D01*
X131709Y122385D01*
Y122385D01*
X131698Y122422D01*
X131696Y122450D01*
X131695Y122461D01*
Y122461D01*
Y122461D01*
X131695Y122518D01*
X131685Y122527D01*
X131660Y122557D01*
X131642Y122591D01*
X131642Y122591D01*
X131642Y122591D01*
X131640Y122600D01*
X131632Y122628D01*
Y122628D01*
X131632Y122628D01*
X131630Y122646D01*
X131628Y122667D01*
Y122667D01*
Y122667D01*
X131629Y122724D01*
X131618Y122732D01*
X131594Y122763D01*
X131589Y122772D01*
X131580Y122777D01*
X131580Y122777D01*
X131580Y122777D01*
X131570Y122785D01*
X131550Y122801D01*
X131550Y122801D01*
X131550Y122802D01*
X131540Y122815D01*
X131526Y122832D01*
X131526Y122832D01*
X131526Y122832D01*
X131513Y122857D01*
X131508Y122866D01*
Y122866D01*
X131508Y122866D01*
X131497Y122903D01*
X131494Y122932D01*
X131494Y122942D01*
Y122942D01*
Y122942D01*
X131494Y123010D01*
X131498Y123045D01*
X131496Y123062D01*
X131495Y123079D01*
X131495Y123079D01*
X131495Y123079D01*
X131495Y123136D01*
X131485Y123145D01*
X131460Y123175D01*
X131456Y123184D01*
X131447Y123189D01*
X131447Y123189D01*
X131447Y123189D01*
X131429Y123204D01*
X131417Y123214D01*
X131417Y123214D01*
X131417Y123214D01*
X131405Y123228D01*
X131393Y123244D01*
X131393Y123244D01*
X131393Y123244D01*
X131385Y123259D01*
X131375Y123278D01*
X131375Y123278D01*
Y123278D01*
X131373Y123283D01*
X131364Y123315D01*
X131360Y123354D01*
Y123354D01*
Y123354D01*
X131361Y123423D01*
Y123423D01*
Y123423D01*
X131365Y123457D01*
X131363Y123474D01*
X131361Y123491D01*
Y123491D01*
D01*
D01*
X131362Y123548D01*
X131361Y123548D01*
X131351Y123557D01*
X131351Y123557D01*
X131351Y123557D01*
X131340Y123571D01*
X131327Y123587D01*
X131327Y123587D01*
X131327Y123587D01*
X131319Y123602D01*
X131309Y123621D01*
X131309Y123621D01*
Y123621D01*
X131308Y123626D01*
X131298Y123659D01*
X131295Y123697D01*
Y123697D01*
Y123697D01*
X131295Y123754D01*
X131285Y123763D01*
X131285Y123763D01*
X131285Y123763D01*
X131274Y123776D01*
X131260Y123793D01*
X131260Y123793D01*
X131260Y123793D01*
X131254Y123806D01*
X131242Y123827D01*
X131242Y123827D01*
X131242Y123827D01*
X131237Y123847D01*
X131231Y123864D01*
Y123864D01*
X131231Y123864D01*
X131230Y123886D01*
X131228Y123903D01*
Y123903D01*
D01*
D01*
X131229Y123972D01*
Y123972D01*
Y123972D01*
X131231Y123996D01*
X131232Y124006D01*
X131230Y124027D01*
X131229Y124040D01*
Y124040D01*
Y124040D01*
Y124040D01*
X131230Y124097D01*
X131219Y124106D01*
X131219Y124106D01*
X131219Y124106D01*
X131195Y124136D01*
X131177Y124170D01*
X131167Y124202D01*
X131166Y124207D01*
Y124207D01*
X131166Y124207D01*
X131164Y124232D01*
X131163Y124246D01*
Y124246D01*
Y124246D01*
X131163Y124303D01*
X131153Y124312D01*
X131152Y124312D01*
X131152Y124312D01*
X131137Y124331D01*
X131128Y124342D01*
X131128Y124342D01*
X131128Y124342D01*
X131112Y124372D01*
X131110Y124376D01*
Y124376D01*
X131110Y124376D01*
X131102Y124403D01*
X131099Y124413D01*
Y124414D01*
X131099Y124414D01*
X131097Y124436D01*
X131096Y124452D01*
Y124452D01*
Y124452D01*
X131096Y124521D01*
X131100Y124555D01*
X131098Y124575D01*
X131097Y124589D01*
Y124589D01*
Y124589D01*
Y124589D01*
X131098Y124657D01*
X131101Y124692D01*
X131100Y124706D01*
X131098Y124726D01*
Y124726D01*
Y124726D01*
X131099Y124783D01*
X131088Y124792D01*
X131088Y124792D01*
X131088Y124792D01*
X131083Y124798D01*
X131064Y124822D01*
X131064Y124822D01*
X131064Y124822D01*
X131057Y124836D01*
X131046Y124856D01*
X131046Y124856D01*
X131046Y124856D01*
X131043Y124867D01*
X131035Y124893D01*
X131035Y124893D01*
Y124893D01*
X131034Y124901D01*
X131032Y124932D01*
Y124932D01*
Y124932D01*
X131032Y125001D01*
X131034Y125019D01*
X131036Y125035D01*
X131033Y125069D01*
Y125069D01*
D01*
D01*
X131033Y125137D01*
D01*
X131034Y125206D01*
D01*
Y125206D01*
X131034Y125263D01*
X131024Y125272D01*
X131000Y125302D01*
X130982Y125336D01*
X130971Y125373D01*
X130967Y125412D01*
D01*
Y125412D01*
X130968Y125480D01*
X130972Y125515D01*
X130968Y125549D01*
Y125549D01*
D01*
D01*
X130969Y125617D01*
X130971Y125635D01*
X130973Y125652D01*
X130971Y125667D01*
X130970Y125686D01*
Y125686D01*
Y125686D01*
Y125686D01*
X130970Y125754D01*
Y125754D01*
Y125754D01*
X130973Y125779D01*
X130974Y125789D01*
X130971Y125823D01*
D01*
Y125823D01*
X130971Y125891D01*
X130974Y125915D01*
X130975Y125925D01*
X130972Y125960D01*
D01*
Y125960D01*
X130973Y126028D01*
Y126028D01*
Y126028D01*
X130973Y126097D01*
Y126097D01*
X130974Y126165D01*
Y126165D01*
Y126165D01*
X130974Y126234D01*
X130975Y126302D01*
Y126302D01*
X130976Y126371D01*
X130976Y126371D01*
X130976Y126371D01*
X130976Y126439D01*
X130979Y126463D01*
X130980Y126478D01*
X130980Y126478D01*
X130980Y126478D01*
X130989Y126506D01*
X130992Y126515D01*
X130992Y126515D01*
X130992Y126515D01*
X131001Y126531D01*
X131010Y126549D01*
X131010Y126549D01*
X131010Y126549D01*
X131017Y126557D01*
X131035Y126578D01*
X131035Y126578D01*
X131035Y126579D01*
X131052Y126592D01*
X131065Y126603D01*
X131065Y126603D01*
X131066Y126603D01*
X131095Y126618D01*
X131100Y126621D01*
X131100D01*
X131100Y126621D01*
X131133Y126631D01*
X131137Y126632D01*
X131137D01*
X131137Y126632D01*
X131163Y126634D01*
X131176Y126635D01*
X131176D01*
X131176D01*
X131176D01*
D02*
G37*
G36*
X123239Y105664D02*
X123249Y105664D01*
X123346Y105654D01*
X123369Y105649D01*
X123384Y105646D01*
X123384Y105646D01*
X123384D01*
X123384Y105646D01*
X123489Y105613D01*
X123503Y105607D01*
X123518Y105601D01*
X123615Y105553D01*
X123615Y105553D01*
X123616Y105553D01*
X123632Y105542D01*
X123648Y105533D01*
X123648Y105532D01*
X123649Y105532D01*
X123722Y105474D01*
X123735Y105462D01*
X123748Y105450D01*
X123805Y105387D01*
X123812Y105378D01*
X123819Y105369D01*
X123867Y105301D01*
X123873Y105291D01*
X123880Y105281D01*
X123914Y105218D01*
X123917Y105210D01*
X123922Y105202D01*
X123925Y105192D01*
X123929Y105183D01*
X123931Y105174D01*
X123933Y105165D01*
X123943Y105121D01*
X123944Y105107D01*
X123947Y105094D01*
X123951Y105027D01*
X124165Y103393D01*
Y103393D01*
X124406Y101560D01*
X124406Y101560D01*
X124692Y99401D01*
X124692Y99401D01*
X124978Y97242D01*
Y97242D01*
X124978Y97242D01*
X125218Y95413D01*
Y95413D01*
X125218Y95413D01*
X125424Y93844D01*
X127570Y93826D01*
X127570D01*
X130421Y93812D01*
X130421D01*
X134514Y93808D01*
D01*
X138328Y93804D01*
X138328Y93804D01*
X138328Y93804D01*
X142119Y93793D01*
X142119Y93793D01*
X142119Y93793D01*
X145414Y93777D01*
X145414Y93777D01*
X145415Y93777D01*
X147381Y93758D01*
X147392Y93757D01*
X147396Y93757D01*
X150974Y93707D01*
X150992Y93705D01*
X151010Y93703D01*
X151011Y93703D01*
X151012Y93703D01*
X151030Y93697D01*
X151047Y93692D01*
X151048Y93691D01*
X151049Y93691D01*
X151065Y93682D01*
X151081Y93674D01*
X151082Y93673D01*
X151083Y93672D01*
X151097Y93661D01*
X151111Y93649D01*
X151112Y93648D01*
X151113Y93647D01*
X151124Y93633D01*
X151135Y93619D01*
X151136Y93618D01*
X151137Y93617D01*
X151145Y93601D01*
X151154Y93585D01*
X151154Y93584D01*
X151155Y93582D01*
X151160Y93565D01*
X151165Y93548D01*
X151165Y93546D01*
X151165Y93545D01*
X151167Y93528D01*
X151169Y93509D01*
Y92863D01*
X151169Y92863D01*
X151169Y92863D01*
X151167Y92842D01*
X151165Y92824D01*
X151165Y92824D01*
X151165Y92824D01*
X151159Y92805D01*
X151154Y92787D01*
X151154Y92787D01*
X151154Y92787D01*
X151146Y92772D01*
X151135Y92753D01*
X151135Y92753D01*
X151135Y92753D01*
X151124Y92739D01*
X151111Y92723D01*
X151111Y92723D01*
X151111Y92723D01*
X151096Y92711D01*
X151081Y92699D01*
X151081Y92698D01*
X151081Y92698D01*
X151064Y92690D01*
X151047Y92680D01*
X151047Y92680D01*
X151046Y92680D01*
X151028Y92675D01*
X151010Y92669D01*
X151009Y92669D01*
X151009Y92669D01*
X150991Y92667D01*
X150971Y92665D01*
X150971Y92665D01*
X150971Y92665D01*
X124549Y92702D01*
X124532Y92704D01*
X124516Y92705D01*
X124513Y92706D01*
X124510Y92706D01*
X124494Y92711D01*
X124478Y92716D01*
X124476Y92717D01*
X124473Y92718D01*
X124458Y92725D01*
X124444Y92733D01*
X124441Y92735D01*
X124439Y92736D01*
X124426Y92747D01*
X124413Y92757D01*
X124411Y92759D01*
X124409Y92760D01*
X124398Y92773D01*
X124388Y92786D01*
X124256Y92972D01*
X124253Y92977D01*
X124253Y92977D01*
X124253Y92977D01*
X124250Y92981D01*
X124244Y92990D01*
X124241Y92998D01*
X124236Y93006D01*
X124235Y93010D01*
X124234Y93011D01*
X124151Y93209D01*
X124150Y93212D01*
X124149Y93215D01*
X124144Y93231D01*
X124140Y93246D01*
X124139Y93249D01*
X124138Y93252D01*
X124011Y93993D01*
X124011Y93995D01*
X124011Y93997D01*
X123843Y95105D01*
X123843Y95106D01*
X123843Y95107D01*
X123587Y96976D01*
Y96976D01*
X123587Y96976D01*
X123391Y98409D01*
X123228Y99560D01*
X123067Y98458D01*
X122865Y97001D01*
Y97001D01*
X122490Y94293D01*
X122489Y94288D01*
X122489Y94284D01*
X122319Y93379D01*
X122318Y93377D01*
X122318Y93375D01*
X122313Y93359D01*
X122308Y93342D01*
X122307Y93340D01*
X122306Y93338D01*
X122131Y92928D01*
X122127Y92921D01*
X122124Y92914D01*
X122118Y92904D01*
X122113Y92894D01*
X122107Y92888D01*
X122103Y92881D01*
X122095Y92873D01*
X122088Y92864D01*
X122081Y92859D01*
X122076Y92853D01*
X122066Y92847D01*
X122057Y92840D01*
X122050Y92836D01*
X122044Y92832D01*
X121783Y92690D01*
X121781Y92689D01*
X121779Y92688D01*
X121763Y92682D01*
X121747Y92675D01*
X121745Y92675D01*
X121743Y92674D01*
X121726Y92671D01*
X121709Y92667D01*
X121707Y92667D01*
X121705Y92667D01*
X121688Y92667D01*
X121670Y92667D01*
X121668Y92667D01*
X121666Y92667D01*
X121496Y92687D01*
X121491Y92688D01*
X121485Y92688D01*
X121472Y92692D01*
X121458Y92695D01*
X121453Y92697D01*
X121448Y92698D01*
X121298Y92755D01*
X121290Y92759D01*
X121282Y92763D01*
X121273Y92768D01*
X121264Y92773D01*
X121256Y92778D01*
X121248Y92783D01*
X121132Y92872D01*
X121121Y92882D01*
X121109Y92892D01*
X121107Y92895D01*
X121104Y92898D01*
X121095Y92911D01*
X121085Y92923D01*
X121014Y93035D01*
X121009Y93046D01*
X121002Y93055D01*
X121000Y93063D01*
X120996Y93070D01*
X120993Y93081D01*
X120989Y93092D01*
X120945Y93261D01*
X120943Y93273D01*
X120941Y93283D01*
X120430Y96923D01*
Y96923D01*
X120430Y96923D01*
X120055Y99603D01*
X120036Y99471D01*
X119732Y97237D01*
Y97237D01*
X119541Y95833D01*
X119541Y95833D01*
Y95833D01*
X119373Y94608D01*
X119373Y94608D01*
Y94608D01*
X119227Y93556D01*
X119227Y93554D01*
X119227Y93552D01*
X119197Y93363D01*
X119193Y93349D01*
X119190Y93334D01*
X119120Y93116D01*
X119116Y93105D01*
X119112Y93094D01*
X119108Y93087D01*
X119105Y93080D01*
X119099Y93071D01*
X119093Y93061D01*
X118973Y92892D01*
X118962Y92879D01*
X118950Y92866D01*
X118949Y92864D01*
X118948Y92863D01*
X118934Y92852D01*
X118920Y92841D01*
X118759Y92735D01*
X118742Y92727D01*
X118725Y92718D01*
X118725Y92718D01*
X118725Y92717D01*
X118707Y92712D01*
X118688Y92707D01*
X118498Y92670D01*
X118491Y92669D01*
X118484Y92668D01*
X118472Y92667D01*
X118459Y92666D01*
X118452Y92667D01*
X118445Y92667D01*
X118433Y92669D01*
X118421Y92670D01*
X118414Y92672D01*
X118407Y92673D01*
X118395Y92678D01*
X118384Y92681D01*
X118377Y92685D01*
X118371Y92687D01*
X118093Y92828D01*
X118087Y92832D01*
X118080Y92835D01*
X118070Y92842D01*
X118060Y92848D01*
X118055Y92854D01*
X118049Y92858D01*
X118041Y92867D01*
X118032Y92875D01*
X118028Y92882D01*
X118023Y92887D01*
X118017Y92897D01*
X118010Y92907D01*
X118007Y92914D01*
X118003Y92921D01*
X117820Y93311D01*
X117819Y93316D01*
X117816Y93321D01*
X117812Y93334D01*
X117807Y93348D01*
X117807Y93353D01*
X117805Y93358D01*
X117637Y94238D01*
X117636Y94243D01*
X117635Y94248D01*
X117253Y97000D01*
X117253Y97000D01*
X117051Y98457D01*
X116889Y99564D01*
X116726Y98410D01*
X116531Y96976D01*
X116531Y96976D01*
Y96976D01*
X116273Y95093D01*
X116273Y95092D01*
X116273Y95090D01*
X116107Y93988D01*
X116106Y93986D01*
X116106Y93984D01*
X115980Y93253D01*
X115979Y93250D01*
X115979Y93247D01*
X115974Y93231D01*
X115970Y93216D01*
X115968Y93213D01*
X115967Y93210D01*
X115883Y93010D01*
X115882Y93008D01*
X115881Y93005D01*
X115876Y92997D01*
X115872Y92989D01*
X115867Y92981D01*
X115864Y92976D01*
X115864Y92975D01*
X115861Y92972D01*
X115728Y92785D01*
X115717Y92773D01*
X115707Y92761D01*
X115705Y92759D01*
X115702Y92756D01*
X115690Y92746D01*
X115677Y92736D01*
X115674Y92734D01*
X115672Y92732D01*
X115657Y92725D01*
X115643Y92718D01*
X115640Y92717D01*
X115637Y92715D01*
X115621Y92711D01*
X115606Y92706D01*
X115603Y92706D01*
X115600Y92705D01*
X115583Y92704D01*
X115568Y92702D01*
X97722Y92665D01*
X97722Y92665D01*
X97722Y92665D01*
X97703Y92667D01*
X97684Y92669D01*
X97683Y92669D01*
X97683Y92669D01*
X97666Y92674D01*
X97646Y92680D01*
X97646Y92680D01*
X97646Y92680D01*
X97630Y92689D01*
X97612Y92698D01*
X97612Y92698D01*
X97612Y92699D01*
X97598Y92710D01*
X97582Y92723D01*
X97582Y92723D01*
X97582Y92723D01*
X97570Y92738D01*
X97557Y92753D01*
X97557Y92753D01*
X97557Y92753D01*
X97548Y92771D01*
X97539Y92787D01*
X97539Y92787D01*
X97539Y92787D01*
X97534Y92805D01*
X97528Y92824D01*
X97528Y92824D01*
X97528Y92824D01*
X97526Y92843D01*
X97524Y92862D01*
X97524Y92863D01*
X97524Y92863D01*
Y93509D01*
X97526Y93527D01*
X97527Y93545D01*
X97528Y93546D01*
X97528Y93548D01*
X97533Y93565D01*
X97538Y93582D01*
X97539Y93584D01*
X97539Y93585D01*
X97548Y93601D01*
X97556Y93617D01*
X97557Y93618D01*
X97557Y93619D01*
X97569Y93633D01*
X97580Y93647D01*
X97581Y93648D01*
X97582Y93649D01*
X97596Y93661D01*
X97610Y93672D01*
X97611Y93673D01*
X97612Y93674D01*
X97628Y93682D01*
X97644Y93691D01*
X97645Y93691D01*
X97646Y93692D01*
X97663Y93697D01*
X97680Y93703D01*
X97682Y93703D01*
X97683Y93703D01*
X97701Y93705D01*
X97719Y93707D01*
X101232Y93757D01*
X101243Y93758D01*
X102949Y93777D01*
X102949Y93777D01*
X102950Y93777D01*
X105217Y93793D01*
X105217Y93793D01*
X105218Y93793D01*
X107629Y93803D01*
X107629Y93803D01*
X107630Y93803D01*
X109822Y93807D01*
D01*
X111962Y93812D01*
X113539Y93826D01*
D01*
X114688Y93843D01*
X114705Y94099D01*
X114706Y94105D01*
X114706Y94112D01*
X115440Y99535D01*
Y99535D01*
X116188Y105050D01*
X116191Y105063D01*
X116194Y105076D01*
X116249Y105276D01*
X116256Y105294D01*
X116262Y105311D01*
X116263Y105311D01*
X116263Y105312D01*
X116273Y105328D01*
X116283Y105344D01*
X116376Y105465D01*
X116378Y105467D01*
X116379Y105469D01*
X116391Y105481D01*
X116402Y105493D01*
X116404Y105495D01*
X116406Y105497D01*
X116420Y105506D01*
X116434Y105516D01*
X116436Y105517D01*
X116438Y105518D01*
X116591Y105601D01*
X116603Y105606D01*
X116614Y105612D01*
X116621Y105613D01*
X116627Y105616D01*
X116639Y105618D01*
X116652Y105622D01*
X116842Y105655D01*
X116851Y105655D01*
X116859Y105657D01*
X116870Y105657D01*
X116881Y105657D01*
X116889Y105656D01*
X116898Y105656D01*
X117100Y105633D01*
X117106Y105632D01*
X117112Y105631D01*
X117125Y105628D01*
X117138Y105625D01*
X117143Y105622D01*
X117149Y105621D01*
X117227Y105590D01*
X117229Y105589D01*
X117232Y105588D01*
X117247Y105580D01*
X117262Y105573D01*
X117264Y105571D01*
X117266Y105570D01*
X117343Y105518D01*
X117357Y105507D01*
X117370Y105496D01*
X117436Y105432D01*
X117439Y105429D01*
X117442Y105426D01*
X117451Y105414D01*
X117461Y105402D01*
X117463Y105398D01*
X117466Y105395D01*
X117507Y105328D01*
X117511Y105321D01*
X117515Y105314D01*
X117520Y105304D01*
X117525Y105293D01*
X117527Y105286D01*
X117530Y105278D01*
X117568Y105145D01*
X117570Y105132D01*
X117574Y105120D01*
X117740Y104009D01*
X117740Y104008D01*
X117740Y104008D01*
X117925Y102733D01*
X117925Y102732D01*
X117925Y102732D01*
X118130Y101250D01*
X118130Y101249D01*
X118130Y101249D01*
X118331Y99778D01*
X118331Y99778D01*
X118478Y98726D01*
X118626Y99791D01*
Y99791D01*
X118832Y101291D01*
X118832Y101291D01*
X118832Y101291D01*
X119225Y104133D01*
X119227Y104138D01*
X119227Y104143D01*
X119392Y104997D01*
X119394Y105004D01*
X119395Y105011D01*
X119399Y105023D01*
X119403Y105034D01*
X119406Y105040D01*
X119409Y105047D01*
X119593Y105419D01*
X119597Y105425D01*
X119601Y105432D01*
X119608Y105442D01*
X119614Y105452D01*
X119619Y105457D01*
X119624Y105463D01*
X119632Y105471D01*
X119641Y105480D01*
X119647Y105484D01*
X119652Y105489D01*
X119662Y105496D01*
X119672Y105502D01*
X119679Y105506D01*
X119686Y105509D01*
X119973Y105646D01*
X119983Y105650D01*
X119992Y105654D01*
X120001Y105656D01*
X120010Y105659D01*
X120020Y105661D01*
X120030Y105663D01*
X120039Y105664D01*
X120048Y105665D01*
X120058Y105665D01*
X120068Y105665D01*
X120078Y105664D01*
X120087Y105663D01*
X120097Y105661D01*
X120107Y105659D01*
X120115Y105656D01*
X120124Y105654D01*
X120134Y105650D01*
X120143Y105646D01*
X120432Y105509D01*
X120439Y105505D01*
X120446Y105502D01*
X120455Y105495D01*
X120466Y105489D01*
X120471Y105484D01*
X120477Y105479D01*
X120485Y105471D01*
X120494Y105463D01*
X120499Y105457D01*
X120504Y105451D01*
X120510Y105441D01*
X120517Y105431D01*
X120521Y105425D01*
X120525Y105418D01*
X120711Y105045D01*
X120713Y105038D01*
X120717Y105032D01*
X120720Y105020D01*
X120725Y105008D01*
X120726Y105001D01*
X120728Y104994D01*
X120895Y104136D01*
X120896Y104130D01*
X120897Y104125D01*
X121299Y101267D01*
X121299Y101267D01*
X121299Y101266D01*
X121508Y99760D01*
Y99760D01*
X121650Y98749D01*
X122023Y101485D01*
Y101485D01*
X122503Y105018D01*
X122508Y105098D01*
X122510Y105106D01*
X122510Y105113D01*
X122513Y105125D01*
X122515Y105137D01*
X122517Y105144D01*
X122519Y105151D01*
X122563Y105275D01*
X122566Y105282D01*
X122568Y105289D01*
X122574Y105299D01*
X122579Y105310D01*
X122584Y105316D01*
X122588Y105323D01*
X122595Y105332D01*
X122602Y105341D01*
X122608Y105346D01*
X122613Y105352D01*
X122747Y105480D01*
X122751Y105484D01*
X122755Y105488D01*
X122767Y105496D01*
X122777Y105504D01*
X122783Y105507D01*
X122787Y105510D01*
X122962Y105608D01*
X122973Y105612D01*
X122984Y105618D01*
X122991Y105620D01*
X122998Y105623D01*
X123009Y105625D01*
X123021Y105629D01*
X123190Y105662D01*
X123200Y105663D01*
X123210Y105665D01*
X123220Y105665D01*
X123229Y105666D01*
X123239Y105664D01*
D02*
G37*
G36*
X87179Y102607D02*
X87196Y102606D01*
X87198Y102606D01*
X87199Y102606D01*
X87217Y102602D01*
X87234Y102598D01*
X87236Y102597D01*
X87237Y102597D01*
X87253Y102590D01*
X87270Y102583D01*
X87314Y102558D01*
X87325Y102550D01*
X87336Y102544D01*
X87340Y102539D01*
X87346Y102536D01*
X87355Y102526D01*
X87364Y102518D01*
X87368Y102512D01*
X87373Y102508D01*
X87380Y102497D01*
X87387Y102486D01*
X87513Y102276D01*
X87514Y102272D01*
X87516Y102269D01*
X87658Y102011D01*
X87660Y102007D01*
X87662Y102004D01*
X87815Y101696D01*
X87816Y101694D01*
X87817Y101692D01*
X88130Y101018D01*
X88131Y101015D01*
X88133Y101012D01*
X88359Y100481D01*
X88360Y100477D01*
X88362Y100473D01*
X88580Y99891D01*
X88581Y99889D01*
X88582Y99886D01*
X88880Y99023D01*
X88880Y99022D01*
X88881Y99021D01*
X89105Y98359D01*
X89307Y98641D01*
X89309Y98644D01*
X89311Y98647D01*
X89757Y99220D01*
X89761Y99225D01*
X89765Y99230D01*
X90323Y99856D01*
X90326Y99860D01*
X90330Y99864D01*
X90918Y100460D01*
X90924Y100465D01*
X90928Y100469D01*
X91470Y100950D01*
X91476Y100955D01*
X91482Y100960D01*
X91920Y101290D01*
X91925Y101293D01*
X91929Y101297D01*
X92527Y101696D01*
X92529Y101698D01*
X92532Y101699D01*
X93141Y102084D01*
X93149Y102088D01*
X93156Y102093D01*
X93166Y102097D01*
X93176Y102101D01*
X93184Y102104D01*
X93192Y102107D01*
X93353Y102153D01*
X93371Y102156D01*
X93389Y102160D01*
X93390Y102160D01*
X93391Y102160D01*
X93410Y102159D01*
X93428Y102159D01*
X93429Y102159D01*
X93430Y102159D01*
X93447Y102155D01*
X93466Y102151D01*
X93467Y102151D01*
X93468Y102151D01*
X93484Y102144D01*
X93502Y102136D01*
X93536Y102118D01*
X93546Y102111D01*
X93557Y102105D01*
X93562Y102100D01*
X93568Y102096D01*
X93577Y102087D01*
X93586Y102079D01*
X93590Y102073D01*
X93595Y102068D01*
X93602Y102058D01*
X93609Y102048D01*
X93706Y101893D01*
X93708Y101890D01*
X93710Y101887D01*
X93819Y101696D01*
X93821Y101693D01*
X93823Y101690D01*
X93942Y101463D01*
X93944Y101458D01*
X93946Y101453D01*
X94514Y100210D01*
X94516Y100203D01*
X94519Y100197D01*
X95039Y98817D01*
X95041Y98811D01*
X95043Y98806D01*
X95495Y97351D01*
X95496Y97345D01*
X95498Y97340D01*
X95860Y95873D01*
X95861Y95869D01*
X95862Y95865D01*
X96016Y95104D01*
X96016Y95102D01*
X96016Y95100D01*
X96181Y94192D01*
X96181Y94190D01*
X96181Y94189D01*
X96328Y93318D01*
X96329Y93309D01*
X96330Y93300D01*
X96353Y93023D01*
X96352Y93016D01*
X96353Y93010D01*
X96352Y92997D01*
X96352Y92984D01*
X96351Y92978D01*
X96350Y92971D01*
X96346Y92959D01*
X96344Y92946D01*
X96341Y92940D01*
X96339Y92934D01*
X96333Y92923D01*
X96328Y92911D01*
X96324Y92905D01*
X96321Y92899D01*
X96313Y92889D01*
X96306Y92879D01*
X96301Y92874D01*
X96297Y92869D01*
X96200Y92769D01*
X96185Y92757D01*
X96171Y92745D01*
X96171Y92745D01*
X96170Y92744D01*
X96154Y92735D01*
X96137Y92726D01*
X96137Y92726D01*
X96136Y92726D01*
X96118Y92720D01*
X96100Y92714D01*
X96100Y92714D01*
X96099Y92714D01*
X96080Y92712D01*
X96062Y92710D01*
X96061Y92710D01*
X96061D01*
X96061D01*
X94685Y92685D01*
X94683Y92685D01*
X94682Y92685D01*
X92274Y92669D01*
X92274Y92669D01*
X92273Y92669D01*
X84964Y92665D01*
X84964D01*
X84964D01*
X73772Y92665D01*
X73762Y92666D01*
X73752Y92666D01*
X73743Y92668D01*
X73733Y92669D01*
X73724Y92672D01*
X73714Y92674D01*
X73705Y92677D01*
X73696Y92680D01*
X73687Y92685D01*
X73678Y92689D01*
X73670Y92694D01*
X73662Y92699D01*
X73654Y92705D01*
X73646Y92711D01*
X73639Y92717D01*
X73632Y92723D01*
X73626Y92731D01*
X73619Y92738D01*
X73613Y92746D01*
X73607Y92753D01*
X73603Y92762D01*
X73597Y92770D01*
X73594Y92779D01*
X73589Y92787D01*
X73586Y92797D01*
X73583Y92806D01*
X73581Y92815D01*
X73578Y92824D01*
X73577Y92835D01*
X73575Y92844D01*
X73575Y92854D01*
X73574Y92863D01*
X73575Y92873D01*
X73575Y92883D01*
X73577Y92892D01*
X73578Y92901D01*
X73581Y92911D01*
X73583Y92921D01*
X73634Y93089D01*
X73637Y93094D01*
X73640Y93104D01*
X73754Y93394D01*
X73758Y93401D01*
X73761Y93409D01*
X74129Y94151D01*
X74130Y94153D01*
X74130Y94154D01*
X74511Y94893D01*
X74513Y94896D01*
X74515Y94900D01*
X74788Y95385D01*
X74792Y95390D01*
X74795Y95396D01*
X75377Y96287D01*
X75382Y96292D01*
X75385Y96298D01*
X76060Y97188D01*
X76065Y97193D01*
X76068Y97198D01*
X76774Y98010D01*
X76780Y98016D01*
X76785Y98023D01*
X77457Y98677D01*
X77463Y98682D01*
X77469Y98689D01*
X78078Y99187D01*
X78083Y99190D01*
X78088Y99194D01*
X78782Y99690D01*
X78786Y99692D01*
X78790Y99695D01*
X79441Y100116D01*
X79450Y100120D01*
X79458Y100126D01*
X79467Y100129D01*
X79476Y100134D01*
X79485Y100136D01*
X79495Y100140D01*
X79754Y100214D01*
X79760Y100215D01*
X79767Y100217D01*
X79779Y100218D01*
X79792Y100221D01*
X79799Y100220D01*
X79805Y100221D01*
X79818Y100220D01*
X79831Y100220D01*
X79837Y100218D01*
X79844Y100218D01*
X79856Y100214D01*
X79869Y100212D01*
X79875Y100209D01*
X79881Y100207D01*
X79893Y100201D01*
X79904Y100196D01*
X79910Y100192D01*
X79916Y100189D01*
X80047Y100104D01*
X80062Y100092D01*
X80076Y100081D01*
X80077Y100080D01*
X80077Y100080D01*
X80089Y100066D01*
X80102Y100051D01*
X80102Y100051D01*
X80102Y100050D01*
X80111Y100035D01*
X80120Y100017D01*
X80653Y98800D01*
X80654Y98799D01*
X80655Y98796D01*
X81157Y97577D01*
X81158Y97572D01*
X81160Y97568D01*
X81523Y96558D01*
X81729Y96954D01*
X81730Y96955D01*
X81734Y96964D01*
X82538Y98336D01*
X82544Y98345D01*
X82550Y98353D01*
X83469Y99607D01*
X83476Y99614D01*
X83482Y99623D01*
X84505Y100741D01*
X84513Y100748D01*
X84521Y100757D01*
X85634Y101725D01*
X85642Y101731D01*
X85650Y101737D01*
X85987Y101975D01*
X85992Y101978D01*
X85997Y101982D01*
X86462Y102269D01*
X86465Y102270D01*
X86467Y102272D01*
X86938Y102545D01*
X86945Y102548D01*
X86951Y102552D01*
X86962Y102556D01*
X86974Y102561D01*
X86980Y102563D01*
X86987Y102565D01*
X87122Y102601D01*
X87140Y102604D01*
X87157Y102607D01*
X87159Y102607D01*
X87161Y102607D01*
X87179Y102607D01*
D02*
G37*
%LPC*%
G36*
X129279Y183008D02*
X124913D01*
X124911Y183002D01*
X124893Y182968D01*
X124868Y182938D01*
X124838Y182913D01*
X124804Y182895D01*
X124788Y182890D01*
X124783Y182874D01*
X124765Y182840D01*
X124740Y182810D01*
X124710Y182785D01*
X124676Y182767D01*
X124660Y182762D01*
X124655Y182746D01*
X124637Y182712D01*
X124612Y182682D01*
X124582Y182658D01*
X124548Y182639D01*
X124542Y182638D01*
Y182566D01*
Y182438D01*
Y182310D01*
Y182239D01*
X124548Y182237D01*
X124582Y182219D01*
X124612Y182194D01*
X124637Y182164D01*
X124655Y182130D01*
X124660Y182114D01*
X124676Y182109D01*
X124710Y182091D01*
X124740Y182066D01*
X124765Y182036D01*
X124783Y182002D01*
X124785Y181996D01*
X129407D01*
X129409Y182002D01*
X129427Y182036D01*
X129452Y182066D01*
X129482Y182091D01*
X129516Y182109D01*
X129532Y182114D01*
X129537Y182130D01*
X129555Y182164D01*
X129580Y182194D01*
X129610Y182219D01*
X129644Y182237D01*
X129650Y182239D01*
Y182310D01*
Y182438D01*
Y182566D01*
Y182638D01*
X129644Y182639D01*
X129610Y182658D01*
X129580Y182682D01*
X129555Y182712D01*
X129537Y182746D01*
X129532Y182762D01*
X129516Y182767D01*
X129482Y182785D01*
X129452Y182810D01*
X129427Y182840D01*
X129409Y182874D01*
X129404Y182890D01*
Y182890D01*
X129388Y182895D01*
X129354Y182913D01*
X129324Y182938D01*
X129299Y182968D01*
X129281Y183002D01*
X129279Y183008D01*
D02*
G37*
G36*
X122496D02*
X117746D01*
X117744Y183002D01*
X117726Y182968D01*
X117701Y182938D01*
X117672Y182913D01*
X117637Y182895D01*
X117621Y182890D01*
X117616Y182874D01*
X117598Y182840D01*
X117573Y182810D01*
X117543Y182785D01*
X117509Y182767D01*
X117493Y182762D01*
X117488Y182746D01*
X117470Y182712D01*
X117446Y182682D01*
X117416Y182658D01*
X117381Y182639D01*
X117376Y182638D01*
Y182566D01*
Y182438D01*
Y182310D01*
Y182239D01*
X117381Y182237D01*
X117416Y182219D01*
X117446Y182194D01*
X117470Y182164D01*
X117488Y182130D01*
X117493Y182114D01*
X117509Y182109D01*
X117543Y182091D01*
X117573Y182066D01*
X117598Y182036D01*
X117616Y182002D01*
X117618Y181996D01*
X122624D01*
X122626Y182002D01*
X122644Y182036D01*
X122669Y182066D01*
X122699Y182091D01*
X122733Y182109D01*
X122749Y182114D01*
X122751Y182120D01*
X122754Y182130D01*
X122772Y182164D01*
X122797Y182194D01*
X122827Y182219D01*
X122861Y182237D01*
X122877Y182242D01*
X122882Y182258D01*
X122900Y182292D01*
X122925Y182322D01*
X122955Y182347D01*
X122989Y182365D01*
X122995Y182367D01*
Y182438D01*
Y182510D01*
X122989Y182511D01*
X122955Y182530D01*
X122925Y182554D01*
X122900Y182584D01*
X122882Y182618D01*
X122871Y182655D01*
X122867Y182694D01*
Y182765D01*
X122861Y182767D01*
X122827Y182785D01*
X122797Y182810D01*
X122772Y182840D01*
X122754Y182874D01*
X122752Y182880D01*
X122681D01*
X122642Y182884D01*
X122605Y182895D01*
X122571Y182913D01*
X122541Y182938D01*
X122516Y182968D01*
X122498Y183002D01*
X122496Y183008D01*
D02*
G37*
G36*
X115364Y161543D02*
X104170Y156941D01*
X112340Y148791D01*
X108167Y157136D01*
X108166Y157139D01*
X108164Y157142D01*
X108159Y157157D01*
X108153Y157172D01*
X108153Y157176D01*
X108152Y157179D01*
X108150Y157194D01*
X108147Y157211D01*
X108147Y157214D01*
X108147Y157217D01*
X108148Y157233D01*
X108148Y157249D01*
X108149Y157252D01*
X108149Y157256D01*
X108153Y157272D01*
X108157Y157287D01*
X108158Y157290D01*
X108159Y157293D01*
X108215Y157445D01*
X108216Y157448D01*
X108217Y157451D01*
X108225Y157465D01*
X108232Y157480D01*
X108234Y157482D01*
X108235Y157485D01*
X108245Y157498D01*
X108255Y157511D01*
X108257Y157513D01*
X108259Y157515D01*
X108272Y157526D01*
X108284Y157536D01*
X108287Y157538D01*
X108289Y157540D01*
X108303Y157548D01*
X108318Y157556D01*
X108321Y157557D01*
X108324Y157559D01*
X109515Y158060D01*
X109527Y158064D01*
X109540Y158069D01*
X109546Y158070D01*
X109552Y158072D01*
X109565Y158073D01*
X109578Y158075D01*
X109584Y158075D01*
X109591Y158076D01*
X109604Y158074D01*
X109617Y158074D01*
X109623Y158073D01*
X109629Y158072D01*
X109642Y158069D01*
X109654Y158066D01*
X109660Y158063D01*
X109666Y158061D01*
X109678Y158055D01*
X109690Y158050D01*
X109695Y158046D01*
X109701Y158043D01*
X109711Y158035D01*
X109722Y158027D01*
X109726Y158023D01*
X109731Y158019D01*
X109739Y158009D01*
X109748Y157999D01*
X109751Y157994D01*
X109756Y157989D01*
X109762Y157977D01*
X109769Y157966D01*
X115364Y146753D01*
X120959Y157966D01*
X120966Y157977D01*
X120973Y157989D01*
X120977Y157994D01*
X120980Y157999D01*
X120989Y158009D01*
X120997Y158019D01*
X121002Y158023D01*
X121007Y158027D01*
X121017Y158035D01*
X121028Y158043D01*
X121033Y158046D01*
X121038Y158050D01*
X121050Y158055D01*
X121062Y158061D01*
X121068Y158063D01*
X121074Y158066D01*
X121087Y158069D01*
X121099Y158072D01*
X121105Y158073D01*
X121112Y158074D01*
X121125Y158074D01*
X121138Y158076D01*
X121144Y158075D01*
X121150Y158075D01*
X121163Y158073D01*
X121176Y158072D01*
X121182Y158070D01*
X121189Y158069D01*
X121201Y158064D01*
X121213Y158060D01*
X122405Y157559D01*
X122408Y157557D01*
X122411Y157556D01*
X122425Y157548D01*
X122439Y157540D01*
X122441Y157538D01*
X122444Y157536D01*
X122456Y157526D01*
X122469Y157515D01*
X122471Y157513D01*
X122473Y157511D01*
X122483Y157498D01*
X122493Y157485D01*
X122495Y157482D01*
X122497Y157480D01*
X122504Y157465D01*
X122511Y157451D01*
X122512Y157448D01*
X122513Y157445D01*
X122570Y157293D01*
X122571Y157290D01*
X122572Y157287D01*
X122575Y157271D01*
X122580Y157256D01*
X122580Y157253D01*
X122580Y157249D01*
X122581Y157233D01*
X122582Y157217D01*
X122581Y157214D01*
X122582Y157211D01*
X122579Y157195D01*
X122577Y157179D01*
X122576Y157176D01*
X122575Y157173D01*
X122569Y157157D01*
X122564Y157142D01*
X122562Y157139D01*
X122561Y157136D01*
X118388Y148770D01*
X126559Y156941D01*
X115364Y161543D01*
D02*
G37*
G36*
X144097Y128694D02*
X144101Y128685D01*
X144110Y128681D01*
X144110Y128681D01*
X144110Y128681D01*
X144119Y128673D01*
X144140Y128656D01*
X144140Y128656D01*
X144140Y128656D01*
X144143Y128652D01*
X144164Y128626D01*
X144169Y128616D01*
X144178Y128612D01*
X144178Y128612D01*
X144178Y128612D01*
X144192Y128600D01*
X144208Y128587D01*
X144208Y128587D01*
X144208Y128587D01*
X144216Y128576D01*
X144273Y128576D01*
X144312Y128571D01*
X144338Y128563D01*
X144349Y128560D01*
X144349Y128560D01*
D01*
X144352Y128558D01*
X144382Y128542D01*
X144378Y128550D01*
X144369Y128555D01*
X144369Y128555D01*
X144369D01*
X144362Y128560D01*
X144339Y128580D01*
X144339Y128580D01*
X144339Y128580D01*
X144328Y128593D01*
X144315Y128610D01*
X144315Y128610D01*
X144315Y128610D01*
X144310Y128619D01*
X144301Y128624D01*
X144301Y128624D01*
X144301Y128624D01*
X144285Y128637D01*
X144271Y128649D01*
X144271Y128649D01*
X144271Y128649D01*
X144262Y128659D01*
X144205Y128660D01*
X144167Y128664D01*
X144144Y128671D01*
X144130Y128676D01*
X144130Y128676D01*
D01*
X144097Y128694D01*
D02*
G37*
G36*
X144437Y128485D02*
X144442Y128477D01*
X144450Y128473D01*
X144446Y128481D01*
X144437Y128485D01*
D02*
G37*
G36*
X144505Y128416D02*
X144510Y128408D01*
X144518Y128404D01*
X144513Y128412D01*
X144505Y128416D01*
D02*
G37*
G36*
X144573Y128347D02*
X144577Y128339D01*
X144586Y128334D01*
X144581Y128343D01*
X144573Y128347D01*
D02*
G37*
G36*
X144641Y128278D02*
X144645Y128270D01*
X144654Y128265D01*
X144684Y128240D01*
X144684Y128240D01*
X144684Y128240D01*
X144700Y128221D01*
X144708Y128210D01*
X144708Y128210D01*
X144708Y128210D01*
X144713Y128201D01*
X144722Y128196D01*
X144722Y128196D01*
X144722Y128196D01*
X144731Y128188D01*
X144752Y128171D01*
X144752Y128171D01*
X144752Y128171D01*
X144755Y128167D01*
X144761Y128160D01*
X144817Y128160D01*
X144821Y128159D01*
X144815Y128165D01*
X144815Y128165D01*
X144815Y128165D01*
X144790Y128195D01*
X144785Y128204D01*
X144782Y128206D01*
X144776Y128209D01*
X144776Y128209D01*
X144776Y128209D01*
X144757Y128225D01*
X144747Y128234D01*
X144747Y128234D01*
X144747Y128234D01*
X144737Y128246D01*
X144711Y128248D01*
X144674Y128260D01*
X144641Y128278D01*
D02*
G37*
G36*
X145117Y127931D02*
X145122Y127923D01*
X145130Y127919D01*
X145125Y127927D01*
X145117Y127931D01*
D02*
G37*
%LPD*%
D15*
X25512Y141733D02*
G03*
X30512Y146733I0J5000D01*
G01*
X8152Y186919D02*
G03*
X3937Y182705I0J-4215D01*
G01*
X30512Y157481D02*
G03*
X8143Y186886I-30512J0D01*
G01*
X-30512Y146732D02*
G03*
X-25512Y141732I5000J0D01*
G01*
X-3937Y182704D02*
G03*
X-8152Y186919I-4215J0D01*
G01*
X-8143Y186886D02*
G03*
X-30512Y157480I8143J-29405D01*
G01*
X30512Y128858D02*
G03*
X25512Y133858I-5000J0D01*
G01*
X3937Y92886D02*
G03*
X8152Y88672I4215J0D01*
G01*
X8143Y88705D02*
G03*
X30512Y118110I-8143J29405D01*
G01*
X-30512D02*
G03*
X-8143Y88705I30512J0D01*
G01*
X-8152Y88672D02*
G03*
X-3937Y92886I0J4215D01*
G01*
X-25512Y133858D02*
G03*
X-30512Y128858I0J-5000D01*
G01*
X8937Y133858D02*
G03*
X3937Y128858I0J-5000D01*
G01*
X-3937D02*
G03*
X-8937Y133858I-5000J0D01*
G01*
X3937Y146733D02*
G03*
X8937Y141733I5000J0D01*
G01*
X-8937Y141732D02*
G03*
X-3937Y146732I0J5000D01*
G01*
X194883Y3937D02*
G03*
X187008Y11812I-7875J0D01*
G01*
Y-204725D02*
G03*
X194883Y-196850I0J7875D01*
G01*
X-194883D02*
G03*
X-187008Y-204725I7875J0D01*
G01*
Y11812D02*
G03*
X-194883Y3937I0J-7875D01*
G01*
X-180197Y11811D02*
G03*
X-171661Y15347I0J12071D01*
G01*
X171661D02*
G03*
X180197Y11811I8535J8535D01*
G01*
X-170858Y16150D02*
G03*
X-167323Y24685I-8535J8535D01*
G01*
X162402Y29606D02*
G03*
X165937Y21071I12071J0D01*
G01*
X-163787Y186606D02*
G03*
X-167323Y178071I8535J-8535D01*
G01*
X-132795Y212598D02*
G03*
X-141331Y209063I0J-12071D01*
G01*
X141331D02*
G03*
X132795Y212598I-8535J-8535D01*
G01*
X162402Y182992D02*
G03*
X158866Y191528I-12071J0D01*
G01*
X30512Y146654D02*
X30512Y157481D01*
X3937Y146733D02*
Y182705D01*
X8937Y141733D02*
X25512D01*
X-30512Y157480D02*
X-30512Y146653D01*
X-3937Y146732D02*
Y182704D01*
X-25512Y141732D02*
X-8937D01*
X30512Y118110D02*
Y128937D01*
X3937Y92886D02*
Y128858D01*
X8937Y133858D02*
X25512D01*
X-25512D02*
X-8937D01*
X-3937Y92886D02*
Y128858D01*
X-30512Y118110D02*
Y128937D01*
X194882Y-196850D02*
X194882Y3938D01*
X180197Y11811D02*
X187009D01*
X-187009Y-204724D02*
X187009D01*
X-194882Y-196850D02*
X-194882Y3938D01*
X-187009Y11811D02*
X-180197D01*
X-171661Y15347D02*
X-171260Y15748D01*
X171260D02*
X171661Y15347D01*
X-171260Y15748D02*
X-170858Y16150D01*
X-167323Y24685D02*
Y31575D01*
X165937Y21071D02*
X171260Y15748D01*
X162402Y29606D02*
Y29766D01*
X-167323Y31575D02*
Y178071D01*
X-163787Y186606D02*
X-141331Y209063D01*
X-132795Y212598D02*
X132795D01*
X141331Y209063D02*
X158866Y191528D01*
X162402Y29766D02*
Y182992D01*
D46*
X-185039Y-17717D02*
D03*
Y-161417D02*
D03*
X185039Y-17717D02*
D03*
Y-161417D02*
D03*
D59*
X-59055Y78740D02*
D03*
X59055D02*
D03*
D60*
Y196850D02*
D03*
X-59055D02*
D03*
D61*
X-39011Y-94686D02*
D03*
X38942D02*
D03*
D62*
X-164995Y3700D02*
D03*
X164730Y-190395D02*
D03*
D63*
X-91457Y118110D02*
D03*
X-25000Y26654D02*
D03*
X-15000Y16654D02*
D03*
Y26654D02*
D03*
X-5000Y16654D02*
D03*
X-5000Y26654D02*
D03*
X15000D02*
D03*
X15000Y16654D02*
D03*
X5000Y26654D02*
D03*
Y16654D02*
D03*
X25000Y26654D02*
D03*
Y16654D02*
D03*
X115984Y196850D02*
D03*
X105984D02*
D03*
D64*
X-101457Y118110D02*
D03*
X-25000Y16654D02*
D03*
X125984Y196850D02*
D03*
D65*
X-160433Y59055D02*
D03*
D66*
X-127953Y198819D02*
D03*
X147638Y179134D02*
D03*
Y37402D02*
D03*
X-147638D02*
D03*
D67*
X91339Y8819D02*
D03*
X142574Y-7467D02*
D03*
X182087Y-170067D02*
D03*
X181102Y-192516D02*
D03*
X47244Y8858D02*
D03*
X-66929Y24606D02*
D03*
X179134Y-4951D02*
D03*
X116142Y19685D02*
D03*
X59390D02*
D03*
X-55973Y50868D02*
D03*
Y8858D02*
D03*
X142717Y74803D02*
D03*
X-103475Y79064D02*
D03*
X-110678Y68898D02*
D03*
X-98425Y69882D02*
D03*
X-90748Y14764D02*
D03*
X-64567Y18307D02*
D03*
X-83662Y16733D02*
D03*
X-118109Y27559D02*
D03*
X101519Y127812D02*
D03*
X118110Y111221D02*
D03*
X-110236Y57086D02*
D03*
X-111220Y96457D02*
D03*
X-81694Y96456D02*
D03*
X-74556Y79580D02*
D03*
X-80067Y85091D02*
D03*
X-86956Y82729D02*
D03*
X-158858Y43702D02*
D03*
X-134843Y59055D02*
D03*
X163237Y-165355D02*
D03*
X98425Y-95472D02*
D03*
X85284Y-103151D02*
D03*
X59300Y-40946D02*
D03*
X-44637Y-72048D02*
D03*
X-18653Y-134253D02*
D03*
X-148574Y-103151D02*
D03*
X-122590Y-165355D02*
D03*
X119103Y-7521D02*
D03*
X104484Y-7467D02*
D03*
X163237Y-72048D02*
D03*
X59300Y-103151D02*
D03*
X137253Y-165355D02*
D03*
X63976Y-120079D02*
D03*
X33316Y-40946D02*
D03*
X-70621Y-72048D02*
D03*
X-17717Y-175197D02*
D03*
X-44637Y-134253D02*
D03*
X137253Y-72048D02*
D03*
X163237Y-134253D02*
D03*
X111268Y-165355D02*
D03*
X81013Y-7521D02*
D03*
X66393Y-7467D02*
D03*
X7331Y-40946D02*
D03*
X33316Y-103151D02*
D03*
X-96606Y-72048D02*
D03*
X-70621Y-134253D02*
D03*
X96649Y-71994D02*
D03*
X111268Y-72048D02*
D03*
X137253Y-134253D02*
D03*
X85284Y-165355D02*
D03*
X42922Y-7521D02*
D03*
X-15748Y-62992D02*
D03*
X-18653Y-40946D02*
D03*
X-122590Y-72048D02*
D03*
Y-62992D02*
D03*
X7331Y-103151D02*
D03*
X-96606Y-134253D02*
D03*
X85284Y-72048D02*
D03*
X-18653Y-103151D02*
D03*
X111268Y-134253D02*
D03*
X46308Y-165355D02*
D03*
X-28239Y-7521D02*
D03*
X-44637Y-40946D02*
D03*
X-122590Y-134253D02*
D03*
X-148574Y-72048D02*
D03*
X85284Y-134253D02*
D03*
X64961Y-145669D02*
D03*
X62992Y-61024D02*
D03*
X59300Y-72048D02*
D03*
X-44637Y-103151D02*
D03*
X-66330Y-7521D02*
D03*
X-70621Y-40946D02*
D03*
X7332Y-165355D02*
D03*
X-148574Y-134253D02*
D03*
X167323Y-95472D02*
D03*
X137253Y-40946D02*
D03*
X163237Y-103151D02*
D03*
X148617Y-103096D02*
D03*
X59300Y-134253D02*
D03*
X33316Y-72048D02*
D03*
X-104420Y-7521D02*
D03*
X-96606Y-40946D02*
D03*
X-31645Y-165355D02*
D03*
X-70621Y-103151D02*
D03*
X111268Y-40946D02*
D03*
X137253Y-103151D02*
D03*
X12795Y-115157D02*
D03*
X33316Y-134253D02*
D03*
X7331Y-72048D02*
D03*
X-142511Y-7521D02*
D03*
X-122590Y-40946D02*
D03*
X-70621Y-165355D02*
D03*
X-96606Y-103151D02*
D03*
Y-165355D02*
D03*
X7331Y-134253D02*
D03*
X111268Y-103151D02*
D03*
X-122590D02*
D03*
X-18653Y-72048D02*
D03*
X-148574Y-40946D02*
D03*
X85284D02*
D03*
M02*
