G04*
G04 #@! TF.GenerationSoftware,Altium Limited,Altium Designer,24.6.1 (21)*
G04*
G04 Layer_Color=2752767*
%FSLAX25Y25*%
%MOIN*%
G70*
G04*
G04 #@! TF.SameCoordinates,01E0CDA6-314E-44D1-A422-088EE61E0F49*
G04*
G04*
G04 #@! TF.FilePolarity,Positive*
G04*
G01*
G75*
%ADD15C,0.00394*%
%ADD16C,0.00591*%
%ADD82C,0.00200*%
%ADD83C,0.00945*%
D15*
X25512Y141733D02*
G03*
X30512Y146733I0J5000D01*
G01*
X8152Y186919D02*
G03*
X3937Y182705I0J-4215D01*
G01*
X30512Y157481D02*
G03*
X8143Y186886I-30512J0D01*
G01*
X-30512Y146732D02*
G03*
X-25512Y141732I5000J0D01*
G01*
X-3937Y182704D02*
G03*
X-8152Y186919I-4215J0D01*
G01*
X-8143Y186886D02*
G03*
X-30512Y157480I8143J-29405D01*
G01*
X30512Y128858D02*
G03*
X25512Y133858I-5000J0D01*
G01*
X3937Y92886D02*
G03*
X8152Y88672I4215J0D01*
G01*
X8143Y88705D02*
G03*
X30512Y118110I-8143J29405D01*
G01*
X-30512D02*
G03*
X-8143Y88705I30512J0D01*
G01*
X-8152Y88672D02*
G03*
X-3937Y92886I0J4215D01*
G01*
X-25512Y133858D02*
G03*
X-30512Y128858I0J-5000D01*
G01*
X8937Y133858D02*
G03*
X3937Y128858I0J-5000D01*
G01*
X-3937D02*
G03*
X-8937Y133858I-5000J0D01*
G01*
X3937Y146733D02*
G03*
X8937Y141733I5000J0D01*
G01*
X-8937Y141732D02*
G03*
X-3937Y146732I0J5000D01*
G01*
X194883Y3937D02*
G03*
X187008Y11812I-7875J0D01*
G01*
Y-204725D02*
G03*
X194883Y-196850I0J7875D01*
G01*
X-194883D02*
G03*
X-187008Y-204725I7875J0D01*
G01*
Y11812D02*
G03*
X-194883Y3937I0J-7875D01*
G01*
X-180197Y11811D02*
G03*
X-171661Y15347I0J12071D01*
G01*
X171661D02*
G03*
X180197Y11811I8535J8535D01*
G01*
X-170858Y16150D02*
G03*
X-167323Y24685I-8535J8535D01*
G01*
X162402Y29606D02*
G03*
X165937Y21071I12071J0D01*
G01*
X-163787Y186606D02*
G03*
X-167323Y178071I8535J-8535D01*
G01*
X-132795Y212598D02*
G03*
X-141331Y209063I0J-12071D01*
G01*
X141331D02*
G03*
X132795Y212598I-8535J-8535D01*
G01*
X162402Y182992D02*
G03*
X158866Y191528I-12071J0D01*
G01*
X30512Y146654D02*
X30512Y157481D01*
X3937Y146733D02*
Y182705D01*
X8937Y141733D02*
X25512D01*
X-30512Y157480D02*
X-30512Y146653D01*
X-3937Y146732D02*
Y182704D01*
X-25512Y141732D02*
X-8937D01*
X30512Y118110D02*
Y128937D01*
X3937Y92886D02*
Y128858D01*
X8937Y133858D02*
X25512D01*
X-25512D02*
X-8937D01*
X-3937Y92886D02*
Y128858D01*
X-30512Y118110D02*
Y128937D01*
X194882Y-196850D02*
X194882Y3938D01*
X180197Y11811D02*
X187009D01*
X-187009Y-204724D02*
X187009D01*
X-194882Y-196850D02*
X-194882Y3938D01*
X-187009Y11811D02*
X-180197D01*
X-171661Y15347D02*
X-171260Y15748D01*
X171260D02*
X171661Y15347D01*
X-171260Y15748D02*
X-170858Y16150D01*
X-167323Y24685D02*
Y31575D01*
X165937Y21071D02*
X171260Y15748D01*
X162402Y29606D02*
Y29766D01*
X-167323Y31575D02*
Y178071D01*
X-163787Y186606D02*
X-141331Y209063D01*
X-132795Y212598D02*
X132795D01*
X141331Y209063D02*
X158866Y191528D01*
X162402Y29766D02*
Y182992D01*
D16*
X327512Y129568D02*
G03*
X327512Y129568I-1750J0D01*
G01*
X320853Y156952D02*
X809722D01*
X320853Y93960D02*
X809722D01*
X320853Y86086D02*
X809722D01*
Y164826D01*
X320853D02*
X809722D01*
X320853Y86086D02*
Y164826D01*
X735885Y86086D02*
Y164826D01*
X690228Y86086D02*
Y164826D01*
X655906Y86086D02*
Y164826D01*
X616547Y86086D02*
Y164826D01*
X585374Y86086D02*
Y164826D01*
X506526Y86086D02*
Y164826D01*
X467796Y86086D02*
Y164826D01*
X441031Y86086D02*
Y164826D01*
X381075Y86086D02*
Y164826D01*
X349980Y86086D02*
Y164826D01*
X324012Y152315D02*
X324887D01*
X324012D02*
Y154065D01*
X324887D01*
Y154940D01*
X326637D01*
Y154065D02*
Y154940D01*
Y154065D02*
X327512D01*
Y152315D02*
Y154065D01*
X326637Y152315D02*
X327512D01*
X326637Y151440D02*
Y152315D01*
X324887Y151440D02*
X326637D01*
X324887D02*
Y152315D01*
X324012Y143566D02*
Y144441D01*
X324887Y145316D01*
X324012Y146191D02*
X324887Y145316D01*
X324012Y146191D02*
Y147066D01*
X324887D01*
X325762Y146191D01*
X326637Y147066D01*
X327512D01*
Y146191D02*
Y147066D01*
X326637Y145316D02*
X327512Y146191D01*
X326637Y145316D02*
X327512Y144441D01*
Y143566D02*
Y144441D01*
X326637Y143566D02*
X327512D01*
X325762Y144441D02*
X326637Y143566D01*
X324887D02*
X325762Y144441D01*
X324012Y143566D02*
X324887D01*
Y136567D02*
X325762Y135692D01*
X324012Y136567D02*
X324887D01*
X324012D02*
X324887Y137442D01*
X324012Y138317D02*
X324887Y137442D01*
X324012Y138317D02*
X324887D01*
X325762Y139192D01*
X326637Y138317D01*
X327512D01*
X326637Y137442D02*
X327512Y138317D01*
X326637Y137442D02*
X327512Y136567D01*
X326637D02*
X327512D01*
X325762Y135692D02*
X326637Y136567D01*
X324012Y121694D02*
X325762Y119944D01*
X327512Y121694D01*
X325762Y123444D02*
X327512Y121694D01*
X324012D02*
X325762Y123444D01*
X324012Y112070D02*
X325762Y112945D01*
X327512Y112070D01*
X326637Y113820D02*
X327512Y112070D01*
X326637Y113820D02*
X327512Y115570D01*
X325762Y114695D02*
X327512Y115570D01*
X324012D02*
X325762Y114695D01*
X324012Y115570D02*
X324887Y113820D01*
X324012Y112070D02*
X324887Y113820D01*
X324012Y104196D02*
X327512D01*
Y107696D01*
X324012D02*
X327512D01*
X324012Y104196D02*
Y107696D01*
X325762Y96322D02*
X327512Y99822D01*
X324012D02*
X327512D01*
X324012D02*
X325762Y96322D01*
X738247Y153014D02*
X740346D01*
X738247Y145140D02*
X740346D01*
X738247Y137266D02*
X740346D01*
X738247Y129392D02*
X740346D01*
X738247Y121518D02*
X740346D01*
X738247Y113644D02*
X740346D01*
X738247Y105770D02*
X740346D01*
X738247Y97896D02*
X740346D01*
X692590Y153014D02*
X694689D01*
X692590Y145140D02*
X694689D01*
X692590Y137266D02*
X694689D01*
X692590Y129392D02*
X694689D01*
X692590Y121518D02*
X694689D01*
X692590Y113644D02*
X694689D01*
X692590Y105770D02*
X694689D01*
X692590Y97896D02*
X694689D01*
X660368Y153539D02*
X658793D01*
X658269Y153014D01*
Y151965D01*
X658793Y151440D01*
X660368D01*
X663516Y154589D02*
X661417D01*
Y153014D01*
X662467Y153539D01*
X662992D01*
X663516Y153014D01*
Y151965D01*
X662992Y151440D01*
X661942D01*
X661417Y151965D01*
X664566Y154064D02*
X665091Y154589D01*
X666140D01*
X666665Y154064D01*
Y151965D01*
X666140Y151440D01*
X665091D01*
X664566Y151965D01*
Y154064D01*
X667714Y154589D02*
Y151440D01*
Y153014D01*
X668239Y153539D01*
X669289D01*
X669813Y153014D01*
Y151440D01*
X670863D02*
Y153539D01*
X672437D01*
X672962Y153014D01*
Y151440D01*
X676111Y154589D02*
X674012D01*
Y153014D01*
X675061Y153539D01*
X675586D01*
X676111Y153014D01*
Y151965D01*
X675586Y151440D01*
X674536D01*
X674012Y151965D01*
X677160Y154064D02*
X677685Y154589D01*
X678734D01*
X679259Y154064D01*
Y151965D01*
X678734Y151440D01*
X677685D01*
X677160Y151965D01*
Y154064D01*
X660368Y145665D02*
X658793D01*
X658269Y145140D01*
Y144091D01*
X658793Y143566D01*
X660368D01*
X661417D02*
X662467D01*
X661942D01*
Y146715D01*
X661417Y146190D01*
X666140Y143566D02*
X664041D01*
X666140Y145665D01*
Y146190D01*
X665615Y146715D01*
X664566D01*
X664041Y146190D01*
X667190D02*
X667714Y146715D01*
X668764D01*
X669289Y146190D01*
Y144091D01*
X668764Y143566D01*
X667714D01*
X667190Y144091D01*
Y146190D01*
X670338Y146715D02*
Y143566D01*
Y145140D01*
X670863Y145665D01*
X671912D01*
X672437Y145140D01*
Y143566D01*
X673487D02*
X674536D01*
X674012D01*
Y146715D01*
X673487Y146190D01*
X678210Y143566D02*
X676111D01*
X678210Y145665D01*
Y146190D01*
X677685Y146715D01*
X676635D01*
X676111Y146190D01*
X679259D02*
X679784Y146715D01*
X680833D01*
X681358Y146190D01*
Y144091D01*
X680833Y143566D01*
X679784D01*
X679259Y144091D01*
Y146190D01*
X660368Y137791D02*
X658793D01*
X658269Y137266D01*
Y136217D01*
X658793Y135692D01*
X660368D01*
X661417D02*
X662467D01*
X661942D01*
Y138841D01*
X661417Y138316D01*
X666140Y135692D02*
X664041D01*
X666140Y137791D01*
Y138316D01*
X665615Y138841D01*
X664566D01*
X664041Y138316D01*
X667190Y138841D02*
X669289D01*
Y138316D01*
X667190Y136217D01*
Y135692D01*
X670338Y138841D02*
Y135692D01*
Y137266D01*
X670863Y137791D01*
X671912D01*
X672437Y137266D01*
Y135692D01*
X673487D02*
Y137791D01*
X675061D01*
X675586Y137266D01*
Y135692D01*
X676635D02*
X677685D01*
X677160D01*
Y138841D01*
X676635Y138316D01*
X681358Y135692D02*
X679259D01*
X681358Y137791D01*
Y138316D01*
X680833Y138841D01*
X679784D01*
X679259Y138316D01*
X682408Y138841D02*
X684507D01*
Y138316D01*
X682408Y136217D01*
Y135692D01*
X660368Y129917D02*
X658793D01*
X658269Y129392D01*
Y128343D01*
X658793Y127818D01*
X660368D01*
X663516D02*
X661417D01*
X663516Y129917D01*
Y130442D01*
X662992Y130967D01*
X661942D01*
X661417Y130442D01*
X666665Y127818D02*
X664566D01*
X666665Y129917D01*
Y130442D01*
X666140Y130967D01*
X665091D01*
X664566Y130442D01*
X667714D02*
X668239Y130967D01*
X669289D01*
X669813Y130442D01*
Y128343D01*
X669289Y127818D01*
X668239D01*
X667714Y128343D01*
Y130442D01*
X670863Y130967D02*
Y127818D01*
Y129392D01*
X671388Y129917D01*
X672437D01*
X672962Y129392D01*
Y127818D01*
X674012D02*
Y129917D01*
X675586D01*
X676111Y129392D01*
Y127818D01*
X679259D02*
X677160D01*
X679259Y129917D01*
Y130442D01*
X678734Y130967D01*
X677685D01*
X677160Y130442D01*
X682408Y127818D02*
X680309D01*
X682408Y129917D01*
Y130442D01*
X681883Y130967D01*
X680833D01*
X680309Y130442D01*
X683457D02*
X683982Y130967D01*
X685032D01*
X685556Y130442D01*
Y128343D01*
X685032Y127818D01*
X683982D01*
X683457Y128343D01*
Y130442D01*
X660368Y122043D02*
X658793D01*
X658269Y121518D01*
Y120469D01*
X658793Y119944D01*
X660368D01*
X661417Y122568D02*
X661942Y123093D01*
X662992D01*
X663516Y122568D01*
Y122043D01*
X662992Y121518D01*
X662467D01*
X662992D01*
X663516Y120994D01*
Y120469D01*
X662992Y119944D01*
X661942D01*
X661417Y120469D01*
X664566Y122568D02*
X665091Y123093D01*
X666140D01*
X666665Y122568D01*
Y120469D01*
X666140Y119944D01*
X665091D01*
X664566Y120469D01*
Y122568D01*
X667714D02*
X668239Y123093D01*
X669289D01*
X669813Y122568D01*
Y120469D01*
X669289Y119944D01*
X668239D01*
X667714Y120469D01*
Y122568D01*
X670863Y123093D02*
Y119944D01*
Y121518D01*
X671388Y122043D01*
X672437D01*
X672962Y121518D01*
Y119944D01*
X674012D02*
Y122043D01*
X675586D01*
X676111Y121518D01*
Y119944D01*
X677160Y122568D02*
X677685Y123093D01*
X678734D01*
X679259Y122568D01*
Y122043D01*
X678734Y121518D01*
X678210D01*
X678734D01*
X679259Y120994D01*
Y120469D01*
X678734Y119944D01*
X677685D01*
X677160Y120469D01*
X680309Y122568D02*
X680833Y123093D01*
X681883D01*
X682408Y122568D01*
Y120469D01*
X681883Y119944D01*
X680833D01*
X680309Y120469D01*
Y122568D01*
X683457D02*
X683982Y123093D01*
X685032D01*
X685556Y122568D01*
Y120469D01*
X685032Y119944D01*
X683982D01*
X683457Y120469D01*
Y122568D01*
X659318Y112070D02*
X658269Y113120D01*
Y114169D01*
X659318Y115219D01*
X660892Y112070D02*
Y115219D01*
X661942Y114169D01*
X662992Y115219D01*
Y112070D01*
X664041D02*
X665091D01*
X664566D01*
Y114169D01*
X664041D01*
X666665D02*
X668764Y112070D01*
X667714Y113120D01*
X668764Y114169D01*
X666665Y112070D01*
X671388D02*
X670338D01*
X669813Y112595D01*
Y113644D01*
X670338Y114169D01*
X671388D01*
X671912Y113644D01*
Y113120D01*
X669813D01*
X675061Y115219D02*
Y112070D01*
X673487D01*
X672962Y112595D01*
Y113644D01*
X673487Y114169D01*
X675061D01*
X676111Y112070D02*
X677160Y113120D01*
Y114169D01*
X676111Y115219D01*
X659318Y104196D02*
X658269Y105246D01*
Y106295D01*
X659318Y107345D01*
X660892Y104196D02*
Y107345D01*
X661942Y106295D01*
X662992Y107345D01*
Y104196D01*
X664041D02*
X665091D01*
X664566D01*
Y106295D01*
X664041D01*
X666665D02*
X668764Y104196D01*
X667714Y105246D01*
X668764Y106295D01*
X666665Y104196D01*
X671388D02*
X670338D01*
X669813Y104721D01*
Y105770D01*
X670338Y106295D01*
X671388D01*
X671912Y105770D01*
Y105246D01*
X669813D01*
X675061Y107345D02*
Y104196D01*
X673487D01*
X672962Y104721D01*
Y105770D01*
X673487Y106295D01*
X675061D01*
X676111Y104196D02*
X677160Y105246D01*
Y106295D01*
X676111Y107345D01*
X658269Y98421D02*
X659318Y96322D01*
X660368Y98421D01*
X663516Y99471D02*
X662467Y98946D01*
X661417Y97896D01*
Y96847D01*
X661942Y96322D01*
X662992D01*
X663516Y96847D01*
Y97372D01*
X662992Y97896D01*
X661417D01*
X664566Y98946D02*
X665091Y99471D01*
X666140D01*
X666665Y98946D01*
Y96847D01*
X666140Y96322D01*
X665091D01*
X664566Y96847D01*
Y98946D01*
X667714Y99471D02*
Y96322D01*
Y97896D01*
X668239Y98421D01*
X669289D01*
X669813Y97896D01*
Y96322D01*
X672962D02*
X670863D01*
X672962Y98421D01*
Y98946D01*
X672437Y99471D01*
X671388D01*
X670863Y98946D01*
X676111Y99471D02*
X674012D01*
Y97896D01*
X675061Y98421D01*
X675586D01*
X676111Y97896D01*
Y96847D01*
X675586Y96322D01*
X674536D01*
X674012Y96847D01*
X677160Y96322D02*
Y98421D01*
X677685D01*
X678210Y97896D01*
Y96322D01*
Y97896D01*
X678734Y98421D01*
X679259Y97896D01*
Y96322D01*
X681883D02*
Y99471D01*
X680309Y97896D01*
X682408D01*
X685556Y99471D02*
X683457D01*
Y97896D01*
X684507Y98421D01*
X685032D01*
X685556Y97896D01*
Y96847D01*
X685032Y96322D01*
X683982D01*
X683457Y96847D01*
X618909Y151440D02*
Y154589D01*
X620483D01*
X621008Y154064D01*
Y153014D01*
X620483Y152490D01*
X618909D01*
X619959D02*
X621008Y151440D01*
X622582D02*
X623632D01*
X624157Y151965D01*
Y153014D01*
X623632Y153539D01*
X622582D01*
X622058Y153014D01*
Y151965D01*
X622582Y151440D01*
X625206Y153539D02*
Y151965D01*
X625731Y151440D01*
X627305D01*
Y153539D01*
X628355Y151440D02*
Y153539D01*
X629929D01*
X630454Y153014D01*
Y151440D01*
X633603Y154589D02*
Y151440D01*
X632028D01*
X631503Y151965D01*
Y153014D01*
X632028Y153539D01*
X633603D01*
X636226Y151440D02*
X635177D01*
X634652Y151965D01*
Y153014D01*
X635177Y153539D01*
X636226D01*
X636751Y153014D01*
Y152490D01*
X634652D01*
X639900Y154589D02*
Y151440D01*
X638325D01*
X637801Y151965D01*
Y153014D01*
X638325Y153539D01*
X639900D01*
X618909Y143566D02*
Y146715D01*
X620483D01*
X621008Y146190D01*
Y145140D01*
X620483Y144616D01*
X618909D01*
X619959D02*
X621008Y143566D01*
X622582D02*
X623632D01*
X624157Y144091D01*
Y145140D01*
X623632Y145665D01*
X622582D01*
X622058Y145140D01*
Y144091D01*
X622582Y143566D01*
X625206Y145665D02*
Y144091D01*
X625731Y143566D01*
X627305D01*
Y145665D01*
X628355Y143566D02*
Y145665D01*
X629929D01*
X630454Y145140D01*
Y143566D01*
X633603Y146715D02*
Y143566D01*
X632028D01*
X631503Y144091D01*
Y145140D01*
X632028Y145665D01*
X633603D01*
X636226Y143566D02*
X635177D01*
X634652Y144091D01*
Y145140D01*
X635177Y145665D01*
X636226D01*
X636751Y145140D01*
Y144616D01*
X634652D01*
X639900Y146715D02*
Y143566D01*
X638325D01*
X637801Y144091D01*
Y145140D01*
X638325Y145665D01*
X639900D01*
X618909Y135692D02*
Y138841D01*
X620483D01*
X621008Y138316D01*
Y137266D01*
X620483Y136742D01*
X618909D01*
X619959D02*
X621008Y135692D01*
X622582D02*
X623632D01*
X624157Y136217D01*
Y137266D01*
X623632Y137791D01*
X622582D01*
X622058Y137266D01*
Y136217D01*
X622582Y135692D01*
X625206Y137791D02*
Y136217D01*
X625731Y135692D01*
X627305D01*
Y137791D01*
X628355Y135692D02*
Y137791D01*
X629929D01*
X630454Y137266D01*
Y135692D01*
X633603Y138841D02*
Y135692D01*
X632028D01*
X631503Y136217D01*
Y137266D01*
X632028Y137791D01*
X633603D01*
X636226Y135692D02*
X635177D01*
X634652Y136217D01*
Y137266D01*
X635177Y137791D01*
X636226D01*
X636751Y137266D01*
Y136742D01*
X634652D01*
X639900Y138841D02*
Y135692D01*
X638325D01*
X637801Y136217D01*
Y137266D01*
X638325Y137791D01*
X639900D01*
X618909Y127818D02*
Y130967D01*
X620483D01*
X621008Y130442D01*
Y129392D01*
X620483Y128868D01*
X618909D01*
X619959D02*
X621008Y127818D01*
X622582D02*
X623632D01*
X624157Y128343D01*
Y129392D01*
X623632Y129917D01*
X622582D01*
X622058Y129392D01*
Y128343D01*
X622582Y127818D01*
X625206Y129917D02*
Y128343D01*
X625731Y127818D01*
X627305D01*
Y129917D01*
X628355Y127818D02*
Y129917D01*
X629929D01*
X630454Y129392D01*
Y127818D01*
X633603Y130967D02*
Y127818D01*
X632028D01*
X631503Y128343D01*
Y129392D01*
X632028Y129917D01*
X633603D01*
X636226Y127818D02*
X635177D01*
X634652Y128343D01*
Y129392D01*
X635177Y129917D01*
X636226D01*
X636751Y129392D01*
Y128868D01*
X634652D01*
X639900Y130967D02*
Y127818D01*
X638325D01*
X637801Y128343D01*
Y129392D01*
X638325Y129917D01*
X639900D01*
X618909Y119944D02*
Y123093D01*
X620483D01*
X621008Y122568D01*
Y121518D01*
X620483Y120994D01*
X618909D01*
X619959D02*
X621008Y119944D01*
X622582D02*
X623632D01*
X624157Y120469D01*
Y121518D01*
X623632Y122043D01*
X622582D01*
X622058Y121518D01*
Y120469D01*
X622582Y119944D01*
X625206Y122043D02*
Y120469D01*
X625731Y119944D01*
X627305D01*
Y122043D01*
X628355Y119944D02*
Y122043D01*
X629929D01*
X630454Y121518D01*
Y119944D01*
X633603Y123093D02*
Y119944D01*
X632028D01*
X631503Y120469D01*
Y121518D01*
X632028Y122043D01*
X633603D01*
X636226Y119944D02*
X635177D01*
X634652Y120469D01*
Y121518D01*
X635177Y122043D01*
X636226D01*
X636751Y121518D01*
Y120994D01*
X634652D01*
X639900Y123093D02*
Y119944D01*
X638325D01*
X637801Y120469D01*
Y121518D01*
X638325Y122043D01*
X639900D01*
X618909Y112070D02*
Y115219D01*
X620483D01*
X621008Y114694D01*
Y113644D01*
X620483Y113120D01*
X618909D01*
X619959D02*
X621008Y112070D01*
X622582D02*
X623632D01*
X624157Y112595D01*
Y113644D01*
X623632Y114169D01*
X622582D01*
X622058Y113644D01*
Y112595D01*
X622582Y112070D01*
X625206Y114169D02*
Y112595D01*
X625731Y112070D01*
X627305D01*
Y114169D01*
X628355Y112070D02*
Y114169D01*
X629929D01*
X630454Y113644D01*
Y112070D01*
X633603Y115219D02*
Y112070D01*
X632028D01*
X631503Y112595D01*
Y113644D01*
X632028Y114169D01*
X633603D01*
X636226Y112070D02*
X635177D01*
X634652Y112595D01*
Y113644D01*
X635177Y114169D01*
X636226D01*
X636751Y113644D01*
Y113120D01*
X634652D01*
X639900Y115219D02*
Y112070D01*
X638325D01*
X637801Y112595D01*
Y113644D01*
X638325Y114169D01*
X639900D01*
X619959Y104196D02*
X618909Y105246D01*
Y106295D01*
X619959Y107345D01*
X621533Y104196D02*
Y107345D01*
X622582Y106295D01*
X623632Y107345D01*
Y104196D01*
X624682D02*
X625731D01*
X625206D01*
Y106295D01*
X624682D01*
X627305D02*
X629404Y104196D01*
X628355Y105246D01*
X629404Y106295D01*
X627305Y104196D01*
X632028D02*
X630979D01*
X630454Y104721D01*
Y105770D01*
X630979Y106295D01*
X632028D01*
X632553Y105770D01*
Y105246D01*
X630454D01*
X635702Y107345D02*
Y104196D01*
X634127D01*
X633603Y104721D01*
Y105770D01*
X634127Y106295D01*
X635702D01*
X636751Y104196D02*
X637801Y105246D01*
Y106295D01*
X636751Y107345D01*
X618909Y96322D02*
Y99471D01*
X620483D01*
X621008Y98946D01*
Y97896D01*
X620483Y97372D01*
X618909D01*
X619959D02*
X621008Y96322D01*
X622582D02*
X623632D01*
X624157Y96847D01*
Y97896D01*
X623632Y98421D01*
X622582D01*
X622058Y97896D01*
Y96847D01*
X622582Y96322D01*
X625206Y98421D02*
Y96847D01*
X625731Y96322D01*
X627305D01*
Y98421D01*
X628355Y96322D02*
Y98421D01*
X629929D01*
X630454Y97896D01*
Y96322D01*
X633603Y99471D02*
Y96322D01*
X632028D01*
X631503Y96847D01*
Y97896D01*
X632028Y98421D01*
X633603D01*
X636226Y96322D02*
X635177D01*
X634652Y96847D01*
Y97896D01*
X635177Y98421D01*
X636226D01*
X636751Y97896D01*
Y97372D01*
X634652D01*
X639900Y99471D02*
Y96322D01*
X638325D01*
X637801Y96847D01*
Y97896D01*
X638325Y98421D01*
X639900D01*
X587736Y151440D02*
Y154589D01*
X589310D01*
X589835Y154064D01*
Y153014D01*
X589310Y152490D01*
X587736D01*
X591409Y153539D02*
X592459D01*
X592984Y153014D01*
Y151440D01*
X591409D01*
X590884Y151965D01*
X591409Y152490D01*
X592984D01*
X596132Y154589D02*
Y151440D01*
X594558D01*
X594033Y151965D01*
Y153014D01*
X594558Y153539D01*
X596132D01*
X587736Y143566D02*
Y146715D01*
X589310D01*
X589835Y146190D01*
Y145140D01*
X589310Y144616D01*
X587736D01*
X591409Y145665D02*
X592459D01*
X592984Y145140D01*
Y143566D01*
X591409D01*
X590884Y144091D01*
X591409Y144616D01*
X592984D01*
X596132Y146715D02*
Y143566D01*
X594558D01*
X594033Y144091D01*
Y145140D01*
X594558Y145665D01*
X596132D01*
X587736Y135692D02*
Y138841D01*
X589310D01*
X589835Y138316D01*
Y137266D01*
X589310Y136742D01*
X587736D01*
X591409Y137791D02*
X592459D01*
X592984Y137266D01*
Y135692D01*
X591409D01*
X590884Y136217D01*
X591409Y136742D01*
X592984D01*
X596132Y138841D02*
Y135692D01*
X594558D01*
X594033Y136217D01*
Y137266D01*
X594558Y137791D01*
X596132D01*
X587736Y127818D02*
Y130967D01*
X589310D01*
X589835Y130442D01*
Y129392D01*
X589310Y128868D01*
X587736D01*
X591409Y129917D02*
X592459D01*
X592984Y129392D01*
Y127818D01*
X591409D01*
X590884Y128343D01*
X591409Y128868D01*
X592984D01*
X596132Y130967D02*
Y127818D01*
X594558D01*
X594033Y128343D01*
Y129392D01*
X594558Y129917D01*
X596132D01*
X587736Y119944D02*
Y123093D01*
X589310D01*
X589835Y122568D01*
Y121518D01*
X589310Y120994D01*
X587736D01*
X591409Y122043D02*
X592459D01*
X592984Y121518D01*
Y119944D01*
X591409D01*
X590884Y120469D01*
X591409Y120994D01*
X592984D01*
X596132Y123093D02*
Y119944D01*
X594558D01*
X594033Y120469D01*
Y121518D01*
X594558Y122043D01*
X596132D01*
X587736Y112070D02*
Y115219D01*
X589310D01*
X589835Y114694D01*
Y113644D01*
X589310Y113120D01*
X587736D01*
X591409Y114169D02*
X592459D01*
X592984Y113644D01*
Y112070D01*
X591409D01*
X590884Y112595D01*
X591409Y113120D01*
X592984D01*
X596132Y115219D02*
Y112070D01*
X594558D01*
X594033Y112595D01*
Y113644D01*
X594558Y114169D01*
X596132D01*
X587736Y104196D02*
Y107345D01*
X589310D01*
X589835Y106820D01*
Y105770D01*
X589310Y105246D01*
X587736D01*
X591409Y106295D02*
X592459D01*
X592984Y105770D01*
Y104196D01*
X591409D01*
X590884Y104721D01*
X591409Y105246D01*
X592984D01*
X596132Y107345D02*
Y104196D01*
X594558D01*
X594033Y104721D01*
Y105770D01*
X594558Y106295D01*
X596132D01*
X587736Y99471D02*
Y97372D01*
X588786Y96322D01*
X589835Y97372D01*
Y99471D01*
X590884Y96322D02*
X591934D01*
X591409D01*
Y98421D01*
X590884D01*
X594033D02*
X595083D01*
X595607Y97896D01*
Y96322D01*
X594033D01*
X593508Y96847D01*
X594033Y97372D01*
X595607D01*
X508888Y154589D02*
X510987D01*
X509938D01*
Y151440D01*
X512562D02*
X513611D01*
X514136Y151965D01*
Y153014D01*
X513611Y153539D01*
X512562D01*
X512037Y153014D01*
Y151965D01*
X512562Y151440D01*
X515185Y150391D02*
Y153539D01*
X516760D01*
X517284Y153014D01*
Y151965D01*
X516760Y151440D01*
X515185D01*
X521483Y154589D02*
Y151440D01*
X523582D01*
X525156Y153539D02*
X526205D01*
X526730Y153014D01*
Y151440D01*
X525156D01*
X524631Y151965D01*
X525156Y152490D01*
X526730D01*
X527780Y153539D02*
Y151965D01*
X528304Y151440D01*
X529879D01*
Y150915D01*
X529354Y150391D01*
X528829D01*
X529879Y151440D02*
Y153539D01*
X532503Y151440D02*
X531453D01*
X530928Y151965D01*
Y153014D01*
X531453Y153539D01*
X532503D01*
X533027Y153014D01*
Y152490D01*
X530928D01*
X534077Y153539D02*
Y151440D01*
Y152490D01*
X534602Y153014D01*
X535126Y153539D01*
X535651D01*
X540374Y153014D02*
X542473D01*
X546671Y154589D02*
Y151440D01*
X548245D01*
X548770Y151965D01*
Y152490D01*
X548245Y153014D01*
X546671D01*
X548245D01*
X548770Y153539D01*
Y154064D01*
X548245Y154589D01*
X546671D01*
X550345Y151440D02*
X551394D01*
X551919Y151965D01*
Y153014D01*
X551394Y153539D01*
X550345D01*
X549820Y153014D01*
Y151965D01*
X550345Y151440D01*
X553493Y154064D02*
Y153539D01*
X552968D01*
X554018D01*
X553493D01*
Y151965D01*
X554018Y151440D01*
X556117Y154064D02*
Y153539D01*
X555592D01*
X556642D01*
X556117D01*
Y151965D01*
X556642Y151440D01*
X558741D02*
X559790D01*
X560315Y151965D01*
Y153014D01*
X559790Y153539D01*
X558741D01*
X558216Y153014D01*
Y151965D01*
X558741Y151440D01*
X561365D02*
Y153539D01*
X561889D01*
X562414Y153014D01*
Y151440D01*
Y153014D01*
X562939Y153539D01*
X563464Y153014D01*
Y151440D01*
X567662Y154589D02*
Y151440D01*
X569761D01*
X571335Y153539D02*
X572385D01*
X572909Y153014D01*
Y151440D01*
X571335D01*
X570810Y151965D01*
X571335Y152490D01*
X572909D01*
X573959Y153539D02*
Y151965D01*
X574484Y151440D01*
X576058D01*
Y150915D01*
X575533Y150391D01*
X575008D01*
X576058Y151440D02*
Y153539D01*
X578682Y151440D02*
X577632D01*
X577108Y151965D01*
Y153014D01*
X577632Y153539D01*
X578682D01*
X579207Y153014D01*
Y152490D01*
X577108D01*
X580256Y153539D02*
Y151440D01*
Y152490D01*
X580781Y153014D01*
X581306Y153539D01*
X581831D01*
X508888Y146715D02*
X510987D01*
X509938D01*
Y143566D01*
X512562D02*
X513611D01*
X514136Y144091D01*
Y145140D01*
X513611Y145665D01*
X512562D01*
X512037Y145140D01*
Y144091D01*
X512562Y143566D01*
X515185Y142517D02*
Y145665D01*
X516760D01*
X517284Y145140D01*
Y144091D01*
X516760Y143566D01*
X515185D01*
X521483Y146715D02*
Y143566D01*
X523582D01*
X525156Y145665D02*
X526205D01*
X526730Y145140D01*
Y143566D01*
X525156D01*
X524631Y144091D01*
X525156Y144616D01*
X526730D01*
X527780Y145665D02*
Y144091D01*
X528304Y143566D01*
X529879D01*
Y143041D01*
X529354Y142517D01*
X528829D01*
X529879Y143566D02*
Y145665D01*
X532503Y143566D02*
X531453D01*
X530928Y144091D01*
Y145140D01*
X531453Y145665D01*
X532503D01*
X533027Y145140D01*
Y144616D01*
X530928D01*
X534077Y145665D02*
Y143566D01*
Y144616D01*
X534602Y145140D01*
X535126Y145665D01*
X535651D01*
X540374Y145140D02*
X542473D01*
X546671Y146715D02*
Y143566D01*
X548245D01*
X548770Y144091D01*
Y144616D01*
X548245Y145140D01*
X546671D01*
X548245D01*
X548770Y145665D01*
Y146190D01*
X548245Y146715D01*
X546671D01*
X550345Y143566D02*
X551394D01*
X551919Y144091D01*
Y145140D01*
X551394Y145665D01*
X550345D01*
X549820Y145140D01*
Y144091D01*
X550345Y143566D01*
X553493Y146190D02*
Y145665D01*
X552968D01*
X554018D01*
X553493D01*
Y144091D01*
X554018Y143566D01*
X556117Y146190D02*
Y145665D01*
X555592D01*
X556642D01*
X556117D01*
Y144091D01*
X556642Y143566D01*
X558741D02*
X559790D01*
X560315Y144091D01*
Y145140D01*
X559790Y145665D01*
X558741D01*
X558216Y145140D01*
Y144091D01*
X558741Y143566D01*
X561365D02*
Y145665D01*
X561889D01*
X562414Y145140D01*
Y143566D01*
Y145140D01*
X562939Y145665D01*
X563464Y145140D01*
Y143566D01*
X567662Y146715D02*
Y143566D01*
X569761D01*
X571335Y145665D02*
X572385D01*
X572909Y145140D01*
Y143566D01*
X571335D01*
X570810Y144091D01*
X571335Y144616D01*
X572909D01*
X573959Y145665D02*
Y144091D01*
X574484Y143566D01*
X576058D01*
Y143041D01*
X575533Y142517D01*
X575008D01*
X576058Y143566D02*
Y145665D01*
X578682Y143566D02*
X577632D01*
X577108Y144091D01*
Y145140D01*
X577632Y145665D01*
X578682D01*
X579207Y145140D01*
Y144616D01*
X577108D01*
X580256Y145665D02*
Y143566D01*
Y144616D01*
X580781Y145140D01*
X581306Y145665D01*
X581831D01*
X508888Y138841D02*
X510987D01*
X509938D01*
Y135692D01*
X512562D02*
X513611D01*
X514136Y136217D01*
Y137266D01*
X513611Y137791D01*
X512562D01*
X512037Y137266D01*
Y136217D01*
X512562Y135692D01*
X515185Y134643D02*
Y137791D01*
X516760D01*
X517284Y137266D01*
Y136217D01*
X516760Y135692D01*
X515185D01*
X521483Y138841D02*
Y135692D01*
X523582D01*
X525156Y137791D02*
X526205D01*
X526730Y137266D01*
Y135692D01*
X525156D01*
X524631Y136217D01*
X525156Y136742D01*
X526730D01*
X527780Y137791D02*
Y136217D01*
X528304Y135692D01*
X529879D01*
Y135167D01*
X529354Y134643D01*
X528829D01*
X529879Y135692D02*
Y137791D01*
X532503Y135692D02*
X531453D01*
X530928Y136217D01*
Y137266D01*
X531453Y137791D01*
X532503D01*
X533027Y137266D01*
Y136742D01*
X530928D01*
X534077Y137791D02*
Y135692D01*
Y136742D01*
X534602Y137266D01*
X535126Y137791D01*
X535651D01*
X540374Y137266D02*
X542473D01*
X546671Y138841D02*
Y135692D01*
X548245D01*
X548770Y136217D01*
Y136742D01*
X548245Y137266D01*
X546671D01*
X548245D01*
X548770Y137791D01*
Y138316D01*
X548245Y138841D01*
X546671D01*
X550345Y135692D02*
X551394D01*
X551919Y136217D01*
Y137266D01*
X551394Y137791D01*
X550345D01*
X549820Y137266D01*
Y136217D01*
X550345Y135692D01*
X553493Y138316D02*
Y137791D01*
X552968D01*
X554018D01*
X553493D01*
Y136217D01*
X554018Y135692D01*
X556117Y138316D02*
Y137791D01*
X555592D01*
X556642D01*
X556117D01*
Y136217D01*
X556642Y135692D01*
X558741D02*
X559790D01*
X560315Y136217D01*
Y137266D01*
X559790Y137791D01*
X558741D01*
X558216Y137266D01*
Y136217D01*
X558741Y135692D01*
X561365D02*
Y137791D01*
X561889D01*
X562414Y137266D01*
Y135692D01*
Y137266D01*
X562939Y137791D01*
X563464Y137266D01*
Y135692D01*
X567662Y138841D02*
Y135692D01*
X569761D01*
X571335Y137791D02*
X572385D01*
X572909Y137266D01*
Y135692D01*
X571335D01*
X570810Y136217D01*
X571335Y136742D01*
X572909D01*
X573959Y137791D02*
Y136217D01*
X574484Y135692D01*
X576058D01*
Y135167D01*
X575533Y134643D01*
X575008D01*
X576058Y135692D02*
Y137791D01*
X578682Y135692D02*
X577632D01*
X577108Y136217D01*
Y137266D01*
X577632Y137791D01*
X578682D01*
X579207Y137266D01*
Y136742D01*
X577108D01*
X580256Y137791D02*
Y135692D01*
Y136742D01*
X580781Y137266D01*
X581306Y137791D01*
X581831D01*
X508888Y130967D02*
X510987D01*
X509938D01*
Y127818D01*
X512562D02*
X513611D01*
X514136Y128343D01*
Y129392D01*
X513611Y129917D01*
X512562D01*
X512037Y129392D01*
Y128343D01*
X512562Y127818D01*
X515185Y126769D02*
Y129917D01*
X516760D01*
X517284Y129392D01*
Y128343D01*
X516760Y127818D01*
X515185D01*
X521483Y130967D02*
Y127818D01*
X523582D01*
X525156Y129917D02*
X526205D01*
X526730Y129392D01*
Y127818D01*
X525156D01*
X524631Y128343D01*
X525156Y128868D01*
X526730D01*
X527780Y129917D02*
Y128343D01*
X528304Y127818D01*
X529879D01*
Y127293D01*
X529354Y126769D01*
X528829D01*
X529879Y127818D02*
Y129917D01*
X532503Y127818D02*
X531453D01*
X530928Y128343D01*
Y129392D01*
X531453Y129917D01*
X532503D01*
X533027Y129392D01*
Y128868D01*
X530928D01*
X534077Y129917D02*
Y127818D01*
Y128868D01*
X534602Y129392D01*
X535126Y129917D01*
X535651D01*
X540374Y129392D02*
X542473D01*
X546671Y130967D02*
Y127818D01*
X548245D01*
X548770Y128343D01*
Y128868D01*
X548245Y129392D01*
X546671D01*
X548245D01*
X548770Y129917D01*
Y130442D01*
X548245Y130967D01*
X546671D01*
X550345Y127818D02*
X551394D01*
X551919Y128343D01*
Y129392D01*
X551394Y129917D01*
X550345D01*
X549820Y129392D01*
Y128343D01*
X550345Y127818D01*
X553493Y130442D02*
Y129917D01*
X552968D01*
X554018D01*
X553493D01*
Y128343D01*
X554018Y127818D01*
X556117Y130442D02*
Y129917D01*
X555592D01*
X556642D01*
X556117D01*
Y128343D01*
X556642Y127818D01*
X558741D02*
X559790D01*
X560315Y128343D01*
Y129392D01*
X559790Y129917D01*
X558741D01*
X558216Y129392D01*
Y128343D01*
X558741Y127818D01*
X561365D02*
Y129917D01*
X561889D01*
X562414Y129392D01*
Y127818D01*
Y129392D01*
X562939Y129917D01*
X563464Y129392D01*
Y127818D01*
X567662Y130967D02*
Y127818D01*
X569761D01*
X571335Y129917D02*
X572385D01*
X572909Y129392D01*
Y127818D01*
X571335D01*
X570810Y128343D01*
X571335Y128868D01*
X572909D01*
X573959Y129917D02*
Y128343D01*
X574484Y127818D01*
X576058D01*
Y127293D01*
X575533Y126769D01*
X575008D01*
X576058Y127818D02*
Y129917D01*
X578682Y127818D02*
X577632D01*
X577108Y128343D01*
Y129392D01*
X577632Y129917D01*
X578682D01*
X579207Y129392D01*
Y128868D01*
X577108D01*
X580256Y129917D02*
Y127818D01*
Y128868D01*
X580781Y129392D01*
X581306Y129917D01*
X581831D01*
X508888Y123093D02*
X510987D01*
X509938D01*
Y119944D01*
X512562D02*
X513611D01*
X514136Y120469D01*
Y121518D01*
X513611Y122043D01*
X512562D01*
X512037Y121518D01*
Y120469D01*
X512562Y119944D01*
X515185Y118895D02*
Y122043D01*
X516760D01*
X517284Y121518D01*
Y120469D01*
X516760Y119944D01*
X515185D01*
X521483Y123093D02*
Y119944D01*
X523582D01*
X525156Y122043D02*
X526205D01*
X526730Y121518D01*
Y119944D01*
X525156D01*
X524631Y120469D01*
X525156Y120994D01*
X526730D01*
X527780Y122043D02*
Y120469D01*
X528304Y119944D01*
X529879D01*
Y119419D01*
X529354Y118895D01*
X528829D01*
X529879Y119944D02*
Y122043D01*
X532503Y119944D02*
X531453D01*
X530928Y120469D01*
Y121518D01*
X531453Y122043D01*
X532503D01*
X533027Y121518D01*
Y120994D01*
X530928D01*
X534077Y122043D02*
Y119944D01*
Y120994D01*
X534602Y121518D01*
X535126Y122043D01*
X535651D01*
X540374Y121518D02*
X542473D01*
X546671Y123093D02*
Y119944D01*
X548245D01*
X548770Y120469D01*
Y120994D01*
X548245Y121518D01*
X546671D01*
X548245D01*
X548770Y122043D01*
Y122568D01*
X548245Y123093D01*
X546671D01*
X550345Y119944D02*
X551394D01*
X551919Y120469D01*
Y121518D01*
X551394Y122043D01*
X550345D01*
X549820Y121518D01*
Y120469D01*
X550345Y119944D01*
X553493Y122568D02*
Y122043D01*
X552968D01*
X554018D01*
X553493D01*
Y120469D01*
X554018Y119944D01*
X556117Y122568D02*
Y122043D01*
X555592D01*
X556642D01*
X556117D01*
Y120469D01*
X556642Y119944D01*
X558741D02*
X559790D01*
X560315Y120469D01*
Y121518D01*
X559790Y122043D01*
X558741D01*
X558216Y121518D01*
Y120469D01*
X558741Y119944D01*
X561365D02*
Y122043D01*
X561889D01*
X562414Y121518D01*
Y119944D01*
Y121518D01*
X562939Y122043D01*
X563464Y121518D01*
Y119944D01*
X567662Y123093D02*
Y119944D01*
X569761D01*
X571335Y122043D02*
X572385D01*
X572909Y121518D01*
Y119944D01*
X571335D01*
X570810Y120469D01*
X571335Y120994D01*
X572909D01*
X573959Y122043D02*
Y120469D01*
X574484Y119944D01*
X576058D01*
Y119419D01*
X575533Y118895D01*
X575008D01*
X576058Y119944D02*
Y122043D01*
X578682Y119944D02*
X577632D01*
X577108Y120469D01*
Y121518D01*
X577632Y122043D01*
X578682D01*
X579207Y121518D01*
Y120994D01*
X577108D01*
X580256Y122043D02*
Y119944D01*
Y120994D01*
X580781Y121518D01*
X581306Y122043D01*
X581831D01*
X508888Y115219D02*
X510987D01*
X509938D01*
Y112070D01*
X512562D02*
X513611D01*
X514136Y112595D01*
Y113644D01*
X513611Y114169D01*
X512562D01*
X512037Y113644D01*
Y112595D01*
X512562Y112070D01*
X515185Y111021D02*
Y114169D01*
X516760D01*
X517284Y113644D01*
Y112595D01*
X516760Y112070D01*
X515185D01*
X521483Y115219D02*
Y112070D01*
X523582D01*
X525156Y114169D02*
X526205D01*
X526730Y113644D01*
Y112070D01*
X525156D01*
X524631Y112595D01*
X525156Y113120D01*
X526730D01*
X527780Y114169D02*
Y112595D01*
X528304Y112070D01*
X529879D01*
Y111545D01*
X529354Y111021D01*
X528829D01*
X529879Y112070D02*
Y114169D01*
X532503Y112070D02*
X531453D01*
X530928Y112595D01*
Y113644D01*
X531453Y114169D01*
X532503D01*
X533027Y113644D01*
Y113120D01*
X530928D01*
X534077Y114169D02*
Y112070D01*
Y113120D01*
X534602Y113644D01*
X535126Y114169D01*
X535651D01*
X540374Y113644D02*
X542473D01*
X546671Y115219D02*
Y112070D01*
X548245D01*
X548770Y112595D01*
Y113120D01*
X548245Y113644D01*
X546671D01*
X548245D01*
X548770Y114169D01*
Y114694D01*
X548245Y115219D01*
X546671D01*
X550345Y112070D02*
X551394D01*
X551919Y112595D01*
Y113644D01*
X551394Y114169D01*
X550345D01*
X549820Y113644D01*
Y112595D01*
X550345Y112070D01*
X553493Y114694D02*
Y114169D01*
X552968D01*
X554018D01*
X553493D01*
Y112595D01*
X554018Y112070D01*
X556117Y114694D02*
Y114169D01*
X555592D01*
X556642D01*
X556117D01*
Y112595D01*
X556642Y112070D01*
X558741D02*
X559790D01*
X560315Y112595D01*
Y113644D01*
X559790Y114169D01*
X558741D01*
X558216Y113644D01*
Y112595D01*
X558741Y112070D01*
X561365D02*
Y114169D01*
X561889D01*
X562414Y113644D01*
Y112070D01*
Y113644D01*
X562939Y114169D01*
X563464Y113644D01*
Y112070D01*
X567662Y115219D02*
Y112070D01*
X569761D01*
X571335Y114169D02*
X572385D01*
X572909Y113644D01*
Y112070D01*
X571335D01*
X570810Y112595D01*
X571335Y113120D01*
X572909D01*
X573959Y114169D02*
Y112595D01*
X574484Y112070D01*
X576058D01*
Y111545D01*
X575533Y111021D01*
X575008D01*
X576058Y112070D02*
Y114169D01*
X578682Y112070D02*
X577632D01*
X577108Y112595D01*
Y113644D01*
X577632Y114169D01*
X578682D01*
X579207Y113644D01*
Y113120D01*
X577108D01*
X580256Y114169D02*
Y112070D01*
Y113120D01*
X580781Y113644D01*
X581306Y114169D01*
X581831D01*
X508888Y107345D02*
X510987D01*
X509938D01*
Y104196D01*
X512562D02*
X513611D01*
X514136Y104721D01*
Y105770D01*
X513611Y106295D01*
X512562D01*
X512037Y105770D01*
Y104721D01*
X512562Y104196D01*
X515185Y103147D02*
Y106295D01*
X516760D01*
X517284Y105770D01*
Y104721D01*
X516760Y104196D01*
X515185D01*
X521483Y107345D02*
Y104196D01*
X523582D01*
X525156Y106295D02*
X526205D01*
X526730Y105770D01*
Y104196D01*
X525156D01*
X524631Y104721D01*
X525156Y105246D01*
X526730D01*
X527780Y106295D02*
Y104721D01*
X528304Y104196D01*
X529879D01*
Y103671D01*
X529354Y103147D01*
X528829D01*
X529879Y104196D02*
Y106295D01*
X532503Y104196D02*
X531453D01*
X530928Y104721D01*
Y105770D01*
X531453Y106295D01*
X532503D01*
X533027Y105770D01*
Y105246D01*
X530928D01*
X534077Y106295D02*
Y104196D01*
Y105246D01*
X534602Y105770D01*
X535126Y106295D01*
X535651D01*
X540374Y105770D02*
X542473D01*
X546671Y107345D02*
Y104196D01*
X548245D01*
X548770Y104721D01*
Y105246D01*
X548245Y105770D01*
X546671D01*
X548245D01*
X548770Y106295D01*
Y106820D01*
X548245Y107345D01*
X546671D01*
X550345Y104196D02*
X551394D01*
X551919Y104721D01*
Y105770D01*
X551394Y106295D01*
X550345D01*
X549820Y105770D01*
Y104721D01*
X550345Y104196D01*
X553493Y106820D02*
Y106295D01*
X552968D01*
X554018D01*
X553493D01*
Y104721D01*
X554018Y104196D01*
X556117Y106820D02*
Y106295D01*
X555592D01*
X556642D01*
X556117D01*
Y104721D01*
X556642Y104196D01*
X558741D02*
X559790D01*
X560315Y104721D01*
Y105770D01*
X559790Y106295D01*
X558741D01*
X558216Y105770D01*
Y104721D01*
X558741Y104196D01*
X561365D02*
Y106295D01*
X561889D01*
X562414Y105770D01*
Y104196D01*
Y105770D01*
X562939Y106295D01*
X563464Y105770D01*
Y104196D01*
X567662Y107345D02*
Y104196D01*
X569761D01*
X571335Y106295D02*
X572385D01*
X572909Y105770D01*
Y104196D01*
X571335D01*
X570810Y104721D01*
X571335Y105246D01*
X572909D01*
X573959Y106295D02*
Y104721D01*
X574484Y104196D01*
X576058D01*
Y103671D01*
X575533Y103147D01*
X575008D01*
X576058Y104196D02*
Y106295D01*
X578682Y104196D02*
X577632D01*
X577108Y104721D01*
Y105770D01*
X577632Y106295D01*
X578682D01*
X579207Y105770D01*
Y105246D01*
X577108D01*
X580256Y106295D02*
Y104196D01*
Y105246D01*
X580781Y105770D01*
X581306Y106295D01*
X581831D01*
X508888Y99471D02*
X510987D01*
X509938D01*
Y96322D01*
X512562D02*
X513611D01*
X514136Y96847D01*
Y97896D01*
X513611Y98421D01*
X512562D01*
X512037Y97896D01*
Y96847D01*
X512562Y96322D01*
X515185Y95272D02*
Y98421D01*
X516760D01*
X517284Y97896D01*
Y96847D01*
X516760Y96322D01*
X515185D01*
X521483Y99471D02*
Y96322D01*
X523582D01*
X525156Y98421D02*
X526205D01*
X526730Y97896D01*
Y96322D01*
X525156D01*
X524631Y96847D01*
X525156Y97372D01*
X526730D01*
X527780Y98421D02*
Y96847D01*
X528304Y96322D01*
X529879D01*
Y95797D01*
X529354Y95272D01*
X528829D01*
X529879Y96322D02*
Y98421D01*
X532503Y96322D02*
X531453D01*
X530928Y96847D01*
Y97896D01*
X531453Y98421D01*
X532503D01*
X533027Y97896D01*
Y97372D01*
X530928D01*
X534077Y98421D02*
Y96322D01*
Y97372D01*
X534602Y97896D01*
X535126Y98421D01*
X535651D01*
X540374Y97896D02*
X542473D01*
X546671Y99471D02*
Y96322D01*
X548245D01*
X548770Y96847D01*
Y97372D01*
X548245Y97896D01*
X546671D01*
X548245D01*
X548770Y98421D01*
Y98946D01*
X548245Y99471D01*
X546671D01*
X550345Y96322D02*
X551394D01*
X551919Y96847D01*
Y97896D01*
X551394Y98421D01*
X550345D01*
X549820Y97896D01*
Y96847D01*
X550345Y96322D01*
X553493Y98946D02*
Y98421D01*
X552968D01*
X554018D01*
X553493D01*
Y96847D01*
X554018Y96322D01*
X556117Y98946D02*
Y98421D01*
X555592D01*
X556642D01*
X556117D01*
Y96847D01*
X556642Y96322D01*
X558741D02*
X559790D01*
X560315Y96847D01*
Y97896D01*
X559790Y98421D01*
X558741D01*
X558216Y97896D01*
Y96847D01*
X558741Y96322D01*
X561365D02*
Y98421D01*
X561889D01*
X562414Y97896D01*
Y96322D01*
Y97896D01*
X562939Y98421D01*
X563464Y97896D01*
Y96322D01*
X567662Y99471D02*
Y96322D01*
X569761D01*
X571335Y98421D02*
X572385D01*
X572909Y97896D01*
Y96322D01*
X571335D01*
X570810Y96847D01*
X571335Y97372D01*
X572909D01*
X573959Y98421D02*
Y96847D01*
X574484Y96322D01*
X576058D01*
Y95797D01*
X575533Y95272D01*
X575008D01*
X576058Y96322D02*
Y98421D01*
X578682Y96322D02*
X577632D01*
X577108Y96847D01*
Y97896D01*
X577632Y98421D01*
X578682D01*
X579207Y97896D01*
Y97372D01*
X577108D01*
X580256Y98421D02*
Y96322D01*
Y97372D01*
X580781Y97896D01*
X581306Y98421D01*
X581831D01*
X470158Y151440D02*
Y154589D01*
X471733D01*
X472257Y154064D01*
Y153014D01*
X471733Y152490D01*
X470158D01*
X471208D02*
X472257Y151440D01*
X473832D02*
X474881D01*
X475406Y151965D01*
Y153014D01*
X474881Y153539D01*
X473832D01*
X473307Y153014D01*
Y151965D01*
X473832Y151440D01*
X476455Y153539D02*
Y151965D01*
X476980Y151440D01*
X478555D01*
Y153539D01*
X479604Y151440D02*
Y153539D01*
X481178D01*
X481703Y153014D01*
Y151440D01*
X484852Y154589D02*
Y151440D01*
X483277D01*
X482753Y151965D01*
Y153014D01*
X483277Y153539D01*
X484852D01*
X470158Y143566D02*
Y146715D01*
X471733D01*
X472257Y146190D01*
Y145140D01*
X471733Y144616D01*
X470158D01*
X471208D02*
X472257Y143566D01*
X473832D02*
X474881D01*
X475406Y144091D01*
Y145140D01*
X474881Y145665D01*
X473832D01*
X473307Y145140D01*
Y144091D01*
X473832Y143566D01*
X476455Y145665D02*
Y144091D01*
X476980Y143566D01*
X478555D01*
Y145665D01*
X479604Y143566D02*
Y145665D01*
X481178D01*
X481703Y145140D01*
Y143566D01*
X484852Y146715D02*
Y143566D01*
X483277D01*
X482753Y144091D01*
Y145140D01*
X483277Y145665D01*
X484852D01*
X470158Y135692D02*
Y138841D01*
X471733D01*
X472257Y138316D01*
Y137266D01*
X471733Y136742D01*
X470158D01*
X471208D02*
X472257Y135692D01*
X473832D02*
X474881D01*
X475406Y136217D01*
Y137266D01*
X474881Y137791D01*
X473832D01*
X473307Y137266D01*
Y136217D01*
X473832Y135692D01*
X476455Y137791D02*
Y136217D01*
X476980Y135692D01*
X478555D01*
Y137791D01*
X479604Y135692D02*
Y137791D01*
X481178D01*
X481703Y137266D01*
Y135692D01*
X484852Y138841D02*
Y135692D01*
X483277D01*
X482753Y136217D01*
Y137266D01*
X483277Y137791D01*
X484852D01*
X470158Y127818D02*
Y130967D01*
X471733D01*
X472257Y130442D01*
Y129392D01*
X471733Y128868D01*
X470158D01*
X471208D02*
X472257Y127818D01*
X473832D02*
X474881D01*
X475406Y128343D01*
Y129392D01*
X474881Y129917D01*
X473832D01*
X473307Y129392D01*
Y128343D01*
X473832Y127818D01*
X476455Y129917D02*
Y128343D01*
X476980Y127818D01*
X478555D01*
Y129917D01*
X479604Y127818D02*
Y129917D01*
X481178D01*
X481703Y129392D01*
Y127818D01*
X484852Y130967D02*
Y127818D01*
X483277D01*
X482753Y128343D01*
Y129392D01*
X483277Y129917D01*
X484852D01*
X470158Y119944D02*
Y123093D01*
X471733D01*
X472257Y122568D01*
Y121518D01*
X471733Y120994D01*
X470158D01*
X471208D02*
X472257Y119944D01*
X473832D02*
X474881D01*
X475406Y120469D01*
Y121518D01*
X474881Y122043D01*
X473832D01*
X473307Y121518D01*
Y120469D01*
X473832Y119944D01*
X476455Y122043D02*
Y120469D01*
X476980Y119944D01*
X478555D01*
Y122043D01*
X479604Y119944D02*
Y122043D01*
X481178D01*
X481703Y121518D01*
Y119944D01*
X484852Y123093D02*
Y119944D01*
X483277D01*
X482753Y120469D01*
Y121518D01*
X483277Y122043D01*
X484852D01*
X470158Y112070D02*
Y115219D01*
X471733D01*
X472257Y114694D01*
Y113644D01*
X471733Y113120D01*
X470158D01*
X471208D02*
X472257Y112070D01*
X473832D02*
X474881D01*
X475406Y112595D01*
Y113644D01*
X474881Y114169D01*
X473832D01*
X473307Y113644D01*
Y112595D01*
X473832Y112070D01*
X476455Y114169D02*
Y112595D01*
X476980Y112070D01*
X478555D01*
Y114169D01*
X479604Y112070D02*
Y114169D01*
X481178D01*
X481703Y113644D01*
Y112070D01*
X484852Y115219D02*
Y112070D01*
X483277D01*
X482753Y112595D01*
Y113644D01*
X483277Y114169D01*
X484852D01*
X470158Y104196D02*
Y107345D01*
X471733D01*
X472257Y106820D01*
Y105770D01*
X471733Y105246D01*
X470158D01*
X471208D02*
X472257Y104196D01*
X473832D02*
X474881D01*
X475406Y104721D01*
Y105770D01*
X474881Y106295D01*
X473832D01*
X473307Y105770D01*
Y104721D01*
X473832Y104196D01*
X476455Y106295D02*
Y104721D01*
X476980Y104196D01*
X478555D01*
Y106295D01*
X479604Y104196D02*
Y106295D01*
X481178D01*
X481703Y105770D01*
Y104196D01*
X484852Y107345D02*
Y104196D01*
X483277D01*
X482753Y104721D01*
Y105770D01*
X483277Y106295D01*
X484852D01*
X470158Y96322D02*
Y99471D01*
X471733D01*
X472257Y98946D01*
Y97896D01*
X471733Y97372D01*
X470158D01*
X471208D02*
X472257Y96322D01*
X473832D02*
X474881D01*
X475406Y96847D01*
Y97896D01*
X474881Y98421D01*
X473832D01*
X473307Y97896D01*
Y96847D01*
X473832Y96322D01*
X476455Y98421D02*
Y96847D01*
X476980Y96322D01*
X478555D01*
Y98421D01*
X479604Y96322D02*
Y98421D01*
X481178D01*
X481703Y97896D01*
Y96322D01*
X484852Y99471D02*
Y96322D01*
X483277D01*
X482753Y96847D01*
Y97896D01*
X483277Y98421D01*
X484852D01*
X443393Y151440D02*
Y154589D01*
X445492Y151440D01*
Y154589D01*
X446542Y151440D02*
Y154589D01*
X448116D01*
X448641Y154064D01*
Y153014D01*
X448116Y152490D01*
X446542D01*
X449690Y154589D02*
X451789D01*
X450740D01*
Y151440D01*
X452839Y154589D02*
Y151440D01*
Y153014D01*
X454938D01*
Y154589D01*
Y151440D01*
X443393Y143566D02*
Y146715D01*
X444968D01*
X445492Y146190D01*
Y145140D01*
X444968Y144616D01*
X443393D01*
X446542Y146715D02*
X448641D01*
X447591D01*
Y143566D01*
X449690Y146715D02*
Y143566D01*
Y145140D01*
X451789D01*
Y146715D01*
Y143566D01*
X443393Y135692D02*
Y138841D01*
X445492Y135692D01*
Y138841D01*
X446542Y135692D02*
Y138841D01*
X448116D01*
X448641Y138316D01*
Y137266D01*
X448116Y136742D01*
X446542D01*
X449690Y138841D02*
X451789D01*
X450740D01*
Y135692D01*
X452839Y138841D02*
Y135692D01*
Y137266D01*
X454938D01*
Y138841D01*
Y135692D01*
X443393Y127818D02*
Y130967D01*
X445492Y127818D01*
Y130967D01*
X446542Y127818D02*
Y130967D01*
X448116D01*
X448641Y130442D01*
Y129392D01*
X448116Y128868D01*
X446542D01*
X449690Y130967D02*
X451789D01*
X450740D01*
Y127818D01*
X452839Y130967D02*
Y127818D01*
Y129392D01*
X454938D01*
Y130967D01*
Y127818D01*
X443393Y119944D02*
Y123093D01*
X445492Y119944D01*
Y123093D01*
X446542Y119944D02*
Y123093D01*
X448116D01*
X448641Y122568D01*
Y121518D01*
X448116Y120994D01*
X446542D01*
X449690Y123093D02*
X451789D01*
X450740D01*
Y119944D01*
X452839Y123093D02*
Y119944D01*
Y121518D01*
X454938D01*
Y123093D01*
Y119944D01*
X443393Y112070D02*
Y115219D01*
X445492Y112070D01*
Y115219D01*
X446542Y112070D02*
Y115219D01*
X448116D01*
X448641Y114694D01*
Y113644D01*
X448116Y113120D01*
X446542D01*
X449690Y115219D02*
X451789D01*
X450740D01*
Y112070D01*
X452839Y115219D02*
Y112070D01*
Y113644D01*
X454938D01*
Y115219D01*
Y112070D01*
X443393Y104196D02*
Y107345D01*
X444968D01*
X445492Y106820D01*
Y105770D01*
X444968Y105246D01*
X443393D01*
X446542Y107345D02*
X448641D01*
X447591D01*
Y104196D01*
X449690Y107345D02*
Y104196D01*
Y105770D01*
X451789D01*
Y107345D01*
Y104196D01*
X443393Y96322D02*
Y99471D01*
X444968D01*
X445492Y98946D01*
Y97896D01*
X444968Y97372D01*
X443393D01*
X446542Y99471D02*
X448641D01*
X447591D01*
Y96322D01*
X449690Y99471D02*
Y96322D01*
Y97896D01*
X451789D01*
Y99471D01*
Y96322D01*
X383437Y154064D02*
X383962Y154589D01*
X385011D01*
X385536Y154064D01*
Y151965D01*
X385011Y151440D01*
X383962D01*
X383437Y151965D01*
Y154064D01*
X387110Y150915D02*
X387635Y151440D01*
Y151965D01*
X387110D01*
Y151440D01*
X387635D01*
X387110Y150915D01*
X386585Y150391D01*
X391833Y154589D02*
X389734D01*
Y153014D01*
X390784Y153539D01*
X391308D01*
X391833Y153014D01*
Y151965D01*
X391308Y151440D01*
X390259D01*
X389734Y151965D01*
X392883Y154064D02*
X393407Y154589D01*
X394457D01*
X394982Y154064D01*
Y151965D01*
X394457Y151440D01*
X393407D01*
X392883Y151965D01*
Y154064D01*
X396031D02*
X396556Y154589D01*
X397605D01*
X398130Y154064D01*
Y151965D01*
X397605Y151440D01*
X396556D01*
X396031Y151965D01*
Y154064D01*
X399180Y151440D02*
Y153539D01*
X399705D01*
X400229Y153014D01*
Y151440D01*
Y153014D01*
X400754Y153539D01*
X401279Y153014D01*
Y151440D01*
X402328D02*
Y153539D01*
X402853D01*
X403378Y153014D01*
Y151440D01*
Y153014D01*
X403903Y153539D01*
X404427Y153014D01*
Y151440D01*
X409675D02*
X408626Y152490D01*
Y153539D01*
X409675Y154589D01*
X411249Y151440D02*
X412299D01*
X411774D01*
Y154589D01*
X411249Y154064D01*
X413873Y151965D02*
X414398Y151440D01*
X415448D01*
X415972Y151965D01*
Y154064D01*
X415448Y154589D01*
X414398D01*
X413873Y154064D01*
Y153539D01*
X414398Y153014D01*
X415972D01*
X417547Y150915D02*
X418071Y151440D01*
Y151965D01*
X417547D01*
Y151440D01*
X418071D01*
X417547Y150915D01*
X417022Y150391D01*
X422269Y154589D02*
X421220Y154064D01*
X420170Y153014D01*
Y151965D01*
X420695Y151440D01*
X421745D01*
X422269Y151965D01*
Y152490D01*
X421745Y153014D01*
X420170D01*
X423319Y151965D02*
X423844Y151440D01*
X424893D01*
X425418Y151965D01*
Y154064D01*
X424893Y154589D01*
X423844D01*
X423319Y154064D01*
Y153539D01*
X423844Y153014D01*
X425418D01*
X426468Y151440D02*
Y153539D01*
X426992D01*
X427517Y153014D01*
Y151440D01*
Y153014D01*
X428042Y153539D01*
X428567Y153014D01*
Y151440D01*
X429616D02*
X430666D01*
X430141D01*
Y153539D01*
X429616D01*
X432240Y151440D02*
X433289D01*
X432765D01*
Y154589D01*
X432240D01*
X434864Y151440D02*
X435913Y152490D01*
Y153539D01*
X434864Y154589D01*
X383437Y143566D02*
X384486D01*
X383962D01*
Y146715D01*
X383437Y146190D01*
X386585Y143041D02*
X387110Y143566D01*
Y144091D01*
X386585D01*
Y143566D01*
X387110D01*
X386585Y143041D01*
X386061Y142517D01*
X391308Y143566D02*
X389209D01*
X391308Y145665D01*
Y146190D01*
X390784Y146715D01*
X389734D01*
X389209Y146190D01*
X392358D02*
X392883Y146715D01*
X393932D01*
X394457Y146190D01*
Y144091D01*
X393932Y143566D01*
X392883D01*
X392358Y144091D01*
Y146190D01*
X395507D02*
X396031Y146715D01*
X397081D01*
X397605Y146190D01*
Y144091D01*
X397081Y143566D01*
X396031D01*
X395507Y144091D01*
Y146190D01*
X398655Y143566D02*
Y145665D01*
X399180D01*
X399705Y145140D01*
Y143566D01*
Y145140D01*
X400229Y145665D01*
X400754Y145140D01*
Y143566D01*
X401804D02*
Y145665D01*
X402328D01*
X402853Y145140D01*
Y143566D01*
Y145140D01*
X403378Y145665D01*
X403903Y145140D01*
Y143566D01*
X409150D02*
X408101Y144616D01*
Y145665D01*
X409150Y146715D01*
X412299Y143566D02*
Y146715D01*
X410725Y145140D01*
X412824D01*
X413873Y146715D02*
X415972D01*
Y146190D01*
X413873Y144091D01*
Y143566D01*
X417547Y143041D02*
X418071Y143566D01*
Y144091D01*
X417547D01*
Y143566D01*
X418071D01*
X417547Y143041D01*
X417022Y142517D01*
X422269Y143566D02*
X420170D01*
X422269Y145665D01*
Y146190D01*
X421745Y146715D01*
X420695D01*
X420170Y146190D01*
X424893Y143566D02*
Y146715D01*
X423319Y145140D01*
X425418D01*
X426468Y143566D02*
Y145665D01*
X426992D01*
X427517Y145140D01*
Y143566D01*
Y145140D01*
X428042Y145665D01*
X428567Y145140D01*
Y143566D01*
X429616D02*
X430666D01*
X430141D01*
Y145665D01*
X429616D01*
X432240Y143566D02*
X433289D01*
X432765D01*
Y146715D01*
X432240D01*
X434864Y143566D02*
X435913Y144616D01*
Y145665D01*
X434864Y146715D01*
X383437Y135692D02*
X384486D01*
X383962D01*
Y138841D01*
X383437Y138316D01*
X386585Y135167D02*
X387110Y135692D01*
Y136217D01*
X386585D01*
Y135692D01*
X387110D01*
X386585Y135167D01*
X386061Y134643D01*
X391308Y135692D02*
X389209D01*
X391308Y137791D01*
Y138316D01*
X390784Y138841D01*
X389734D01*
X389209Y138316D01*
X392358Y138841D02*
X394457D01*
Y138316D01*
X392358Y136217D01*
Y135692D01*
X395507Y138316D02*
X396031Y138841D01*
X397081D01*
X397605Y138316D01*
Y136217D01*
X397081Y135692D01*
X396031D01*
X395507Y136217D01*
Y138316D01*
X398655Y135692D02*
Y137791D01*
X399180D01*
X399705Y137266D01*
Y135692D01*
Y137266D01*
X400229Y137791D01*
X400754Y137266D01*
Y135692D01*
X401804D02*
Y137791D01*
X402328D01*
X402853Y137266D01*
Y135692D01*
Y137266D01*
X403378Y137791D01*
X403903Y137266D01*
Y135692D01*
X409150D02*
X408101Y136742D01*
Y137791D01*
X409150Y138841D01*
X412824D02*
X410725D01*
Y137266D01*
X411774Y137791D01*
X412299D01*
X412824Y137266D01*
Y136217D01*
X412299Y135692D01*
X411249D01*
X410725Y136217D01*
X413873Y138316D02*
X414398Y138841D01*
X415448D01*
X415972Y138316D01*
Y136217D01*
X415448Y135692D01*
X414398D01*
X413873Y136217D01*
Y138316D01*
X417547Y135167D02*
X418071Y135692D01*
Y136217D01*
X417547D01*
Y135692D01*
X418071D01*
X417547Y135167D01*
X417022Y134643D01*
X420170Y138316D02*
X420695Y138841D01*
X421745D01*
X422269Y138316D01*
Y136217D01*
X421745Y135692D01*
X420695D01*
X420170Y136217D01*
Y138316D01*
X423319D02*
X423844Y138841D01*
X424893D01*
X425418Y138316D01*
Y136217D01*
X424893Y135692D01*
X423844D01*
X423319Y136217D01*
Y138316D01*
X426468Y135692D02*
Y137791D01*
X426992D01*
X427517Y137266D01*
Y135692D01*
Y137266D01*
X428042Y137791D01*
X428567Y137266D01*
Y135692D01*
X429616D02*
X430666D01*
X430141D01*
Y137791D01*
X429616D01*
X432240Y135692D02*
X433289D01*
X432765D01*
Y138841D01*
X432240D01*
X434864Y135692D02*
X435913Y136742D01*
Y137791D01*
X434864Y138841D01*
X385536Y127818D02*
X383437D01*
X385536Y129917D01*
Y130442D01*
X385011Y130967D01*
X383962D01*
X383437Y130442D01*
X387110Y127293D02*
X387635Y127818D01*
Y128343D01*
X387110D01*
Y127818D01*
X387635D01*
X387110Y127293D01*
X386585Y126769D01*
X391833Y127818D02*
X389734D01*
X391833Y129917D01*
Y130442D01*
X391308Y130967D01*
X390259D01*
X389734Y130442D01*
X392883D02*
X393407Y130967D01*
X394457D01*
X394982Y130442D01*
Y128343D01*
X394457Y127818D01*
X393407D01*
X392883Y128343D01*
Y130442D01*
X396031D02*
X396556Y130967D01*
X397605D01*
X398130Y130442D01*
Y128343D01*
X397605Y127818D01*
X396556D01*
X396031Y128343D01*
Y130442D01*
X399180Y127818D02*
Y129917D01*
X399705D01*
X400229Y129392D01*
Y127818D01*
Y129392D01*
X400754Y129917D01*
X401279Y129392D01*
Y127818D01*
X402328D02*
Y129917D01*
X402853D01*
X403378Y129392D01*
Y127818D01*
Y129392D01*
X403903Y129917D01*
X404427Y129392D01*
Y127818D01*
X409675D02*
X408626Y128868D01*
Y129917D01*
X409675Y130967D01*
X411249Y130442D02*
X411774Y130967D01*
X412824D01*
X413348Y130442D01*
Y129917D01*
X412824Y129392D01*
X413348Y128868D01*
Y128343D01*
X412824Y127818D01*
X411774D01*
X411249Y128343D01*
Y128868D01*
X411774Y129392D01*
X411249Y129917D01*
Y130442D01*
X411774Y129392D02*
X412824D01*
X416497Y130967D02*
X415448Y130442D01*
X414398Y129392D01*
Y128343D01*
X414923Y127818D01*
X415972D01*
X416497Y128343D01*
Y128868D01*
X415972Y129392D01*
X414398D01*
X418071Y127293D02*
X418596Y127818D01*
Y128343D01*
X418071D01*
Y127818D01*
X418596D01*
X418071Y127293D01*
X417547Y126769D01*
X422794Y130967D02*
X421745Y130442D01*
X420695Y129392D01*
Y128343D01*
X421220Y127818D01*
X422269D01*
X422794Y128343D01*
Y128868D01*
X422269Y129392D01*
X420695D01*
X423844Y127818D02*
X424893D01*
X424368D01*
Y130967D01*
X423844Y130442D01*
X426468Y127818D02*
Y129917D01*
X426992D01*
X427517Y129392D01*
Y127818D01*
Y129392D01*
X428042Y129917D01*
X428567Y129392D01*
Y127818D01*
X429616D02*
X430666D01*
X430141D01*
Y129917D01*
X429616D01*
X432240Y127818D02*
X433289D01*
X432765D01*
Y130967D01*
X432240D01*
X434864Y127818D02*
X435913Y128868D01*
Y129917D01*
X434864Y130967D01*
X383437Y122568D02*
X383962Y123093D01*
X385011D01*
X385536Y122568D01*
Y122043D01*
X385011Y121518D01*
X384486D01*
X385011D01*
X385536Y120994D01*
Y120469D01*
X385011Y119944D01*
X383962D01*
X383437Y120469D01*
X387110Y119419D02*
X387635Y119944D01*
Y120469D01*
X387110D01*
Y119944D01*
X387635D01*
X387110Y119419D01*
X386585Y118895D01*
X389734Y122568D02*
X390259Y123093D01*
X391308D01*
X391833Y122568D01*
Y120469D01*
X391308Y119944D01*
X390259D01*
X389734Y120469D01*
Y122568D01*
X392883D02*
X393407Y123093D01*
X394457D01*
X394982Y122568D01*
Y120469D01*
X394457Y119944D01*
X393407D01*
X392883Y120469D01*
Y122568D01*
X396031D02*
X396556Y123093D01*
X397605D01*
X398130Y122568D01*
Y120469D01*
X397605Y119944D01*
X396556D01*
X396031Y120469D01*
Y122568D01*
X399180Y119944D02*
Y122043D01*
X399705D01*
X400229Y121518D01*
Y119944D01*
Y121518D01*
X400754Y122043D01*
X401279Y121518D01*
Y119944D01*
X402328D02*
Y122043D01*
X402853D01*
X403378Y121518D01*
Y119944D01*
Y121518D01*
X403903Y122043D01*
X404427Y121518D01*
Y119944D01*
X409675D02*
X408626Y120994D01*
Y122043D01*
X409675Y123093D01*
X411249Y119944D02*
X412299D01*
X411774D01*
Y123093D01*
X411249Y122568D01*
X413873Y119944D02*
X414923D01*
X414398D01*
Y123093D01*
X413873Y122568D01*
X416497D02*
X417022Y123093D01*
X418071D01*
X418596Y122568D01*
Y122043D01*
X418071Y121518D01*
X418596Y120994D01*
Y120469D01*
X418071Y119944D01*
X417022D01*
X416497Y120469D01*
Y120994D01*
X417022Y121518D01*
X416497Y122043D01*
Y122568D01*
X417022Y121518D02*
X418071D01*
X420170Y119419D02*
X420695Y119944D01*
Y120469D01*
X420170D01*
Y119944D01*
X420695D01*
X420170Y119419D01*
X419646Y118895D01*
X422794Y119944D02*
X423844D01*
X423319D01*
Y123093D01*
X422794Y122568D01*
X425418Y119944D02*
X426468D01*
X425943D01*
Y123093D01*
X425418Y122568D01*
X428042Y119944D02*
Y122043D01*
X428567D01*
X429091Y121518D01*
Y119944D01*
Y121518D01*
X429616Y122043D01*
X430141Y121518D01*
Y119944D01*
X431190D02*
X432240D01*
X431715D01*
Y122043D01*
X431190D01*
X433814Y119944D02*
X434864D01*
X434339D01*
Y123093D01*
X433814D01*
X436438Y119944D02*
X437488Y120994D01*
Y122043D01*
X436438Y123093D01*
X385536Y112070D02*
X383437D01*
X385536Y114169D01*
Y114694D01*
X385011Y115219D01*
X383962D01*
X383437Y114694D01*
X387110Y111545D02*
X387635Y112070D01*
Y112595D01*
X387110D01*
Y112070D01*
X387635D01*
X387110Y111545D01*
X386585Y111021D01*
X391833Y115219D02*
X389734D01*
Y113644D01*
X390784Y114169D01*
X391308D01*
X391833Y113644D01*
Y112595D01*
X391308Y112070D01*
X390259D01*
X389734Y112595D01*
X392883Y114694D02*
X393407Y115219D01*
X394457D01*
X394982Y114694D01*
Y112595D01*
X394457Y112070D01*
X393407D01*
X392883Y112595D01*
Y114694D01*
X396031D02*
X396556Y115219D01*
X397605D01*
X398130Y114694D01*
Y112595D01*
X397605Y112070D01*
X396556D01*
X396031Y112595D01*
Y114694D01*
X399180Y112070D02*
Y114169D01*
X399705D01*
X400229Y113644D01*
Y112070D01*
Y113644D01*
X400754Y114169D01*
X401279Y113644D01*
Y112070D01*
X402328D02*
Y114169D01*
X402853D01*
X403378Y113644D01*
Y112070D01*
Y113644D01*
X403903Y114169D01*
X404427Y113644D01*
Y112070D01*
X409675D02*
X408626Y113120D01*
Y114169D01*
X409675Y115219D01*
X411249Y112595D02*
X411774Y112070D01*
X412824D01*
X413348Y112595D01*
Y114694D01*
X412824Y115219D01*
X411774D01*
X411249Y114694D01*
Y114169D01*
X411774Y113644D01*
X413348D01*
X414398Y114694D02*
X414923Y115219D01*
X415972D01*
X416497Y114694D01*
Y114169D01*
X415972Y113644D01*
X416497Y113120D01*
Y112595D01*
X415972Y112070D01*
X414923D01*
X414398Y112595D01*
Y113120D01*
X414923Y113644D01*
X414398Y114169D01*
Y114694D01*
X414923Y113644D02*
X415972D01*
X418071Y111545D02*
X418596Y112070D01*
Y112595D01*
X418071D01*
Y112070D01*
X418596D01*
X418071Y111545D01*
X417547Y111021D01*
X422269Y112070D02*
Y115219D01*
X420695Y113644D01*
X422794D01*
X423844Y114694D02*
X424368Y115219D01*
X425418D01*
X425943Y114694D01*
Y114169D01*
X425418Y113644D01*
X424893D01*
X425418D01*
X425943Y113120D01*
Y112595D01*
X425418Y112070D01*
X424368D01*
X423844Y112595D01*
X426992Y112070D02*
Y114169D01*
X427517D01*
X428042Y113644D01*
Y112070D01*
Y113644D01*
X428567Y114169D01*
X429091Y113644D01*
Y112070D01*
X430141D02*
X431190D01*
X430666D01*
Y114169D01*
X430141D01*
X432765Y112070D02*
X433814D01*
X433289D01*
Y115219D01*
X432765D01*
X435389Y112070D02*
X436438Y113120D01*
Y114169D01*
X435389Y115219D01*
X383437Y106820D02*
X383962Y107345D01*
X385011D01*
X385536Y106820D01*
Y104721D01*
X385011Y104196D01*
X383962D01*
X383437Y104721D01*
Y106820D01*
X387110Y103671D02*
X387635Y104196D01*
Y104721D01*
X387110D01*
Y104196D01*
X387635D01*
X387110Y103671D01*
X386585Y103147D01*
X389734Y104721D02*
X390259Y104196D01*
X391308D01*
X391833Y104721D01*
Y106820D01*
X391308Y107345D01*
X390259D01*
X389734Y106820D01*
Y106295D01*
X390259Y105770D01*
X391833D01*
X392883Y106820D02*
X393407Y107345D01*
X394457D01*
X394982Y106820D01*
Y104721D01*
X394457Y104196D01*
X393407D01*
X392883Y104721D01*
Y106820D01*
X396031D02*
X396556Y107345D01*
X397605D01*
X398130Y106820D01*
Y104721D01*
X397605Y104196D01*
X396556D01*
X396031Y104721D01*
Y106820D01*
X399180Y104196D02*
Y106295D01*
X399705D01*
X400229Y105770D01*
Y104196D01*
Y105770D01*
X400754Y106295D01*
X401279Y105770D01*
Y104196D01*
X402328D02*
Y106295D01*
X402853D01*
X403378Y105770D01*
Y104196D01*
Y105770D01*
X403903Y106295D01*
X404427Y105770D01*
Y104196D01*
X409675D02*
X408626Y105246D01*
Y106295D01*
X409675Y107345D01*
X411249Y106820D02*
X411774Y107345D01*
X412824D01*
X413348Y106820D01*
Y106295D01*
X412824Y105770D01*
X412299D01*
X412824D01*
X413348Y105246D01*
Y104721D01*
X412824Y104196D01*
X411774D01*
X411249Y104721D01*
X416497Y107345D02*
X414398D01*
Y105770D01*
X415448Y106295D01*
X415972D01*
X416497Y105770D01*
Y104721D01*
X415972Y104196D01*
X414923D01*
X414398Y104721D01*
X418071Y103671D02*
X418596Y104196D01*
Y104721D01*
X418071D01*
Y104196D01*
X418596D01*
X418071Y103671D01*
X417547Y103147D01*
X422269Y104196D02*
Y107345D01*
X420695Y105770D01*
X422794D01*
X423844Y106820D02*
X424368Y107345D01*
X425418D01*
X425943Y106820D01*
Y106295D01*
X425418Y105770D01*
X424893D01*
X425418D01*
X425943Y105246D01*
Y104721D01*
X425418Y104196D01*
X424368D01*
X423844Y104721D01*
X426992Y104196D02*
Y106295D01*
X427517D01*
X428042Y105770D01*
Y104196D01*
Y105770D01*
X428567Y106295D01*
X429091Y105770D01*
Y104196D01*
X430141D02*
X431190D01*
X430666D01*
Y106295D01*
X430141D01*
X432765Y104196D02*
X433814D01*
X433289D01*
Y107345D01*
X432765D01*
X435389Y104196D02*
X436438Y105246D01*
Y106295D01*
X435389Y107345D01*
X383437Y98946D02*
X383962Y99471D01*
X385011D01*
X385536Y98946D01*
Y96847D01*
X385011Y96322D01*
X383962D01*
X383437Y96847D01*
Y98946D01*
X387110Y95797D02*
X387635Y96322D01*
Y96847D01*
X387110D01*
Y96322D01*
X387635D01*
X387110Y95797D01*
X386585Y95272D01*
X391833Y96322D02*
X389734D01*
X391833Y98421D01*
Y98946D01*
X391308Y99471D01*
X390259D01*
X389734Y98946D01*
X394982Y99471D02*
X392883D01*
Y97896D01*
X393932Y98421D01*
X394457D01*
X394982Y97896D01*
Y96847D01*
X394457Y96322D01*
X393407D01*
X392883Y96847D01*
X396031Y98946D02*
X396556Y99471D01*
X397605D01*
X398130Y98946D01*
Y96847D01*
X397605Y96322D01*
X396556D01*
X396031Y96847D01*
Y98946D01*
X399180Y96322D02*
Y98421D01*
X399705D01*
X400229Y97896D01*
Y96322D01*
Y97896D01*
X400754Y98421D01*
X401279Y97896D01*
Y96322D01*
X402328D02*
Y98421D01*
X402853D01*
X403378Y97896D01*
Y96322D01*
Y97896D01*
X403903Y98421D01*
X404427Y97896D01*
Y96322D01*
X409675D02*
X408626Y97372D01*
Y98421D01*
X409675Y99471D01*
X411249Y96847D02*
X411774Y96322D01*
X412824D01*
X413348Y96847D01*
Y98946D01*
X412824Y99471D01*
X411774D01*
X411249Y98946D01*
Y98421D01*
X411774Y97896D01*
X413348D01*
X414923Y95797D02*
X415448Y96322D01*
Y96847D01*
X414923D01*
Y96322D01*
X415448D01*
X414923Y95797D01*
X414398Y95272D01*
X417547Y98946D02*
X418071Y99471D01*
X419121D01*
X419646Y98946D01*
Y98421D01*
X419121Y97896D01*
X419646Y97372D01*
Y96847D01*
X419121Y96322D01*
X418071D01*
X417547Y96847D01*
Y97372D01*
X418071Y97896D01*
X417547Y98421D01*
Y98946D01*
X418071Y97896D02*
X419121D01*
X422269Y96322D02*
Y99471D01*
X420695Y97896D01*
X422794D01*
X423844Y96322D02*
Y98421D01*
X424368D01*
X424893Y97896D01*
Y96322D01*
Y97896D01*
X425418Y98421D01*
X425943Y97896D01*
Y96322D01*
X426992D02*
X428042D01*
X427517D01*
Y98421D01*
X426992D01*
X429616Y96322D02*
X430666D01*
X430141D01*
Y99471D01*
X429616D01*
X432240Y96322D02*
X433289Y97372D01*
Y98421D01*
X432240Y99471D01*
X352343Y88448D02*
X353392D01*
X352867D01*
Y91597D01*
X352343Y91072D01*
X356541Y88448D02*
Y91597D01*
X354966Y90022D01*
X357066D01*
X359689Y88448D02*
Y91597D01*
X358115Y90022D01*
X360214D01*
X364412Y91597D02*
X366511D01*
X365462D01*
Y88448D01*
X368086D02*
X369135D01*
X369660Y88973D01*
Y90022D01*
X369135Y90547D01*
X368086D01*
X367561Y90022D01*
Y88973D01*
X368086Y88448D01*
X371234Y91072D02*
Y90547D01*
X370709D01*
X371759D01*
X371234D01*
Y88973D01*
X371759Y88448D01*
X373858Y90547D02*
X374908D01*
X375432Y90022D01*
Y88448D01*
X373858D01*
X373333Y88973D01*
X373858Y89498D01*
X375432D01*
X376482Y88448D02*
X377531D01*
X377007D01*
Y91597D01*
X376482D01*
X352343Y151440D02*
X353392D01*
X352867D01*
Y154589D01*
X352343Y154064D01*
X354442Y143566D02*
X352343D01*
X354442Y145665D01*
Y146190D01*
X353917Y146715D01*
X352867D01*
X352343Y146190D01*
X354442Y135692D02*
X352343D01*
X354442Y137791D01*
Y138316D01*
X353917Y138841D01*
X352867D01*
X352343Y138316D01*
X354442Y127818D02*
X352343D01*
X354442Y129917D01*
Y130442D01*
X353917Y130967D01*
X352867D01*
X352343Y130442D01*
X354442Y119944D02*
X352343D01*
X354442Y122043D01*
Y122568D01*
X353917Y123093D01*
X352867D01*
X352343Y122568D01*
Y114694D02*
X352867Y115219D01*
X353917D01*
X354442Y114694D01*
Y114169D01*
X353917Y113644D01*
X354442Y113120D01*
Y112595D01*
X353917Y112070D01*
X352867D01*
X352343Y112595D01*
Y113120D01*
X352867Y113644D01*
X352343Y114169D01*
Y114694D01*
X352867Y113644D02*
X353917D01*
X352343Y104196D02*
X353392D01*
X352867D01*
Y107345D01*
X352343Y106820D01*
X354966Y107345D02*
X357066D01*
Y106820D01*
X354966Y104721D01*
Y104196D01*
X352343Y96322D02*
X353392D01*
X352867D01*
Y99471D01*
X352343Y98946D01*
X354966Y96322D02*
X356016D01*
X355491D01*
Y99471D01*
X354966Y98946D01*
X357590D02*
X358115Y99471D01*
X359165D01*
X359689Y98946D01*
Y96847D01*
X359165Y96322D01*
X358115D01*
X357590Y96847D01*
Y98946D01*
D82*
X60055Y78740D02*
G03*
X60055Y78740I-1000J0D01*
G01*
X-58055D02*
G03*
X-58055Y78740I-1000J0D01*
G01*
X85284Y-41946D02*
X86284Y-39946D01*
X84284D02*
X86284D01*
X84284D02*
X85284Y-41946D01*
X-148574D02*
X-147574Y-39946D01*
X-149574D02*
X-147574D01*
X-149574D02*
X-148574Y-41946D01*
X-18653Y-73048D02*
X-17653Y-71048D01*
X-19653D02*
X-17653D01*
X-19653D02*
X-18653Y-73048D01*
X-122590Y-104151D02*
X-121590Y-102151D01*
X-123590D02*
X-121590D01*
X-123590D02*
X-122590Y-104151D01*
X111268D02*
X112268Y-102151D01*
X110268D02*
X112268D01*
X110268D02*
X111268Y-104151D01*
X7331Y-135253D02*
X8331Y-133253D01*
X6331D02*
X8331D01*
X6331D02*
X7331Y-135253D01*
X-96606Y-166355D02*
X-95606Y-164355D01*
X-97606D02*
X-95606D01*
X-97606D02*
X-96606Y-166355D01*
Y-104151D02*
X-95606Y-102151D01*
X-97606D02*
X-95606D01*
X-97606D02*
X-96606Y-104151D01*
X-70621Y-166355D02*
X-69621Y-164355D01*
X-71621D02*
X-69621D01*
X-71621D02*
X-70621Y-166355D01*
X-122590Y-41946D02*
X-121590Y-39946D01*
X-123590D02*
X-121590D01*
X-123590D02*
X-122590Y-41946D01*
X-142511Y-8521D02*
X-141511Y-6521D01*
X-143511D02*
X-141511D01*
X-143511D02*
X-142511Y-8521D01*
X7331Y-73048D02*
X8331Y-71048D01*
X6331D02*
X8331D01*
X6331D02*
X7331Y-73048D01*
X33316Y-135253D02*
X34316Y-133253D01*
X32316D02*
X34316D01*
X32316D02*
X33316Y-135253D01*
X12795Y-116157D02*
X13795Y-114157D01*
X11795D02*
X13795D01*
X11795D02*
X12795Y-116157D01*
X137253Y-104151D02*
X138253Y-102151D01*
X136253D02*
X138253D01*
X136253D02*
X137253Y-104151D01*
X111268Y-41946D02*
X112268Y-39946D01*
X110268D02*
X112268D01*
X110268D02*
X111268Y-41946D01*
X-70621Y-104151D02*
X-69621Y-102151D01*
X-71621D02*
X-69621D01*
X-71621D02*
X-70621Y-104151D01*
X-31645Y-166355D02*
X-30645Y-164355D01*
X-32645D02*
X-30645D01*
X-32645D02*
X-31645Y-166355D01*
X-96606Y-41946D02*
X-95606Y-39946D01*
X-97606D02*
X-95606D01*
X-97606D02*
X-96606Y-41946D01*
X-104420Y-8521D02*
X-103420Y-6521D01*
X-105420D02*
X-103420D01*
X-105420D02*
X-104420Y-8521D01*
X33316Y-73048D02*
X34316Y-71048D01*
X32316D02*
X34316D01*
X32316D02*
X33316Y-73048D01*
X59300Y-135253D02*
X60300Y-133253D01*
X58300D02*
X60300D01*
X58300D02*
X59300Y-135253D01*
X148617Y-104096D02*
X149617Y-102096D01*
X147617D02*
X149617D01*
X147617D02*
X148617Y-104096D01*
X163237Y-104151D02*
X164237Y-102151D01*
X162237D02*
X164237D01*
X162237D02*
X163237Y-104151D01*
X137253Y-41946D02*
X138253Y-39946D01*
X136253D02*
X138253D01*
X136253D02*
X137253Y-41946D01*
X167323Y-96472D02*
X168323Y-94472D01*
X166323D02*
X168323D01*
X166323D02*
X167323Y-96472D01*
X-148574Y-135253D02*
X-147574Y-133253D01*
X-149574D02*
X-147574D01*
X-149574D02*
X-148574Y-135253D01*
X7332Y-166355D02*
X8331Y-164355D01*
X6331D02*
X8331D01*
X6331D02*
X7332Y-166355D01*
X-70621Y-41946D02*
X-69621Y-39946D01*
X-71621D02*
X-69621D01*
X-71621D02*
X-70621Y-41946D01*
X-66330Y-8521D02*
X-65330Y-6521D01*
X-67330D02*
X-65330D01*
X-67330D02*
X-66330Y-8521D01*
X-44637Y-104151D02*
X-43637Y-102151D01*
X-45637D02*
X-43637D01*
X-45637D02*
X-44637Y-104151D01*
X59300Y-73048D02*
X60300Y-71048D01*
X58300D02*
X60300D01*
X58300D02*
X59300Y-73048D01*
X62992Y-62024D02*
X63992Y-60024D01*
X61992D02*
X63992D01*
X61992D02*
X62992Y-62024D01*
X64961Y-146669D02*
X65961Y-144669D01*
X63961D02*
X65961D01*
X63961D02*
X64961Y-146669D01*
X85284Y-135253D02*
X86284Y-133253D01*
X84284D02*
X86284D01*
X84284D02*
X85284Y-135253D01*
X-148574Y-73048D02*
X-147574Y-71048D01*
X-149574D02*
X-147574D01*
X-149574D02*
X-148574Y-73048D01*
X-122590Y-135253D02*
X-121590Y-133253D01*
X-123590D02*
X-121590D01*
X-123590D02*
X-122590Y-135253D01*
X-44637Y-41946D02*
X-43637Y-39946D01*
X-45637D02*
X-43637D01*
X-45637D02*
X-44637Y-41946D01*
X-28239Y-8521D02*
X-27239Y-6521D01*
X-29239D02*
X-27239D01*
X-29239D02*
X-28239Y-8521D01*
X46308Y-166355D02*
X47308Y-164355D01*
X45308D02*
X47308D01*
X45308D02*
X46308Y-166355D01*
X111268Y-135253D02*
X112268Y-133253D01*
X110268D02*
X112268D01*
X110268D02*
X111268Y-135253D01*
X-18653Y-104151D02*
X-17653Y-102151D01*
X-19653D02*
X-17653D01*
X-19653D02*
X-18653Y-104151D01*
X85284Y-73048D02*
X86284Y-71048D01*
X84284D02*
X86284D01*
X84284D02*
X85284Y-73048D01*
X-96606Y-135253D02*
X-95606Y-133253D01*
X-97606D02*
X-95606D01*
X-97606D02*
X-96606Y-135253D01*
X7331Y-104151D02*
X8331Y-102151D01*
X6331D02*
X8331D01*
X6331D02*
X7331Y-104151D01*
X-122590Y-63992D02*
X-121590Y-61992D01*
X-123590D02*
X-121590D01*
X-123590D02*
X-122590Y-63992D01*
Y-73048D02*
X-121590Y-71048D01*
X-123590D02*
X-121590D01*
X-123590D02*
X-122590Y-73048D01*
X-18653Y-41946D02*
X-17653Y-39946D01*
X-19653D02*
X-17653D01*
X-19653D02*
X-18653Y-41946D01*
X-15748Y-63992D02*
X-14748Y-61992D01*
X-16748D02*
X-14748D01*
X-16748D02*
X-15748Y-63992D01*
X42922Y-8521D02*
X43922Y-6521D01*
X41922D02*
X43922D01*
X41922D02*
X42922Y-8521D01*
X85284Y-166355D02*
X86284Y-164355D01*
X84284D02*
X86284D01*
X84284D02*
X85284Y-166355D01*
X137253Y-135253D02*
X138253Y-133253D01*
X136253D02*
X138253D01*
X136253D02*
X137253Y-135253D01*
X111268Y-73048D02*
X112268Y-71048D01*
X110268D02*
X112268D01*
X110268D02*
X111268Y-73048D01*
X96649Y-72994D02*
X97649Y-70994D01*
X95649D02*
X97649D01*
X95649D02*
X96649Y-72994D01*
X-70621Y-135253D02*
X-69621Y-133253D01*
X-71621D02*
X-69621D01*
X-71621D02*
X-70621Y-135253D01*
X-96606Y-73048D02*
X-95606Y-71048D01*
X-97606D02*
X-95606D01*
X-97606D02*
X-96606Y-73048D01*
X33316Y-104151D02*
X34316Y-102151D01*
X32316D02*
X34316D01*
X32316D02*
X33316Y-104151D01*
X7331Y-41946D02*
X8331Y-39946D01*
X6331D02*
X8331D01*
X6331D02*
X7331Y-41946D01*
X66393Y-8467D02*
X67393Y-6466D01*
X65393D02*
X67393D01*
X65393D02*
X66393Y-8467D01*
X81013Y-8521D02*
X82013Y-6521D01*
X80013D02*
X82013D01*
X80013D02*
X81013Y-8521D01*
X111268Y-166355D02*
X112268Y-164355D01*
X110268D02*
X112268D01*
X110268D02*
X111268Y-166355D01*
X163237Y-135253D02*
X164237Y-133253D01*
X162237D02*
X164237D01*
X162237D02*
X163237Y-135253D01*
X137253Y-73048D02*
X138253Y-71048D01*
X136253D02*
X138253D01*
X136253D02*
X137253Y-73048D01*
X-44637Y-135253D02*
X-43637Y-133253D01*
X-45637D02*
X-43637D01*
X-45637D02*
X-44637Y-135253D01*
X-17717Y-176197D02*
X-16716Y-174197D01*
X-18717D02*
X-16716D01*
X-18717D02*
X-17717Y-176197D01*
X-70621Y-73048D02*
X-69621Y-71048D01*
X-71621D02*
X-69621D01*
X-71621D02*
X-70621Y-73048D01*
X33316Y-41946D02*
X34316Y-39946D01*
X32316D02*
X34316D01*
X32316D02*
X33316Y-41946D01*
X63976Y-121079D02*
X64976Y-119079D01*
X62976D02*
X64976D01*
X62976D02*
X63976Y-121079D01*
X137253Y-166355D02*
X138253Y-164355D01*
X136253D02*
X138253D01*
X136253D02*
X137253Y-166355D01*
X59300Y-104151D02*
X60300Y-102151D01*
X58300D02*
X60300D01*
X58300D02*
X59300Y-104151D01*
X163237Y-73048D02*
X164237Y-71048D01*
X162237D02*
X164237D01*
X162237D02*
X163237Y-73048D01*
X104484Y-8467D02*
X105484Y-6467D01*
X103484D02*
X105484D01*
X103484D02*
X104484Y-8467D01*
X119103Y-8521D02*
X120103Y-6521D01*
X118103D02*
X120103D01*
X118103D02*
X119103Y-8521D01*
X-122590Y-166355D02*
X-121590Y-164355D01*
X-123590D02*
X-121590D01*
X-123590D02*
X-122590Y-166355D01*
X-148574Y-104151D02*
X-147574Y-102151D01*
X-149574D02*
X-147574D01*
X-149574D02*
X-148574Y-104151D01*
X-18653Y-135253D02*
X-17653Y-133253D01*
X-19653D02*
X-17653D01*
X-19653D02*
X-18653Y-135253D01*
X-44637Y-73048D02*
X-43637Y-71048D01*
X-45637D02*
X-43637D01*
X-45637D02*
X-44637Y-73048D01*
X59300Y-41946D02*
X60300Y-39946D01*
X58300D02*
X60300D01*
X58300D02*
X59300Y-41946D01*
X85284Y-104151D02*
X86284Y-102151D01*
X84284D02*
X86284D01*
X84284D02*
X85284Y-104151D01*
X98425Y-96472D02*
X99425Y-94472D01*
X97425D02*
X99425D01*
X97425D02*
X98425Y-96472D01*
X163237Y-166355D02*
X164237Y-164355D01*
X162237D02*
X164237D01*
X162237D02*
X163237Y-166355D01*
X-134843Y58055D02*
X-133843Y60055D01*
X-135843D02*
X-133843D01*
X-135843D02*
X-134843Y58055D01*
X-158858Y42702D02*
X-157858Y44702D01*
X-159858D02*
X-157858D01*
X-159858D02*
X-158858Y42702D01*
X-86956Y81729D02*
X-85956Y83729D01*
X-87956D02*
X-85956D01*
X-87956D02*
X-86956Y81729D01*
X-80067Y84091D02*
X-79067Y86091D01*
X-81067D02*
X-79067D01*
X-81067D02*
X-80067Y84091D01*
X-74556Y78580D02*
X-73556Y80580D01*
X-75556D02*
X-73556D01*
X-75556D02*
X-74556Y78580D01*
X-81694Y95456D02*
X-80694Y97456D01*
X-82694D02*
X-80694D01*
X-82694D02*
X-81694Y95456D01*
X-111220Y95457D02*
X-110220Y97457D01*
X-112220D02*
X-110220D01*
X-112220D02*
X-111220Y95457D01*
X-110236Y56086D02*
X-109236Y58086D01*
X-111236D02*
X-109236D01*
X-111236D02*
X-110236Y56086D01*
X118110Y110221D02*
X119110Y112221D01*
X117110D02*
X119110D01*
X117110D02*
X118110Y110221D01*
X101519Y126812D02*
X102519Y128812D01*
X100519D02*
X102519D01*
X100519D02*
X101519Y126812D01*
X-118109Y26559D02*
X-117109Y28559D01*
X-119109D02*
X-117109D01*
X-119109D02*
X-118109Y26559D01*
X-83662Y15733D02*
X-82662Y17733D01*
X-84662D02*
X-82662D01*
X-84662D02*
X-83662Y15733D01*
X-64567Y17307D02*
X-63567Y19307D01*
X-65567D02*
X-63567D01*
X-65567D02*
X-64567Y17307D01*
X-90748Y13764D02*
X-89748Y15764D01*
X-91748D02*
X-89748D01*
X-91748D02*
X-90748Y13764D01*
X-98425Y68882D02*
X-97425Y70882D01*
X-99425D02*
X-97425D01*
X-99425D02*
X-98425Y68882D01*
X-110678Y67898D02*
X-109678Y69898D01*
X-111678D02*
X-109678D01*
X-111678D02*
X-110678Y67898D01*
X-103475Y78064D02*
X-102475Y80064D01*
X-104475D02*
X-102475D01*
X-104475D02*
X-103475Y78064D01*
X142717Y73803D02*
X143717Y75803D01*
X141717D02*
X143717D01*
X141717D02*
X142717Y73803D01*
X-55973Y7858D02*
X-54973Y9858D01*
X-56973D02*
X-54973D01*
X-56973D02*
X-55973Y7858D01*
Y49868D02*
X-54973Y51868D01*
X-56973D02*
X-54973D01*
X-56973D02*
X-55973Y49868D01*
X59390Y18685D02*
X60390Y20685D01*
X58390D02*
X60390D01*
X58390D02*
X59390Y18685D01*
X116142D02*
X117142Y20685D01*
X115142D02*
X117142D01*
X115142D02*
X116142Y18685D01*
X179134Y-5951D02*
X180134Y-3951D01*
X178134D02*
X180134D01*
X178134D02*
X179134Y-5951D01*
X-66929Y23606D02*
X-65929Y25606D01*
X-67929D02*
X-65929D01*
X-67929D02*
X-66929Y23606D01*
X47244Y7858D02*
X48244Y9858D01*
X46244D02*
X48244D01*
X46244D02*
X47244Y7858D01*
X181102Y-193516D02*
X182102Y-191516D01*
X180102D02*
X182102D01*
X180102D02*
X181102Y-193516D01*
X182087Y-171067D02*
X183087Y-169067D01*
X181087D02*
X183087D01*
X181087D02*
X182087Y-171067D01*
X142574Y-8467D02*
X143574Y-6467D01*
X141574D02*
X143574D01*
X141574D02*
X142574Y-8467D01*
X91339Y7819D02*
X92339Y9819D01*
X90339D02*
X92339D01*
X90339D02*
X91339Y7819D01*
X-148638Y36402D02*
X-147638Y36902D01*
X-146638Y36402D01*
X-147138Y37402D02*
X-146638Y36402D01*
X-147138Y37402D02*
X-146638Y38402D01*
X-147638Y37902D02*
X-146638Y38402D01*
X-148638D02*
X-147638Y37902D01*
X-148638Y38402D02*
X-148138Y37402D01*
X-148638Y36402D02*
X-148138Y37402D01*
X146638Y36402D02*
X147638Y36902D01*
X148638Y36402D01*
X148138Y37402D02*
X148638Y36402D01*
X148138Y37402D02*
X148638Y38402D01*
X147638Y37902D02*
X148638Y38402D01*
X146638D02*
X147638Y37902D01*
X146638Y38402D02*
X147138Y37402D01*
X146638Y36402D02*
X147138Y37402D01*
X146638Y178134D02*
X147638Y178634D01*
X148638Y178134D01*
X148138Y179134D02*
X148638Y178134D01*
X148138Y179134D02*
X148638Y180134D01*
X147638Y179634D02*
X148638Y180134D01*
X146638D02*
X147638Y179634D01*
X146638Y180134D02*
X147138Y179134D01*
X146638Y178134D02*
X147138Y179134D01*
X-128953Y197819D02*
X-127953Y198319D01*
X-126953Y197819D01*
X-127453Y198819D02*
X-126953Y197819D01*
X-127453Y198819D02*
X-126953Y199819D01*
X-127953Y199319D02*
X-126953Y199819D01*
X-128953D02*
X-127953Y199319D01*
X-128953Y199819D02*
X-128453Y198819D01*
X-128953Y197819D02*
X-128453Y198819D01*
X184039Y-162417D02*
X185039Y-161917D01*
X186039Y-162417D01*
X185539Y-161417D02*
X186039Y-162417D01*
X185539Y-161417D02*
X186039Y-160417D01*
X185039Y-160917D02*
X186039Y-160417D01*
X184039D02*
X185039Y-160917D01*
X184039Y-160417D02*
X184539Y-161417D01*
X184039Y-162417D02*
X184539Y-161417D01*
X184039Y-18717D02*
X185039Y-18216D01*
X186039Y-18717D01*
X185539Y-17717D02*
X186039Y-18717D01*
X185539Y-17717D02*
X186039Y-16716D01*
X185039Y-17217D02*
X186039Y-16716D01*
X184039D02*
X185039Y-17217D01*
X184039Y-16716D02*
X184539Y-17717D01*
X184039Y-18717D02*
X184539Y-17717D01*
X-186039Y-162417D02*
X-185039Y-161917D01*
X-184039Y-162417D01*
X-184539Y-161417D02*
X-184039Y-162417D01*
X-184539Y-161417D02*
X-184039Y-160417D01*
X-185039Y-160917D02*
X-184039Y-160417D01*
X-186039D02*
X-185039Y-160917D01*
X-186039Y-160417D02*
X-185539Y-161417D01*
X-186039Y-162417D02*
X-185539Y-161417D01*
X-186039Y-18717D02*
X-185039Y-18216D01*
X-184039Y-18717D01*
X-184539Y-17717D02*
X-184039Y-18717D01*
X-184539Y-17717D02*
X-184039Y-16716D01*
X-185039Y-17217D02*
X-184039Y-16716D01*
X-186039D02*
X-185039Y-17217D01*
X-186039Y-16716D02*
X-185539Y-17717D01*
X-186039Y-18717D02*
X-185539Y-17717D01*
X104984Y195850D02*
X106984D01*
Y197850D01*
X104984D02*
X106984D01*
X104984Y195850D02*
Y197850D01*
X114984Y195850D02*
X116984D01*
Y197850D01*
X114984D02*
X116984D01*
X114984Y195850D02*
Y197850D01*
X124984Y195850D02*
X126984D01*
Y197850D01*
X124984D02*
X126984D01*
X124984Y195850D02*
Y197850D01*
X24000Y15653D02*
X26000D01*
Y17653D01*
X24000D02*
X26000D01*
X24000Y15653D02*
Y17653D01*
Y25653D02*
X26000D01*
Y27654D01*
X24000D02*
X26000D01*
X24000Y25653D02*
Y27654D01*
X4000Y15653D02*
X6000D01*
Y17653D01*
X4000D02*
X6000D01*
X4000Y15653D02*
Y17653D01*
Y25653D02*
X6000D01*
Y27654D01*
X4000D02*
X6000D01*
X4000Y25653D02*
Y27654D01*
X14000Y15653D02*
X16000D01*
Y17653D01*
X14000D02*
X16000D01*
X14000Y15653D02*
Y17653D01*
X14000Y25653D02*
X16000D01*
Y27654D01*
X14000D02*
X16000D01*
X14000Y25653D02*
Y27654D01*
X-6000Y25653D02*
X-4000D01*
Y27654D01*
X-6000D02*
X-4000D01*
X-6000Y25653D02*
Y27654D01*
X-6000Y15653D02*
X-4000D01*
Y17653D01*
X-6000D02*
X-4000D01*
X-6000Y15653D02*
Y17653D01*
X-16000Y25653D02*
X-14000D01*
Y27654D01*
X-16000D02*
X-14000D01*
X-16000Y25653D02*
Y27654D01*
Y15653D02*
X-14000D01*
Y17653D01*
X-16000D02*
X-14000D01*
X-16000Y15653D02*
Y17653D01*
X-26000Y25653D02*
X-24000D01*
Y27654D01*
X-26000D02*
X-24000D01*
X-26000Y25653D02*
Y27654D01*
Y15653D02*
X-24000D01*
Y17653D01*
X-26000D02*
X-24000D01*
X-26000Y15653D02*
Y17653D01*
X-161433Y58555D02*
X-160933D01*
X-161433D02*
Y59555D01*
X-160933D01*
Y60055D01*
X-159933D01*
Y59555D02*
Y60055D01*
Y59555D02*
X-159433D01*
Y58555D02*
Y59555D01*
X-159933Y58555D02*
X-159433D01*
X-159933Y58055D02*
Y58555D01*
X-160933Y58055D02*
X-159933D01*
X-160933D02*
Y58555D01*
X-102457Y117110D02*
X-100457D01*
Y119110D01*
X-102457D02*
X-100457D01*
X-102457Y117110D02*
Y119110D01*
X-92457Y117110D02*
X-90457D01*
Y119110D01*
X-92457D02*
X-90457D01*
X-92457Y117110D02*
Y119110D01*
X164230Y-190895D02*
X164730Y-191395D01*
X163730Y-190895D02*
X164230D01*
X163730D02*
X164230Y-190395D01*
X163730Y-189895D02*
X164230Y-190395D01*
X163730Y-189895D02*
X164230D01*
X164730Y-189395D01*
X165230Y-189895D01*
X165730D01*
X165230Y-190395D02*
X165730Y-189895D01*
X165230Y-190395D02*
X165730Y-190895D01*
X165230D02*
X165730D01*
X164730Y-191395D02*
X165230Y-190895D01*
X-165495Y3200D02*
X-164995Y2700D01*
X-165995Y3200D02*
X-165495D01*
X-165995D02*
X-165495Y3700D01*
X-165995Y4200D02*
X-165495Y3700D01*
X-165995Y4200D02*
X-165495D01*
X-164995Y4700D01*
X-164495Y4200D01*
X-163995D01*
X-164495Y3700D02*
X-163995Y4200D01*
X-164495Y3700D02*
X-163995Y3200D01*
X-164495D02*
X-163995D01*
X-164995Y2700D02*
X-164495Y3200D01*
X37942Y-95686D02*
Y-95186D01*
X38442Y-94686D01*
X37942Y-94186D02*
X38442Y-94686D01*
X37942Y-94186D02*
Y-93686D01*
X38442D01*
X38942Y-94186D01*
X39442Y-93686D01*
X39942D01*
Y-94186D02*
Y-93686D01*
X39442Y-94686D02*
X39942Y-94186D01*
X39442Y-94686D02*
X39942Y-95186D01*
Y-95686D02*
Y-95186D01*
X39442Y-95686D02*
X39942D01*
X38942Y-95186D02*
X39442Y-95686D01*
X38442D02*
X38942Y-95186D01*
X37942Y-95686D02*
X38442D01*
X-40010D02*
Y-95186D01*
X-39511Y-94686D01*
X-40010Y-94186D02*
X-39511Y-94686D01*
X-40010Y-94186D02*
Y-93686D01*
X-39511D01*
X-39011Y-94186D01*
X-38511Y-93686D01*
X-38010D01*
Y-94186D02*
Y-93686D01*
X-38511Y-94686D02*
X-38010Y-94186D01*
X-38511Y-94686D02*
X-38010Y-95186D01*
Y-95686D02*
Y-95186D01*
X-38511Y-95686D02*
X-38010D01*
X-39011Y-95186D02*
X-38511Y-95686D01*
X-39511D02*
X-39011Y-95186D01*
X-40010Y-95686D02*
X-39511D01*
X-60055Y196850D02*
X-59055Y195850D01*
X-58055Y196850D01*
X-59055Y197850D02*
X-58055Y196850D01*
X-60055D02*
X-59055Y197850D01*
X58055Y196850D02*
X59055Y195850D01*
X60055Y196850D01*
X59055Y197850D02*
X60055Y196850D01*
X58055D02*
X59055Y197850D01*
D83*
X738247Y159314D02*
Y163092D01*
X740136D01*
X740766Y162463D01*
Y161203D01*
X740136Y160574D01*
X738247D01*
X739506D02*
X740766Y159314D01*
X742655D02*
X743915D01*
X744544Y159944D01*
Y161203D01*
X743915Y161833D01*
X742655D01*
X742025Y161203D01*
Y159944D01*
X742655Y159314D01*
X745804Y161833D02*
Y159944D01*
X746433Y159314D01*
X748322D01*
Y161833D01*
X750212Y162463D02*
Y161833D01*
X749582D01*
X750841D01*
X750212D01*
Y159944D01*
X750841Y159314D01*
X754620D02*
X753360D01*
X752731Y159944D01*
Y161203D01*
X753360Y161833D01*
X754620D01*
X755249Y161203D01*
Y160574D01*
X752731D01*
X759028Y163092D02*
Y159314D01*
X757139D01*
X756509Y159944D01*
Y161203D01*
X757139Y161833D01*
X759028D01*
X764066Y159314D02*
Y163092D01*
X765955D01*
X766584Y162463D01*
Y161203D01*
X765955Y160574D01*
X764066D01*
X768473Y161833D02*
X769733D01*
X770363Y161203D01*
Y159314D01*
X768473D01*
X767844Y159944D01*
X768473Y160574D01*
X770363D01*
X772252Y162463D02*
Y161833D01*
X771622D01*
X772882D01*
X772252D01*
Y159944D01*
X772882Y159314D01*
X774771Y163092D02*
Y159314D01*
Y161203D01*
X775400Y161833D01*
X776660D01*
X777290Y161203D01*
Y159314D01*
X782327Y163092D02*
Y159314D01*
X784846D01*
X787995D02*
X786735D01*
X786106Y159944D01*
Y161203D01*
X786735Y161833D01*
X787995D01*
X788624Y161203D01*
Y160574D01*
X786106D01*
X789884Y159314D02*
Y161833D01*
X791773D01*
X792403Y161203D01*
Y159314D01*
X794922Y158055D02*
X795551D01*
X796181Y158684D01*
Y161833D01*
X794292D01*
X793662Y161203D01*
Y159944D01*
X794292Y159314D01*
X796181D01*
X798070Y162463D02*
Y161833D01*
X797441D01*
X798700D01*
X798070D01*
Y159944D01*
X798700Y159314D01*
X800589Y163092D02*
Y159314D01*
Y161203D01*
X801219Y161833D01*
X802478D01*
X803108Y161203D01*
Y159314D01*
X692590Y163092D02*
Y159314D01*
Y161203D01*
X695109D01*
Y163092D01*
Y159314D01*
X696998D02*
X698258D01*
X698888Y159944D01*
Y161203D01*
X698258Y161833D01*
X696998D01*
X696369Y161203D01*
Y159944D01*
X696998Y159314D01*
X700147D02*
X701406D01*
X700777D01*
Y163092D01*
X700147D01*
X705185Y159314D02*
X703925D01*
X703296Y159944D01*
Y161203D01*
X703925Y161833D01*
X705185D01*
X705815Y161203D01*
Y160574D01*
X703296D01*
X710852Y163092D02*
Y159314D01*
X713371D01*
X716520D02*
X715260D01*
X714631Y159944D01*
Y161203D01*
X715260Y161833D01*
X716520D01*
X717149Y161203D01*
Y160574D01*
X714631D01*
X718409Y159314D02*
Y161833D01*
X720298D01*
X720928Y161203D01*
Y159314D01*
X723447Y158055D02*
X724076D01*
X724706Y158684D01*
Y161833D01*
X722817D01*
X722187Y161203D01*
Y159944D01*
X722817Y159314D01*
X724706D01*
X726595Y162463D02*
Y161833D01*
X725965D01*
X727225D01*
X726595D01*
Y159944D01*
X727225Y159314D01*
X729114Y163092D02*
Y159314D01*
Y161203D01*
X729744Y161833D01*
X731003D01*
X731633Y161203D01*
Y159314D01*
X658269Y163092D02*
X660787D01*
X659528D01*
Y159314D01*
X663936D02*
X662677D01*
X662047Y159944D01*
Y161203D01*
X662677Y161833D01*
X663936D01*
X664566Y161203D01*
Y160574D01*
X662047D01*
X665825Y159314D02*
Y161833D01*
X666455D01*
X667085Y161203D01*
Y159314D01*
Y161203D01*
X667714Y161833D01*
X668344Y161203D01*
Y159314D01*
X669603Y158055D02*
Y161833D01*
X671493D01*
X672122Y161203D01*
Y159944D01*
X671493Y159314D01*
X669603D01*
X673382D02*
X674641D01*
X674012D01*
Y163092D01*
X673382D01*
X677160Y161833D02*
X678420D01*
X679049Y161203D01*
Y159314D01*
X677160D01*
X676530Y159944D01*
X677160Y160574D01*
X679049D01*
X680938Y162463D02*
Y161833D01*
X680309D01*
X681568D01*
X680938D01*
Y159944D01*
X681568Y159314D01*
X685347D02*
X684087D01*
X683457Y159944D01*
Y161203D01*
X684087Y161833D01*
X685347D01*
X685976Y161203D01*
Y160574D01*
X683457D01*
X618909Y159314D02*
Y163092D01*
X620798D01*
X621428Y162463D01*
Y161203D01*
X620798Y160574D01*
X618909D01*
X623317Y161833D02*
X624577D01*
X625206Y161203D01*
Y159314D01*
X623317D01*
X622687Y159944D01*
X623317Y160574D01*
X625206D01*
X628985Y163092D02*
Y159314D01*
X627095D01*
X626466Y159944D01*
Y161203D01*
X627095Y161833D01*
X628985D01*
X636541Y162463D02*
X635912Y163092D01*
X634652D01*
X634022Y162463D01*
Y161833D01*
X634652Y161203D01*
X635912D01*
X636541Y160574D01*
Y159944D01*
X635912Y159314D01*
X634652D01*
X634022Y159944D01*
X637801Y163092D02*
Y159314D01*
Y161203D01*
X638430Y161833D01*
X639690D01*
X640319Y161203D01*
Y159314D01*
X642209Y161833D02*
X643468D01*
X644098Y161203D01*
Y159314D01*
X642209D01*
X641579Y159944D01*
X642209Y160574D01*
X644098D01*
X645357Y158055D02*
Y161833D01*
X647246D01*
X647876Y161203D01*
Y159944D01*
X647246Y159314D01*
X645357D01*
X651025D02*
X649765D01*
X649136Y159944D01*
Y161203D01*
X649765Y161833D01*
X651025D01*
X651654Y161203D01*
Y160574D01*
X649136D01*
X587736Y163092D02*
Y160574D01*
X588995Y159314D01*
X590255Y160574D01*
Y163092D01*
X591514Y159314D02*
X592774D01*
X592144D01*
Y161833D01*
X591514D01*
X595293D02*
X596552D01*
X597182Y161203D01*
Y159314D01*
X595293D01*
X594663Y159944D01*
X595293Y160574D01*
X597182D01*
X598441Y159314D02*
X600960Y161833D01*
X602219Y159314D02*
Y163092D01*
X604109D01*
X604738Y162463D01*
Y161203D01*
X604109Y160574D01*
X602219D01*
X606628Y161833D02*
X607887D01*
X608517Y161203D01*
Y159314D01*
X606628D01*
X605998Y159944D01*
X606628Y160574D01*
X608517D01*
X612295Y163092D02*
Y159314D01*
X610406D01*
X609776Y159944D01*
Y161203D01*
X610406Y161833D01*
X612295D01*
X508888Y163092D02*
Y159314D01*
X510777D01*
X511407Y159944D01*
Y162463D01*
X510777Y163092D01*
X508888D01*
X512666Y161833D02*
Y159314D01*
Y160574D01*
X513296Y161203D01*
X513926Y161833D01*
X514556D01*
X516445Y159314D02*
X517704D01*
X517074D01*
Y161833D01*
X516445D01*
X519593Y159314D02*
X520853D01*
X520223D01*
Y163092D01*
X519593D01*
X522742Y159314D02*
X524001D01*
X523372D01*
Y163092D01*
X522742D01*
X529669D02*
Y159314D01*
X532188D01*
X534077Y161833D02*
X535336D01*
X535966Y161203D01*
Y159314D01*
X534077D01*
X533447Y159944D01*
X534077Y160574D01*
X535966D01*
X537225Y161833D02*
Y159944D01*
X537855Y159314D01*
X539744D01*
Y158684D01*
X539115Y158055D01*
X538485D01*
X539744Y159314D02*
Y161833D01*
X542893Y159314D02*
X541633D01*
X541004Y159944D01*
Y161203D01*
X541633Y161833D01*
X542893D01*
X543523Y161203D01*
Y160574D01*
X541004D01*
X544782Y161833D02*
Y159314D01*
Y160574D01*
X545412Y161203D01*
X546041Y161833D01*
X546671D01*
X552339Y159314D02*
Y163092D01*
X554228D01*
X554857Y162463D01*
Y161203D01*
X554228Y160574D01*
X552339D01*
X556747Y161833D02*
X558006D01*
X558636Y161203D01*
Y159314D01*
X556747D01*
X556117Y159944D01*
X556747Y160574D01*
X558636D01*
X559895Y159314D02*
X561155D01*
X560525D01*
Y161833D01*
X559895D01*
X563044D02*
Y159314D01*
Y160574D01*
X563674Y161203D01*
X564303Y161833D01*
X564933D01*
X470158Y163092D02*
Y159314D01*
Y161203D01*
X472677D01*
Y163092D01*
Y159314D01*
X474566D02*
X475826D01*
X476455Y159944D01*
Y161203D01*
X475826Y161833D01*
X474566D01*
X473937Y161203D01*
Y159944D01*
X474566Y159314D01*
X477715D02*
X478974D01*
X478345D01*
Y163092D01*
X477715D01*
X482753Y159314D02*
X481493D01*
X480864Y159944D01*
Y161203D01*
X481493Y161833D01*
X482753D01*
X483382Y161203D01*
Y160574D01*
X480864D01*
X488420Y163092D02*
X490939D01*
X489680D01*
Y159314D01*
X492198Y161833D02*
Y159944D01*
X492828Y159314D01*
X494717D01*
Y158684D01*
X494088Y158055D01*
X493458D01*
X494717Y159314D02*
Y161833D01*
X495977Y158055D02*
Y161833D01*
X497866D01*
X498496Y161203D01*
Y159944D01*
X497866Y159314D01*
X495977D01*
X501644D02*
X500385D01*
X499755Y159944D01*
Y161203D01*
X500385Y161833D01*
X501644D01*
X502274Y161203D01*
Y160574D01*
X499755D01*
X443393Y159314D02*
Y163092D01*
X445282D01*
X445912Y162463D01*
Y161203D01*
X445282Y160574D01*
X443393D01*
X447171Y159314D02*
X448431D01*
X447801D01*
Y163092D01*
X447171D01*
X450950Y161833D02*
X452209D01*
X452839Y161203D01*
Y159314D01*
X450950D01*
X450320Y159944D01*
X450950Y160574D01*
X452839D01*
X454728Y162463D02*
Y161833D01*
X454098D01*
X455358D01*
X454728D01*
Y159944D01*
X455358Y159314D01*
X459136D02*
X457877D01*
X457247Y159944D01*
Y161203D01*
X457877Y161833D01*
X459136D01*
X459766Y161203D01*
Y160574D01*
X457247D01*
X463544Y163092D02*
Y159314D01*
X461655D01*
X461025Y159944D01*
Y161203D01*
X461655Y161833D01*
X463544D01*
X383437Y163092D02*
Y159314D01*
Y161203D01*
X385956D01*
Y163092D01*
Y159314D01*
X387845D02*
X389104D01*
X389734Y159944D01*
Y161203D01*
X389104Y161833D01*
X387845D01*
X387215Y161203D01*
Y159944D01*
X387845Y159314D01*
X390993D02*
X392253D01*
X391623D01*
Y163092D01*
X390993D01*
X396031Y159314D02*
X394772D01*
X394142Y159944D01*
Y161203D01*
X394772Y161833D01*
X396031D01*
X396661Y161203D01*
Y160574D01*
X394142D01*
X404218Y162463D02*
X403588Y163092D01*
X402328D01*
X401699Y162463D01*
Y161833D01*
X402328Y161203D01*
X403588D01*
X404218Y160574D01*
Y159944D01*
X403588Y159314D01*
X402328D01*
X401699Y159944D01*
X405477Y159314D02*
X406736D01*
X406107D01*
Y161833D01*
X405477D01*
X408626D02*
X411144D01*
X408626Y159314D01*
X411144D01*
X414293D02*
X413034D01*
X412404Y159944D01*
Y161203D01*
X413034Y161833D01*
X414293D01*
X414923Y161203D01*
Y160574D01*
X412404D01*
X354861Y162463D02*
X354232Y163092D01*
X352972D01*
X352343Y162463D01*
Y159944D01*
X352972Y159314D01*
X354232D01*
X354861Y159944D01*
X356751Y159314D02*
X358010D01*
X358640Y159944D01*
Y161203D01*
X358010Y161833D01*
X356751D01*
X356121Y161203D01*
Y159944D01*
X356751Y159314D01*
X359899Y161833D02*
Y159944D01*
X360529Y159314D01*
X362418D01*
Y161833D01*
X363678Y159314D02*
Y161833D01*
X365567D01*
X366196Y161203D01*
Y159314D01*
X368086Y162463D02*
Y161833D01*
X367456D01*
X368715D01*
X368086D01*
Y159944D01*
X368715Y159314D01*
X328096Y162463D02*
X327467Y163092D01*
X326207D01*
X325577Y162463D01*
Y161833D01*
X326207Y161203D01*
X327467D01*
X328096Y160574D01*
Y159944D01*
X327467Y159314D01*
X326207D01*
X325577Y159944D01*
X329356Y161833D02*
Y159944D01*
X329985Y159314D01*
X331875D01*
Y158684D01*
X331245Y158055D01*
X330615D01*
X331875Y159314D02*
Y161833D01*
X333134Y159314D02*
Y161833D01*
X333764D01*
X334394Y161203D01*
Y159314D01*
Y161203D01*
X335023Y161833D01*
X335653Y161203D01*
Y159314D01*
X336912Y163092D02*
Y159314D01*
X338802D01*
X339431Y159944D01*
Y160574D01*
Y161203D01*
X338802Y161833D01*
X336912D01*
X341320Y159314D02*
X342580D01*
X343210Y159944D01*
Y161203D01*
X342580Y161833D01*
X341320D01*
X340691Y161203D01*
Y159944D01*
X341320Y159314D01*
X344469D02*
X345728D01*
X345099D01*
Y163092D01*
X344469D01*
M02*
