G04*
G04 #@! TF.GenerationSoftware,Altium Limited,Altium Designer,24.6.1 (21)*
G04*
G04 Layer_Color=417716*
%FSLAX25Y25*%
%MOIN*%
G70*
G04*
G04 #@! TF.SameCoordinates,01E0CDA6-314E-44D1-A422-088EE61E0F49*
G04*
G04*
G04 #@! TF.FilePolarity,Positive*
G04*
G01*
G75*
%ADD15C,0.00394*%
D15*
X25512Y141733D02*
G03*
X30512Y146733I0J5000D01*
G01*
X8152Y186919D02*
G03*
X3937Y182705I0J-4215D01*
G01*
X30512Y157481D02*
G03*
X8143Y186886I-30512J0D01*
G01*
X-30512Y146732D02*
G03*
X-25512Y141732I5000J0D01*
G01*
X-3937Y182704D02*
G03*
X-8152Y186919I-4215J0D01*
G01*
X-8143Y186886D02*
G03*
X-30512Y157480I8143J-29405D01*
G01*
X30512Y128858D02*
G03*
X25512Y133858I-5000J0D01*
G01*
X3937Y92886D02*
G03*
X8152Y88672I4215J0D01*
G01*
X8143Y88705D02*
G03*
X30512Y118110I-8143J29405D01*
G01*
X-30512D02*
G03*
X-8143Y88705I30512J0D01*
G01*
X-8152Y88672D02*
G03*
X-3937Y92886I0J4215D01*
G01*
X-25512Y133858D02*
G03*
X-30512Y128858I0J-5000D01*
G01*
X8937Y133858D02*
G03*
X3937Y128858I0J-5000D01*
G01*
X-3937D02*
G03*
X-8937Y133858I-5000J0D01*
G01*
X3937Y146733D02*
G03*
X8937Y141733I5000J0D01*
G01*
X-8937Y141732D02*
G03*
X-3937Y146732I0J5000D01*
G01*
X194883Y3937D02*
G03*
X187008Y11812I-7875J0D01*
G01*
Y-204725D02*
G03*
X194883Y-196850I0J7875D01*
G01*
X-194883D02*
G03*
X-187008Y-204725I7875J0D01*
G01*
Y11812D02*
G03*
X-194883Y3937I0J-7875D01*
G01*
X-180197Y11811D02*
G03*
X-171661Y15347I0J12071D01*
G01*
X171661D02*
G03*
X180197Y11811I8535J8535D01*
G01*
X-170858Y16150D02*
G03*
X-167323Y24685I-8535J8535D01*
G01*
X162402Y29606D02*
G03*
X165937Y21071I12071J0D01*
G01*
X-163787Y186606D02*
G03*
X-167323Y178071I8535J-8535D01*
G01*
X-132795Y212598D02*
G03*
X-141331Y209063I0J-12071D01*
G01*
X141331D02*
G03*
X132795Y212598I-8535J-8535D01*
G01*
X162402Y182992D02*
G03*
X158866Y191528I-12071J0D01*
G01*
X30512Y146654D02*
X30512Y157481D01*
X3937Y146733D02*
Y182705D01*
X8937Y141733D02*
X25512D01*
X-30512Y157480D02*
X-30512Y146653D01*
X-3937Y146732D02*
Y182704D01*
X-25512Y141732D02*
X-8937D01*
X30512Y118110D02*
Y128937D01*
X3937Y92886D02*
Y128858D01*
X8937Y133858D02*
X25512D01*
X-25512D02*
X-8937D01*
X-3937Y92886D02*
Y128858D01*
X-30512Y118110D02*
Y128937D01*
X194882Y-196850D02*
X194882Y3938D01*
X180197Y11811D02*
X187009D01*
X-187009Y-204724D02*
X187009D01*
X-194882Y-196850D02*
X-194882Y3938D01*
X-187009Y11811D02*
X-180197D01*
X-171661Y15347D02*
X-171260Y15748D01*
X171260D02*
X171661Y15347D01*
X-171260Y15748D02*
X-170858Y16150D01*
X-167323Y24685D02*
Y31575D01*
X165937Y21071D02*
X171260Y15748D01*
X162402Y29606D02*
Y29766D01*
X-167323Y31575D02*
Y178071D01*
X-163787Y186606D02*
X-141331Y209063D01*
X-132795Y212598D02*
X132795D01*
X141331Y209063D02*
X158866Y191528D01*
X162402Y29766D02*
Y182992D01*
M02*
