G04*
G04 #@! TF.GenerationSoftware,Altium Limited,Altium Designer,24.6.1 (21)*
G04*
G04 Layer_Physical_Order=1*
G04 Layer_Color=3394611*
%FSLAX25Y25*%
%MOIN*%
G70*
G04*
G04 #@! TF.SameCoordinates,01E0CDA6-314E-44D1-A422-088EE61E0F49*
G04*
G04*
G04 #@! TF.FilePolarity,Positive*
G04*
G01*
G75*
%ADD10C,0.00984*%
%ADD12C,0.01181*%
%ADD15C,0.00394*%
%ADD16C,0.00591*%
%ADD17R,0.03937X0.05118*%
%ADD18R,0.03937X0.04331*%
%ADD19R,0.04331X0.04331*%
%ADD20O,0.03543X0.01181*%
%ADD21O,0.03740X0.01181*%
%ADD22O,0.01181X0.03543*%
%ADD23O,0.01181X0.03740*%
%ADD24R,0.05512X0.12205*%
%ADD25R,0.05906X0.13386*%
%ADD26R,0.04331X0.03937*%
%ADD27R,0.02055X0.02362*%
%ADD28C,0.01181*%
%ADD29R,0.02638X0.02598*%
%ADD30R,0.03150X0.01772*%
%ADD31R,0.03150X0.05906*%
%ADD32R,0.05906X0.07874*%
%ADD33R,0.07874X0.05906*%
%ADD34R,0.01772X0.03150*%
%ADD35R,0.05906X0.05118*%
%ADD36C,0.03937*%
%ADD65C,0.02362*%
%ADD68C,0.00984*%
%ADD69C,0.01968*%
%ADD70C,0.03543*%
%ADD71C,0.00591*%
%ADD72C,0.03543*%
%ADD73C,0.09843*%
%ADD74C,0.08661*%
%ADD75C,0.11811*%
%ADD76C,0.04724*%
%ADD77C,0.05000*%
%ADD78C,0.05906*%
%ADD79R,0.05906X0.05906*%
%ADD80C,0.01968*%
G36*
X133339Y211595D02*
X134421Y211488D01*
X135488Y211276D01*
X136528Y210961D01*
X137533Y210544D01*
X138492Y210032D01*
X139396Y209428D01*
X140237Y208738D01*
X140621Y208353D01*
X158156Y190818D01*
X158156Y190818D01*
X158541Y190434D01*
X159231Y189593D01*
X159835Y188689D01*
X160348Y187730D01*
X160764Y186725D01*
X161079Y185685D01*
X161292Y184618D01*
X161398Y183536D01*
X161398Y182992D01*
Y181244D01*
X160020Y181081D01*
X159882Y181654D01*
X159162Y183395D01*
X158177Y185001D01*
X156962Y186424D01*
X156955Y186435D01*
X138206Y205183D01*
X138195Y205190D01*
X136773Y206406D01*
X135167Y207390D01*
X133426Y208111D01*
X131594Y208551D01*
X129729Y208697D01*
X129716Y208700D01*
X93414D01*
Y208702D01*
X90516Y208539D01*
X87655Y208053D01*
X84866Y207250D01*
X82185Y206139D01*
X79645Y204735D01*
X77278Y203056D01*
X75115Y201123D01*
X75115Y201123D01*
X74143Y200148D01*
X54715Y180720D01*
X54715Y180720D01*
X54715Y180720D01*
X53804Y179715D01*
X52586Y178371D01*
X50697Y175824D01*
X49067Y173105D01*
X47711Y170238D01*
X46643Y167253D01*
X45873Y164178D01*
X45407Y161041D01*
X45252Y157875D01*
X45252D01*
Y56709D01*
X45271Y56616D01*
X45133Y54511D01*
X44703Y52351D01*
X43995Y50265D01*
X43021Y48289D01*
X41797Y46458D01*
X40406Y44872D01*
X40327Y44819D01*
X25976Y30468D01*
X25518Y30591D01*
X25275D01*
X9007Y46858D01*
X9022Y46873D01*
X9022Y46873D01*
X8021Y47805D01*
X5210Y50422D01*
X1154Y53691D01*
X-3125Y56662D01*
X-7605Y59320D01*
X-12263Y61651D01*
X-17075Y63645D01*
X-22018Y65290D01*
X-27065Y66578D01*
X-32191Y67503D01*
X-37370Y68060D01*
X-42576Y68246D01*
Y68225D01*
X-69071D01*
X-69112Y68219D01*
X-70443Y68350D01*
X-71762Y68751D01*
X-72978Y69400D01*
X-73012Y69428D01*
X-74036Y70281D01*
X-75011Y71256D01*
X-76130Y72375D01*
Y75643D01*
X-76130D01*
X-76114Y76021D01*
X-76114D01*
X-76114Y77015D01*
Y79080D01*
X-80067D01*
Y79580D01*
X-80567D01*
Y83139D01*
X-84020D01*
Y81367D01*
X-86456D01*
Y78202D01*
X-87456D01*
Y81367D01*
X-89925D01*
X-90552Y82486D01*
Y85433D01*
X-90552Y86418D01*
X-90552Y87796D01*
Y92975D01*
X-89518Y93430D01*
X-89330Y93488D01*
X-88393Y93488D01*
X-86721D01*
Y96456D01*
Y99425D01*
X-87280D01*
X-88583Y99606D01*
X-88583Y100803D01*
Y114961D01*
X-88059Y116122D01*
X-87788Y116591D01*
X-87520Y117592D01*
Y118629D01*
X-87788Y119630D01*
X-88306Y120528D01*
X-89039Y121261D01*
X-89937Y121779D01*
X-90938Y122047D01*
X-91975D01*
X-92976Y121779D01*
X-93874Y121261D01*
X-94607Y120528D01*
X-95125Y119630D01*
X-95394Y118629D01*
Y117592D01*
X-95207Y116896D01*
X-95793Y115769D01*
X-95999Y115515D01*
X-96245Y115471D01*
X-97520Y116505D01*
Y122047D01*
X-104188Y122047D01*
X-104346Y122047D01*
X-104535Y122061D01*
X-105474Y122365D01*
X-105697Y123248D01*
X-105709Y123422D01*
X-105709Y123598D01*
Y136614D01*
X-113189D01*
Y122441D01*
X-106914Y122441D01*
X-106757Y122441D01*
X-106567Y122428D01*
X-105629Y122123D01*
X-105405Y121240D01*
X-105394Y121067D01*
X-105394Y120890D01*
Y114173D01*
X-104331D01*
Y100803D01*
X-104331Y99606D01*
X-105634Y99426D01*
X-106193D01*
Y96457D01*
Y93489D01*
X-104521D01*
X-103584Y93489D01*
X-103395Y93430D01*
X-102363Y92974D01*
Y87796D01*
X-102363Y86418D01*
X-102363Y85433D01*
Y80118D01*
X-100303D01*
X-100028Y79738D01*
X-100513Y78057D01*
X-100668Y77994D01*
X-100763Y78058D01*
X-101378Y78180D01*
X-101992Y78058D01*
X-102513Y77710D01*
X-102861Y77189D01*
X-102984Y76575D01*
Y74440D01*
X-105118D01*
X-105733Y74318D01*
X-106254Y73970D01*
X-106602Y73449D01*
X-107118Y72899D01*
X-107607Y72670D01*
X-107971Y72602D01*
X-108327Y72775D01*
X-109016Y73304D01*
X-109414Y73469D01*
X-109414Y73469D01*
X-109414Y73469D01*
X-109416Y73470D01*
X-109417Y73470D01*
X-109817Y73636D01*
X-110678Y73749D01*
Y73746D01*
X-120573D01*
Y73751D01*
X-121823Y73628D01*
X-121894Y73607D01*
X-123024Y73264D01*
X-124132Y72672D01*
X-125102Y71876D01*
X-125899Y70905D01*
X-126490Y69798D01*
X-126833Y68667D01*
X-126855Y68596D01*
X-126978Y67347D01*
X-126972D01*
Y63903D01*
X-150256D01*
Y64764D01*
X-153476D01*
Y64780D01*
X-155004D01*
Y62599D01*
X-155504D01*
Y62098D01*
X-157531D01*
Y60760D01*
X-158282Y60403D01*
X-158853Y60281D01*
X-159309Y60737D01*
X-159933Y60996D01*
Y59055D01*
Y57114D01*
X-159309Y57373D01*
X-158815Y57867D01*
X-158428Y57783D01*
X-157516Y57366D01*
Y55450D01*
X-157978Y55095D01*
X-159120Y54622D01*
X-160433Y54466D01*
X-161538Y54320D01*
X-161724Y54243D01*
X-162567Y53894D01*
X-163452Y53215D01*
X-164130Y52331D01*
X-164479Y51487D01*
X-164556Y51302D01*
X-164702Y50197D01*
X-164690D01*
Y39528D01*
X-164700D01*
X-164561Y37758D01*
X-164146Y36031D01*
X-163467Y34391D01*
X-162539Y32877D01*
X-161386Y31527D01*
X-160036Y30374D01*
X-158522Y29446D01*
X-156882Y28767D01*
X-155156Y28352D01*
X-153386Y28213D01*
Y28223D01*
X-143532D01*
Y28209D01*
X-141964Y28364D01*
X-140455Y28821D01*
X-139066Y29564D01*
X-137847Y30564D01*
X-137847Y30564D01*
X-136848Y31479D01*
X-136012Y32212D01*
X-133959Y33584D01*
X-131745Y34676D01*
X-129407Y35469D01*
X-126986Y35951D01*
X-125870Y36024D01*
X-124522Y36097D01*
Y36097D01*
X-94465D01*
X-94341Y35960D01*
X-93863Y34719D01*
X-94468Y33932D01*
X-95033Y32567D01*
X-95174Y31496D01*
X-102067D01*
Y30944D01*
X-103564D01*
X-103626Y30932D01*
X-104871Y30809D01*
X-105850Y30512D01*
X-109046D01*
X-110417Y30528D01*
X-111410Y30528D01*
X-113082D01*
Y27559D01*
Y24591D01*
X-111410D01*
X-110417Y24591D01*
X-109046Y24607D01*
X-106691D01*
X-105925Y23978D01*
X-104754Y23352D01*
X-104804Y22468D01*
X-104997Y21974D01*
X-124311D01*
Y21991D01*
X-125672Y21931D01*
X-125672Y21931D01*
X-128134Y21824D01*
X-131927Y21324D01*
X-135662Y20496D01*
X-139310Y19346D01*
X-142845Y17882D01*
X-146239Y16115D01*
X-149465Y14060D01*
X-152500Y11731D01*
X-155321Y9146D01*
X-155309Y9134D01*
X-160177Y4266D01*
X-160304Y4256D01*
X-161663Y4729D01*
X-161748Y5045D01*
X-162207Y5839D01*
X-162855Y6488D01*
X-163650Y6947D01*
X-164536Y7184D01*
X-165454D01*
X-166340Y6947D01*
X-167134Y6488D01*
X-167783Y5839D01*
X-168242Y5045D01*
X-168479Y4158D01*
Y3241D01*
X-168242Y2355D01*
X-167783Y1560D01*
X-167134Y912D01*
X-166340Y453D01*
X-166024Y368D01*
X-165551Y-991D01*
X-165561Y-1118D01*
X-169266Y-4822D01*
X-169266Y-4822D01*
X-169279Y-4809D01*
X-170183Y-5820D01*
X-171378Y-7157D01*
X-173200Y-9726D01*
X-174724Y-12482D01*
X-175929Y-15392D01*
X-176801Y-18418D01*
X-177328Y-21523D01*
X-177505Y-24667D01*
X-177486D01*
X-177486Y-24667D01*
Y-181942D01*
X-177504Y-183320D01*
X-177504Y-183320D01*
X-177416Y-184669D01*
X-177330Y-185985D01*
X-176809Y-188604D01*
X-175950Y-191133D01*
X-174769Y-193528D01*
X-173285Y-195748D01*
X-171525Y-197756D01*
X-171528Y-197760D01*
X-171528Y-197760D01*
X-170516Y-198648D01*
X-169272Y-199738D01*
X-166778Y-201405D01*
X-164876Y-202343D01*
X-165198Y-203721D01*
X-187009Y-203721D01*
X-187009Y-203721D01*
X-187010Y-203721D01*
X-187685Y-203722D01*
X-189012Y-203458D01*
X-190263Y-202940D01*
X-191388Y-202188D01*
X-192345Y-201231D01*
X-193097Y-200105D01*
X-193615Y-198855D01*
X-193879Y-197527D01*
Y-196850D01*
X-193878Y3938D01*
X-193878Y3938D01*
X-193878Y3939D01*
X-193879Y4614D01*
X-193615Y5941D01*
X-193097Y7192D01*
X-192345Y8317D01*
X-191388Y9274D01*
X-190263Y10026D01*
X-189012Y10544D01*
X-187685Y10808D01*
X-187008D01*
X-180197Y10808D01*
X-180185Y10810D01*
X-180172Y10808D01*
X-179580Y10822D01*
X-179543Y10831D01*
X-179506Y10827D01*
X-178327Y10943D01*
X-178280Y10958D01*
X-178230D01*
X-177068Y11189D01*
X-177022Y11208D01*
X-176973Y11213D01*
X-175839Y11556D01*
X-175795Y11580D01*
X-175746Y11590D01*
X-174652Y12043D01*
X-174610Y12071D01*
X-174563Y12085D01*
X-173518Y12643D01*
X-173480Y12675D01*
X-173434Y12694D01*
X-172449Y13352D01*
X-172414Y13387D01*
X-172370Y13411D01*
X-171454Y14162D01*
X-171430Y14191D01*
X-171399Y14211D01*
X-170969Y14620D01*
X-170962Y14630D01*
X-170952Y14637D01*
X-170550Y15038D01*
X-170550Y15039D01*
X-170149Y15440D01*
X-170142Y15450D01*
X-170132Y15458D01*
X-169723Y15887D01*
X-169703Y15918D01*
X-169674Y15942D01*
X-168923Y16858D01*
X-168899Y16902D01*
X-168864Y16937D01*
X-168206Y17922D01*
X-168187Y17968D01*
X-168155Y18006D01*
X-167597Y19051D01*
X-167582Y19099D01*
X-167555Y19140D01*
X-167101Y20234D01*
X-167092Y20283D01*
X-167068Y20327D01*
X-166724Y21461D01*
X-166719Y21510D01*
X-166700Y21556D01*
X-166469Y22718D01*
Y22768D01*
X-166455Y22816D01*
X-166339Y23994D01*
X-166342Y24032D01*
X-166334Y24068D01*
X-166320Y24660D01*
X-166322Y24673D01*
X-166319Y24685D01*
X-166319Y178071D01*
X-166319Y178615D01*
X-166213Y179697D01*
X-166001Y180763D01*
X-165685Y181804D01*
X-165269Y182808D01*
X-164756Y183768D01*
X-164152Y184672D01*
X-163462Y185512D01*
X-163078Y185897D01*
X-140621Y208353D01*
X-140237Y208738D01*
X-139396Y209428D01*
X-138492Y210032D01*
X-137533Y210544D01*
X-136528Y210961D01*
X-135488Y211276D01*
X-134421Y211488D01*
X-133339Y211595D01*
X-132795Y211595D01*
X132795Y211595D01*
X133339Y211595D01*
D02*
G37*
G36*
X93414Y204686D02*
X129716D01*
X129807Y204704D01*
X131281Y204559D01*
X132785Y204102D01*
X134172Y203361D01*
X135316Y202422D01*
X135368Y202345D01*
X154116Y183596D01*
X154194Y183545D01*
X155133Y182400D01*
X155874Y181014D01*
X156331Y179509D01*
X156476Y178036D01*
X156457Y177945D01*
Y156117D01*
X155118Y156024D01*
Y156024D01*
X152594D01*
X151575Y156889D01*
Y160502D01*
X152097Y161663D01*
X152849Y162579D01*
X152915Y162703D01*
X153408Y163624D01*
X153710Y164623D01*
X153752Y164758D01*
X153868Y165938D01*
X153864D01*
Y167899D01*
X153879D01*
X153719Y169111D01*
X153681Y169202D01*
X153252Y170239D01*
X152508Y171209D01*
X151539Y171952D01*
X150501Y172382D01*
X150436Y172409D01*
X150402Y172496D01*
X150263Y173829D01*
X150435Y173900D01*
X151402Y174547D01*
X152225Y175369D01*
X152871Y176337D01*
X153316Y177411D01*
X153543Y178552D01*
Y179716D01*
X153316Y180856D01*
X152871Y181931D01*
X152225Y182898D01*
X151402Y183721D01*
X150435Y184367D01*
X149360Y184812D01*
X148219Y185039D01*
X147056D01*
X145915Y184812D01*
X144841Y184367D01*
X143873Y183721D01*
X143051Y182898D01*
X142404Y181931D01*
X141959Y180856D01*
X141732Y179716D01*
Y178552D01*
X141868Y177871D01*
X140598Y177192D01*
X130673Y187117D01*
X129702Y188088D01*
X129702Y188088D01*
X129699Y188091D01*
X129699Y188091D01*
X129698Y188091D01*
X128841Y189113D01*
X128665Y189328D01*
X127902Y190755D01*
X127666Y191535D01*
X128579Y192913D01*
X129921D01*
Y200787D01*
X122047D01*
Y192913D01*
X124750D01*
X124805Y192215D01*
X125203Y190559D01*
X125855Y188985D01*
X126745Y187532D01*
X127848Y186241D01*
X127851Y186237D01*
X127857Y186243D01*
X134623Y179477D01*
X133923Y178228D01*
X133455Y178340D01*
X131685Y178480D01*
Y178470D01*
X129811D01*
X129754Y178459D01*
X128112Y178620D01*
X126477Y179116D01*
X124971Y179921D01*
X123695Y180968D01*
X123663Y181017D01*
X109542Y195138D01*
X109653Y195331D01*
X109921Y196332D01*
Y197369D01*
X109653Y198370D01*
X109135Y199268D01*
X108402Y200001D01*
X107504Y200519D01*
X106503Y200787D01*
X105466D01*
X104465Y200519D01*
X103567Y200001D01*
X102834Y199268D01*
X102315Y198370D01*
X102047Y197369D01*
Y196332D01*
X102315Y195331D01*
X102834Y194433D01*
X103567Y193700D01*
X104465Y193182D01*
X105466Y192913D01*
X106503D01*
X107504Y193182D01*
X107697Y193293D01*
X121818Y179172D01*
X121811Y179165D01*
X123161Y178012D01*
X124675Y177084D01*
X126315Y176405D01*
X128042Y175990D01*
X129811Y175851D01*
Y175861D01*
X131685D01*
X131742Y175872D01*
X133384Y175710D01*
X135019Y175215D01*
X136525Y174409D01*
X137801Y173362D01*
X137833Y173314D01*
X138553Y172594D01*
X138570Y172583D01*
X139354Y171627D01*
X139551Y171259D01*
X138725Y169882D01*
X135827D01*
Y166821D01*
X135692Y165499D01*
X134869Y164496D01*
X134853Y164466D01*
X134258Y163352D01*
X133891Y162143D01*
X133881Y162110D01*
X133754Y160819D01*
X133759D01*
D01*
X133760D01*
X133761Y159442D01*
Y156024D01*
X113864D01*
Y159095D01*
X113864D01*
X113762Y159868D01*
X113464Y160590D01*
X112988Y161209D01*
X112369Y161684D01*
X111648Y161983D01*
X110874Y162084D01*
Y162084D01*
X87196D01*
Y162100D01*
X85105Y161935D01*
X83067Y161446D01*
X81129Y160644D01*
X79342Y159548D01*
X77747Y158186D01*
X77759Y158175D01*
X53188Y133604D01*
X53181Y133611D01*
X52028Y132261D01*
X51100Y130747D01*
X50644Y129647D01*
X49266Y129921D01*
Y157875D01*
X49240Y158004D01*
X49411Y161046D01*
X49944Y164178D01*
X50823Y167230D01*
X52039Y170165D01*
X53575Y172946D01*
X55413Y175536D01*
X57443Y177808D01*
X57553Y177882D01*
X77955Y198283D01*
X78031Y198397D01*
X80083Y200196D01*
X82465Y201787D01*
X85034Y203054D01*
X87746Y203975D01*
X90555Y204534D01*
X93280Y204713D01*
X93414Y204686D01*
D02*
G37*
G36*
X156407Y147504D02*
X156457Y146884D01*
Y146859D01*
X156461Y146842D01*
X156471Y146718D01*
X156331Y145294D01*
X155874Y143790D01*
X155133Y142403D01*
X154194Y141259D01*
X154116Y141207D01*
X154069Y141159D01*
X154061Y141148D01*
X152846Y139725D01*
X151862Y138119D01*
X151141Y136379D01*
X150701Y134547D01*
X150555Y132682D01*
X150552Y132669D01*
Y86614D01*
X148622D01*
Y76772D01*
X150552D01*
Y61229D01*
X150555Y61216D01*
X150701Y59351D01*
X151141Y57519D01*
X151862Y55778D01*
X152846Y54172D01*
X154061Y52749D01*
X154069Y52738D01*
X154116Y52691D01*
X154194Y52639D01*
X155133Y51495D01*
X155874Y50108D01*
X156259Y48840D01*
X154960Y48375D01*
X154609Y49223D01*
X153681Y50737D01*
X152528Y52087D01*
X152521Y52080D01*
X152521Y52080D01*
X130820Y73781D01*
X130771Y73813D01*
X129724Y75089D01*
X129562Y75394D01*
X130387Y76772D01*
X136496D01*
Y86614D01*
X128622D01*
X128273Y87848D01*
Y98220D01*
X128283D01*
X128144Y99990D01*
X127729Y101716D01*
X127050Y103357D01*
X126122Y104870D01*
X124969Y106221D01*
X124962Y106214D01*
X120276Y110900D01*
Y111651D01*
X119946Y112447D01*
X119337Y113056D01*
X118541Y113386D01*
X118164D01*
X117532Y114703D01*
X141694Y138865D01*
X141727Y138914D01*
X143003Y139961D01*
X144509Y140766D01*
X146143Y141262D01*
X147786Y141423D01*
X147843Y141412D01*
X149606D01*
Y141401D01*
X150711Y141546D01*
X150897Y141623D01*
X151741Y141972D01*
X152625Y142651D01*
X153303Y143535D01*
X153653Y144379D01*
X153730Y144564D01*
X153875Y145669D01*
X153864D01*
Y147852D01*
X154525Y148009D01*
X155037Y148103D01*
X156407Y147504D01*
D02*
G37*
G36*
X-120573Y71136D02*
X-111472D01*
X-110185Y70917D01*
X-109216Y70174D01*
X-109129Y70138D01*
X-108178Y69744D01*
X-108087Y69706D01*
X-108044Y69700D01*
X-107987Y69619D01*
Y68176D01*
X-108044Y68095D01*
X-108087Y68089D01*
X-108178Y68051D01*
X-109125Y67659D01*
X-109216Y67622D01*
X-110185Y66878D01*
X-110175Y66867D01*
X-115179Y61862D01*
X-115188Y61871D01*
X-115188Y61871D01*
X-115604Y61329D01*
X-115886Y60962D01*
X-115951Y60804D01*
X-116260Y60060D01*
X-116325Y59903D01*
X-116475Y58766D01*
X-116462D01*
X-116462Y58766D01*
Y51969D01*
X-116469Y50591D01*
X-116469Y50591D01*
X-116342Y49298D01*
X-115964Y48055D01*
X-115352Y46909D01*
X-114597Y45990D01*
X-114651Y45638D01*
X-115124Y44612D01*
X-120589D01*
X-120611Y44607D01*
X-121568Y44733D01*
X-122480Y45111D01*
X-123263Y45712D01*
X-123864Y46495D01*
X-124242Y47407D01*
X-124368Y48363D01*
X-124363Y48386D01*
Y62598D01*
Y67347D01*
X-124368Y67370D01*
X-124241Y68330D01*
X-123862Y69245D01*
X-123258Y70032D01*
X-122472Y70635D01*
X-121556Y71014D01*
X-120596Y71141D01*
X-120573Y71136D01*
D02*
G37*
G36*
X-78259Y66059D02*
X-78259Y66059D01*
X-76708Y64735D01*
X-74970Y63670D01*
X-73086Y62889D01*
X-71104Y62414D01*
X-69071Y62254D01*
Y62268D01*
X-57980D01*
Y51681D01*
X-58138Y51299D01*
Y50438D01*
X-57926Y49927D01*
X-58337Y48967D01*
X-58664Y48549D01*
X-110001Y48549D01*
X-110030Y48543D01*
X-110726Y48681D01*
X-111341Y49092D01*
X-111752Y49707D01*
X-111890Y50403D01*
X-111884Y50432D01*
Y58071D01*
X-111888Y58088D01*
X-111765Y58704D01*
X-111407Y59241D01*
X-110870Y59600D01*
X-110254Y59723D01*
X-110236Y59719D01*
X-108874D01*
Y57586D01*
X-105709D01*
Y57086D01*
X-105209D01*
Y54118D01*
X-102544D01*
Y54118D01*
X-102166Y54133D01*
Y54134D01*
X-96653D01*
X-95867Y54134D01*
Y54133D01*
X-95275Y54134D01*
Y54134D01*
X-88976D01*
Y54134D01*
X-88583Y54528D01*
X-82678D01*
Y57743D01*
X-82135Y58896D01*
Y58896D01*
X-81217Y60014D01*
X-80534Y61291D01*
X-80114Y62675D01*
X-79972Y64116D01*
X-79977D01*
Y65998D01*
X-78712Y66522D01*
X-78259Y66059D01*
D02*
G37*
G36*
X-126972Y48386D02*
X-126972Y48386D01*
X-126978D01*
X-126978Y48386D01*
X-126944Y48045D01*
X-126855Y47139D01*
X-126833Y47066D01*
X-126492Y45941D01*
X-125901Y44836D01*
X-125504Y44352D01*
X-126275Y43120D01*
X-126596Y43197D01*
X-128269Y43890D01*
X-129812Y44836D01*
X-131160Y45987D01*
X-131181Y46019D01*
X-139976Y54814D01*
X-139449Y56087D01*
X-136204D01*
Y58555D01*
X-139370D01*
Y59555D01*
X-136204D01*
Y61294D01*
X-126972D01*
Y48386D01*
D02*
G37*
G36*
X-24428Y39884D02*
X-22794Y39388D01*
X-21287Y38583D01*
X-20011Y37536D01*
X-19979Y37487D01*
X-14445Y31953D01*
X-15031Y30591D01*
X-15518D01*
X-16520Y30322D01*
X-17417Y29804D01*
X-18150Y29071D01*
X-18669Y28173D01*
X-18937Y27172D01*
Y26135D01*
X-18669Y25134D01*
X-18563Y24950D01*
X-19578Y23712D01*
X-20361Y22248D01*
X-20515Y21741D01*
X-21063Y20591D01*
X-26666D01*
X-30755Y24680D01*
X-35778Y29702D01*
X-35767Y29713D01*
X-36774Y30626D01*
X-38567Y32251D01*
X-41602Y34502D01*
X-44843Y36445D01*
X-48259Y38060D01*
X-49924Y38656D01*
X-49685Y40034D01*
X-35030D01*
X-26128D01*
X-26126Y40034D01*
X-26124Y40034D01*
X-26068Y40045D01*
X-24428Y39884D01*
D02*
G37*
G36*
X-158358Y45260D02*
X-155693D01*
Y45260D01*
X-155315Y45276D01*
Y45276D01*
X-149015D01*
Y46623D01*
X-145875D01*
X-145803Y46637D01*
X-144233Y46483D01*
X-142654Y46004D01*
X-141199Y45226D01*
X-139980Y44225D01*
X-139939Y44164D01*
X-137768Y41993D01*
X-136796Y41016D01*
X-136796Y41016D01*
X-135470Y39884D01*
X-133983Y38972D01*
X-132861Y38508D01*
X-132773Y37431D01*
X-132866Y37032D01*
X-135266Y35848D01*
X-137604Y34287D01*
X-139717Y32433D01*
X-139717Y32433D01*
X-140746Y31591D01*
X-140813Y31539D01*
X-142124Y30996D01*
X-143467Y30819D01*
X-143532Y30832D01*
X-144414D01*
X-144804Y32070D01*
X-144778Y32210D01*
X-143873Y32814D01*
X-143051Y33637D01*
X-142404Y34604D01*
X-141959Y35679D01*
X-141732Y36820D01*
Y37983D01*
X-141959Y39124D01*
X-142404Y40199D01*
X-143051Y41166D01*
X-143873Y41989D01*
X-144841Y42635D01*
X-145915Y43080D01*
X-147056Y43307D01*
X-148219D01*
X-149360Y43080D01*
X-150435Y42635D01*
X-151402Y41989D01*
X-152225Y41166D01*
X-152871Y40199D01*
X-153316Y39124D01*
X-153543Y37983D01*
Y36820D01*
X-153316Y35679D01*
X-152871Y34604D01*
X-152225Y33637D01*
X-151402Y32814D01*
X-150498Y32210D01*
X-150472Y32070D01*
X-150862Y30832D01*
X-153386D01*
X-153443Y30821D01*
X-155086Y30983D01*
X-156720Y31478D01*
X-158226Y32283D01*
X-159546Y33367D01*
X-160630Y34687D01*
X-161435Y36193D01*
X-161931Y37828D01*
X-162093Y39470D01*
X-162081Y39528D01*
Y43906D01*
X-162023Y45260D01*
X-159358D01*
Y48229D01*
X-158358D01*
Y45260D01*
D02*
G37*
G36*
X-86630Y22204D02*
Y21760D01*
X-83662D01*
Y21260D01*
X-83162D01*
Y18095D01*
X-81592D01*
Y15258D01*
X-83316Y15123D01*
X-85072Y14701D01*
X-86741Y14010D01*
X-88281Y13066D01*
X-89655Y11892D01*
X-89655Y11893D01*
X-90672Y11020D01*
X-90947Y10794D01*
X-92419Y10007D01*
X-94016Y9523D01*
X-95611Y9366D01*
X-95678Y9379D01*
X-99956D01*
X-100009Y9369D01*
X-101446Y9510D01*
X-102879Y9945D01*
X-103193Y10113D01*
X-102848Y11491D01*
X-95472D01*
X-95466Y11492D01*
X-94727Y11589D01*
X-94033Y11877D01*
X-93437Y12334D01*
X-92979Y12931D01*
X-92692Y13625D01*
X-92594Y14364D01*
X-92593Y14370D01*
Y15732D01*
X-91248D01*
Y18307D01*
Y20882D01*
X-92634D01*
Y20866D01*
X-95177D01*
Y20866D01*
X-99042D01*
X-99322Y21221D01*
X-98652Y22599D01*
X-91151D01*
X-91138Y22602D01*
X-89273Y22749D01*
X-88008Y23052D01*
X-86630Y22204D01*
D02*
G37*
G36*
X190494Y-165828D02*
X190710Y-165989D01*
Y-166153D01*
X190726Y-166238D01*
X190583Y-167698D01*
X190126Y-169202D01*
X189385Y-170589D01*
X188997Y-171063D01*
X185630D01*
Y-171063D01*
X185252Y-171047D01*
Y-171047D01*
X182587D01*
Y-174015D01*
X181587D01*
Y-171047D01*
X179454D01*
Y-166099D01*
X180832Y-165562D01*
X181275Y-166004D01*
X182242Y-166651D01*
X183317Y-167096D01*
X184458Y-167323D01*
X185621D01*
X186762Y-167096D01*
X187837Y-166651D01*
X188804Y-166004D01*
X189332Y-165477D01*
X190494Y-165828D01*
D02*
G37*
G36*
X182328Y-182726D02*
X182550Y-183656D01*
X182664Y-184808D01*
X182712Y-184968D01*
X183000Y-185915D01*
X183466Y-186788D01*
X183545Y-186936D01*
X184280Y-187831D01*
X184282Y-187829D01*
X185827Y-189373D01*
Y-191240D01*
Y-194390D01*
X184816Y-195276D01*
X184252D01*
Y-199643D01*
X183268Y-200627D01*
X182978Y-200604D01*
X181890Y-199974D01*
Y-195276D01*
X181348D01*
X180331Y-194405D01*
Y-193020D01*
X177756D01*
Y-192020D01*
X180331D01*
Y-190634D01*
X180315D01*
Y-188091D01*
Y-184941D01*
X180315D01*
Y-183107D01*
X181022Y-182483D01*
X181693Y-182279D01*
X182328Y-182726D01*
D02*
G37*
%LPC*%
G36*
X-127371Y204724D02*
X-128534D01*
X-129675Y204498D01*
X-130750Y204052D01*
X-131717Y203406D01*
X-132540Y202583D01*
X-133186Y201616D01*
X-133631Y200541D01*
X-133858Y199400D01*
Y198237D01*
X-133631Y197096D01*
X-133186Y196022D01*
X-132540Y195054D01*
X-131717Y194232D01*
X-130750Y193586D01*
X-129675Y193140D01*
X-128534Y192913D01*
X-127371D01*
X-126230Y193140D01*
X-125155Y193586D01*
X-124188Y194232D01*
X-123366Y195054D01*
X-122719Y196022D01*
X-122274Y197096D01*
X-122047Y198237D01*
Y199400D01*
X-122274Y200541D01*
X-122719Y201616D01*
X-123366Y202583D01*
X-124188Y203406D01*
X-125155Y204052D01*
X-126230Y204498D01*
X-127371Y204724D01*
D02*
G37*
G36*
X59734Y203740D02*
X58376D01*
X57046Y203475D01*
X55792Y202956D01*
X54663Y202202D01*
X53703Y201242D01*
X52950Y200114D01*
X52430Y198860D01*
X52165Y197529D01*
Y196172D01*
X52430Y194841D01*
X52950Y193587D01*
X53703Y192458D01*
X54663Y191499D01*
X55792Y190745D01*
X57046Y190225D01*
X58376Y189961D01*
X59734D01*
X61065Y190225D01*
X62319Y190745D01*
X63447Y191499D01*
X64407Y192458D01*
X65161Y193587D01*
X65680Y194841D01*
X65945Y196172D01*
Y197529D01*
X65680Y198860D01*
X65161Y200114D01*
X64407Y201242D01*
X63447Y202202D01*
X62319Y202956D01*
X61065Y203475D01*
X59734Y203740D01*
D02*
G37*
G36*
X-58376D02*
X-59734D01*
X-61065Y203475D01*
X-62319Y202956D01*
X-63447Y202202D01*
X-64407Y201242D01*
X-65161Y200114D01*
X-65680Y198860D01*
X-65945Y197529D01*
Y196172D01*
X-65680Y194841D01*
X-65161Y193587D01*
X-64407Y192458D01*
X-63447Y191499D01*
X-62319Y190745D01*
X-61065Y190225D01*
X-59734Y189961D01*
X-58376D01*
X-57046Y190225D01*
X-55792Y190745D01*
X-54663Y191499D01*
X-53703Y192458D01*
X-52950Y193587D01*
X-52430Y194841D01*
X-52165Y196172D01*
Y197529D01*
X-52430Y198860D01*
X-52950Y200114D01*
X-53703Y201242D01*
X-54663Y202202D01*
X-55792Y202956D01*
X-57046Y203475D01*
X-58376Y203740D01*
D02*
G37*
G36*
X8152Y188926D02*
X7737D01*
X7543Y188888D01*
X7345D01*
X6531Y188726D01*
X6348Y188650D01*
X6154Y188612D01*
X5387Y188294D01*
X5223Y188184D01*
X5040Y188109D01*
X4350Y187647D01*
X4210Y187507D01*
X4046Y187398D01*
X3459Y186811D01*
X3349Y186646D01*
X3209Y186506D01*
X2748Y185816D01*
X2672Y185634D01*
X2562Y185469D01*
X2245Y184702D01*
X2206Y184508D01*
X2131Y184326D01*
X1969Y183511D01*
Y183314D01*
X1930Y183120D01*
Y182705D01*
X1930Y146733D01*
Y146240D01*
X1969Y146046D01*
Y145849D01*
X2161Y144883D01*
X2236Y144700D01*
X2275Y144506D01*
X2652Y143596D01*
X2762Y143432D01*
X2837Y143249D01*
X3384Y142430D01*
X3524Y142291D01*
X3634Y142126D01*
X4330Y141430D01*
X4495Y141320D01*
X4635Y141180D01*
X5454Y140633D01*
X5636Y140557D01*
X5801Y140447D01*
X6711Y140071D01*
X6904Y140032D01*
X7087Y139956D01*
X8053Y139764D01*
X8251D01*
X8444Y139726D01*
X26004D01*
X26198Y139764D01*
X26396D01*
X27362Y139956D01*
X27545Y140032D01*
X27738Y140071D01*
X28648Y140447D01*
X28813Y140557D01*
X28995Y140633D01*
X29814Y141180D01*
X29954Y141320D01*
X30118Y141430D01*
X30815Y142126D01*
X30925Y142291D01*
X31064Y142430D01*
X31612Y143249D01*
X31687Y143432D01*
X31797Y143596D01*
X32174Y144506D01*
X32212Y144700D01*
X32288Y144883D01*
X32480Y145849D01*
Y146046D01*
X32519Y146240D01*
Y157481D01*
Y159136D01*
X32497Y159244D01*
X32507Y159353D01*
X32149Y162644D01*
X32116Y162749D01*
X32114Y162859D01*
X31402Y166092D01*
X31358Y166192D01*
X31344Y166301D01*
X30286Y169438D01*
X30231Y169533D01*
X30206Y169640D01*
X28815Y172644D01*
X28750Y172733D01*
X28713Y172836D01*
X27005Y175672D01*
X26932Y175753D01*
X26883Y175852D01*
X24879Y178487D01*
X24797Y178559D01*
X24738Y178652D01*
X22461Y181055D01*
X22371Y181118D01*
X22303Y181204D01*
X19779Y183346D01*
X19683Y183399D01*
X19606Y183477D01*
X16865Y185334D01*
X16764Y185377D01*
X16679Y185446D01*
X13753Y186995D01*
X13648Y187026D01*
X13555Y187086D01*
X10479Y188309D01*
X10371Y188329D01*
X10273Y188379D01*
X8972Y188739D01*
X8920Y188774D01*
X8798Y188798D01*
X8687Y188854D01*
X8417Y188874D01*
X8152Y188926D01*
D02*
G37*
G36*
X-7737Y188926D02*
X-8152D01*
X-8417Y188873D01*
X-8687Y188853D01*
X-8798Y188797D01*
X-8920Y188773D01*
X-8972Y188739D01*
X-10273Y188378D01*
X-10371Y188329D01*
X-10479Y188309D01*
X-13555Y187085D01*
X-13648Y187026D01*
X-13753Y186994D01*
X-16679Y185445D01*
X-16764Y185376D01*
X-16865Y185333D01*
X-19606Y183477D01*
X-19683Y183399D01*
X-19779Y183346D01*
X-22303Y181204D01*
X-22371Y181118D01*
X-22461Y181054D01*
X-24738Y178652D01*
X-24797Y178559D01*
X-24879Y178486D01*
X-26883Y175852D01*
X-26932Y175753D01*
X-27005Y175672D01*
X-28713Y172836D01*
X-28750Y172732D01*
X-28815Y172643D01*
X-30206Y169639D01*
X-30231Y169533D01*
X-30286Y169437D01*
X-31344Y166300D01*
X-31358Y166192D01*
X-31402Y166091D01*
X-32114Y162858D01*
X-32116Y162748D01*
X-32149Y162644D01*
X-32507Y159353D01*
X-32497Y159243D01*
X-32519Y159135D01*
Y157480D01*
Y146240D01*
X-32480Y146046D01*
Y145848D01*
X-32288Y144882D01*
X-32212Y144700D01*
X-32174Y144506D01*
X-31797Y143596D01*
X-31687Y143431D01*
X-31612Y143249D01*
X-31064Y142430D01*
X-30925Y142290D01*
X-30815Y142126D01*
X-30118Y141429D01*
X-29954Y141320D01*
X-29814Y141180D01*
X-28995Y140632D01*
X-28813Y140557D01*
X-28648Y140447D01*
X-27738Y140070D01*
X-27545Y140032D01*
X-27362Y139956D01*
X-26396Y139764D01*
X-26198D01*
X-26004Y139725D01*
X-8444D01*
X-8251Y139764D01*
X-8053D01*
X-7087Y139956D01*
X-6904Y140032D01*
X-6711Y140070D01*
X-5801Y140447D01*
X-5636Y140557D01*
X-5454Y140632D01*
X-4635Y141180D01*
X-4495Y141320D01*
X-4330Y141429D01*
X-3634Y142126D01*
X-3524Y142290D01*
X-3384Y142430D01*
X-2837Y143249D01*
X-2762Y143431D01*
X-2652Y143596D01*
X-2275Y144506D01*
X-2236Y144700D01*
X-2161Y144882D01*
X-1969Y145848D01*
Y146046D01*
X-1930Y146240D01*
Y146732D01*
X-1930Y182704D01*
Y183119D01*
X-1969Y183313D01*
Y183511D01*
X-2131Y184325D01*
X-2206Y184508D01*
X-2245Y184702D01*
X-2562Y185469D01*
X-2672Y185633D01*
X-2748Y185816D01*
X-3209Y186506D01*
X-3349Y186646D01*
X-3459Y186810D01*
X-4046Y187397D01*
X-4210Y187507D01*
X-4350Y187647D01*
X-5040Y188108D01*
X-5223Y188184D01*
X-5387Y188294D01*
X-6154Y188611D01*
X-6348Y188650D01*
X-6531Y188725D01*
X-7345Y188887D01*
X-7543D01*
X-7737Y188926D01*
D02*
G37*
G36*
X-79724Y136614D02*
X-87205D01*
Y122441D01*
X-79724D01*
Y136614D01*
D02*
G37*
G36*
X-107193Y99426D02*
X-109858D01*
Y96957D01*
X-107193D01*
Y99426D01*
D02*
G37*
G36*
X-83055Y99425D02*
X-85721D01*
Y96956D01*
X-83055D01*
Y99425D01*
D02*
G37*
G36*
X-107193Y95957D02*
X-109858D01*
Y93489D01*
X-107193D01*
Y95957D01*
D02*
G37*
G36*
X-83055Y95956D02*
X-85721D01*
Y93488D01*
X-83055D01*
Y95956D01*
D02*
G37*
G36*
X-8445Y135865D02*
X-26004D01*
X-26198Y135827D01*
X-26396D01*
X-27362Y135635D01*
X-27544Y135559D01*
X-27738Y135520D01*
X-28648Y135143D01*
X-28813Y135034D01*
X-28995Y134958D01*
X-29814Y134411D01*
X-29954Y134271D01*
X-30118Y134161D01*
X-30815Y133465D01*
X-30925Y133300D01*
X-31064Y133161D01*
X-31612Y132342D01*
X-31687Y132159D01*
X-31797Y131995D01*
X-32174Y131085D01*
X-32212Y130891D01*
X-32288Y130708D01*
X-32480Y129742D01*
Y129545D01*
X-32519Y129351D01*
Y118110D01*
Y116455D01*
X-32497Y116347D01*
X-32507Y116238D01*
X-32149Y112947D01*
X-32116Y112842D01*
X-32114Y112732D01*
X-31402Y109500D01*
X-31358Y109399D01*
X-31344Y109290D01*
X-30286Y106153D01*
X-30231Y106058D01*
X-30206Y105951D01*
X-28815Y102947D01*
X-28750Y102858D01*
X-28713Y102755D01*
X-27005Y99919D01*
X-26932Y99838D01*
X-26883Y99739D01*
X-24879Y97104D01*
X-24797Y97032D01*
X-24738Y96939D01*
X-22461Y94536D01*
X-22371Y94473D01*
X-22303Y94387D01*
X-19779Y92245D01*
X-19683Y92192D01*
X-19606Y92114D01*
X-16865Y90257D01*
X-16764Y90215D01*
X-16679Y90145D01*
X-13753Y88596D01*
X-13648Y88565D01*
X-13555Y88505D01*
X-10479Y87282D01*
X-10371Y87262D01*
X-10273Y87212D01*
X-8972Y86852D01*
X-8920Y86817D01*
X-8798Y86793D01*
X-8687Y86737D01*
X-8417Y86717D01*
X-8152Y86665D01*
X-7737D01*
X-7543Y86703D01*
X-7345D01*
X-6531Y86865D01*
X-6348Y86941D01*
X-6154Y86979D01*
X-5387Y87297D01*
X-5223Y87407D01*
X-5040Y87483D01*
X-4350Y87944D01*
X-4210Y88083D01*
X-4046Y88193D01*
X-3459Y88780D01*
X-3349Y88945D01*
X-3209Y89085D01*
X-2748Y89775D01*
X-2672Y89957D01*
X-2562Y90122D01*
X-2245Y90889D01*
X-2206Y91083D01*
X-2131Y91265D01*
X-1969Y92080D01*
Y92277D01*
X-1930Y92471D01*
Y92886D01*
Y128858D01*
Y129351D01*
X-1969Y129545D01*
Y129742D01*
X-2161Y130708D01*
X-2236Y130891D01*
X-2275Y131085D01*
X-2652Y131995D01*
X-2762Y132159D01*
X-2837Y132342D01*
X-3384Y133161D01*
X-3524Y133300D01*
X-3634Y133465D01*
X-4330Y134161D01*
X-4495Y134271D01*
X-4635Y134411D01*
X-5454Y134958D01*
X-5636Y135034D01*
X-5801Y135143D01*
X-6711Y135520D01*
X-6904Y135559D01*
X-7087Y135635D01*
X-8053Y135827D01*
X-8251D01*
X-8445Y135865D01*
D02*
G37*
G36*
X26004D02*
X8444D01*
X8251Y135827D01*
X8053D01*
X7087Y135635D01*
X6904Y135559D01*
X6711Y135520D01*
X5801Y135143D01*
X5636Y135034D01*
X5454Y134958D01*
X4635Y134411D01*
X4495Y134271D01*
X4330Y134161D01*
X3634Y133465D01*
X3524Y133300D01*
X3384Y133161D01*
X2837Y132342D01*
X2762Y132159D01*
X2652Y131995D01*
X2275Y131085D01*
X2236Y130891D01*
X2161Y130708D01*
X1969Y129742D01*
Y129545D01*
X1930Y129351D01*
Y128858D01*
Y92886D01*
Y92471D01*
X1969Y92277D01*
Y92080D01*
X2131Y91265D01*
X2206Y91083D01*
X2245Y90889D01*
X2562Y90122D01*
X2672Y89957D01*
X2748Y89775D01*
X3209Y89085D01*
X3349Y88945D01*
X3459Y88780D01*
X4046Y88193D01*
X4210Y88084D01*
X4350Y87944D01*
X5040Y87483D01*
X5223Y87407D01*
X5387Y87297D01*
X6154Y86979D01*
X6348Y86941D01*
X6531Y86865D01*
X7345Y86703D01*
X7543D01*
X7737Y86665D01*
X8152D01*
X8417Y86717D01*
X8687Y86737D01*
X8798Y86793D01*
X8920Y86817D01*
X8972Y86852D01*
X10273Y87212D01*
X10371Y87262D01*
X10479Y87282D01*
X13555Y88505D01*
X13648Y88565D01*
X13753Y88596D01*
X16679Y90145D01*
X16764Y90215D01*
X16865Y90257D01*
X19606Y92114D01*
X19683Y92192D01*
X19779Y92245D01*
X22303Y94387D01*
X22371Y94473D01*
X22461Y94536D01*
X24738Y96939D01*
X24797Y97032D01*
X24879Y97104D01*
X26883Y99739D01*
X26932Y99838D01*
X27005Y99919D01*
X28713Y102755D01*
X28750Y102858D01*
X28815Y102947D01*
X30206Y105951D01*
X30231Y106058D01*
X30286Y106153D01*
X31344Y109290D01*
X31358Y109399D01*
X31402Y109500D01*
X32114Y112732D01*
X32116Y112842D01*
X32149Y112947D01*
X32507Y116238D01*
X32497Y116347D01*
X32519Y116455D01*
Y118110D01*
Y129351D01*
X32480Y129545D01*
Y129742D01*
X32288Y130708D01*
X32212Y130891D01*
X32174Y131085D01*
X31797Y131995D01*
X31687Y132159D01*
X31612Y132342D01*
X31064Y133161D01*
X30925Y133300D01*
X30815Y133465D01*
X30118Y134161D01*
X29954Y134271D01*
X29814Y134411D01*
X28995Y134958D01*
X28813Y135034D01*
X28648Y135143D01*
X27738Y135520D01*
X27544Y135559D01*
X27362Y135635D01*
X26396Y135827D01*
X26198D01*
X26004Y135865D01*
D02*
G37*
G36*
X-76114Y83139D02*
X-79567D01*
Y80080D01*
X-76114D01*
Y83139D01*
D02*
G37*
G36*
X-58355Y84055D02*
X-59755D01*
X-61107Y83693D01*
X-62319Y82993D01*
X-63308Y82004D01*
X-64008Y80792D01*
X-64370Y79440D01*
Y78040D01*
X-64008Y76689D01*
X-63308Y75477D01*
X-62319Y74487D01*
X-61107Y73787D01*
X-59755Y73425D01*
X-58355D01*
X-57004Y73787D01*
X-55792Y74487D01*
X-54802Y75477D01*
X-54102Y76689D01*
X-53740Y78040D01*
Y79440D01*
X-54102Y80792D01*
X-54802Y82004D01*
X-55792Y82993D01*
X-57004Y83693D01*
X-58355Y84055D01*
D02*
G37*
G36*
X-156004Y64780D02*
X-157531D01*
Y63099D01*
X-156004D01*
Y64780D01*
D02*
G37*
G36*
X-160933Y60996D02*
X-161557Y60737D01*
X-162016Y60279D01*
X-162140Y60404D01*
X-162541Y60570D01*
Y59055D01*
Y57541D01*
X-162140Y57707D01*
X-162016Y57832D01*
X-161557Y57373D01*
X-160933Y57114D01*
Y59055D01*
Y60996D01*
D02*
G37*
G36*
X-163541Y60570D02*
X-163942Y60404D01*
X-164390Y59956D01*
X-164556Y59555D01*
X-163541D01*
Y60570D01*
D02*
G37*
G36*
Y58555D02*
X-164556D01*
X-164390Y58154D01*
X-163942Y57707D01*
X-163541Y57541D01*
Y58555D01*
D02*
G37*
G36*
X-114082Y30528D02*
X-116748D01*
Y28059D01*
X-114082D01*
Y30528D01*
D02*
G37*
G36*
Y27059D02*
X-116748D01*
Y24591D01*
X-114082D01*
Y27059D01*
D02*
G37*
G36*
X-184458Y-11811D02*
X-185621D01*
X-186762Y-12038D01*
X-187837Y-12483D01*
X-188804Y-13129D01*
X-189627Y-13952D01*
X-190273Y-14919D01*
X-190718Y-15994D01*
X-190945Y-17135D01*
Y-18298D01*
X-190718Y-19439D01*
X-190273Y-20514D01*
X-189627Y-21481D01*
X-188804Y-22304D01*
X-187837Y-22950D01*
X-186762Y-23395D01*
X-185621Y-23622D01*
X-184458D01*
X-183317Y-23395D01*
X-182242Y-22950D01*
X-181275Y-22304D01*
X-180452Y-21481D01*
X-179806Y-20514D01*
X-179361Y-19439D01*
X-179134Y-18298D01*
Y-17135D01*
X-179361Y-15994D01*
X-179806Y-14919D01*
X-180452Y-13952D01*
X-181275Y-13129D01*
X-182242Y-12483D01*
X-183317Y-12038D01*
X-184458Y-11811D01*
D02*
G37*
G36*
Y-155512D02*
X-185621D01*
X-186762Y-155739D01*
X-187837Y-156184D01*
X-188804Y-156830D01*
X-189627Y-157653D01*
X-190273Y-158620D01*
X-190718Y-159695D01*
X-190945Y-160836D01*
Y-161999D01*
X-190718Y-163140D01*
X-190273Y-164215D01*
X-189627Y-165182D01*
X-188804Y-166004D01*
X-187837Y-166651D01*
X-186762Y-167096D01*
X-185621Y-167323D01*
X-184458D01*
X-183317Y-167096D01*
X-182242Y-166651D01*
X-181275Y-166004D01*
X-180452Y-165182D01*
X-179806Y-164215D01*
X-179361Y-163140D01*
X-179134Y-161999D01*
Y-160836D01*
X-179361Y-159695D01*
X-179806Y-158620D01*
X-180452Y-157653D01*
X-181275Y-156830D01*
X-182242Y-156184D01*
X-183317Y-155739D01*
X-184458Y-155512D01*
D02*
G37*
G36*
X116505Y200803D02*
X116484D01*
Y197350D01*
X119937D01*
Y197371D01*
X119668Y198376D01*
X119147Y199277D01*
X118411Y200013D01*
X117510Y200534D01*
X116505Y200803D01*
D02*
G37*
G36*
X115484D02*
X115464D01*
X114459Y200534D01*
X113557Y200013D01*
X112821Y199277D01*
X112301Y198376D01*
X112031Y197371D01*
Y197350D01*
X115484D01*
Y200803D01*
D02*
G37*
G36*
X119937Y196350D02*
X116484D01*
Y192898D01*
X116505D01*
X117510Y193167D01*
X118411Y193687D01*
X119147Y194423D01*
X119668Y195325D01*
X119937Y196330D01*
Y196350D01*
D02*
G37*
G36*
X115484D02*
X112031D01*
Y196330D01*
X112301Y195325D01*
X112821Y194423D01*
X113557Y193687D01*
X114459Y193167D01*
X115464Y192898D01*
X115484D01*
Y196350D01*
D02*
G37*
G36*
X146512Y86630D02*
X143059D01*
Y82193D01*
X146512D01*
Y86630D01*
D02*
G37*
G36*
X142059D02*
X138606D01*
Y82193D01*
X142059D01*
Y86630D01*
D02*
G37*
G36*
X146512Y81193D02*
X143059D01*
Y76756D01*
X146512D01*
Y81193D01*
D02*
G37*
G36*
X142059D02*
X138606D01*
Y76756D01*
X142059D01*
Y81193D01*
D02*
G37*
G36*
X-106209Y56586D02*
X-108874D01*
Y54118D01*
X-106209D01*
Y56586D01*
D02*
G37*
G36*
X-24480Y30606D02*
X-24500D01*
Y27154D01*
X-21047D01*
Y27174D01*
X-21317Y28179D01*
X-21837Y29081D01*
X-22573Y29816D01*
X-23474Y30337D01*
X-24480Y30606D01*
D02*
G37*
G36*
X-25500D02*
X-25520D01*
X-26526Y30337D01*
X-27427Y29816D01*
X-28163Y29081D01*
X-28683Y28179D01*
X-28953Y27174D01*
Y27154D01*
X-25500D01*
Y30606D01*
D02*
G37*
G36*
X-21047Y26153D02*
X-24500D01*
Y22701D01*
X-24480D01*
X-23474Y22970D01*
X-22573Y23491D01*
X-21837Y24227D01*
X-21317Y25128D01*
X-21047Y26133D01*
Y26153D01*
D02*
G37*
G36*
X-25500D02*
X-28953D01*
Y26133D01*
X-28683Y25128D01*
X-28163Y24227D01*
X-27427Y23491D01*
X-26526Y22970D01*
X-25520Y22701D01*
X-25500D01*
Y26153D01*
D02*
G37*
G36*
X-88862Y20882D02*
X-90248D01*
Y18807D01*
X-88862D01*
Y20882D01*
D02*
G37*
G36*
X-84162Y20760D02*
X-86630D01*
Y18095D01*
X-84162D01*
Y20760D01*
D02*
G37*
G36*
X-88862Y17807D02*
X-90248D01*
Y15732D01*
X-88862D01*
Y17807D01*
D02*
G37*
%LPD*%
D10*
X-106410Y10547D02*
G03*
X-99956Y7874I6453J6453D01*
G01*
X-117636Y8858D02*
G03*
X-109614Y12181I0J11344D01*
G01*
X59390Y19685D02*
G03*
X61420Y14785I6930J0D01*
G01*
X-140307Y8858D02*
G03*
X-151814Y4092I0J-16273D01*
G01*
X-164912Y-9007D02*
G03*
X-171260Y-24331I15324J-15324D01*
G01*
X-171260Y-180608D02*
G03*
X-152816Y-199052I18443J0D01*
G01*
X116142Y19685D02*
G03*
X117657Y16028I5172J0D01*
G01*
X-81515Y13752D02*
G03*
X-88586Y10824I0J-10000D01*
G01*
X-95678Y7874D02*
G03*
X-88607Y10803I0J10000D01*
G01*
X-61456Y-199229D02*
G03*
X-68527Y-196300I-7071J-7071D01*
G01*
X191732Y-187149D02*
G03*
X190602Y-184420I-3860J0D01*
G01*
X189866Y-183684D02*
G03*
X188386Y-183071I-1480J-1480D01*
G01*
X49191Y-199621D02*
G03*
X55651Y-203051I7901J7082D01*
G01*
X49020Y-199425D02*
G03*
X49191Y-199621I8073J6886D01*
G01*
X181879Y-203051D02*
G03*
X184255Y-201769I-958J4616D01*
G01*
X104831Y-200122D02*
G03*
X111902Y-203051I7071J7071D01*
G01*
X96406D02*
G03*
X103477Y-200122I0J10000D01*
G01*
X-109716Y-196300D02*
G03*
X-116358Y-199052I0J-9394D01*
G01*
X190480Y-195544D02*
G03*
X191732Y-192520I-3024J3024D01*
G01*
X-86813Y63188D02*
G03*
X-86907Y62961I228J-227D01*
G01*
X-86812Y63188D02*
X-86813Y63188D01*
X-89096Y62054D02*
G03*
X-86907Y62961I0J3097D01*
G01*
X-95473Y63189D02*
G03*
X-94337Y62054I1135J0D01*
G01*
X118224Y15460D02*
X120728Y12956D01*
X121122D01*
X63248D02*
X63642D01*
X61420Y14785D02*
X63248Y12956D01*
X-99956Y7874D02*
X-95678D01*
X-108819Y12956D02*
X-106410Y10547D01*
X-109614Y12181D02*
X-108839Y12956D01*
X-132745Y8858D02*
X-117636D01*
X-140307D02*
X-132745D01*
X-164912Y-9007D02*
X-151814Y4092D01*
X-171260Y-180608D02*
Y-24331D01*
X-152816Y-199052D02*
X-116752D01*
X-116358Y-199445D01*
X117657Y16028D02*
X118224Y15460D01*
X-108839Y12956D02*
X-108819D01*
X-81515Y13752D02*
X-79585D01*
X-88607Y10803D02*
X-88586Y10824D01*
X-61456Y-199229D02*
X-61240Y-199445D01*
X-109716Y-196300D02*
X-68527D01*
X188386Y-183071D02*
Y-174015D01*
X189866Y-183684D02*
X190602Y-184420D01*
X191732Y-192520D02*
Y-187149D01*
X49191Y-199621D02*
X49567Y-199997D01*
X49016Y-199445D02*
X49191Y-199621D01*
X111902Y-203051D02*
X181879D01*
X104154Y-199445D02*
X104831Y-200122D01*
X181879Y-203051D02*
X181879D01*
X103477Y-200122D02*
X104154Y-199445D01*
X55651Y-203051D02*
X55651D01*
X96406D01*
X-80623Y71544D02*
X-80067Y72100D01*
X-81583Y70584D02*
X-80623Y71544D01*
X48996Y-199445D02*
X49016D01*
X184255Y-201769D02*
X187205Y-198819D01*
X190480Y-195544D01*
X177756Y-192520D02*
X181102D01*
X188386Y-174015D02*
X188780D01*
X-90748Y14764D02*
Y18307D01*
X-67126Y18307D02*
X-64567D01*
X-83662Y16733D02*
Y21260D01*
X-118109Y27559D02*
X-113582D01*
X-86812Y63188D02*
X-85630Y64370D01*
X-86813Y63188D02*
X-86812Y63188D01*
X-94337Y62054D02*
X-89096D01*
X-95473Y63189D02*
Y64370D01*
X-99410Y57480D02*
X-99016Y57086D01*
X-99410Y57480D02*
Y64468D01*
X-103475Y79064D02*
X-100732D01*
X-99410Y77742D01*
Y75295D02*
Y77742D01*
X-110678Y68898D02*
X-103839D01*
X-97441Y64468D02*
Y68898D01*
X-98425Y69882D02*
X-97441Y68898D01*
X-99410Y68898D02*
X-98425Y69882D01*
X-103839Y68898D02*
X-99410D01*
Y70866D02*
X-98425Y69882D01*
X-99410Y70866D02*
Y75295D01*
X-110236Y57086D02*
X-105709D01*
X-158858Y43702D02*
Y48229D01*
X-139370Y59055D02*
X-134843D01*
D12*
X-87599Y70866D02*
G03*
X-86956Y71509I0J643D01*
G01*
D02*
G03*
X-88282Y72835I-1326J0D01*
G01*
X-87056Y57087D02*
G03*
X-85630Y57678I0J2016D01*
G01*
X-83273Y60035D02*
G03*
X-81583Y64116I-4081J4081D01*
G01*
X-157825Y59055D02*
G03*
X-157825Y59055I-2608J0D01*
G01*
X-135658Y42154D02*
G03*
X-128937Y39370I6721J6721D01*
G01*
X-36914Y28567D02*
G03*
X-62994Y39370I-26081J-26081D01*
G01*
X-152268Y48477D02*
G03*
X-152165Y48229I351J0D01*
G01*
X-138804Y45300D02*
G03*
X-145875Y48229I-7071J-7071D01*
G01*
X-97441Y78515D02*
G03*
X-99410Y83268I-6722J0D01*
G01*
X-93504Y83268D02*
G03*
X-95473Y78516I4752J-4752D01*
G01*
X-85630Y57678D02*
X-83273Y60035D01*
X-92913Y72835D02*
X-88282D01*
X-93012Y70866D02*
X-87599D01*
X-92126Y57087D02*
X-87056D01*
X-81583Y64116D02*
Y70584D01*
X-138804Y45300D02*
X-135658Y42154D01*
X-128937Y39370D02*
X-62994D01*
X-36914Y28567D02*
X-31891Y23544D01*
X-25000Y16654D01*
X-152165Y48229D02*
X-145875D01*
X-152268Y48477D02*
Y55512D01*
X-97441Y75295D02*
Y78515D01*
X-95473Y75394D02*
Y78516D01*
D15*
X25512Y141733D02*
G03*
X30512Y146733I0J5000D01*
G01*
X8152Y186919D02*
G03*
X3937Y182705I0J-4215D01*
G01*
X30512Y157481D02*
G03*
X8143Y186886I-30512J0D01*
G01*
X-30512Y146732D02*
G03*
X-25512Y141732I5000J0D01*
G01*
X-3937Y182704D02*
G03*
X-8152Y186919I-4215J0D01*
G01*
X-8143Y186886D02*
G03*
X-30512Y157480I8143J-29405D01*
G01*
X30512Y128858D02*
G03*
X25512Y133858I-5000J0D01*
G01*
X3937Y92886D02*
G03*
X8152Y88672I4215J0D01*
G01*
X8143Y88705D02*
G03*
X30512Y118110I-8143J29405D01*
G01*
X-30512D02*
G03*
X-8143Y88705I30512J0D01*
G01*
X-8152Y88672D02*
G03*
X-3937Y92886I0J4215D01*
G01*
X-25512Y133858D02*
G03*
X-30512Y128858I0J-5000D01*
G01*
X8937Y133858D02*
G03*
X3937Y128858I0J-5000D01*
G01*
X-3937D02*
G03*
X-8937Y133858I-5000J0D01*
G01*
X3937Y146733D02*
G03*
X8937Y141733I5000J0D01*
G01*
X-8937Y141732D02*
G03*
X-3937Y146732I0J5000D01*
G01*
X194883Y3937D02*
G03*
X187008Y11812I-7875J0D01*
G01*
Y-204725D02*
G03*
X194883Y-196850I0J7875D01*
G01*
X-194883D02*
G03*
X-187008Y-204725I7875J0D01*
G01*
Y11812D02*
G03*
X-194883Y3937I0J-7875D01*
G01*
X-180197Y11811D02*
G03*
X-171661Y15347I0J12071D01*
G01*
X171661D02*
G03*
X180197Y11811I8535J8535D01*
G01*
X-170858Y16150D02*
G03*
X-167323Y24685I-8535J8535D01*
G01*
X162402Y29606D02*
G03*
X165937Y21071I12071J0D01*
G01*
X-163787Y186606D02*
G03*
X-167323Y178071I8535J-8535D01*
G01*
X-132795Y212598D02*
G03*
X-141331Y209063I0J-12071D01*
G01*
X141331D02*
G03*
X132795Y212598I-8535J-8535D01*
G01*
X162402Y182992D02*
G03*
X158866Y191528I-12071J0D01*
G01*
X30512Y146654D02*
X30512Y157481D01*
X3937Y146733D02*
Y182705D01*
X8937Y141733D02*
X25512D01*
X-30512Y157480D02*
X-30512Y146653D01*
X-3937Y146732D02*
Y182704D01*
X-25512Y141732D02*
X-8937D01*
X30512Y118110D02*
Y128937D01*
X3937Y92886D02*
Y128858D01*
X8937Y133858D02*
X25512D01*
X-25512D02*
X-8937D01*
X-3937Y92886D02*
Y128858D01*
X-30512Y118110D02*
Y128937D01*
X194882Y-196850D02*
X194882Y3938D01*
X180197Y11811D02*
X187009D01*
X-187009Y-204724D02*
X187009D01*
X-194882Y-196850D02*
X-194882Y3938D01*
X-187009Y11811D02*
X-180197D01*
X-171661Y15347D02*
X-171260Y15748D01*
X171260D02*
X171661Y15347D01*
X-171260Y15748D02*
X-170858Y16150D01*
X-167323Y24685D02*
Y31575D01*
X165937Y21071D02*
X171260Y15748D01*
X162402Y29606D02*
Y29766D01*
X-167323Y31575D02*
Y178071D01*
X-163787Y186606D02*
X-141331Y209063D01*
X-132795Y212598D02*
X132795D01*
X141331Y209063D02*
X158866Y191528D01*
X162402Y29766D02*
Y182992D01*
D16*
X-65446Y15308D02*
G03*
X-62008Y16732I0J4862D01*
G01*
X-73425Y17323D02*
G03*
X-71411Y15308I2015J0D01*
G01*
X-113401Y16732D02*
G03*
X-120472Y13803I0J-10000D01*
G01*
X-76575Y15162D02*
G03*
X-74369Y12956I2206J0D01*
G01*
X100362Y8819D02*
G03*
X107433Y11748I0J10000D01*
G01*
X32818Y7480D02*
G03*
X45107Y12035I0J18855D01*
G01*
X47331Y12956D02*
G03*
X45107Y12035I0J-3144D01*
G01*
X-37699Y13092D02*
G03*
X-24150Y7480I13548J13548D01*
G01*
X-41135Y16529D02*
G03*
X-48755Y19685I-7620J-7620D01*
G01*
X-61024Y20669D02*
G03*
X-58647Y19685I2376J2376D01*
G01*
X-61024Y20669D02*
G03*
X-63400Y21654I-2376J-2376D01*
G01*
X-65557D02*
G03*
X-69580Y19987I0J-5689D01*
G01*
D02*
G03*
X-70276Y18307I1680J-1680D01*
G01*
X-95472Y12795D02*
G03*
X-93898Y14370I0J1575D01*
G01*
X-105193Y14605D02*
G03*
X-103383Y12795I1810J0D01*
G01*
X-105193Y15626D02*
G03*
X-106299Y16732I-1106J0D01*
G01*
X-104210Y-199758D02*
G03*
X-103878Y-199445I-4943J5587D01*
G01*
X-109153Y-201630D02*
G03*
X-104210Y-199758I0J7460D01*
G01*
X-174213Y-182087D02*
G03*
X-154669Y-201630I19544J0D01*
G01*
X-170589Y-196821D02*
G03*
X-155309Y-203150I15279J15279D01*
G01*
X-176181Y-183320D02*
G03*
X-170589Y-196821I19093J-0D01*
G01*
X-57116Y-203150D02*
G03*
X-48770Y-199436I-0J11237D01*
G01*
X61808Y-199133D02*
G03*
X61476Y-199445I4943J-5587D01*
G01*
X66752Y-197260D02*
G03*
X61808Y-199133I0J-7460D01*
G01*
X110394Y-199606D02*
G03*
X108048Y-197260I-2346J0D01*
G01*
X110394Y-199606D02*
G03*
X112418Y-201630I2024J0D01*
G01*
X169224D02*
G03*
X172835Y-196457I-1901J5174D01*
G01*
X176378Y-183071D02*
G03*
X171653Y-187795I0J-4724D01*
G01*
X169059Y-199052D02*
G03*
X171653Y-196457I0J2595D01*
G01*
X175591Y-186221D02*
G03*
X172835Y-188976I0J-2756D01*
G01*
X-100197Y18307D02*
G03*
X-102559Y20669I-2362J0D01*
G01*
X-124311D02*
G03*
X-154387Y8212I-0J-42533D01*
G01*
X-168343Y-5745D02*
G03*
X-176181Y-24667I18922J-18922D01*
G01*
X-98425Y14764D02*
G03*
X-97047Y16142I0J1378D01*
G01*
X-102953Y16435D02*
G03*
X-101281Y14764I1672J0D01*
G01*
X-102953Y17204D02*
G03*
X-104449Y18701I-1496J0D01*
G01*
X-123130D02*
G03*
X-153206Y6243I-0J-42533D01*
G01*
X-167171Y-7722D02*
G03*
X-174213Y-24723I17001J-17001D01*
G01*
X-158722Y-14606D02*
G03*
X-166339Y-22223I0J-7617D01*
G01*
X91904Y824D02*
G03*
X96745Y-1181I4841J4841D01*
G01*
X84408Y11187D02*
G03*
X86436Y6292I6924J-0D01*
G01*
X138696Y-3589D02*
G03*
X132884Y-1181I-5813J-5813D01*
G01*
X93120Y-4538D02*
G03*
X100191Y-7467I7071J7071D01*
G01*
X82440Y10285D02*
G03*
X85369Y3214I10000J0D01*
G01*
X-77354Y2756D02*
G03*
X-84425Y-173I0J-10000D01*
G01*
X-95915Y-7521D02*
G03*
X-88844Y-4592I0J10000D01*
G01*
X24615Y-394D02*
G03*
X17544Y-3323I0J-10000D01*
G01*
X9203Y-7521D02*
G03*
X16274Y-4592I0J10000D01*
G01*
X65308Y-394D02*
G03*
X71605Y2214I0J8904D01*
G01*
X61550Y1181D02*
G03*
X74566Y14136I62J12955D01*
G01*
X-36280Y1181D02*
G03*
X-47940Y-3649I0J-16489D01*
G01*
X59063Y2756D02*
G03*
X72597Y16163I0J13535D01*
G01*
X57664Y4331D02*
G03*
X70629Y17250I0J12965D01*
G01*
X-107281Y4331D02*
G03*
X-120055Y-960I0J-18065D01*
G01*
X-39090Y11700D02*
G03*
X-25101Y5906I13990J13990D01*
G01*
X40116D02*
G03*
X47244Y8858I-0J10081D01*
G01*
X-37352Y15698D02*
G03*
X-21314Y9055I16039J16039D01*
G01*
X31359D02*
G03*
X40330Y12772I0J12688D01*
G01*
X9565Y10630D02*
G03*
X14964Y16650I-0J5431D01*
G01*
X-36368Y17667D02*
G03*
X-19379Y10630I16989J16989D01*
G01*
X71605Y2214D02*
G03*
X76534Y14116I-11902J11902D01*
G01*
X168615Y-90243D02*
G03*
X172244Y-81482I-8761J8761D01*
G01*
X160391Y-128777D02*
G03*
X169178Y-119991I0J8786D01*
G01*
X165441Y-141339D02*
G03*
X174213Y-132567I0J8771D01*
G01*
X166181Y-172444D02*
G03*
X176181Y-162444I0J10000D01*
G01*
X178150Y-173716D02*
G03*
X179893Y-177924I5951J0D01*
G01*
X44778Y36432D02*
G03*
X53150Y56642I-20211J20211D01*
G01*
X42810Y36904D02*
G03*
X51181Y57115I-20211J20211D01*
G01*
X56078Y131866D02*
G03*
X53150Y124795I7071J-7071D01*
G01*
X17071Y24582D02*
G03*
X24142Y21654I7071J7071D01*
G01*
D02*
G03*
X29975Y24070I0J8249D01*
G01*
X54110Y132681D02*
G03*
X51181Y125610I7071J-7071D01*
G01*
X71077Y106108D02*
G03*
X68660Y100273I5835J-5835D01*
G01*
X78658Y91762D02*
G03*
X76534Y86635I5127J-5127D01*
G01*
X82595Y90131D02*
G03*
X80471Y85004I5127J-5127D01*
G01*
X74721Y93393D02*
G03*
X72597Y88266I5127J-5127D01*
G01*
X86532Y88501D02*
G03*
X84408Y83374I5127J-5127D01*
G01*
X84564Y89316D02*
G03*
X82440Y84189I5127J-5127D01*
G01*
X76690Y92578D02*
G03*
X74566Y87450I5127J-5127D01*
G01*
X72753Y94208D02*
G03*
X70629Y89081I5127J-5127D01*
G01*
X80627Y90947D02*
G03*
X78503Y85820I5127J-5127D01*
G01*
X69858Y122023D02*
G03*
X66692Y114380I7644J-7644D01*
G01*
X73843Y815D02*
G03*
X78503Y12066I-11251J11251D01*
G01*
X62585Y37978D02*
G03*
X66692Y47894I-9916J9916D01*
G01*
X64000Y36441D02*
G03*
X68660Y47692I-11251J11251D01*
G01*
X75811Y-221D02*
G03*
X80471Y11030I-11251J11251D01*
G01*
X183858Y-183656D02*
G03*
X182610Y-180641I-4263J0D01*
G01*
X183858Y-183656D02*
G03*
X185205Y-186906I4597J0D01*
G01*
X187162Y-188863D02*
G03*
X188386Y-189370I1224J1225D01*
G01*
X174409Y-196850D02*
G03*
X176378Y-198819I1969J0D01*
G01*
X175591Y-189370D02*
G03*
X174409Y-190551I0J-1181D01*
G01*
X179134Y-4921D02*
G03*
X178150Y-7298I2376J-2376D01*
G01*
X69882Y-1969D02*
G03*
X71891Y-1136I0J2841D01*
G01*
X69882Y-1969D02*
G03*
X64841Y-4056I0J-7129D01*
G01*
X57701Y-7521D02*
G03*
X63976Y-4921I0J8875D01*
G01*
X74209Y-1822D02*
G03*
X73681Y-3097I1275J-1275D01*
G01*
X157899Y-30512D02*
G03*
X162402Y-26009I0J4502D01*
G01*
X157393Y-32480D02*
G03*
X164370Y-25503I0J6977D01*
G01*
X71850Y-30512D02*
G03*
X64961Y-37402I0J-6890D01*
G01*
X80077Y-32480D02*
G03*
X77953Y-34605I0J-2125D01*
G01*
X95515Y-34449D02*
G03*
X89530Y-40433I0J-5985D01*
G01*
X143135Y-35409D02*
G03*
X140816Y-34449I-2319J-2319D01*
G01*
X161892Y-79134D02*
G03*
X168307Y-72719I0J6415D01*
G01*
X167234Y-88210D02*
G03*
X170163Y-81139I-7071J7071D01*
G01*
X158782Y-92520D02*
G03*
X165853Y-89591I0J10000D01*
G01*
X160622Y-94095D02*
G03*
X167693Y-91166I0J10000D01*
G01*
X176181Y-3158D02*
G03*
X173252Y3913I-10000J0D01*
G01*
X154528Y26780D02*
G03*
X157457Y19709I10000J0D01*
G01*
X154528Y44086D02*
G03*
X151599Y51157I-10000J0D01*
G01*
X170163Y-4054D02*
G03*
X167987Y1198I-7427J-0D01*
G01*
X166339Y-5638D02*
G03*
X164163Y-386I-7427J-0D01*
G01*
X168307Y-4822D02*
G03*
X166132Y429I-7427J-0D01*
G01*
X172244Y-3192D02*
G03*
X170069Y2060I-7427J-0D01*
G01*
X164370Y-6284D02*
G03*
X162195Y-1032I-7427J-0D01*
G01*
X162402Y-7268D02*
G03*
X160226Y-2017I-7427J-0D01*
G01*
X174213Y-2376D02*
G03*
X172037Y2875I-7427J-0D01*
G01*
X163583Y-48031D02*
G03*
X166339Y-45276I0J2756D01*
G01*
X158027Y-14606D02*
G03*
X160591Y-12043I0J2564D01*
G01*
Y-7936D02*
G03*
X158631Y-3206I-6690J0D01*
G01*
X122559Y56780D02*
G03*
X125689Y49224I10686J-0D01*
G01*
X87854Y71800D02*
G03*
X90844Y64581I10208J-0D01*
G01*
X107854Y63133D02*
G03*
X110984Y55577I10686J-0D01*
G01*
X117559Y58996D02*
G03*
X120689Y51440I10686J-0D01*
G01*
X112559Y61053D02*
G03*
X115689Y53497I10686J-0D01*
G01*
X95060Y70499D02*
G03*
X98170Y62993I10616J-0D01*
G01*
X92854Y69752D02*
G03*
X95964Y62246I10616J-0D01*
G01*
X102854Y65349D02*
G03*
X105984Y57793I10686J-0D01*
G01*
X169178Y-99950D02*
G03*
X167323Y-95472I-6333J0D01*
G01*
Y-103824D02*
G03*
X160025Y-96527I-7297J0D01*
G01*
X159980Y-127256D02*
G03*
X167323Y-119914I0J7342D01*
G01*
X10709Y28577D02*
G03*
X9257Y32081I-4955J0D01*
G01*
X-10045Y47244D02*
G03*
X-10048Y47244I-2J-10000D01*
G01*
X-2977Y44315D02*
G03*
X-10045Y47244I-7071J-7071D01*
G01*
X8321Y30064D02*
G03*
X8321Y30065I-1996J-1994D01*
G01*
X9147Y28070D02*
G03*
X8321Y30064I-2821J0D01*
G01*
X-3961Y42347D02*
G03*
X-11032Y45276I-7071J-7071D01*
G01*
X-25789Y43307D02*
G03*
X-25796Y43307I-7J-10000D01*
G01*
X-18725Y40378D02*
G03*
X-25789Y43307I-7071J-7071D01*
G01*
X-9434Y26166D02*
G03*
X-5906Y22638I3528J0D01*
G01*
X-9434Y26166D02*
G03*
X-11287Y30641I-6327J0D01*
G01*
X-26124Y41339D02*
G03*
X-26128Y41339I-3J-10000D01*
G01*
X-19057Y38410D02*
G03*
X-26124Y41339I-7071J-7071D01*
G01*
X-70276Y31890D02*
G03*
X-71850Y33465I-1575J0D01*
G01*
X-88583D02*
G03*
X-90748Y31299I0J-2165D01*
G01*
X-51205Y29551D02*
G03*
X-65405Y35433I-14200J-14200D01*
G01*
X-89567D02*
G03*
X-93898Y31102I0J-4331D01*
G01*
X-49551Y30850D02*
G03*
X-65368Y37402I-15818J-15817D01*
G01*
X-124522D02*
G03*
X-138779Y31496I0J-20163D01*
G01*
X-132104Y45097D02*
G03*
X-123031Y41339I9072J9072D01*
G01*
X-115157Y50591D02*
G03*
X-109842Y45276I5316J-0D01*
G01*
X-113189Y50432D02*
G03*
X-110001Y47244I3188J-0D01*
G01*
X-125668Y48386D02*
G03*
X-120589Y43307I5079J-0D01*
G01*
X-114257Y60940D02*
G03*
X-115157Y58766I2174J-2174D01*
G01*
X-109252Y71850D02*
G03*
X-110678Y72441I-1426J-1426D01*
G01*
X-120573D02*
G03*
X-125668Y67347I0J-5094D01*
G01*
X6953Y18607D02*
G03*
X10709Y27673I-9067J9067D01*
G01*
X2953Y21654D02*
G03*
X-2088Y19566I0J-7129D01*
G01*
X3934Y21654D02*
G03*
X9147Y26867I0J5213D01*
G01*
X-42527Y15137D02*
G03*
X-48755Y17717I-6228J-6228D01*
G01*
X82559Y116693D02*
G03*
X81028Y116059I0J-2165D01*
G01*
X89630Y141796D02*
G03*
X92559Y148867I-7071J7071D01*
G01*
X88011Y158811D02*
G03*
X79497Y155284I0J-12041D01*
G01*
X87196Y160779D02*
G03*
X78681Y157253I0J-12041D01*
G01*
X102559Y157283D02*
G03*
X101032Y158811I-1527J0D01*
G01*
X112559Y159095D02*
G03*
X110874Y160779I-1685J0D01*
G01*
X-59632Y17717D02*
G03*
X-62008Y16732I0J-3360D01*
G01*
X30681Y11811D02*
G03*
X40474Y15868I-0J13849D01*
G01*
X19685Y16732D02*
G03*
X24606Y11811I4921J0D01*
G01*
X-106876Y66929D02*
G03*
X-109252Y65945I0J-3360D01*
G01*
Y71850D02*
G03*
X-106876Y70866I2376J2376D01*
G01*
X-163386Y39528D02*
G03*
X-153386Y29528I10000J0D01*
G01*
X-143532D02*
G03*
X-138779Y31496I0J6721D01*
G01*
X-116311Y-93504D02*
G03*
X-120079Y-97272I0J-3768D01*
G01*
X-121644Y-102205D02*
G03*
X-120079Y-98425I-3780J3780D01*
G01*
X-110665Y-95472D02*
G03*
X-118819Y-103627I0J-8154D01*
G01*
X-112839Y-104710D02*
G03*
X-115042Y-110030I5319J-5319D01*
G01*
X-115042Y-121178D02*
G03*
X-110236Y-125984I4806J0D01*
G01*
Y-97441D02*
G03*
X-116828Y-104032I0J-6591D01*
G01*
X-124016Y-125984D02*
G03*
X-116828Y-118796I0J7188D01*
G01*
X-84652Y-157480D02*
G03*
X-91535Y-164364I0J-6884D01*
G01*
X-95884Y-172444D02*
G03*
X-91535Y-168096I0J4349D01*
G01*
X124630Y137734D02*
G03*
X127559Y144805I-7071J7071D01*
G01*
X151174Y162591D02*
G03*
X152559Y165938I-3351J3347D01*
G01*
X151172Y162589D02*
G03*
X151174Y162591I-3349J3349D01*
G01*
X151573Y170278D02*
G03*
X149199Y171260I-2374J-2379D01*
G01*
X152559Y167899D02*
G03*
X151575Y170276I-3360J0D01*
G01*
D02*
G03*
X151573Y170278I-2376J-2376D01*
G01*
X142597Y173348D02*
G03*
X147638Y171260I5041J5041D01*
G01*
X128776Y187169D02*
G03*
X128779Y187165I6752J6745D01*
G01*
X125984Y193914D02*
G03*
X128776Y187169I9544J0D01*
G01*
X136620Y164572D02*
G03*
X135065Y160819I3752J-3752D01*
G01*
X146654Y164763D02*
G03*
X145074Y160946I3822J-3817D01*
G01*
X146656Y164766D02*
G03*
X146654Y164763I3820J-3820D01*
G01*
X140900Y162160D02*
G03*
X141732Y164170I-2014J2011D01*
G01*
X140899Y162158D02*
G03*
X140900Y162160I-2012J2012D01*
G01*
X141732Y168069D02*
G03*
X139476Y173516I-7704J0D01*
G01*
X138756Y174236D02*
G03*
X131685Y177165I-7071J-7071D01*
G01*
X122740Y180094D02*
G03*
X129811Y177165I7071J7071D01*
G01*
X104630Y126086D02*
G03*
X107559Y133157I-7071J7071D01*
G01*
X97559Y135914D02*
G03*
X100488Y128843I10000J0D01*
G01*
X119630Y135518D02*
G03*
X122559Y142589I-7071J7071D01*
G01*
X114630Y133302D02*
G03*
X117559Y140373I-7071J7071D01*
G01*
X129630Y139950D02*
G03*
X132559Y147021I-7071J7071D01*
G01*
X132136Y139673D02*
G03*
X135065Y146744I-7071J7071D01*
G01*
X143352Y145321D02*
G03*
X145074Y149481I-4166J4160D01*
G01*
X143350Y145318D02*
G03*
X143352Y145321I-4163J4163D01*
G01*
X140931Y145684D02*
G03*
X142559Y149617I-3939J3934D01*
G01*
X140929Y145681D02*
G03*
X140931Y145684I-3936J3936D01*
G01*
X149606Y142717D02*
G03*
X152559Y145669I0J2953D01*
G01*
X147843Y142717D02*
G03*
X140772Y139788I0J-10000D01*
G01*
X97989Y97005D02*
G03*
X95060Y89934I7071J-7071D01*
G01*
X126969Y98220D02*
G03*
X124040Y105291I-10000J0D01*
G01*
X126969Y79930D02*
G03*
X129897Y72859I10000J0D01*
G01*
X118110Y-101329D02*
G03*
X119954Y-105781I6296J0D01*
G01*
X124193Y-94095D02*
G03*
X118110Y-100177I0J-6082D01*
G01*
X121063Y-108268D02*
G03*
X120089Y-105915I-3327J0D01*
G01*
X110048Y-92520D02*
G03*
X102977Y-95449I0J-10000D01*
G01*
X97415Y-98425D02*
G03*
X95692Y-99139I0J-2438D01*
G01*
X98525Y-98326D02*
G03*
X101828Y-96598I-1109J6140D01*
G01*
X97415Y-98425D02*
G03*
X98525Y-98326I0J6240D01*
G01*
X92630Y-102200D02*
G03*
X90945Y-106274I4078J-4073D01*
G01*
X92633Y-102198D02*
G03*
X92630Y-102200I4076J-4076D01*
G01*
X68918Y-128777D02*
G03*
X61847Y-131706I0J-10000D01*
G01*
X44455Y-127256D02*
G03*
X37384Y-130185I0J-10000D01*
G01*
X-130757Y-7521D02*
G03*
X-123686Y-4592I0J10000D01*
G01*
X-55954Y-7521D02*
G03*
X-48883Y-4592I0J10000D01*
G01*
X-25719Y-16654D02*
G03*
X-30661Y-14606I-4942J-4942D01*
G01*
X-25715Y-16657D02*
G03*
X-20776Y-18701I4939J4946D01*
G01*
X-25719Y-16654D02*
G03*
X-25715Y-16657I4942J4942D01*
G01*
X28943Y-14606D02*
G03*
X24004Y-16650I0J-6990D01*
G01*
X19058Y-18701D02*
G03*
X24001Y-16654I0J6990D01*
G01*
X24004Y-16650D02*
G03*
X24001Y-16654I4939J-4946D01*
G01*
X-160433Y53150D02*
G03*
X-156051Y54965I0J6197D01*
G01*
X-160433Y53150D02*
G03*
X-163386Y50197I0J-2953D01*
G01*
X19685Y16732D02*
G03*
X14764Y21654I-4921J0D01*
G01*
D02*
G03*
X9843Y16732I0J-4921D01*
G01*
X7239Y12160D02*
G03*
X9843Y14764I0J2604D01*
G01*
X-19685Y16754D02*
G03*
X-15091Y12160I4594J0D01*
G01*
X-17591Y24062D02*
G03*
X-19685Y19008I5055J-5055D01*
G01*
X-3158Y22638D02*
G03*
X3913Y25567I0J10000D01*
G01*
X-104724Y61024D02*
G03*
X-101378Y64370I0J3347D01*
G01*
X-110236Y61024D02*
G03*
X-113189Y58071I0J-2953D01*
G01*
X97105Y-95472D02*
G03*
X90033Y-98401I0J-10000D01*
G01*
X-159244Y-65945D02*
G03*
X-166315Y-68874I0J-10000D01*
G01*
X-62377D02*
G03*
X-69448Y-65945I-7071J-7071D01*
G01*
X-166315Y-68874D02*
G03*
X-168307Y-73684I4810J-4810D01*
G01*
Y-93841D02*
G03*
X-165378Y-100912I10000J0D01*
G01*
X57077Y-122936D02*
G03*
X63976Y-120079I0J9757D01*
G01*
X12237Y-122936D02*
G03*
X5166Y-125865I0J-10000D01*
G01*
X837Y-127742D02*
G03*
X5024Y-126008I0J5920D01*
G01*
X-33984Y-127742D02*
G03*
X-41055Y-130671I0J-10000D01*
G01*
X-27716Y-187992D02*
G03*
X-17717Y-177992I0J10000D01*
G01*
X-167736Y-180689D02*
G03*
X-160433Y-187992I7303J0D01*
G01*
X-164807Y-166915D02*
G03*
X-167736Y-173986I7071J-7071D01*
G01*
X84646Y-61024D02*
G03*
X89530Y-56139I0J4885D01*
G01*
X62968Y-154551D02*
G03*
X64961Y-149741I-4810J4810D01*
G01*
X55897Y-157480D02*
G03*
X62968Y-154551I0J10000D01*
G01*
X-61983Y-100370D02*
G03*
X-69054Y-97441I-7071J-7071D01*
G01*
X19349Y-157480D02*
G03*
X12278Y-160409I0J-10000D01*
G01*
X-136163Y-125984D02*
G03*
X-143234Y-128913I0J-10000D01*
G01*
X148019Y-96527D02*
G03*
X140948Y-99456I0J-10000D01*
G01*
X10692Y-121063D02*
G03*
X12795Y-118959I0J2104D01*
G01*
X10692Y-121063D02*
G03*
X5882Y-123055I0J-6802D01*
G01*
X-1189Y-125984D02*
G03*
X5882Y-123055I0J10000D01*
G01*
X-166339Y-45276D02*
G03*
X-163583Y-48031I2756J0D01*
G01*
X94685D02*
G03*
X91535Y-51181I0J-3150D01*
G01*
X86444Y-63976D02*
G03*
X87775Y-63799I0J5091D01*
G01*
X-9435Y-63976D02*
G03*
X-11811Y-64961I0J-3360D01*
G01*
X-28755Y-65945D02*
G03*
X-35826Y-68874I0J-10000D01*
G01*
X-16142Y-79134D02*
G03*
X-12795Y-75787I0J3347D01*
G01*
X-50228Y-79134D02*
G03*
X-43157Y-76205I0J10000D01*
G01*
X-10236Y-79134D02*
G03*
X-12795Y-81693I0J-2559D01*
G01*
X-17717Y-95472D02*
G03*
X-12795Y-90551I0J4921D01*
G01*
X-45279Y-97438D02*
G03*
X-50028Y-95472I-4749J-4755D01*
G01*
X-29696D02*
G03*
X-34449Y-97441I0J-6721D01*
G01*
X-45276Y-97441D02*
G03*
X-40523Y-99410I4752J4752D01*
G01*
X-38999D02*
G03*
X-34591Y-97584I0J6234D01*
G01*
X-121307Y-110236D02*
G03*
X-118819Y-107748I0J2488D01*
G01*
X121063Y-110236D02*
G03*
X117126Y-114173I0J-3937D01*
G01*
X114173Y-125984D02*
G03*
X117126Y-123031I0J2953D01*
G01*
X15748Y-125984D02*
G03*
X11131Y-130601I0J-4617D01*
G01*
X7563Y-141339D02*
G03*
X11131Y-137771I0J3568D01*
G01*
X16142Y-141339D02*
G03*
X12795Y-144685I0J-3347D01*
G01*
X8858Y-157480D02*
G03*
X12795Y-153543I0J3937D01*
G01*
X91358Y-60216D02*
G03*
X91535Y-58885I-4914J1331D01*
G01*
X87775Y-63799D02*
G03*
X91358Y-60216I-1331J4914D01*
G01*
X-45276Y-97441D02*
G03*
X-45279Y-97438I-4752J-4752D01*
G01*
X-35457Y-74179D02*
G03*
X-38386Y-81250I7071J-7071D01*
G01*
X-40378Y-90575D02*
G03*
X-38386Y-85765I-4810J4810D01*
G01*
X-47449Y-93504D02*
G03*
X-40378Y-90575I0J10000D01*
G01*
X14111Y-124507D02*
G03*
X7331Y-132432I1244J-7926D01*
G01*
X110121Y-124507D02*
G03*
X115331Y-119297I0J5210D01*
G01*
Y-111355D02*
G03*
X112401Y-104284I-10000J0D01*
G01*
X-71411Y15308D02*
X-65446D01*
X-113401Y16732D02*
X-106299D01*
X-121319Y12956D02*
X-120472Y13803D01*
X-76575Y15162D02*
Y18307D01*
X-74369Y12956D02*
X-63839D01*
X107433Y11748D02*
X108642Y12956D01*
X91339Y8819D02*
X100362D01*
X47331Y12956D02*
X51161D01*
X-24150Y7480D02*
X32818D01*
X-41135Y16529D02*
X-37698Y13092D01*
X-58647Y19685D02*
X-48755D01*
X-65557Y21654D02*
X-63400D01*
X-93898Y14370D02*
Y18307D01*
X-103383Y12795D02*
X-95472D01*
X-105193Y14605D02*
Y15626D01*
X-154669Y-201630D02*
X-109153D01*
X-174213Y-182087D02*
Y-24723D01*
X-155309Y-203150D02*
X-57116D01*
X-176181Y-183320D02*
Y-24667D01*
X66752Y-197260D02*
X108048D01*
X169224Y-201630D02*
X169224D01*
X112418D02*
X169224D01*
X117028Y-199052D02*
X169059D01*
X116634Y-199445D02*
X117028Y-199052D01*
X176378Y-183071D02*
X177756D01*
X171653Y-196457D02*
Y-187795D01*
X175591Y-186221D02*
X177756D01*
X172835Y-196457D02*
Y-188976D01*
X-124311Y20669D02*
X-102559D01*
X-168343Y-5745D02*
X-154387Y8212D01*
X-97047Y16142D02*
Y18307D01*
X-101281Y14764D02*
X-98425D01*
X-102953Y16435D02*
Y17204D01*
X-123130Y18701D02*
X-104449D01*
X-167171Y-7722D02*
X-153206Y6243D01*
X-166339Y-45276D02*
Y-22223D01*
X-158722Y-14606D02*
X-149843D01*
X86436Y6292D02*
X91904Y824D01*
X96745Y-1181D02*
X132884D01*
X84408Y11187D02*
Y83374D01*
X138696Y-3589D02*
X142574Y-7467D01*
X104484D02*
X104484D01*
X100191D02*
X104484D01*
X85369Y3214D02*
X93120Y-4538D01*
X82440Y10285D02*
Y84189D01*
X-77354Y2756D02*
X59063D01*
X-88844Y-4592D02*
X-84425Y-173D01*
X-104420Y-7521D02*
X-95915D01*
X24615Y-394D02*
X65308D01*
X16274Y-4592D02*
X17544Y-3323D01*
X-28239Y-7521D02*
X9203D01*
X-36280Y1181D02*
X61550D01*
X-107281Y4331D02*
X57664D01*
X-25101Y5906D02*
X40116D01*
X-21314Y9055D02*
X31359D01*
X-19379Y10630D02*
X9565D01*
X74566Y14136D02*
Y87450D01*
X76534Y14116D02*
Y86635D01*
X-48883Y-4592D02*
X-47940Y-3649D01*
X167693Y-91166D02*
X168615Y-90243D01*
X172244Y-81482D02*
Y-3192D01*
X68918Y-128777D02*
X160391D01*
X169178Y-119991D02*
Y-99950D01*
X155905Y-141339D02*
X165441D01*
X174213Y-132567D02*
Y-2376D01*
X155905Y-172444D02*
X166181D01*
X176181Y-162444D02*
Y-3158D01*
X179893Y-177924D02*
X182610Y-180641D01*
X178150Y-173716D02*
Y-7298D01*
X29975Y24070D02*
X42810Y36904D01*
X51181Y57115D02*
Y125610D01*
X53150Y56642D02*
Y124795D01*
X25000Y16654D02*
X44778Y36432D01*
X56078Y131866D02*
X79497Y155284D01*
X54110Y132681D02*
X78681Y157253D01*
X71077Y106108D02*
X81028Y116059D01*
X68660Y47692D02*
Y100273D01*
X84564Y89316D02*
X140929Y145681D01*
X82595Y90131D02*
X132136Y139673D01*
X80471Y11030D02*
Y85004D01*
X74721Y93393D02*
X114630Y133302D01*
X86532Y88501D02*
X143350Y145318D01*
X72597Y16163D02*
Y88266D01*
X72753Y94208D02*
X104630Y126086D01*
X70629Y17250D02*
Y89081D01*
X78503Y12066D02*
Y85820D01*
X78658Y91762D02*
X124630Y137734D01*
X76690Y92578D02*
X119630Y135518D01*
X80627Y90947D02*
X129630Y139950D01*
X66692Y47894D02*
Y114380D01*
X187162Y-188863D02*
X187162Y-188863D01*
X185205Y-186906D02*
X187162Y-188863D01*
X176378Y-198819D02*
X178937D01*
X174409Y-196850D02*
Y-190551D01*
X175591Y-189370D02*
X177756D01*
X71891Y-1136D02*
X73843Y815D01*
X42922Y-7521D02*
X57701D01*
X63976Y-4921D02*
X64841Y-4056D01*
X73681Y-4725D02*
Y-3097D01*
X74209Y-1822D02*
X75811Y-221D01*
X-168307Y-93841D02*
Y-73684D01*
X-155905Y-110236D02*
X-129921D01*
X-155905Y-172441D02*
X-103940D01*
X-160433Y-187992D02*
X-27716D01*
X-129921Y-110236D02*
X-121307D01*
X-129921Y-141339D02*
X-103937D01*
X-67126Y28937D02*
X-66929Y28740D01*
Y24606D02*
Y28740D01*
X-123686Y-4592D02*
X-120055Y-960D01*
X71850Y-30512D02*
X157899D01*
X162402Y-26009D02*
Y-7268D01*
X80077Y-32480D02*
X157393D01*
X164370Y-25503D02*
Y-6284D01*
X77953Y-38151D02*
Y-34605D01*
X95515Y-34449D02*
X140816D01*
X155905Y-79134D02*
X161892D01*
X168307Y-72719D02*
Y-4822D01*
X170163Y-81139D02*
Y-4054D01*
X165853Y-89591D02*
X167234Y-88210D01*
X157457Y19709D02*
X173252Y3913D01*
X154528Y26780D02*
Y44086D01*
X129897Y72859D02*
X151599Y51157D01*
X110984Y55577D02*
X166132Y429D01*
X125689Y49224D02*
X172037Y2875D01*
X115689Y53497D02*
X167987Y1198D01*
X166339Y-45276D02*
Y-5638D01*
X105984Y57793D02*
X164163Y-386D01*
X98170Y62993D02*
X162195Y-1032D01*
X120689Y51440D02*
X170069Y2060D01*
X95964Y62246D02*
X160226Y-2017D01*
X149862Y-14606D02*
X158027D01*
X160591Y-12043D02*
Y-7936D01*
X90844Y64581D02*
X158631Y-3206D01*
X167323Y-119914D02*
Y-103824D01*
X-49551Y30850D02*
X-36368Y17667D01*
X-42527Y15137D02*
X-39090Y11700D01*
X-51205Y29551D02*
X-37352Y15698D01*
X10709Y27673D02*
Y28577D01*
X-2977Y44315D02*
X9257Y32081D01*
X-110001Y47244D02*
X-16915Y47244D01*
X-10048D01*
X9147Y26867D02*
Y28070D01*
X8321Y30065D02*
X8321Y30064D01*
X-3961Y42347D02*
X8321Y30065D01*
X-109842Y45276D02*
X-11032D01*
X-18725Y40378D02*
X-5000Y26654D01*
X-120589Y43307D02*
X-26296Y43307D01*
X-25796D01*
X-19057Y38410D02*
X-11287Y30641D01*
X-123031Y41339D02*
X-35030Y41339D01*
X-26128D01*
X-70276Y28937D02*
Y31890D01*
X-88583Y33465D02*
X-71850D01*
X-90748Y28937D02*
Y31299D01*
X-89567Y35433D02*
X-65405D01*
X-124522Y37402D02*
X-65368D01*
X-146063Y59055D02*
X-132104Y45097D01*
X-123031Y41339D02*
X-123031Y41339D01*
X-115157Y50591D02*
Y58766D01*
X-113189Y50432D02*
Y58071D01*
X-125668Y48386D02*
X-125668D01*
Y62598D02*
Y67347D01*
X-120573Y72441D02*
X-110678D01*
X-125668Y48386D02*
Y62598D01*
X-152268D02*
X-125668D01*
X5000Y16654D02*
X6953Y18607D01*
X-5000Y16654D02*
X-2088Y19566D01*
X2953Y21654D02*
X3934D01*
X-93898Y28937D02*
Y31102D01*
X40330Y12772D02*
X64000Y36441D01*
X-59632Y17717D02*
X-48755D01*
X40474Y15868D02*
X62585Y37978D01*
X69858Y122023D02*
X89630Y141796D01*
X92559Y148867D02*
Y152087D01*
X88011Y158811D02*
X101032D01*
X87196Y160779D02*
X110874D01*
X-73425Y17323D02*
Y18307D01*
X24606Y11811D02*
X30681D01*
X-114257Y60940D02*
X-109252Y65945D01*
X-106876Y66929D02*
X-103937D01*
X-106876Y70866D02*
X-103839D01*
X-163386Y39528D02*
Y50197D01*
X-153386Y29528D02*
X-143532D01*
X-116311Y-93504D02*
X-47449D01*
X-120079Y-98425D02*
Y-97272D01*
X-122590Y-103151D02*
X-121644Y-102205D01*
X-118819Y-107748D02*
Y-103627D01*
X-110665Y-95472D02*
X-50028D01*
X-115042Y-121178D02*
Y-110030D01*
X-116828Y-118796D02*
Y-104032D01*
X-91535Y-168096D02*
Y-164364D01*
X-84652Y-157480D02*
X8858D01*
X-103937Y-172444D02*
X-95884D01*
X127559Y144805D02*
Y152087D01*
X148622Y160039D02*
X151172Y162589D01*
X152559Y165938D02*
Y167899D01*
X147638Y171260D02*
X149199D01*
X128779Y187165D02*
X142597Y173348D01*
X125984Y193914D02*
Y196850D01*
X135065Y146744D02*
Y160819D01*
X136620Y164572D02*
X138780Y166732D01*
X145074Y149481D02*
Y160946D01*
X146656Y164766D02*
X148622Y166732D01*
X138780Y160039D02*
X140899Y162158D01*
X141732Y164170D02*
Y168069D01*
X138756Y174236D02*
X139476Y173516D01*
X129811Y177165D02*
X131685D01*
X105984Y196850D02*
X122740Y180094D01*
X112559Y152087D02*
Y159095D01*
X102559Y152087D02*
Y157283D01*
X107559Y133157D02*
Y152087D01*
X100488Y128843D02*
X101519Y127812D01*
X97559Y135914D02*
Y152087D01*
X122559Y142589D02*
Y152087D01*
X117559Y140373D02*
Y152087D01*
X132559Y147021D02*
Y152087D01*
X142559Y149617D02*
Y152087D01*
X97989Y97005D02*
X140772Y139788D01*
X147843Y142717D02*
X149606D01*
X152559Y145669D02*
Y152087D01*
X95060Y70499D02*
Y89934D01*
X126969Y79930D02*
Y98220D01*
X118110Y111221D02*
X124040Y105291D01*
X87854Y71800D02*
Y81004D01*
X92854Y69752D02*
Y81004D01*
X102854Y65349D02*
Y81004D01*
X107854Y63133D02*
Y81004D01*
X112559Y61053D02*
Y81299D01*
X117559Y58996D02*
Y81299D01*
X122559Y56780D02*
Y81299D01*
X124193Y-94095D02*
X160622D01*
X110048Y-92520D02*
X158782D01*
X64961Y-48031D02*
Y-37402D01*
X155905Y-48031D02*
X163583D01*
X118110Y-101329D02*
Y-100177D01*
X119954Y-105781D02*
X120089Y-105915D01*
X121063Y-110236D02*
Y-108268D01*
X101828Y-96598D02*
X102977Y-95449D01*
X92633Y-102198D02*
X95692Y-99139D01*
X90945Y-110236D02*
Y-106274D01*
X59300Y-134253D02*
X61847Y-131706D01*
X44455Y-127256D02*
X159980D01*
X33316Y-134253D02*
X37384Y-130185D01*
X-142511Y-7521D02*
X-130757D01*
X-66330D02*
X-55954D01*
X-20776Y-18701D02*
X19058D01*
X-35571Y-14606D02*
X-30661D01*
X28943D02*
X35591D01*
X15000Y26654D02*
X17071Y24582D01*
X-156051Y54965D02*
X-155504Y55512D01*
X9843Y14764D02*
Y16732D01*
X-15091Y12160D02*
X7239D01*
X-19685Y16754D02*
Y19008D01*
X-17591Y24062D02*
X-15000Y26654D01*
X3913Y25567D02*
X5000Y26654D01*
X-5906Y22638D02*
X-3158D01*
X-110236Y61024D02*
X-104724D01*
X-146063Y59055D02*
X-146063Y59055D01*
X-152268Y59055D02*
X-146063D01*
X77953Y-38186D02*
Y-38151D01*
X147559Y158976D02*
X148622Y160039D01*
X147559Y152087D02*
Y158976D01*
X137559Y152087D02*
Y158818D01*
X138780Y160039D01*
X149827Y-4725D02*
X149862Y-4760D01*
X97105Y-95472D02*
X98425D01*
X85284Y-103151D02*
X90033Y-98401D01*
X-159244Y-65945D02*
X-69448D01*
X-62377Y-68874D02*
X-59257Y-71994D01*
X-165378Y-100912D02*
X-163194Y-103096D01*
X111772Y-4760D02*
Y-4725D01*
X12237Y-122936D02*
X57077D01*
X5024Y-126008D02*
X5166Y-125865D01*
X-33984Y-127742D02*
X837D01*
X-44637Y-134253D02*
X-41055Y-130671D01*
X-17717Y-177992D02*
Y-175197D01*
X-164807Y-166915D02*
X-163194Y-165301D01*
X-167736Y-180689D02*
Y-173986D01*
X73681Y-4760D02*
Y-4725D01*
X-122590Y-62992D02*
X-15748D01*
X143135Y-35409D02*
X148617Y-40892D01*
X89530Y-56139D02*
Y-40433D01*
X62992Y-61024D02*
X84646D01*
X64961Y-149741D02*
Y-145669D01*
X19349Y-157480D02*
X55897D01*
X-61983Y-100370D02*
X-59257Y-103096D01*
X-110236Y-97441D02*
X-69054D01*
X7332Y-165355D02*
X12278Y-160409D01*
X-136163Y-125984D02*
X-124016D01*
X-148574Y-134253D02*
X-143234Y-128913D01*
X148019Y-96527D02*
X160025D01*
X137253Y-103151D02*
X140948Y-99456D01*
X12795Y-118959D02*
Y-115157D01*
X-110236Y-125984D02*
X-1189D01*
X-112839Y-104710D02*
X-111225Y-103096D01*
X-163583Y-48031D02*
X-155905D01*
X94685D02*
X103937D01*
X91535Y-58885D02*
Y-51181D01*
X-9435Y-63976D02*
X86444D01*
X-12795Y-65945D02*
X-11811Y-64961D01*
X-28755Y-65945D02*
X-12795D01*
X-43157Y-76205D02*
X-35826Y-68874D01*
X-25984Y-79134D02*
X-16142D01*
X-51968D02*
X-50228D01*
X-10236D02*
X0D01*
X-12795Y-90551D02*
Y-81693D01*
X-29696Y-95472D02*
X-17717D01*
X-34591Y-97584D02*
X-34449Y-97441D01*
X-40523Y-99410D02*
X-38999D01*
X121063Y-110236D02*
X129921D01*
X117126Y-123031D02*
Y-114173D01*
X15748Y-125984D02*
X114173D01*
X11131Y-137771D02*
Y-130601D01*
X0Y-141339D02*
X7563D01*
X16142D02*
X25984D01*
X12795Y-153543D02*
Y-144685D01*
X35591Y-14606D02*
X73681D01*
X111772D02*
X149862D01*
X73681D02*
X111772D01*
X-111752D02*
X-73661D01*
X-35571D01*
X-149843D02*
X-111752D01*
X64961Y-48031D02*
X77953D01*
X51968D02*
X64961D01*
X-25984D02*
X0D01*
X-51968D02*
X-25984D01*
X25984D02*
X51968D01*
X0D02*
X25984D01*
X-103937D02*
X-77953D01*
X-129921D02*
X-103937D01*
X-77953D02*
X-51968D01*
X129921D02*
X155905D01*
X103937D02*
X129921D01*
X-12795Y-75787D02*
Y-65945D01*
X-129921Y-79134D02*
X-103937D01*
X-155905D02*
X-129921D01*
X-77953D02*
X-51968D01*
X-103937D02*
X-77953D01*
X51968D02*
X77953D01*
X25984D02*
X51968D01*
X129921D02*
X155905D01*
X103937D02*
X129921D01*
X77953D02*
X103937D01*
X0D02*
X25984D01*
X90945Y-110236D02*
X103937D01*
X25984D02*
X51968D01*
X0D02*
X25984D01*
X77953D02*
X90945D01*
X51968D02*
X77953D01*
X-77953D02*
X-51968D01*
X-103937D02*
X-77953D01*
X-25984D02*
X0D01*
X-51968D02*
X-25984D01*
X129921D02*
X155905D01*
X-103937Y-141339D02*
X-77953D01*
X-155905D02*
X-129921D01*
X-51968D02*
X-25984D01*
X-77953D02*
X-51968D01*
X-25984D02*
X0D01*
X129921D02*
X155905D01*
X103937D02*
X129921D01*
X77953D02*
X103937D01*
X51968D02*
X77953D01*
X25984D02*
X51968D01*
X-103940Y-172441D02*
X-103937Y-172444D01*
X87559Y81299D02*
X87854Y81004D01*
X92559Y81299D02*
X92854Y81004D01*
X102559Y81299D02*
X102854Y81004D01*
X107559Y81299D02*
X107854Y81004D01*
X-35457Y-74179D02*
X-33272Y-71994D01*
X-38386Y-85765D02*
Y-81250D01*
X14111Y-124507D02*
X110121D01*
X111268Y-103151D02*
X112401Y-104284D01*
X115331Y-119297D02*
Y-111355D01*
X7331Y-134253D02*
Y-132432D01*
X-38976Y-172444D02*
X0D01*
X129921D02*
X155905D01*
X103937D02*
X129921D01*
X77953D02*
X103937D01*
X38976D02*
X77953D01*
X0D02*
X38976D01*
X-77953D02*
X-38976D01*
D17*
X178937Y-198819D02*
D03*
X187205D02*
D03*
D18*
X-85630Y57678D02*
D03*
Y64370D02*
D03*
X148622Y166732D02*
D03*
X148622Y160039D02*
D03*
X138780Y166732D02*
D03*
X138780Y160039D02*
D03*
X-83662Y27953D02*
D03*
X-83662Y21260D02*
D03*
X-86956Y71509D02*
D03*
X-86956Y78202D02*
D03*
X-93504Y89961D02*
D03*
Y83268D02*
D03*
X-99410Y89961D02*
D03*
X-99410Y83268D02*
D03*
D19*
X-98425Y69882D02*
D03*
D20*
X-103937Y66929D02*
D03*
Y72835D02*
D03*
X-92913D02*
D03*
Y66929D02*
D03*
D21*
X-103839Y68898D02*
D03*
Y70866D02*
D03*
X-93012D02*
D03*
Y68898D02*
D03*
D22*
X-101378Y75394D02*
D03*
X-95473D02*
D03*
Y64370D02*
D03*
X-101378D02*
D03*
D23*
X-99410Y75295D02*
D03*
X-97441D02*
D03*
Y64468D02*
D03*
X-99410D02*
D03*
D24*
X-83465Y129527D02*
D03*
X-109449Y129527D02*
D03*
D25*
X-92520Y107283D02*
D03*
X-100394D02*
D03*
D26*
X-152165Y48229D02*
D03*
X-158858D02*
D03*
X-146063Y59055D02*
D03*
X-139370Y59055D02*
D03*
X188780Y-174015D02*
D03*
X182087Y-174015D02*
D03*
X-106889Y27559D02*
D03*
X-113582Y27559D02*
D03*
X-98819Y57087D02*
D03*
X-92126D02*
D03*
X-99016Y57086D02*
D03*
X-105709D02*
D03*
X-100000Y96457D02*
D03*
X-106693Y96457D02*
D03*
X-92914Y96456D02*
D03*
X-86221D02*
D03*
D27*
X-155504Y55512D02*
D03*
X-152268D02*
D03*
X-152268Y59055D02*
D03*
X-155504Y62598D02*
D03*
X-152268D02*
D03*
D28*
X-163041Y59055D02*
D03*
D29*
X-103878Y-199445D02*
D03*
X-116358D02*
D03*
X-48760D02*
D03*
X-61240D02*
D03*
X61476D02*
D03*
X48996D02*
D03*
X116634D02*
D03*
X104154D02*
D03*
X-121319Y12956D02*
D03*
X-108839Y12956D02*
D03*
X-63839D02*
D03*
X-51358D02*
D03*
X108642D02*
D03*
X121122D02*
D03*
X51161D02*
D03*
X63642D02*
D03*
D30*
X177756Y-183071D02*
D03*
X177756Y-186221D02*
D03*
Y-189370D02*
D03*
X177756Y-192520D02*
D03*
X188386Y-183071D02*
D03*
Y-186221D02*
D03*
Y-189370D02*
D03*
Y-192520D02*
D03*
D31*
X152559Y152087D02*
D03*
X92559Y81299D02*
D03*
X97559D02*
D03*
X102559D02*
D03*
X107559D02*
D03*
X112559D02*
D03*
X117559D02*
D03*
X122559D02*
D03*
X147559Y152087D02*
D03*
X142559D02*
D03*
X137559D02*
D03*
X132559D02*
D03*
X127559D02*
D03*
X122559D02*
D03*
X117559D02*
D03*
X112559D02*
D03*
X107559D02*
D03*
X102559D02*
D03*
X92559D02*
D03*
X87559D02*
D03*
X97559D02*
D03*
X87559Y81299D02*
D03*
D32*
X132559Y81693D02*
D03*
X142559D02*
D03*
X152559D02*
D03*
D33*
X82559Y116693D02*
D03*
D34*
X-76575Y18307D02*
D03*
X-73425Y18307D02*
D03*
X-70276D02*
D03*
X-67126Y18307D02*
D03*
X-76575Y28937D02*
D03*
X-73425D02*
D03*
X-70276D02*
D03*
X-67126D02*
D03*
X-100197Y18307D02*
D03*
X-97047D02*
D03*
X-93898Y18307D02*
D03*
X-90748D02*
D03*
X-100197Y28937D02*
D03*
X-97047D02*
D03*
X-93898D02*
D03*
X-90748Y28937D02*
D03*
D35*
X-80067Y79580D02*
D03*
Y72100D02*
D03*
D36*
X6901Y44752D02*
G03*
X-42576Y65246I-49477J-49477D01*
G01*
X-76142Y68175D02*
G03*
X-69071Y65246I7071J7071D01*
G01*
X6901Y44752D02*
X25000Y26654D01*
X-79724Y71757D02*
X-76142Y68175D01*
X-69071Y65246D02*
X-55973D01*
X-42576D01*
X-86921Y71544D02*
X-80623D01*
D65*
X91339Y8819D02*
D03*
X142574Y-7467D02*
D03*
X182087Y-170067D02*
D03*
X181102Y-192516D02*
D03*
X47244Y8858D02*
D03*
X-66929Y24606D02*
D03*
X179134Y-4951D02*
D03*
X116142Y19685D02*
D03*
X59390D02*
D03*
X-55973Y50868D02*
D03*
Y8858D02*
D03*
X142717Y74803D02*
D03*
X-103475Y79064D02*
D03*
X-110678Y68898D02*
D03*
X-98425Y69882D02*
D03*
X-90748Y14764D02*
D03*
X-64567Y18307D02*
D03*
X-83662Y16733D02*
D03*
X-118109Y27559D02*
D03*
X101519Y127812D02*
D03*
X118110Y111221D02*
D03*
X-110236Y57086D02*
D03*
X-111220Y96457D02*
D03*
X-81694Y96456D02*
D03*
X-74556Y79580D02*
D03*
X-80067Y85091D02*
D03*
X-86956Y82729D02*
D03*
X-158858Y43702D02*
D03*
X-134843Y59055D02*
D03*
X163237Y-165355D02*
D03*
X98425Y-95472D02*
D03*
X85284Y-103151D02*
D03*
X59300Y-40946D02*
D03*
X-44637Y-72048D02*
D03*
X-18653Y-134253D02*
D03*
X-148574Y-103151D02*
D03*
X-122590Y-165355D02*
D03*
X119103Y-7521D02*
D03*
X104484Y-7467D02*
D03*
X163237Y-72048D02*
D03*
X59300Y-103151D02*
D03*
X137253Y-165355D02*
D03*
X63976Y-120079D02*
D03*
X33316Y-40946D02*
D03*
X-70621Y-72048D02*
D03*
X-17717Y-175197D02*
D03*
X-44637Y-134253D02*
D03*
X137253Y-72048D02*
D03*
X163237Y-134253D02*
D03*
X111268Y-165355D02*
D03*
X81013Y-7521D02*
D03*
X66393Y-7467D02*
D03*
X7331Y-40946D02*
D03*
X33316Y-103151D02*
D03*
X-96606Y-72048D02*
D03*
X-70621Y-134253D02*
D03*
X96649Y-71994D02*
D03*
X111268Y-72048D02*
D03*
X137253Y-134253D02*
D03*
X85284Y-165355D02*
D03*
X42922Y-7521D02*
D03*
X-15748Y-62992D02*
D03*
X-18653Y-40946D02*
D03*
X-122590Y-72048D02*
D03*
Y-62992D02*
D03*
X7331Y-103151D02*
D03*
X-96606Y-134253D02*
D03*
X85284Y-72048D02*
D03*
X-18653Y-103151D02*
D03*
X111268Y-134253D02*
D03*
X46308Y-165355D02*
D03*
X-28239Y-7521D02*
D03*
X-44637Y-40946D02*
D03*
X-122590Y-134253D02*
D03*
X-148574Y-72048D02*
D03*
X85284Y-134253D02*
D03*
X64961Y-145669D02*
D03*
X62992Y-61024D02*
D03*
X59300Y-72048D02*
D03*
X-44637Y-103151D02*
D03*
X-66330Y-7521D02*
D03*
X-70621Y-40946D02*
D03*
X7332Y-165355D02*
D03*
X-148574Y-134253D02*
D03*
X167323Y-95472D02*
D03*
X137253Y-40946D02*
D03*
X163237Y-103151D02*
D03*
X148617Y-103096D02*
D03*
X59300Y-134253D02*
D03*
X33316Y-72048D02*
D03*
X-104420Y-7521D02*
D03*
X-96606Y-40946D02*
D03*
X-31645Y-165355D02*
D03*
X-70621Y-103151D02*
D03*
X111268Y-40946D02*
D03*
X137253Y-103151D02*
D03*
X12795Y-115157D02*
D03*
X33316Y-134253D02*
D03*
X7331Y-72048D02*
D03*
X-142511Y-7521D02*
D03*
X-122590Y-40946D02*
D03*
X-70621Y-165355D02*
D03*
X-96606Y-103151D02*
D03*
Y-165355D02*
D03*
X7331Y-134253D02*
D03*
X111268Y-103151D02*
D03*
X-122590D02*
D03*
X-18653Y-72048D02*
D03*
X-148574Y-40946D02*
D03*
X85284D02*
D03*
D68*
X-132745Y8858D02*
D03*
D69*
X155536Y139788D02*
G03*
X158465Y146859I-7071J7071D01*
G01*
Y177945D02*
G03*
X155536Y185015I-10000J0D01*
G01*
X136787Y203764D02*
G03*
X129716Y206693I-7071J-7071D01*
G01*
X155488Y139740D02*
G03*
X152559Y132669I7071J-7071D01*
G01*
X158465Y47039D02*
G03*
X155536Y54110I-10000J0D01*
G01*
X152559Y61229D02*
G03*
X155488Y54158I10000J0D01*
G01*
X158465Y27764D02*
G03*
X161393Y20693I10000J0D01*
G01*
X93414Y206693D02*
G03*
X76536Y199702I0J-23870D01*
G01*
X189788Y-173204D02*
G03*
X192717Y-166153I-7071J7071D01*
G01*
X192717Y-15324D02*
G03*
X187583Y-5497I-18231J-3269D01*
G01*
X-81286Y28937D02*
G03*
X-83662Y27953I0J-3359D01*
G01*
X-86365Y72100D02*
G03*
X-86956Y71509I0J-591D01*
G01*
X-91151Y24606D02*
G03*
X-84080Y27535I0J10000D01*
G01*
X-103564Y28937D02*
G03*
X-106889Y27559I0J-4704D01*
G01*
X-79585Y22370D02*
G03*
X-80650Y24941I-3636J0D01*
G01*
X-105745Y26415D02*
G03*
X-101378Y24606I4368J4368D01*
G01*
X-79585Y11672D02*
G03*
X-76772Y8858I2813J0D01*
G01*
X56134Y179301D02*
G03*
X47259Y157875I21426J-21426D01*
G01*
X41746Y43400D02*
G03*
X47259Y56709I-13309J13309D01*
G01*
X142717Y81313D02*
G03*
X142559Y81693I-538J0D01*
G01*
X-92520Y107283D02*
G03*
X-92914Y106332I951J-951D01*
G01*
X-92520Y107283D02*
G03*
X-91457Y109850I-2566J2566D01*
G01*
X-100000Y106332D02*
G03*
X-100394Y107283I-1345J0D01*
G01*
X-101457Y109850D02*
G03*
X-100394Y107283I3629J0D01*
G01*
X-93504Y89961D02*
G03*
X-92914Y91387I-1426J1426D01*
G01*
X-100000Y91385D02*
G03*
X-99410Y89961I2014J0D01*
G01*
X-55456Y8858D02*
X-51358Y12956D01*
X-55973Y8858D02*
X-55456D01*
X158465Y146859D02*
Y177945D01*
X155488Y139740D02*
X155536Y139788D01*
X152559Y81693D02*
Y132669D01*
X93414Y206693D02*
X129716D01*
X93414D02*
X93414D01*
X136787Y203764D02*
X155536Y185015D01*
X155488Y54158D02*
X155536Y54110D01*
X158465Y27764D02*
Y47039D01*
X152559Y61229D02*
Y81693D01*
X56134Y179301D02*
X76536Y199702D01*
X192717Y-15325D02*
Y-15324D01*
X192717Y-166153D02*
X192717Y-15325D01*
X192717Y-166153D02*
Y-166153D01*
X189370Y-173622D02*
X189788Y-173204D01*
X161393Y20693D02*
X187583Y-5497D01*
X-81286Y28937D02*
X-76575D01*
X-83662Y27953D02*
X-80650Y24941D01*
X-84080Y27535D02*
X-83662Y27953D01*
X-103564Y28937D02*
X-100197D01*
X-106889Y27559D02*
X-105745Y26415D01*
X-79585Y13752D02*
Y22370D01*
Y11672D02*
Y13752D01*
X-101378Y24606D02*
X-91151D01*
X-76772Y8858D02*
X-55973D01*
Y50868D02*
Y65246D01*
X47259Y56709D02*
Y157875D01*
X25000Y26654D02*
X41746Y43400D01*
X142717Y74803D02*
Y81313D01*
X182087Y-174015D02*
Y-170067D01*
X-80067Y79580D02*
X-74556D01*
X-111220Y96457D02*
X-106693D01*
X-86221Y96456D02*
X-81694D01*
X-80067Y79580D02*
Y85091D01*
X-86956Y78202D02*
Y82729D01*
X-92914Y96456D02*
Y106332D01*
X-91457Y109850D02*
Y118110D01*
X-100000Y96457D02*
Y106332D01*
X-101457Y109850D02*
Y118110D01*
X-100000Y91385D02*
Y96457D01*
X-92914Y91387D02*
Y96456D01*
D70*
X111772Y-4725D02*
G03*
X104484Y-7467I-9J-11035D01*
G01*
X119103Y-7521D02*
G03*
X111772Y-4725I-7340J-8240D01*
G01*
X-104420Y-7521D02*
G03*
X-119040Y-7467I-7340J-8240D01*
G01*
X-28239Y-7521D02*
G03*
X-42859Y-7467I-7340J-8240D01*
G01*
X149827Y-4725D02*
G03*
X142574Y-7467I26J-11035D01*
G01*
X157194Y-7521D02*
G03*
X149827Y-4725I-7340J-8240D01*
G01*
X73681Y-4725D02*
G03*
X66393Y-7467I-9J-11035D01*
G01*
X81013Y-7521D02*
G03*
X73681Y-4725I-7340J-8240D01*
G01*
X142522Y-21694D02*
G03*
X157141Y-21748I7340J8240D01*
G01*
X104431Y-21694D02*
G03*
X119051Y-21748I7340J8240D01*
G01*
X42922Y-7521D02*
G03*
X28302Y-7467I-7340J-8240D01*
G01*
X28250Y-21694D02*
G03*
X42869Y-21748I7340J8240D01*
G01*
X-42912Y-21694D02*
G03*
X-28292Y-21748I7340J8240D01*
G01*
X-66330Y-7521D02*
G03*
X-80949Y-7467I-7340J-8240D01*
G01*
X-81002Y-21694D02*
G03*
X-66383Y-21748I7340J8240D01*
G01*
X-119093Y-21694D02*
G03*
X-104473Y-21748I7340J8240D01*
G01*
X-142511Y-7521D02*
G03*
X-157131Y-7467I-7340J-8240D01*
G01*
X-157183Y-21694D02*
G03*
X-142564Y-21748I7340J8240D01*
G01*
X-148574Y-40946D02*
G03*
X-163194Y-40892I-7340J-8240D01*
G01*
X-163246Y-55119D02*
G03*
X-148627Y-55173I7340J8240D01*
G01*
X-44637Y-40946D02*
G03*
X-59257Y-40892I-7340J-8240D01*
G01*
X-59309Y-55119D02*
G03*
X-44690Y-55173I7340J8240D01*
G01*
X-70621Y-40946D02*
G03*
X-85241Y-40892I-7340J-8240D01*
G01*
X-85294Y-55119D02*
G03*
X-70674Y-55173I7340J8240D01*
G01*
X-96606Y-40946D02*
G03*
X-111225Y-40892I-7340J-8240D01*
G01*
X-111278Y-55119D02*
G03*
X-96658Y-55173I7340J8240D01*
G01*
X-122590Y-40946D02*
G03*
X-137209Y-40892I-7340J-8240D01*
G01*
X-137262Y-55119D02*
G03*
X-122642Y-55173I7340J8240D01*
G01*
X59300Y-40946D02*
G03*
X44680Y-40892I-7340J-8240D01*
G01*
X44628Y-55119D02*
G03*
X59247Y-55173I7340J8240D01*
G01*
X33316Y-40946D02*
G03*
X18696Y-40892I-7340J-8240D01*
G01*
X18643Y-55119D02*
G03*
X33263Y-55173I7340J8240D01*
G01*
X7331Y-40946D02*
G03*
X-7288Y-40892I-7340J-8240D01*
G01*
X-7341Y-55119D02*
G03*
X7279Y-55173I7340J8240D01*
G01*
X-18653Y-40946D02*
G03*
X-33272Y-40892I-7340J-8240D01*
G01*
X-33325Y-55119D02*
G03*
X-18705Y-55173I7340J8240D01*
G01*
X163237Y-40946D02*
G03*
X148617Y-40892I-7340J-8240D01*
G01*
X148565Y-55119D02*
G03*
X163184Y-55173I7340J8240D01*
G01*
X137253Y-40946D02*
G03*
X122633Y-40892I-7340J-8240D01*
G01*
X122581Y-55119D02*
G03*
X137200Y-55173I7340J8240D01*
G01*
X111268Y-40946D02*
G03*
X96649Y-40892I-7340J-8240D01*
G01*
X96596Y-55119D02*
G03*
X111216Y-55173I7340J8240D01*
G01*
X85284Y-40946D02*
G03*
X70665Y-40892I-7340J-8240D01*
G01*
X70612Y-55119D02*
G03*
X85232Y-55173I7340J8240D01*
G01*
X-148574Y-72048D02*
G03*
X-163194Y-71994I-7340J-8240D01*
G01*
X-163246Y-86221D02*
G03*
X-148627Y-86276I7340J8240D01*
G01*
X-44637Y-72048D02*
G03*
X-59257Y-71994I-7340J-8240D01*
G01*
X-59309Y-86221D02*
G03*
X-44690Y-86276I7340J8240D01*
G01*
X-70621Y-72048D02*
G03*
X-85241Y-71994I-7340J-8240D01*
G01*
X-85294Y-86221D02*
G03*
X-70674Y-86276I7340J8240D01*
G01*
X-96606Y-72048D02*
G03*
X-111225Y-71994I-7340J-8240D01*
G01*
X-111278Y-86221D02*
G03*
X-96658Y-86276I7340J8240D01*
G01*
X-122590Y-72048D02*
G03*
X-137209Y-71994I-7340J-8240D01*
G01*
X-137262Y-86221D02*
G03*
X-122642Y-86276I7340J8240D01*
G01*
X59300Y-72048D02*
G03*
X44680Y-71994I-7340J-8240D01*
G01*
X44628Y-86221D02*
G03*
X59247Y-86276I7340J8240D01*
G01*
X33316Y-72048D02*
G03*
X18696Y-71994I-7340J-8240D01*
G01*
X18643Y-86221D02*
G03*
X33263Y-86276I7340J8240D01*
G01*
X7331Y-72048D02*
G03*
X-7288Y-71994I-7340J-8240D01*
G01*
X-7341Y-86221D02*
G03*
X7279Y-86276I7340J8240D01*
G01*
X-18653Y-72048D02*
G03*
X-33272Y-71994I-7340J-8240D01*
G01*
X-33325Y-86221D02*
G03*
X-18705Y-86276I7340J8240D01*
G01*
X163237Y-72048D02*
G03*
X148617Y-71994I-7340J-8240D01*
G01*
X148565Y-86221D02*
G03*
X163184Y-86276I7340J8240D01*
G01*
X137253Y-72048D02*
G03*
X122633Y-71994I-7340J-8240D01*
G01*
X122581Y-86221D02*
G03*
X137200Y-86276I7340J8240D01*
G01*
X111268Y-72048D02*
G03*
X96649Y-71994I-7340J-8240D01*
G01*
X96596Y-86221D02*
G03*
X111216Y-86276I7340J8240D01*
G01*
X85284Y-72048D02*
G03*
X70665Y-71994I-7340J-8240D01*
G01*
X70612Y-86221D02*
G03*
X85232Y-86276I7340J8240D01*
G01*
X-148574Y-103151D02*
G03*
X-163194Y-103096I-7340J-8240D01*
G01*
X-163246Y-117324D02*
G03*
X-148627Y-117378I7340J8240D01*
G01*
X-44637Y-103151D02*
G03*
X-59257Y-103096I-7340J-8240D01*
G01*
X-59309Y-117324D02*
G03*
X-44690Y-117378I7340J8240D01*
G01*
X-70621Y-103151D02*
G03*
X-85241Y-103096I-7340J-8240D01*
G01*
X-85294Y-117324D02*
G03*
X-70674Y-117378I7340J8240D01*
G01*
X-96606Y-103151D02*
G03*
X-111225Y-103096I-7340J-8240D01*
G01*
X-111278Y-117324D02*
G03*
X-96658Y-117378I7340J8240D01*
G01*
X-122590Y-103151D02*
G03*
X-137209Y-103096I-7340J-8240D01*
G01*
X-137262Y-117324D02*
G03*
X-122642Y-117378I7340J8240D01*
G01*
X59300Y-103151D02*
G03*
X44680Y-103096I-7340J-8240D01*
G01*
X44628Y-117324D02*
G03*
X59247Y-117378I7340J8240D01*
G01*
X33316Y-103151D02*
G03*
X18696Y-103096I-7340J-8240D01*
G01*
X18643Y-117324D02*
G03*
X33263Y-117378I7340J8240D01*
G01*
X7331Y-103151D02*
G03*
X-7288Y-103096I-7340J-8240D01*
G01*
X-7341Y-117324D02*
G03*
X7279Y-117378I7340J8240D01*
G01*
X-18653Y-103151D02*
G03*
X-33272Y-103096I-7340J-8240D01*
G01*
X-33325Y-117324D02*
G03*
X-18705Y-117378I7340J8240D01*
G01*
X163237Y-103151D02*
G03*
X148617Y-103096I-7340J-8240D01*
G01*
X148565Y-117324D02*
G03*
X163184Y-117378I7340J8240D01*
G01*
X137253Y-103151D02*
G03*
X122633Y-103096I-7340J-8240D01*
G01*
X122581Y-117324D02*
G03*
X137200Y-117378I7340J8240D01*
G01*
X111268Y-103151D02*
G03*
X96649Y-103096I-7340J-8240D01*
G01*
X96596Y-117324D02*
G03*
X111216Y-117378I7340J8240D01*
G01*
X85284Y-103151D02*
G03*
X70665Y-103096I-7340J-8240D01*
G01*
X70612Y-117324D02*
G03*
X85232Y-117378I7340J8240D01*
G01*
X-148574Y-134253D02*
G03*
X-163194Y-134199I-7340J-8240D01*
G01*
X-163246Y-148426D02*
G03*
X-148627Y-148480I7340J8240D01*
G01*
X-44637Y-134253D02*
G03*
X-59257Y-134199I-7340J-8240D01*
G01*
X-59309Y-148426D02*
G03*
X-44690Y-148480I7340J8240D01*
G01*
X-70621Y-134253D02*
G03*
X-85241Y-134199I-7340J-8240D01*
G01*
X-85294Y-148426D02*
G03*
X-70674Y-148480I7340J8240D01*
G01*
X-96606Y-134253D02*
G03*
X-111225Y-134199I-7340J-8240D01*
G01*
X-111278Y-148426D02*
G03*
X-96658Y-148480I7340J8240D01*
G01*
X-122590Y-134253D02*
G03*
X-137209Y-134199I-7340J-8240D01*
G01*
X-137262Y-148426D02*
G03*
X-122642Y-148480I7340J8240D01*
G01*
X59300Y-134253D02*
G03*
X44680Y-134199I-7340J-8240D01*
G01*
X44628Y-148426D02*
G03*
X59247Y-148480I7340J8240D01*
G01*
X33316Y-134253D02*
G03*
X18696Y-134199I-7340J-8240D01*
G01*
X18643Y-148426D02*
G03*
X33263Y-148480I7340J8240D01*
G01*
X7331Y-134253D02*
G03*
X-7288Y-134199I-7340J-8240D01*
G01*
X-7341Y-148426D02*
G03*
X7279Y-148480I7340J8240D01*
G01*
X-18653Y-134253D02*
G03*
X-33272Y-134199I-7340J-8240D01*
G01*
X-33325Y-148426D02*
G03*
X-18705Y-148480I7340J8240D01*
G01*
X163237Y-134253D02*
G03*
X148617Y-134199I-7340J-8240D01*
G01*
X148565Y-148426D02*
G03*
X163184Y-148480I7340J8240D01*
G01*
X137253Y-134253D02*
G03*
X122633Y-134199I-7340J-8240D01*
G01*
X122581Y-148426D02*
G03*
X137200Y-148480I7340J8240D01*
G01*
X111268Y-134253D02*
G03*
X96649Y-134199I-7340J-8240D01*
G01*
X96596Y-148426D02*
G03*
X111216Y-148480I7340J8240D01*
G01*
X85284Y-134253D02*
G03*
X70665Y-134199I-7340J-8240D01*
G01*
X70612Y-148426D02*
G03*
X85232Y-148480I7340J8240D01*
G01*
X163237Y-165359D02*
G03*
X148617Y-165305I-7340J-8240D01*
G01*
X148565Y-179532D02*
G03*
X163184Y-179586I7340J8240D01*
G01*
X137253Y-165359D02*
G03*
X122633Y-165305I-7340J-8240D01*
G01*
X122581Y-179532D02*
G03*
X137200Y-179586I7340J8240D01*
G01*
X111268Y-165359D02*
G03*
X96649Y-165305I-7340J-8240D01*
G01*
X96596Y-179532D02*
G03*
X111216Y-179586I7340J8240D01*
G01*
X85284Y-165359D02*
G03*
X70665Y-165305I-7340J-8240D01*
G01*
X70612Y-179532D02*
G03*
X85232Y-179586I7340J8240D01*
G01*
X46308Y-165359D02*
G03*
X31688Y-165305I-7340J-8240D01*
G01*
X31636Y-179532D02*
G03*
X46255Y-179586I7340J8240D01*
G01*
X7332Y-165359D02*
G03*
X-7288Y-165305I-7340J-8240D01*
G01*
X-7341Y-179532D02*
G03*
X7279Y-179586I7340J8240D01*
G01*
X-31645Y-165359D02*
G03*
X-46264Y-165305I-7340J-8240D01*
G01*
X-46317Y-179532D02*
G03*
X-31697Y-179586I7340J8240D01*
G01*
X-70621Y-165359D02*
G03*
X-85241Y-165305I-7340J-8240D01*
G01*
X-85294Y-179532D02*
G03*
X-70674Y-179586I7340J8240D01*
G01*
X-96606Y-165359D02*
G03*
X-111225Y-165305I-7340J-8240D01*
G01*
X-111278Y-179532D02*
G03*
X-96658Y-179586I7340J8240D01*
G01*
X-122590Y-165359D02*
G03*
X-137209Y-165305I-7340J-8240D01*
G01*
X-137262Y-179532D02*
G03*
X-122642Y-179586I7340J8240D01*
G01*
X-148574Y-165355D02*
G03*
X-163194Y-165301I-7340J-8240D01*
G01*
X-163246Y-179529D02*
G03*
X-148627Y-179583I7340J8240D01*
G01*
X66340Y-21694D02*
G03*
X80960Y-21748I7340J8240D01*
G01*
D71*
X187162Y-188863D02*
D03*
D72*
X149862Y-4760D02*
D03*
X111772D02*
D03*
X35591D02*
D03*
X-35571D02*
D03*
X-73661D02*
D03*
X-111752D02*
D03*
X-149843D02*
D03*
X-155905Y-38186D02*
D03*
X-51968D02*
D03*
X-77953D02*
D03*
X-103937D02*
D03*
X-129921D02*
D03*
X51968D02*
D03*
X25984D02*
D03*
X0D02*
D03*
X-25984D02*
D03*
X155905D02*
D03*
X129921D02*
D03*
X103937D02*
D03*
X77953D02*
D03*
X-155905Y-69288D02*
D03*
X-51968D02*
D03*
X-77953D02*
D03*
X-103937D02*
D03*
X-129921D02*
D03*
X51968D02*
D03*
X25984D02*
D03*
X0D02*
D03*
X-25984D02*
D03*
X155905D02*
D03*
X129921D02*
D03*
X103937D02*
D03*
X77953D02*
D03*
X-155905Y-100390D02*
D03*
X-51968D02*
D03*
X-77953D02*
D03*
X-103937D02*
D03*
X-129921D02*
D03*
X51968D02*
D03*
X25984D02*
D03*
X0D02*
D03*
X-25984D02*
D03*
X155905D02*
D03*
X129921D02*
D03*
X103937D02*
D03*
X77953D02*
D03*
X-155905Y-131493D02*
D03*
X-51968D02*
D03*
X-77953D02*
D03*
X-103937D02*
D03*
X-129921D02*
D03*
X51968D02*
D03*
X25984D02*
D03*
X0D02*
D03*
X-25984D02*
D03*
X155905D02*
D03*
X129921D02*
D03*
X103937D02*
D03*
X77953D02*
D03*
X155905Y-162598D02*
D03*
X129921D02*
D03*
X103937D02*
D03*
X77953D02*
D03*
X38976D02*
D03*
X0D02*
D03*
X-38976D02*
D03*
X-77953D02*
D03*
X-103937D02*
D03*
X-129921D02*
D03*
X-155905Y-162595D02*
D03*
X73681Y-4760D02*
D03*
D73*
X-149843Y-14606D02*
D03*
X-111752D02*
D03*
X-73661D02*
D03*
X-35571D02*
D03*
X35591D02*
D03*
X73681D02*
D03*
X111772D02*
D03*
X149862D02*
D03*
X155905Y-48031D02*
D03*
X129921D02*
D03*
X103937D02*
D03*
X77953D02*
D03*
X51968D02*
D03*
X25984D02*
D03*
X0D02*
D03*
X-25984D02*
D03*
X-51968D02*
D03*
X-77953D02*
D03*
X-103937D02*
D03*
X-129921D02*
D03*
X-155905D02*
D03*
X155905Y-79134D02*
D03*
X129921D02*
D03*
X103937D02*
D03*
X77953D02*
D03*
X51968D02*
D03*
X25984D02*
D03*
X0D02*
D03*
X-25984D02*
D03*
X-51968D02*
D03*
X-77953D02*
D03*
X-103937D02*
D03*
X-129921D02*
D03*
X-155905D02*
D03*
X155905Y-110236D02*
D03*
X129921D02*
D03*
X103937D02*
D03*
X77953D02*
D03*
X51968D02*
D03*
X25984D02*
D03*
X0D02*
D03*
X-25984D02*
D03*
X-51968D02*
D03*
X-77953D02*
D03*
X-103937D02*
D03*
X-129921D02*
D03*
X-155905D02*
D03*
Y-141339D02*
D03*
X-129921D02*
D03*
X-103937D02*
D03*
X-77953D02*
D03*
X-51968D02*
D03*
X-25984D02*
D03*
X0D02*
D03*
X25984D02*
D03*
X51968D02*
D03*
X77953D02*
D03*
X103937D02*
D03*
X129921D02*
D03*
X155905D02*
D03*
Y-172444D02*
D03*
X129921D02*
D03*
X103937D02*
D03*
X77953D02*
D03*
X38976D02*
D03*
X0D02*
D03*
X-38976D02*
D03*
X-77953D02*
D03*
X-103937D02*
D03*
X-129921D02*
D03*
X-155905Y-172441D02*
D03*
X-185039Y-17717D02*
D03*
Y-161417D02*
D03*
X185039Y-17717D02*
D03*
Y-161417D02*
D03*
X-127953Y198819D02*
D03*
X147638Y179134D02*
D03*
Y37402D02*
D03*
X-147638D02*
D03*
D74*
X-59055Y78740D02*
D03*
X59055D02*
D03*
D75*
Y196850D02*
D03*
X-59055D02*
D03*
D76*
X-39011Y-94686D02*
D03*
X38942D02*
D03*
D77*
X-164995Y3700D02*
D03*
X164730Y-190395D02*
D03*
D78*
X-91457Y118110D02*
D03*
X-25000Y26654D02*
D03*
X-15000Y16654D02*
D03*
Y26654D02*
D03*
X-5000Y16654D02*
D03*
X-5000Y26654D02*
D03*
X15000D02*
D03*
X15000Y16654D02*
D03*
X5000Y26654D02*
D03*
Y16654D02*
D03*
X25000Y26654D02*
D03*
Y16654D02*
D03*
X115984Y196850D02*
D03*
X105984D02*
D03*
D79*
X-101457Y118110D02*
D03*
X-25000Y16654D02*
D03*
X125984Y196850D02*
D03*
D80*
X-160433Y59055D02*
D03*
M02*
