G04*
G04 #@! TF.GenerationSoftware,Altium Limited,Altium Designer,24.2.2 (26)*
G04*
G04 Layer_Color=2752767*
%FSLAX25Y25*%
%MOIN*%
G70*
G04*
G04 #@! TF.SameCoordinates,661FBD00-BEF8-4439-B900-685B4A6DAB74*
G04*
G04*
G04 #@! TF.FilePolarity,Positive*
G04*
G01*
G75*
%ADD10C,0.00394*%
%ADD19C,0.00591*%
%ADD20C,0.00200*%
%ADD21C,0.00945*%
D10*
X40138Y-116732D02*
G03*
X48602Y-125197I8465J-0D01*
G01*
X40138Y-147835D02*
G03*
X48602Y-156299I8465J-0D01*
G01*
X66122Y-116732D02*
G03*
X74587Y-125197I8465J-0D01*
G01*
X55295D02*
G03*
X63760Y-116732I-0J8465D01*
G01*
X48602Y-127165D02*
G03*
X40138Y-135630I0J-8465D01*
G01*
X66122Y-147835D02*
G03*
X74587Y-156299I8465J-0D01*
G01*
Y-127165D02*
G03*
X66122Y-135630I0J-8465D01*
G01*
X63760D02*
G03*
X55295Y-127165I-8465J0D01*
G01*
Y-156299D02*
G03*
X63760Y-147835I-0J8465D01*
G01*
X48602Y-96063D02*
G03*
X40138Y-104528I0J-8465D01*
G01*
Y-85630D02*
G03*
X48602Y-94095I8465J0D01*
G01*
X55295D02*
G03*
X63760Y-85630I0J8465D01*
G01*
X74587Y-96063D02*
G03*
X66122Y-104528I0J-8465D01*
G01*
X63760D02*
G03*
X55295Y-96063I-8465J0D01*
G01*
X66122Y-85630D02*
G03*
X74587Y-94095I8465J0D01*
G01*
X89744Y-135630D02*
G03*
X81279Y-127165I-8465J0D01*
G01*
X81279Y-94095D02*
G03*
X89744Y-85630I0J8465D01*
G01*
X81279Y-125197D02*
G03*
X89744Y-116732I-0J8465D01*
G01*
X81279Y-156299D02*
G03*
X89744Y-147835I-0J8465D01*
G01*
Y-104528D02*
G03*
X81279Y-96063I-8465J0D01*
G01*
X89744Y-42323D02*
G03*
X81279Y-33858I-8465J0D01*
G01*
X63760Y-42323D02*
G03*
X55295Y-33858I-8465J0D01*
G01*
X48602D02*
G03*
X40138Y-42323I0J-8465D01*
G01*
X37776Y-42323D02*
G03*
X29311Y-33858I-8465J0D01*
G01*
X74587D02*
G03*
X66122Y-42323I0J-8465D01*
G01*
X37776Y-73425D02*
G03*
X29311Y-64961I-8465J-0D01*
G01*
X89744Y-73425D02*
G03*
X81279Y-64961I-8465J0D01*
G01*
X40138Y-54528D02*
G03*
X48602Y-62992I8465J0D01*
G01*
X55295D02*
G03*
X63760Y-54528I0J8465D01*
G01*
X48602Y-64961D02*
G03*
X40138Y-73425I0J-8465D01*
G01*
X29311Y-62992D02*
G03*
X37776Y-54528I0J8465D01*
G01*
X63760Y-73425D02*
G03*
X55295Y-64961I-8465J0D01*
G01*
X74587D02*
G03*
X66122Y-73425I0J-8465D01*
G01*
Y-54528D02*
G03*
X74587Y-62992I8465J0D01*
G01*
X81279D02*
G03*
X89744Y-54528I0J8465D01*
G01*
X29311Y-125197D02*
G03*
X37776Y-116732I0J8465D01*
G01*
Y-104528D02*
G03*
X29311Y-96063I-8465J0D01*
G01*
Y-156299D02*
G03*
X37776Y-147835I0J8465D01*
G01*
X29311Y-94095D02*
G03*
X37776Y-85630I0J8465D01*
G01*
Y-135630D02*
G03*
X29311Y-127165I-8465J0D01*
G01*
X14153Y-147835D02*
G03*
X22618Y-156299I8465J0D01*
G01*
Y-127165D02*
G03*
X14153Y-135630I0J-8465D01*
G01*
X22618Y-96063D02*
G03*
X14153Y-104528I0J-8465D01*
G01*
Y-85630D02*
G03*
X22618Y-94095I8465J0D01*
G01*
X14153Y-116732D02*
G03*
X22618Y-125197I8465J0D01*
G01*
Y-33858D02*
G03*
X14153Y-42323I0J-8465D01*
G01*
Y-54528D02*
G03*
X22618Y-62992I8465J0D01*
G01*
Y-64961D02*
G03*
X14153Y-73425I-0J-8465D01*
G01*
X-37815Y-85630D02*
G03*
X-29350Y-94095I8465J0D01*
G01*
Y-96063D02*
G03*
X-37815Y-104528I0J-8465D01*
G01*
Y-116732D02*
G03*
X-29350Y-125197I8465J0D01*
G01*
X-159272Y-64961D02*
G03*
X-167736Y-73425I-0J-8465D01*
G01*
Y-54528D02*
G03*
X-159272Y-62992I8465J0D01*
G01*
X-167736Y-85630D02*
G03*
X-159272Y-94095I8465J0D01*
G01*
X-152579Y-94095D02*
G03*
X-144114Y-85630I0J8465D01*
G01*
X-89784Y-116732D02*
G03*
X-81319Y-125197I8465J-0D01*
G01*
X-89784Y-85630D02*
G03*
X-81319Y-94095I8465J0D01*
G01*
X-81319Y-96063D02*
G03*
X-89784Y-104528I0J-8465D01*
G01*
X-92146D02*
G03*
X-100610Y-96063I-8465J0D01*
G01*
Y-125197D02*
G03*
X-92146Y-116732I0J8465D01*
G01*
X-100610Y-94095D02*
G03*
X-92146Y-85630I0J8465D01*
G01*
X-11831Y-54528D02*
G03*
X-3366Y-62992I8465J0D01*
G01*
Y-64961D02*
G03*
X-11831Y-73425I-0J-8465D01*
G01*
X-3366Y-96063D02*
G03*
X-11831Y-104528I0J-8465D01*
G01*
Y-116732D02*
G03*
X-3366Y-125197I8465J0D01*
G01*
X-11831Y-85630D02*
G03*
X-3366Y-94095I8465J0D01*
G01*
X-22658Y-125197D02*
G03*
X-14193Y-116732I0J8465D01*
G01*
X-22658Y-94095D02*
G03*
X-14193Y-85630I0J8465D01*
G01*
Y-104528D02*
G03*
X-22658Y-96063I-8465J0D01*
G01*
X-144114Y-104528D02*
G03*
X-152579Y-96063I-8465J0D01*
G01*
X-167736Y-116732D02*
G03*
X-159272Y-125197I8465J0D01*
G01*
Y-96063D02*
G03*
X-167736Y-104528I0J-8465D01*
G01*
X-152579Y-125197D02*
G03*
X-144114Y-116732I0J8465D01*
G01*
X-100610Y-62992D02*
G03*
X-92146Y-54528I0J8465D01*
G01*
X-81319Y-64961D02*
G03*
X-89784Y-73425I0J-8465D01*
G01*
X-92146Y-73425D02*
G03*
X-100610Y-64961I-8465J-0D01*
G01*
X-89784Y-54528D02*
G03*
X-81319Y-62992I8465J0D01*
G01*
X-141752Y-116732D02*
G03*
X-133287Y-125197I8465J0D01*
G01*
X-115768Y-85630D02*
G03*
X-107303Y-94095I8465J0D01*
G01*
X-126594D02*
G03*
X-118130Y-85630I0J8465D01*
G01*
X-141752Y-85630D02*
G03*
X-133287Y-94095I8465J0D01*
G01*
X-107303Y-96063D02*
G03*
X-115768Y-104528I0J-8465D01*
G01*
X-133287Y-96063D02*
G03*
X-141752Y-104528I0J-8465D01*
G01*
X-126594Y-125197D02*
G03*
X-118130Y-116732I0J8465D01*
G01*
Y-104528D02*
G03*
X-126594Y-96063I-8465J0D01*
G01*
X-115768Y-116732D02*
G03*
X-107303Y-125197I8465J0D01*
G01*
X-126594Y-62992D02*
G03*
X-118130Y-54528I0J8465D01*
G01*
Y-73425D02*
G03*
X-126594Y-64961I-8465J-0D01*
G01*
X-133287D02*
G03*
X-141752Y-73425I-0J-8465D01*
G01*
X-144114D02*
G03*
X-152579Y-64961I-8465J-0D01*
G01*
Y-62992D02*
G03*
X-144114Y-54528I0J8465D01*
G01*
X-107303Y-64961D02*
G03*
X-115768Y-73425I-0J-8465D01*
G01*
X-141752Y-54528D02*
G03*
X-133287Y-62992I8465J0D01*
G01*
X-115768Y-54528D02*
G03*
X-107303Y-62992I8465J0D01*
G01*
X-48642Y-62992D02*
G03*
X-40177Y-54528I0J8465D01*
G01*
Y-73425D02*
G03*
X-48642Y-64961I-8465J0D01*
G01*
X-37815Y-54528D02*
G03*
X-29350Y-62992I8465J0D01*
G01*
X-14193Y-73425D02*
G03*
X-22658Y-64961I-8465J-0D01*
G01*
Y-62992D02*
G03*
X-14193Y-54528I0J8465D01*
G01*
X-29350Y-64961D02*
G03*
X-37815Y-73425I-0J-8465D01*
G01*
X-63799Y-116732D02*
G03*
X-55335Y-125197I8465J-0D01*
G01*
X-74626D02*
G03*
X-66161Y-116732I-0J8465D01*
G01*
X-40177Y-104528D02*
G03*
X-48642Y-96063I-8465J0D01*
G01*
X-55335D02*
G03*
X-63799Y-104528I0J-8465D01*
G01*
X-66161Y-104528D02*
G03*
X-74626Y-96063I-8465J0D01*
G01*
X-48642Y-94095D02*
G03*
X-40177Y-85630I0J8465D01*
G01*
X-48642Y-125197D02*
G03*
X-40177Y-116732I-0J8465D01*
G01*
X-55335Y-64961D02*
G03*
X-63799Y-73425I0J-8465D01*
G01*
X-74626Y-94095D02*
G03*
X-66161Y-85630I0J8465D01*
G01*
X-74626Y-62992D02*
G03*
X-66161Y-54528I0J8465D01*
G01*
Y-73425D02*
G03*
X-74626Y-64961I-8465J0D01*
G01*
X-63799Y-85630D02*
G03*
X-55335Y-94095I8465J0D01*
G01*
X-63799Y-54528D02*
G03*
X-55335Y-62992I8465J0D01*
G01*
X3327Y-94095D02*
G03*
X11791Y-85630I0J8465D01*
G01*
X3327Y-62992D02*
G03*
X11791Y-54528I0J8465D01*
G01*
Y-73425D02*
G03*
X3327Y-64961I-8465J-0D01*
G01*
X3327Y-125197D02*
G03*
X11791Y-116732I0J8465D01*
G01*
Y-104528D02*
G03*
X3327Y-96063I-8465J0D01*
G01*
X-92146Y-166732D02*
G03*
X-100610Y-158268I-8465J0D01*
G01*
X-55335D02*
G03*
X-63799Y-166732I0J-8465D01*
G01*
X-107303Y-158268D02*
G03*
X-115768Y-166732I0J-8465D01*
G01*
X-66161Y-166732D02*
G03*
X-74626Y-158268I-8465J0D01*
G01*
X-81319Y-158268D02*
G03*
X-89784Y-166732I0J-8465D01*
G01*
X-66161Y-135630D02*
G03*
X-74626Y-127165I-8465J0D01*
G01*
X-40177Y-135630D02*
G03*
X-48642Y-127165I-8465J0D01*
G01*
X-55335D02*
G03*
X-63799Y-135630I0J-8465D01*
G01*
X-115374Y-147835D02*
G03*
X-107303Y-155905I8071J0D01*
G01*
Y-127559D02*
G03*
X-115374Y-135630I0J-8071D01*
G01*
X-89784Y-147835D02*
G03*
X-81319Y-156299I8465J-0D01*
G01*
X-100610Y-155905D02*
G03*
X-92539Y-147835I0J8071D01*
G01*
X-81319Y-127165D02*
G03*
X-89784Y-135630I0J-8465D01*
G01*
X-92539D02*
G03*
X-100610Y-127559I-8071J0D01*
G01*
X-118130Y-166732D02*
G03*
X-126594Y-158268I-8465J0D01*
G01*
X-133287D02*
G03*
X-141752Y-166732I0J-8465D01*
G01*
X-118130Y-135630D02*
G03*
X-126594Y-127165I-8465J0D01*
G01*
X-141752Y-147835D02*
G03*
X-133287Y-156299I8465J0D01*
G01*
Y-127165D02*
G03*
X-141752Y-135630I0J-8465D01*
G01*
X-126594Y-156299D02*
G03*
X-118130Y-147835I0J8465D01*
G01*
X-14193Y-135630D02*
G03*
X-22658Y-127165I-8465J0D01*
G01*
X-29350D02*
G03*
X-37815Y-135630I0J-8465D01*
G01*
X-3366Y-127165D02*
G03*
X-11831Y-135630I0J-8465D01*
G01*
X11791D02*
G03*
X3327Y-127165I-8465J0D01*
G01*
Y-156299D02*
G03*
X11791Y-147835I0J8465D01*
G01*
X-11831D02*
G03*
X-3366Y-156299I8465J0D01*
G01*
X-22658D02*
G03*
X-14193Y-147835I0J8465D01*
G01*
X-63799Y-147835D02*
G03*
X-55335Y-156299I8465J-0D01*
G01*
X-37815Y-147835D02*
G03*
X-29350Y-156299I8465J0D01*
G01*
X-48642D02*
G03*
X-40177Y-147835I-0J8465D01*
G01*
X-74626Y-156299D02*
G03*
X-66161Y-147835I-0J8465D01*
G01*
X141713Y-166732D02*
G03*
X133248Y-158268I-8465J0D01*
G01*
X126555D02*
G03*
X118091Y-166732I0J-8465D01*
G01*
X159232Y-156299D02*
G03*
X167697Y-147835I0J8465D01*
G01*
Y-135630D02*
G03*
X159232Y-127165I-8465J0D01*
G01*
Y-125197D02*
G03*
X167697Y-116732I0J8465D01*
G01*
X152539Y-158268D02*
G03*
X144075Y-166732I0J-8465D01*
G01*
X167697D02*
G03*
X159232Y-158268I-8465J0D01*
G01*
X74587D02*
G03*
X66122Y-166732I0J-8465D01*
G01*
X63760D02*
G03*
X55295Y-158268I-8465J0D01*
G01*
X115728Y-166732D02*
G03*
X107264Y-158268I-8465J0D01*
G01*
X100571D02*
G03*
X92106Y-166732I0J-8465D01*
G01*
X89744D02*
G03*
X81279Y-158268I-8465J0D01*
G01*
X55295Y-187402D02*
G03*
X63760Y-178937I-0J8465D01*
G01*
X159232Y-187402D02*
G03*
X167697Y-178937I0J8465D01*
G01*
X144075D02*
G03*
X152539Y-187402I8465J0D01*
G01*
X66122Y-178937D02*
G03*
X74587Y-187402I8465J-0D01*
G01*
X-74626D02*
G03*
X-66161Y-178937I-0J8465D01*
G01*
X-63799Y-178937D02*
G03*
X-55335Y-187402I8465J-0D01*
G01*
X-159272Y-158268D02*
G03*
X-167736Y-166732I0J-8465D01*
G01*
Y-178937D02*
G03*
X-159272Y-187402I8465J0D01*
G01*
X-141752Y-178937D02*
G03*
X-133287Y-187402I8465J0D01*
G01*
X-152579D02*
G03*
X-144114Y-178937I0J8465D01*
G01*
X-126594Y-187402D02*
G03*
X-118130Y-178937I0J8465D01*
G01*
X-144114Y-166732D02*
G03*
X-152579Y-158268I-8465J0D01*
G01*
X81279Y-187402D02*
G03*
X89744Y-178937I-0J8465D01*
G01*
X92106D02*
G03*
X100571Y-187402I8465J0D01*
G01*
X107264D02*
G03*
X115728Y-178937I0J8465D01*
G01*
X133248Y-187402D02*
G03*
X141713Y-178937I0J8465D01*
G01*
X118091D02*
G03*
X126555Y-187402I8465J0D01*
G01*
X159232Y-62992D02*
G03*
X167697Y-54528I0J8465D01*
G01*
Y-104528D02*
G03*
X159232Y-96063I-8465J0D01*
G01*
X159232Y-94095D02*
G03*
X167697Y-85630I0J8465D01*
G01*
Y-73425D02*
G03*
X159232Y-64961I-8465J-0D01*
G01*
X-159272Y-127165D02*
G03*
X-167736Y-135630I0J-8465D01*
G01*
X-152579Y-156299D02*
G03*
X-144114Y-147835I0J8465D01*
G01*
X-167736D02*
G03*
X-159272Y-156299I8465J0D01*
G01*
X-144114Y-135630D02*
G03*
X-152579Y-127165I-8465J0D01*
G01*
X-100610Y-187402D02*
G03*
X-92146Y-178937I0J8465D01*
G01*
X-89784D02*
G03*
X-81319Y-187402I8465J-0D01*
G01*
X-115768Y-178937D02*
G03*
X-107303Y-187402I8465J0D01*
G01*
X115728Y-135630D02*
G03*
X107264Y-127165I-8465J0D01*
G01*
Y-125197D02*
G03*
X115728Y-116732I0J8465D01*
G01*
X92106Y-147835D02*
G03*
X100571Y-156299I8465J0D01*
G01*
X92106Y-116732D02*
G03*
X100571Y-125197I8465J0D01*
G01*
Y-127165D02*
G03*
X92106Y-135630I0J-8465D01*
G01*
X107264Y-156299D02*
G03*
X115728Y-147835I0J8465D01*
G01*
X107264Y-94095D02*
G03*
X115728Y-85630I0J8465D01*
G01*
X115728Y-104528D02*
G03*
X107264Y-96063I-8465J0D01*
G01*
X100571D02*
G03*
X92106Y-104528I0J-8465D01*
G01*
X92106Y-85630D02*
G03*
X100571Y-94095I8465J0D01*
G01*
X118090Y-85630D02*
G03*
X126555Y-94095I8465J0D01*
G01*
Y-127165D02*
G03*
X118091Y-135630I0J-8465D01*
G01*
Y-147835D02*
G03*
X126555Y-156299I8465J0D01*
G01*
Y-96063D02*
G03*
X118091Y-104528I0J-8465D01*
G01*
Y-116732D02*
G03*
X126555Y-125197I8465J0D01*
G01*
X115728Y-42323D02*
G03*
X107264Y-33858I-8465J0D01*
G01*
X100571D02*
G03*
X92106Y-42323I0J-8465D01*
G01*
X92106Y-54528D02*
G03*
X100571Y-62992I8465J0D01*
G01*
X126555Y-64961D02*
G03*
X118090Y-73425I-0J-8465D01*
G01*
Y-54528D02*
G03*
X126555Y-62992I8465J0D01*
G01*
Y-33858D02*
G03*
X118091Y-42323I0J-8465D01*
G01*
X100571Y-64961D02*
G03*
X92106Y-73425I-0J-8465D01*
G01*
X115728D02*
G03*
X107264Y-64961I-8465J-0D01*
G01*
Y-62992D02*
G03*
X115728Y-54528I0J8465D01*
G01*
X133248Y-94095D02*
G03*
X141713Y-85630I0J8465D01*
G01*
X133248Y-156299D02*
G03*
X141713Y-147835I0J8465D01*
G01*
Y-135630D02*
G03*
X133248Y-127165I-8465J0D01*
G01*
X141713Y-104528D02*
G03*
X133248Y-96063I-8465J0D01*
G01*
Y-125197D02*
G03*
X141713Y-116732I0J8465D01*
G01*
X152539Y-33858D02*
G03*
X144075Y-42323I0J-8465D01*
G01*
X133248Y-62992D02*
G03*
X141713Y-54528I0J8465D01*
G01*
Y-73425D02*
G03*
X133248Y-64961I-8465J-0D01*
G01*
X141713Y-42323D02*
G03*
X133248Y-33858I-8465J0D01*
G01*
X152539Y-64961D02*
G03*
X144075Y-73425I-0J-8465D01*
G01*
Y-54528D02*
G03*
X152539Y-62992I8465J0D01*
G01*
X144075Y-85630D02*
G03*
X152539Y-94095I8465J0D01*
G01*
Y-96063D02*
G03*
X144075Y-104528I0J-8465D01*
G01*
Y-116732D02*
G03*
X152539Y-125197I8465J0D01*
G01*
X144075Y-147835D02*
G03*
X152539Y-156299I8465J0D01*
G01*
Y-127165D02*
G03*
X144075Y-135630I0J-8465D01*
G01*
X-140472Y-29528D02*
G03*
X-132008Y-21063I0J8465D01*
G01*
X-129646D02*
G03*
X-121181Y-29528I8465J0D01*
G01*
X-167736Y-21063D02*
G03*
X-159272Y-29528I8465J0D01*
G01*
X-26217D02*
G03*
X-17736Y-21063I16J8465D01*
G01*
X-53465Y-21063D02*
G03*
X-45000Y-29528I8465J0D01*
G01*
X26177Y-394D02*
G03*
X17697Y-8858I-16J-8465D01*
G01*
Y-21063D02*
G03*
X26162Y-29528I8465J0D01*
G01*
X-83091Y-394D02*
G03*
X-91555Y-8858I-0J-8465D01*
G01*
X-93917D02*
G03*
X-102382Y-394I-8465J-0D01*
G01*
X-55827Y-8858D02*
G03*
X-64291Y-394I-8465J-0D01*
G01*
X-121181D02*
G03*
X-129646Y-8858I-0J-8465D01*
G01*
X-132008D02*
G03*
X-140472Y-394I-8465J-0D01*
G01*
X-45015Y-394D02*
G03*
X-53465Y-8858I15J-8465D01*
G01*
X-159272Y-394D02*
G03*
X-167736Y-8858I-0J-8465D01*
G01*
X-17736Y-8858D02*
G03*
X-26201Y-394I-8465J0D01*
G01*
X-29350Y-33858D02*
G03*
X-37815Y-42323I0J-8465D01*
G01*
X-40177Y-42323D02*
G03*
X-48642Y-33858I-8465J0D01*
G01*
X-3366D02*
G03*
X-11831Y-42323I0J-8465D01*
G01*
X11791D02*
G03*
X3327Y-33858I-8465J0D01*
G01*
X-14193Y-42323D02*
G03*
X-22658Y-33858I-8465J0D01*
G01*
X53425Y-8858D02*
G03*
X44961Y-394I-8465J-0D01*
G01*
X44976Y-29528D02*
G03*
X53425Y-21063I-15J8465D01*
G01*
X55787D02*
G03*
X64252Y-29528I8465J0D01*
G01*
X91516Y-8858D02*
G03*
X83051Y-394I-8465J-0D01*
G01*
X64252D02*
G03*
X55787Y-8858I-0J-8465D01*
G01*
X83051Y-29528D02*
G03*
X91516Y-21063I0J8465D01*
G01*
X-81319Y-33858D02*
G03*
X-89784Y-42323I0J-8465D01*
G01*
X-66161Y-42323D02*
G03*
X-74626Y-33858I-8465J0D01*
G01*
X-55335D02*
G03*
X-63799Y-42323I0J-8465D01*
G01*
X-64291Y-29528D02*
G03*
X-55827Y-21063I0J8465D01*
G01*
X-92146Y-42323D02*
G03*
X-100610Y-33858I-8465J0D01*
G01*
X-102382Y-29528D02*
G03*
X-93917Y-21063I0J8465D01*
G01*
X-91555D02*
G03*
X-83091Y-29528I8465J0D01*
G01*
X121142D02*
G03*
X129606Y-21063I0J8465D01*
G01*
X93878D02*
G03*
X102342Y-29528I8465J0D01*
G01*
X140433Y-394D02*
G03*
X131968Y-8858I-0J-8465D01*
G01*
X131968Y-21063D02*
G03*
X140433Y-29528I8465J0D01*
G01*
X102342Y-394D02*
G03*
X93878Y-8858I-0J-8465D01*
G01*
X129606D02*
G03*
X121142Y-394I-8465J-0D01*
G01*
X159232Y-29528D02*
G03*
X167697Y-21063I0J8465D01*
G01*
X167697Y-8858D02*
G03*
X159232Y-394I-8465J-0D01*
G01*
X167697Y-42323D02*
G03*
X159232Y-33858I-8465J0D01*
G01*
X-107303D02*
G03*
X-115768Y-42323I0J-8465D01*
G01*
X-133287Y-33858D02*
G03*
X-141752Y-42323I0J-8465D01*
G01*
X-144114D02*
G03*
X-152579Y-33858I-8465J0D01*
G01*
X-159272D02*
G03*
X-167736Y-42323I0J-8465D01*
G01*
X-118130D02*
G03*
X-126594Y-33858I-8465J0D01*
G01*
X-194883Y-188976D02*
G03*
X-187008Y-196851I7875J0D01*
G01*
X187008D02*
G03*
X194883Y-188976I0J7875D01*
G01*
Y3937D02*
G03*
X187008Y11812I-7875J0D01*
G01*
X-187008D02*
G03*
X-194883Y3937I0J-7875D01*
G01*
X40138Y-147835D02*
Y-135630D01*
X74587Y-125197D02*
X81279D01*
X48602D02*
X55295D01*
X74587Y-156299D02*
X81279D01*
X74587Y-127165D02*
X81279D01*
X48602D02*
X55295D01*
X48602Y-156299D02*
X55295D01*
X63760Y-147835D02*
Y-135630D01*
X66122Y-147835D02*
Y-135630D01*
X40138Y-116732D02*
Y-104528D01*
X48602Y-96063D02*
X55295D01*
X40138Y-85630D02*
Y-73425D01*
X37776Y-85630D02*
Y-73425D01*
X48602Y-94095D02*
X55295D01*
X37776Y-116732D02*
Y-104528D01*
X74587Y-94095D02*
X81279D01*
X63760Y-116732D02*
Y-104528D01*
Y-85630D02*
Y-73425D01*
X66122Y-85630D02*
Y-73425D01*
X74587Y-96063D02*
X81279D01*
X66122Y-116732D02*
Y-104528D01*
X92106Y-147835D02*
Y-135630D01*
X89744Y-116732D02*
Y-104528D01*
Y-147835D02*
Y-135630D01*
Y-85630D02*
Y-73425D01*
X92106Y-85630D02*
Y-73425D01*
Y-116732D02*
Y-104528D01*
X40138Y-54528D02*
Y-42323D01*
X66122Y-54528D02*
Y-42323D01*
X89744Y-54528D02*
Y-42323D01*
X37776Y-54528D02*
Y-42323D01*
X63760Y-54528D02*
Y-42323D01*
X48602Y-33858D02*
X55295D01*
X22618D02*
X29311D01*
X74587D02*
X81279D01*
X22618Y-62992D02*
X29311D01*
X48602Y-64961D02*
X55295D01*
X74587Y-62992D02*
X81279D01*
X48602D02*
X55295D01*
X74587Y-64961D02*
X81279D01*
X22618D02*
X29311D01*
X22618Y-125197D02*
X29311D01*
X22618Y-94095D02*
X29311D01*
X22618Y-127165D02*
X29311D01*
X22618Y-96063D02*
X29311D01*
X22618Y-156299D02*
X29311D01*
X37776Y-147835D02*
Y-135630D01*
X14153Y-54528D02*
Y-42323D01*
Y-116732D02*
Y-104528D01*
Y-147835D02*
Y-135630D01*
Y-85630D02*
Y-73425D01*
X-37815Y-85630D02*
Y-73425D01*
X-40177Y-85630D02*
Y-73425D01*
X-29350Y-94095D02*
X-22658D01*
X-29350Y-96063D02*
X-22658D01*
X-37815Y-116732D02*
Y-104528D01*
X-29350Y-125197D02*
X-22658D01*
X-40177Y-116732D02*
Y-104528D01*
X-159272Y-64961D02*
X-152579D01*
X-159272Y-94095D02*
X-152579D01*
X-159272Y-62992D02*
X-152579D01*
X-167736Y-85630D02*
Y-73425D01*
X-107303Y-94095D02*
X-100610D01*
X-92146Y-116732D02*
Y-104528D01*
X-107303Y-96063D02*
X-100610D01*
X-89784Y-116732D02*
Y-104528D01*
X-107303Y-125197D02*
X-100610D01*
X-11831Y-116732D02*
Y-104528D01*
Y-85630D02*
Y-73425D01*
X-14193Y-85630D02*
Y-73425D01*
Y-116732D02*
Y-104528D01*
X-159272Y-96063D02*
X-152579D01*
X-167736Y-116732D02*
Y-104528D01*
X-159272Y-125197D02*
X-152579D01*
X-144114Y-116732D02*
Y-104528D01*
X-107303Y-64961D02*
X-100610D01*
X-92146Y-85630D02*
Y-73425D01*
X-89784Y-85630D02*
Y-73425D01*
X-107303Y-62992D02*
X-100610D01*
X-133287Y-96063D02*
X-126594D01*
X-133287Y-125197D02*
X-126594D01*
X-141752Y-116732D02*
Y-104528D01*
X-118130Y-116732D02*
Y-104528D01*
X-115768Y-116732D02*
Y-104528D01*
X-133287Y-94095D02*
X-126594D01*
X-115768Y-85630D02*
Y-73425D01*
X-133287Y-62992D02*
X-126594D01*
X-118130Y-85630D02*
Y-73425D01*
X-144114Y-85630D02*
Y-73425D01*
X-133287Y-64961D02*
X-126594D01*
X-141752Y-85630D02*
Y-73425D01*
X-55335Y-62992D02*
X-48642D01*
X-29350D02*
X-22658D01*
X-29350Y-64961D02*
X-22658D01*
X-55335D02*
X-48642D01*
X-63799Y-116732D02*
Y-104528D01*
X-81319Y-96063D02*
X-74626D01*
X-55335D02*
X-48642D01*
X-55335Y-94095D02*
X-48642D01*
X-81319Y-125197D02*
X-74626D01*
X-55335D02*
X-48642D01*
X-66161Y-116732D02*
Y-104528D01*
X-81319Y-62992D02*
X-74626D01*
X-81319Y-64961D02*
X-74626D01*
X-81319Y-94095D02*
X-74626D01*
X-63799Y-85630D02*
Y-73425D01*
X-66161Y-85630D02*
Y-73425D01*
X-3366Y-125197D02*
X3327D01*
X11791Y-116732D02*
Y-104528D01*
X-3366Y-96063D02*
X3327D01*
X-3366Y-94095D02*
X3327D01*
X-3366Y-62992D02*
X3327D01*
X-3366Y-64961D02*
X3327D01*
X11791Y-85630D02*
Y-73425D01*
X-81319Y-156299D02*
X-74626D01*
X-81319Y-158268D02*
X-74626D01*
X-89784Y-178937D02*
Y-166732D01*
X-107303Y-158268D02*
X-100610D01*
X-63799Y-178937D02*
Y-166732D01*
X-92146Y-178937D02*
Y-166732D01*
X-115768Y-178937D02*
Y-166732D01*
X-66161Y-178937D02*
Y-166732D01*
X-81319Y-127165D02*
X-74626D01*
X-40177Y-147835D02*
Y-135630D01*
X-63799Y-147835D02*
Y-135630D01*
X-66161Y-147835D02*
Y-135630D01*
X-55335Y-127165D02*
X-48642D01*
X-115374Y-147835D02*
Y-135630D01*
X-107303Y-127559D02*
X-100610D01*
X-107303Y-155905D02*
X-100610D01*
X-89784Y-147835D02*
Y-135630D01*
X-92539Y-147835D02*
Y-135630D01*
X-133287Y-158268D02*
X-126594D01*
X-133287Y-127165D02*
X-126594D01*
X-141752Y-178937D02*
Y-166732D01*
X-118130Y-178937D02*
Y-166732D01*
X-141752Y-147835D02*
Y-135630D01*
X-144114Y-178937D02*
Y-166732D01*
X-118130Y-147835D02*
Y-135630D01*
X-144114Y-147835D02*
Y-135630D01*
X-133287Y-156299D02*
X-126594D01*
X-37815Y-147835D02*
Y-135630D01*
X-29350Y-127165D02*
X-22658D01*
X-3366D02*
X3327D01*
X11791Y-147835D02*
Y-135630D01*
X-11831Y-147835D02*
Y-135630D01*
X-14193Y-147835D02*
Y-135630D01*
X-55335Y-158268D02*
X55295D01*
X-3366Y-156299D02*
X3327D01*
X-29350D02*
X-22658D01*
X-55335D02*
X-48642D01*
X141713Y-178937D02*
Y-166732D01*
X118091Y-178937D02*
Y-166732D01*
X167697Y-147835D02*
Y-135630D01*
X144075Y-178937D02*
Y-166732D01*
X152539Y-158268D02*
X159232D01*
X126555D02*
X133248D01*
X167697Y-178937D02*
Y-166732D01*
X74587Y-158268D02*
X81279D01*
X100571D02*
X107264D01*
X66122Y-178937D02*
Y-166732D01*
X89744Y-178937D02*
Y-166732D01*
X92106Y-178937D02*
Y-166732D01*
X63760Y-178937D02*
Y-166732D01*
X115728Y-178937D02*
Y-166732D01*
X74587Y-187402D02*
X81279D01*
X167697Y-116732D02*
Y-104528D01*
X152539Y-187402D02*
X159232D01*
X-55335D02*
X55295D01*
X-81319D02*
X-74626D01*
X-133287D02*
X-126594D01*
X-159272Y-158268D02*
X-152579D01*
X-167736Y-178937D02*
Y-166732D01*
X-159272Y-187402D02*
X-152579D01*
X100571D02*
X107264D01*
X126555D02*
X133248D01*
X167697Y-85630D02*
Y-73425D01*
X-159272Y-156299D02*
X-152579D01*
X-159272Y-127165D02*
X-152579D01*
X-167736Y-147835D02*
Y-135630D01*
X-107303Y-187402D02*
X-100610D01*
X100571Y-127165D02*
X107264D01*
X100571Y-125197D02*
X107264D01*
X100571Y-156299D02*
X107264D01*
X126555Y-96063D02*
X133248D01*
X126555Y-94095D02*
X133248D01*
X126555Y-125197D02*
X133248D01*
X126555Y-127165D02*
X133248D01*
X126555Y-156299D02*
X133248D01*
X100571Y-96063D02*
X107264D01*
X100571Y-94095D02*
X107264D01*
X118091Y-85630D02*
Y-73425D01*
X115728Y-116732D02*
Y-104528D01*
X118091Y-147835D02*
Y-135630D01*
Y-116732D02*
Y-104528D01*
X115728Y-147835D02*
Y-135630D01*
Y-85630D02*
Y-73425D01*
X100571Y-64961D02*
X107264D01*
X118091Y-54528D02*
Y-42323D01*
X100571Y-33858D02*
X107264D01*
X115728Y-54528D02*
Y-42323D01*
X100571Y-62992D02*
X107264D01*
X92106Y-54528D02*
Y-42323D01*
X141713Y-116732D02*
Y-104528D01*
Y-85630D02*
Y-73425D01*
X144075Y-116732D02*
Y-104528D01*
Y-85630D02*
Y-73425D01*
Y-147835D02*
Y-135630D01*
X141713Y-147835D02*
Y-135630D01*
X126555Y-33858D02*
X133248D01*
X126555Y-62992D02*
X133248D01*
X152539D02*
X159232D01*
X126555Y-64961D02*
X133248D01*
X141713Y-54528D02*
Y-42323D01*
X152539Y-33858D02*
X159232D01*
X144075Y-54528D02*
Y-42323D01*
X152539Y-64961D02*
X159232D01*
X152539Y-156299D02*
X159232D01*
X152539Y-125197D02*
X159232D01*
X152539Y-96063D02*
X159232D01*
X152539Y-127165D02*
X159232D01*
X152539Y-94095D02*
X159232D01*
X-132008Y-21063D02*
Y-8858D01*
X-167736Y-21063D02*
Y-8858D01*
X-129646Y-21063D02*
Y-8858D01*
X-89784Y-54528D02*
Y-42323D01*
X-167736Y-54528D02*
Y-42323D01*
X-144114Y-54528D02*
Y-42323D01*
X-141752Y-54528D02*
Y-42323D01*
X-115768Y-54528D02*
Y-42323D01*
X-92146Y-54528D02*
Y-42323D01*
X-63799Y-54528D02*
Y-42323D01*
X-66161Y-54528D02*
Y-42323D01*
X-118130Y-54528D02*
Y-42323D01*
X-53465Y-21063D02*
Y-8858D01*
X-17736Y-21063D02*
Y-8858D01*
X-45000Y-29528D02*
X-26217D01*
X26162D02*
X44976Y-29528D01*
X26177Y-394D02*
X44961D01*
X17697Y-21063D02*
Y-8858D01*
X-83091Y-394D02*
X-64291D01*
X-45015Y-394D02*
X-26201Y-394D01*
X-121181D02*
X-102382D01*
X-159272D02*
X-140472D01*
X-55335Y-33858D02*
X-48642D01*
X-37815Y-54528D02*
Y-42323D01*
X-40177Y-54528D02*
Y-42323D01*
X-29350Y-33858D02*
X-22658D01*
X11791Y-54528D02*
Y-42323D01*
X-3366Y-33858D02*
X3327D01*
X-14193Y-54528D02*
Y-42323D01*
X-11831Y-54528D02*
Y-42323D01*
X64252Y-29528D02*
X83051D01*
X64252Y-394D02*
X83051D01*
X55787Y-21063D02*
Y-8858D01*
X91516Y-21063D02*
Y-8858D01*
X53425Y-21063D02*
Y-8858D01*
X-55827Y-21063D02*
Y-8858D01*
X-93917Y-21063D02*
Y-8858D01*
X-83091Y-29528D02*
X-64291D01*
X-91555Y-21063D02*
Y-8858D01*
X-81319Y-33858D02*
X-74626D01*
X102342Y-29528D02*
X121142D01*
X102342Y-394D02*
X121142D01*
X129606Y-21063D02*
Y-8858D01*
X93878Y-21063D02*
Y-8858D01*
X131968Y-21063D02*
Y-8858D01*
X167697Y-54528D02*
Y-42323D01*
X140433Y-394D02*
X159232D01*
X167697Y-21063D02*
Y-8858D01*
X140433Y-29528D02*
X159232D01*
X-107303Y-33858D02*
X-100610D01*
X-159272D02*
X-152579D01*
X-121181Y-29528D02*
X-102382D01*
X-159272D02*
X-140472D01*
X-133287Y-33858D02*
X-126594D01*
X-194882Y-188977D02*
Y3938D01*
X-187009Y-196850D02*
X187009D01*
X194882Y-188977D02*
Y3937D01*
X-187009Y11811D02*
X187008D01*
D19*
X320853Y101834D02*
X801851D01*
X320853Y93960D02*
X801851D01*
X320853Y86086D02*
X801851D01*
Y109708D01*
X320853D02*
X801851D01*
X320853Y86086D02*
Y109708D01*
X728013Y86086D02*
Y109708D01*
X682357Y86086D02*
Y109708D01*
X648035Y86086D02*
Y109708D01*
X608675Y86086D02*
Y109708D01*
X577502Y86086D02*
Y109708D01*
X498654Y86086D02*
Y109708D01*
X459925Y86086D02*
Y109708D01*
X433159Y86086D02*
Y109708D01*
X375302Y86086D02*
Y109708D01*
X349980Y86086D02*
Y109708D01*
X324012Y96322D02*
X327512D01*
Y99822D01*
X324012D02*
X327512D01*
X324012Y96322D02*
Y99822D01*
X730375Y97896D02*
X732475D01*
X684719D02*
X686818D01*
X652496Y98421D02*
X650922D01*
X650397Y97896D01*
Y96847D01*
X650922Y96322D01*
X652496D01*
X655645D02*
X653546D01*
X655645Y98421D01*
Y98946D01*
X655120Y99471D01*
X654070D01*
X653546Y98946D01*
X658793Y99471D02*
X656694D01*
Y97896D01*
X657744Y98421D01*
X658268D01*
X658793Y97896D01*
Y96847D01*
X658268Y96322D01*
X657219D01*
X656694Y96847D01*
X659843Y98946D02*
X660368Y99471D01*
X661417D01*
X661942Y98946D01*
Y96847D01*
X661417Y96322D01*
X660368D01*
X659843Y96847D01*
Y98946D01*
X662991Y99471D02*
Y96322D01*
Y97896D01*
X663516Y98421D01*
X664566D01*
X665090Y97896D01*
Y96322D01*
X666140D02*
Y98421D01*
X667714D01*
X668239Y97896D01*
Y96322D01*
X671388D02*
X669289D01*
X671388Y98421D01*
Y98946D01*
X670863Y99471D01*
X669813D01*
X669289Y98946D01*
X674536Y99471D02*
X672437D01*
Y97896D01*
X673487Y98421D01*
X674012D01*
X674536Y97896D01*
Y96847D01*
X674012Y96322D01*
X672962D01*
X672437Y96847D01*
X675586Y98946D02*
X676111Y99471D01*
X677160D01*
X677685Y98946D01*
Y96847D01*
X677160Y96322D01*
X676111D01*
X675586Y96847D01*
Y98946D01*
X611037Y96322D02*
Y99471D01*
X612612D01*
X613137Y98946D01*
Y97896D01*
X612612Y97372D01*
X611037D01*
X612087D02*
X613137Y96322D01*
X614711D02*
X615760D01*
X616285Y96847D01*
Y97896D01*
X615760Y98421D01*
X614711D01*
X614186Y97896D01*
Y96847D01*
X614711Y96322D01*
X617335Y98421D02*
Y96847D01*
X617860Y96322D01*
X619434D01*
Y98421D01*
X620483Y96322D02*
Y98421D01*
X622058D01*
X622582Y97896D01*
Y96322D01*
X625731Y99471D02*
Y96322D01*
X624157D01*
X623632Y96847D01*
Y97896D01*
X624157Y98421D01*
X625731D01*
X628355Y96322D02*
X627305D01*
X626781Y96847D01*
Y97896D01*
X627305Y98421D01*
X628355D01*
X628879Y97896D01*
Y97372D01*
X626781D01*
X632028Y99471D02*
Y96322D01*
X630454D01*
X629929Y96847D01*
Y97896D01*
X630454Y98421D01*
X632028D01*
X579864Y96322D02*
Y99471D01*
X581439D01*
X581963Y98946D01*
Y97896D01*
X581439Y97372D01*
X579864D01*
X583538Y98421D02*
X584587D01*
X585112Y97896D01*
Y96322D01*
X583538D01*
X583013Y96847D01*
X583538Y97372D01*
X585112D01*
X588261Y99471D02*
Y96322D01*
X586686D01*
X586162Y96847D01*
Y97896D01*
X586686Y98421D01*
X588261D01*
X501017Y99471D02*
X503116D01*
X502066D01*
Y96322D01*
X504690D02*
X505739D01*
X506264Y96847D01*
Y97896D01*
X505739Y98421D01*
X504690D01*
X504165Y97896D01*
Y96847D01*
X504690Y96322D01*
X507314Y95272D02*
Y98421D01*
X508888D01*
X509413Y97896D01*
Y96847D01*
X508888Y96322D01*
X507314D01*
X513611Y99471D02*
Y96322D01*
X515710D01*
X517284Y98421D02*
X518334D01*
X518858Y97896D01*
Y96322D01*
X517284D01*
X516759Y96847D01*
X517284Y97372D01*
X518858D01*
X519908Y98421D02*
Y96847D01*
X520433Y96322D01*
X522007D01*
Y95797D01*
X521482Y95272D01*
X520958D01*
X522007Y96322D02*
Y98421D01*
X524631Y96322D02*
X523581D01*
X523057Y96847D01*
Y97896D01*
X523581Y98421D01*
X524631D01*
X525156Y97896D01*
Y97372D01*
X523057D01*
X526205Y98421D02*
Y96322D01*
Y97372D01*
X526730Y97896D01*
X527255Y98421D01*
X527779D01*
X532502Y97896D02*
X534601D01*
X538800Y99471D02*
Y96322D01*
X540374D01*
X540899Y96847D01*
Y97372D01*
X540374Y97896D01*
X538800D01*
X540374D01*
X540899Y98421D01*
Y98946D01*
X540374Y99471D01*
X538800D01*
X542473Y96322D02*
X543523D01*
X544047Y96847D01*
Y97896D01*
X543523Y98421D01*
X542473D01*
X541948Y97896D01*
Y96847D01*
X542473Y96322D01*
X545622Y98946D02*
Y98421D01*
X545097D01*
X546146D01*
X545622D01*
Y96847D01*
X546146Y96322D01*
X548245Y98946D02*
Y98421D01*
X547721D01*
X548770D01*
X548245D01*
Y96847D01*
X548770Y96322D01*
X550869D02*
X551919D01*
X552444Y96847D01*
Y97896D01*
X551919Y98421D01*
X550869D01*
X550344Y97896D01*
Y96847D01*
X550869Y96322D01*
X553493D02*
Y98421D01*
X554018D01*
X554543Y97896D01*
Y96322D01*
Y97896D01*
X555067Y98421D01*
X555592Y97896D01*
Y96322D01*
X559790Y99471D02*
Y96322D01*
X561889D01*
X563464Y98421D02*
X564513D01*
X565038Y97896D01*
Y96322D01*
X563464D01*
X562939Y96847D01*
X563464Y97372D01*
X565038D01*
X566087Y98421D02*
Y96847D01*
X566612Y96322D01*
X568186D01*
Y95797D01*
X567662Y95272D01*
X567137D01*
X568186Y96322D02*
Y98421D01*
X570810Y96322D02*
X569761D01*
X569236Y96847D01*
Y97896D01*
X569761Y98421D01*
X570810D01*
X571335Y97896D01*
Y97372D01*
X569236D01*
X572385Y98421D02*
Y96322D01*
Y97372D01*
X572909Y97896D01*
X573434Y98421D01*
X573959D01*
X462287Y96322D02*
Y99471D01*
X463861D01*
X464386Y98946D01*
Y97896D01*
X463861Y97372D01*
X462287D01*
X463336D02*
X464386Y96322D01*
X465960D02*
X467010D01*
X467534Y96847D01*
Y97896D01*
X467010Y98421D01*
X465960D01*
X465435Y97896D01*
Y96847D01*
X465960Y96322D01*
X468584Y98421D02*
Y96847D01*
X469109Y96322D01*
X470683D01*
Y98421D01*
X471733Y96322D02*
Y98421D01*
X473307D01*
X473832Y97896D01*
Y96322D01*
X476980Y99471D02*
Y96322D01*
X475406D01*
X474881Y96847D01*
Y97896D01*
X475406Y98421D01*
X476980D01*
X435522Y96322D02*
Y99471D01*
X437621Y96322D01*
Y99471D01*
X438670Y96322D02*
Y99471D01*
X440244D01*
X440769Y98946D01*
Y97896D01*
X440244Y97372D01*
X438670D01*
X441819Y99471D02*
X443918D01*
X442868D01*
Y96322D01*
X444967Y99471D02*
Y96322D01*
Y97896D01*
X447066D01*
Y99471D01*
Y96322D01*
X379763D02*
X377664D01*
X379763Y98421D01*
Y98946D01*
X379239Y99471D01*
X378189D01*
X377664Y98946D01*
X380813Y96322D02*
Y96847D01*
X381338D01*
Y96322D01*
X380813D01*
X385536Y99471D02*
X383437D01*
Y97896D01*
X384486Y98421D01*
X385011D01*
X385536Y97896D01*
Y96847D01*
X385011Y96322D01*
X383962D01*
X383437Y96847D01*
X386585Y98946D02*
X387110Y99471D01*
X388160D01*
X388684Y98946D01*
Y96847D01*
X388160Y96322D01*
X387110D01*
X386585Y96847D01*
Y98946D01*
X389734D02*
X390259Y99471D01*
X391308D01*
X391833Y98946D01*
Y96847D01*
X391308Y96322D01*
X390259D01*
X389734Y96847D01*
Y98946D01*
X392882Y96322D02*
Y98421D01*
X393407D01*
X393932Y97896D01*
Y96322D01*
Y97896D01*
X394457Y98421D01*
X394982Y97896D01*
Y96322D01*
X396031D02*
Y98421D01*
X396556D01*
X397081Y97896D01*
Y96322D01*
Y97896D01*
X397605Y98421D01*
X398130Y97896D01*
Y96322D01*
X403378D02*
X402328Y97372D01*
Y98421D01*
X403378Y99471D01*
X404952Y96847D02*
X405477Y96322D01*
X406526D01*
X407051Y96847D01*
Y98946D01*
X406526Y99471D01*
X405477D01*
X404952Y98946D01*
Y98421D01*
X405477Y97896D01*
X407051D01*
X408101Y98946D02*
X408626Y99471D01*
X409675D01*
X410200Y98946D01*
Y98421D01*
X409675Y97896D01*
X410200Y97372D01*
Y96847D01*
X409675Y96322D01*
X408626D01*
X408101Y96847D01*
Y97372D01*
X408626Y97896D01*
X408101Y98421D01*
Y98946D01*
X408626Y97896D02*
X409675D01*
X411249Y96322D02*
Y96847D01*
X411774D01*
Y96322D01*
X411249D01*
X415448D02*
Y99471D01*
X413873Y97896D01*
X415972D01*
X417022Y98946D02*
X417547Y99471D01*
X418596D01*
X419121Y98946D01*
Y98421D01*
X418596Y97896D01*
X418071D01*
X418596D01*
X419121Y97372D01*
Y96847D01*
X418596Y96322D01*
X417547D01*
X417022Y96847D01*
X420170Y96322D02*
Y98421D01*
X420695D01*
X421220Y97896D01*
Y96322D01*
Y97896D01*
X421745Y98421D01*
X422269Y97896D01*
Y96322D01*
X423319D02*
X424368D01*
X423844D01*
Y98421D01*
X423319D01*
X425943Y96322D02*
X426992D01*
X426468D01*
Y99471D01*
X425943D01*
X428567Y96322D02*
X429616Y97372D01*
Y98421D01*
X428567Y99471D01*
X353917Y88448D02*
Y91597D01*
X352343Y90022D01*
X354442D01*
X358640Y91597D02*
X360739D01*
X359689D01*
Y88448D01*
X362313D02*
X363363D01*
X363887Y88973D01*
Y90022D01*
X363363Y90547D01*
X362313D01*
X361788Y90022D01*
Y88973D01*
X362313Y88448D01*
X365462Y91072D02*
Y90547D01*
X364937D01*
X365986D01*
X365462D01*
Y88973D01*
X365986Y88448D01*
X368086Y90547D02*
X369135D01*
X369660Y90022D01*
Y88448D01*
X368086D01*
X367561Y88973D01*
X368086Y89498D01*
X369660D01*
X370709Y88448D02*
X371759D01*
X371234D01*
Y91597D01*
X370709D01*
X353917Y96322D02*
Y99471D01*
X352343Y97896D01*
X354442D01*
D20*
X-186039Y-18717D02*
X-184039D01*
Y-16716D01*
X-186039D02*
X-184039D01*
X-186039Y-18717D02*
Y-16716D01*
Y-162417D02*
X-184039D01*
Y-160417D01*
X-186039D02*
X-184039D01*
X-186039Y-162417D02*
Y-160417D01*
X184039Y-18717D02*
X186039D01*
Y-16716D01*
X184039D02*
X186039D01*
X184039Y-18717D02*
Y-16716D01*
Y-162417D02*
X186039D01*
Y-160417D01*
X184039D02*
X186039D01*
X184039Y-162417D02*
Y-160417D01*
D21*
X730375Y104196D02*
Y107974D01*
X732265D01*
X732894Y107345D01*
Y106085D01*
X732265Y105456D01*
X730375D01*
X731635D02*
X732894Y104196D01*
X734784D02*
X736043D01*
X736673Y104826D01*
Y106085D01*
X736043Y106715D01*
X734784D01*
X734154Y106085D01*
Y104826D01*
X734784Y104196D01*
X737932Y106715D02*
Y104826D01*
X738562Y104196D01*
X740451D01*
Y106715D01*
X742340Y107345D02*
Y106715D01*
X741710D01*
X742970D01*
X742340D01*
Y104826D01*
X742970Y104196D01*
X746748D02*
X745489D01*
X744859Y104826D01*
Y106085D01*
X745489Y106715D01*
X746748D01*
X747378Y106085D01*
Y105456D01*
X744859D01*
X751156Y107974D02*
Y104196D01*
X749267D01*
X748637Y104826D01*
Y106085D01*
X749267Y106715D01*
X751156D01*
X756194Y104196D02*
Y107974D01*
X758083D01*
X758713Y107345D01*
Y106085D01*
X758083Y105456D01*
X756194D01*
X760602Y106715D02*
X761861D01*
X762491Y106085D01*
Y104196D01*
X760602D01*
X759972Y104826D01*
X760602Y105456D01*
X762491D01*
X764380Y107345D02*
Y106715D01*
X763751D01*
X765010D01*
X764380D01*
Y104826D01*
X765010Y104196D01*
X766899Y107974D02*
Y104196D01*
Y106085D01*
X767529Y106715D01*
X768788D01*
X769418Y106085D01*
Y104196D01*
X774456Y107974D02*
Y104196D01*
X776975D01*
X780123D02*
X778864D01*
X778234Y104826D01*
Y106085D01*
X778864Y106715D01*
X780123D01*
X780753Y106085D01*
Y105456D01*
X778234D01*
X782012Y104196D02*
Y106715D01*
X783902D01*
X784531Y106085D01*
Y104196D01*
X787050Y102937D02*
X787680D01*
X788310Y103566D01*
Y106715D01*
X786420D01*
X785791Y106085D01*
Y104826D01*
X786420Y104196D01*
X788310D01*
X790199Y107345D02*
Y106715D01*
X789569D01*
X790828D01*
X790199D01*
Y104826D01*
X790828Y104196D01*
X792718Y107974D02*
Y104196D01*
Y106085D01*
X793347Y106715D01*
X794607D01*
X795236Y106085D01*
Y104196D01*
X684719Y107974D02*
Y104196D01*
Y106085D01*
X687238D01*
Y107974D01*
Y104196D01*
X689127D02*
X690386D01*
X691016Y104826D01*
Y106085D01*
X690386Y106715D01*
X689127D01*
X688497Y106085D01*
Y104826D01*
X689127Y104196D01*
X692275D02*
X693535D01*
X692905D01*
Y107974D01*
X692275D01*
X697313Y104196D02*
X696054D01*
X695424Y104826D01*
Y106085D01*
X696054Y106715D01*
X697313D01*
X697943Y106085D01*
Y105456D01*
X695424D01*
X702981Y107974D02*
Y104196D01*
X705500D01*
X708648D02*
X707389D01*
X706759Y104826D01*
Y106085D01*
X707389Y106715D01*
X708648D01*
X709278Y106085D01*
Y105456D01*
X706759D01*
X710537Y104196D02*
Y106715D01*
X712426D01*
X713056Y106085D01*
Y104196D01*
X715575Y102937D02*
X716205D01*
X716834Y103566D01*
Y106715D01*
X714945D01*
X714316Y106085D01*
Y104826D01*
X714945Y104196D01*
X716834D01*
X718724Y107345D02*
Y106715D01*
X718094D01*
X719353D01*
X718724D01*
Y104826D01*
X719353Y104196D01*
X721243Y107974D02*
Y104196D01*
Y106085D01*
X721872Y106715D01*
X723132D01*
X723761Y106085D01*
Y104196D01*
X650397Y107974D02*
X652916D01*
X651656D01*
Y104196D01*
X656065D02*
X654805D01*
X654175Y104826D01*
Y106085D01*
X654805Y106715D01*
X656065D01*
X656694Y106085D01*
Y105456D01*
X654175D01*
X657954Y104196D02*
Y106715D01*
X658583D01*
X659213Y106085D01*
Y104196D01*
Y106085D01*
X659843Y106715D01*
X660472Y106085D01*
Y104196D01*
X661732Y102937D02*
Y106715D01*
X663621D01*
X664251Y106085D01*
Y104826D01*
X663621Y104196D01*
X661732D01*
X665510D02*
X666770D01*
X666140D01*
Y107974D01*
X665510D01*
X669289Y106715D02*
X670548D01*
X671178Y106085D01*
Y104196D01*
X669289D01*
X668659Y104826D01*
X669289Y105456D01*
X671178D01*
X673067Y107345D02*
Y106715D01*
X672437D01*
X673697D01*
X673067D01*
Y104826D01*
X673697Y104196D01*
X677475D02*
X676216D01*
X675586Y104826D01*
Y106085D01*
X676216Y106715D01*
X677475D01*
X678105Y106085D01*
Y105456D01*
X675586D01*
X611037Y104196D02*
Y107974D01*
X612927D01*
X613556Y107345D01*
Y106085D01*
X612927Y105456D01*
X611037D01*
X615446Y106715D02*
X616705D01*
X617335Y106085D01*
Y104196D01*
X615446D01*
X614816Y104826D01*
X615446Y105456D01*
X617335D01*
X621113Y107974D02*
Y104196D01*
X619224D01*
X618594Y104826D01*
Y106085D01*
X619224Y106715D01*
X621113D01*
X628670Y107345D02*
X628040Y107974D01*
X626781D01*
X626151Y107345D01*
Y106715D01*
X626781Y106085D01*
X628040D01*
X628670Y105456D01*
Y104826D01*
X628040Y104196D01*
X626781D01*
X626151Y104826D01*
X629929Y107974D02*
Y104196D01*
Y106085D01*
X630559Y106715D01*
X631818D01*
X632448Y106085D01*
Y104196D01*
X634337Y106715D02*
X635597D01*
X636226Y106085D01*
Y104196D01*
X634337D01*
X633707Y104826D01*
X634337Y105456D01*
X636226D01*
X637486Y102937D02*
Y106715D01*
X639375D01*
X640005Y106085D01*
Y104826D01*
X639375Y104196D01*
X637486D01*
X643153D02*
X641894D01*
X641264Y104826D01*
Y106085D01*
X641894Y106715D01*
X643153D01*
X643783Y106085D01*
Y105456D01*
X641264D01*
X579864Y107974D02*
Y105456D01*
X581124Y104196D01*
X582383Y105456D01*
Y107974D01*
X583643Y104196D02*
X584902D01*
X584272D01*
Y106715D01*
X583643D01*
X587421D02*
X588680D01*
X589310Y106085D01*
Y104196D01*
X587421D01*
X586791Y104826D01*
X587421Y105456D01*
X589310D01*
X590570Y104196D02*
X593088Y106715D01*
X594348Y104196D02*
Y107974D01*
X596237D01*
X596867Y107345D01*
Y106085D01*
X596237Y105456D01*
X594348D01*
X598756Y106715D02*
X600015D01*
X600645Y106085D01*
Y104196D01*
X598756D01*
X598126Y104826D01*
X598756Y105456D01*
X600645D01*
X604423Y107974D02*
Y104196D01*
X602534D01*
X601904Y104826D01*
Y106085D01*
X602534Y106715D01*
X604423D01*
X501017Y107974D02*
Y104196D01*
X502906D01*
X503535Y104826D01*
Y107345D01*
X502906Y107974D01*
X501017D01*
X504795Y106715D02*
Y104196D01*
Y105456D01*
X505424Y106085D01*
X506054Y106715D01*
X506684D01*
X508573Y104196D02*
X509833D01*
X509203D01*
Y106715D01*
X508573D01*
X511722Y104196D02*
X512981D01*
X512352D01*
Y107974D01*
X511722D01*
X514870Y104196D02*
X516130D01*
X515500D01*
Y107974D01*
X514870D01*
X521797D02*
Y104196D01*
X524316D01*
X526205Y106715D02*
X527465D01*
X528094Y106085D01*
Y104196D01*
X526205D01*
X525575Y104826D01*
X526205Y105456D01*
X528094D01*
X529354Y106715D02*
Y104826D01*
X529984Y104196D01*
X531873D01*
Y103566D01*
X531243Y102937D01*
X530613D01*
X531873Y104196D02*
Y106715D01*
X535021Y104196D02*
X533762D01*
X533132Y104826D01*
Y106085D01*
X533762Y106715D01*
X535021D01*
X535651Y106085D01*
Y105456D01*
X533132D01*
X536910Y106715D02*
Y104196D01*
Y105456D01*
X537540Y106085D01*
X538170Y106715D01*
X538800D01*
X544467Y104196D02*
Y107974D01*
X546356D01*
X546986Y107345D01*
Y106085D01*
X546356Y105456D01*
X544467D01*
X548875Y106715D02*
X550135D01*
X550764Y106085D01*
Y104196D01*
X548875D01*
X548245Y104826D01*
X548875Y105456D01*
X550764D01*
X552024Y104196D02*
X553283D01*
X552653D01*
Y106715D01*
X552024D01*
X555172D02*
Y104196D01*
Y105456D01*
X555802Y106085D01*
X556432Y106715D01*
X557061D01*
X462287Y107974D02*
Y104196D01*
Y106085D01*
X464806D01*
Y107974D01*
Y104196D01*
X466695D02*
X467954D01*
X468584Y104826D01*
Y106085D01*
X467954Y106715D01*
X466695D01*
X466065Y106085D01*
Y104826D01*
X466695Y104196D01*
X469843D02*
X471103D01*
X470473D01*
Y107974D01*
X469843D01*
X474881Y104196D02*
X473622D01*
X472992Y104826D01*
Y106085D01*
X473622Y106715D01*
X474881D01*
X475511Y106085D01*
Y105456D01*
X472992D01*
X480549Y107974D02*
X483067D01*
X481808D01*
Y104196D01*
X484327Y106715D02*
Y104826D01*
X484957Y104196D01*
X486846D01*
Y103566D01*
X486216Y102937D01*
X485586D01*
X486846Y104196D02*
Y106715D01*
X488105Y102937D02*
Y106715D01*
X489994D01*
X490624Y106085D01*
Y104826D01*
X489994Y104196D01*
X488105D01*
X493773D02*
X492513D01*
X491884Y104826D01*
Y106085D01*
X492513Y106715D01*
X493773D01*
X494402Y106085D01*
Y105456D01*
X491884D01*
X435522Y104196D02*
Y107974D01*
X437411D01*
X438040Y107345D01*
Y106085D01*
X437411Y105456D01*
X435522D01*
X439300Y104196D02*
X440559D01*
X439930D01*
Y107974D01*
X439300D01*
X443078Y106715D02*
X444338D01*
X444967Y106085D01*
Y104196D01*
X443078D01*
X442449Y104826D01*
X443078Y105456D01*
X444967D01*
X446856Y107345D02*
Y106715D01*
X446227D01*
X447486D01*
X446856D01*
Y104826D01*
X447486Y104196D01*
X451264D02*
X450005D01*
X449375Y104826D01*
Y106085D01*
X450005Y106715D01*
X451264D01*
X451894Y106085D01*
Y105456D01*
X449375D01*
X455673Y107974D02*
Y104196D01*
X453783D01*
X453154Y104826D01*
Y106085D01*
X453783Y106715D01*
X455673D01*
X377664Y107974D02*
Y104196D01*
Y106085D01*
X380183D01*
Y107974D01*
Y104196D01*
X382072D02*
X383332D01*
X383962Y104826D01*
Y106085D01*
X383332Y106715D01*
X382072D01*
X381443Y106085D01*
Y104826D01*
X382072Y104196D01*
X385221D02*
X386480D01*
X385851D01*
Y107974D01*
X385221D01*
X390259Y104196D02*
X388999D01*
X388370Y104826D01*
Y106085D01*
X388999Y106715D01*
X390259D01*
X390888Y106085D01*
Y105456D01*
X388370D01*
X398445Y107345D02*
X397815Y107974D01*
X396556D01*
X395926Y107345D01*
Y106715D01*
X396556Y106085D01*
X397815D01*
X398445Y105456D01*
Y104826D01*
X397815Y104196D01*
X396556D01*
X395926Y104826D01*
X399705Y104196D02*
X400964D01*
X400334D01*
Y106715D01*
X399705D01*
X402853D02*
X405372D01*
X402853Y104196D01*
X405372D01*
X408521D02*
X407261D01*
X406631Y104826D01*
Y106085D01*
X407261Y106715D01*
X408521D01*
X409150Y106085D01*
Y105456D01*
X406631D01*
X354861Y107345D02*
X354232Y107974D01*
X352972D01*
X352343Y107345D01*
Y104826D01*
X352972Y104196D01*
X354232D01*
X354861Y104826D01*
X356751Y104196D02*
X358010D01*
X358640Y104826D01*
Y106085D01*
X358010Y106715D01*
X356751D01*
X356121Y106085D01*
Y104826D01*
X356751Y104196D01*
X359899Y106715D02*
Y104826D01*
X360529Y104196D01*
X362418D01*
Y106715D01*
X363678Y104196D02*
Y106715D01*
X365567D01*
X366196Y106085D01*
Y104196D01*
X368086Y107345D02*
Y106715D01*
X367456D01*
X368715D01*
X368086D01*
Y104826D01*
X368715Y104196D01*
X328096Y107345D02*
X327467Y107974D01*
X326207D01*
X325577Y107345D01*
Y106715D01*
X326207Y106085D01*
X327467D01*
X328096Y105456D01*
Y104826D01*
X327467Y104196D01*
X326207D01*
X325577Y104826D01*
X329356Y106715D02*
Y104826D01*
X329985Y104196D01*
X331875D01*
Y103566D01*
X331245Y102937D01*
X330615D01*
X331875Y104196D02*
Y106715D01*
X333134Y104196D02*
Y106715D01*
X333764D01*
X334394Y106085D01*
Y104196D01*
Y106085D01*
X335023Y106715D01*
X335653Y106085D01*
Y104196D01*
X336912Y107974D02*
Y104196D01*
X338802D01*
X339431Y104826D01*
Y105456D01*
Y106085D01*
X338802Y106715D01*
X336912D01*
X341320Y104196D02*
X342580D01*
X343210Y104826D01*
Y106085D01*
X342580Y106715D01*
X341320D01*
X340691Y106085D01*
Y104826D01*
X341320Y104196D01*
X344469D02*
X345728D01*
X345099D01*
Y107974D01*
X344469D01*
M02*
