G04*
G04 #@! TF.GenerationSoftware,Altium Limited,Altium Designer,24.2.2 (26)*
G04*
G04 Layer_Physical_Order=2*
G04 Layer_Color=3381759*
%FSLAX25Y25*%
%MOIN*%
G70*
G04*
G04 #@! TF.SameCoordinates,661FBD00-BEF8-4439-B900-685B4A6DAB74*
G04*
G04*
G04 #@! TF.FilePolarity,Positive*
G04*
G01*
G75*
%ADD10C,0.00394*%
%ADD15C,0.09843*%
G36*
X-173673Y-43812D02*
X-183228Y-53367D01*
X-183337Y-53345D01*
X-186742Y-45080D01*
X-188965Y-50480D01*
X-186157Y-49106D01*
X-186053Y-49145D01*
X-185709Y-49963D01*
X-190701Y-52444D01*
X-190783Y-52368D01*
X-187259Y-43828D01*
X-190783Y-35287D01*
X-190701Y-35211D01*
X-185709Y-37692D01*
X-186053Y-38510D01*
X-186157Y-38548D01*
X-188965Y-37144D01*
X-186742Y-42544D01*
X-183337Y-34279D01*
X-183228Y-34257D01*
X-173673Y-43812D01*
D02*
G37*
G36*
X-181707Y-106822D02*
X-181707Y-106890D01*
X-181639Y-106891D01*
X-181638Y-106822D01*
X-181570Y-106823D01*
X-181570Y-106891D01*
X-181502Y-106892D01*
X-181501Y-106823D01*
X-181433Y-106824D01*
X-181364Y-106825D01*
X-181296Y-106825D01*
X-181296Y-106894D01*
X-181228Y-106894D01*
X-181227Y-106826D01*
X-181159Y-106826D01*
X-181090Y-106827D01*
X-181022Y-106827D01*
X-181022Y-106896D01*
X-180954Y-106897D01*
X-180953Y-106828D01*
X-180885Y-106829D01*
X-180885Y-106897D01*
X-180817Y-106898D01*
X-180816Y-106829D01*
X-180748Y-106830D01*
X-180748Y-106898D01*
X-180680Y-106899D01*
X-180679Y-106831D01*
X-180611Y-106831D01*
X-180612Y-106900D01*
X-180543Y-106900D01*
X-180475Y-106901D01*
X-180406Y-106901D01*
X-180338Y-106902D01*
X-180269Y-106903D01*
X-180270Y-106971D01*
X-180201Y-106972D01*
X-180133Y-106972D01*
X-180064Y-106973D01*
X-179996Y-106974D01*
X-179927Y-106974D01*
X-179928Y-107043D01*
X-179859Y-107043D01*
X-179859Y-106975D01*
X-179790Y-106975D01*
X-179791Y-107044D01*
X-179722Y-107044D01*
X-179654Y-107045D01*
X-179586Y-107045D01*
X-179586Y-107114D01*
X-179518Y-107115D01*
X-179449Y-107115D01*
X-179381Y-107116D01*
X-179381Y-107184D01*
X-179313Y-107185D01*
X-179312Y-107116D01*
X-179244Y-107117D01*
X-179244Y-107185D01*
X-179176Y-107186D01*
X-179107Y-107187D01*
X-179108Y-107255D01*
X-179040Y-107256D01*
X-178971Y-107256D01*
X-178972Y-107325D01*
X-178903Y-107325D01*
X-178902Y-107257D01*
X-178834Y-107257D01*
X-178835Y-107326D01*
X-178766Y-107327D01*
X-178698Y-107327D01*
X-178698Y-107396D01*
X-178630Y-107396D01*
X-178561Y-107397D01*
X-178562Y-107465D01*
X-178493Y-107466D01*
X-178493Y-107397D01*
X-178424Y-107398D01*
X-178425Y-107467D01*
X-178357Y-107467D01*
X-178357Y-107536D01*
X-178289Y-107536D01*
X-178289Y-107605D01*
X-178221Y-107605D01*
X-178220Y-107537D01*
X-178152Y-107537D01*
X-178152Y-107606D01*
X-178084Y-107606D01*
X-178084Y-107675D01*
X-178016Y-107676D01*
X-178016Y-107744D01*
X-177948Y-107745D01*
X-177947Y-107676D01*
X-177879Y-107677D01*
X-177880Y-107745D01*
X-177811Y-107746D01*
X-177812Y-107814D01*
X-177743Y-107815D01*
X-177744Y-107883D01*
X-177675Y-107884D01*
X-177675Y-107816D01*
X-177606Y-107816D01*
X-177607Y-107885D01*
X-177538Y-107885D01*
X-177539Y-107954D01*
X-177471Y-107954D01*
X-177471Y-108023D01*
X-177403Y-108023D01*
X-177334Y-108024D01*
X-177335Y-108092D01*
X-177266Y-108093D01*
X-177198Y-108094D01*
X-177198Y-108162D01*
X-177130Y-108163D01*
X-177130Y-108231D01*
X-177062Y-108232D01*
X-177063Y-108300D01*
X-176994Y-108301D01*
X-176995Y-108369D01*
X-176926Y-108370D01*
X-176927Y-108438D01*
X-176858Y-108439D01*
X-176858Y-108371D01*
X-176789Y-108371D01*
X-176790Y-108508D01*
X-176722Y-108509D01*
X-176654Y-108509D01*
X-176654Y-108578D01*
X-176586Y-108578D01*
X-176586Y-108647D01*
X-176518Y-108648D01*
X-176518Y-108716D01*
X-176450Y-108716D01*
X-176450Y-108785D01*
X-176382Y-108786D01*
X-176383Y-108854D01*
X-176314Y-108855D01*
X-176315Y-108923D01*
X-176246Y-108924D01*
X-176247Y-108992D01*
X-176178Y-108993D01*
X-176179Y-109061D01*
X-176110Y-109062D01*
X-176111Y-109130D01*
X-176043Y-109131D01*
X-176043Y-109200D01*
X-175975Y-109200D01*
X-175975Y-109269D01*
X-175907Y-109269D01*
X-175907Y-109338D01*
X-175839Y-109338D01*
X-175840Y-109475D01*
X-175772Y-109476D01*
X-175703Y-109476D01*
X-175705Y-109682D01*
X-175636Y-109682D01*
X-175637Y-109751D01*
X-175569Y-109751D01*
X-175569Y-109820D01*
X-175501Y-109821D01*
X-175501Y-109889D01*
X-175433Y-109890D01*
X-175435Y-110095D01*
X-175366Y-110096D01*
X-175367Y-110164D01*
X-175298Y-110165D01*
X-175299Y-110302D01*
X-175231Y-110302D01*
X-175232Y-110439D01*
X-175164Y-110440D01*
X-175164Y-110508D01*
X-175096Y-110509D01*
X-175096Y-110577D01*
X-175165Y-110577D01*
X-175165Y-110645D01*
X-175097Y-110646D01*
X-175098Y-110714D01*
X-175029Y-110715D01*
X-175031Y-110920D01*
X-174962Y-110921D01*
X-174963Y-110989D01*
X-174894Y-110990D01*
X-174896Y-111127D01*
X-174964Y-111126D01*
X-174963Y-110989D01*
X-175031Y-110989D01*
X-175100Y-110988D01*
X-175099Y-110920D01*
X-175168Y-110919D01*
X-175236Y-110919D01*
X-175236Y-110850D01*
X-175304Y-110850D01*
X-175304Y-110781D01*
X-175372Y-110781D01*
X-175372Y-110712D01*
X-175440Y-110711D01*
X-175439Y-110643D01*
X-175508Y-110642D01*
X-175507Y-110574D01*
X-175576Y-110573D01*
X-175576Y-110642D01*
X-175645Y-110641D01*
X-175644Y-110573D01*
X-175713Y-110572D01*
X-175712Y-110504D01*
X-175781Y-110503D01*
X-175780Y-110434D01*
X-175848Y-110434D01*
X-175848Y-110365D01*
X-175916Y-110365D01*
X-175985Y-110364D01*
X-176053Y-110364D01*
X-176053Y-110295D01*
X-176121Y-110294D01*
X-176121Y-110226D01*
X-176189Y-110225D01*
X-176189Y-110157D01*
X-176257Y-110156D01*
X-176258Y-110225D01*
X-176326Y-110224D01*
X-176325Y-110156D01*
X-176394Y-110155D01*
X-176393Y-110087D01*
X-176462Y-110086D01*
X-176461Y-110018D01*
X-176530Y-110017D01*
X-176598Y-110017D01*
X-176598Y-109948D01*
X-176666Y-109947D01*
X-176734Y-109947D01*
X-176734Y-109878D01*
X-176802Y-109878D01*
X-176871Y-109877D01*
X-176939Y-109877D01*
X-176939Y-109808D01*
X-177007Y-109807D01*
X-177007Y-109739D01*
X-177075Y-109738D01*
X-177076Y-109807D01*
X-177144Y-109806D01*
X-177144Y-109738D01*
X-177212Y-109737D01*
X-177211Y-109669D01*
X-177280Y-109668D01*
X-177348Y-109668D01*
X-177417Y-109667D01*
X-177416Y-109598D01*
X-177485Y-109598D01*
X-177553Y-109597D01*
X-177553Y-109529D01*
X-177621Y-109528D01*
X-177690Y-109528D01*
X-177689Y-109459D01*
X-177758Y-109458D01*
X-177758Y-109527D01*
X-177827Y-109526D01*
X-177826Y-109458D01*
X-177894Y-109457D01*
X-177894Y-109389D01*
X-177962Y-109388D01*
X-178031Y-109388D01*
X-178099Y-109387D01*
X-178099Y-109318D01*
X-178167Y-109318D01*
X-178168Y-109386D01*
X-178236Y-109386D01*
X-178236Y-109317D01*
X-178304Y-109317D01*
X-178304Y-109248D01*
X-178372Y-109248D01*
X-178440Y-109247D01*
X-178509Y-109247D01*
X-178508Y-109178D01*
X-178577Y-109177D01*
X-178577Y-109246D01*
X-178646Y-109245D01*
X-178645Y-109177D01*
X-178714Y-109176D01*
X-178782Y-109176D01*
X-178851Y-109175D01*
X-178850Y-109107D01*
X-178919Y-109106D01*
X-178919Y-109174D01*
X-178988Y-109174D01*
X-178987Y-109105D01*
X-179056Y-109105D01*
X-179055Y-109036D01*
X-179123Y-109036D01*
X-179124Y-109104D01*
X-179193Y-109104D01*
X-179192Y-109035D01*
X-179261Y-109034D01*
X-179261Y-109103D01*
X-179330Y-109102D01*
X-179329Y-109034D01*
X-179397Y-109033D01*
X-179466Y-109033D01*
X-179534Y-109032D01*
X-179603Y-109031D01*
X-179671Y-109031D01*
X-179671Y-108962D01*
X-179739Y-108962D01*
X-179808Y-108961D01*
X-179876Y-108961D01*
X-179945Y-108960D01*
X-180013Y-108959D01*
X-180013Y-108891D01*
X-180081Y-108890D01*
X-180082Y-108959D01*
X-180150Y-108958D01*
X-180149Y-108890D01*
X-180218Y-108889D01*
X-180219Y-108958D01*
X-180287Y-108957D01*
X-180287Y-108888D01*
X-180355Y-108888D01*
X-180356Y-108956D01*
X-180424Y-108956D01*
X-180423Y-108887D01*
X-180492Y-108887D01*
X-180492Y-108955D01*
X-180561Y-108955D01*
X-180560Y-108886D01*
X-180629Y-108886D01*
X-180697Y-108885D01*
X-180766Y-108884D01*
X-180766Y-108953D01*
X-180835Y-108952D01*
X-180834Y-108884D01*
X-180903Y-108883D01*
X-180971Y-108882D01*
X-181040Y-108882D01*
X-181108Y-108881D01*
X-181177Y-108881D01*
X-181245Y-108880D01*
X-181314Y-108879D01*
X-181314Y-108948D01*
X-181383Y-108947D01*
X-181382Y-108879D01*
X-181451Y-108878D01*
X-181451Y-108947D01*
X-181520Y-108946D01*
X-181519Y-108878D01*
X-181588Y-108877D01*
X-181588Y-108946D01*
X-181657Y-108945D01*
X-181656Y-108877D01*
X-181725Y-108876D01*
X-181725Y-108944D01*
X-181794Y-108944D01*
X-181793Y-108875D01*
X-181861Y-108875D01*
X-181862Y-108943D01*
X-181930Y-108943D01*
X-181930Y-108874D01*
X-181999Y-108874D01*
X-181999Y-108942D01*
X-182068Y-108941D01*
X-182136Y-108941D01*
X-182204Y-108940D01*
X-182273Y-108940D01*
X-182342Y-108939D01*
X-182342Y-109008D01*
X-182411Y-109007D01*
X-182479Y-109006D01*
X-182547Y-109006D01*
X-182548Y-109074D01*
X-182617Y-109074D01*
X-182616Y-109005D01*
X-182685Y-109004D01*
X-182685Y-109073D01*
X-182754Y-109072D01*
X-182753Y-109004D01*
X-182821Y-109003D01*
X-182822Y-109072D01*
X-182890Y-109071D01*
X-182890Y-109003D01*
X-182958Y-109002D01*
X-182959Y-109071D01*
X-183027Y-109070D01*
X-183028Y-109139D01*
X-183097Y-109138D01*
X-183165Y-109137D01*
X-183233Y-109137D01*
X-183234Y-109205D01*
X-183302Y-109205D01*
X-183302Y-109136D01*
X-183370Y-109135D01*
X-183371Y-109204D01*
X-183440Y-109203D01*
X-183508Y-109203D01*
X-183577Y-109202D01*
X-183577Y-109271D01*
X-183646Y-109270D01*
X-183714Y-109269D01*
X-183782Y-109269D01*
X-183783Y-109337D01*
X-183852Y-109337D01*
X-183851Y-109268D01*
X-183920Y-109268D01*
X-183920Y-109336D01*
X-183989Y-109336D01*
X-184057Y-109335D01*
X-184125Y-109334D01*
X-184126Y-109403D01*
X-184195Y-109402D01*
X-184195Y-109471D01*
X-184264Y-109470D01*
X-184263Y-109402D01*
X-184332Y-109401D01*
X-184332Y-109470D01*
X-184401Y-109469D01*
X-184401Y-109537D01*
X-184470Y-109537D01*
X-184538Y-109536D01*
X-184607Y-109536D01*
X-184607Y-109604D01*
X-184676Y-109604D01*
X-184744Y-109603D01*
X-184813Y-109602D01*
X-184813Y-109671D01*
X-184882Y-109670D01*
X-184882Y-109739D01*
X-184951Y-109738D01*
X-184950Y-109670D01*
X-185019Y-109669D01*
X-185019Y-109738D01*
X-185088Y-109737D01*
X-185088Y-109805D01*
X-185157Y-109805D01*
X-185225Y-109804D01*
X-185294Y-109804D01*
X-185294Y-109872D01*
X-185363Y-109871D01*
X-185363Y-109940D01*
X-185432Y-109939D01*
X-185433Y-110008D01*
X-185501Y-110007D01*
X-185501Y-109939D01*
X-185569Y-109938D01*
X-185570Y-110007D01*
X-185638Y-110006D01*
X-185639Y-110074D01*
X-185707Y-110074D01*
X-185776Y-110073D01*
X-185844Y-110073D01*
X-185845Y-110141D01*
X-185913Y-110141D01*
X-185914Y-110209D01*
X-185982Y-110208D01*
X-185983Y-110277D01*
X-186051Y-110276D01*
X-186051Y-110208D01*
X-186119Y-110207D01*
X-186120Y-110276D01*
X-186188Y-110275D01*
X-186187Y-110070D01*
X-186118Y-110070D01*
X-186117Y-110002D01*
X-186049Y-110003D01*
X-186048Y-109934D01*
X-185980Y-109935D01*
X-185978Y-109729D01*
X-185910Y-109730D01*
X-185909Y-109661D01*
X-185840Y-109662D01*
X-185840Y-109593D01*
X-185771Y-109594D01*
X-185770Y-109388D01*
X-185701Y-109389D01*
X-185701Y-109321D01*
X-185632Y-109321D01*
X-185631Y-109253D01*
X-185563Y-109253D01*
X-185562Y-109185D01*
X-185494Y-109186D01*
X-185493Y-109117D01*
X-185425Y-109118D01*
X-185424Y-109049D01*
X-185356Y-109050D01*
X-185354Y-108844D01*
X-185285Y-108845D01*
X-185285Y-108776D01*
X-185216Y-108777D01*
X-185216Y-108709D01*
X-185147Y-108709D01*
X-185147Y-108641D01*
X-185078Y-108641D01*
X-185078Y-108573D01*
X-185009Y-108573D01*
X-185009Y-108505D01*
X-184940Y-108505D01*
X-184940Y-108437D01*
X-184871Y-108438D01*
X-184870Y-108369D01*
X-184802Y-108370D01*
X-184801Y-108301D01*
X-184733Y-108302D01*
X-184732Y-108233D01*
X-184664Y-108234D01*
X-184663Y-108166D01*
X-184595Y-108166D01*
X-184594Y-108098D01*
X-184526Y-108098D01*
X-184525Y-108030D01*
X-184457Y-108030D01*
X-184456Y-107962D01*
X-184388Y-107962D01*
X-184387Y-107894D01*
X-184318Y-107895D01*
X-184319Y-107963D01*
X-184250Y-107964D01*
X-184249Y-107827D01*
X-184181Y-107827D01*
X-184112Y-107828D01*
X-184112Y-107759D01*
X-184043Y-107760D01*
X-184043Y-107692D01*
X-183974Y-107692D01*
X-183974Y-107624D01*
X-183905Y-107624D01*
X-183905Y-107556D01*
X-183836Y-107556D01*
X-183835Y-107488D01*
X-183767Y-107488D01*
X-183768Y-107557D01*
X-183699Y-107557D01*
X-183698Y-107489D01*
X-183630Y-107490D01*
X-183629Y-107421D01*
X-183561Y-107422D01*
X-183560Y-107353D01*
X-183492Y-107354D01*
X-183493Y-107422D01*
X-183424Y-107423D01*
X-183423Y-107354D01*
X-183355Y-107355D01*
X-183354Y-107287D01*
X-183286Y-107287D01*
X-183285Y-107219D01*
X-183217Y-107219D01*
X-183148Y-107220D01*
X-183080Y-107220D01*
X-183079Y-107152D01*
X-183011Y-107153D01*
X-182942Y-107153D01*
X-182874Y-107154D01*
X-182873Y-107085D01*
X-182805Y-107086D01*
X-182736Y-107087D01*
X-182668Y-107087D01*
X-182667Y-107019D01*
X-182599Y-107019D01*
X-182530Y-107020D01*
X-182462Y-107020D01*
X-182461Y-106952D01*
X-182393Y-106953D01*
X-182324Y-106953D01*
X-182256Y-106954D01*
X-182255Y-106885D01*
X-182187Y-106886D01*
X-182187Y-106954D01*
X-182119Y-106955D01*
X-182118Y-106886D01*
X-182050Y-106887D01*
X-181981Y-106888D01*
X-181913Y-106888D01*
X-181844Y-106889D01*
X-181776Y-106889D01*
X-181775Y-106821D01*
X-181707Y-106822D01*
D02*
G37*
G36*
X-184451Y-107345D02*
X-184451Y-107414D01*
X-184383Y-107415D01*
X-184383Y-107483D01*
X-184452Y-107483D01*
X-184452Y-107551D01*
X-184521Y-107550D01*
X-184521Y-107619D01*
X-184590Y-107618D01*
X-184590Y-107687D01*
X-184659Y-107686D01*
X-184660Y-107755D01*
X-184728Y-107754D01*
X-184729Y-107823D01*
X-184797Y-107822D01*
X-184866Y-107821D01*
X-184866Y-107890D01*
X-184935Y-107889D01*
X-184935Y-107958D01*
X-185004Y-107957D01*
X-185004Y-108026D01*
X-185073Y-108025D01*
X-185141Y-108024D01*
X-185143Y-108161D01*
X-185211Y-108161D01*
X-185280Y-108160D01*
X-185281Y-108297D01*
X-185349Y-108297D01*
X-185418Y-108296D01*
X-185418Y-108364D01*
X-185487Y-108364D01*
X-185487Y-108432D01*
X-185556Y-108432D01*
X-185557Y-108569D01*
X-185626Y-108568D01*
X-185694Y-108567D01*
X-185695Y-108704D01*
X-185764Y-108704D01*
X-185764Y-108772D01*
X-185833Y-108772D01*
X-185834Y-108909D01*
X-185902Y-108908D01*
X-185903Y-108976D01*
X-185971Y-108976D01*
X-185972Y-109044D01*
X-186040Y-109044D01*
X-186041Y-109112D01*
X-186110Y-109112D01*
X-186110Y-109180D01*
X-186179Y-109179D01*
X-186179Y-109248D01*
X-186248Y-109247D01*
X-186249Y-109453D01*
X-186318Y-109452D01*
X-186319Y-109521D01*
X-186387Y-109520D01*
X-186388Y-109589D01*
X-186456Y-109588D01*
X-186457Y-109657D01*
X-186525Y-109656D01*
X-186527Y-109861D01*
X-186596Y-109861D01*
X-186596Y-109929D01*
X-186665Y-109929D01*
X-186665Y-109997D01*
X-186734Y-109996D01*
X-186734Y-110065D01*
X-186803Y-110064D01*
X-186805Y-110270D01*
X-186873Y-110269D01*
X-186874Y-110338D01*
X-186942Y-110337D01*
X-186944Y-110543D01*
X-187012Y-110542D01*
X-187013Y-110610D01*
X-187082Y-110610D01*
X-187083Y-110815D01*
X-187152Y-110815D01*
X-187152Y-110883D01*
X-187221Y-110882D01*
X-187221Y-110951D01*
X-187153Y-110952D01*
X-187153Y-111020D01*
X-187222Y-111020D01*
X-187223Y-111088D01*
X-187291Y-111087D01*
X-187292Y-111156D01*
X-187360Y-111155D01*
X-187361Y-111224D01*
X-187292Y-111224D01*
X-187293Y-111293D01*
X-187361Y-111292D01*
X-187363Y-111498D01*
X-187432Y-111497D01*
X-187432Y-111565D01*
X-187501Y-111565D01*
X-187503Y-111770D01*
X-187571Y-111770D01*
X-187573Y-111975D01*
X-187641Y-111975D01*
X-187643Y-112180D01*
X-187712Y-112179D01*
X-187713Y-112385D01*
X-187782Y-112384D01*
X-187784Y-112590D01*
X-187852Y-112589D01*
X-187854Y-112795D01*
X-187922Y-112794D01*
X-187924Y-112999D01*
X-187993Y-112999D01*
X-187993Y-113067D01*
X-187925Y-113068D01*
X-187925Y-113136D01*
X-187994Y-113136D01*
X-187994Y-113204D01*
X-188063Y-113204D01*
X-188064Y-113272D01*
X-187995Y-113273D01*
X-187996Y-113341D01*
X-188064Y-113341D01*
X-188067Y-113683D01*
X-188136Y-113682D01*
X-188136Y-113751D01*
X-188068Y-113751D01*
X-188068Y-113820D01*
X-188137Y-113819D01*
X-188137Y-113888D01*
X-188206Y-113887D01*
X-188206Y-113956D01*
X-188138Y-113956D01*
X-188139Y-114025D01*
X-188207Y-114024D01*
X-188208Y-114093D01*
X-188139Y-114093D01*
X-188140Y-114162D01*
X-188208Y-114161D01*
X-188209Y-114230D01*
X-188140Y-114230D01*
X-188141Y-114299D01*
X-188209Y-114298D01*
X-188210Y-114367D01*
X-188142Y-114367D01*
X-188142Y-114436D01*
X-188211Y-114435D01*
X-188211Y-114504D01*
X-188143Y-114504D01*
X-188143Y-114573D01*
X-188212Y-114572D01*
X-188212Y-114640D01*
X-188144Y-114641D01*
X-188145Y-114710D01*
X-188213Y-114709D01*
X-188214Y-114778D01*
X-188145Y-114778D01*
X-188146Y-114847D01*
X-188077Y-114847D01*
X-188078Y-114916D01*
X-188146Y-114915D01*
X-188147Y-114983D01*
X-188078Y-114984D01*
X-188080Y-115190D01*
X-188012Y-115190D01*
X-188012Y-115259D01*
X-187944Y-115259D01*
X-187944Y-115328D01*
X-187876Y-115328D01*
X-187877Y-115397D01*
X-187808Y-115397D01*
X-187809Y-115466D01*
X-187877Y-115465D01*
X-187946Y-115465D01*
X-188014Y-115464D01*
X-188083Y-115463D01*
X-188151Y-115463D01*
X-188151Y-115394D01*
X-188219Y-115394D01*
X-188220Y-115462D01*
X-188288Y-115462D01*
X-188287Y-115393D01*
X-188356Y-115393D01*
X-188357Y-115461D01*
X-188425Y-115461D01*
X-188424Y-115392D01*
X-188493Y-115391D01*
X-188561Y-115391D01*
X-188630Y-115390D01*
X-188629Y-115322D01*
X-188698Y-115321D01*
X-188766Y-115321D01*
X-188835Y-115320D01*
X-188834Y-115252D01*
X-188903Y-115251D01*
X-188903Y-115319D01*
X-188972Y-115319D01*
X-188971Y-115250D01*
X-189040Y-115250D01*
X-189108Y-115249D01*
X-189107Y-115181D01*
X-189176Y-115180D01*
X-189244Y-115179D01*
X-189244Y-115111D01*
X-189312Y-115110D01*
X-189381Y-115110D01*
X-189449Y-115109D01*
X-189449Y-115041D01*
X-189517Y-115040D01*
X-189516Y-114972D01*
X-189585Y-114971D01*
X-189653Y-114970D01*
X-189652Y-114833D01*
X-189721Y-114833D01*
X-189789Y-114832D01*
X-189788Y-114695D01*
X-189857Y-114695D01*
X-189925Y-114694D01*
X-189924Y-114557D01*
X-189992Y-114557D01*
X-189992Y-114488D01*
X-190060Y-114487D01*
X-190057Y-114145D01*
X-190126Y-114144D01*
X-190125Y-114076D01*
X-190057Y-114077D01*
X-190056Y-114008D01*
X-190124Y-114007D01*
X-190124Y-113939D01*
X-190055Y-113940D01*
X-190052Y-113597D01*
X-189984Y-113598D01*
X-189983Y-113529D01*
X-190052Y-113529D01*
X-190051Y-113460D01*
X-189983Y-113461D01*
X-189981Y-113255D01*
X-189912Y-113256D01*
X-189911Y-113051D01*
X-189842Y-113051D01*
X-189842Y-112983D01*
X-189910Y-112982D01*
X-189909Y-112914D01*
X-189841Y-112914D01*
X-189840Y-112846D01*
X-189772Y-112846D01*
X-189771Y-112778D01*
X-189840Y-112777D01*
X-189839Y-112709D01*
X-189771Y-112709D01*
X-189769Y-112504D01*
X-189700Y-112504D01*
X-189700Y-112436D01*
X-189631Y-112437D01*
X-189630Y-112231D01*
X-189561Y-112232D01*
X-189559Y-112026D01*
X-189491Y-112027D01*
X-189490Y-111959D01*
X-189422Y-111959D01*
X-189420Y-111754D01*
X-189351Y-111754D01*
X-189350Y-111549D01*
X-189281Y-111549D01*
X-189281Y-111481D01*
X-189212Y-111481D01*
X-189211Y-111413D01*
X-189143Y-111414D01*
X-189141Y-111208D01*
X-189073Y-111209D01*
X-189072Y-111140D01*
X-189004Y-111141D01*
X-189003Y-111073D01*
X-188935Y-111073D01*
X-188933Y-110868D01*
X-188864Y-110868D01*
X-188864Y-110800D01*
X-188795Y-110800D01*
X-188795Y-110732D01*
X-188726Y-110732D01*
X-188726Y-110664D01*
X-188657Y-110665D01*
X-188655Y-110459D01*
X-188587Y-110460D01*
X-188586Y-110391D01*
X-188518Y-110392D01*
X-188517Y-110323D01*
X-188449Y-110324D01*
X-188448Y-110255D01*
X-188380Y-110256D01*
X-188379Y-110188D01*
X-188311Y-110188D01*
X-188310Y-110120D01*
X-188241Y-110120D01*
X-188240Y-109983D01*
X-188172Y-109984D01*
X-188103Y-109985D01*
X-188101Y-109779D01*
X-188033Y-109780D01*
X-187964Y-109780D01*
X-187963Y-109643D01*
X-187895Y-109644D01*
X-187826Y-109644D01*
X-187825Y-109508D01*
X-187757Y-109508D01*
X-187688Y-109509D01*
X-187687Y-109372D01*
X-187619Y-109372D01*
X-187550Y-109373D01*
X-187549Y-109236D01*
X-187480Y-109237D01*
X-187412Y-109237D01*
X-187411Y-109100D01*
X-187342Y-109101D01*
X-187343Y-109169D01*
X-187274Y-109170D01*
X-187273Y-109033D01*
X-187205Y-109034D01*
X-187136Y-109034D01*
X-187136Y-108966D01*
X-187067Y-108966D01*
X-187067Y-108898D01*
X-186998Y-108898D01*
X-186997Y-108830D01*
X-186929Y-108830D01*
X-186928Y-108762D01*
X-186860Y-108763D01*
X-186859Y-108694D01*
X-186791Y-108695D01*
X-186790Y-108626D01*
X-186722Y-108627D01*
X-186653Y-108627D01*
X-186585Y-108628D01*
X-186584Y-108560D01*
X-186516Y-108560D01*
X-186515Y-108492D01*
X-186447Y-108492D01*
X-186446Y-108424D01*
X-186378Y-108424D01*
X-186377Y-108356D01*
X-186309Y-108357D01*
X-186308Y-108288D01*
X-186239Y-108289D01*
X-186171Y-108289D01*
X-186170Y-108221D01*
X-186102Y-108221D01*
X-186033Y-108222D01*
X-186033Y-108153D01*
X-185964Y-108154D01*
X-185964Y-108086D01*
X-185895Y-108086D01*
X-185827Y-108087D01*
X-185758Y-108087D01*
X-185758Y-108019D01*
X-185689Y-108019D01*
X-185689Y-107951D01*
X-185620Y-107952D01*
X-185619Y-107883D01*
X-185551Y-107884D01*
X-185483Y-107884D01*
X-185414Y-107885D01*
X-185414Y-107817D01*
X-185345Y-107817D01*
X-185344Y-107749D01*
X-185276Y-107749D01*
X-185207Y-107750D01*
X-185139Y-107750D01*
X-185138Y-107682D01*
X-185070Y-107683D01*
X-185069Y-107614D01*
X-185001Y-107615D01*
X-184932Y-107615D01*
X-184864Y-107616D01*
X-184863Y-107547D01*
X-184795Y-107548D01*
X-184794Y-107480D01*
X-184726Y-107480D01*
X-184657Y-107481D01*
X-184589Y-107481D01*
X-184588Y-107413D01*
X-184520Y-107413D01*
X-184519Y-107345D01*
X-184451Y-107345D01*
D02*
G37*
G36*
X-184245Y-107279D02*
X-184176Y-107279D01*
X-184177Y-107416D01*
X-184246Y-107416D01*
X-184245Y-107347D01*
X-184314Y-107347D01*
X-184313Y-107278D01*
X-184245Y-107279D01*
D02*
G37*
G36*
X-181320Y-109564D02*
X-181320Y-109633D01*
X-181252Y-109633D01*
X-181251Y-109565D01*
X-181183Y-109566D01*
X-181183Y-109634D01*
X-181115Y-109635D01*
X-181114Y-109566D01*
X-181046Y-109567D01*
X-181046Y-109635D01*
X-180978Y-109636D01*
X-180977Y-109567D01*
X-180909Y-109568D01*
X-180909Y-109636D01*
X-180841Y-109637D01*
X-180772Y-109638D01*
X-180704Y-109638D01*
X-180635Y-109639D01*
X-180567Y-109639D01*
X-180499Y-109640D01*
X-180430Y-109641D01*
X-180361Y-109641D01*
X-180293Y-109642D01*
X-180294Y-109710D01*
X-180225Y-109711D01*
X-180157Y-109712D01*
X-180088Y-109712D01*
X-180020Y-109713D01*
X-179951Y-109713D01*
X-179883Y-109714D01*
X-179814Y-109714D01*
X-179815Y-109783D01*
X-179746Y-109783D01*
X-179746Y-109715D01*
X-179677Y-109716D01*
X-179678Y-109784D01*
X-179609Y-109785D01*
X-179609Y-109716D01*
X-179540Y-109717D01*
X-179541Y-109785D01*
X-179472Y-109786D01*
X-179404Y-109786D01*
X-179335Y-109787D01*
X-179267Y-109788D01*
X-179199Y-109788D01*
X-179199Y-109857D01*
X-179131Y-109857D01*
X-179062Y-109858D01*
X-178994Y-109859D01*
X-178925Y-109859D01*
X-178857Y-109860D01*
X-178857Y-109928D01*
X-178789Y-109929D01*
X-178788Y-109860D01*
X-178720Y-109861D01*
X-178720Y-109929D01*
X-178652Y-109930D01*
X-178584Y-109931D01*
X-178515Y-109931D01*
X-178516Y-110000D01*
X-178447Y-110000D01*
X-178379Y-110001D01*
X-178310Y-110002D01*
X-178311Y-110070D01*
X-178242Y-110071D01*
X-178242Y-110002D01*
X-178173Y-110003D01*
X-178174Y-110071D01*
X-178105Y-110072D01*
X-178037Y-110072D01*
X-177968Y-110073D01*
X-177969Y-110141D01*
X-177900Y-110142D01*
X-177832Y-110143D01*
X-177763Y-110143D01*
X-177764Y-110212D01*
X-177696Y-110212D01*
X-177695Y-110144D01*
X-177627Y-110144D01*
X-177627Y-110213D01*
X-177559Y-110213D01*
X-177559Y-110282D01*
X-177491Y-110283D01*
X-177422Y-110283D01*
X-177354Y-110284D01*
X-177354Y-110352D01*
X-177286Y-110353D01*
X-177217Y-110354D01*
X-177149Y-110354D01*
X-177150Y-110423D01*
X-177081Y-110423D01*
X-177082Y-110492D01*
X-177013Y-110492D01*
X-177013Y-110424D01*
X-176944Y-110424D01*
X-176945Y-110493D01*
X-176876Y-110493D01*
X-176877Y-110562D01*
X-176808Y-110563D01*
X-176809Y-110631D01*
X-176741Y-110632D01*
X-176740Y-110563D01*
X-176671Y-110564D01*
X-176672Y-110632D01*
X-176604Y-110633D01*
X-176604Y-110701D01*
X-176536Y-110702D01*
X-176467Y-110702D01*
X-176399Y-110703D01*
X-176399Y-110772D01*
X-176331Y-110772D01*
X-176331Y-110841D01*
X-176263Y-110841D01*
X-176263Y-110910D01*
X-176195Y-110910D01*
X-176127Y-110911D01*
X-176127Y-110979D01*
X-176059Y-110980D01*
X-175990Y-110980D01*
X-175991Y-111049D01*
X-175922Y-111050D01*
X-175923Y-111118D01*
X-175854Y-111119D01*
X-175855Y-111187D01*
X-175787Y-111188D01*
X-175718Y-111188D01*
X-175719Y-111325D01*
X-175651Y-111326D01*
X-175582Y-111327D01*
X-175583Y-111395D01*
X-175514Y-111396D01*
X-175446Y-111396D01*
X-175447Y-111533D01*
X-175379Y-111534D01*
X-175310Y-111534D01*
X-175311Y-111671D01*
X-175243Y-111672D01*
X-175174Y-111672D01*
X-175176Y-111878D01*
X-175108Y-111879D01*
X-175108Y-111947D01*
X-175040Y-111948D01*
X-175040Y-112016D01*
X-174972Y-112017D01*
X-174973Y-112085D01*
X-174904Y-112086D01*
X-174906Y-112291D01*
X-174837Y-112292D01*
X-174838Y-112360D01*
X-174769Y-112361D01*
X-174771Y-112566D01*
X-174703Y-112567D01*
X-174703Y-112635D01*
X-174635Y-112636D01*
X-174638Y-112978D01*
X-174569Y-112979D01*
X-174571Y-113184D01*
X-174503Y-113185D01*
X-174503Y-113253D01*
X-174572Y-113253D01*
X-174573Y-113321D01*
X-174504Y-113322D01*
X-174509Y-113938D01*
X-174441Y-113939D01*
X-174442Y-114007D01*
X-174510Y-114007D01*
X-174511Y-114075D01*
X-174442Y-114076D01*
X-174443Y-114144D01*
X-174511Y-114144D01*
X-174512Y-114212D01*
X-174443Y-114213D01*
X-174444Y-114281D01*
X-174512Y-114281D01*
X-174520Y-115171D01*
X-174589Y-115170D01*
X-174589Y-115239D01*
X-174521Y-115239D01*
X-174521Y-115308D01*
X-174590Y-115307D01*
X-174592Y-115513D01*
X-174660Y-115512D01*
X-174661Y-115581D01*
X-174592Y-115581D01*
X-174593Y-115650D01*
X-174661Y-115649D01*
X-174663Y-115855D01*
X-174732Y-115854D01*
X-174732Y-115922D01*
X-174664Y-115923D01*
X-174664Y-115991D01*
X-174733Y-115991D01*
X-174733Y-116059D01*
X-174802Y-116059D01*
X-174802Y-116127D01*
X-174734Y-116128D01*
X-174734Y-116196D01*
X-174803Y-116196D01*
X-174805Y-116401D01*
X-174873Y-116401D01*
X-174875Y-116606D01*
X-174943Y-116605D01*
X-174945Y-116811D01*
X-175014Y-116810D01*
X-175016Y-117016D01*
X-175084Y-117015D01*
X-175086Y-117220D01*
X-175154Y-117220D01*
X-175155Y-117288D01*
X-175223Y-117288D01*
X-175225Y-117493D01*
X-175294Y-117493D01*
X-175294Y-117561D01*
X-175363Y-117561D01*
X-175365Y-117766D01*
X-175433Y-117765D01*
X-175434Y-117834D01*
X-175502Y-117833D01*
X-175504Y-118039D01*
X-175572Y-118038D01*
X-175573Y-118107D01*
X-175642Y-118106D01*
X-175643Y-118311D01*
X-175712Y-118311D01*
X-175712Y-118379D01*
X-175781Y-118379D01*
X-175781Y-118447D01*
X-175850Y-118447D01*
X-175850Y-118515D01*
X-175919Y-118515D01*
X-175920Y-118651D01*
X-175989Y-118651D01*
X-175990Y-118788D01*
X-176058Y-118787D01*
X-176059Y-118856D01*
X-176127Y-118855D01*
X-176128Y-118924D01*
X-176197Y-118923D01*
X-176197Y-118991D01*
X-176266Y-118991D01*
X-176266Y-119059D01*
X-176335Y-119059D01*
X-176336Y-119264D01*
X-176405Y-119264D01*
X-176404Y-119195D01*
X-176473Y-119194D01*
X-176475Y-119400D01*
X-176543Y-119399D01*
X-176544Y-119468D01*
X-176612Y-119467D01*
X-176613Y-119536D01*
X-176681Y-119535D01*
X-176682Y-119604D01*
X-176750Y-119603D01*
X-176751Y-119671D01*
X-176819Y-119671D01*
X-176820Y-119739D01*
X-176889Y-119739D01*
X-176889Y-119807D01*
X-176957Y-119807D01*
X-176958Y-119875D01*
X-177027Y-119875D01*
X-177027Y-119943D01*
X-177096Y-119942D01*
X-177096Y-120011D01*
X-177165Y-120010D01*
X-177165Y-120079D01*
X-177234Y-120078D01*
X-177234Y-120147D01*
X-177303Y-120146D01*
X-177304Y-120214D01*
X-177372Y-120214D01*
X-177373Y-120282D01*
X-177441Y-120282D01*
X-177442Y-120350D01*
X-177510Y-120350D01*
X-177509Y-120281D01*
X-177578Y-120281D01*
X-177579Y-120417D01*
X-177648Y-120417D01*
X-177716Y-120416D01*
X-177717Y-120485D01*
X-177785Y-120484D01*
X-177786Y-120553D01*
X-177854Y-120552D01*
X-177855Y-120621D01*
X-177923Y-120620D01*
X-177924Y-120688D01*
X-177992Y-120688D01*
X-177993Y-120756D01*
X-178062Y-120756D01*
X-178062Y-120824D01*
X-178131Y-120824D01*
X-178199Y-120823D01*
X-178268Y-120823D01*
X-178268Y-120891D01*
X-178337Y-120890D01*
X-178337Y-120959D01*
X-178406Y-120958D01*
X-178406Y-121027D01*
X-178475Y-121026D01*
X-178543Y-121026D01*
X-178544Y-121094D01*
X-178612Y-121093D01*
X-178681Y-121093D01*
X-178681Y-121161D01*
X-178750Y-121161D01*
X-178751Y-121229D01*
X-178819Y-121229D01*
X-178820Y-121297D01*
X-178888Y-121296D01*
X-178887Y-121228D01*
X-178956Y-121227D01*
X-178957Y-121296D01*
X-179025Y-121295D01*
X-179026Y-121364D01*
X-179094Y-121363D01*
X-179095Y-121432D01*
X-179163Y-121431D01*
X-179163Y-121362D01*
X-179231Y-121362D01*
X-179232Y-121430D01*
X-179300Y-121430D01*
X-179301Y-121498D01*
X-179369Y-121498D01*
X-179370Y-121566D01*
X-179438Y-121566D01*
X-179507Y-121565D01*
X-179575Y-121564D01*
X-179576Y-121633D01*
X-179644Y-121632D01*
X-179645Y-121701D01*
X-179713Y-121700D01*
X-179713Y-121632D01*
X-179781Y-121631D01*
X-179782Y-121700D01*
X-179850Y-121699D01*
X-179851Y-121767D01*
X-179920Y-121767D01*
X-179988Y-121766D01*
X-180056Y-121766D01*
X-180057Y-121834D01*
X-180125Y-121834D01*
X-180194Y-121833D01*
X-180262Y-121832D01*
X-180263Y-121901D01*
X-180332Y-121900D01*
X-180332Y-121969D01*
X-180401Y-121968D01*
X-180400Y-121900D01*
X-180468Y-121899D01*
X-180469Y-121967D01*
X-180538Y-121967D01*
X-180606Y-121966D01*
X-180675Y-121966D01*
X-180675Y-122034D01*
X-180744Y-122034D01*
X-180744Y-122102D01*
X-180813Y-122101D01*
X-180812Y-122033D01*
X-180881Y-122032D01*
X-180881Y-122101D01*
X-180950Y-122100D01*
X-181018Y-122100D01*
X-181087Y-122099D01*
X-181087Y-122168D01*
X-181156Y-122167D01*
X-181224Y-122166D01*
X-181293Y-122166D01*
X-181293Y-122234D01*
X-181362Y-122234D01*
X-181361Y-122165D01*
X-181430Y-122165D01*
X-181430Y-122233D01*
X-181499Y-122232D01*
X-181567Y-122232D01*
X-181636Y-122231D01*
X-181636Y-122300D01*
X-181705Y-122299D01*
X-181773Y-122299D01*
X-181842Y-122298D01*
X-181842Y-122366D01*
X-181911Y-122366D01*
X-181910Y-122297D01*
X-181979Y-122297D01*
X-181979Y-122365D01*
X-182048Y-122365D01*
X-182047Y-122296D01*
X-182116Y-122296D01*
X-182116Y-122364D01*
X-182185Y-122363D01*
X-182253Y-122363D01*
X-182322Y-122362D01*
X-182322Y-122431D01*
X-182391Y-122430D01*
X-182390Y-122362D01*
X-182459Y-122361D01*
X-182459Y-122430D01*
X-182528Y-122429D01*
X-182596Y-122428D01*
X-182665Y-122428D01*
X-182733Y-122427D01*
X-182802Y-122426D01*
X-182802Y-122495D01*
X-182871Y-122494D01*
X-182870Y-122426D01*
X-182939Y-122425D01*
X-182939Y-122494D01*
X-183008Y-122493D01*
X-183007Y-122425D01*
X-183075Y-122424D01*
X-183076Y-122493D01*
X-183145Y-122492D01*
X-183144Y-122424D01*
X-183212Y-122423D01*
X-183213Y-122491D01*
X-183282Y-122491D01*
X-183281Y-122422D01*
X-183349Y-122422D01*
X-183350Y-122490D01*
X-183419Y-122490D01*
X-183487Y-122489D01*
X-183555Y-122488D01*
X-183624Y-122488D01*
X-183692Y-122487D01*
X-183761Y-122487D01*
X-183829Y-122486D01*
X-183829Y-122418D01*
X-183760Y-122418D01*
X-183760Y-122350D01*
X-183691Y-122350D01*
X-183691Y-122282D01*
X-183622Y-122282D01*
X-183554Y-122283D01*
X-183553Y-122214D01*
X-183485Y-122215D01*
X-183416Y-122216D01*
X-183415Y-122147D01*
X-183347Y-122148D01*
X-183346Y-122079D01*
X-183278Y-122080D01*
X-183277Y-122011D01*
X-183209Y-122012D01*
X-183208Y-121944D01*
X-183140Y-121944D01*
X-183139Y-121876D01*
X-183071Y-121876D01*
X-183070Y-121808D01*
X-183002Y-121808D01*
X-183001Y-121740D01*
X-182932Y-121740D01*
X-182932Y-121672D01*
X-182863Y-121673D01*
X-182862Y-121467D01*
X-182793Y-121468D01*
X-182725Y-121468D01*
X-182724Y-121331D01*
X-182655Y-121332D01*
X-182655Y-121264D01*
X-182586Y-121264D01*
X-182585Y-121127D01*
X-182516Y-121128D01*
X-182515Y-120991D01*
X-182447Y-120992D01*
X-182446Y-120923D01*
X-182378Y-120923D01*
X-182376Y-120787D01*
X-182308Y-120787D01*
X-182307Y-120650D01*
X-182238Y-120651D01*
X-182238Y-120582D01*
X-182169Y-120583D01*
X-182167Y-120378D01*
X-182099Y-120378D01*
X-182098Y-120310D01*
X-182030Y-120310D01*
X-182028Y-120105D01*
X-181959Y-120105D01*
X-181958Y-119900D01*
X-181889Y-119901D01*
X-181887Y-119695D01*
X-181819Y-119696D01*
X-181818Y-119627D01*
X-181750Y-119628D01*
X-181749Y-119559D01*
X-181818Y-119559D01*
X-181817Y-119490D01*
X-181749Y-119491D01*
X-181747Y-119285D01*
X-181678Y-119286D01*
X-181678Y-119218D01*
X-181609Y-119218D01*
X-181606Y-118876D01*
X-181538Y-118876D01*
X-181537Y-118808D01*
X-181469Y-118808D01*
X-181468Y-118740D01*
X-181537Y-118739D01*
X-181536Y-118671D01*
X-181468Y-118672D01*
X-181466Y-118466D01*
X-181397Y-118467D01*
X-181395Y-118261D01*
X-181327Y-118262D01*
X-181324Y-117919D01*
X-181256Y-117920D01*
X-181254Y-117715D01*
X-181185Y-117715D01*
X-181182Y-117373D01*
X-181114Y-117373D01*
X-181112Y-117168D01*
X-181044Y-117168D01*
X-181043Y-117100D01*
X-181112Y-117099D01*
X-181111Y-117031D01*
X-181042Y-117032D01*
X-181039Y-116689D01*
X-180971Y-116690D01*
X-180970Y-116621D01*
X-181039Y-116621D01*
X-181038Y-116552D01*
X-180970Y-116553D01*
X-180968Y-116347D01*
X-180900Y-116348D01*
X-180899Y-116279D01*
X-180967Y-116279D01*
X-180967Y-116210D01*
X-180898Y-116211D01*
X-180896Y-116006D01*
X-180828Y-116006D01*
X-180827Y-115938D01*
X-180896Y-115937D01*
X-180895Y-115869D01*
X-180827Y-115869D01*
X-180826Y-115801D01*
X-180895Y-115800D01*
X-180894Y-115732D01*
X-180826Y-115732D01*
X-180825Y-115664D01*
X-180756Y-115664D01*
X-180756Y-115596D01*
X-180824Y-115595D01*
X-180824Y-115527D01*
X-180755Y-115527D01*
X-180750Y-114911D01*
X-180681Y-114912D01*
X-180681Y-114843D01*
X-180749Y-114843D01*
X-180749Y-114774D01*
X-180680Y-114775D01*
X-180678Y-114569D01*
X-180610Y-114570D01*
X-180609Y-114501D01*
X-180678Y-114501D01*
X-180677Y-114432D01*
X-180609Y-114433D01*
X-180608Y-114365D01*
X-180677Y-114364D01*
X-180676Y-114295D01*
X-180608Y-114296D01*
X-180605Y-113954D01*
X-180536Y-113954D01*
X-180535Y-113886D01*
X-180604Y-113885D01*
X-180603Y-113817D01*
X-180535Y-113817D01*
X-180533Y-113612D01*
X-180465Y-113612D01*
X-180464Y-113544D01*
X-180533Y-113543D01*
X-180532Y-113475D01*
X-180464Y-113475D01*
X-180463Y-113407D01*
X-180531Y-113406D01*
X-180531Y-113338D01*
X-180462Y-113338D01*
X-180458Y-112859D01*
X-180390Y-112860D01*
X-180389Y-112791D01*
X-180457Y-112791D01*
X-180457Y-112722D01*
X-180388Y-112723D01*
X-180387Y-112517D01*
X-180318Y-112518D01*
X-180317Y-112450D01*
X-180386Y-112449D01*
X-180385Y-112380D01*
X-180317Y-112381D01*
X-180316Y-112312D01*
X-180385Y-112312D01*
X-180384Y-112243D01*
X-180316Y-112244D01*
X-180315Y-112176D01*
X-180384Y-112175D01*
X-180383Y-112106D01*
X-180315Y-112107D01*
X-180313Y-111902D01*
X-180381Y-111901D01*
X-180381Y-111832D01*
X-180312Y-111833D01*
X-180308Y-111354D01*
X-180377Y-111353D01*
X-180376Y-111285D01*
X-180307Y-111285D01*
X-180307Y-111217D01*
X-180375Y-111216D01*
X-180375Y-111148D01*
X-180306Y-111148D01*
X-180306Y-111080D01*
X-180374Y-111079D01*
X-180372Y-110874D01*
X-180441Y-110873D01*
X-180438Y-110531D01*
X-180506Y-110530D01*
X-180506Y-110462D01*
X-180574Y-110461D01*
X-180572Y-110256D01*
X-180641Y-110255D01*
X-180640Y-110187D01*
X-180709Y-110186D01*
X-180708Y-110049D01*
X-180776Y-110048D01*
X-180844Y-110048D01*
X-180843Y-109911D01*
X-180912Y-109910D01*
X-180980Y-109910D01*
X-180980Y-109841D01*
X-181048Y-109841D01*
X-181047Y-109772D01*
X-181116Y-109772D01*
X-181115Y-109703D01*
X-181184Y-109703D01*
X-181252Y-109702D01*
X-181321Y-109701D01*
X-181320Y-109633D01*
X-181389Y-109632D01*
X-181388Y-109564D01*
X-181320Y-109564D01*
D02*
G37*
G36*
X-190271Y-115102D02*
X-190273Y-115307D01*
X-190204Y-115308D01*
X-190205Y-115376D01*
X-190273Y-115376D01*
X-190274Y-115444D01*
X-190206Y-115445D01*
X-190206Y-115513D01*
X-190138Y-115514D01*
X-190138Y-115583D01*
X-190070Y-115583D01*
X-190070Y-115652D01*
X-190002Y-115652D01*
X-190003Y-115789D01*
X-189935Y-115790D01*
X-189866Y-115790D01*
X-189867Y-115859D01*
X-189798Y-115859D01*
X-189799Y-115928D01*
X-189730Y-115928D01*
X-189731Y-115997D01*
X-189662Y-115998D01*
X-189663Y-116066D01*
X-189595Y-116067D01*
X-189595Y-116135D01*
X-189527Y-116136D01*
X-189526Y-116067D01*
X-189458Y-116068D01*
X-189458Y-116136D01*
X-189390Y-116137D01*
X-189390Y-116205D01*
X-189322Y-116206D01*
X-189322Y-116274D01*
X-189254Y-116275D01*
X-189186Y-116276D01*
X-189117Y-116276D01*
X-189118Y-116345D01*
X-189049Y-116345D01*
X-188981Y-116346D01*
X-188912Y-116347D01*
X-188913Y-116415D01*
X-188844Y-116416D01*
X-188844Y-116347D01*
X-188775Y-116348D01*
X-188776Y-116416D01*
X-188707Y-116417D01*
X-188639Y-116417D01*
X-188570Y-116418D01*
X-188571Y-116487D01*
X-188502Y-116487D01*
X-188434Y-116488D01*
X-188365Y-116488D01*
X-188366Y-116557D01*
X-188298Y-116557D01*
X-188297Y-116489D01*
X-188228Y-116490D01*
X-188229Y-116558D01*
X-188161Y-116559D01*
X-188160Y-116490D01*
X-188092Y-116491D01*
X-188092Y-116559D01*
X-188024Y-116560D01*
X-187955Y-116560D01*
X-187887Y-116561D01*
X-187818Y-116561D01*
X-187750Y-116562D01*
X-187681Y-116563D01*
X-187613Y-116563D01*
X-187613Y-116632D01*
X-187545Y-116632D01*
X-187544Y-116564D01*
X-187476Y-116565D01*
X-187477Y-116633D01*
X-187408Y-116634D01*
X-187407Y-116565D01*
X-187339Y-116566D01*
X-187339Y-116634D01*
X-187271Y-116635D01*
X-187270Y-116566D01*
X-187202Y-116567D01*
X-187203Y-116635D01*
X-187134Y-116636D01*
X-187134Y-116568D01*
X-187065Y-116568D01*
X-187066Y-116637D01*
X-186997Y-116637D01*
X-186996Y-116569D01*
X-186928Y-116569D01*
X-186929Y-116638D01*
X-186860Y-116638D01*
X-186860Y-116570D01*
X-186791Y-116570D01*
X-186792Y-116639D01*
X-186723Y-116640D01*
X-186723Y-116571D01*
X-186654Y-116572D01*
X-186586Y-116572D01*
X-186517Y-116573D01*
X-186449Y-116574D01*
X-186380Y-116574D01*
X-186312Y-116575D01*
X-186243Y-116575D01*
X-186175Y-116576D01*
X-186106Y-116577D01*
X-186106Y-116508D01*
X-186037Y-116509D01*
X-186038Y-116577D01*
X-185969Y-116578D01*
X-185969Y-116509D01*
X-185900Y-116510D01*
X-185901Y-116578D01*
X-185832Y-116579D01*
X-185832Y-116510D01*
X-185763Y-116511D01*
X-185764Y-116579D01*
X-185695Y-116580D01*
X-185695Y-116512D01*
X-185626Y-116512D01*
X-185558Y-116513D01*
X-185489Y-116513D01*
X-185421Y-116514D01*
X-185352Y-116515D01*
X-185352Y-116446D01*
X-185283Y-116447D01*
X-185284Y-116515D01*
X-185215Y-116516D01*
X-185215Y-116447D01*
X-185146Y-116448D01*
X-185078Y-116448D01*
X-185009Y-116449D01*
X-184941Y-116450D01*
X-184872Y-116450D01*
X-184872Y-116382D01*
X-184803Y-116382D01*
X-184804Y-116451D01*
X-184736Y-116452D01*
X-184735Y-116383D01*
X-184666Y-116384D01*
X-184598Y-116384D01*
X-184529Y-116385D01*
X-184461Y-116385D01*
X-184392Y-116386D01*
X-184392Y-116317D01*
X-184323Y-116318D01*
X-184255Y-116319D01*
X-184186Y-116319D01*
X-184186Y-116251D01*
X-184117Y-116251D01*
X-184118Y-116320D01*
X-184049Y-116321D01*
X-184049Y-116252D01*
X-183980Y-116253D01*
X-183981Y-116321D01*
X-183913Y-116322D01*
X-183912Y-116253D01*
X-183844Y-116254D01*
X-183775Y-116254D01*
X-183706Y-116255D01*
X-183706Y-116186D01*
X-183637Y-116187D01*
X-183569Y-116188D01*
X-183501Y-116188D01*
X-183500Y-116120D01*
X-183431Y-116120D01*
X-183432Y-116189D01*
X-183363Y-116190D01*
X-183363Y-116121D01*
X-183294Y-116122D01*
X-183295Y-116190D01*
X-183227Y-116191D01*
X-183226Y-116122D01*
X-183158Y-116123D01*
X-183089Y-116123D01*
X-183020Y-116124D01*
X-183020Y-116056D01*
X-182951Y-116056D01*
X-182883Y-116057D01*
X-182815Y-116057D01*
X-182814Y-115989D01*
X-182745Y-115989D01*
X-182746Y-116058D01*
X-182677Y-116059D01*
X-182677Y-115990D01*
X-182608Y-115991D01*
X-182540Y-115991D01*
X-182472Y-115992D01*
X-182472Y-116060D01*
X-182541Y-116060D01*
X-182541Y-116128D01*
X-182473Y-116129D01*
X-182473Y-116197D01*
X-182542Y-116197D01*
X-182544Y-116402D01*
X-182612Y-116402D01*
X-182613Y-116470D01*
X-182544Y-116471D01*
X-182545Y-116539D01*
X-182613Y-116539D01*
X-182616Y-116881D01*
X-182685Y-116880D01*
X-182685Y-116949D01*
X-182617Y-116949D01*
X-182617Y-117018D01*
X-182686Y-117017D01*
X-182686Y-117086D01*
X-182755Y-117085D01*
X-182755Y-117154D01*
X-182687Y-117154D01*
X-182688Y-117223D01*
X-182756Y-117222D01*
X-182759Y-117564D01*
X-182828Y-117564D01*
X-182829Y-117769D01*
X-182898Y-117769D01*
X-182901Y-118111D01*
X-182969Y-118111D01*
X-182971Y-118316D01*
X-183040Y-118315D01*
X-183043Y-118658D01*
X-183111Y-118657D01*
X-183112Y-118726D01*
X-183180Y-118725D01*
X-183181Y-118793D01*
X-183112Y-118794D01*
X-183113Y-118863D01*
X-183181Y-118862D01*
X-183183Y-119067D01*
X-183252Y-119067D01*
X-183252Y-119135D01*
X-183321Y-119135D01*
X-183321Y-119203D01*
X-183253Y-119204D01*
X-183254Y-119272D01*
X-183322Y-119272D01*
X-183324Y-119477D01*
X-183392Y-119476D01*
X-183394Y-119682D01*
X-183463Y-119681D01*
X-183464Y-119887D01*
X-183533Y-119886D01*
X-183533Y-119955D01*
X-183602Y-119954D01*
X-183602Y-120023D01*
X-183534Y-120023D01*
X-183535Y-120092D01*
X-183603Y-120091D01*
X-183605Y-120297D01*
X-183673Y-120296D01*
X-183674Y-120364D01*
X-183742Y-120364D01*
X-183744Y-120569D01*
X-183813Y-120569D01*
X-183813Y-120637D01*
X-183882Y-120636D01*
X-183884Y-120842D01*
X-183952Y-120841D01*
X-183953Y-120910D01*
X-184021Y-120909D01*
X-184023Y-121115D01*
X-184091Y-121114D01*
X-184092Y-121183D01*
X-184160Y-121182D01*
X-184161Y-121250D01*
X-184230Y-121250D01*
X-184230Y-121318D01*
X-184299Y-121318D01*
X-184300Y-121523D01*
X-184369Y-121522D01*
X-184369Y-121591D01*
X-184438Y-121590D01*
X-184439Y-121659D01*
X-184507Y-121658D01*
X-184508Y-121727D01*
X-184576Y-121726D01*
X-184577Y-121795D01*
X-184645Y-121794D01*
X-184646Y-121862D01*
X-184714Y-121862D01*
X-184715Y-121930D01*
X-184783Y-121930D01*
X-184784Y-121998D01*
X-184852Y-121998D01*
X-184921Y-121997D01*
X-184989Y-121996D01*
X-184990Y-122065D01*
X-185058Y-122064D01*
X-185059Y-122133D01*
X-185127Y-122132D01*
X-185196Y-122132D01*
X-185264Y-122131D01*
X-185265Y-122200D01*
X-185334Y-122199D01*
X-185333Y-122131D01*
X-185401Y-122130D01*
X-185402Y-122198D01*
X-185470Y-122198D01*
X-185470Y-122129D01*
X-185538Y-122129D01*
X-185539Y-122197D01*
X-185607Y-122197D01*
X-185676Y-122196D01*
X-185744Y-122195D01*
X-185744Y-122127D01*
X-185812Y-122126D01*
X-185813Y-122195D01*
X-185881Y-122194D01*
X-185881Y-122126D01*
X-185949Y-122125D01*
X-186018Y-122125D01*
X-186086Y-122124D01*
X-186086Y-122055D01*
X-186154Y-122055D01*
X-186153Y-121986D01*
X-186222Y-121986D01*
X-186223Y-122054D01*
X-186291Y-122054D01*
X-186291Y-121985D01*
X-186359Y-121985D01*
X-186427Y-121984D01*
X-186496Y-121983D01*
X-186495Y-121915D01*
X-186564Y-121914D01*
X-186563Y-121846D01*
X-186632Y-121845D01*
X-186632Y-121914D01*
X-186701Y-121913D01*
X-186700Y-121845D01*
X-186769Y-121844D01*
X-186837Y-121843D01*
X-186837Y-121775D01*
X-186905Y-121774D01*
X-186974Y-121774D01*
X-186973Y-121705D01*
X-187041Y-121705D01*
X-187110Y-121704D01*
X-187178Y-121703D01*
X-187178Y-121635D01*
X-187246Y-121634D01*
X-187246Y-121566D01*
X-187314Y-121565D01*
X-187315Y-121634D01*
X-187383Y-121633D01*
X-187382Y-121565D01*
X-187451Y-121564D01*
X-187450Y-121496D01*
X-187519Y-121495D01*
X-187518Y-121427D01*
X-187587Y-121426D01*
X-187655Y-121425D01*
X-187655Y-121357D01*
X-187723Y-121356D01*
X-187792Y-121356D01*
X-187791Y-121287D01*
X-187859Y-121287D01*
X-187859Y-121218D01*
X-187927Y-121218D01*
X-187927Y-121149D01*
X-187995Y-121149D01*
X-188064Y-121148D01*
X-188063Y-121079D01*
X-188132Y-121079D01*
X-188200Y-121078D01*
X-188199Y-121010D01*
X-188268Y-121009D01*
X-188267Y-120941D01*
X-188336Y-120940D01*
X-188335Y-120872D01*
X-188404Y-120871D01*
X-188403Y-120802D01*
X-188472Y-120802D01*
X-188471Y-120733D01*
X-188540Y-120733D01*
X-188539Y-120664D01*
X-188607Y-120664D01*
X-188607Y-120595D01*
X-188675Y-120595D01*
X-188675Y-120526D01*
X-188743Y-120526D01*
X-188742Y-120457D01*
X-188811Y-120457D01*
X-188810Y-120388D01*
X-188879Y-120387D01*
X-188878Y-120319D01*
X-188947Y-120318D01*
X-188946Y-120250D01*
X-189015Y-120249D01*
X-189014Y-120181D01*
X-189083Y-120180D01*
X-189082Y-120112D01*
X-189151Y-120111D01*
X-189150Y-120043D01*
X-189218Y-120042D01*
X-189218Y-119974D01*
X-189286Y-119973D01*
X-189284Y-119767D01*
X-189353Y-119767D01*
X-189352Y-119699D01*
X-189421Y-119698D01*
X-189419Y-119492D01*
X-189488Y-119492D01*
X-189487Y-119423D01*
X-189555Y-119423D01*
X-189555Y-119354D01*
X-189623Y-119354D01*
X-189621Y-119148D01*
X-189690Y-119148D01*
X-189689Y-119079D01*
X-189758Y-119079D01*
X-189756Y-118873D01*
X-189824Y-118872D01*
X-189823Y-118667D01*
X-189891Y-118667D01*
X-189891Y-118598D01*
X-189959Y-118597D01*
X-189959Y-118529D01*
X-189890Y-118529D01*
X-189889Y-118461D01*
X-189958Y-118460D01*
X-189956Y-118255D01*
X-190024Y-118254D01*
X-190024Y-118186D01*
X-190092Y-118185D01*
X-190092Y-118117D01*
X-190023Y-118117D01*
X-190023Y-118049D01*
X-190091Y-118048D01*
X-190089Y-117843D01*
X-190158Y-117842D01*
X-190157Y-117774D01*
X-190089Y-117774D01*
X-190088Y-117706D01*
X-190157Y-117705D01*
X-190156Y-117637D01*
X-190225Y-117636D01*
X-190224Y-117568D01*
X-190155Y-117568D01*
X-190155Y-117500D01*
X-190223Y-117499D01*
X-190219Y-117020D01*
X-190288Y-117019D01*
X-190287Y-116951D01*
X-190219Y-116952D01*
X-190218Y-116883D01*
X-190287Y-116882D01*
X-190285Y-116677D01*
X-190353Y-116676D01*
X-190353Y-116608D01*
X-190284Y-116609D01*
X-190284Y-116540D01*
X-190352Y-116539D01*
X-190351Y-116471D01*
X-190283Y-116472D01*
X-190282Y-116403D01*
X-190351Y-116402D01*
X-190350Y-116334D01*
X-190282Y-116335D01*
X-190281Y-116266D01*
X-190350Y-116265D01*
X-190340Y-115101D01*
X-190271Y-115102D01*
D02*
G37*
G36*
X188820Y-106186D02*
X188677Y-106287D01*
X188677Y-106288D01*
X188525Y-106351D01*
X187959Y-106448D01*
X187113Y-106576D01*
X185685Y-106772D01*
X184590Y-106922D01*
X183661Y-107053D01*
X182833Y-107174D01*
X182795Y-107191D01*
X182791Y-107202D01*
X182800Y-107209D01*
X183621Y-107333D01*
X184552Y-107468D01*
X185666Y-107623D01*
X187735Y-107909D01*
X188426Y-108039D01*
X188740Y-108173D01*
X188848Y-108372D01*
X188833Y-108502D01*
X188789Y-108617D01*
X188722Y-108705D01*
X188636Y-108760D01*
X188506Y-108794D01*
X185725Y-109184D01*
X183038Y-109560D01*
X182694Y-109593D01*
X182682Y-109605D01*
X182692Y-109618D01*
X183034Y-109677D01*
X183779Y-109784D01*
X185486Y-110017D01*
X186559Y-110163D01*
X187494Y-110291D01*
X188298Y-110402D01*
X188442Y-110425D01*
X188610Y-110478D01*
X188739Y-110570D01*
X188819Y-110693D01*
X188848Y-110839D01*
X188740Y-111051D01*
X188442Y-111191D01*
X187770Y-111320D01*
X185667Y-111611D01*
X184552Y-111766D01*
X183621Y-111902D01*
X182799Y-112026D01*
X182791Y-112033D01*
X182794Y-112044D01*
X182833Y-112062D01*
X183661Y-112182D01*
X184590Y-112314D01*
X185685Y-112463D01*
X187124Y-112660D01*
X187966Y-112786D01*
X188524Y-112882D01*
X188677Y-112947D01*
X188678Y-112947D01*
X188820Y-113049D01*
X188848Y-126684D01*
X188355D01*
X188317Y-123992D01*
X188316D01*
X188301Y-122689D01*
X188289Y-120956D01*
X188281Y-119114D01*
X188278Y-117439D01*
X188275Y-115804D01*
X188263Y-114596D01*
X188249Y-113603D01*
X188223Y-113578D01*
X187914Y-113557D01*
X183771Y-112996D01*
X179557Y-112425D01*
X179404Y-112383D01*
X179312Y-112312D01*
X179249Y-112195D01*
X179224Y-112050D01*
X179241Y-111895D01*
X179264Y-111836D01*
X179304Y-111777D01*
X179353Y-111727D01*
X179404Y-111695D01*
X179506Y-111666D01*
X180354Y-111539D01*
X181329Y-111398D01*
X182461Y-111241D01*
X183586Y-111087D01*
X184535Y-110955D01*
X185392Y-110835D01*
X185407Y-110827D01*
X185407Y-110822D01*
X185404Y-110820D01*
X184538Y-110697D01*
X183576Y-110562D01*
X182429Y-110405D01*
X180258Y-110104D01*
X179606Y-109979D01*
X179322Y-109837D01*
X179218Y-109618D01*
X179323Y-109397D01*
X179608Y-109254D01*
X180264Y-109127D01*
X182448Y-108820D01*
X183599Y-108660D01*
X184562Y-108524D01*
X185419Y-108403D01*
X185421Y-108401D01*
X185419Y-108398D01*
X184739Y-108302D01*
X182281Y-107967D01*
X179576Y-107599D01*
X179510Y-107595D01*
X179415Y-107561D01*
X179317Y-107459D01*
X179243Y-107325D01*
X179218Y-107196D01*
X179226Y-107122D01*
X179251Y-107042D01*
X179288Y-106967D01*
X179332Y-106911D01*
X179380Y-106868D01*
X179432Y-106831D01*
X179480Y-106805D01*
X179514Y-106797D01*
X179569Y-106793D01*
X180823Y-106630D01*
X182223Y-106446D01*
X183873Y-106227D01*
X185522Y-106009D01*
X186920Y-105825D01*
X188174Y-105660D01*
X188221Y-105658D01*
X188249Y-105629D01*
X188263Y-103879D01*
X188275Y-101701D01*
X188278Y-98572D01*
X188280Y-95658D01*
X188289Y-92762D01*
X188301Y-90245D01*
X188316Y-88743D01*
X188317Y-88743D01*
X188355Y-85998D01*
X188848D01*
X188820Y-106186D01*
D02*
G37*
G36*
X188814Y-127955D02*
X188833Y-129008D01*
X188846Y-130848D01*
X188848Y-136432D01*
X188848Y-144984D01*
X188720Y-144944D01*
X188719D01*
X188498Y-144857D01*
X187931Y-144576D01*
X187366Y-144285D01*
X186996Y-144076D01*
X186315Y-143631D01*
X185635Y-143115D01*
X185014Y-142576D01*
X184514Y-142063D01*
X184134Y-141598D01*
X183755Y-141068D01*
X183434Y-140570D01*
X183377Y-140372D01*
X183442Y-140271D01*
X184372Y-139865D01*
X185304Y-139481D01*
X186105Y-139193D01*
X186106Y-139193D01*
X186412Y-139093D01*
X185793Y-138770D01*
X185792D01*
X184743Y-138155D01*
X183785Y-137453D01*
X182931Y-136671D01*
X182191Y-135821D01*
X182009Y-135563D01*
X181790Y-135208D01*
X181581Y-134848D01*
X181554Y-134744D01*
X181573Y-134710D01*
X181734Y-134615D01*
X181932Y-134506D01*
X182166Y-134389D01*
X182681Y-134150D01*
X183087Y-133978D01*
X183531Y-133811D01*
X184191Y-133583D01*
X184977Y-133317D01*
X184521Y-132991D01*
X184084Y-132651D01*
X183605Y-132225D01*
X183150Y-131775D01*
X182782Y-131361D01*
X182530Y-131026D01*
X182225Y-130569D01*
X181931Y-130104D01*
X181896Y-129981D01*
X181910Y-129955D01*
X182028Y-129881D01*
X182174Y-129797D01*
X182348Y-129707D01*
X183298Y-129273D01*
X184353Y-128875D01*
X185464Y-128530D01*
X186584Y-128253D01*
X187166Y-128136D01*
X187860Y-128010D01*
X188526Y-127898D01*
X188738Y-127881D01*
X188814Y-127955D01*
D02*
G37*
%LPC*%
G36*
X-182954Y-35892D02*
X-186210Y-43812D01*
X-182954Y-51732D01*
X-176631Y-45393D01*
X-183101Y-48628D01*
X-183205Y-48589D01*
X-183549Y-47772D01*
X-175614Y-43812D01*
X-183549Y-39852D01*
X-183205Y-39035D01*
X-183101Y-38996D01*
X-176615Y-42231D01*
X-182954Y-35892D01*
D02*
G37*
%LPD*%
D10*
X40138Y-116732D02*
G03*
X48602Y-125197I8465J-0D01*
G01*
X40138Y-147835D02*
G03*
X48602Y-156299I8465J-0D01*
G01*
X66122Y-116732D02*
G03*
X74587Y-125197I8465J-0D01*
G01*
X55295D02*
G03*
X63760Y-116732I-0J8465D01*
G01*
X48602Y-127165D02*
G03*
X40138Y-135630I0J-8465D01*
G01*
X66122Y-147835D02*
G03*
X74587Y-156299I8465J-0D01*
G01*
Y-127165D02*
G03*
X66122Y-135630I0J-8465D01*
G01*
X63760D02*
G03*
X55295Y-127165I-8465J0D01*
G01*
Y-156299D02*
G03*
X63760Y-147835I-0J8465D01*
G01*
X48602Y-96063D02*
G03*
X40138Y-104528I0J-8465D01*
G01*
Y-85630D02*
G03*
X48602Y-94095I8465J0D01*
G01*
X55295D02*
G03*
X63760Y-85630I0J8465D01*
G01*
X74587Y-96063D02*
G03*
X66122Y-104528I0J-8465D01*
G01*
X63760D02*
G03*
X55295Y-96063I-8465J0D01*
G01*
X66122Y-85630D02*
G03*
X74587Y-94095I8465J0D01*
G01*
X89744Y-135630D02*
G03*
X81279Y-127165I-8465J0D01*
G01*
X81279Y-94095D02*
G03*
X89744Y-85630I0J8465D01*
G01*
X81279Y-125197D02*
G03*
X89744Y-116732I-0J8465D01*
G01*
X81279Y-156299D02*
G03*
X89744Y-147835I-0J8465D01*
G01*
Y-104528D02*
G03*
X81279Y-96063I-8465J0D01*
G01*
X89744Y-42323D02*
G03*
X81279Y-33858I-8465J0D01*
G01*
X63760Y-42323D02*
G03*
X55295Y-33858I-8465J0D01*
G01*
X48602D02*
G03*
X40138Y-42323I0J-8465D01*
G01*
X37776Y-42323D02*
G03*
X29311Y-33858I-8465J0D01*
G01*
X74587D02*
G03*
X66122Y-42323I0J-8465D01*
G01*
X37776Y-73425D02*
G03*
X29311Y-64961I-8465J-0D01*
G01*
X89744Y-73425D02*
G03*
X81279Y-64961I-8465J0D01*
G01*
X40138Y-54528D02*
G03*
X48602Y-62992I8465J0D01*
G01*
X55295D02*
G03*
X63760Y-54528I0J8465D01*
G01*
X48602Y-64961D02*
G03*
X40138Y-73425I0J-8465D01*
G01*
X29311Y-62992D02*
G03*
X37776Y-54528I0J8465D01*
G01*
X63760Y-73425D02*
G03*
X55295Y-64961I-8465J0D01*
G01*
X74587D02*
G03*
X66122Y-73425I0J-8465D01*
G01*
Y-54528D02*
G03*
X74587Y-62992I8465J0D01*
G01*
X81279D02*
G03*
X89744Y-54528I0J8465D01*
G01*
X29311Y-125197D02*
G03*
X37776Y-116732I0J8465D01*
G01*
Y-104528D02*
G03*
X29311Y-96063I-8465J0D01*
G01*
Y-156299D02*
G03*
X37776Y-147835I0J8465D01*
G01*
X29311Y-94095D02*
G03*
X37776Y-85630I0J8465D01*
G01*
Y-135630D02*
G03*
X29311Y-127165I-8465J0D01*
G01*
X14153Y-147835D02*
G03*
X22618Y-156299I8465J0D01*
G01*
Y-127165D02*
G03*
X14153Y-135630I0J-8465D01*
G01*
X22618Y-96063D02*
G03*
X14153Y-104528I0J-8465D01*
G01*
Y-85630D02*
G03*
X22618Y-94095I8465J0D01*
G01*
X14153Y-116732D02*
G03*
X22618Y-125197I8465J0D01*
G01*
Y-33858D02*
G03*
X14153Y-42323I0J-8465D01*
G01*
Y-54528D02*
G03*
X22618Y-62992I8465J0D01*
G01*
Y-64961D02*
G03*
X14153Y-73425I-0J-8465D01*
G01*
X-37815Y-85630D02*
G03*
X-29350Y-94095I8465J0D01*
G01*
Y-96063D02*
G03*
X-37815Y-104528I0J-8465D01*
G01*
Y-116732D02*
G03*
X-29350Y-125197I8465J0D01*
G01*
X-159272Y-64961D02*
G03*
X-167736Y-73425I-0J-8465D01*
G01*
Y-54528D02*
G03*
X-159272Y-62992I8465J0D01*
G01*
X-167736Y-85630D02*
G03*
X-159272Y-94095I8465J0D01*
G01*
X-152579Y-94095D02*
G03*
X-144114Y-85630I0J8465D01*
G01*
X-89784Y-116732D02*
G03*
X-81319Y-125197I8465J-0D01*
G01*
X-89784Y-85630D02*
G03*
X-81319Y-94095I8465J0D01*
G01*
X-81319Y-96063D02*
G03*
X-89784Y-104528I0J-8465D01*
G01*
X-92146D02*
G03*
X-100610Y-96063I-8465J0D01*
G01*
Y-125197D02*
G03*
X-92146Y-116732I0J8465D01*
G01*
X-100610Y-94095D02*
G03*
X-92146Y-85630I0J8465D01*
G01*
X-11831Y-54528D02*
G03*
X-3366Y-62992I8465J0D01*
G01*
Y-64961D02*
G03*
X-11831Y-73425I-0J-8465D01*
G01*
X-3366Y-96063D02*
G03*
X-11831Y-104528I0J-8465D01*
G01*
Y-116732D02*
G03*
X-3366Y-125197I8465J0D01*
G01*
X-11831Y-85630D02*
G03*
X-3366Y-94095I8465J0D01*
G01*
X-22658Y-125197D02*
G03*
X-14193Y-116732I0J8465D01*
G01*
X-22658Y-94095D02*
G03*
X-14193Y-85630I0J8465D01*
G01*
Y-104528D02*
G03*
X-22658Y-96063I-8465J0D01*
G01*
X-144114Y-104528D02*
G03*
X-152579Y-96063I-8465J0D01*
G01*
X-167736Y-116732D02*
G03*
X-159272Y-125197I8465J0D01*
G01*
Y-96063D02*
G03*
X-167736Y-104528I0J-8465D01*
G01*
X-152579Y-125197D02*
G03*
X-144114Y-116732I0J8465D01*
G01*
X-100610Y-62992D02*
G03*
X-92146Y-54528I0J8465D01*
G01*
X-81319Y-64961D02*
G03*
X-89784Y-73425I0J-8465D01*
G01*
X-92146Y-73425D02*
G03*
X-100610Y-64961I-8465J-0D01*
G01*
X-89784Y-54528D02*
G03*
X-81319Y-62992I8465J0D01*
G01*
X-141752Y-116732D02*
G03*
X-133287Y-125197I8465J0D01*
G01*
X-115768Y-85630D02*
G03*
X-107303Y-94095I8465J0D01*
G01*
X-126594D02*
G03*
X-118130Y-85630I0J8465D01*
G01*
X-141752Y-85630D02*
G03*
X-133287Y-94095I8465J0D01*
G01*
X-107303Y-96063D02*
G03*
X-115768Y-104528I0J-8465D01*
G01*
X-133287Y-96063D02*
G03*
X-141752Y-104528I0J-8465D01*
G01*
X-126594Y-125197D02*
G03*
X-118130Y-116732I0J8465D01*
G01*
Y-104528D02*
G03*
X-126594Y-96063I-8465J0D01*
G01*
X-115768Y-116732D02*
G03*
X-107303Y-125197I8465J0D01*
G01*
X-126594Y-62992D02*
G03*
X-118130Y-54528I0J8465D01*
G01*
Y-73425D02*
G03*
X-126594Y-64961I-8465J-0D01*
G01*
X-133287D02*
G03*
X-141752Y-73425I-0J-8465D01*
G01*
X-144114D02*
G03*
X-152579Y-64961I-8465J-0D01*
G01*
Y-62992D02*
G03*
X-144114Y-54528I0J8465D01*
G01*
X-107303Y-64961D02*
G03*
X-115768Y-73425I-0J-8465D01*
G01*
X-141752Y-54528D02*
G03*
X-133287Y-62992I8465J0D01*
G01*
X-115768Y-54528D02*
G03*
X-107303Y-62992I8465J0D01*
G01*
X-48642Y-62992D02*
G03*
X-40177Y-54528I0J8465D01*
G01*
Y-73425D02*
G03*
X-48642Y-64961I-8465J0D01*
G01*
X-37815Y-54528D02*
G03*
X-29350Y-62992I8465J0D01*
G01*
X-14193Y-73425D02*
G03*
X-22658Y-64961I-8465J-0D01*
G01*
Y-62992D02*
G03*
X-14193Y-54528I0J8465D01*
G01*
X-29350Y-64961D02*
G03*
X-37815Y-73425I-0J-8465D01*
G01*
X-63799Y-116732D02*
G03*
X-55335Y-125197I8465J-0D01*
G01*
X-74626D02*
G03*
X-66161Y-116732I-0J8465D01*
G01*
X-40177Y-104528D02*
G03*
X-48642Y-96063I-8465J0D01*
G01*
X-55335D02*
G03*
X-63799Y-104528I0J-8465D01*
G01*
X-66161Y-104528D02*
G03*
X-74626Y-96063I-8465J0D01*
G01*
X-48642Y-94095D02*
G03*
X-40177Y-85630I0J8465D01*
G01*
X-48642Y-125197D02*
G03*
X-40177Y-116732I-0J8465D01*
G01*
X-55335Y-64961D02*
G03*
X-63799Y-73425I0J-8465D01*
G01*
X-74626Y-94095D02*
G03*
X-66161Y-85630I0J8465D01*
G01*
X-74626Y-62992D02*
G03*
X-66161Y-54528I0J8465D01*
G01*
Y-73425D02*
G03*
X-74626Y-64961I-8465J0D01*
G01*
X-63799Y-85630D02*
G03*
X-55335Y-94095I8465J0D01*
G01*
X-63799Y-54528D02*
G03*
X-55335Y-62992I8465J0D01*
G01*
X3327Y-94095D02*
G03*
X11791Y-85630I0J8465D01*
G01*
X3327Y-62992D02*
G03*
X11791Y-54528I0J8465D01*
G01*
Y-73425D02*
G03*
X3327Y-64961I-8465J-0D01*
G01*
X3327Y-125197D02*
G03*
X11791Y-116732I0J8465D01*
G01*
Y-104528D02*
G03*
X3327Y-96063I-8465J0D01*
G01*
X-92146Y-166732D02*
G03*
X-100610Y-158268I-8465J0D01*
G01*
X-55335D02*
G03*
X-63799Y-166732I0J-8465D01*
G01*
X-107303Y-158268D02*
G03*
X-115768Y-166732I0J-8465D01*
G01*
X-66161Y-166732D02*
G03*
X-74626Y-158268I-8465J0D01*
G01*
X-81319Y-158268D02*
G03*
X-89784Y-166732I0J-8465D01*
G01*
X-66161Y-135630D02*
G03*
X-74626Y-127165I-8465J0D01*
G01*
X-40177Y-135630D02*
G03*
X-48642Y-127165I-8465J0D01*
G01*
X-55335D02*
G03*
X-63799Y-135630I0J-8465D01*
G01*
X-115374Y-147835D02*
G03*
X-107303Y-155905I8071J0D01*
G01*
Y-127559D02*
G03*
X-115374Y-135630I0J-8071D01*
G01*
X-89784Y-147835D02*
G03*
X-81319Y-156299I8465J-0D01*
G01*
X-100610Y-155905D02*
G03*
X-92539Y-147835I0J8071D01*
G01*
X-81319Y-127165D02*
G03*
X-89784Y-135630I0J-8465D01*
G01*
X-92539D02*
G03*
X-100610Y-127559I-8071J0D01*
G01*
X-118130Y-166732D02*
G03*
X-126594Y-158268I-8465J0D01*
G01*
X-133287D02*
G03*
X-141752Y-166732I0J-8465D01*
G01*
X-118130Y-135630D02*
G03*
X-126594Y-127165I-8465J0D01*
G01*
X-141752Y-147835D02*
G03*
X-133287Y-156299I8465J0D01*
G01*
Y-127165D02*
G03*
X-141752Y-135630I0J-8465D01*
G01*
X-126594Y-156299D02*
G03*
X-118130Y-147835I0J8465D01*
G01*
X-14193Y-135630D02*
G03*
X-22658Y-127165I-8465J0D01*
G01*
X-29350D02*
G03*
X-37815Y-135630I0J-8465D01*
G01*
X-3366Y-127165D02*
G03*
X-11831Y-135630I0J-8465D01*
G01*
X11791D02*
G03*
X3327Y-127165I-8465J0D01*
G01*
Y-156299D02*
G03*
X11791Y-147835I0J8465D01*
G01*
X-11831D02*
G03*
X-3366Y-156299I8465J0D01*
G01*
X-22658D02*
G03*
X-14193Y-147835I0J8465D01*
G01*
X-63799Y-147835D02*
G03*
X-55335Y-156299I8465J-0D01*
G01*
X-37815Y-147835D02*
G03*
X-29350Y-156299I8465J0D01*
G01*
X-48642D02*
G03*
X-40177Y-147835I-0J8465D01*
G01*
X-74626Y-156299D02*
G03*
X-66161Y-147835I-0J8465D01*
G01*
X141713Y-166732D02*
G03*
X133248Y-158268I-8465J0D01*
G01*
X126555D02*
G03*
X118091Y-166732I0J-8465D01*
G01*
X159232Y-156299D02*
G03*
X167697Y-147835I0J8465D01*
G01*
Y-135630D02*
G03*
X159232Y-127165I-8465J0D01*
G01*
Y-125197D02*
G03*
X167697Y-116732I0J8465D01*
G01*
X152539Y-158268D02*
G03*
X144075Y-166732I0J-8465D01*
G01*
X167697D02*
G03*
X159232Y-158268I-8465J0D01*
G01*
X74587D02*
G03*
X66122Y-166732I0J-8465D01*
G01*
X63760D02*
G03*
X55295Y-158268I-8465J0D01*
G01*
X115728Y-166732D02*
G03*
X107264Y-158268I-8465J0D01*
G01*
X100571D02*
G03*
X92106Y-166732I0J-8465D01*
G01*
X89744D02*
G03*
X81279Y-158268I-8465J0D01*
G01*
X55295Y-187402D02*
G03*
X63760Y-178937I-0J8465D01*
G01*
X159232Y-187402D02*
G03*
X167697Y-178937I0J8465D01*
G01*
X144075D02*
G03*
X152539Y-187402I8465J0D01*
G01*
X66122Y-178937D02*
G03*
X74587Y-187402I8465J-0D01*
G01*
X-74626D02*
G03*
X-66161Y-178937I-0J8465D01*
G01*
X-63799Y-178937D02*
G03*
X-55335Y-187402I8465J-0D01*
G01*
X-159272Y-158268D02*
G03*
X-167736Y-166732I0J-8465D01*
G01*
Y-178937D02*
G03*
X-159272Y-187402I8465J0D01*
G01*
X-141752Y-178937D02*
G03*
X-133287Y-187402I8465J0D01*
G01*
X-152579D02*
G03*
X-144114Y-178937I0J8465D01*
G01*
X-126594Y-187402D02*
G03*
X-118130Y-178937I0J8465D01*
G01*
X-144114Y-166732D02*
G03*
X-152579Y-158268I-8465J0D01*
G01*
X81279Y-187402D02*
G03*
X89744Y-178937I-0J8465D01*
G01*
X92106D02*
G03*
X100571Y-187402I8465J0D01*
G01*
X107264D02*
G03*
X115728Y-178937I0J8465D01*
G01*
X133248Y-187402D02*
G03*
X141713Y-178937I0J8465D01*
G01*
X118091D02*
G03*
X126555Y-187402I8465J0D01*
G01*
X159232Y-62992D02*
G03*
X167697Y-54528I0J8465D01*
G01*
Y-104528D02*
G03*
X159232Y-96063I-8465J0D01*
G01*
X159232Y-94095D02*
G03*
X167697Y-85630I0J8465D01*
G01*
Y-73425D02*
G03*
X159232Y-64961I-8465J-0D01*
G01*
X-159272Y-127165D02*
G03*
X-167736Y-135630I0J-8465D01*
G01*
X-152579Y-156299D02*
G03*
X-144114Y-147835I0J8465D01*
G01*
X-167736D02*
G03*
X-159272Y-156299I8465J0D01*
G01*
X-144114Y-135630D02*
G03*
X-152579Y-127165I-8465J0D01*
G01*
X-100610Y-187402D02*
G03*
X-92146Y-178937I0J8465D01*
G01*
X-89784D02*
G03*
X-81319Y-187402I8465J-0D01*
G01*
X-115768Y-178937D02*
G03*
X-107303Y-187402I8465J0D01*
G01*
X115728Y-135630D02*
G03*
X107264Y-127165I-8465J0D01*
G01*
Y-125197D02*
G03*
X115728Y-116732I0J8465D01*
G01*
X92106Y-147835D02*
G03*
X100571Y-156299I8465J0D01*
G01*
X92106Y-116732D02*
G03*
X100571Y-125197I8465J0D01*
G01*
Y-127165D02*
G03*
X92106Y-135630I0J-8465D01*
G01*
X107264Y-156299D02*
G03*
X115728Y-147835I0J8465D01*
G01*
X107264Y-94095D02*
G03*
X115728Y-85630I0J8465D01*
G01*
X115728Y-104528D02*
G03*
X107264Y-96063I-8465J0D01*
G01*
X100571D02*
G03*
X92106Y-104528I0J-8465D01*
G01*
X92106Y-85630D02*
G03*
X100571Y-94095I8465J0D01*
G01*
X118090Y-85630D02*
G03*
X126555Y-94095I8465J0D01*
G01*
Y-127165D02*
G03*
X118091Y-135630I0J-8465D01*
G01*
Y-147835D02*
G03*
X126555Y-156299I8465J0D01*
G01*
Y-96063D02*
G03*
X118091Y-104528I0J-8465D01*
G01*
Y-116732D02*
G03*
X126555Y-125197I8465J0D01*
G01*
X115728Y-42323D02*
G03*
X107264Y-33858I-8465J0D01*
G01*
X100571D02*
G03*
X92106Y-42323I0J-8465D01*
G01*
X92106Y-54528D02*
G03*
X100571Y-62992I8465J0D01*
G01*
X126555Y-64961D02*
G03*
X118090Y-73425I-0J-8465D01*
G01*
Y-54528D02*
G03*
X126555Y-62992I8465J0D01*
G01*
Y-33858D02*
G03*
X118091Y-42323I0J-8465D01*
G01*
X100571Y-64961D02*
G03*
X92106Y-73425I-0J-8465D01*
G01*
X115728D02*
G03*
X107264Y-64961I-8465J-0D01*
G01*
Y-62992D02*
G03*
X115728Y-54528I0J8465D01*
G01*
X133248Y-94095D02*
G03*
X141713Y-85630I0J8465D01*
G01*
X133248Y-156299D02*
G03*
X141713Y-147835I0J8465D01*
G01*
Y-135630D02*
G03*
X133248Y-127165I-8465J0D01*
G01*
X141713Y-104528D02*
G03*
X133248Y-96063I-8465J0D01*
G01*
Y-125197D02*
G03*
X141713Y-116732I0J8465D01*
G01*
X152539Y-33858D02*
G03*
X144075Y-42323I0J-8465D01*
G01*
X133248Y-62992D02*
G03*
X141713Y-54528I0J8465D01*
G01*
Y-73425D02*
G03*
X133248Y-64961I-8465J-0D01*
G01*
X141713Y-42323D02*
G03*
X133248Y-33858I-8465J0D01*
G01*
X152539Y-64961D02*
G03*
X144075Y-73425I-0J-8465D01*
G01*
Y-54528D02*
G03*
X152539Y-62992I8465J0D01*
G01*
X144075Y-85630D02*
G03*
X152539Y-94095I8465J0D01*
G01*
Y-96063D02*
G03*
X144075Y-104528I0J-8465D01*
G01*
Y-116732D02*
G03*
X152539Y-125197I8465J0D01*
G01*
X144075Y-147835D02*
G03*
X152539Y-156299I8465J0D01*
G01*
Y-127165D02*
G03*
X144075Y-135630I0J-8465D01*
G01*
X-140472Y-29528D02*
G03*
X-132008Y-21063I0J8465D01*
G01*
X-129646D02*
G03*
X-121181Y-29528I8465J0D01*
G01*
X-167736Y-21063D02*
G03*
X-159272Y-29528I8465J0D01*
G01*
X-26217D02*
G03*
X-17736Y-21063I16J8465D01*
G01*
X-53465Y-21063D02*
G03*
X-45000Y-29528I8465J0D01*
G01*
X26177Y-394D02*
G03*
X17697Y-8858I-16J-8465D01*
G01*
Y-21063D02*
G03*
X26162Y-29528I8465J0D01*
G01*
X-83091Y-394D02*
G03*
X-91555Y-8858I-0J-8465D01*
G01*
X-93917D02*
G03*
X-102382Y-394I-8465J-0D01*
G01*
X-55827Y-8858D02*
G03*
X-64291Y-394I-8465J-0D01*
G01*
X-121181D02*
G03*
X-129646Y-8858I-0J-8465D01*
G01*
X-132008D02*
G03*
X-140472Y-394I-8465J-0D01*
G01*
X-45015Y-394D02*
G03*
X-53465Y-8858I15J-8465D01*
G01*
X-159272Y-394D02*
G03*
X-167736Y-8858I-0J-8465D01*
G01*
X-17736Y-8858D02*
G03*
X-26201Y-394I-8465J0D01*
G01*
X-29350Y-33858D02*
G03*
X-37815Y-42323I0J-8465D01*
G01*
X-40177Y-42323D02*
G03*
X-48642Y-33858I-8465J0D01*
G01*
X-3366D02*
G03*
X-11831Y-42323I0J-8465D01*
G01*
X11791D02*
G03*
X3327Y-33858I-8465J0D01*
G01*
X-14193Y-42323D02*
G03*
X-22658Y-33858I-8465J0D01*
G01*
X53425Y-8858D02*
G03*
X44961Y-394I-8465J-0D01*
G01*
X44976Y-29528D02*
G03*
X53425Y-21063I-15J8465D01*
G01*
X55787D02*
G03*
X64252Y-29528I8465J0D01*
G01*
X91516Y-8858D02*
G03*
X83051Y-394I-8465J-0D01*
G01*
X64252D02*
G03*
X55787Y-8858I-0J-8465D01*
G01*
X83051Y-29528D02*
G03*
X91516Y-21063I0J8465D01*
G01*
X-81319Y-33858D02*
G03*
X-89784Y-42323I0J-8465D01*
G01*
X-66161Y-42323D02*
G03*
X-74626Y-33858I-8465J0D01*
G01*
X-55335D02*
G03*
X-63799Y-42323I0J-8465D01*
G01*
X-64291Y-29528D02*
G03*
X-55827Y-21063I0J8465D01*
G01*
X-92146Y-42323D02*
G03*
X-100610Y-33858I-8465J0D01*
G01*
X-102382Y-29528D02*
G03*
X-93917Y-21063I0J8465D01*
G01*
X-91555D02*
G03*
X-83091Y-29528I8465J0D01*
G01*
X121142D02*
G03*
X129606Y-21063I0J8465D01*
G01*
X93878D02*
G03*
X102342Y-29528I8465J0D01*
G01*
X140433Y-394D02*
G03*
X131968Y-8858I-0J-8465D01*
G01*
X131968Y-21063D02*
G03*
X140433Y-29528I8465J0D01*
G01*
X102342Y-394D02*
G03*
X93878Y-8858I-0J-8465D01*
G01*
X129606D02*
G03*
X121142Y-394I-8465J-0D01*
G01*
X159232Y-29528D02*
G03*
X167697Y-21063I0J8465D01*
G01*
X167697Y-8858D02*
G03*
X159232Y-394I-8465J-0D01*
G01*
X167697Y-42323D02*
G03*
X159232Y-33858I-8465J0D01*
G01*
X-107303D02*
G03*
X-115768Y-42323I0J-8465D01*
G01*
X-133287Y-33858D02*
G03*
X-141752Y-42323I0J-8465D01*
G01*
X-144114D02*
G03*
X-152579Y-33858I-8465J0D01*
G01*
X-159272D02*
G03*
X-167736Y-42323I0J-8465D01*
G01*
X-118130D02*
G03*
X-126594Y-33858I-8465J0D01*
G01*
X-194883Y-188976D02*
G03*
X-187008Y-196851I7875J0D01*
G01*
X187008D02*
G03*
X194883Y-188976I0J7875D01*
G01*
Y3937D02*
G03*
X187008Y11812I-7875J0D01*
G01*
X-187008D02*
G03*
X-194883Y3937I0J-7875D01*
G01*
X40138Y-147835D02*
Y-135630D01*
X74587Y-125197D02*
X81279D01*
X48602D02*
X55295D01*
X74587Y-156299D02*
X81279D01*
X74587Y-127165D02*
X81279D01*
X48602D02*
X55295D01*
X48602Y-156299D02*
X55295D01*
X63760Y-147835D02*
Y-135630D01*
X66122Y-147835D02*
Y-135630D01*
X40138Y-116732D02*
Y-104528D01*
X48602Y-96063D02*
X55295D01*
X40138Y-85630D02*
Y-73425D01*
X37776Y-85630D02*
Y-73425D01*
X48602Y-94095D02*
X55295D01*
X37776Y-116732D02*
Y-104528D01*
X74587Y-94095D02*
X81279D01*
X63760Y-116732D02*
Y-104528D01*
Y-85630D02*
Y-73425D01*
X66122Y-85630D02*
Y-73425D01*
X74587Y-96063D02*
X81279D01*
X66122Y-116732D02*
Y-104528D01*
X92106Y-147835D02*
Y-135630D01*
X89744Y-116732D02*
Y-104528D01*
Y-147835D02*
Y-135630D01*
Y-85630D02*
Y-73425D01*
X92106Y-85630D02*
Y-73425D01*
Y-116732D02*
Y-104528D01*
X40138Y-54528D02*
Y-42323D01*
X66122Y-54528D02*
Y-42323D01*
X89744Y-54528D02*
Y-42323D01*
X37776Y-54528D02*
Y-42323D01*
X63760Y-54528D02*
Y-42323D01*
X48602Y-33858D02*
X55295D01*
X22618D02*
X29311D01*
X74587D02*
X81279D01*
X22618Y-62992D02*
X29311D01*
X48602Y-64961D02*
X55295D01*
X74587Y-62992D02*
X81279D01*
X48602D02*
X55295D01*
X74587Y-64961D02*
X81279D01*
X22618D02*
X29311D01*
X22618Y-125197D02*
X29311D01*
X22618Y-94095D02*
X29311D01*
X22618Y-127165D02*
X29311D01*
X22618Y-96063D02*
X29311D01*
X22618Y-156299D02*
X29311D01*
X37776Y-147835D02*
Y-135630D01*
X14153Y-54528D02*
Y-42323D01*
Y-116732D02*
Y-104528D01*
Y-147835D02*
Y-135630D01*
Y-85630D02*
Y-73425D01*
X-37815Y-85630D02*
Y-73425D01*
X-40177Y-85630D02*
Y-73425D01*
X-29350Y-94095D02*
X-22658D01*
X-29350Y-96063D02*
X-22658D01*
X-37815Y-116732D02*
Y-104528D01*
X-29350Y-125197D02*
X-22658D01*
X-40177Y-116732D02*
Y-104528D01*
X-159272Y-64961D02*
X-152579D01*
X-159272Y-94095D02*
X-152579D01*
X-159272Y-62992D02*
X-152579D01*
X-167736Y-85630D02*
Y-73425D01*
X-107303Y-94095D02*
X-100610D01*
X-92146Y-116732D02*
Y-104528D01*
X-107303Y-96063D02*
X-100610D01*
X-89784Y-116732D02*
Y-104528D01*
X-107303Y-125197D02*
X-100610D01*
X-11831Y-116732D02*
Y-104528D01*
Y-85630D02*
Y-73425D01*
X-14193Y-85630D02*
Y-73425D01*
Y-116732D02*
Y-104528D01*
X-159272Y-96063D02*
X-152579D01*
X-167736Y-116732D02*
Y-104528D01*
X-159272Y-125197D02*
X-152579D01*
X-144114Y-116732D02*
Y-104528D01*
X-107303Y-64961D02*
X-100610D01*
X-92146Y-85630D02*
Y-73425D01*
X-89784Y-85630D02*
Y-73425D01*
X-107303Y-62992D02*
X-100610D01*
X-133287Y-96063D02*
X-126594D01*
X-133287Y-125197D02*
X-126594D01*
X-141752Y-116732D02*
Y-104528D01*
X-118130Y-116732D02*
Y-104528D01*
X-115768Y-116732D02*
Y-104528D01*
X-133287Y-94095D02*
X-126594D01*
X-115768Y-85630D02*
Y-73425D01*
X-133287Y-62992D02*
X-126594D01*
X-118130Y-85630D02*
Y-73425D01*
X-144114Y-85630D02*
Y-73425D01*
X-133287Y-64961D02*
X-126594D01*
X-141752Y-85630D02*
Y-73425D01*
X-55335Y-62992D02*
X-48642D01*
X-29350D02*
X-22658D01*
X-29350Y-64961D02*
X-22658D01*
X-55335D02*
X-48642D01*
X-63799Y-116732D02*
Y-104528D01*
X-81319Y-96063D02*
X-74626D01*
X-55335D02*
X-48642D01*
X-55335Y-94095D02*
X-48642D01*
X-81319Y-125197D02*
X-74626D01*
X-55335D02*
X-48642D01*
X-66161Y-116732D02*
Y-104528D01*
X-81319Y-62992D02*
X-74626D01*
X-81319Y-64961D02*
X-74626D01*
X-81319Y-94095D02*
X-74626D01*
X-63799Y-85630D02*
Y-73425D01*
X-66161Y-85630D02*
Y-73425D01*
X-3366Y-125197D02*
X3327D01*
X11791Y-116732D02*
Y-104528D01*
X-3366Y-96063D02*
X3327D01*
X-3366Y-94095D02*
X3327D01*
X-3366Y-62992D02*
X3327D01*
X-3366Y-64961D02*
X3327D01*
X11791Y-85630D02*
Y-73425D01*
X-81319Y-156299D02*
X-74626D01*
X-81319Y-158268D02*
X-74626D01*
X-89784Y-178937D02*
Y-166732D01*
X-107303Y-158268D02*
X-100610D01*
X-63799Y-178937D02*
Y-166732D01*
X-92146Y-178937D02*
Y-166732D01*
X-115768Y-178937D02*
Y-166732D01*
X-66161Y-178937D02*
Y-166732D01*
X-81319Y-127165D02*
X-74626D01*
X-40177Y-147835D02*
Y-135630D01*
X-63799Y-147835D02*
Y-135630D01*
X-66161Y-147835D02*
Y-135630D01*
X-55335Y-127165D02*
X-48642D01*
X-115374Y-147835D02*
Y-135630D01*
X-107303Y-127559D02*
X-100610D01*
X-107303Y-155905D02*
X-100610D01*
X-89784Y-147835D02*
Y-135630D01*
X-92539Y-147835D02*
Y-135630D01*
X-133287Y-158268D02*
X-126594D01*
X-133287Y-127165D02*
X-126594D01*
X-141752Y-178937D02*
Y-166732D01*
X-118130Y-178937D02*
Y-166732D01*
X-141752Y-147835D02*
Y-135630D01*
X-144114Y-178937D02*
Y-166732D01*
X-118130Y-147835D02*
Y-135630D01*
X-144114Y-147835D02*
Y-135630D01*
X-133287Y-156299D02*
X-126594D01*
X-37815Y-147835D02*
Y-135630D01*
X-29350Y-127165D02*
X-22658D01*
X-3366D02*
X3327D01*
X11791Y-147835D02*
Y-135630D01*
X-11831Y-147835D02*
Y-135630D01*
X-14193Y-147835D02*
Y-135630D01*
X-55335Y-158268D02*
X55295D01*
X-3366Y-156299D02*
X3327D01*
X-29350D02*
X-22658D01*
X-55335D02*
X-48642D01*
X141713Y-178937D02*
Y-166732D01*
X118091Y-178937D02*
Y-166732D01*
X167697Y-147835D02*
Y-135630D01*
X144075Y-178937D02*
Y-166732D01*
X152539Y-158268D02*
X159232D01*
X126555D02*
X133248D01*
X167697Y-178937D02*
Y-166732D01*
X74587Y-158268D02*
X81279D01*
X100571D02*
X107264D01*
X66122Y-178937D02*
Y-166732D01*
X89744Y-178937D02*
Y-166732D01*
X92106Y-178937D02*
Y-166732D01*
X63760Y-178937D02*
Y-166732D01*
X115728Y-178937D02*
Y-166732D01*
X74587Y-187402D02*
X81279D01*
X167697Y-116732D02*
Y-104528D01*
X152539Y-187402D02*
X159232D01*
X-55335D02*
X55295D01*
X-81319D02*
X-74626D01*
X-133287D02*
X-126594D01*
X-159272Y-158268D02*
X-152579D01*
X-167736Y-178937D02*
Y-166732D01*
X-159272Y-187402D02*
X-152579D01*
X100571D02*
X107264D01*
X126555D02*
X133248D01*
X167697Y-85630D02*
Y-73425D01*
X-159272Y-156299D02*
X-152579D01*
X-159272Y-127165D02*
X-152579D01*
X-167736Y-147835D02*
Y-135630D01*
X-107303Y-187402D02*
X-100610D01*
X100571Y-127165D02*
X107264D01*
X100571Y-125197D02*
X107264D01*
X100571Y-156299D02*
X107264D01*
X126555Y-96063D02*
X133248D01*
X126555Y-94095D02*
X133248D01*
X126555Y-125197D02*
X133248D01*
X126555Y-127165D02*
X133248D01*
X126555Y-156299D02*
X133248D01*
X100571Y-96063D02*
X107264D01*
X100571Y-94095D02*
X107264D01*
X118091Y-85630D02*
Y-73425D01*
X115728Y-116732D02*
Y-104528D01*
X118091Y-147835D02*
Y-135630D01*
Y-116732D02*
Y-104528D01*
X115728Y-147835D02*
Y-135630D01*
Y-85630D02*
Y-73425D01*
X100571Y-64961D02*
X107264D01*
X118091Y-54528D02*
Y-42323D01*
X100571Y-33858D02*
X107264D01*
X115728Y-54528D02*
Y-42323D01*
X100571Y-62992D02*
X107264D01*
X92106Y-54528D02*
Y-42323D01*
X141713Y-116732D02*
Y-104528D01*
Y-85630D02*
Y-73425D01*
X144075Y-116732D02*
Y-104528D01*
Y-85630D02*
Y-73425D01*
Y-147835D02*
Y-135630D01*
X141713Y-147835D02*
Y-135630D01*
X126555Y-33858D02*
X133248D01*
X126555Y-62992D02*
X133248D01*
X152539D02*
X159232D01*
X126555Y-64961D02*
X133248D01*
X141713Y-54528D02*
Y-42323D01*
X152539Y-33858D02*
X159232D01*
X144075Y-54528D02*
Y-42323D01*
X152539Y-64961D02*
X159232D01*
X152539Y-156299D02*
X159232D01*
X152539Y-125197D02*
X159232D01*
X152539Y-96063D02*
X159232D01*
X152539Y-127165D02*
X159232D01*
X152539Y-94095D02*
X159232D01*
X-132008Y-21063D02*
Y-8858D01*
X-167736Y-21063D02*
Y-8858D01*
X-129646Y-21063D02*
Y-8858D01*
X-89784Y-54528D02*
Y-42323D01*
X-167736Y-54528D02*
Y-42323D01*
X-144114Y-54528D02*
Y-42323D01*
X-141752Y-54528D02*
Y-42323D01*
X-115768Y-54528D02*
Y-42323D01*
X-92146Y-54528D02*
Y-42323D01*
X-63799Y-54528D02*
Y-42323D01*
X-66161Y-54528D02*
Y-42323D01*
X-118130Y-54528D02*
Y-42323D01*
X-53465Y-21063D02*
Y-8858D01*
X-17736Y-21063D02*
Y-8858D01*
X-45000Y-29528D02*
X-26217D01*
X26162D02*
X44976Y-29528D01*
X26177Y-394D02*
X44961D01*
X17697Y-21063D02*
Y-8858D01*
X-83091Y-394D02*
X-64291D01*
X-45015Y-394D02*
X-26201Y-394D01*
X-121181D02*
X-102382D01*
X-159272D02*
X-140472D01*
X-55335Y-33858D02*
X-48642D01*
X-37815Y-54528D02*
Y-42323D01*
X-40177Y-54528D02*
Y-42323D01*
X-29350Y-33858D02*
X-22658D01*
X11791Y-54528D02*
Y-42323D01*
X-3366Y-33858D02*
X3327D01*
X-14193Y-54528D02*
Y-42323D01*
X-11831Y-54528D02*
Y-42323D01*
X64252Y-29528D02*
X83051D01*
X64252Y-394D02*
X83051D01*
X55787Y-21063D02*
Y-8858D01*
X91516Y-21063D02*
Y-8858D01*
X53425Y-21063D02*
Y-8858D01*
X-55827Y-21063D02*
Y-8858D01*
X-93917Y-21063D02*
Y-8858D01*
X-83091Y-29528D02*
X-64291D01*
X-91555Y-21063D02*
Y-8858D01*
X-81319Y-33858D02*
X-74626D01*
X102342Y-29528D02*
X121142D01*
X102342Y-394D02*
X121142D01*
X129606Y-21063D02*
Y-8858D01*
X93878Y-21063D02*
Y-8858D01*
X131968Y-21063D02*
Y-8858D01*
X167697Y-54528D02*
Y-42323D01*
X140433Y-394D02*
X159232D01*
X167697Y-21063D02*
Y-8858D01*
X140433Y-29528D02*
X159232D01*
X-107303Y-33858D02*
X-100610D01*
X-159272D02*
X-152579D01*
X-121181Y-29528D02*
X-102382D01*
X-159272D02*
X-140472D01*
X-133287Y-33858D02*
X-126594D01*
X-194882Y-188977D02*
Y3938D01*
X-187009Y-196850D02*
X187009D01*
X194882Y-188977D02*
Y3937D01*
X-187009Y11811D02*
X187008D01*
D15*
X185039Y-161417D02*
D03*
Y-17717D02*
D03*
X-185039Y-161417D02*
D03*
Y-17717D02*
D03*
M02*
