G04*
G04 #@! TF.GenerationSoftware,Altium Limited,Altium Designer,24.2.2 (26)*
G04*
G04 Layer_Color=128*
%FSLAX25Y25*%
%MOIN*%
G70*
G04*
G04 #@! TF.SameCoordinates,661FBD00-BEF8-4439-B900-685B4A6DAB74*
G04*
G04*
G04 #@! TF.FilePolarity,Positive*
G04*
G01*
G75*
%ADD10C,0.00394*%
D10*
X261649Y-125197D02*
G03*
X270113Y-116732I-0J8465D01*
G01*
X261649Y-156299D02*
G03*
X270113Y-147835I-0J8465D01*
G01*
X235665Y-125197D02*
G03*
X244129Y-116732I-0J8465D01*
G01*
X246492D02*
G03*
X254956Y-125197I8465J-0D01*
G01*
X270113Y-135630D02*
G03*
X261649Y-127165I-8465J0D01*
G01*
X235665Y-156299D02*
G03*
X244129Y-147835I-0J8465D01*
G01*
Y-135630D02*
G03*
X235665Y-127165I-8465J0D01*
G01*
X254956D02*
G03*
X246492Y-135630I0J-8465D01*
G01*
Y-147835D02*
G03*
X254956Y-156299I8465J-0D01*
G01*
X270113Y-104528D02*
G03*
X261649Y-96063I-8465J0D01*
G01*
Y-94095D02*
G03*
X270113Y-85630I0J8465D01*
G01*
X246492D02*
G03*
X254956Y-94095I8465J0D01*
G01*
X244129Y-104528D02*
G03*
X235665Y-96063I-8465J0D01*
G01*
X254956D02*
G03*
X246492Y-104528I0J-8465D01*
G01*
X235665Y-94095D02*
G03*
X244129Y-85630I0J8465D01*
G01*
X228972Y-127165D02*
G03*
X220507Y-135630I0J-8465D01*
G01*
X220507Y-85630D02*
G03*
X228972Y-94095I8465J0D01*
G01*
X220507Y-116732D02*
G03*
X228972Y-125197I8465J-0D01*
G01*
X220507Y-147835D02*
G03*
X228972Y-156299I8465J-0D01*
G01*
Y-96063D02*
G03*
X220507Y-104528I0J-8465D01*
G01*
X228972Y-33858D02*
G03*
X220507Y-42323I0J-8465D01*
G01*
X254956Y-33858D02*
G03*
X246492Y-42323I0J-8465D01*
G01*
X270113D02*
G03*
X261649Y-33858I-8465J0D01*
G01*
X280940D02*
G03*
X272476Y-42323I0J-8465D01*
G01*
X244129Y-42323D02*
G03*
X235665Y-33858I-8465J0D01*
G01*
X280940Y-64961D02*
G03*
X272476Y-73425I-0J-8465D01*
G01*
X228972Y-64961D02*
G03*
X220507Y-73425I0J-8465D01*
G01*
X261649Y-62992D02*
G03*
X270113Y-54528I0J8465D01*
G01*
X246492D02*
G03*
X254956Y-62992I8465J0D01*
G01*
X270113Y-73425D02*
G03*
X261649Y-64961I-8465J0D01*
G01*
X272476Y-54528D02*
G03*
X280940Y-62992I8465J0D01*
G01*
X254956Y-64961D02*
G03*
X246492Y-73425I0J-8465D01*
G01*
X244129D02*
G03*
X235665Y-64961I-8465J0D01*
G01*
Y-62992D02*
G03*
X244129Y-54528I0J8465D01*
G01*
X220507D02*
G03*
X228972Y-62992I8465J0D01*
G01*
X272476Y-116732D02*
G03*
X280940Y-125197I8465J0D01*
G01*
Y-96063D02*
G03*
X272476Y-104528I0J-8465D01*
G01*
Y-147835D02*
G03*
X280940Y-156299I8465J0D01*
G01*
X272476Y-85630D02*
G03*
X280940Y-94095I8465J0D01*
G01*
X280940Y-127165D02*
G03*
X272476Y-135630I0J-8465D01*
G01*
X287633Y-156299D02*
G03*
X296098Y-147835I0J8465D01*
G01*
Y-135630D02*
G03*
X287633Y-127165I-8465J0D01*
G01*
X296098Y-104528D02*
G03*
X287633Y-96063I-8465J0D01*
G01*
X287633Y-94095D02*
G03*
X296098Y-85630I0J8465D01*
G01*
X287633Y-125197D02*
G03*
X296098Y-116732I0J8465D01*
G01*
Y-42323D02*
G03*
X287633Y-33858I-8465J0D01*
G01*
X287633Y-62992D02*
G03*
X296098Y-54528I0J8465D01*
G01*
Y-73425D02*
G03*
X287633Y-64961I-8465J-0D01*
G01*
X339602Y-94095D02*
G03*
X348066Y-85630I0J8465D01*
G01*
X348066Y-104528D02*
G03*
X339602Y-96063I-8465J0D01*
G01*
Y-125197D02*
G03*
X348066Y-116732I0J8465D01*
G01*
X477988Y-73425D02*
G03*
X469523Y-64961I-8465J-0D01*
G01*
Y-62992D02*
G03*
X477988Y-54528I0J8465D01*
G01*
X469523Y-94095D02*
G03*
X477988Y-85630I0J8465D01*
G01*
X454365Y-85630D02*
G03*
X462830Y-94095I8465J0D01*
G01*
X391570Y-125197D02*
G03*
X400035Y-116732I-0J8465D01*
G01*
X391570Y-94095D02*
G03*
X400035Y-85630I0J8465D01*
G01*
X400035Y-104528D02*
G03*
X391570Y-96063I-8465J0D01*
G01*
X410862Y-96063D02*
G03*
X402397Y-104528I0J-8465D01*
G01*
Y-116732D02*
G03*
X410862Y-125197I8465J0D01*
G01*
X402397Y-85630D02*
G03*
X410862Y-94095I8465J0D01*
G01*
X313617Y-62992D02*
G03*
X322082Y-54528I0J8465D01*
G01*
Y-73425D02*
G03*
X313617Y-64961I-8465J-0D01*
G01*
X322082Y-104528D02*
G03*
X313617Y-96063I-8465J0D01*
G01*
Y-125197D02*
G03*
X322082Y-116732I0J8465D01*
G01*
X313617Y-94095D02*
G03*
X322082Y-85630I0J8465D01*
G01*
X324444Y-116732D02*
G03*
X332909Y-125197I8465J0D01*
G01*
X324444Y-85630D02*
G03*
X332909Y-94095I8465J0D01*
G01*
X332909Y-96063D02*
G03*
X324444Y-104528I0J-8465D01*
G01*
X462830Y-96063D02*
G03*
X454365Y-104528I0J-8465D01*
G01*
X469523Y-125197D02*
G03*
X477988Y-116732I0J8465D01*
G01*
Y-104528D02*
G03*
X469523Y-96063I-8465J0D01*
G01*
X454365Y-116732D02*
G03*
X462830Y-125197I8465J0D01*
G01*
X402397Y-54528D02*
G03*
X410862Y-62992I8465J0D01*
G01*
X400035Y-73425D02*
G03*
X391570Y-64961I-8465J0D01*
G01*
X410862Y-64961D02*
G03*
X402397Y-73425I-0J-8465D01*
G01*
X391570Y-62992D02*
G03*
X400035Y-54528I0J8465D01*
G01*
X443539Y-125197D02*
G03*
X452003Y-116732I0J8465D01*
G01*
X417555Y-94095D02*
G03*
X426019Y-85630I0J8465D01*
G01*
X428381D02*
G03*
X436846Y-94095I8465J0D01*
G01*
X443539Y-94095D02*
G03*
X452003Y-85630I0J8465D01*
G01*
X426019Y-104528D02*
G03*
X417555Y-96063I-8465J0D01*
G01*
X452003Y-104528D02*
G03*
X443539Y-96063I-8465J0D01*
G01*
X428381Y-116732D02*
G03*
X436846Y-125197I8465J0D01*
G01*
Y-96063D02*
G03*
X428381Y-104528I0J-8465D01*
G01*
X417555Y-125197D02*
G03*
X426019Y-116732I0J8465D01*
G01*
X428381Y-54528D02*
G03*
X436846Y-62992I8465J0D01*
G01*
Y-64961D02*
G03*
X428381Y-73425I-0J-8465D01*
G01*
X452003D02*
G03*
X443539Y-64961I-8465J-0D01*
G01*
X462830D02*
G03*
X454365Y-73425I-0J-8465D01*
G01*
Y-54528D02*
G03*
X462830Y-62992I8465J0D01*
G01*
X426019Y-73425D02*
G03*
X417555Y-64961I-8465J-0D01*
G01*
X443539Y-62992D02*
G03*
X452003Y-54528I0J8465D01*
G01*
X417555Y-62992D02*
G03*
X426019Y-54528I0J8465D01*
G01*
X350429Y-54528D02*
G03*
X358893Y-62992I8465J0D01*
G01*
Y-64961D02*
G03*
X350429Y-73425I0J-8465D01*
G01*
X339602Y-62992D02*
G03*
X348066Y-54528I0J8465D01*
G01*
X332909Y-64961D02*
G03*
X324444Y-73425I-0J-8465D01*
G01*
Y-54528D02*
G03*
X332909Y-62992I8465J0D01*
G01*
X348066Y-73425D02*
G03*
X339602Y-64961I-8465J-0D01*
G01*
X365586Y-125197D02*
G03*
X374051Y-116732I-0J8465D01*
G01*
X376413D02*
G03*
X384877Y-125197I8465J-0D01*
G01*
X358893Y-96063D02*
G03*
X350429Y-104528I0J-8465D01*
G01*
X374051D02*
G03*
X365586Y-96063I-8465J0D01*
G01*
X384877Y-96063D02*
G03*
X376413Y-104528I0J-8465D01*
G01*
X350429Y-85630D02*
G03*
X358893Y-94095I8465J0D01*
G01*
X350429Y-116732D02*
G03*
X358893Y-125197I8465J-0D01*
G01*
X374051Y-73425D02*
G03*
X365586Y-64961I-8465J0D01*
G01*
X376413Y-85630D02*
G03*
X384877Y-94095I8465J0D01*
G01*
X376413Y-54528D02*
G03*
X384877Y-62992I8465J0D01*
G01*
Y-64961D02*
G03*
X376413Y-73425I0J-8465D01*
G01*
X365586Y-94095D02*
G03*
X374051Y-85630I0J8465D01*
G01*
X365586Y-62992D02*
G03*
X374051Y-54528I0J8465D01*
G01*
X298460Y-85630D02*
G03*
X306925Y-94095I8465J0D01*
G01*
X298460Y-54528D02*
G03*
X306925Y-62992I8465J0D01*
G01*
Y-64961D02*
G03*
X298460Y-73425I-0J-8465D01*
G01*
Y-116732D02*
G03*
X306925Y-125197I8465J0D01*
G01*
Y-96063D02*
G03*
X298460Y-104528I0J-8465D01*
G01*
X410862Y-158268D02*
G03*
X402397Y-166732I0J-8465D01*
G01*
X374051Y-166732D02*
G03*
X365586Y-158268I-8465J0D01*
G01*
X426019Y-166732D02*
G03*
X417555Y-158268I-8465J0D01*
G01*
X384877D02*
G03*
X376413Y-166732I0J-8465D01*
G01*
X400035Y-166732D02*
G03*
X391570Y-158268I-8465J0D01*
G01*
X384877Y-127165D02*
G03*
X376413Y-135630I0J-8465D01*
G01*
X358893Y-127165D02*
G03*
X350429Y-135630I0J-8465D01*
G01*
X374051D02*
G03*
X365586Y-127165I-8465J0D01*
G01*
X417555Y-155905D02*
G03*
X425625Y-147835I0J8071D01*
G01*
Y-135630D02*
G03*
X417555Y-127559I-8071J0D01*
G01*
X391570Y-156299D02*
G03*
X400035Y-147835I-0J8465D01*
G01*
X402791D02*
G03*
X410862Y-155905I8071J0D01*
G01*
X400035Y-135630D02*
G03*
X391570Y-127165I-8465J0D01*
G01*
X410862Y-127559D02*
G03*
X402791Y-135630I0J-8071D01*
G01*
X436846Y-158268D02*
G03*
X428381Y-166732I0J-8465D01*
G01*
X452003D02*
G03*
X443539Y-158268I-8465J0D01*
G01*
X436846Y-127165D02*
G03*
X428381Y-135630I0J-8465D01*
G01*
X443539Y-156299D02*
G03*
X452003Y-147835I0J8465D01*
G01*
Y-135630D02*
G03*
X443539Y-127165I-8465J0D01*
G01*
X428381Y-147835D02*
G03*
X436846Y-156299I8465J0D01*
G01*
X332909Y-127165D02*
G03*
X324444Y-135630I0J-8465D01*
G01*
X348066D02*
G03*
X339602Y-127165I-8465J0D01*
G01*
X322082Y-135630D02*
G03*
X313617Y-127165I-8465J0D01*
G01*
X306925D02*
G03*
X298460Y-135630I0J-8465D01*
G01*
Y-147835D02*
G03*
X306925Y-156299I8465J0D01*
G01*
X313617D02*
G03*
X322082Y-147835I0J8465D01*
G01*
X324444D02*
G03*
X332909Y-156299I8465J0D01*
G01*
X365586D02*
G03*
X374051Y-147835I-0J8465D01*
G01*
X339602Y-156299D02*
G03*
X348066Y-147835I0J8465D01*
G01*
X350429Y-147835D02*
G03*
X358893Y-156299I8465J-0D01*
G01*
X376413Y-147835D02*
G03*
X384877Y-156299I8465J-0D01*
G01*
X177003Y-158268D02*
G03*
X168539Y-166732I0J-8465D01*
G01*
X192161D02*
G03*
X183696Y-158268I-8465J0D01*
G01*
X142554Y-147835D02*
G03*
X151019Y-156299I8465J0D01*
G01*
Y-127165D02*
G03*
X142554Y-135630I0J-8465D01*
G01*
Y-116732D02*
G03*
X151019Y-125197I8465J0D01*
G01*
X166176Y-166732D02*
G03*
X157712Y-158268I-8465J0D01*
G01*
X151019D02*
G03*
X142554Y-166732I0J-8465D01*
G01*
X244129Y-166732D02*
G03*
X235665Y-158268I-8465J0D01*
G01*
X254956D02*
G03*
X246492Y-166732I0J-8465D01*
G01*
X202988Y-158268D02*
G03*
X194523Y-166732I0J-8465D01*
G01*
X218145D02*
G03*
X209681Y-158268I-8465J0D01*
G01*
X228972Y-158268D02*
G03*
X220507Y-166732I0J-8465D01*
G01*
X246492Y-178937D02*
G03*
X254956Y-187402I8465J-0D01*
G01*
X142554Y-178937D02*
G03*
X151019Y-187402I8465J0D01*
G01*
X157712D02*
G03*
X166176Y-178937I0J8465D01*
G01*
X235665Y-187402D02*
G03*
X244129Y-178937I-0J8465D01*
G01*
X376413D02*
G03*
X384877Y-187402I8465J-0D01*
G01*
X365586Y-187402D02*
G03*
X374051Y-178937I-0J8465D01*
G01*
X477988Y-166732D02*
G03*
X469523Y-158268I-8465J0D01*
G01*
Y-187402D02*
G03*
X477988Y-178937I0J8465D01*
G01*
X443539Y-187402D02*
G03*
X452003Y-178937I0J8465D01*
G01*
X454365D02*
G03*
X462830Y-187402I8465J0D01*
G01*
X428381Y-178937D02*
G03*
X436846Y-187402I8465J0D01*
G01*
X462830Y-158268D02*
G03*
X454365Y-166732I0J-8465D01*
G01*
X220507Y-178937D02*
G03*
X228972Y-187402I8465J-0D01*
G01*
X209681Y-187402D02*
G03*
X218145Y-178937I0J8465D01*
G01*
X194523D02*
G03*
X202988Y-187402I8465J0D01*
G01*
X168539Y-178937D02*
G03*
X177003Y-187402I8465J0D01*
G01*
X183696D02*
G03*
X192161Y-178937I0J8465D01*
G01*
X142554Y-54528D02*
G03*
X151019Y-62992I8465J0D01*
G01*
X151019Y-96063D02*
G03*
X142554Y-104528I0J-8465D01*
G01*
Y-85630D02*
G03*
X151019Y-94095I8465J0D01*
G01*
Y-64961D02*
G03*
X142554Y-73425I-0J-8465D01*
G01*
X477988Y-135630D02*
G03*
X469523Y-127165I-8465J0D01*
G01*
X454365Y-147835D02*
G03*
X462830Y-156299I8465J0D01*
G01*
X469523D02*
G03*
X477988Y-147835I0J8465D01*
G01*
X462830Y-127165D02*
G03*
X454365Y-135630I0J-8465D01*
G01*
X402397Y-178937D02*
G03*
X410862Y-187402I8465J0D01*
G01*
X391570Y-187402D02*
G03*
X400035Y-178937I-0J8465D01*
G01*
X417555Y-187402D02*
G03*
X426019Y-178937I0J8465D01*
G01*
X202988Y-127165D02*
G03*
X194523Y-135630I0J-8465D01*
G01*
Y-116732D02*
G03*
X202988Y-125197I8465J0D01*
G01*
X209681Y-156299D02*
G03*
X218145Y-147835I0J8465D01*
G01*
X209681Y-125197D02*
G03*
X218145Y-116732I0J8465D01*
G01*
Y-135630D02*
G03*
X209681Y-127165I-8465J0D01*
G01*
X194523Y-147835D02*
G03*
X202988Y-156299I8465J0D01*
G01*
X194523Y-85630D02*
G03*
X202988Y-94095I8465J0D01*
G01*
Y-96063D02*
G03*
X194523Y-104528I0J-8465D01*
G01*
X218145D02*
G03*
X209681Y-96063I-8465J0D01*
G01*
Y-94095D02*
G03*
X218145Y-85630I0J8465D01*
G01*
X183696Y-94095D02*
G03*
X192161Y-85630I0J8465D01*
G01*
X192161Y-135630D02*
G03*
X183696Y-127165I-8465J0D01*
G01*
Y-156299D02*
G03*
X192161Y-147835I0J8465D01*
G01*
Y-104528D02*
G03*
X183696Y-96063I-8465J0D01*
G01*
Y-125197D02*
G03*
X192161Y-116732I0J8465D01*
G01*
X202988Y-33858D02*
G03*
X194523Y-42323I0J-8465D01*
G01*
X218145D02*
G03*
X209681Y-33858I-8465J0D01*
G01*
Y-62992D02*
G03*
X218145Y-54528I0J8465D01*
G01*
X192161Y-73425D02*
G03*
X183696Y-64961I-8465J-0D01*
G01*
Y-62992D02*
G03*
X192161Y-54528I0J8465D01*
G01*
X192161Y-42323D02*
G03*
X183696Y-33858I-8465J0D01*
G01*
X218145Y-73425D02*
G03*
X209681Y-64961I-8465J-0D01*
G01*
X202988D02*
G03*
X194523Y-73425I-0J-8465D01*
G01*
Y-54528D02*
G03*
X202988Y-62992I8465J0D01*
G01*
X168539Y-85630D02*
G03*
X177003Y-94095I8465J0D01*
G01*
X168539Y-147835D02*
G03*
X177003Y-156299I8465J0D01*
G01*
Y-127165D02*
G03*
X168539Y-135630I0J-8465D01*
G01*
X177003Y-96063D02*
G03*
X168539Y-104528I0J-8465D01*
G01*
Y-116732D02*
G03*
X177003Y-125197I8465J0D01*
G01*
X166176Y-42323D02*
G03*
X157712Y-33858I-8465J0D01*
G01*
X168539Y-54528D02*
G03*
X177003Y-62992I8465J0D01*
G01*
Y-64961D02*
G03*
X168539Y-73425I-0J-8465D01*
G01*
X177003Y-33858D02*
G03*
X168539Y-42323I0J-8465D01*
G01*
X166176Y-73425D02*
G03*
X157712Y-64961I-8465J-0D01*
G01*
Y-62992D02*
G03*
X166176Y-54528I0J8465D01*
G01*
X157712Y-94095D02*
G03*
X166176Y-85630I0J8465D01*
G01*
X166176Y-104528D02*
G03*
X157712Y-96063I-8465J0D01*
G01*
Y-125197D02*
G03*
X166176Y-116732I0J8465D01*
G01*
X157712Y-156299D02*
G03*
X166176Y-147835I0J8465D01*
G01*
Y-135630D02*
G03*
X157712Y-127165I-8465J0D01*
G01*
X442259Y-21063D02*
G03*
X450724Y-29528I8465J0D01*
G01*
X431432D02*
G03*
X439897Y-21063I0J8465D01*
G01*
X469523Y-29528D02*
G03*
X477988Y-21063I0J8465D01*
G01*
X327988Y-21063D02*
G03*
X336468Y-29528I8465J-0D01*
G01*
X355251D02*
G03*
X363716Y-21063I0J8465D01*
G01*
X292554Y-8858D02*
G03*
X284074Y-394I-8465J0D01*
G01*
X284089Y-29528D02*
G03*
X292554Y-21063I1J8465D01*
G01*
X401806Y-8858D02*
G03*
X393342Y-394I-8465J-0D01*
G01*
X412633D02*
G03*
X404169Y-8858I-0J-8465D01*
G01*
X374543Y-394D02*
G03*
X366078Y-8858I-0J-8465D01*
G01*
X439897D02*
G03*
X431432Y-394I-8465J-0D01*
G01*
X450724D02*
G03*
X442259Y-8858I-0J-8465D01*
G01*
X363716Y-8858D02*
G03*
X355267Y-394I-8465J0D01*
G01*
X477988Y-8858D02*
G03*
X469523Y-394I-8465J-0D01*
G01*
X336453Y-394D02*
G03*
X327988Y-8858I-1J-8465D01*
G01*
X348066Y-42323D02*
G03*
X339602Y-33858I-8465J0D01*
G01*
X358893D02*
G03*
X350429Y-42323I0J-8465D01*
G01*
X322082Y-42323D02*
G03*
X313617Y-33858I-8465J0D01*
G01*
X306925D02*
G03*
X298460Y-42323I0J-8465D01*
G01*
X332909Y-33858D02*
G03*
X324444Y-42323I0J-8465D01*
G01*
X265291Y-394D02*
G03*
X256826Y-8858I0J-8465D01*
G01*
Y-21063D02*
G03*
X265275Y-29528I8465J0D01*
G01*
X245999Y-29528D02*
G03*
X254464Y-21063I0J8465D01*
G01*
X227200Y-394D02*
G03*
X218736Y-8858I-0J-8465D01*
G01*
X254464D02*
G03*
X245999Y-394I-8465J-0D01*
G01*
X218736Y-21063D02*
G03*
X227200Y-29528I8465J0D01*
G01*
X400035Y-42323D02*
G03*
X391570Y-33858I-8465J0D01*
G01*
X384877Y-33858D02*
G03*
X376413Y-42323I0J-8465D01*
G01*
X374051D02*
G03*
X365586Y-33858I-8465J0D01*
G01*
X366078Y-21063D02*
G03*
X374543Y-29528I8465J0D01*
G01*
X410862Y-33858D02*
G03*
X402397Y-42323I0J-8465D01*
G01*
X404169Y-21063D02*
G03*
X412633Y-29528I8465J0D01*
G01*
X393342D02*
G03*
X401806Y-21063I0J8465D01*
G01*
X180645D02*
G03*
X189110Y-29528I8465J0D01*
G01*
X207909D02*
G03*
X216373Y-21063I0J8465D01*
G01*
X178283Y-8858D02*
G03*
X169818Y-394I-8465J-0D01*
G01*
Y-29528D02*
G03*
X178283Y-21063I0J8465D01*
G01*
X216373Y-8858D02*
G03*
X207909Y-394I-8465J-0D01*
G01*
X189110D02*
G03*
X180645Y-8858I-0J-8465D01*
G01*
X142554Y-21063D02*
G03*
X151019Y-29528I8465J0D01*
G01*
Y-394D02*
G03*
X142554Y-8858I-0J-8465D01*
G01*
X151019Y-33858D02*
G03*
X142554Y-42323I0J-8465D01*
G01*
X426019D02*
G03*
X417555Y-33858I-8465J0D01*
G01*
X452003Y-42323D02*
G03*
X443539Y-33858I-8465J0D01*
G01*
X462830D02*
G03*
X454365Y-42323I0J-8465D01*
G01*
X477988D02*
G03*
X469523Y-33858I-8465J0D01*
G01*
X436846D02*
G03*
X428381Y-42323I0J-8465D01*
G01*
X497259Y-196851D02*
G03*
X505134Y-188976I0J7875D01*
G01*
X115368D02*
G03*
X123243Y-196851I7875J0D01*
G01*
Y11812D02*
G03*
X115368Y3937I0J-7875D01*
G01*
X505134D02*
G03*
X497259Y11812I-7875J0D01*
G01*
X270113Y-147835D02*
Y-135630D01*
X235665Y-125197D02*
X228972D01*
X261649D02*
X254956D01*
X235665Y-156299D02*
X228972D01*
X235665Y-127165D02*
X228972D01*
X261649D02*
X254956D01*
X261649Y-156299D02*
X254956D01*
X246492Y-147835D02*
Y-135630D01*
X244129Y-147835D02*
Y-135630D01*
X270113Y-116732D02*
Y-104528D01*
X261649Y-96063D02*
X254956D01*
X270113Y-85630D02*
Y-73425D01*
X272476Y-85630D02*
Y-73425D01*
X261649Y-94095D02*
X254956D01*
X272476Y-116732D02*
Y-104528D01*
X235665Y-94095D02*
X228972D01*
X246492Y-116732D02*
Y-104528D01*
Y-85630D02*
Y-73425D01*
X244129Y-85630D02*
Y-73425D01*
X235665Y-96063D02*
X228972D01*
X244129Y-116732D02*
Y-104528D01*
X218145Y-147835D02*
Y-135630D01*
X220507Y-116732D02*
Y-104528D01*
Y-147835D02*
Y-135630D01*
Y-85630D02*
Y-73425D01*
X218145Y-85630D02*
Y-73425D01*
Y-116732D02*
Y-104528D01*
X270113Y-54528D02*
Y-42323D01*
X244129Y-54528D02*
Y-42323D01*
X220507Y-54528D02*
Y-42323D01*
X272476Y-54528D02*
Y-42323D01*
X246492Y-54528D02*
Y-42323D01*
X261649Y-33858D02*
X254956D01*
X287633D02*
X280940D01*
X235665D02*
X228972D01*
X287633Y-62992D02*
X280940D01*
X261649Y-64961D02*
X254956D01*
X235665Y-62992D02*
X228972D01*
X261649D02*
X254956D01*
X235665Y-64961D02*
X228972D01*
X287633D02*
X280940D01*
X287633Y-125197D02*
X280940D01*
X287633Y-94095D02*
X280940D01*
X287633Y-127165D02*
X280940D01*
X287633Y-96063D02*
X280940D01*
X287633Y-156299D02*
X280940D01*
X272476Y-147835D02*
Y-135630D01*
X296098Y-54528D02*
Y-42323D01*
Y-116732D02*
Y-104528D01*
Y-147835D02*
Y-135630D01*
Y-85630D02*
Y-73425D01*
X348066Y-85630D02*
Y-73425D01*
X350429Y-85630D02*
Y-73425D01*
X339602Y-94095D02*
X332909D01*
X339602Y-96063D02*
X332909D01*
X348066Y-116732D02*
Y-104528D01*
X339602Y-125197D02*
X332909D01*
X350429Y-116732D02*
Y-104528D01*
X469523Y-64961D02*
X462830D01*
X469523Y-94095D02*
X462830D01*
X469523Y-62992D02*
X462830D01*
X477988Y-85630D02*
Y-73425D01*
X417555Y-94095D02*
X410862D01*
X402397Y-116732D02*
Y-104528D01*
X417555Y-96063D02*
X410862D01*
X400035Y-116732D02*
Y-104528D01*
X417555Y-125197D02*
X410862D01*
X322082Y-116732D02*
Y-104528D01*
Y-85630D02*
Y-73425D01*
X324444Y-85630D02*
Y-73425D01*
Y-116732D02*
Y-104528D01*
X469523Y-96063D02*
X462830D01*
X477988Y-116732D02*
Y-104528D01*
X469523Y-125197D02*
X462830D01*
X454365Y-116732D02*
Y-104528D01*
X417555Y-64961D02*
X410862D01*
X402397Y-85630D02*
Y-73425D01*
X400035Y-85630D02*
Y-73425D01*
X417555Y-62992D02*
X410862D01*
X443539Y-96063D02*
X436846D01*
X443539Y-125197D02*
X436846D01*
X452003Y-116732D02*
Y-104528D01*
X428381Y-116732D02*
Y-104528D01*
X426019Y-116732D02*
Y-104528D01*
X443539Y-94095D02*
X436846D01*
X426019Y-85630D02*
Y-73425D01*
X443539Y-62992D02*
X436846D01*
X428381Y-85630D02*
Y-73425D01*
X454365Y-85630D02*
Y-73425D01*
X443539Y-64961D02*
X436846D01*
X452003Y-85630D02*
Y-73425D01*
X365586Y-62992D02*
X358893D01*
X339602D02*
X332909D01*
X339602Y-64961D02*
X332909D01*
X365586D02*
X358893D01*
X374051Y-116732D02*
Y-104528D01*
X391570Y-96063D02*
X384877D01*
X365586D02*
X358893D01*
X365586Y-94095D02*
X358893D01*
X391570Y-125197D02*
X384877D01*
X365586D02*
X358893D01*
X376413Y-116732D02*
Y-104528D01*
X391570Y-62992D02*
X384877D01*
X391570Y-64961D02*
X384877D01*
X391570Y-94095D02*
X384877D01*
X374051Y-85630D02*
Y-73425D01*
X376413Y-85630D02*
Y-73425D01*
X313617Y-125197D02*
X306925D01*
X298460Y-116732D02*
Y-104528D01*
X313617Y-96063D02*
X306925D01*
X313617Y-94095D02*
X306925D01*
X313617Y-62992D02*
X306925D01*
X313617Y-64961D02*
X306925D01*
X298460Y-85630D02*
Y-73425D01*
X391570Y-156299D02*
X384877D01*
X391570Y-158268D02*
X384877D01*
X400035Y-178937D02*
Y-166732D01*
X417555Y-158268D02*
X410862D01*
X374051Y-178937D02*
Y-166732D01*
X402397Y-178937D02*
Y-166732D01*
X426019Y-178937D02*
Y-166732D01*
X376413Y-178937D02*
Y-166732D01*
X391570Y-127165D02*
X384877D01*
X350429Y-147835D02*
Y-135630D01*
X374051Y-147835D02*
Y-135630D01*
X376413Y-147835D02*
Y-135630D01*
X365586Y-127165D02*
X358893D01*
X425625Y-147835D02*
Y-135630D01*
X417555Y-127559D02*
X410862D01*
X417555Y-155905D02*
X410862D01*
X400035Y-147835D02*
Y-135630D01*
X402791Y-147835D02*
Y-135630D01*
X443539Y-158268D02*
X436846D01*
X443539Y-127165D02*
X436846D01*
X452003Y-178937D02*
Y-166732D01*
X428381Y-178937D02*
Y-166732D01*
X452003Y-147835D02*
Y-135630D01*
X454365Y-178937D02*
Y-166732D01*
X428381Y-147835D02*
Y-135630D01*
X454365Y-147835D02*
Y-135630D01*
X443539Y-156299D02*
X436846D01*
X348066Y-147835D02*
Y-135630D01*
X339602Y-127165D02*
X332909D01*
X313617D02*
X306925D01*
X298460Y-147835D02*
Y-135630D01*
X322082Y-147835D02*
Y-135630D01*
X324444Y-147835D02*
Y-135630D01*
X365586Y-158268D02*
X254956D01*
X313617Y-156299D02*
X306925D01*
X339602D02*
X332909D01*
X365586D02*
X358893D01*
X168539Y-178937D02*
Y-166732D01*
X192161Y-178937D02*
Y-166732D01*
X142554Y-147835D02*
Y-135630D01*
X166176Y-178937D02*
Y-166732D01*
X157712Y-158268D02*
X151019D01*
X183696D02*
X177003D01*
X142554Y-178937D02*
Y-166732D01*
X235665Y-158268D02*
X228972D01*
X209681D02*
X202988D01*
X244129Y-178937D02*
Y-166732D01*
X220507Y-178937D02*
Y-166732D01*
X218145Y-178937D02*
Y-166732D01*
X246492Y-178937D02*
Y-166732D01*
X194523Y-178937D02*
Y-166732D01*
X235665Y-187402D02*
X228972D01*
X142554Y-116732D02*
Y-104528D01*
X157712Y-187402D02*
X151019D01*
X365586D02*
X254956D01*
X391570D02*
X384877D01*
X443539D02*
X436846D01*
X469523Y-158268D02*
X462830D01*
X477988Y-178937D02*
Y-166732D01*
X469523Y-187402D02*
X462830D01*
X209681D02*
X202988D01*
X183696D02*
X177003D01*
X142554Y-85630D02*
Y-73425D01*
X469523Y-156299D02*
X462830D01*
X469523Y-127165D02*
X462830D01*
X477988Y-147835D02*
Y-135630D01*
X417555Y-187402D02*
X410862D01*
X209681Y-127165D02*
X202988D01*
X209681Y-125197D02*
X202988D01*
X209681Y-156299D02*
X202988D01*
X183696Y-96063D02*
X177003D01*
X183696Y-94095D02*
X177003D01*
X183696Y-125197D02*
X177003D01*
X183696Y-127165D02*
X177003D01*
X183696Y-156299D02*
X177003D01*
X209681Y-96063D02*
X202988D01*
X209681Y-94095D02*
X202988D01*
X192161Y-85630D02*
Y-73425D01*
X194523Y-116732D02*
Y-104528D01*
X192161Y-147835D02*
Y-135630D01*
Y-116732D02*
Y-104528D01*
X194523Y-147835D02*
Y-135630D01*
Y-85630D02*
Y-73425D01*
X209681Y-64961D02*
X202988D01*
X192161Y-54528D02*
Y-42323D01*
X209681Y-33858D02*
X202988D01*
X194523Y-54528D02*
Y-42323D01*
X209681Y-62992D02*
X202988D01*
X218145Y-54528D02*
Y-42323D01*
X168539Y-116732D02*
Y-104528D01*
Y-85630D02*
Y-73425D01*
X166176Y-116732D02*
Y-104528D01*
Y-85630D02*
Y-73425D01*
Y-147835D02*
Y-135630D01*
X168539Y-147835D02*
Y-135630D01*
X183696Y-33858D02*
X177003D01*
X183696Y-62992D02*
X177003D01*
X157712D02*
X151019D01*
X183696Y-64961D02*
X177003D01*
X168539Y-54528D02*
Y-42323D01*
X157712Y-33858D02*
X151019D01*
X166176Y-54528D02*
Y-42323D01*
X157712Y-64961D02*
X151019D01*
X157712Y-156299D02*
X151019D01*
X157712Y-125197D02*
X151019D01*
X157712Y-96063D02*
X151019D01*
X157712Y-127165D02*
X151019D01*
X157712Y-94095D02*
X151019D01*
X442259Y-21063D02*
Y-8858D01*
X477988Y-21063D02*
Y-8858D01*
X439897Y-21063D02*
Y-8858D01*
X400035Y-54528D02*
Y-42323D01*
X477988Y-54528D02*
Y-42323D01*
X454365Y-54528D02*
Y-42323D01*
X452003Y-54528D02*
Y-42323D01*
X426019Y-54528D02*
Y-42323D01*
X402397Y-54528D02*
Y-42323D01*
X374051Y-54528D02*
Y-42323D01*
X376413Y-54528D02*
Y-42323D01*
X428381Y-54528D02*
Y-42323D01*
X363716Y-21063D02*
Y-8858D01*
X327988Y-21063D02*
Y-8858D01*
X355251Y-29528D02*
X336468D01*
X284089D02*
X265275Y-29528D01*
X284074Y-394D02*
X265291D01*
X292554Y-21063D02*
Y-8858D01*
X393342Y-394D02*
X374543D01*
X355267Y-394D02*
X336453Y-394D01*
X431432D02*
X412633D01*
X469523D02*
X450724D01*
X365586Y-33858D02*
X358893D01*
X348066Y-54528D02*
Y-42323D01*
X350429Y-54528D02*
Y-42323D01*
X339602Y-33858D02*
X332909D01*
X298460Y-54528D02*
Y-42323D01*
X313617Y-33858D02*
X306925D01*
X324444Y-54528D02*
Y-42323D01*
X322082Y-54528D02*
Y-42323D01*
X245999Y-29528D02*
X227200D01*
X245999Y-394D02*
X227200D01*
X254464Y-21063D02*
Y-8858D01*
X218736Y-21063D02*
Y-8858D01*
X256826Y-21063D02*
Y-8858D01*
X366078Y-21063D02*
Y-8858D01*
X404169Y-21063D02*
Y-8858D01*
X393342Y-29528D02*
X374543D01*
X401806Y-21063D02*
Y-8858D01*
X391570Y-33858D02*
X384877D01*
X207909Y-29528D02*
X189110D01*
X207909Y-394D02*
X189110D01*
X180645Y-21063D02*
Y-8858D01*
X216373Y-21063D02*
Y-8858D01*
X178283Y-21063D02*
Y-8858D01*
X142554Y-54528D02*
Y-42323D01*
X169818Y-394D02*
X151019D01*
X142554Y-21063D02*
Y-8858D01*
X169818Y-29528D02*
X151019D01*
X417555Y-33858D02*
X410862D01*
X469523D02*
X462830D01*
X431432Y-29528D02*
X412633D01*
X469523D02*
X450724D01*
X443539Y-33858D02*
X436846D01*
X505133Y-188977D02*
Y3938D01*
X497260Y-196850D02*
X123243D01*
X115369Y-188977D02*
Y3937D01*
X497260Y11811D02*
X123243D01*
M02*
