G04*
G04 #@! TF.GenerationSoftware,Altium Limited,Altium Designer,24.2.2 (26)*
G04*
G04 Layer_Color=417716*
%FSLAX25Y25*%
%MOIN*%
G70*
G04*
G04 #@! TF.SameCoordinates,661FBD00-BEF8-4439-B900-685B4A6DAB74*
G04*
G04*
G04 #@! TF.FilePolarity,Positive*
G04*
G01*
G75*
%ADD10C,0.00394*%
D10*
X40138Y-116732D02*
G03*
X48602Y-125197I8465J-0D01*
G01*
X40138Y-147835D02*
G03*
X48602Y-156299I8465J-0D01*
G01*
X66122Y-116732D02*
G03*
X74587Y-125197I8465J-0D01*
G01*
X55295D02*
G03*
X63760Y-116732I-0J8465D01*
G01*
X48602Y-127165D02*
G03*
X40138Y-135630I0J-8465D01*
G01*
X66122Y-147835D02*
G03*
X74587Y-156299I8465J-0D01*
G01*
Y-127165D02*
G03*
X66122Y-135630I0J-8465D01*
G01*
X63760D02*
G03*
X55295Y-127165I-8465J0D01*
G01*
Y-156299D02*
G03*
X63760Y-147835I-0J8465D01*
G01*
X48602Y-96063D02*
G03*
X40138Y-104528I0J-8465D01*
G01*
Y-85630D02*
G03*
X48602Y-94095I8465J0D01*
G01*
X55295D02*
G03*
X63760Y-85630I0J8465D01*
G01*
X74587Y-96063D02*
G03*
X66122Y-104528I0J-8465D01*
G01*
X63760D02*
G03*
X55295Y-96063I-8465J0D01*
G01*
X66122Y-85630D02*
G03*
X74587Y-94095I8465J0D01*
G01*
X89744Y-135630D02*
G03*
X81279Y-127165I-8465J0D01*
G01*
X81279Y-94095D02*
G03*
X89744Y-85630I0J8465D01*
G01*
X81279Y-125197D02*
G03*
X89744Y-116732I-0J8465D01*
G01*
X81279Y-156299D02*
G03*
X89744Y-147835I-0J8465D01*
G01*
Y-104528D02*
G03*
X81279Y-96063I-8465J0D01*
G01*
X89744Y-42323D02*
G03*
X81279Y-33858I-8465J0D01*
G01*
X63760Y-42323D02*
G03*
X55295Y-33858I-8465J0D01*
G01*
X48602D02*
G03*
X40138Y-42323I0J-8465D01*
G01*
X37776Y-42323D02*
G03*
X29311Y-33858I-8465J0D01*
G01*
X74587D02*
G03*
X66122Y-42323I0J-8465D01*
G01*
X37776Y-73425D02*
G03*
X29311Y-64961I-8465J-0D01*
G01*
X89744Y-73425D02*
G03*
X81279Y-64961I-8465J0D01*
G01*
X40138Y-54528D02*
G03*
X48602Y-62992I8465J0D01*
G01*
X55295D02*
G03*
X63760Y-54528I0J8465D01*
G01*
X48602Y-64961D02*
G03*
X40138Y-73425I0J-8465D01*
G01*
X29311Y-62992D02*
G03*
X37776Y-54528I0J8465D01*
G01*
X63760Y-73425D02*
G03*
X55295Y-64961I-8465J0D01*
G01*
X74587D02*
G03*
X66122Y-73425I0J-8465D01*
G01*
Y-54528D02*
G03*
X74587Y-62992I8465J0D01*
G01*
X81279D02*
G03*
X89744Y-54528I0J8465D01*
G01*
X29311Y-125197D02*
G03*
X37776Y-116732I0J8465D01*
G01*
Y-104528D02*
G03*
X29311Y-96063I-8465J0D01*
G01*
Y-156299D02*
G03*
X37776Y-147835I0J8465D01*
G01*
X29311Y-94095D02*
G03*
X37776Y-85630I0J8465D01*
G01*
Y-135630D02*
G03*
X29311Y-127165I-8465J0D01*
G01*
X14153Y-147835D02*
G03*
X22618Y-156299I8465J0D01*
G01*
Y-127165D02*
G03*
X14153Y-135630I0J-8465D01*
G01*
X22618Y-96063D02*
G03*
X14153Y-104528I0J-8465D01*
G01*
Y-85630D02*
G03*
X22618Y-94095I8465J0D01*
G01*
X14153Y-116732D02*
G03*
X22618Y-125197I8465J0D01*
G01*
Y-33858D02*
G03*
X14153Y-42323I0J-8465D01*
G01*
Y-54528D02*
G03*
X22618Y-62992I8465J0D01*
G01*
Y-64961D02*
G03*
X14153Y-73425I-0J-8465D01*
G01*
X-37815Y-85630D02*
G03*
X-29350Y-94095I8465J0D01*
G01*
Y-96063D02*
G03*
X-37815Y-104528I0J-8465D01*
G01*
Y-116732D02*
G03*
X-29350Y-125197I8465J0D01*
G01*
X-159272Y-64961D02*
G03*
X-167736Y-73425I-0J-8465D01*
G01*
Y-54528D02*
G03*
X-159272Y-62992I8465J0D01*
G01*
X-167736Y-85630D02*
G03*
X-159272Y-94095I8465J0D01*
G01*
X-152579Y-94095D02*
G03*
X-144114Y-85630I0J8465D01*
G01*
X-89784Y-116732D02*
G03*
X-81319Y-125197I8465J-0D01*
G01*
X-89784Y-85630D02*
G03*
X-81319Y-94095I8465J0D01*
G01*
X-81319Y-96063D02*
G03*
X-89784Y-104528I0J-8465D01*
G01*
X-92146D02*
G03*
X-100610Y-96063I-8465J0D01*
G01*
Y-125197D02*
G03*
X-92146Y-116732I0J8465D01*
G01*
X-100610Y-94095D02*
G03*
X-92146Y-85630I0J8465D01*
G01*
X-11831Y-54528D02*
G03*
X-3366Y-62992I8465J0D01*
G01*
Y-64961D02*
G03*
X-11831Y-73425I-0J-8465D01*
G01*
X-3366Y-96063D02*
G03*
X-11831Y-104528I0J-8465D01*
G01*
Y-116732D02*
G03*
X-3366Y-125197I8465J0D01*
G01*
X-11831Y-85630D02*
G03*
X-3366Y-94095I8465J0D01*
G01*
X-22658Y-125197D02*
G03*
X-14193Y-116732I0J8465D01*
G01*
X-22658Y-94095D02*
G03*
X-14193Y-85630I0J8465D01*
G01*
Y-104528D02*
G03*
X-22658Y-96063I-8465J0D01*
G01*
X-144114Y-104528D02*
G03*
X-152579Y-96063I-8465J0D01*
G01*
X-167736Y-116732D02*
G03*
X-159272Y-125197I8465J0D01*
G01*
Y-96063D02*
G03*
X-167736Y-104528I0J-8465D01*
G01*
X-152579Y-125197D02*
G03*
X-144114Y-116732I0J8465D01*
G01*
X-100610Y-62992D02*
G03*
X-92146Y-54528I0J8465D01*
G01*
X-81319Y-64961D02*
G03*
X-89784Y-73425I0J-8465D01*
G01*
X-92146Y-73425D02*
G03*
X-100610Y-64961I-8465J-0D01*
G01*
X-89784Y-54528D02*
G03*
X-81319Y-62992I8465J0D01*
G01*
X-141752Y-116732D02*
G03*
X-133287Y-125197I8465J0D01*
G01*
X-115768Y-85630D02*
G03*
X-107303Y-94095I8465J0D01*
G01*
X-126594D02*
G03*
X-118130Y-85630I0J8465D01*
G01*
X-141752Y-85630D02*
G03*
X-133287Y-94095I8465J0D01*
G01*
X-107303Y-96063D02*
G03*
X-115768Y-104528I0J-8465D01*
G01*
X-133287Y-96063D02*
G03*
X-141752Y-104528I0J-8465D01*
G01*
X-126594Y-125197D02*
G03*
X-118130Y-116732I0J8465D01*
G01*
Y-104528D02*
G03*
X-126594Y-96063I-8465J0D01*
G01*
X-115768Y-116732D02*
G03*
X-107303Y-125197I8465J0D01*
G01*
X-126594Y-62992D02*
G03*
X-118130Y-54528I0J8465D01*
G01*
Y-73425D02*
G03*
X-126594Y-64961I-8465J-0D01*
G01*
X-133287D02*
G03*
X-141752Y-73425I-0J-8465D01*
G01*
X-144114D02*
G03*
X-152579Y-64961I-8465J-0D01*
G01*
Y-62992D02*
G03*
X-144114Y-54528I0J8465D01*
G01*
X-107303Y-64961D02*
G03*
X-115768Y-73425I-0J-8465D01*
G01*
X-141752Y-54528D02*
G03*
X-133287Y-62992I8465J0D01*
G01*
X-115768Y-54528D02*
G03*
X-107303Y-62992I8465J0D01*
G01*
X-48642Y-62992D02*
G03*
X-40177Y-54528I0J8465D01*
G01*
Y-73425D02*
G03*
X-48642Y-64961I-8465J0D01*
G01*
X-37815Y-54528D02*
G03*
X-29350Y-62992I8465J0D01*
G01*
X-14193Y-73425D02*
G03*
X-22658Y-64961I-8465J-0D01*
G01*
Y-62992D02*
G03*
X-14193Y-54528I0J8465D01*
G01*
X-29350Y-64961D02*
G03*
X-37815Y-73425I-0J-8465D01*
G01*
X-63799Y-116732D02*
G03*
X-55335Y-125197I8465J-0D01*
G01*
X-74626D02*
G03*
X-66161Y-116732I-0J8465D01*
G01*
X-40177Y-104528D02*
G03*
X-48642Y-96063I-8465J0D01*
G01*
X-55335D02*
G03*
X-63799Y-104528I0J-8465D01*
G01*
X-66161Y-104528D02*
G03*
X-74626Y-96063I-8465J0D01*
G01*
X-48642Y-94095D02*
G03*
X-40177Y-85630I0J8465D01*
G01*
X-48642Y-125197D02*
G03*
X-40177Y-116732I-0J8465D01*
G01*
X-55335Y-64961D02*
G03*
X-63799Y-73425I0J-8465D01*
G01*
X-74626Y-94095D02*
G03*
X-66161Y-85630I0J8465D01*
G01*
X-74626Y-62992D02*
G03*
X-66161Y-54528I0J8465D01*
G01*
Y-73425D02*
G03*
X-74626Y-64961I-8465J0D01*
G01*
X-63799Y-85630D02*
G03*
X-55335Y-94095I8465J0D01*
G01*
X-63799Y-54528D02*
G03*
X-55335Y-62992I8465J0D01*
G01*
X3327Y-94095D02*
G03*
X11791Y-85630I0J8465D01*
G01*
X3327Y-62992D02*
G03*
X11791Y-54528I0J8465D01*
G01*
Y-73425D02*
G03*
X3327Y-64961I-8465J-0D01*
G01*
X3327Y-125197D02*
G03*
X11791Y-116732I0J8465D01*
G01*
Y-104528D02*
G03*
X3327Y-96063I-8465J0D01*
G01*
X-92146Y-166732D02*
G03*
X-100610Y-158268I-8465J0D01*
G01*
X-55335D02*
G03*
X-63799Y-166732I0J-8465D01*
G01*
X-107303Y-158268D02*
G03*
X-115768Y-166732I0J-8465D01*
G01*
X-66161Y-166732D02*
G03*
X-74626Y-158268I-8465J0D01*
G01*
X-81319Y-158268D02*
G03*
X-89784Y-166732I0J-8465D01*
G01*
X-66161Y-135630D02*
G03*
X-74626Y-127165I-8465J0D01*
G01*
X-40177Y-135630D02*
G03*
X-48642Y-127165I-8465J0D01*
G01*
X-55335D02*
G03*
X-63799Y-135630I0J-8465D01*
G01*
X-115374Y-147835D02*
G03*
X-107303Y-155905I8071J0D01*
G01*
Y-127559D02*
G03*
X-115374Y-135630I0J-8071D01*
G01*
X-89784Y-147835D02*
G03*
X-81319Y-156299I8465J-0D01*
G01*
X-100610Y-155905D02*
G03*
X-92539Y-147835I0J8071D01*
G01*
X-81319Y-127165D02*
G03*
X-89784Y-135630I0J-8465D01*
G01*
X-92539D02*
G03*
X-100610Y-127559I-8071J0D01*
G01*
X-118130Y-166732D02*
G03*
X-126594Y-158268I-8465J0D01*
G01*
X-133287D02*
G03*
X-141752Y-166732I0J-8465D01*
G01*
X-118130Y-135630D02*
G03*
X-126594Y-127165I-8465J0D01*
G01*
X-141752Y-147835D02*
G03*
X-133287Y-156299I8465J0D01*
G01*
Y-127165D02*
G03*
X-141752Y-135630I0J-8465D01*
G01*
X-126594Y-156299D02*
G03*
X-118130Y-147835I0J8465D01*
G01*
X-14193Y-135630D02*
G03*
X-22658Y-127165I-8465J0D01*
G01*
X-29350D02*
G03*
X-37815Y-135630I0J-8465D01*
G01*
X-3366Y-127165D02*
G03*
X-11831Y-135630I0J-8465D01*
G01*
X11791D02*
G03*
X3327Y-127165I-8465J0D01*
G01*
Y-156299D02*
G03*
X11791Y-147835I0J8465D01*
G01*
X-11831D02*
G03*
X-3366Y-156299I8465J0D01*
G01*
X-22658D02*
G03*
X-14193Y-147835I0J8465D01*
G01*
X-63799Y-147835D02*
G03*
X-55335Y-156299I8465J-0D01*
G01*
X-37815Y-147835D02*
G03*
X-29350Y-156299I8465J0D01*
G01*
X-48642D02*
G03*
X-40177Y-147835I-0J8465D01*
G01*
X-74626Y-156299D02*
G03*
X-66161Y-147835I-0J8465D01*
G01*
X141713Y-166732D02*
G03*
X133248Y-158268I-8465J0D01*
G01*
X126555D02*
G03*
X118091Y-166732I0J-8465D01*
G01*
X159232Y-156299D02*
G03*
X167697Y-147835I0J8465D01*
G01*
Y-135630D02*
G03*
X159232Y-127165I-8465J0D01*
G01*
Y-125197D02*
G03*
X167697Y-116732I0J8465D01*
G01*
X152539Y-158268D02*
G03*
X144075Y-166732I0J-8465D01*
G01*
X167697D02*
G03*
X159232Y-158268I-8465J0D01*
G01*
X74587D02*
G03*
X66122Y-166732I0J-8465D01*
G01*
X63760D02*
G03*
X55295Y-158268I-8465J0D01*
G01*
X115728Y-166732D02*
G03*
X107264Y-158268I-8465J0D01*
G01*
X100571D02*
G03*
X92106Y-166732I0J-8465D01*
G01*
X89744D02*
G03*
X81279Y-158268I-8465J0D01*
G01*
X55295Y-187402D02*
G03*
X63760Y-178937I-0J8465D01*
G01*
X159232Y-187402D02*
G03*
X167697Y-178937I0J8465D01*
G01*
X144075D02*
G03*
X152539Y-187402I8465J0D01*
G01*
X66122Y-178937D02*
G03*
X74587Y-187402I8465J-0D01*
G01*
X-74626D02*
G03*
X-66161Y-178937I-0J8465D01*
G01*
X-63799Y-178937D02*
G03*
X-55335Y-187402I8465J-0D01*
G01*
X-159272Y-158268D02*
G03*
X-167736Y-166732I0J-8465D01*
G01*
Y-178937D02*
G03*
X-159272Y-187402I8465J0D01*
G01*
X-141752Y-178937D02*
G03*
X-133287Y-187402I8465J0D01*
G01*
X-152579D02*
G03*
X-144114Y-178937I0J8465D01*
G01*
X-126594Y-187402D02*
G03*
X-118130Y-178937I0J8465D01*
G01*
X-144114Y-166732D02*
G03*
X-152579Y-158268I-8465J0D01*
G01*
X81279Y-187402D02*
G03*
X89744Y-178937I-0J8465D01*
G01*
X92106D02*
G03*
X100571Y-187402I8465J0D01*
G01*
X107264D02*
G03*
X115728Y-178937I0J8465D01*
G01*
X133248Y-187402D02*
G03*
X141713Y-178937I0J8465D01*
G01*
X118091D02*
G03*
X126555Y-187402I8465J0D01*
G01*
X159232Y-62992D02*
G03*
X167697Y-54528I0J8465D01*
G01*
Y-104528D02*
G03*
X159232Y-96063I-8465J0D01*
G01*
X159232Y-94095D02*
G03*
X167697Y-85630I0J8465D01*
G01*
Y-73425D02*
G03*
X159232Y-64961I-8465J-0D01*
G01*
X-159272Y-127165D02*
G03*
X-167736Y-135630I0J-8465D01*
G01*
X-152579Y-156299D02*
G03*
X-144114Y-147835I0J8465D01*
G01*
X-167736D02*
G03*
X-159272Y-156299I8465J0D01*
G01*
X-144114Y-135630D02*
G03*
X-152579Y-127165I-8465J0D01*
G01*
X-100610Y-187402D02*
G03*
X-92146Y-178937I0J8465D01*
G01*
X-89784D02*
G03*
X-81319Y-187402I8465J-0D01*
G01*
X-115768Y-178937D02*
G03*
X-107303Y-187402I8465J0D01*
G01*
X115728Y-135630D02*
G03*
X107264Y-127165I-8465J0D01*
G01*
Y-125197D02*
G03*
X115728Y-116732I0J8465D01*
G01*
X92106Y-147835D02*
G03*
X100571Y-156299I8465J0D01*
G01*
X92106Y-116732D02*
G03*
X100571Y-125197I8465J0D01*
G01*
Y-127165D02*
G03*
X92106Y-135630I0J-8465D01*
G01*
X107264Y-156299D02*
G03*
X115728Y-147835I0J8465D01*
G01*
X107264Y-94095D02*
G03*
X115728Y-85630I0J8465D01*
G01*
X115728Y-104528D02*
G03*
X107264Y-96063I-8465J0D01*
G01*
X100571D02*
G03*
X92106Y-104528I0J-8465D01*
G01*
X92106Y-85630D02*
G03*
X100571Y-94095I8465J0D01*
G01*
X118090Y-85630D02*
G03*
X126555Y-94095I8465J0D01*
G01*
Y-127165D02*
G03*
X118091Y-135630I0J-8465D01*
G01*
Y-147835D02*
G03*
X126555Y-156299I8465J0D01*
G01*
Y-96063D02*
G03*
X118091Y-104528I0J-8465D01*
G01*
Y-116732D02*
G03*
X126555Y-125197I8465J0D01*
G01*
X115728Y-42323D02*
G03*
X107264Y-33858I-8465J0D01*
G01*
X100571D02*
G03*
X92106Y-42323I0J-8465D01*
G01*
X92106Y-54528D02*
G03*
X100571Y-62992I8465J0D01*
G01*
X126555Y-64961D02*
G03*
X118090Y-73425I-0J-8465D01*
G01*
Y-54528D02*
G03*
X126555Y-62992I8465J0D01*
G01*
Y-33858D02*
G03*
X118091Y-42323I0J-8465D01*
G01*
X100571Y-64961D02*
G03*
X92106Y-73425I-0J-8465D01*
G01*
X115728D02*
G03*
X107264Y-64961I-8465J-0D01*
G01*
Y-62992D02*
G03*
X115728Y-54528I0J8465D01*
G01*
X133248Y-94095D02*
G03*
X141713Y-85630I0J8465D01*
G01*
X133248Y-156299D02*
G03*
X141713Y-147835I0J8465D01*
G01*
Y-135630D02*
G03*
X133248Y-127165I-8465J0D01*
G01*
X141713Y-104528D02*
G03*
X133248Y-96063I-8465J0D01*
G01*
Y-125197D02*
G03*
X141713Y-116732I0J8465D01*
G01*
X152539Y-33858D02*
G03*
X144075Y-42323I0J-8465D01*
G01*
X133248Y-62992D02*
G03*
X141713Y-54528I0J8465D01*
G01*
Y-73425D02*
G03*
X133248Y-64961I-8465J-0D01*
G01*
X141713Y-42323D02*
G03*
X133248Y-33858I-8465J0D01*
G01*
X152539Y-64961D02*
G03*
X144075Y-73425I-0J-8465D01*
G01*
Y-54528D02*
G03*
X152539Y-62992I8465J0D01*
G01*
X144075Y-85630D02*
G03*
X152539Y-94095I8465J0D01*
G01*
Y-96063D02*
G03*
X144075Y-104528I0J-8465D01*
G01*
Y-116732D02*
G03*
X152539Y-125197I8465J0D01*
G01*
X144075Y-147835D02*
G03*
X152539Y-156299I8465J0D01*
G01*
Y-127165D02*
G03*
X144075Y-135630I0J-8465D01*
G01*
X-140472Y-29528D02*
G03*
X-132008Y-21063I0J8465D01*
G01*
X-129646D02*
G03*
X-121181Y-29528I8465J0D01*
G01*
X-167736Y-21063D02*
G03*
X-159272Y-29528I8465J0D01*
G01*
X-26217D02*
G03*
X-17736Y-21063I16J8465D01*
G01*
X-53465Y-21063D02*
G03*
X-45000Y-29528I8465J0D01*
G01*
X26177Y-394D02*
G03*
X17697Y-8858I-16J-8465D01*
G01*
Y-21063D02*
G03*
X26162Y-29528I8465J0D01*
G01*
X-83091Y-394D02*
G03*
X-91555Y-8858I-0J-8465D01*
G01*
X-93917D02*
G03*
X-102382Y-394I-8465J-0D01*
G01*
X-55827Y-8858D02*
G03*
X-64291Y-394I-8465J-0D01*
G01*
X-121181D02*
G03*
X-129646Y-8858I-0J-8465D01*
G01*
X-132008D02*
G03*
X-140472Y-394I-8465J-0D01*
G01*
X-45015Y-394D02*
G03*
X-53465Y-8858I15J-8465D01*
G01*
X-159272Y-394D02*
G03*
X-167736Y-8858I-0J-8465D01*
G01*
X-17736Y-8858D02*
G03*
X-26201Y-394I-8465J0D01*
G01*
X-29350Y-33858D02*
G03*
X-37815Y-42323I0J-8465D01*
G01*
X-40177Y-42323D02*
G03*
X-48642Y-33858I-8465J0D01*
G01*
X-3366D02*
G03*
X-11831Y-42323I0J-8465D01*
G01*
X11791D02*
G03*
X3327Y-33858I-8465J0D01*
G01*
X-14193Y-42323D02*
G03*
X-22658Y-33858I-8465J0D01*
G01*
X53425Y-8858D02*
G03*
X44961Y-394I-8465J-0D01*
G01*
X44976Y-29528D02*
G03*
X53425Y-21063I-15J8465D01*
G01*
X55787D02*
G03*
X64252Y-29528I8465J0D01*
G01*
X91516Y-8858D02*
G03*
X83051Y-394I-8465J-0D01*
G01*
X64252D02*
G03*
X55787Y-8858I-0J-8465D01*
G01*
X83051Y-29528D02*
G03*
X91516Y-21063I0J8465D01*
G01*
X-81319Y-33858D02*
G03*
X-89784Y-42323I0J-8465D01*
G01*
X-66161Y-42323D02*
G03*
X-74626Y-33858I-8465J0D01*
G01*
X-55335D02*
G03*
X-63799Y-42323I0J-8465D01*
G01*
X-64291Y-29528D02*
G03*
X-55827Y-21063I0J8465D01*
G01*
X-92146Y-42323D02*
G03*
X-100610Y-33858I-8465J0D01*
G01*
X-102382Y-29528D02*
G03*
X-93917Y-21063I0J8465D01*
G01*
X-91555D02*
G03*
X-83091Y-29528I8465J0D01*
G01*
X121142D02*
G03*
X129606Y-21063I0J8465D01*
G01*
X93878D02*
G03*
X102342Y-29528I8465J0D01*
G01*
X140433Y-394D02*
G03*
X131968Y-8858I-0J-8465D01*
G01*
X131968Y-21063D02*
G03*
X140433Y-29528I8465J0D01*
G01*
X102342Y-394D02*
G03*
X93878Y-8858I-0J-8465D01*
G01*
X129606D02*
G03*
X121142Y-394I-8465J-0D01*
G01*
X159232Y-29528D02*
G03*
X167697Y-21063I0J8465D01*
G01*
X167697Y-8858D02*
G03*
X159232Y-394I-8465J-0D01*
G01*
X167697Y-42323D02*
G03*
X159232Y-33858I-8465J0D01*
G01*
X-107303D02*
G03*
X-115768Y-42323I0J-8465D01*
G01*
X-133287Y-33858D02*
G03*
X-141752Y-42323I0J-8465D01*
G01*
X-144114D02*
G03*
X-152579Y-33858I-8465J0D01*
G01*
X-159272D02*
G03*
X-167736Y-42323I0J-8465D01*
G01*
X-118130D02*
G03*
X-126594Y-33858I-8465J0D01*
G01*
X-194883Y-188976D02*
G03*
X-187008Y-196851I7875J0D01*
G01*
X187008D02*
G03*
X194883Y-188976I0J7875D01*
G01*
Y3937D02*
G03*
X187008Y11812I-7875J0D01*
G01*
X-187008D02*
G03*
X-194883Y3937I0J-7875D01*
G01*
X40138Y-147835D02*
Y-135630D01*
X74587Y-125197D02*
X81279D01*
X48602D02*
X55295D01*
X74587Y-156299D02*
X81279D01*
X74587Y-127165D02*
X81279D01*
X48602D02*
X55295D01*
X48602Y-156299D02*
X55295D01*
X63760Y-147835D02*
Y-135630D01*
X66122Y-147835D02*
Y-135630D01*
X40138Y-116732D02*
Y-104528D01*
X48602Y-96063D02*
X55295D01*
X40138Y-85630D02*
Y-73425D01*
X37776Y-85630D02*
Y-73425D01*
X48602Y-94095D02*
X55295D01*
X37776Y-116732D02*
Y-104528D01*
X74587Y-94095D02*
X81279D01*
X63760Y-116732D02*
Y-104528D01*
Y-85630D02*
Y-73425D01*
X66122Y-85630D02*
Y-73425D01*
X74587Y-96063D02*
X81279D01*
X66122Y-116732D02*
Y-104528D01*
X92106Y-147835D02*
Y-135630D01*
X89744Y-116732D02*
Y-104528D01*
Y-147835D02*
Y-135630D01*
Y-85630D02*
Y-73425D01*
X92106Y-85630D02*
Y-73425D01*
Y-116732D02*
Y-104528D01*
X40138Y-54528D02*
Y-42323D01*
X66122Y-54528D02*
Y-42323D01*
X89744Y-54528D02*
Y-42323D01*
X37776Y-54528D02*
Y-42323D01*
X63760Y-54528D02*
Y-42323D01*
X48602Y-33858D02*
X55295D01*
X22618D02*
X29311D01*
X74587D02*
X81279D01*
X22618Y-62992D02*
X29311D01*
X48602Y-64961D02*
X55295D01*
X74587Y-62992D02*
X81279D01*
X48602D02*
X55295D01*
X74587Y-64961D02*
X81279D01*
X22618D02*
X29311D01*
X22618Y-125197D02*
X29311D01*
X22618Y-94095D02*
X29311D01*
X22618Y-127165D02*
X29311D01*
X22618Y-96063D02*
X29311D01*
X22618Y-156299D02*
X29311D01*
X37776Y-147835D02*
Y-135630D01*
X14153Y-54528D02*
Y-42323D01*
Y-116732D02*
Y-104528D01*
Y-147835D02*
Y-135630D01*
Y-85630D02*
Y-73425D01*
X-37815Y-85630D02*
Y-73425D01*
X-40177Y-85630D02*
Y-73425D01*
X-29350Y-94095D02*
X-22658D01*
X-29350Y-96063D02*
X-22658D01*
X-37815Y-116732D02*
Y-104528D01*
X-29350Y-125197D02*
X-22658D01*
X-40177Y-116732D02*
Y-104528D01*
X-159272Y-64961D02*
X-152579D01*
X-159272Y-94095D02*
X-152579D01*
X-159272Y-62992D02*
X-152579D01*
X-167736Y-85630D02*
Y-73425D01*
X-107303Y-94095D02*
X-100610D01*
X-92146Y-116732D02*
Y-104528D01*
X-107303Y-96063D02*
X-100610D01*
X-89784Y-116732D02*
Y-104528D01*
X-107303Y-125197D02*
X-100610D01*
X-11831Y-116732D02*
Y-104528D01*
Y-85630D02*
Y-73425D01*
X-14193Y-85630D02*
Y-73425D01*
Y-116732D02*
Y-104528D01*
X-159272Y-96063D02*
X-152579D01*
X-167736Y-116732D02*
Y-104528D01*
X-159272Y-125197D02*
X-152579D01*
X-144114Y-116732D02*
Y-104528D01*
X-107303Y-64961D02*
X-100610D01*
X-92146Y-85630D02*
Y-73425D01*
X-89784Y-85630D02*
Y-73425D01*
X-107303Y-62992D02*
X-100610D01*
X-133287Y-96063D02*
X-126594D01*
X-133287Y-125197D02*
X-126594D01*
X-141752Y-116732D02*
Y-104528D01*
X-118130Y-116732D02*
Y-104528D01*
X-115768Y-116732D02*
Y-104528D01*
X-133287Y-94095D02*
X-126594D01*
X-115768Y-85630D02*
Y-73425D01*
X-133287Y-62992D02*
X-126594D01*
X-118130Y-85630D02*
Y-73425D01*
X-144114Y-85630D02*
Y-73425D01*
X-133287Y-64961D02*
X-126594D01*
X-141752Y-85630D02*
Y-73425D01*
X-55335Y-62992D02*
X-48642D01*
X-29350D02*
X-22658D01*
X-29350Y-64961D02*
X-22658D01*
X-55335D02*
X-48642D01*
X-63799Y-116732D02*
Y-104528D01*
X-81319Y-96063D02*
X-74626D01*
X-55335D02*
X-48642D01*
X-55335Y-94095D02*
X-48642D01*
X-81319Y-125197D02*
X-74626D01*
X-55335D02*
X-48642D01*
X-66161Y-116732D02*
Y-104528D01*
X-81319Y-62992D02*
X-74626D01*
X-81319Y-64961D02*
X-74626D01*
X-81319Y-94095D02*
X-74626D01*
X-63799Y-85630D02*
Y-73425D01*
X-66161Y-85630D02*
Y-73425D01*
X-3366Y-125197D02*
X3327D01*
X11791Y-116732D02*
Y-104528D01*
X-3366Y-96063D02*
X3327D01*
X-3366Y-94095D02*
X3327D01*
X-3366Y-62992D02*
X3327D01*
X-3366Y-64961D02*
X3327D01*
X11791Y-85630D02*
Y-73425D01*
X-81319Y-156299D02*
X-74626D01*
X-81319Y-158268D02*
X-74626D01*
X-89784Y-178937D02*
Y-166732D01*
X-107303Y-158268D02*
X-100610D01*
X-63799Y-178937D02*
Y-166732D01*
X-92146Y-178937D02*
Y-166732D01*
X-115768Y-178937D02*
Y-166732D01*
X-66161Y-178937D02*
Y-166732D01*
X-81319Y-127165D02*
X-74626D01*
X-40177Y-147835D02*
Y-135630D01*
X-63799Y-147835D02*
Y-135630D01*
X-66161Y-147835D02*
Y-135630D01*
X-55335Y-127165D02*
X-48642D01*
X-115374Y-147835D02*
Y-135630D01*
X-107303Y-127559D02*
X-100610D01*
X-107303Y-155905D02*
X-100610D01*
X-89784Y-147835D02*
Y-135630D01*
X-92539Y-147835D02*
Y-135630D01*
X-133287Y-158268D02*
X-126594D01*
X-133287Y-127165D02*
X-126594D01*
X-141752Y-178937D02*
Y-166732D01*
X-118130Y-178937D02*
Y-166732D01*
X-141752Y-147835D02*
Y-135630D01*
X-144114Y-178937D02*
Y-166732D01*
X-118130Y-147835D02*
Y-135630D01*
X-144114Y-147835D02*
Y-135630D01*
X-133287Y-156299D02*
X-126594D01*
X-37815Y-147835D02*
Y-135630D01*
X-29350Y-127165D02*
X-22658D01*
X-3366D02*
X3327D01*
X11791Y-147835D02*
Y-135630D01*
X-11831Y-147835D02*
Y-135630D01*
X-14193Y-147835D02*
Y-135630D01*
X-55335Y-158268D02*
X55295D01*
X-3366Y-156299D02*
X3327D01*
X-29350D02*
X-22658D01*
X-55335D02*
X-48642D01*
X141713Y-178937D02*
Y-166732D01*
X118091Y-178937D02*
Y-166732D01*
X167697Y-147835D02*
Y-135630D01*
X144075Y-178937D02*
Y-166732D01*
X152539Y-158268D02*
X159232D01*
X126555D02*
X133248D01*
X167697Y-178937D02*
Y-166732D01*
X74587Y-158268D02*
X81279D01*
X100571D02*
X107264D01*
X66122Y-178937D02*
Y-166732D01*
X89744Y-178937D02*
Y-166732D01*
X92106Y-178937D02*
Y-166732D01*
X63760Y-178937D02*
Y-166732D01*
X115728Y-178937D02*
Y-166732D01*
X74587Y-187402D02*
X81279D01*
X167697Y-116732D02*
Y-104528D01*
X152539Y-187402D02*
X159232D01*
X-55335D02*
X55295D01*
X-81319D02*
X-74626D01*
X-133287D02*
X-126594D01*
X-159272Y-158268D02*
X-152579D01*
X-167736Y-178937D02*
Y-166732D01*
X-159272Y-187402D02*
X-152579D01*
X100571D02*
X107264D01*
X126555D02*
X133248D01*
X167697Y-85630D02*
Y-73425D01*
X-159272Y-156299D02*
X-152579D01*
X-159272Y-127165D02*
X-152579D01*
X-167736Y-147835D02*
Y-135630D01*
X-107303Y-187402D02*
X-100610D01*
X100571Y-127165D02*
X107264D01*
X100571Y-125197D02*
X107264D01*
X100571Y-156299D02*
X107264D01*
X126555Y-96063D02*
X133248D01*
X126555Y-94095D02*
X133248D01*
X126555Y-125197D02*
X133248D01*
X126555Y-127165D02*
X133248D01*
X126555Y-156299D02*
X133248D01*
X100571Y-96063D02*
X107264D01*
X100571Y-94095D02*
X107264D01*
X118091Y-85630D02*
Y-73425D01*
X115728Y-116732D02*
Y-104528D01*
X118091Y-147835D02*
Y-135630D01*
Y-116732D02*
Y-104528D01*
X115728Y-147835D02*
Y-135630D01*
Y-85630D02*
Y-73425D01*
X100571Y-64961D02*
X107264D01*
X118091Y-54528D02*
Y-42323D01*
X100571Y-33858D02*
X107264D01*
X115728Y-54528D02*
Y-42323D01*
X100571Y-62992D02*
X107264D01*
X92106Y-54528D02*
Y-42323D01*
X141713Y-116732D02*
Y-104528D01*
Y-85630D02*
Y-73425D01*
X144075Y-116732D02*
Y-104528D01*
Y-85630D02*
Y-73425D01*
Y-147835D02*
Y-135630D01*
X141713Y-147835D02*
Y-135630D01*
X126555Y-33858D02*
X133248D01*
X126555Y-62992D02*
X133248D01*
X152539D02*
X159232D01*
X126555Y-64961D02*
X133248D01*
X141713Y-54528D02*
Y-42323D01*
X152539Y-33858D02*
X159232D01*
X144075Y-54528D02*
Y-42323D01*
X152539Y-64961D02*
X159232D01*
X152539Y-156299D02*
X159232D01*
X152539Y-125197D02*
X159232D01*
X152539Y-96063D02*
X159232D01*
X152539Y-127165D02*
X159232D01*
X152539Y-94095D02*
X159232D01*
X-132008Y-21063D02*
Y-8858D01*
X-167736Y-21063D02*
Y-8858D01*
X-129646Y-21063D02*
Y-8858D01*
X-89784Y-54528D02*
Y-42323D01*
X-167736Y-54528D02*
Y-42323D01*
X-144114Y-54528D02*
Y-42323D01*
X-141752Y-54528D02*
Y-42323D01*
X-115768Y-54528D02*
Y-42323D01*
X-92146Y-54528D02*
Y-42323D01*
X-63799Y-54528D02*
Y-42323D01*
X-66161Y-54528D02*
Y-42323D01*
X-118130Y-54528D02*
Y-42323D01*
X-53465Y-21063D02*
Y-8858D01*
X-17736Y-21063D02*
Y-8858D01*
X-45000Y-29528D02*
X-26217D01*
X26162D02*
X44976Y-29528D01*
X26177Y-394D02*
X44961D01*
X17697Y-21063D02*
Y-8858D01*
X-83091Y-394D02*
X-64291D01*
X-45015Y-394D02*
X-26201Y-394D01*
X-121181D02*
X-102382D01*
X-159272D02*
X-140472D01*
X-55335Y-33858D02*
X-48642D01*
X-37815Y-54528D02*
Y-42323D01*
X-40177Y-54528D02*
Y-42323D01*
X-29350Y-33858D02*
X-22658D01*
X11791Y-54528D02*
Y-42323D01*
X-3366Y-33858D02*
X3327D01*
X-14193Y-54528D02*
Y-42323D01*
X-11831Y-54528D02*
Y-42323D01*
X64252Y-29528D02*
X83051D01*
X64252Y-394D02*
X83051D01*
X55787Y-21063D02*
Y-8858D01*
X91516Y-21063D02*
Y-8858D01*
X53425Y-21063D02*
Y-8858D01*
X-55827Y-21063D02*
Y-8858D01*
X-93917Y-21063D02*
Y-8858D01*
X-83091Y-29528D02*
X-64291D01*
X-91555Y-21063D02*
Y-8858D01*
X-81319Y-33858D02*
X-74626D01*
X102342Y-29528D02*
X121142D01*
X102342Y-394D02*
X121142D01*
X129606Y-21063D02*
Y-8858D01*
X93878Y-21063D02*
Y-8858D01*
X131968Y-21063D02*
Y-8858D01*
X167697Y-54528D02*
Y-42323D01*
X140433Y-394D02*
X159232D01*
X167697Y-21063D02*
Y-8858D01*
X140433Y-29528D02*
X159232D01*
X-107303Y-33858D02*
X-100610D01*
X-159272D02*
X-152579D01*
X-121181Y-29528D02*
X-102382D01*
X-159272D02*
X-140472D01*
X-133287Y-33858D02*
X-126594D01*
X-194882Y-188977D02*
Y3938D01*
X-187009Y-196850D02*
X187009D01*
X194882Y-188977D02*
Y3937D01*
X-187009Y11811D02*
X187008D01*
M02*
